/* XPM */
static char * rndabi_xpm[] = {
"48 48 256 2",
"  	c None",
". 	c #1A1A1C",
"+ 	c #4E7A9C",
"@ 	c #3E4A54",
"# 	c #A6AAAC",
"$ 	c #42627C",
"% 	c #7A7A7C",
"& 	c #5692CC",
"* 	c #5E625C",
"= 	c #425664",
"- 	c #727A74",
"; 	c #4E6E8C",
"> 	c #7A96B4",
", 	c #6A92BC",
"' 	c #5286B4",
") 	c #5E6E74",
"! 	c #2E3234",
"~ 	c #4A4A4C",
"{ 	c #525654",
"] 	c #929294",
"^ 	c #569ADC",
"/ 	c #5A625C",
"( 	c #BEC2C4",
"_ 	c #3A3E3C",
": 	c #566E84",
"< 	c #465254",
"[ 	c #5E7A94",
"} 	c #466A8C",
"| 	c #568EC4",
"1 	c #6E6E6C",
"2 	c #7E8684",
"3 	c #6292C4",
"4 	c #4E5654",
"5 	c #4A627C",
"6 	c #5E6A6C",
"7 	c #6286B4",
"8 	c #4E769C",
"9 	c #7A9EC4",
"0 	c #424244",
"a 	c #424A44",
"b 	c #B2B6B4",
"c 	c #5A86AC",
"d 	c #9A9E9C",
"e 	c #5692D4",
"f 	c #6A9ED4",
"g 	c #565E5C",
"h 	c #425E74",
"i 	c #4A6E94",
"j 	c #66767C",
"k 	c #629AD4",
"l 	c #364654",
"m 	c #CACECC",
"n 	c #8A8A8C",
"o 	c #5282AC",
"p 	c #768284",
"q 	c #8A928C",
"r 	c #666E6C",
"s 	c #4A524C",
"t 	c #5E9AD4",
"u 	c #5682AC",
"v 	c #527AA4",
"w 	c #3E566C",
"x 	c #323A3C",
"y 	c #5A5A5C",
"z 	c #526A84",
"A 	c #3E3E3C",
"B 	c #4E6674",
"C 	c #666A64",
"D 	c #424A54",
"E 	c #A2A6A4",
"F 	c #527294",
"G 	c #262624",
"H 	c #AEB2B4",
"I 	c #466684",
"J 	c #7A8284",
"K 	c #5E92C7",
"L 	c #666664",
"M 	c #767E80",
"N 	c #6A9ACC",
"O 	c #568AC0",
"P 	c #525A5C",
"Q 	c #569EE4",
"R 	c #567696",
"S 	c #6E7674",
"T 	c #868684",
"U 	c #BABEBC",
"V 	c #5A8ABC",
"W 	c #4A7298",
"X 	c #667274",
"Y 	c #3A4E64",
"Z 	c #5E6664",
"` 	c #969A9C",
" .	c #526674",
"..	c #C6CAC4",
"+.	c #3E5264",
"@.	c #6E8AAC",
"#.	c #7AA2CC",
"$.	c #A2A2A4",
"%.	c #5696DC",
"&.	c #729ED4",
"*.	c #8E9A9C",
"=.	c #525254",
"-.	c #4A7AAC",
";.	c #AEAEAC",
">.	c #466280",
",.	c #767A78",
"'.	c #5686B7",
").	c #363634",
"!.	c #5A9ADD",
"~.	c #3A423C",
"{.	c #567284",
"].	c #567EA9",
"^.	c #5E8EC4",
"/.	c #4A5E74",
"(.	c #626A74",
"_.	c #464E4C",
":.	c #BABABC",
"<.	c #9EA2A2",
"[.	c #5E5E5C",
"}.	c #D6D6D4",
"|.	c #8E9694",
"1.	c #4A525C",
"2.	c #5A82B0",
"3.	c #46566C",
"4.	c #4A6684",
"5.	c #4E7297",
"6.	c #66727C",
"7.	c #222224",
"8.	c #AAAEAC",
"9.	c #2E2E2C",
"0.	c #668EBC",
"a.	c #D2D2D4",
"b.	c #C6C6C4",
"c.	c #5A666C",
"d.	c #828A84",
"e.	c #4A5A64",
"f.	c #7292B4",
"g.	c #3E4246",
"h.	c #7A9ABC",
"i.	c #6E726C",
"j.	c #6296CC",
"k.	c #668AAC",
"l.	c #3E5A74",
"m.	c #2A2A2C",
"n.	c #728EB4",
"o.	c #76A2D4",
"p.	c #1E1E1C",
"q.	c #7A7E7C",
"r.	c #4A4E4C",
"s.	c #929694",
"t.	c #424644",
"u.	c #B6BAB4",
"v.	c #8A8E8C",
"w.	c #4E6A84",
"x.	c #3E4650",
"y.	c #527EAB",
"z.	c #424E58",
"A.	c #5E96CC",
"B.	c #868A88",
"C.	c #3A3A3C",
"D.	c #828284",
"E.	c #729ACC",
"F.	c #767674",
"G.	c #56626C",
"H.	c #363E4C",
"I.	c #7E8A94",
"J.	c #768294",
"K.	c #5A92CC",
"L.	c #626264",
"M.	c #465660",
"N.	c #526E87",
"O.	c #323234",
"P.	c #565654",
"Q.	c #5A6E84",
"R.	c #5A8EC4",
"S.	c #4E6279",
"T.	c #626A68",
"U.	c #527698",
"V.	c #7E9EC0",
"W.	c #464A49",
"X.	c #5E86B4",
"Y.	c #5A5E5C",
"Z.	c #465E74",
"`.	c #8E9291",
" +	c #4E5254",
".+	c #566A7C",
"++	c #6A6A6C",
"@+	c #565A5B",
"#+	c #5E8AB8",
"$+	c #6A7270",
"%+	c #3E4E60",
"&+	c #56667C",
"*+	c #CACACC",
"=+	c #425267",
"-+	c #5A96D5",
";+	c #769ECC",
">+	c #727274",
",+	c #AAAAAC",
"'+	c #626E74",
")+	c #C2C2C4",
"!+	c #4A6A8C",
"~+	c #B6B6B4",
"{+	c #9E9E9C",
"]+	c #5A92D4",
"^+	c #6E9ED4",
"/+	c #4E6E94",
"(+	c #669AD4",
"_+	c #CECECC",
":+	c #6A6E6C",
"<+	c #42566C",
"[+	c #363A3C",
"}+	c #A6A6A4",
"|+	c #B2B2B4",
"1+	c #7E8284",
"2+	c #6E9ACC",
"3+	c #5A9EE4",
"4+	c #727674",
"5+	c #BEBEBC",
"6+	c #626664",
"7+	c #9A9A9C",
"8+	c #7EA2CC",
"9+	c #4E7AAC",
"0+	c #4E6684",
"a+	c #7E9ABC",
"b+	c #6696CC",
"c+	c #7E7E7C",
"d+	c #4E4E4C",
"e+	c #969694",
"f+	c #464644",
"g+	c #8E8E8C",
"h+	c #4E7AA4",
"i+	c #3E4A5C",
"j+	c #426284",
"k+	c #5E6264",
"l+	c #727A7C",
"m+	c #6A92C4",
"n+	c #5286BC",
"o+	c #2E323C",
"p+	c #52565C",
"q+	c #569AE4",
"r+	c #3A3E44",
"s+	c #566E8C",
"t+	c #46525C",
"u+	c #5E7A9C",
"v+	c #568ECC",
"w+	c #4E565C",
"x+	c #5A86B4",
"y+	c #565E64",
"z+	c #425E7C",
"A+	c #667684",
"B+	c #4A5254",
"C+	c #5E9ADC",
"D+	c #5682B4",
"E+	c #4E667C",
"F+	c #666A6C",
"G+	c #46668C",
"                                                                                                ",
"                                      1 n {+7+e+] g+n 1 =.                                      ",
"                                $.~+:.~+|+;.,+}+$.{+7+e+] g+D.L.                                ",
"                          c+)+)+)+5+:.|+|+;.,+}+$.{+7+e+] g+n D.F.++                            ",
"                        5+b.*+)+)+:.:.|+;.;.,+}+$.{+7+] g+n n T D.c+F.L.                        ",
"                    }+a._+*+b.)+5+5+~+~+|+,+}+$.{+{+e+e+] g+n D.D.c+% >+L O.                    ",
"                  5+_+a._+b.b.)+5+:.~+|+;.;.,+$.{+{+7+e+] n n D.D.c+% >+>+++d+                  ",
"                a.a.a._+*+*+)+5+:.:.|+|+;.,+}+$.{+7+e+] g+g+T T c+% F.F.>+++[.~                 ",
"              a.}.a._+*+b.b.)+5+:.:.|+|+,+}+}+$.{+7+e+] g+n T D.D.% F.>+1 ++L L.d+              ",
"            b.a.a._+_+*+b.)+b :.:.|+|+;.,+,+$.{+7+e+e+] n n T D.c+% F.>+>+++L [.=.).            ",
"          7+a.a.a.*+*+)+U # `.` b |+;.;.}+}+$.{+{+e+] ] g+B.1+q.q.% F.>+1 ++L L.L.y m.          ",
"          _+a._+*+U b {+<.# 8.$.d |+;.,+,+}+$.{+e+e+] g+n 1+C 6+[.:+:+i.1 ++L L.[.P.f+          ",
"        5+_+*+U |+}+u.:.U :.u.H `.8.;.}+}+$.{+{+e+] g+g+n J >+1+,.4+L.* [.L L [.y @+=.A         ",
"      D.m 5+U u.b.)+( 5+5+:.~+|+` d ,+,+$.{+{+e+e+] ] n T L 1+q.F.F.4+i.Y.g @+@+@+P.=.0         ",
"      |+..b.b.)+( 5+U :.:.~+|+;.<.1+E $.$.{+{+e+e+g+g+B.S - c+c+F.>+1 1 ++L L.[.[.P.=.d+C.      ",
"      b.)+)+)+5+5+5+:.~+~+|+|+;.8.d.|.$.{+{+e+e+] g+n d./ 1+c+F.F.>+1 ++L 6+L.[.P.P.=.~ C.      ",
"    {+)+)+5+5+5+:.:.u.|+|+;.;.,+,+$.M <.7+` s.`.`.v.B.C :+c+c+% F.>+1 ++L L.[.[.P.=.d+~ f+m.    ",
"    5+5+:.:.:.:.~+|+|+|+|+;.;.}+$.$.C ,.*.A+y+y+p+p+ +~.l+c+F.F.>+1 :+++L.[.[.y P.=.=.~ f+9.    ",
"    :.:.:.:.~+~+~+|+|+;.,+,+,+}+$.<.r (.@.;+a+h.n.f.@.Q.G.$+S F.>+++++L L [.y y P.d+d+~ f+A     ",
"  c+|+~+|+|+|+|+;.;.,+,+,+}+$.$.<.d I.V.o.o.&.b+b+0.0.b+#+u+G.i.1 1 L L [.[.y P.=.=.d+f+0 O.    ",
"  n ;.|+;.;.;.;.;.;.,+}+}+$.$.{+d p a+&.(+k (+j.R.%+S.^.=+=+X.&+:+++L L [.[.P.P.d+d+~ f+f+A 7.  ",
"  ;.;.;.;.;.,+,+}+}+}+}+$.$.{+7+B.J.9 ^+k k t t K.l.%+R.$ M.3 #+E+T.L.[.[.y P.=.=.~ ~ f+A C.p.  ",
"  7+,+,+}+,+}+}+}+$.$.{+{+{+{+` q.> &.f 3+k C+!.]+j+G+R.G+!+^.^.2.S.6+[.y y P.d+d+~ f+f+A A 9.  ",
"  }+}+}+}+$.$.$.{+{+{+{+7+e+e+q A+#.^+k k 3+!.3+^ e v+-+| O K.R.#+].M.k+y P.=.=.d+f+f+A A ).p.  ",
"  ] $.$.$.$.$.{+{+7+7+7+7+e+s.p 9 o.k t t 3+!.3+Q Q ^ %.-+K.R.R.#+'.Z.g P.=.d+~ ~ f+f+0 C.).m.  ",
"  {+{+{+{+7+7+{+7+7+e+e+] ] `.'+V.^+k t !.C+!.Q q+q+!.!.-+& K.| O x+y.3.g =.d+d+~ 0 A A C.O..   ",
"  n 7+7+7+7+e+e+e+e+] ] ] g+v.G.E.b+j.A.!.^ !.Q Q Q ^ !.-+K.R.V '.D+u w.B+=.~ f+f+0 A A C.).G   ",
"  c+e+e+e+e+e+e+] ] ] g+n n B.X 0.b+A.O 8 & ^ q+!.^ ^ %.%.& v+| O '.y.i g.4 ~ ~ f+0 A C.).m..   ",
"  =.] ] g+g+g+g+g+g+g+g+n T T 2 R K.V Y ~.n+^ ^ !.-+%.K.K.K.R.V '.D+y.8 =+W.f+0 0 A C.).O.9.    ",
"    g+g+g+g+g+n n T T T T T D.D.X 8 2.=+Z.v+-+-+%.%.-+%.& | O O '.u y./++.t.f+0 A C.).).O.p.    ",
"    D.n n T n T n T D.D.D.c+1+q.c+) W v %+9+e ]+-+K.K.& R.| O '.'.y.v !+Y t.0 A A C.).O.O.G     ",
"    >+T T T D.T D.D.D.D.c+c+% % ,.F.6 4.e.>.| & K.& | R.| O '.D+y.y.8 !+x.g.0 A C.).O.O.7..     ",
"      D.D.D.D.c+c+c+% % % % F.F.F.>+4+c.x.9.5 u O | O O '.n+'.D+y.+ i h ).t.A C.C.).O.9.m.      ",
"      % c+c+% c+c+% % % % >+F.>+>+1 ++:+r _ o+l 3.S.o o '.D+y.y.U.5.I Y _ g.C.C.).O.9.7..       ",
"        % % % F.F.F.F.>+F.>+1 1 1 1 ++L F+< 8 o v l =+W h+h+h+8 W G++.o+g.A ).).O.O.9.m.        ",
"        1 F.>+F.F.>+>+>+1 1 1 ++++L L L L.w+].D+D+/+_ x.Y G+G+>.l.i+x ~._ C.).O.O.m.7..         ",
"          >+1 1 >+1 1 1 ++++++L L L.L.L./ x.U.y.y./+A B+4 z.@ D g.r+t.A ).).O.9.9.m.G           ",
"          ~ 1 1 ++++++L ++L L L L.L.[.Y.g .+w i } j+l t+4 r.r.W.t.t.A C.).).O.9.9..             ",
"            d+++++L L L.L L.L.L.[.[.[.P &+u+z %+i+=+F 0+t._.0 g.A _ ).).O.O.9.m.G .             ",
"              [.L.L.L.L.[.[.[.[.y y y+1.N.R R U.F F 5./+<+g.t.A C.).).).9.9.9.G .               ",
"                =.L.[.[.[.y y y y P.g .+Q.N.s+N.N.z w.E+5 M.A C.C.).O.O.9.m.G p.                ",
"                  ~ [.y y y P.P.=.=.d+=. + +d+r.~ f+f+t.0 A C.).O.O.9.9.m.7..                   ",
"                    9.P.P.=.=.=.d+=.r.~ ~ f+f+t.t.0 A _ _ ).).).O.O.m.m.G                       ",
"                        f+=.d+d+d+~ ~ ~ f+f+0 0 A A A C.).).O.O.9.m.m..                         ",
"                            0 ~ ~ f+f+f+0 0 A A C.C.).).).O.9.9.m.p.                            ",
"                                O.0 0 A 0 A A C.C.).).O.9.O.G .                                 ",
"                                        G 9.9.9.9.m.m.7.                                        ",
"                                                                                                "};
