/* XPM */
static char * rndaudac_xpm[] = {
"48 48 256 2",
"  	c None",
". 	c #060612",
"+ 	c #525252",
"@ 	c #AAAAAA",
"# 	c #FE1003",
"$ 	c #FA1906",
"% 	c #B26636",
"& 	c #F3300B",
"* 	c #8D8A67",
"= 	c #16162E",
"- 	c #837C55",
"; 	c #1616B0",
"> 	c #2A2A2A",
", 	c #DE4D1A",
"' 	c #AE7236",
") 	c #03034D",
"! 	c #76724A",
"~ 	c #C6C6C6",
"{ 	c #363636",
"] 	c #5F5EAA",
"^ 	c #726C48",
"/ 	c #3F3E93",
"( 	c #060675",
"_ 	c #817A61",
": 	c #9C9772",
"< 	c #464647",
"[ 	c #B79459",
"} 	c #585292",
"| 	c #2E2E85",
"1 	c #161749",
"2 	c #CE5A1E",
"3 	c #2F2FB2",
"4 	c #BABABA",
"5 	c #696457",
"6 	c #E27A14",
"7 	c #0B0B98",
"8 	c #9A9682",
"9 	c #363686",
"0 	c #6C226C",
"a 	c #78734E",
"b 	c #828292",
"c 	c #FE3A06",
"d 	c #928E6E",
"e 	c #746D50",
"f 	c #2A2A6F",
"g 	c #D2722E",
"h 	c #A6A080",
"i 	c #121296",
"j 	c #DE5822",
"k 	c #827A68",
"l 	c #525282",
"m 	c #3A3870",
"n 	c #967A3E",
"o 	c #FE2402",
"p 	c #B28A45",
"q 	c #D2D2D2",
"r 	c #7C7452",
"s 	c #5E5E5E",
"t 	c #8D8DBB",
"u 	c #E16D1B",
"v 	c #B2B2B2",
"w 	c #4442A8",
"x 	c #FA2607",
"y 	c #3E3E3E",
"z 	c #A6A6A6",
"A 	c #8A826A",
"B 	c #22224E",
"C 	c #6B6B7E",
"D 	c #AA7638",
"E 	c #090980",
"F 	c #260E5E",
"G 	c #4A4682",
"H 	c #9A9A9A",
"I 	c #6362AD",
"J 	c #55546D",
"K 	c #64647C",
"L 	c #9696E2",
"M 	c #EA4011",
"N 	c #2E2E5E",
"O 	c #928A72",
"P 	c #747480",
"Q 	c #A26A2E",
"R 	c #A17A37",
"S 	c #565656",
"T 	c #141464",
"U 	c #A6A18C",
"V 	c #4C4C66",
"W 	c #37375F",
"X 	c #D77E24",
"Y 	c #FA3C06",
"Z 	c #4A4A4B",
"` 	c #B0A079",
" .	c #06069E",
"..	c #5A2E76",
"+.	c #F75209",
"@.	c #706C58",
"#.	c #323232",
"$.	c #989078",
"%.	c #2A2AB1",
"&.	c #C68234",
"*.	c #8A8666",
"=.	c #C97D3B",
"-.	c #CACACA",
";.	c #4D4C93",
">.	c #05055B",
",.	c #727272",
"'.	c #907540",
").	c #9E9E9D",
"!.	c #626263",
"~.	c #060616",
"{.	c #0B0BA2",
"].	c #C2C2C2",
"^.	c #928E6A",
"/.	c #4646AE",
"(.	c #42426A",
"_.	c #1D1C78",
":.	c #D25E26",
"<.	c #F4620C",
"[.	c #C89250",
"}.	c #D08838",
"|.	c #C16E33",
"1.	c #261262",
"2.	c #02021A",
"3.	c #928E7E",
"4.	c #4E4EC3",
"5.	c #06068D",
"6.	c #FE3204",
"7.	c #B6622A",
"8.	c #F86A08",
"9.	c #AA9864",
"0.	c #FA3406",
"a.	c #292664",
"b.	c #82829E",
"c.	c #BE762E",
"d.	c #5555C4",
"e.	c #1A1A2A",
"f.	c #827E5E",
"g.	c #9D824A",
"h.	c #FE1C06",
"i.	c #DF8222",
"j.	c #2A2A4E",
"k.	c #6A6A69",
"l.	c #8A8672",
"m.	c #666476",
"n.	c #0E0EBB",
"o.	c #02022F",
"p.	c #0E0E66",
"q.	c #433F81",
"r.	c #AA8044",
"s.	c #766E5F",
"t.	c #E66018",
"u.	c #A5A296",
"v.	c #2121B1",
"w.	c #E64A16",
"x.	c #C08B49",
"y.	c #7A7A79",
"z.	c #6C6CB0",
"A.	c #5A5A5B",
"B.	c #7E7E7E",
"C.	c #4E4E4E",
"D.	c #C76028",
"E.	c #AEAEAF",
"F.	c #B6B6B7",
"G.	c #FE4E02",
"H.	c #424243",
"I.	c #22223E",
"J.	c #3A3A3A",
"K.	c #7E765E",
"L.	c #22227A",
"M.	c #C29656",
"N.	c #8E8A7A",
"O.	c #4140CB",
"P.	c #8E8E8E",
"Q.	c #7676A6",
"R.	c #666666",
"S.	c #D16A2A",
"T.	c #96926A",
"U.	c #5C5A90",
"V.	c #56567E",
"W.	c #2E2E2E",
"X.	c #A89C75",
"Y.	c #828283",
"Z.	c #929292",
"`.	c #8484B7",
" +	c #46465E",
".+	c #B29E66",
"++	c #1A198E",
"@+	c #0A0A8F",
"#+	c #6F6E6D",
"$+	c #AAAABE",
"%+	c #F63F0A",
"&+	c #545266",
"*+	c #D7D7D7",
"=+	c #3030C8",
"-+	c #05053D",
";+	c #070569",
">+	c #9A9AB2",
",+	c #4A4A62",
"'+	c #CECECE",
")+	c #A3A2A1",
"!+	c #BEBEBE",
"~+	c #1F195E",
"{+	c #0E0E46",
"]+	c #A6844E",
"^+	c #BD7D2C",
"/+	c #6E6E96",
"(+	c #F25A0D",
"_+	c #BA6626",
":+	c #252529",
"<+	c #7E6E44",
"[+	c #767676",
"}+	c #0D0DAE",
"|+	c #5D5A6C",
"1+	c #1B1AC3",
"2+	c #585666",
"3+	c #4A48C4",
"4+	c #B27D36",
"5+	c #0B0A74",
"6+	c #FA2B06",
"7+	c #52367A",
"8+	c #201C6B",
"9+	c #7A7A88",
"0+	c #36364E",
"a+	c #615E6B",
"b+	c #867E5A",
"c+	c #827444",
"d+	c #CA8E44",
"e+	c #424256",
"f+	c #A29060",
"g+	c #E85418",
"h+	c #868685",
"i+	c #B48E56",
"j+	c #32329E",
"k+	c #666272",
"l+	c #5D5A9D",
"m+	c #FE1604",
"n+	c #ED7713",
"o+	c #8A8A8A",
"p+	c #B59765",
"q+	c #908151",
"r+	c #48429A",
"s+	c #969695",
"t+	c #060632",
"u+	c #424272",
"v+	c #B2B2C6",
"w+	c #27266F",
"x+	c #4A4282",
"y+	c #8D845E",
"z+	c #B6B6C6",
"A+	c #C8682A",
"B+	c #2A2A3E",
"C+	c #BA7E3A",
"D+	c #0606AB",
"E+	c #DA862E",
"F+	c #F64A0A",
"G+	c #5F5D79",
"                                                                                                ",
"                                      F.v E.@ z )+).H s+Z.                                      ",
"                                ].!+4 F.v E.@ z )+).H s+Z.P.o+h+                                ",
"                          '+-.~ ].!+4 F.v E.@ z )+).H s+Z.P.o+h+Y.B.                            ",
"                        '+-.~ ].!+!+4 F.v E.@ z )+).H s+Z.P.o+h+Y.B.y.[+                        ",
"                    *+q '+'+-.].].4 F.v E.@ z z )+).H s+Z.P.o+h+Y.B.y.[+,.#+                    ",
"                  *+*+'+-.~ ~ ].!+4 F.F.E.>+b.z.I Q.b.Z.Z.P.o+h+Y.B.y.[+,.#+k.                  ",
"                *+q q '+'+-.~ !+!+4 t 4.%.}+7 @+E @+{.i j+U.b h+B.B.y.[+,.#+k.R.                ",
"              *+*+q '+-.~ ~ ].!+`.O.++p.{+j.e+V V  +N T 5+E i ;.9+B.[+[+#+k.k.R.!.              ",
"            *+*+q '+'+-.-.].z+d.j+T W 9+z E.@ @ z )+)+H 9+(.p.E _.K y.,.,.#+R.!.s s             ",
"          *+*+q '+'+-.~ ~ E.3+| B P.v v E.E.z )+).H H s+s+s+b m E p.U.[+#+k.k.R.s A.A.          ",
"          q '+'+'+-.~ ].z+O.f e+E.F.F.E.@ z )+).H s+Z.P.o+h+o+o+U.E p.G+,.k.R.!.s A.S           ",
"        '+'+-.-.-.-.~ ].d.| e+F.F.v E.@ z )+).).H Z.Z.P.o+h+Y.B.Y.U.E T ,.k.!.!.s A.S +         ",
"      '+-.-.-.~ ~ ].!+L %.I.E.F.F.v @ z )+)+).H s+Z.P.P.o+h+B.B.y.y./ 5.m ,.R.s s S S +         ",
"      -.-.~ ~ ].].].!+O.T b 4 v E.E.@ z )+).H s+s+Z.o+o+h+h+B.B.[+,.,.i 5+#+k.s A.S + + C.      ",
"      ~ ].~ ].].!+4 $+v.I.F.F.v @ z z )+).).H H s+Z.P.o+h+Y.B.y.[+[+#+m 5+V k.s A.S + C.Z       ",
"    ].].!+].!+!+!+F.`.7 ,+v v E.@ z )+)+).).).).H Z.o+o+h+h+B.y.,.,.,.l @+W ,.s S S C.C.Z <     ",
"    !+!+!+4 4 4 F.z+Q.p.m.v E.@ z )+)+)+z u.).X.9.8 Z.P.3.N.Y.y.[+,.k.G+@+B ,.!.A.+ + Z < <     ",
"    4 4 4 F.F.F.v v d.++C $+b.z )+)+)+u.` h h [ p+8 Z.$.f+N.Y.y.,.P G+G+{.1 #+s S C.C.Z < H.    ",
"  F.F.v F.F.v v E.4.1+T K z.| @ )+)+z U M.` H [.[ : $.3.i+* h+y.,.l+9 K 1+v.T 2+S + C.Z < H.    ",
"  v v E.E.v E.E.4.=+4.-+K I _.@ z u.` u.[.p+X.x.x.: f+d x.O Y.y.,.w f C D+%.( T 2+C.Z < H.H.y   ",
"  E.E.E.E.@ @ `.1+L i o.k+I L.z u.h ` ` d+[.: }.x.f+f+O }.*.*.B.,./.f C D+}+5.>.j.A.Z < H.y J.  ",
"  @ @ @ @ z z =+O.3+5+t+K ] 8+)+U h .+9.E+d+: E+x.i+p * i.*.A b+K.w w+C {.}+5.;+>.S C.< y y J.  ",
"  z z z z z t n.3+i ( o.G+] _.u.h .+p+9.i.}.: i.C+&.E+*.i.y+y+g.f.r+w+K D+{. .;+) W S H.y J.{   ",
"  )+)+)+)+)+] n.3 7 5+t+K ] 8+).X.9.[ 9.n+X T.n+c.S.n+*.n+q+g.g.g.G f K D+}+ .( ) 1 s < y J.{   ",
"  ).).).H H /.n.; @+( o.G+] 8+h 9.[ x.p (+u ^.8.S.g+G.g.8.g.4+D c.G w+m.{.{. .5.) {+A.Z J.{ {   ",
"  H H H H H 3 }+}+@+;+t+a+] ~+[ x.=.=.=.%++.]++.:.0.& D.F+% t.D.2 x+f k+D+}+ .5.) t+s Z J.#.#.  ",
"  H s+s+s+Z.%.D+{.@+5+o.|+l+1.x.+.j j t.x 0.|.c w.m+# & o , x M M 7+a.k+D+{.5.5.) o.s Z { { #.  ",
"  Z.s+Z.Z.Z./ D+{.@+( o.|+U.F g 6.& x 6+x & j h.m+# # # # # # # x 0 f !.D+}+ .( ) ~.A.Z #.#.    ",
"    P.P.P.P.;. . .@+5+t+|+l+F j o x x x , M %+h.m+$ $ & h.h.& x 6+0 a.a+D+D+5.( ) = A.H.{ W.    ",
"    P.o+o+h+/+7 7 5.( o.|+} F %+6+A+g+F+|.D.Y w.& 2 %+_++.7.2 _+, ..a.a+D+}+5.;+o.B+S y #.W.    ",
"    h+h+h+h+h+++@+@+;+o.2+} 1.g+F+g.u S.4+4+(+D.+.q+<.'.n+^ c.c+Q q.a.|+D+{.5.) 2.Z + y W.>     ",
"      Y.Y.Y.Y.;.E @+5+o.&+} 8+g ^+A &.r.g.q+u |.X c+6 ! ^+^ 4+^ <+q.a.|+D+D+>.o.= A.Z #.W.      ",
"      B.B.B.B.B.L.5+;+o.&+;.~+p r.q+p q+g.- 6 ' 4+r C+! R ^ R ^ ^ q.w+|+D+5.o.. Z + y W.>       ",
"        y.y.y.y.C 8+>.t+&+;.8+y+g.b+g.- q+- 4+' n a R ! '.^ '.5 5 / L.2+ .) . e+S < #.>         ",
"        [+[+[+[+y.[+(.1 l G+V A A - q+- - c+n '.- a '.^ ^ ^ <+5 5 &+m &+p.I.C.S Z J.W.:+        ",
"          ,.,.#+,.#+[+y.B.B.[+B.f._ f.K._ K.r c+! ! ! e ^ ^ ^ 5 A.+ C.C.Z + + < { > >           ",
"          #+#+#+k.#+k.#+,.#+k.k.#+,.,.[+,.#+s.e s.@.@.5 s 5 s A.+ < H.H.y y J.{ W.>             ",
"            k.k.R.k.k.R.R.R.!.!.!.5 !.5 !.!.!.R.!.a+s A.+ + + C.< y { { { #.W.W.> :+            ",
"              R.R.!.!.!.s s s s s A.A.S S S + + S + Z < < < < H.J.J.{ #.W.W.> :+:+              ",
"                !.s s s s s A.A.A.S S + + + C.Z Z Z < < H.y y y { { { #.W.W.> >                 ",
"                  s s A.A.S S S + S + + C.C.Z Z < < < H.y J.J.{ { { W.W.W.:+>                   ",
"                    A.S S S + + C.C.C.Z Z Z < < H.y y y y { { #.#.#.W.> >                       ",
"                        + C.C.C.C.C.Z Z < < < H.y y J.J.{ { { #.W.> > :+                        ",
"                            C.Z < < < < H.H.y y y y { { { #.#.W.W.>                             ",
"                                < < H.H.y y y y J.{ { { #.W.> >                                 ",
"                                        J.J.{ { { { #.#.                                        ",
"                                                                                                "};
