/* XPM */
static char * daemon_xpm[] = {
"48 48 17 1",
" 	c None",
".	c #2E2C35",
"+	c #979695",
"@	c #5B5C5C",
"#	c #924342",
"$	c #444346",
"%	c #6A404C",
"&	c #9B5C56",
"*	c #C04039",
"=	c #612F37",
"-	c #CAC9C7",
";	c #B3B2B1",
">	c #797979",
",	c #96807D",
"'	c #F1E8CE",
")	c #6D676A",
"!	c #BD7B6E",
"                                                ",
"                   ),++++,,)$                   ",
"                +;;;;;;+;++++,>@                ",
"             >----;;;;;+;+++++,>>@              ",
"            ;--;-;-;;;+;++++++>+>>>@            ",
"          ;------;;;;;;+;++++++>,>>)@.          ",
"         ;-----;;-;;;+;+;+++,>+>>>>>))$         ",
"        -'------;;;;;;+;++++++>+,>>>>)@$        ",
"       --------;-;;;>)+++++++>)>>>>>)))@$       ",
"      ---'----;-;;;&#@;+++++++)%)>>)>))@$.      ",
"     +-------;-;;;+*%=@#%$@)>+>=$>>)>)))@@.     ",
"     -'------;-;;;!**&**#%%.)>&%.)>>)))@)$$     ",
"    ;------;-;;;;;,#;;!;*%#%##*=.@))>)@@@@$$    ",
"   >------;-;-;;;;,!'!'',*#%#==..@>))))@@@$.    ",
"   ;----;-;-;;;;;+,;;!'',*#==...$>)>))@@@@@$.   ",
"   ---;--;-;;;;;+;#$%),',*#=...@>>)))))@@@@$.   ",
"  +;-;-;;;;;;;;;;&*=#.,'&*==..)>>)>))@@@@$@$$.  ",
"  --;-;;-;;;;;+++***#%-+**#..$>>)>)))@@@@@@$$.  ",
"  ;;;;;;;;;;;;;>>*&*%#****=..$>>)>)))@@@$$$$$$  ",
" >;-;;;;;;;;++>+>,&#****##%..>>>))))@@@@@@@$$.  ",
" ,;;;;;;;+;+;++@@+,>####%%.$)>)>)))@)@@@$$$$$$. ",
" ;;;;;;;;+;+>@>>$#*>,%#%%$.)>>>)>))@@@@$@@$$$.. ",
" ++;+;+;+;+;++++>#%@>&*&*#.>>)))))@@@@@$$$$$$.. ",
" +;+;+;+;++;++++&*%$$#**#*.@)>>)))@@@$@@@$$$$.. ",
" +++;+++++++++++>%$$=**#$%.@))))@)@@@@$$$$$$.$. ",
" +;++++;+++++++++,)$***#%$.$>)))@@@@@@$@$$$$... ",
" ,+++;++++++++>+>,>@%#%....$)))@)@@$@$@$$$$$... ",
" >+++++++++>+,+>+,,&%%$....@)))@@@@$@$$$$$.$... ",
" $++++++>++>+>+>>>>&*#.=...$)@@@@@@$@$$$$$$...  ",
"  ++>+>++>+>+>>+,>>@**#=...$)@@@@@$@$@$$$.$...  ",
"  >>+>+>>+>>+>>>>>>>==$.....$@@@$@$$$$$$$.$...  ",
"  )+>+>+>>+>>>>>>>>))#%%=....$@@$@@$$$$$.$....  ",
"   >>>>>+>>>>>+;+%@&&#@#%@.$...$$$$$$$$$.....   ",
"   >+>>>>>>>>---+;--;#=%=$$$@$....$$$$.$$....   ",
"    >>>>>>>>>,;+,--+,@%=$$$$@$@$$...........    ",
"    )>>>>)>)>))))+;>@$@$$$$$$@$$$$.$=..$....    ",
"     ))>)>))))))))@)@@$$@@@@$$@$$==........     ",
"     $>)))))))))@@@@@@@@@$$$@$=====.......      ",
"      $)))))))@@@@@@@@$@$@@$$$$$=.........      ",
"       @)@)@@@@@@@@@$@$@$$$$$$$.$$$......       ",
"        $)@@)@@@@@$@@$@$$@$$$$$$........        ",
"         $@@@@@@$@@$$@$$$$$$$$.$.$.....         ",
"          .@$@$@@$$@$$$$$$$.$..$.....           ",
"            $$@$$@$$@$$$$$$$.$......            ",
"              $$$$$$$$$$..........              ",
"                .$$$$$.$$$$.$...                ",
"                    ........                    ",
"                                                "};
