/* XPM */
static char * aviplay_xpm[] = {
"48 48 256 2",
"  	c None",
". 	c #2A222E",
"+ 	c #92A2AE",
"@ 	c #9E7216",
"# 	c #B62216",
"$ 	c #4C4636",
"% 	c #90723C",
"& 	c #C2C2C2",
"* 	c #A27234",
"= 	c #76472B",
"- 	c #8A8A8A",
"; 	c #6A3622",
"> 	c #676665",
", 	c #2B2B9A",
"' 	c #4C4C7E",
") 	c #866E6E",
"! 	c #B6B6B6",
"~ 	c #724E70",
"{ 	c #AC8751",
"] 	c #88511A",
"^ 	c #56262A",
"/ 	c #5B5A5A",
"( 	c #9A753F",
"_ 	c #333231",
": 	c #C7A28C",
"< 	c #87724C",
"[ 	c #8E5A4A",
"} 	c #684A2A",
"| 	c #805F24",
"1 	c #9A5224",
"2 	c #BA9E86",
"3 	c #484866",
"4 	c #363282",
"5 	c #A6A6A6",
"6 	c #878686",
"7 	c #3E3E3E",
"8 	c #7E5F3B",
"9 	c #92764E",
"0 	c #A27E44",
"a 	c #D2D2D2",
"b 	c #768296",
"c 	c #A78F7F",
"d 	c #929293",
"e 	c #614D2F",
"f 	c #895B1C",
"g 	c #996513",
"h 	c #622A7E",
"i 	c #6E5872",
"j 	c #36367E",
"k 	c #807256",
"l 	c #9B746B",
"m 	c #2E286E",
"n 	c #6E4A52",
"o 	c #684C6E",
"p 	c #5A4A2A",
"q 	c #5E5E86",
"r 	c #4E4E4F",
"s 	c #B68E62",
"t 	c #B65A44",
"u 	c #A5690A",
"v 	c #B2B2B2",
"w 	c #A2764E",
"x 	c #777675",
"y 	c #C6C6C6",
"z 	c #5A467E",
"A 	c #776279",
"B 	c #70562A",
"C 	c #866222",
"D 	c #6A2E6A",
"E 	c #7E6E46",
"F 	c #A8824A",
"G 	c #3A3A3A",
"H 	c #A5877C",
"I 	c #26225A",
"J 	c #605559",
"K 	c #9D7E59",
"L 	c #7B5249",
"M 	c #964A0A",
"N 	c #6E624A",
"O 	c #6A4A52",
"P 	c #564732",
"Q 	c #A2722E",
"R 	c #897B70",
"S 	c #6E6EA2",
"T 	c #8A6232",
"U 	c #464272",
"V 	c #866256",
"W 	c #523232",
"X 	c #B6926E",
"Y 	c #9D6D64",
"Z 	c #525252",
"` 	c #9E8A79",
" .	c #979696",
"..	c #595795",
"+.	c #BEBEBE",
"@.	c #9A7C6C",
"#.	c #ADAEAE",
"$.	c #966834",
"%.	c #3C3C94",
"&.	c #CACACA",
"*.	c #7A7A7C",
"=.	c #3E261E",
"-.	c #56626E",
";.	c #6E4E42",
">.	c #BE927A",
",.	c #B6735F",
"'.	c #737271",
").	c #AD9E91",
"!.	c #4A3A66",
"~.	c #5A3A62",
"{.	c #7F5F56",
"].	c #806A6A",
"^.	c #29292A",
"/.	c #573F6F",
"(.	c #9E6656",
"_.	c #6F6E6E",
":.	c #6E3F33",
"<.	c #A27636",
"[.	c #A6825E",
"}.	c #36325A",
"|.	c #AA8672",
"1.	c #52462E",
"2.	c #A26E22",
"3.	c #9C6E17",
"4.	c #52485E",
"5.	c #4A4032",
"6.	c #2E2E2E",
"7.	c #787690",
"8.	c #5A4A2E",
"9.	c #9A8E8C",
"0.	c #A77468",
"a.	c #6E344C",
"b.	c #A1731E",
"c.	c #565672",
"d.	c #7A4E22",
"e.	c #8C631F",
"f.	c #534030",
"g.	c #86726A",
"h.	c #92765A",
"i.	c #B23C2A",
"j.	c #8C8CA4",
"k.	c #66464A",
"l.	c #6E6E86",
"m.	c #A27A56",
"n.	c #AFA9A9",
"o.	c #9E9E9F",
"p.	c #7A6648",
"q.	c #4E4E6E",
"r.	c #8F692E",
"s.	c #4A4A4A",
"t.	c #424242",
"u.	c #382848",
"v.	c #373635",
"w.	c #A26E0C",
"x.	c #9A6A2A",
"y.	c #925A36",
"z.	c #905034",
"A.	c #9A7F81",
"B.	c #685A64",
"C.	c #975D10",
"D.	c #A65E4E",
"E.	c #A69A92",
"F.	c #735854",
"G.	c #7C3C2E",
"H.	c #82829E",
"I.	c #6E4266",
"J.	c #727288",
"K.	c #575656",
"L.	c #66423A",
"M.	c #9A9A9A",
"N.	c #9C6A12",
"O.	c #5A493F",
"P.	c #5F5E5D",
"Q.	c #9E8246",
"R.	c #AE8960",
"S.	c #744A44",
"T.	c #806A40",
"U.	c #828282",
"V.	c #BABABA",
"W.	c #4B4C90",
"X.	c #404284",
"Y.	c #AAAAAA",
"Z.	c #A2A2A2",
"`.	c #827672",
" +	c #B39483",
".+	c #998374",
"++	c #655585",
"@+	c #896C48",
"#+	c #624E72",
"$+	c #69512B",
"%+	c #624A6E",
"&+	c #423A31",
"*+	c #8E8E8E",
"=+	c #523A46",
"-+	c #9292AA",
";+	c #823226",
">+	c #8686A2",
",+	c #D7D7D7",
"'+	c #BD9779",
")+	c #8F6C64",
"!+	c #7B5A2A",
"~+	c #59486F",
"{+	c #CECECE",
"]+	c #A96E07",
"^+	c #A77F37",
"/+	c #B49A85",
"(+	c #643A72",
"_+	c #7E7E7E",
":+	c #B08E78",
"<+	c #A8720F",
"[+	c #936E41",
"}+	c #90726C",
"|+	c #675F5E",
"1+	c #8F6C35",
"2+	c #33339B",
"3+	c #7E6757",
"4+	c #5A514A",
"5+	c #565262",
"6+	c #736857",
"7+	c #825242",
"8+	c #92661A",
"9+	c #A69E96",
"0+	c #474645",
"a+	c #6A6A76",
"b+	c #A77B2A",
"c+	c #AA7A20",
"d+	c #7A563E",
"e+	c #786E58",
"f+	c #644A7B",
"g+	c #626262",
"h+	c #3A2A56",
"i+	c #7E726E",
"j+	c #755A28",
"k+	c #AE7667",
"l+	c #A37B6D",
"m+	c #6A4E42",
"n+	c #A29292",
"o+	c #A25E08",
"p+	c #6A6A6A",
"q+	c #685652",
"r+	c #826E50",
"s+	c #C8A68F",
"t+	c #BD9983",
"u+	c #61619B",
"v+	c #90786E",
"w+	c #7E5A72",
"x+	c #8A8282",
"y+	c #7A6A76",
"z+	c #C1A189",
"A+	c #736159",
"B+	c #A4826E",
"C+	c #524B42",
"D+	c #AA761B",
"E+	c #AB7E43",
"F+	c #745842",
"G+	c #A97615",
"                                                                                                ",
"                                      ! v #.Y.5 Z.o.M. .d                                       ",
"                                & +.V.! v #.Y.5 Z.o.M. .d *+- 6                                 ",
"                          {+&.y & +.V.! v #.Y.5 Z.o.M. .d *+- 6 U._+                            ",
"                        {+&.y & +.+.V.! v #.Y.5 Z.o.M. .d *+- 6 U._+*.x                         ",
"                    ,+a {+{+&.& & V.! v #.n.5 5 Z.o.M. .d *+- 6 U._+*.x '._.                    ",
"                  ,+,+{+&.y y & +.V.! ! v #.5 Z.o.o.M. .d *+- 6 U._+*.x '._.p+                  ",
"                ,+a a {+{+&.y +.+.V.! o.j.j.j.>+H.-  .d 6 _+6 6 _+_+*.x '._.p+>                 ",
"              ,+,+a {+&.y y & +.V.! #.-+S u+u+....7. .- a+q l.x _+*.x x _.p+p+> g+              ",
"            ,+,+a {+{+&.&.& & V.n.v v n.J.++..W.W.l. .7.' W.W.5+_.*.*.'.'._.> g+P.P.            ",
"          ,+,+a {+{+&.y y +.V.n.9.n.Z.9+R p.F.q.U >  .J.X.X.X.X.q.> J.'.p+p+p+> P./ /           ",
"          a {+{+{+&.y & & & ! n+c 9+h.m.Q.Q.( 8 4./ *.u+%.%.%.%.X.q._._._.p+> g+P./ K.          ",
"        {+{+&.&.&.&.y & +.V.n. +H K Q.F ^+^+b+Q $.O !.4 , 2+2+2+j q._.'.p+g+g+g+P./ K.Z         ",
"      {+&.&.&.y y & & +.V.n.A.:+l m.^+^+b+^+c+c+b.x.d+=+m , , 4 3 a+'._.A+A+g+P.P.K.K.Z         ",
"      &.&.y y & & +.+.+.V.n.A.0.[ * ^+b+c+G+D+G+G+G+@ 8+} h+I }.g+'.'.'.i+) A+P./ K.Z Z r       ",
"      y & y & & +.+.V.! ! 5 Y (.z.@ b+c+G+G+G+G+<+<+<+w.g } u.I 7 _.R v+l }+].|+/ K.Z r s.      ",
"    & & +.& +.+.V.V.V.! v o.F.y.z.x.G+G+G+<+]+]+]+]+u u u g L.h+4.v+A.v+l v+].|+K.K.r r s.0+    ",
"    +.+.+.V.V.V.V.! v v v  .L $.8+b.@ <+]+u u N.b.m.<.N.w.N.f w+A.` @.l+l l )+A+K.Z Z s.0+0+    ",
"    V.V.V.! ! v v v v #.#.n+m+1+1+x.]+]+<+w.E+{ X '+{ w.]+<+^+:+ +H l l+l Y )+A+J r r s.0+t.    ",
"  ! ! v ! ! v v v #.#.n.5 9.:.$.K x.w.w.N.E+>.'+>. +R.@ ]+<+{  +c }+l Y l }+)+F+4+Z r s.0+t.    ",
"  v v #.#.v v #.#.n.Y.Y.5 9.:.V B+w 3.w.F '+: : 2 '+{ w.]+<+b+{ l+0.k+Y 0.Y )+q+r r s.0+t.t.7   ",
"  #.#.#.#.Y.Y.n.Y.Y.5 Z.Z.- W G.V |.{ s t+: z+/+|.B+( g ]+u b.k+(.0.0.k+0.Y V J Z s.s.0+t.7 G   ",
"  n.Y.n.Y.5 Y.5 Z.5 Z.Z.o.d A+= ) H '+z+: 2 ).E..+% 1+C.u u u ,.,.k+0.k+k+)+F.4+r s.0+0+7 7 G   ",
"  Y.5 5 5 5 Z.Z.Z.o.Z.o.M.M.- :.q+`. +: z+` 9.#.o.9.[.2.]+u o+1 D.(.0.0.)+{.K.Z r s.0+t.7 G v.  ",
"  Z.Z.Z.Z.Z.Z.Z.o.M.M.M. . .x+^ . 5+:+2  +/ -.+ Y.).2 { w.u o+M 1 y.y.L F.J r r s.0+t.t.7 G v.  ",
"  o.o.o.o.o.M.M.M.M. . . .d x+:.=.=+l+t+H _ ^.b 5 /+z+s ]+]+u ]+o+C.] ; C+Z Z s.s.0+t.7 G v.v.  ",
"  o.M.M.M.M. .M. . . .d d *+R V G.;+(.'+X 4+G 7.M./+z+t+b+<+u ]+u g g d.4+r r 0+0+t.7 G G _ _   ",
"   . . . . . .d d d *+*+- x+3+(.i.# t >.t+|.v+.+ +z+s+z+R.u w.u g g e.| $+r s.s.t.t.7 G v.v._   ",
"  d d d d d d d *+*+- *+- _+3+0.t i.,.'+: : z+z+: s+s+: R.C.N.w.N.g e.| $+C+0+0+t.7 7 G _ _     ",
"    *+*+*+- *+- - - - 6 U.`.8 @.l+|.>.z+: : : s+: : :  +( M C.g g e.e.f !+8.0+t.7 G v.v._ 6.    ",
"    - - - 6 - - 6 6 6 U.g.8 [+9 @.B+:+ +2 z+z+z+: t+s <.8+C.C.g 8+e.C | !+} t.t.7 G v.v.6.6.    ",
"    6 6 6 6 6 U.6 U._+`.{.1+% x.[+@..+B+:+t+/+t+:+0 1+8+N.g f 8+e.C C !+B $+$ G G G v.6.6.^.    ",
"      6 U.U.U._+U.U.*.x E % % % 3.1+h.@.`  +` l 7+G.] e.N.8+e.e.e.| !+!+B $+f.G v._ _ _ 6.      ",
"      _+_+_+_+_+*.*.x r+< 9 % % 1+r.T L {.v+.+) I.D a.] 8+8+e.e.| f !+B $+e P &+v.v._ ^.^.      ",
"        *.*.*.*.x '.6+k < < % < 1+!+S.I.w+v+v+i (+h a.] C e.C | | B B $+$+p 1.G _ 6.6.^.        ",
"        x x x x x e+e+k E < E T.!+~ i f+A ].A ++z /.= C C C | !+B B $+$+p f.5.v._ 6.6.^.        ",
"          '.'._.'._.6+e+e+T.T.p.F+n o ~ y+A ++f+f+L.!+| | j+!+j+B $+e p 1.5.&+_ 6.^.^.          ",
"          _._._.p+p+_.e+6+6+p.p.F+n %+z i i #+z ~.k.j+j+j+j+B $+$+} p f.f.&+v.6.6.^.            ",
"            p+p+> > > > p+N 6+N q+J ~+~+#+~+z /.!.=+e B B B $+e p 1.1.5.&+_ 6.^.^.^.            ",
"              > > > g+g+g+g+P./ J J 5+5+c.4.4.~+U 0+5.C+C+1.$ $ 5.5.&+v._ 6.6.^.^.              ",
"                g+g+g+P.P./ P./ K.K.Z r K.r Z r C+s.0+0+t.t.G G v.v._ 6.6.^.^.^.                ",
"                  / / / / / K.K.K.Z Z Z r r s.s.0+t.t.t.7 G G G v._ _ 6.6.^.^.                  ",
"                    K.K.K.Z Z Z Z r r s.s.s.0+0+0+t.7 7 G G v._ _ 6.6.^.^.                      ",
"                        Z Z r r r r s.s.0+t.t.t.7 7 G G G v._ _ 6.6.^.^.                        ",
"                            s.s.0+0+0+0+0+t.7 7 G 7 G v._ _ 6.6.^.^.                            ",
"                                0+0+t.t.7 7 7 G G v._ _ _ 6.6.6.                                ",
"                                        7 G G G v.v._ _                                         ",
"                                                                                                "};
