/* XPM */
static char * rndcabal_xpm[] = {
"48 48 256 2",
"  	c None",
". 	c #1A1A1C",
"+ 	c #6A7E6C",
"@ 	c #8AB28C",
"# 	c #A68E94",
"$ 	c #7A967C",
"% 	c #96C694",
"& 	c #464E44",
"* 	c #A69E9C",
"= 	c #8A7E74",
"- 	c #B6B28C",
"; 	c #5B665C",
"> 	c #C39E9C",
", 	c #96967C",
"' 	c #C6C69C",
") 	c #92AA94",
"! 	c #B6BA94",
"~ 	c #726A5C",
"{ 	c #AE9EBC",
"] 	c #8A8A7C",
"^ 	c #738E74",
"/ 	c #BAD69C",
"( 	c #AEAE98",
"_ 	c #9696BC",
": 	c #B89E9C",
"< 	c #8A8AB0",
"[ 	c #7E7E7C",
"} 	c #363634",
"| 	c #D8BAA4",
"1 	c #767674",
"2 	c #D49E9D",
"3 	c #D2D29E",
"4 	c #5A5A5B",
"5 	c #D2B29C",
"6 	c #5E6E5C",
"7 	c #9E9694",
"8 	c #BE9A9C",
"9 	c #C2AE94",
"0 	c #BABABC",
"a 	c #968A8C",
"b 	c #7E7EA0",
"c 	c #D2D2D4",
"d 	c #AABA94",
"e 	c #9DD29C",
"f 	c #A6A690",
"g 	c #D4DAA4",
"h 	c #8EBE8C",
"i 	c #A2B6C4",
"j 	c #424244",
"k 	c #666664",
"l 	c #D2CE9C",
"m 	c #A2A2DC",
"n 	c #7A867C",
"o 	c #A69694",
"p 	c #B6B68C",
"q 	c #929294",
"r 	c #868AAC",
"s 	c #9E9EAC",
"t 	c #B6AA9C",
"u 	c #867A6C",
"v 	c #D6D29F",
"w 	c #7EA67C",
"x 	c #967E7C",
"y 	c #C2A694",
"z 	c #949E90",
"A 	c #C6C6C4",
"B 	c #C3C299",
"C 	c #727274",
"D 	c #B89EBC",
"E 	c #828A84",
"F 	c #DAA6A4",
"G 	c #626264",
"H 	c #4A4A4C",
"I 	c #525254",
"J 	c #CD9E9C",
"K 	c #A2A290",
"L 	c #8A8A8C",
"M 	c #B2B68C",
"N 	c #A292AC",
"O 	c #7E7E8C",
"P 	c #DA9E9C",
"Q 	c #AED69C",
"R 	c #A6A6A4",
"S 	c #2A2A2C",
"T 	c #8E8678",
"U 	c #969694",
"V 	c #AEAEAC",
"W 	c #9696C9",
"X 	c #9292A4",
"Y 	c #7A7A90",
"Z 	c #9F9E8A",
"` 	c #6A6A77",
" .	c #928E8C",
"..	c #9EB2C4",
"+.	c #B49294",
"@.	c #B9B2B1",
"#.	c #CECE9C",
"$.	c #BEBE99",
"%.	c #A6A6D4",
"&.	c #749274",
"*.	c #D5A2A5",
"=.	c #6E6E87",
"-.	c #C2C2B4",
";.	c #A2DAA4",
">.	c #9AC29C",
",.	c #46423C",
"'.	c #B6A6A4",
").	c #D8D6A1",
"!.	c #8E8E8C",
"~.	c #6E866C",
"{.	c #91BA91",
"].	c #8E968C",
"^.	c #9BCE9C",
"/.	c #4E4E4C",
"(.	c #B09E9C",
"_.	c #C6C6B4",
":.	c #867E70",
"<.	c #5E5E5C",
"[.	c #CC9A9C",
"}.	c #C2B69C",
"|.	c #979297",
"1.	c #A2D69C",
"2.	c #6A6A6B",
"3.	c #7C7264",
"4.	c #CCA2A2",
"5.	c #A2AA8C",
"6.	c #AAAAAC",
"7.	c #222224",
"8.	c #738274",
"9.	c #8EA29C",
"0.	c #B2B2B4",
"a.	c #A2C2B4",
"b.	c #B39A9C",
"c.	c #868694",
"d.	c #6E6E6C",
"e.	c #AA9294",
"f.	c #3E3E3C",
"g.	c #9E8684",
"h.	c #CECECC",
"i.	c #323234",
"j.	c #A2CAAC",
"k.	c #8EAA8C",
"l.	c #7E927C",
"m.	c #A29AAC",
"n.	c #968EAC",
"o.	c #AEA6CC",
"p.	c #B6B6A8",
"q.	c #9E9ED3",
"r.	c #C6D69C",
"s.	c #A6A2D4",
"t.	c #AE9AAC",
"u.	c #BEAE96",
"v.	c #7A7A7C",
"w.	c #AEAA9C",
"x.	c #C6A2B4",
"y.	c #9EBEB4",
"z.	c #AEAECC",
"A.	c #868684",
"B.	c #92AAA4",
"C.	c #7E7A7F",
"D.	c #9292BF",
"E.	c #92B694",
"F.	c #AE8A8C",
"G.	c #829684",
"H.	c #626664",
"I.	c #CECA9C",
"J.	c #7A6E64",
"K.	c #7A8A7C",
"L.	c #BE9E9C",
"M.	c #C69694",
"N.	c #96BE94",
"O.	c #DACAA4",
"P.	c #868284",
"Q.	c #BEAEAC",
"R.	c #BEA6A4",
"S.	c #BEA2BC",
"T.	c #8B8274",
"U.	c #9A9A84",
"V.	c #9A9AAC",
"W.	c #8E8EBC",
"X.	c #9A9ACF",
"Y.	c #BEAA90",
"Z.	c #464644",
"`.	c #8EA68C",
" +	c #62626F",
".+	c #9E9E9C",
"++	c #9ACA9C",
"@+	c #4A524C",
"#+	c #CACAA0",
"$+	c #766E60",
"%+	c #B2B297",
"&+	c #B6A2A4",
"*+	c #3A3A3C",
"=+	c #D6BE9D",
"-+	c #CED6A0",
";+	c #5A5E5C",
">+	c #A09A9C",
",+	c #BEBEBC",
"'+	c #9ED69C",
")+	c #92C294",
"!+	c #424644",
"~+	c #CACACC",
"{+	c #565654",
"]+	c #828284",
"^+	c #9A9A9B",
"/+	c #B2A2A4",
"(+	c #B2AAC4",
"_+	c #B2B2C4",
":+	c #1E1E1C",
"<+	c #7D9A7C",
"[+	c #5E6A5C",
"}+	c #D6B69C",
"|+	c #C4B294",
"1+	c #D6D6D4",
"2+	c #2E2E2C",
"3+	c #262624",
"4+	c #6A726C",
"5+	c #A2A2A4",
"6+	c #C2B6B4",
"7+	c #8686AC",
"8+	c #9AAA8C",
"9+	c #666E64",
"0+	c #96BA94",
"a+	c #AEA2CC",
"b+	c #A6A2A4",
"c+	c #A2A6D4",
"d+	c #DAA2A4",
"e+	c #C6DAA4",
"f+	c #C69A9C",
"g+	c #BEAAAC",
"h+	c #9E8A8C",
"i+	c #DADAA4",
"j+	c #B6D69C",
"k+	c #6A826C",
"l+	c #7E827C",
"m+	c #828E84",
"n+	c #4E524C",
"o+	c #7A8E7C",
"p+	c #96C294",
"q+	c #96968C",
"r+	c #767684",
"s+	c #C2C2A4",
"t+	c #4A4A54",
"u+	c #928684",
"v+	c #7A7274",
"w+	c #8A8284",
"x+	c #727284",
"y+	c #7A7A9C",
"z+	c #BEBEA4",
"A+	c #C2C2C4",
"B+	c #867E7C",
"C+	c #B6B6B4",
"D+	c #AA8E8C",
"E+	c #4A4E4C",
"F+	c #9A9684",
"G+	c #BABA98",
"                                                                                                ",
"                                      d.L .+^+U q !.L d.I                                       ",
"                                5+C+0 C+0.V 6.R 5+.+^+U q !.]+G                                 ",
"                          [ -.A+-.,+0 0.0.V 6.R 5+.+^+U q !.] ]+1 2.                            ",
"                        ,+A ~+A+A+0 0 0.V V 6.R 5+.+^+q !.L L A.]+[ 1 G                         ",
"                    R c h.~+A A+,+,+C+C+0.R /+: 8 8 b.o  .!.L ]+]+[ v.C k i.                    ",
"                  ,+h.c h.A A A+,+0 C+V x.2 d+d+d+P P d+2 +.] ]+]+[ v.C C 2./.                  ",
"                c c c h.~+~+A+,+0 0 Q.4.*.*.2 > +.b.8 J d+*.[.u+[ v.1 1 C 2.<.H                 ",
"              c 1+c h.~+A A A+,+0 @.*.d+*.: 5+5+.+^+U q e.2 d+2 w+v.1 C d.2.k G /.              ",
"            A c c h.h.~+A A+A+,+C+4.2 2 '.R 5+5+.+^+|.!.a a [.2 f+C.1 C C 2.k <.I }             ",
"          ^+c c c ~+~+A A ,+0 0 Q.d+*.&+6.R 5+.+^+^+U q L ] # 2 d+g.1 C d.2.k G G 4 S           ",
"          h.c h.~+~+A A A+,+,+C+4.2 J R R R .+^+^+U q !.] c.]+= [ C.1 d.d.2.k G <.{+Z.          ",
"        ,+h.~+~+A A A+,+,+0 0 %+=+O.3 3 3 s+( U U q %+p q+A.]+[ v.1 1 d.d.k k <.4 {+I f.        ",
"      ]+h.~+~+A A A+A+,+,+C+' ).).).).i+).).g #..+q 3 ).K ]+l+C.v.1 C d.2.2.G <.<.4 I j         ",
"      0.A A A A+A+A+,+0 ,+).).).O.}+w.R _+-.3 i+3 Z 3 ).K ]+]+v.1 C C 2.k k G <.4 {+I /.*+      ",
"      A A A+A+A+,+0 0 C+#.).-+}.*.*.* 5+m q.U.$.i+3 ).i+Z ]+v.v.1 C d.d.2.G G <.4 {+I H *+      ",
"    .+A+-.,+,+,+0 0 C+#+).).M R 2 P b.s q.q.q q G+i+).i+Z l+v.v.1 C 2.2.k G <.4 {+I /.H Z.S     ",
"    ,+0 0 0 0 0 0 C+p.).).G+6.R J *.> V.m q.q q ] I.i+).U.C.v.C C d.d.k k G <.4 {+I I H Z.2+    ",
"    0 0 0 C+C+0.0.0.s+i+v R 6.R (.2 2 t.q.X.!. .L .+0 _+q._ 7 M.M.x 2.k G <.4 4 {+/./.H Z.f.    ",
"  [ C+C+0.0.0.0.V V B ).s+R b+5+>+f+P 2 a+q.!.L _ m m q.m a+2 P 4.n.d.G G <.4 {+I I /.Z.j i.    ",
"  L 0.0.0.V V V V 6.#.i+G+5+5+5+s >+J P *.D L X.q.q._+-.g+*.d+P a+q.W k <.<.{+{+/./.H Z.Z.f.7.  ",
"  V 6.V V V V 6.R R 3 ).%+5+.+^+^+U 7 f+d+2 J x.S.# v ).| P [.5 6+m m W  +4 {+I I H H Z.f.*+:+  ",
"  .+6.R R R R R R 5+I.).$..+^+U U q q n.S.*.*.P d+d+).).}+F.C |+=+|.X.m 7+4 {+/./.H Z.Z.f.f.2+  ",
"  R R R R R R 5+5+.+s+i+' U ^+U q q !.X q.s.{ D++.y ).i+F+d.` 9 =+T x+q.q. +I I /.Z.Z.f.f.} :+  ",
"  q 5+5+s s 5+.+.+^+w.g ).K q q ].`.E.>.j.a.B.]+C.p ).i+5.d.2.|+=+T.<.D.q.y+/.H H Z.Z.j *+} S   ",
"  .+.+.+.+.+^+^+^+^+U.l ).' z 0+e '+'+'+'+'+'+^.8+).i+)./ 2.2.|+=+T 4 y+m D././.H j f.f.*+i..   ",
"  L ^+^+U ^+^+U U U q f ).).r.1.'+p+k.9.i y.% Q g ).i+g / 2.k |+=+T.4 =.q.X.H Z.Z.j f.f.*+} 3+  ",
"  [ U U U U q U q !.q !.! ).).-+d A.]+c.m q.5.g ).e+-+).j+H.G 9 =+T.{+k m X.H H Z.j f.*+} S .   ",
"  I q q !.q !.!.!.L !.m+% / ).).).3 ' V m s.).i+M ^.g i+j+H.G |+=+:.{+` m W Z.j j f.*+} i.2+    ",
"    !.!.!.!.!.L L L c.`.'+e z - #.).)._.m m G+, d.K.-+-+j+<.;+u.=+B+/.7+q.< Z.j f.*+} } i.:+    ",
"    ]+L L c.] L A.A.A.% '+E.[ v.[ ] U.>+m m < 2.2.2.N.1.1.<.4 9 =+:.I W q.=.j f.f.*+} i.i.3+    ",
"    C A.A.A.]+]+A.P.]+e '+G.[ v.v.1 C O q.q.q.1 2.G <+1.'+4 4 |+=+C.b m X.t+j f.*+} i.i.7..     ",
"      l+]+]+]+[ l+[ E ;.e l+v.1 C 1 4+O m q.q.W d.G k+;.'+{+I u.=+m.q.m =.j f.*+*+} i.2+S       ",
"      1 [ [ [ [ v.v.o+'+'+1 C C C d.` r+m q.7+q.X.r+8.'+'+{+I t (+q.m b j f.*+*+} i.2+7..       ",
"        v.v.1 1 1 1 l+'+'+8.d.d.d.d.2.r+m q.k 7+m q...;.;.r D.q.m q.y+Z.f.f.} } i.i.2+S         ",
"        2.C 1 1 1 C 1 ^.'+l.d.d.2.k k x+q.X.<.<.=.D.y.'+'+c+q.m o.r+j f.*+*+} i.i.S 7..         ",
"          C C d.d.C d.E.'+{.2.k k k  +G  + +4 4 {+4 % '+'+x+ +Q.=+v+f.f.} } i.2+2+S 3+          ",
"          H ` d.d.2.2.o+'+'+K.k G G G <.4 4 4 {+{+^ ;.'+'+E+Z.u.=+v+*+} } } i.2+2+.             ",
"            E+2.k [+k H.@ ;.^.8.<.4 4 4 {+{+I I + e ;.'+'+H j u.=+3.*+} i.i.2+S 3+.             ",
"              4 k G G G 4+% '+^.<+H.4 {+{+I 4 $ e e w '+'+!+j 9 =+$+} } 2+2+2+3+.               ",
"                /.<.<.;+4 9+h e '+^.@ <+$ @ ^.'+'+k+[+'+'+j f.Y.=+$+i.i.2+S 3+:+                ",
"                  /.4 4 4 {+4 ^ % e '+'+;.'+'+)+6 Z.; '+'+j *+Y.=+~ 2+2+S 7..                   ",
"                    2+{+{+{+n+n+n+[+k+^ &.~.; j j j !+& & *+} j ,.} S S 3+                      ",
"                        Z./././.H H H H Z.j j j f.f.*+*+} i.} i.2+2+S .                         ",
"                            f.t+H Z.Z.!+!+j j f.f.*+*+} } i.i.2+S :+                            ",
"                                i.j j j f.f.*+*+} *+i.i.i.2+3+.                                 ",
"                                        3+i.2+2+S 2+S :+                                        ",
"                                                                                                "};
