/* XPM */
static char * rndcontrctr_xpm[] = {
"48 48 256 2",
"  	c None",
". 	c #1E1E1E",
"+ 	c #828E7A",
"@ 	c #4E5242",
"# 	c #6E7A66",
"$ 	c #C6C6C6",
"% 	c #BABABA",
"& 	c #32362E",
"* 	c #6A7262",
"= 	c #AEB2AA",
"- 	c #6E3A3A",
"; 	c #A2AA9E",
"> 	c #636A5E",
", 	c #464A3A",
"' 	c #B68E8E",
") 	c #6A5A56",
"! 	c #626652",
"~ 	c #623636",
"{ 	c #9A8080",
"] 	c #798273",
"^ 	c #969286",
"/ 	c #5B6256",
"( 	c #434639",
"_ 	c #2A2A26",
": 	c #595E4E",
"< 	c #533A35",
"[ 	c #A47676",
"} 	c #926A6A",
"| 	c #383A32",
"1 	c #8A8E84",
"2 	c #525252",
"3 	c #D2D2D2",
"4 	c #7A8675",
"5 	c #2E2E2E",
"6 	c #8E9A8A",
"7 	c #82867D",
"8 	c #3A3E34",
"9 	c #966266",
"0 	c #8E6E6A",
"a 	c #9E9E9E",
"b 	c #7B7674",
"c 	c #969A8E",
"d 	c #7E7A72",
"e 	c #525652",
"f 	c #5A4E46",
"g 	c #8A9684",
"h 	c #66524C",
"i 	c #C2ACAC",
"j 	c #AC7E80",
"k 	c #725E5A",
"l 	c #CACECA",
"m 	c #767266",
"n 	c #7F4647",
"o 	c #494A46",
"p 	c #868686",
"q 	c #BEC2BE",
"r 	c #A2A69E",
"s 	c #565A4E",
"t 	c #6A6A6A",
"u 	c #525642",
"v 	c #6E4A4A",
"w 	c #8E8E8E",
"x 	c #767A6E",
"y 	c #7E827B",
"z 	c #464242",
"A 	c #252622",
"B 	c #3F4236",
"C 	c #2F322A",
"D 	c #6E564E",
"E 	c #625652",
"F 	c #565A52",
"G 	c #7E8A76",
"H 	c #5E463E",
"I 	c #A6AAA2",
"J 	c #424642",
"K 	c #5A5E5A",
"L 	c #828A7A",
"M 	c #6A6E62",
"N 	c #737669",
"O 	c #4A4E48",
"P 	c #AAAAAA",
"Q 	c #5E665C",
"R 	c #969E92",
"S 	c #66665A",
"T 	c #B2B6B2",
"U 	c #767E6E",
"V 	c #7E5252",
"W 	c #868E7E",
"X 	c #D6D6D6",
"Y 	c #CACACA",
"Z 	c #9EA29A",
"` 	c #82827E",
" .	c #BABEBA",
"..	c #6E4240",
"+.	c #AAAEA6",
"@.	c #72766E",
"#.	c #5E625C",
"$.	c #4E524E",
"%.	c #96928A",
"&.	c #868A86",
"*.	c #4E4E42",
"=.	c #8A9282",
"-.	c #6A7662",
";.	c #53564E",
">.	c #8E928E",
",.	c #6A6676",
"'.	c #B28A8A",
").	c #869281",
"!.	c #525247",
"~.	c #42423A",
"{.	c #3A3E3A",
"].	c #423632",
"^.	c #464646",
"/.	c #625E56",
"(.	c #565A57",
"_.	c #979A92",
":.	c #908882",
"<.	c #8A8A82",
"[.	c #969291",
"}.	c #666E5E",
"|.	c #B29A9A",
"1.	c #92928A",
"2.	c #868A82",
"3.	c #92968D",
"4.	c #6E6E6D",
"5.	c #727672",
"6.	c #6C625E",
"7.	c #7A7A7A",
"8.	c #4E4E5A",
"9.	c #7E7A7A",
"0.	c #767E72",
"a.	c #363636",
"b.	c #563E38",
"c.	c #6A6A7A",
"d.	c #6A7267",
"e.	c #5A5662",
"f.	c #4A4A40",
"g.	c #564E46",
"h.	c #7A4646",
"i.	c #7E867B",
"j.	c #62626E",
"k.	c #8A827E",
"l.	c #525646",
"m.	c #1E221E",
"n.	c #5A5A5A",
"o.	c #8E9289",
"p.	c #9A968E",
"q.	c #8A8682",
"r.	c #5E5E5A",
"s.	c #7A5A5A",
"t.	c #423A32",
"u.	c #969A96",
"v.	c #626662",
"w.	c #7A7E7A",
"x.	c #9E6E72",
"y.	c #664A42",
"z.	c #7A4E52",
"A.	c #865A5E",
"B.	c #666A62",
"C.	c #4A4E40",
"D.	c #323232",
"E.	c #72726A",
"F.	c #767676",
"G.	c #AEB2AE",
"H.	c #7E8676",
"I.	c #7E7A86",
"J.	c #6A3A3C",
"K.	c #828A7E",
"L.	c #727E6E",
"M.	c #A2A6A2",
"N.	c #A2A2A2",
"O.	c #424242",
"P.	c #82766E",
"Q.	c #5A5E55",
"R.	c #8E968A",
"S.	c #DADADA",
"T.	c #3A3A3A",
"U.	c #4A4A52",
"V.	c #6E766A",
"W.	c #868E82",
"X.	c #3F3E36",
"Y.	c #626262",
"Z.	c #565647",
"`.	c #565652",
" +	c #767272",
".+	c #828E7E",
"++	c #666666",
"@+	c #9A9E96",
"#+	c #7A7E76",
"$+	c #727A6A",
"%+	c #864A4E",
"&+	c #6E6A6A",
"*+	c #5A564E",
"=+	c #6D665F",
"-+	c #86827F",
";+	c #858682",
">+	c #4A5246",
",+	c #6E3E3D",
"'+	c #929291",
")+	c #7E8A7A",
"!+	c #8A9286",
"~+	c #4E4A4A",
"{+	c #C2C2C2",
"]+	c #4E3E36",
"^+	c #664242",
"/+	c #4E4E4E",
"(+	c #B6B6B6",
"_+	c #BEBEBE",
":+	c #3E3E3E",
"<+	c #726E6E",
"[+	c #6E726C",
"}+	c #868A7E",
"|+	c #7E7E7E",
"1+	c #9AA296",
"2+	c #969696",
"3+	c #2A2A2A",
"4+	c #4E5246",
"5+	c #46464E",
"6+	c #52524E",
"7+	c #9A9A9A",
"8+	c #727A6E",
"9+	c #8A8A89",
"0+	c #7F7E79",
"a+	c #7A7A72",
"b+	c #565656",
"c+	c #8E8E86",
"d+	c #8E9686",
"e+	c #7A827A",
"f+	c #52525A",
"g+	c #86868E",
"h+	c #AEAEAE",
"i+	c #565A5E",
"j+	c #262626",
"k+	c #6A6E69",
"l+	c #663A3A",
"m+	c #5E5A5A",
"n+	c #56423E",
"o+	c #727272",
"p+	c #4A4A4A",
"q+	c #454A3F",
"r+	c #666E66",
"s+	c #36362E",
"t+	c #5E5E5E",
"u+	c #6E766E",
"v+	c #828282",
"w+	c #666A67",
"x+	c #767A73",
"y+	c #565252",
"z+	c #929A8E",
"A+	c #CECECE",
"B+	c #8A8686",
"C+	c #46463F",
"D+	c #76766E",
"E+	c #222222",
"F+	c #B2B2B2",
"G+	c #A6A6A6",
"                                                                                                ",
"                                      (+F+h+P G+N.a 7+2+'+                                      ",
"                                {+_+% (+F+h+P G+N.a 7+2+'+w 9+p                                 ",
"                          A+Y $ {+_+% (+F+h+P G+N.a 7+2+'+w 9+p v+|+                            ",
"                        A+Y $ {+_+_+% (+F+h+P G+N.a 7+w p p 9+p v+|+7.F.                        ",
"                    X 3 A+A+Y {+{+% (+F+h+P G+G+N.a '+w 0+9.9+p v+|+7.F.o+4.                    ",
"                  X X A+Y $ $ {+_+% (+(+F+h+G+N.a a [.p.B+ +p p v+|+7.F.o+4.t                   ",
"                S.X 3 A+A+Y $ _+_+% (+F+h+P G+G+N.7+'+-+<+ +p p |+|+7.F.o+4.t ++                ",
"              X X 3 3 Y $ $ {+_+% % F+h+P P N.N.a 7+2+p t <+v+p |+7.F.F.4.t t ++Y.              ",
"            X X 3 A+Y $ (+G.% _+% (+F+h+h+G+G+a a 7+3.w  +&+|+v+|+|+7.o+o+4.++Y.t+t+            ",
"          X 3 3 A+A+l $ I !+u.h+F+F+F+P P G+N.a 7+2+[.w b 6. +v+7.7.F.o+4.t t ++t+n.n.          ",
"          3 3 A+A+Y Y T @+v+o+|+p w 2+a a a a 7+2+[.w w F.m+4.v+|+7.[+t t t ++Y.t+n.b+          ",
"        A+A+Y Y Y A+q I @+y B.r.r.t+++o+o+o+o+,.Y.w+t 4.w+y+t+F.w.y [+Y.++++Y.Y.t+n.b+2         ",
"      A+A+Y Y Y Y Y = I ; o.4.n.2 /+`.U.^.O.:+{.:+T.a.| a.& a.T.:+^.K e t+++++w+++n.b+2         ",
"      Y Y $ $ $ Y T r N.+.R.e+u+e /+C+^.:+:+T.T.T.a.D.a.D.D.D.T.T.T.e (.O n.Y.++x+#.2 2 /+      ",
"      {+{+$ {+{+q +.R R.u.w.W.}+> (.5.w '+p p -+|+|+7. + +e.2 [+u+w+> r+2 2 m+e 7.o+n./+p+      ",
"    {+{+_+_+{+$ = Z @+3.1 W.g !+4 Q.Q.&.'+b 0+9+k. +=+E /.`.O.w+4 u+k+r+Q o 2 2 n.w.Y./+p+^.    ",
"    _+_+_+_+{+% r R c z+3.R.R.!+W.# q+Q.#+6.{ i i |.{ s.h y+:+K w.5.r+w+u+(.p+b+b+|+5.2 ^.^.    ",
"    % % %  .q +.1+R z+6 3.!+!+!+1 K.Q C+e f A.'.'.9 z...H !.~.{.$.Q r+w+k+[+Y.=+=+k+5.t+^.O.    ",
"  (+(+F+(+% = 1+R z+z+3.g g =.).)..+4 / C+]+z.j j %+..,+b.p+f+z :+K w+r+5.<.` =+/././+t+q+O.    ",
"  F+F+F+(+F+r _._.3.d+o.o.!+=.).W W K.L.$.].v [ [ n - J.< /+j.8.5+w+8+i.1.d *+C+$.6+{.z :+:+:+  ",
"  h+h+h+F+I _.c z+6 R.g =.).1 W.W .++ L * ~.n+} x.n J.l+< ~+e.U.i+w.[.%.<+C+C+n./+2 O.a.:+:+T.  ",
"  P P h+M.@+z+3.3.d+o.!+=.).W .+L + + G ] : t.) } n - ~ < /+c.,. +p.:.S y+n.N E.l.p+^.O.:+:+T.  ",
"  G+G+M.@+_.z+R.d+!+!+).W.W W .+.+L )++ L # q+z D h.J.~ b.n.I.B+'+1.b &+a+x+v.l.J C.^.O.:+T.a.  ",
"  N.N.@+z+3.3.o.o.!+1 ).W.W W W + + G + L + $+C.f.y...^+h ` M.N.%.a+D+E.r.u !.*.:+q+J O.:+T.a.  ",
"  a a 7+3.R.!+!+!+1 =.W.W .++ L )+L L G G G G -.C.g.k b ;+_._.c+7 S s u l.!.4+*.X.^.O.:+T.a.a.  ",
"  7+7+2+'+>.1 1 !+W.W..+W K..++ L + )++ W G )+4 > s D+c+;+N : u u !.u !.@ 4+4+O X.:+:+T.T.D.D.  ",
"  7+2+3.>.1 K.W.W.W.W W.K.+ L )++ G L W g + G G -.u s #.Z.!.Z.!.u u !.u !.!.C.( | :+T.T.a.a.D.  ",
"  '+[.'+>.1 K.7 2.2.K.K.K.L K.)+)+L + g .++ + + * ( , u u @ u u u u @ u @ 4+*.8 D.D.D.a.D.D.    ",
"    w w &.7 p i.K..+}+K.K.)+L 7 L )+).d+L G G G * , *.u u u u u @ 4+l.4+@ *.( a.5 3+3+5 5 3+    ",
"    9+9+p K.7 y 7 K.L L K.i.G H.G K.R.+ H.H.H.G }., @ u u u @ l.u @ @ @ , 8 5 _ 3+j+j+3+3+3+    ",
"    9+p p 7 i.i.i.i.i.i.i.H.i.H.7 W d+)+G G G 4 }.( @ @ u @ u !.!.4+f.X.C j+A A j+A E+j+3+3+    ",
"      v+v+v+y 0+y i.i.H.i.H.i.4 L g L 4 4 4 G 4 > ( u @ u !.u @ f.| 5 A m.. E+E+j+j+3+3+3+      ",
"      |+|+|+e+0.0.y y y H.4 4 H.L o.H.U U H.] 4 Q B u u l.u @ C.& E+m.. . . . E+j+5 5 3+3+      ",
"        7.b 0.x+@.N $+8+5.x 0.] )+.+H.U -.] ] $+s ( u @ 4+>+B C A E+j+. E+E+3+5 5 5 5 3+        ",
"        F.5.o+u+5.8+8+x x 8+V.u+@.0.] ] V.V.] V.l.( @ @ , s+_ A A E+E+j+E+5 5 D.D.5 3+j+        ",
"          E.4.r+t t r+d.V.8+N 8+8+8+L.U V.M L.* O C+f.X.s+_ E+E+E+. . 3+5 a.D.D.5 5 3+          ",
"          t t ++#.K n.Q.n.F K Q B.* [+V.# * [+> , B X.& _ j+j+E+A 3+D.a.a.D.D.5 5 j+            ",
"            =+++++++Y.K n.F F F `.F Q.Q.#./ Q F | & 5 j+E+E+j+3+D.a.a.a.a.5 5 3+3+j+            ",
"              ++++Y.Y.Y.#.K m+n.K F e F s s ;.4+& _ _ _ _ j+D.a.T.a.a.a.D.5 3+3+j+              ",
"                Y.#.t+t+m+K K (.n.b+e e e e (.`.O.T.T.a.T.a.T.T.T.a.D.5 5 3+3+3+                ",
"                  m+n.n.n.e.b+b+2 `.8./+$./+O O ^.J O.O.T.T.a.a.a.D.D.5 5 3+j+                  ",
"                    b+b+b+y+y+2 /+6+/+~+p+^.^.^.z O.:+:+T.T.a.D.D.5 5 3+3+                      ",
"                        2 2 $./+/+p+~+p+p+^.z O.:+:+T.T.T.a.a.D.D.5 3+j+                        ",
"                            /+~+p+o ^.O.z O.:+:+T.:+T.a.a.D.5 5 3+3+                            ",
"                                ^.O.O.O.O.:+:+{.T.a.a.D.D.5 5 3+                                ",
"                                        :+T.a.a.a.D.D.5                                         ",
"                                                                                                "};
