/* XPM */
static char * rndcal_xpm[] = {
"48 48 256 2",
"  	c None",
". 	c #121214",
"+ 	c #8A8A8C",
"@ 	c #425654",
"# 	c #8A4E4C",
"$ 	c #C6C6C4",
"% 	c #662E2C",
"& 	c #AAAAAC",
"* 	c #867264",
"= 	c #323234",
"- 	c #6A6A6C",
"; 	c #BA8A8C",
"> 	c #424244",
", 	c #A65654",
"' 	c #664E4C",
") 	c #B6BAB4",
"! 	c #7E3634",
"~ 	c #865E57",
"{ 	c #463634",
"] 	c #A66E64",
"^ 	c #B69A9C",
"/ 	c #C6AAAC",
"( 	c #5A3E38",
"_ 	c #666664",
": 	c #E6E6E4",
"< 	c #96665C",
"[ 	c #222224",
"} 	c #9A9A9C",
"| 	c #C69A9C",
"1 	c #4A5E5C",
"2 	c #D6D6D4",
"3 	c #523A0C",
"4 	c #AE8284",
"5 	c #6E3E3C",
"6 	c #3A3A3C",
"7 	c #76524C",
"8 	c #8A4244",
"9 	c #322624",
"0 	c #AEB2AC",
"a 	c #8E7E64",
"b 	c #7A7A7C",
"c 	c #4E4240",
"d 	c #C6BAAC",
"e 	c #8E665C",
"f 	c #C6B2B4",
"g 	c #5A4644",
"h 	c #463A38",
"i 	c #A89294",
"j 	c #984E4C",
"k 	c #D6C6C4",
"l 	c #AD6664",
"m 	c #543A34",
"n 	c #564E44",
"o 	c #986E64",
"p 	c #B6969C",
"q 	c #B66E6C",
"r 	c #2A2A2C",
"s 	c #C6A6A5",
"t 	c #929294",
"u 	c #727274",
"v 	c #9E6A5E",
"w 	c #A3A2A4",
"x 	c #954644",
"y 	c #BEB2A4",
"z 	c #62463C",
"A 	c #4E3A34",
"B 	c #3E3234",
"C 	c #6E564C",
"D 	c #8E6257",
"E 	c #BEA2A0",
"F 	c #2A221F",
"G 	c #423A38",
"H 	c #7A5A54",
"I 	c #56423C",
"J 	c #965654",
"K 	c #6E4E44",
"L 	c #C2C2C4",
"M 	c #8B3E3C",
"N 	c #D5AEAC",
"O 	c #7A5E54",
"P 	c #5A5A5C",
"Q 	c #BE7A7C",
"R 	c #493E3C",
"S 	c #B66264",
"T 	c #9A766C",
"U 	c #4E4E4C",
"V 	c #CECECC",
"W 	c #5E3A3C",
"X 	c #B6AEA4",
"Y 	c #C28A8C",
"Z 	c #C2BABC",
"` 	c #B06E6C",
" .	c #966A5E",
"..	c #DEDEDC",
"+.	c #3C2E2C",
"@.	c #B6B2B4",
"#.	c #828284",
"$.	c #C6C2C4",
"%.	c #D6B2B4",
"&.	c #A14E4C",
"*.	c #D6CECC",
"=.	c #A26E66",
"-.	c #D0A2A4",
";.	c #654A44",
">.	c #7E5E54",
",.	c #5E625C",
"'.	c #1A1A1C",
").	c #928E94",
"!.	c #7A6E64",
"~.	c #4A4A4C",
"{.	c #AA5E5C",
"].	c #863E3C",
"^.	c #8A6254",
"/.	c #563234",
"(.	c #CEAAA4",
"_.	c #FEFEFC",
":.	c #A29EA4",
"<.	c #CE9A9C",
"[.	c #6A4A44",
"}.	c #3E3E3C",
"|.	c #7E564C",
"1.	c #824A4C",
"2.	c #868684",
"3.	c #827E84",
"4.	c #4E4644",
"5.	c #CEBAB4",
"6.	c #926A60",
"7.	c #4A3A35",
"8.	c #B26664",
"9.	c #865A54",
"0.	c #F6EAEC",
"a.	c #C69294",
"b.	c #565654",
"c.	c #6E3634",
"d.	c #EEEEEC",
"e.	c #BA7674",
"f.	c #BE6A6C",
"g.	c #8A7A5C",
"h.	c #C08284",
"i.	c #868284",
"j.	c #BE9A9C",
"k.	c #624E49",
"l.	c #724A44",
"m.	c #A25654",
"n.	c #8E4A4C",
"o.	c #CECACC",
"p.	c #3A322C",
"q.	c #726E74",
"r.	c #BE7274",
"s.	c #9A969C",
"t.	c #7A767C",
"u.	c #AAA6AC",
"v.	c #9A4A4C",
"w.	c #DECECC",
"x.	c #CEB2B4",
"y.	c #CA9694",
"z.	c #C6BEAC",
"A.	c #766260",
"B.	c #A67264",
"C.	c #BEB6B4",
"D.	c #423E44",
"E.	c #7E6264",
"F.	c #CACACC",
"G.	c #683234",
"H.	c #A85A5C",
"I.	c #6A524C",
"J.	c #7F3A3C",
"K.	c #262624",
"L.	c #D6DAD4",
"M.	c #322A2C",
"N.	c #B2B6B4",
"O.	c #96726C",
"P.	c #964A4C",
"Q.	c #413634",
"R.	c #BFA6A4",
"S.	c #2D2624",
"T.	c #72524C",
"U.	c #525254",
"V.	c #D2D2D4",
"W.	c #BEBEBC",
"X.	c #A25254",
"Y.	c #161614",
"Z.	c #8E8E8C",
"`.	c #AEAEAC",
" +	c #363634",
".+	c #6E6E6C",
"++	c #BE8E8C",
"@+	c #464644",
"#+	c #9E9E9C",
"$+	c #7A564C",
"%+	c #7E7E7C",
"&+	c #5B4A44",
"*+	c #2E2E2C",
"=+	c #969694",
"-+	c #767674",
";+	c #A6A6A4",
">+	c #5E5E5C",
",+	c #C68E8C",
"'+	c #CEA6A4",
")+	c #1E1E1C",
"!+	c #C29694",
"~+	c #C29E9C",
"{+	c #825A51",
"]+	c #86765C",
"^+	c #C6AEB4",
"/+	c #5A423C",
"(+	c #D6CACC",
"_+	c #B67274",
":+	c #4E3E3C",
"<+	c #564640",
"[+	c #D6D2D4",
"}+	c #CEAEAC",
"|+	c #B26A6C",
"1+	c #C6B6B4",
"2+	c #BE7E7C",
"3+	c #DEE2DC",
"4+	c #B6B6B4",
"5+	c #D6B6B4",
"6+	c #563634",
"7+	c #CE9E9C",
"8+	c #CABABC",
"9+	c #B2AEB4",
"0+	c #BEB2B4",
"a+	c #A67274",
"b+	c #6A4E44",
"c+	c #BABABC",
"d+	c #8A5E54",
"e+	c #26221C",
"f+	c #3E3A39",
"g+	c #B2B2B4",
"h+	c #52423C",
"i+	c #A26A5C",
"j+	c #664640",
"k+	c #42322C",
"l+	c #92625C",
"m+	c #724E4C",
"n+	c #524E50",
"o+	c #9A6A5C",
"p+	c #626264",
"q+	c #8A5A5C",
"r+	c #764A4C",
"s+	c #DADADC",
"t+	c #362A24",
"u+	c #C2BEC4",
"v+	c #8E8A8C",
"w+	c #AEAAAC",
"x+	c #BE8A8C",
"y+	c #464244",
"z+	c #4A3634",
"A+	c #9A665C",
"B+	c #9E9A9C",
"C+	c #CA9A9C",
"D+	c #B28284",
"E+	c #7A524C",
"F+	c #8E4244",
"G+	c #92665C",
"                                                                                                ",
"                                      u Z.w #+} =+t Z.u b.                                      ",
"                                ;+c+c+4+g+`.& ;+w #+} =+t Z.2._                                 ",
"                          #.L L L c+c+g+g+`.& ;+w #+} =+t Z.+ 2.b .+                            ",
"                        $ F.F.L L c+c+g+`.`.& ;+w #+} =+Z.+ + 2.#.%+-+_                         ",
"                    ;+V.V F.$ L W.W.4+N.g+& ;+w #+#+=+t t Z.2.#.#.%+b u -  +                    ",
"                  L V.V F.F.$ L W.c+4+g+`.`.& w #+#+} =+t Z.+ #.#.%+b u u - U.                  ",
"                2 V.V.V F.$ L W.c+c+@.g+`.& ;+w #+} =+t Z.+ 2.2.%+b -+-+.+- >+U                 ",
"              V 2 V.V.V $ $ L W.c+) g+0 & ;+;+w #+} =+t Z.+ 2.#.%+b -+-+.+.+_ p+U.              ",
"            $ 2 V.V F.F.$ L L W.c+@.g+`.& ;+w #+} =+t Z.Z.+ 2.#.%+b u .+.+_ _ >+b.6             ",
"          #+V.V.V V F.F.$ L c+c+) g+9+`.& ;+#+} } =+t Z.+ 2.#.%+b -+u .+.+_ p+>+>+b.*+          ",
"          V.V V B.=.i+v A+l+G+G+<  .6.e D H O e 6.o O.O.o G+D D ^.~ {+7 j+j+r+l.P b.~.          ",
"        L V F.F.i+=.v A+< W.o.2 3+: : L.[+[+c H L.3+3+3+..3+2 2 2 k 2 2 7.7.j+j+P b.U.>         ",
"      2.F.F.F.$ =.v v A+4+2 u+L.3+: ..L.V.V _ ' L.: '+..3+3+L.[+%.r.w.2 } G &+I.b.U.U @+        ",
"      W.F.$ $ L < A+< ) V ..#+V s+3+2 [+V o._ ;.V.: <.*.'+(+k 2 V f.w.[+} i.A.d.~.U.U U }.      ",
"      L L L z.W.< G+W.[+2 2 ).4+L.3+[+[+$ $ _ k.L.N '+(.,+(.C+[+V.S (+V.s.4 s n 4.U ~.> 6       ",
"    ;+L L L W.Z l+D $.g+w =+2.w+2 3+[+V V o._ k.2 3+..s+2 2 [+o.V f V 2 i q l ~ U @+> }.}.r     ",
"    c+W.c+c+) ) d+d+'+R.E p p E N 5+N / s R._ ;.5.5+%./ (./ / s R.s / E e.l n.W @+}. += 6 =     ",
"    ) c+4+4+@.N.~ {+[+L...V.[+[+s+3+2 u+t c+_ ;.$ :.o.[+o.o.o.$ o.$ F.x+r.H.5 A }.*+r r  +6     ",
"  %+@.N.4+g+0 `.{+{+[+..3+3+..2 s+3+s+t a u+_.Z * 3 s.V $.o.$ $ $ u+R.2+{.n.A z+= r r *+ +6     ",
"  Z.g+0 g+`.w+u.|.$+L...3+3+s+2 s+s+2 c+v+w ~.g N.u ).u+$ $ F.$ $.C.h.|+P.E.{ +.r K.r  +}.}.K.  ",
"  `.w+w+& & & ;+7 7 3+....2 s+2 s+L.V o.@.B+_ <+4+2.q.:.$.$ $.u+W.x+h.m.# b +.9 [ K.r  +}.6 K.  ",
"  w & & ;+;+;+w 7 m+3+s+V.[+[+L.2 2 V $.$.w+_ h+2.p+b u.@.w+w+w+p h.8.P.O >+S.F [ r = 6 }.6 *+  ",
"  ;+;+;+;+w #+} T.T...2 V V [+[+2 s+$ $.u+u+_ <+B+s.$.$ $.u+$ 0+++Q &.j+U @+F F K.*+6  +6  +[   ",
"  } w #+#+#+} =+K K 3+..[+V V [+V V o.u+) 4+_ g $.F.V V $.$.c+x+y.H.F+c }.> F t+*+= 6  + + +r   ",
"  #+#+#+} =+} =+[.[.: L...V.V o.V [+V w+v+w _ g 4+:.$ $ $ W.j.7+q x W 6 y+U.+.k+ + + + + += )+  ",
"  Z.} } } =+t ).b+' 3+3+2 V $ $ V V F.v+]+0+d.9+!.3 s.V $ 1+-.2+X.! 6 ~.>+.+{ {  + + + +=  +K.  ",
"  %+=+=+t t Z.Z.;.[.3+..[+$ $ $ o.V u+w b + @ &+& g.).9+@.a.-.m.M z+f+P b b { 7.= = = = = *+.   ",
"  b.t t Z.Z.+ 2.[.b+: ..[+$.$ u+$ o.u+@.s.%+1 g s.%+3.N.j.(.S x G. +U 3.t %+7.7.*+*+= = *+*+    ",
"    Z.Z.+ + + 2.[.j+: ..s+V $ $ F.$ ) ) w+=+b.:+t.t.#+^+q e.&.! B @+q.B+s.#.7.7.*+*+*+*+*+[     ",
"    2.+ 2.2.i.i.[.j+: 3+..[+V V o.V u+W.N.) p+h+;+`.Z x+0.` M /.D.P + w =+%+{ 7.*+r r *+*+K.    ",
"    u 2.2.#.#.3.[.;.: : : 3+s+[+V.V o.$ W.$._ &+L [+!+N _+N q+6 U 3.B+:.} %+A z+r r r r [ .     ",
"      #.#.%+%+b ;.j+: : 3+: ..2 2 s+V $ V $._ g o.8+-.2+n.8 R 4.- } ;+B+} %+A A r r K.r K.      ",
"      -+%+b b b j+z /+3.3.3.#.3.3.3.#.#.3.3._ g g 4 y.&.! 6+= > _ b %+%+%+%+:+A K.K.r [ .       ",
"        b -+-+-+j+I h G G Q.G f+f+f+G G G f+D.&+;.-.|+M % S.[ M.h R R h h Q.m m K.K.K.[         ",
"        .+-+u u ;.I R Q.Q.G Q.G G G G G G f+R <+a+2+x c.Q.S.S.+.h 7.7.h Q.Q.( :+K.[ )+.         ",
"          u .+- - p+P ~.D.6  + += *+*+*+r r *+:+C+m.G.[ '.. Y.Y.'.)+'.'.)+)+e+[ K.K.)+          ",
"          @+- .+- p+>+P U.U ~.@+> > }.6  + + +=.|+J.+.K.)+'.Y.)+K.[ [ K.[ K.[ K.[ Y.            ",
"            U _ _ p+>+>+b.U.n+U ~.@+@+> > }.4.H.J. +*+K.)+'.)+[ r r K.S.[ K.[ [ [ .             ",
"              >+p+>+>+P P b.b.U ~.~.@+@+> D.J P.A = *+[ '.)+[ r r r r r K.K.K.[ .               ",
"                b.>+>+P P b.U.U.U ~.~.y+> > 1.( 6 *+r [ )+[ K.*+r r K.r K.[ [ '.                ",
"                  ~.b.b.b.U.U.U U ~.@+@+@+> > 6  +*+[ [ [ r *+*+*+r r K.K.[ .                   ",
"                    *+U.b.U.U.~.U ~.@+@+> D.> }. +*+K.K.r *+*+*+*+r r K.K.                      ",
"                        @+U ~.U ~.~.~.> @+> }.6 = *+r *+= = *+= r r K.Y.                        ",
"                            }.@+~.@+@+> > }.}.6 = = = = = = *+*+r [                             ",
"                                = > > }.}.}.6 6  += = = = *+r .                                 ",
"                                        r = *+*+*+r r )+                                        ",
"                                                                                                "};
