/* XPM */
static char * rndcard_xpm[] = {
"48 48 101 2",
"  	c None",
". 	c #1D1D1C",
"+ 	c #807A6A",
"@ 	c #AFAA9B",
"# 	c #4A4A4B",
"$ 	c #959284",
"% 	c #6A6251",
"& 	c #C7C2B4",
"* 	c #716E64",
"= 	c #8C8677",
"- 	c #A29E8F",
"; 	c #BBB6AB",
"> 	c #565654",
", 	c #343434",
"' 	c #D3CEC0",
") 	c #9E9686",
"! 	c #867E6F",
"~ 	c #6E6654",
"{ 	c #7A7264",
"] 	c #3E3E3C",
"^ 	c #B6AEA1",
"/ 	c #625A4A",
"( 	c #CEC6B9",
"_ 	c #928A78",
": 	c #C2BAAC",
"< 	c #AAA294",
"[ 	c #525253",
"} 	c #9A9A9B",
"| 	c #6A6A6B",
"1 	c #767674",
"2 	c #DAD5C4",
"3 	c #828284",
"4 	c #6E6E6C",
"5 	c #272624",
"6 	c #7B7A7A",
"7 	c #B2B2B4",
"8 	c #929294",
"9 	c #636263",
"0 	c #CACACC",
"a 	c #5E5E5C",
"b 	c #464644",
"c 	c #ACACAC",
"d 	c #524A3C",
"e 	c #C4C4C4",
"f 	c #8E8E8C",
"g 	c #BEBEBC",
"h 	c #D6D6D4",
"i 	c #868684",
"j 	c #A6A6A4",
"k 	c #B6B6B4",
"l 	c #5E5A51",
"m 	c #3A3A3C",
"n 	c #2E2E2B",
"o 	c #222223",
"p 	c #9E9E9C",
"q 	c #CECECC",
"r 	c #9E9A9C",
"s 	c #86827F",
"t 	c #625E56",
"u 	c #938E85",
"v 	c #9A9482",
"w 	c #3A3630",
"x 	c #46423E",
"y 	c #76726D",
"z 	c #827E74",
"A 	c #9A968C",
"B 	c #6A6661",
"C 	c #B2AEA4",
"D 	c #CAC6BC",
"E 	c #8E8A84",
"F 	c #BEBAB4",
"G 	c #5A5A5C",
"H 	c #6E6A5E",
"I 	c #7B766C",
"J 	c #B7B2A4",
"K 	c #CFCABD",
"L 	c #766E5D",
"M 	c #524E47",
"N 	c #B2AE9C",
"O 	c #4E4E4C",
"P 	c #CAC6B4",
"Q 	c #8E8A7C",
"R 	c #A6A294",
"S 	c #BEBAAC",
"T 	c #D6D2C4",
"U 	c #9F9A8B",
"V 	c #888274",
"W 	c #424243",
"X 	c #665E4C",
"Y 	c #968E7C",
"Z 	c #C3BEB3",
"` 	c #ABA69A",
" .	c #727274",
"..	c #2A2A2C",
"+.	c #7E7E7C",
"@.	c #969694",
"#.	c #666664",
"$.	c #8A8A8C",
"%.	c #BABABC",
"&.	c #A2A2A4",
"*.	c #D2D2D4",
"                                                                                                ",
"                                      4 $.p } @.8 f $.4 [                                       ",
"                                p %.%.7 7 c c j &.p } @.8 $.+.9                                 ",
"                          6 g e e %.%.k 7 c j j &.p } @.8 f $.3 1 |                             ",
"                        e 0 e e e %.%.7 7 c j j p p @.@.8 f $.i 3 +.1 9                         ",
"                    j *.q 0 0 e g %.k 7 7 c c &.&.} } @.8 f i i +.+.6 4 9 ,                     ",
"                  %.*.q 0 e e e g %.k 7 7 c j &.&.p @.8 f f i i +.+.6 1 4 | O                   ",
"                *.h q q 0 0 e g %.%.k c c c j &.p } @.@.8 $.$.3 3 6 6  . .| G b                 ",
"              q h *.q q e e e g %.%.k c c c j p p } @.8 f $.$.3 3 6 6  .4 | | 9 O               ",
"            e h *.*.q e 0 e g g %.7 7 c c j &.&.} } 8 f i 6  .| | 6 1 1 4 4 #.a [ w             ",
"          @.*.q q q q e e e %.%.S k 7 c j j &.} f 3 1 4 | B 4 4 t  . . .4 | #.9 a G ..          ",
"          *.q q q e e e e g g k k c c &.@.i 1 4 | H y ! u - ` ` 1 #.1  .| | #.a a [ W           ",
"        %.q q 0 0 e e g %.%.7 j } i 6 * | L 6 = U @ ; S Z Z S ; u 9  . .| #.#.9 a G [ ]         ",
"      3 q 0 0 e e e %.c p $.+.y y I s $ < J Z P D D D & & Z Z S ` B #.4 | #.9 a a > O ]         ",
"      7 0 e e c p f 3 6 + z f U N ; P K ' K K ' K K K D P & Z g ; +.G 4 | #.9 a G G [ O m       ",
"      e e e j 3 z E U ` J Z & ( ( ' K q ' ' ' ' ' K K D D D & S ; A t #.| 9 9 G G [ [ b w       ",
"    p g g g &.6 R & K K K & N U U J ( ' ' ' ' ' ' ' ' K D P & Z S C | G #.9 9 G G [ [ O b ..    ",
"    g g g %.C 6 v e K K & v l b x / ) P T T T T T T ' ' K D P Z g J = > #.a G G > [ O # W n     ",
"    %.k %.%.k $.6 S K 0 ` l , ..5 5 d < T T T T T T ' ' K D P : ; J p l a 9 a > > [ O # b ]     ",
"  +.k k 7 7 7 } * - K P v x ..5 o . 5 ! K 2 2 2 T T ' K P S ` u + A @  .[ G G > [ O # # ] ,     ",
"  i 7 7 c 7 c j 1 s Z D ) x ..5 o . . L ( 2 2 2 T ' Z @ Y { ~ ~ I - J E [ > G > [ O # b W ] o   ",
"  c c c c c c c 3 H J ( N t n o . . n V ' 2 2 & @ _ L X % I u < J ; J < t [ > [ O O b b W , .   ",
"  } c c j c j j @.9 $ P & U l w ..w L J 2 2 @ L / % + v ^ Z & & Z S ; C 1 # > [ O # b W W ] n   ",
"  j j j j &.&.&.} 4 y S ( & N _ V v J ' 2 2 J V U ; ( ' ' K P Z ; ` U ` $ [ O O # # b W ] w .   ",
"  8 &.&.&.p p p r +.a R ( ( K ( ( K ' 2 2 2 2 2 2 2 T ' K & J v I % * U - 9 b O # b W ] m , ..  ",
"  p p p p p p } } f G V Z P ( K K ' ' 2 2 2 2 2 2 2 K : < V ~ % H z ) ` ` z b # b W W ] m , .   ",
"  i } } } } } } @.8 | ~ J P ( K ' ' ' ' 2 2 2 ' ( @ _ L X ~ I ) @ J J C ` 8 M W b W W ] , , 5   ",
"  +.@.@.8 8 8 8 8 8 6 > A & P K ( ' ' ' K ( ^ v L / X { Y ` S ; ; J C @ R A t ] b ] ] , m 5 .   ",
"  O 8 8 8 8 f f f f 3 > I S & ( ( ( ( ; ) + X / L = < S & Z Z S ; C c - E * # , W ] ] , , n     ",
"    f f f f f $.$.i i #.> ` Z P P ( Z ! / % ! - ; & P & Z Z S ; N - = H M W m ] ] m , , , .     ",
"    3 $.$.$.$.i $.i s 1 O Q S Z & & Z ) v ^ Z & P & & & S ; N U s t b ] ] x W W ] m , , n 5     ",
"     .i i 3 3 i 3 3 3 6 > B N Z Z Z Z Z Z & & & Z Z Z ; N A y > x ] x b b b W m m m , n o .     ",
"      3 3 3 3 +.3 +.+.6 9 [ ) S Z Z Z Z Z Z Z Z Z J ` Q H M x W b # # b W W ] m , , , n ..      ",
"      1 +.+.6 +.6 6 6 I | # + J ; S S : : : ; ^ U ! t b ] b # O O # # W W ] ] m , , n . .       ",
"        6 6 6 1 1 1 1 1  .[ l R J J J J J @ $ L [ x x d O [ O # # b b W ] m m m , , n ..        ",
"        | 1  .1 1  . . .4 a # Q C N @ - V % # x b O [ [ [ O # # b W W ] m m , , n ... .         ",
"           . .4 4 4 4 4 | 9 b B - $ y > b W # [ > > [ [ O O # b b ] ] ] m , , , n n 5           ",
"          # | 4 4 4 | #.| #.M b l M b # O > G > > [ [ # # b b b W ] ] , w , n n ...             ",
"            # | #.#.#.#.#.9 G b W # [ l G > [ [ O O O # # W W ] ] m m , , , ....5 .             ",
"              G #.9 9 a a 9 a > > G > > [ [ [ O O # # b W W ] ] ] m , , , n n o .               ",
"                O 9 9 a G G G G G > > > [ O O O # b b W W W ] m , , , n ....5 .                 ",
"                  # G G G G > > [ [ O O O O # b b b W W ] m , , , , n n n o .                   ",
"                    ..> > > [ [ [ [ O # # b b b W W ] ] ] m m , , n n ..5                       ",
"                        b O O O # # # # b b b ] ] ] ] m , , , , n n o .                         ",
"                            ] # # b b b W ] W ] m m , , , , n n ..o                             ",
"                                , W W ] W ] m m m , , , , n 5 .                                 ",
"                                        5 , n n n n ...                                         ",
"                                                                                                "};
