/* XPM */
static char * rndclip_xpm[] = {
"48 48 135 2",
"  	c None",
". 	c #020204",
"+ 	c #828284",
"@ 	c #C2C2C4",
"# 	c #A2A2A4",
"$ 	c #A68264",
"% 	c #424244",
"& 	c #AE9274",
"* 	c #626264",
"= 	c #826A54",
"- 	c #929294",
"; 	c #A68A6C",
"> 	c #8A7664",
", 	c #96826C",
"' 	c #BE9264",
") 	c #B28A64",
"! 	c #967A5C",
"~ 	c #E2E2E4",
"{ 	c #222224",
"] 	c #9E8A74",
"^ 	c #B69A7C",
"/ 	c #B2B2B4",
"( 	c #A68A74",
"_ 	c #9E8264",
": 	c #B6926C",
"< 	c #D2D2D4",
"[ 	c #525254",
"} 	c #727274",
"| 	c #927E64",
"1 	c #9E7E5C",
"2 	c #323234",
"3 	c #BAA28C",
"4 	c #92765C",
"5 	c #F2F2F4",
"6 	c #161614",
"7 	c #AE8A64",
"8 	c #BA8E64",
"9 	c #967E64",
"0 	c #9E866C",
"a 	c #AE8664",
"b 	c #B28E64",
"c 	c #B69674",
"d 	c #8A8A8C",
"e 	c #CACACC",
"f 	c #AAAAAC",
"g 	c #A68664",
"h 	c #4A4A4C",
"i 	c #B29674",
"j 	c #6A6A6C",
"k 	c #8A725C",
"l 	c #9A9A9C",
"m 	c #AA8E6C",
"n 	c #8E7A64",
"o 	c #9A8674",
"p 	c #C69664",
"q 	c #EAEAEC",
"r 	c #2A2A2C",
"s 	c #BABABC",
"t 	c #A68E74",
"u 	c #B69274",
"v 	c #DADADC",
"w 	c #5A5A5C",
"x 	c #7A7A7C",
"y 	c #3A3A3C",
"z 	c #967E6C",
"A 	c #9E8674",
"B 	c #B68E64",
"C 	c #0E0E0C",
"D 	c #AA8A64",
"E 	c #9A8264",
"F 	c #C29664",
"G 	c #A28A6C",
"H 	c #B69E84",
"I 	c #BA9264",
"J 	c #BEAA9C",
"K 	c #927A5C",
"L 	c #FAFAFC",
"M 	c #1E1E1C",
"N 	c #9A7E5C",
"O 	c #A28664",
"P 	c #AA8664",
"Q 	c #AA8E74",
"R 	c #060604",
"S 	c #868684",
"T 	c #C6C6C4",
"U 	c #A6A6A4",
"V 	c #464644",
"W 	c #B29274",
"X 	c #666664",
"Y 	c #866E54",
"Z 	c #969694",
"` 	c #8E765C",
" .	c #C29264",
"..	c #9A7A5C",
"+.	c #E6E6E4",
"@.	c #262624",
"#.	c #B6B6B4",
"$.	c #A28264",
"%.	c #D6D6D4",
"&.	c #565654",
"*.	c #767674",
"=.	c #9E7E64",
"-.	c #363634",
";.	c #BAA694",
">.	c #F6F6F4",
",.	c #1A1A1C",
"'.	c #AE8E6C",
").	c #B28E6C",
"!.	c #8E8E8C",
"~.	c #CECECC",
"{.	c #AEAEAC",
"].	c #A6866C",
"^.	c #4E4E4C",
"/.	c #B2967C",
"(.	c #6E6E6C",
"_.	c #8E725C",
":.	c #9E9E9C",
"<.	c #8E7A6C",
"[.	c #EEEEEC",
"}.	c #2E2E2C",
"|.	c #BEBEBC",
"1.	c #A68E7C",
"2.	c #DEDEDC",
"3.	c #5E5E5C",
"4.	c #7E7E7C",
"5.	c #3E3E3C",
"6.	c #B68E6C",
"7.	c #AA8A6C",
"8.	c #9A826C",
"9.	c #BA9E84",
"0.	c #A28A74",
"a.	c #BA926C",
"b.	c #927A64",
"c.	c #9A7E64",
"d.	c #A2866C",
"                                                                                                ",
"                                      4.Z {.f U # :.Z 4.3.                                      ",
"                                {.|.#.#./ {.f U # :.l Z - !.d (.                                ",
"                          S @ @ @ s s #.{.f U U # :.l Z - !.d S + x                             ",
"                        e e e @ @ |.#.#./ {.U # # l l Z - d d S + 4.x j                         ",
"                    f < ~.e T T |.s #./ {.{.f U :.:.l Z - !.d S 4.4.x *.} V                     ",
"                  T < ~.~.T @ @ |.s #./ {.f U U :.l Z - - !.S S 4.x x *.} j &.                  ",
"                < < < ~.e e T |.s s #./ {.4.x *.} l Z - !.d d + + 4.*.} (.(.j w                 ",
"              < %.< ~.e T @ @ |.s #./ {.x |.|.s s j Z - !.d d + 4.4.*.*.} j j X &.              ",
"            T %.< ~.~.e T T @ |.s #./ {.} @ j X s X Z - !.S S + 4.x *.} (.(.X * * ^.            ",
"          U < < ~.e e T @ @ |.s #.#./ {.j @ X 3.|.3.- !.!.S S + x x *.} (.j X * 3.w -.          ",
"          < ~.~.~.e T T @ S + 4.*.} j X T e |.T |.@ [ [ [ [ ^.[ [ x } } j j X 3.3.w &.          ",
"        e ~.e e e T @ @ d + #.J / Z ~.T e T ~.@ T |.@ s h t Z ] h ^.} } j j X * 3.&.&.V         ",
"      S e e e T @ T @ |.+ s J s *.{.f U U # # # :.:.:.l l &.t Z o V } (.j X * 3.w w &.^.        ",
"      @ e T T T @ @ s s x J #.;.(.j X * 3.w &.&.&.[ [ [ [ ^.l G Z % (.(.j X * 3.w &.&.^.5.      ",
"      T @ @ @ |.|.s s #.} s ;./ 3 / 9./ w %.%.%.< < ~.e h # m l 0 5.(.j X * 3.3.w &.^.^.h       ",
"    {.@ @ |.|.s s s s #.j ;.#.3 / H {.% %.%.%.%.%.< < < e 2 :.; l y (.j X * 3.w &.&.[ ^.h 2     ",
"    s |.s s s s s #./ {.X / 3 / 9.{.% v v v v v %.v %.< < ~.2 l d.-.(.j X * 3.w &.[ ^.h V %     ",
"    s s s #.#./ / / / {.* 3 {.9./ 5.v v 2.2.2.2.2.2.v v %.~.~.}.l 2 j X * 3.w w &.[ ^.h V %     ",
"  4./ #./ #./ / / {.{.f w {.9.{.5.v v 2.2.2.~ ~ 2.2.2.v %.%.@.:.; }.X * * 3.w &.[ ^.h h % %     ",
"  l {./ {.{.{.f {.f f f &.H {.% v v 2.2.~ +.+.+.+.+.~ ~ v { U 7 :.r X * 3.3.&.&.[ ^.h h % 5.@.  ",
"  {.{.{.{.{.{.f U U U # &.{.V v %.2.2.~ +.+.q q q q q ~ ,.f 7 :.g r X * 3.w &.[ ^.^.V % % 5.2   ",
"  f U f f U f U U # # :.[ ^ f 5.v 2.~ +.+.q [.[.[.[.q 6 f : U 7 :.@.* 3.w w [ [ ^.h h % % y }.  ",
"  U U # # U # # # # :.:.h f ^ f 2 2.~ ~ q [.5 >.>.5 C {.' f 6.# P @.* 3.w &.[ ^.h h % % 5.y }.  ",
"  # # # :.:.# :.:.:.l l h c f c f @.~ +.q [.5 >.>.R #.F {.6.U 7 :.{ 3.w &.&.[ ^.h V % 5.5.-.r   ",
"  :.:.:.:.:.l l l Z Z Z h f i f c {.{ +.q [.5 L . s F / ' f ).# g { w &.&.[ ^.h V V % 5.y y }.  ",
"  l l l l l Z Z Z Z - - V & U u f : {.,.q [.5 R #.p / ' {.8 U a l { w &.[ ^.^.h V % 5.y -.2 @.  ",
"  4.Z Z - Z Z - - - - !.% U W U W f : {.6 [.C #.p / F {.: f 7 # g { &.[ [ ^.h V % 5.5.y -.-.{   ",
"  * - - !.- - !.!.d d !.V & U '.U W f : f 6 {.F / ' {.8 U b # P Z { [ ^.^.h h V % 5.y -.2 }.    ",
"    !.!.!.d d !.d d d S V :.Q # W U ).f a.f a.{.a.{.a.f B # P l $.{ [ ^.h h % % 5.y y -.2 2     ",
"    d d d d S S S S + + V ( # 7.# '.U ).f 6.f 8 f 8 U ) # P :.$.- { [ h V V % % 5.y -.2 }.}.    ",
"    } S S S S S S + + 4.% l G :.7.# 7 # 7 U ) U ) U ) # a :.$.Z N { h h V V 5.y y -.-.2 }.,.    ",
"      + + 4.+ 4.4.4.4.4.V d.l d.l ; :.7.:.7 # 7 # 7 # g l 1 - ..!.{ h h % % 5.y -.2 2 }.r       ",
"      x 4.4.x 4.x x x *.V - o l d.l ; :.7.:.].:.g l $ l $.Z 1 !._.@.V % % 5.5.y -.2 }.}.{       ",
"        x x *.x *.*.*.} V 8.!.E - _ Z $.l O l $ l $.Z 1 - ! d 4 + @.V % 5.y y -.-.2 r r         ",
"        (.*.*.} *.} } } V d , - E - c.- =.- =.- N - 1 !.4 S 4 + Y @.5.5.5.y -.2 }.}.r M         ",
"          } } (.(.(.(.(.V n S b.d 9 !.9 !.9 !.N !.K d ! d k + Y *.@.5.y y -.-.2 }.}.r           ",
"          h (.(.(.(.j j h % <.S n S n d ! d b.S ` S ` + Y 4.= *.@.@.y y -.2 }.}.r @.            ",
"            w j X X X * X % % y y y -.2 2 }.}.r r r @.r @.@.@.@.@.5.y -.2 2 }.r r M             ",
"              w X X * * 3.3.3.3.3.w &.&.[ [ [ [ ^.h h V % % 5.5.y -.-.2 2 }.r r M               ",
"                &.3.3.3.3.w w &.&.&.&.&.[ ^.^.h h h V V % % 5.y y 2 2 }.}.r @.M                 ",
"                  ^.3.w w w &.&.&.[ [ ^.^.^.h h V % % 5.5.y -.-.2 2 2 }.r r ,.                  ",
"                    -.&.[ &.[ ^.[ ^.^.h h V V V % % 5.5.y y -.-.2 }.}.r @.                      ",
"                        h ^.[ ^.h h h h V V % 5.% 5.5.y y -.-.2 }.r r {                         ",
"                            % h h V V % % % % 5.y y -.-.2 2 }.}.}.M                             ",
"                                2 % % % 5.5.y y y -.-.2 2 }.r M                                 ",
"                                        r 2 }.}.}.r r M                                         ",
"                                                                                                "};
