/* XPM */
static char * rndchan_xpm[] = {
"48 48 256 2",
"  	c None",
". 	c #262626",
"+ 	c #7692AA",
"@ 	c #3E4A56",
"# 	c #496683",
"$ 	c #C2C6C6",
"% 	c #666666",
"& 	c #B2B6B9",
"* 	c #667682",
"= 	c #A2AEBA",
"- 	c #767676",
"; 	c #323232",
"> 	c #465667",
", 	c #96A6B4",
"' 	c #7A828A",
") 	c #363A3E",
"! 	c #8E9292",
"~ 	c #4A729A",
"{ 	c #4E565A",
"] 	c #929A9E",
"^ 	c #828282",
"/ 	c #52728E",
"( 	c #4E6279",
"_ 	c #6686A2",
": 	c #424648",
"< 	c #7E8E9E",
"[ 	c #6A7276",
"} 	c #566674",
"| 	c #D2D2D2",
"1 	c #BEC2C6",
"2 	c #66768C",
"3 	c #5E7EA1",
"4 	c #969A9E",
"5 	c #4E5E6E",
"6 	c #3E5268",
"7 	c #3A424A",
"8 	c #7E8A92",
"9 	c #52769E",
"0 	c #6A6E6E",
"a 	c #9A9EA2",
"b 	c #767A7E",
"c 	c #52626E",
"d 	c #667E94",
"e 	c #BABEC2",
"f 	c #9EA6AE",
"g 	c #566A7D",
"h 	c #CECECE",
"i 	c #5E7282",
"j 	c #7A92AA",
"k 	c #9E9E9E",
"l 	c #425E7E",
"m 	c #565656",
"n 	c #4A5256",
"o 	c #496A8D",
"p 	c #A2A6AA",
"q 	c #727E8A",
"r 	c #778A9D",
"s 	c #2A2A2A",
"t 	c #8A929A",
"u 	c #565E6A",
"v 	c #5E6262",
"w 	c #3E3E3E",
"x 	c #5A5A5A",
"y 	c #424A4E",
"z 	c #7E868E",
"A 	c #A7AEB5",
"B 	c #4A4E4E",
"C 	c #828E9C",
"D 	c #627A8F",
"E 	c #323636",
"F 	c #666A6E",
"G 	c #8E96A1",
"H 	c #9EA2A2",
"I 	c #7E7E7E",
"J 	c #425E7A",
"K 	c #A6AAAA",
"L 	c #AEAEAE",
"M 	c #828A94",
"N 	c #627A9A",
"O 	c #B6BABA",
"P 	c #8A969F",
"Q 	c #2E2E2E",
"R 	c #AEB2B4",
"S 	c #6A86A2",
"T 	c #506A86",
"U 	c #5A6674",
"V 	c #667E9A",
"W 	c #92A2B2",
"X 	c #8A8E90",
"Y 	c #626E7A",
"Z 	c #D6D6D6",
"` 	c #4676AC",
" .	c #777E89",
"..	c #868A8E",
"+.	c #CACACA",
"@.	c #576A83",
"#.	c #5A7A9D",
"$.	c #8292A6",
"%.	c #526676",
"&.	c #6E7272",
"*.	c #5E7692",
"=.	c #929698",
"-.	c #6E767A",
";.	c #6E7A89",
">.	c #56728F",
",.	c #626262",
"'.	c #5A5E63",
").	c #6E869C",
"!.	c #626E76",
"~.	c #869AAE",
"{.	c #6E829B",
"].	c #5E768E",
"^.	c #828686",
"/.	c #4E6E8E",
"(.	c #567696",
"_.	c #626666",
":.	c #767E82",
"<.	c #6E6E6E",
"[.	c #4A76A2",
"}.	c #445A74",
"|.	c #5B6A7B",
"1.	c #728298",
"2.	c #727272",
"3.	c #527AA2",
"4.	c #3E4248",
"5.	c #4E5254",
"6.	c #768EA3",
"7.	c #4E5662",
"8.	c #6E8AA6",
"9.	c #6A7682",
"0.	c #62666A",
"a.	c #667A91",
"b.	c #425A6E",
"c.	c #768290",
"d.	c #6E7E8E",
"e.	c #5E6E82",
"f.	c #8E9AA9",
"g.	c #9AA2A6",
"h.	c #6282A2",
"i.	c #66829D",
"j.	c #566E87",
"k.	c #4A4A4A",
"l.	c #6A6A6A",
"m.	c #5E5E5E",
"n.	c #4A6E94",
"o.	c #4A5A66",
"p.	c #62666E",
"q.	c #4A5E74",
"r.	c #72767E",
"s.	c #627286",
"t.	c #526E90",
"u.	c #DADADA",
"v.	c #56769B",
"w.	c #B6B6B6",
"x.	c #464646",
"y.	c #A2A2A2",
"z.	c #8A8A8A",
"A.	c #929EAA",
"B.	c #A6A6A6",
"C.	c #4E6E8A",
"D.	c #8A96A6",
"E.	c #768699",
"F.	c #5A6266",
"G.	c #6682A6",
"H.	c #565A62",
"I.	c #5E6E7C",
"J.	c #626A75",
"K.	c #4A729F",
"L.	c #5E7286",
"M.	c #969EAA",
"N.	c #4A4E56",
"O.	c #5A7691",
"P.	c #929292",
"Q.	c #7A7A7A",
"R.	c #B2B2B2",
"S.	c #8E8E8E",
"T.	c #969696",
"U.	c #5A728C",
"V.	c #868686",
"W.	c #424242",
"X.	c #525252",
"Y.	c #5A6E86",
"Z.	c #465A6E",
"`.	c #6A8296",
" +	c #96A2AF",
".+	c #525A5E",
"++	c #62768C",
"@+	c #9DAAB7",
"#+	c #426282",
"$+	c #52627A",
"%+	c #6A7E8E",
"&+	c #72869C",
"*+	c #7E96AE",
"=+	c #72828E",
"-+	c #627E9E",
";+	c #4A76A6",
">+	c #929AA3",
",+	c #9AA2AC",
"'+	c #4E6E93",
")+	c #8696A6",
"!+	c #50565E",
"~+	c #869AB2",
"{+	c #5E728B",
"]+	c #727678",
"^+	c #6A829A",
"/+	c #7A8EA6",
"(+	c #6A7A8C",
"_+	c #5A6A76",
":+	c #505A64",
"<+	c #6E8294",
"[+	c #4A627A",
"}+	c #727A82",
"|+	c #727276",
"1+	c #6A7E94",
"2+	c #8A9AAA",
"3+	c #7A7E82",
"4+	c #4E729E",
"5+	c #768AA2",
"6+	c #5E7A96",
"7+	c #595A5E",
"8+	c #52667E",
"9+	c #AEAEB2",
"0+	c #5A7AA2",
"a+	c #666E76",
"b+	c #46668A",
"c+	c #46566E",
"d+	c #768EAA",
"e+	c #566E8E",
"f+	c #C6C6C6",
"g+	c #3A3A3A",
"h+	c #4E7298",
"i+	c #C2C2C2",
"j+	c #9A9A9A",
"k+	c #BEBEBE",
"l+	c #7E92A8",
"m+	c #4E4E4E",
"n+	c #363636",
"o+	c #AAAAAA",
"p+	c #BABABA",
"q+	c #567AA2",
"r+	c #527296",
"s+	c #8296AE",
"t+	c #4E76A0",
"u+	c #5E6268",
"v+	c #526E8A",
"w+	c #466282",
"x+	c #6A6E73",
"y+	c #6E7276",
"z+	c #525657",
"A+	c #465E77",
"B+	c #728AA1",
"C+	c #6E7681",
"D+	c #7A8696",
"E+	c #4A5A6E",
"F+	c #76767A",
"G+	c #42464E",
"                                                                                                ",
"                                      w.R.L o+B.y.k j+T.P.                                      ",
"                                i+k+p+w.R.L o+B.y.k j+T.P.S.z.V.                                ",
"                          h +.f+i+k+p+w.R.L o+B.y.k j+T.P.S.z.V.^ I                             ",
"                        h +.f+i+k+k+p+w.R.L o+B.y.k j+T.P.S.z.V.^ I Q.-                         ",
"                    Z | h h +.i+i+p+w.R.L o+B.B.y.k j+T.P.S.z.V.^ I Q.- 2.<.                    ",
"                  Z Z h +.f+f+i+k+p+w.w.R.L B.y.k k j+T.P.S.z.V.^ I Q.- 2.<.l.                  ",
"                u.Z | h +.e f+k+k+p+w.R.L o+B.B.y.=.C P.S.z.z.V.I I Q.- 2.<.l.%                 ",
"              Z Z | | h f+, = & p+p+R.L o+o+y.y.k C ^+r M z.V.V.I Q.- - <.l.l.% ,.              ",
"            Z Z | h +.+.1 W ~+A.& w.R.L L B.B.k G {.d 1.z.z.V.^ I Q.Q.2.2.<.% ,.m.m.            ",
"          Z | | h h +.f+@+~+, w.w.w.R.o+o+B.y.k < i.1.X z.z.^ ^ :.++-.2.<.l.l.% m.x x           ",
"          | | h h +.f+f+, *+W O & R.L L o+y.y.4 i.3 &+E.E.q q ;.2 {+L.x+l.l.% ,.m.x m           ",
"        h h +.+.+.f+i+k+W )+9+w.R.R K B.B.y.a E.-+&+M z D+' c.a.(.U.{+y+<.% ,.,.m.x m X.        ",
"      h h +.+.f+f+f+i+A l+~+& R.L M.).f.p k T.i.&+P.S.S.V.V.3+*.].C+&.<.l.% % m.m.m m X.        ",
"      +.+.f+f+i+i+i+k+@+d+l+,+ +f.S G.^+a >+S E.! P.z.z.V.^ d.++C+- 2.x+l.% ,.m.x m X.X.m+      ",
"      i+i+f+i+i+k+p+& s++ W  +A.)+_ 6.)+k < #.).! S.S.z.^.d.;.Q.]+2.x+j.j.,.,.x x m X.m+k.      ",
"    i+i+k+i+k+k+k+w.A d+ +L 9+o+/+5+k H t 3 q+6+i.-+-+D #.(.].].O.U.U.t./.} ,.m.m m m+m+k.x.    ",
"    k+k+k+p+p+w.w.w. +/+p L o+H l+g.H t h.3 q+C z.V.^. .9 9 ;.- 2.&.J.t.v+0.m.x x X.X.k.x.x.    ",
"    p+p+p+w.p+w.& A *+f M.>+B.>+k k k G.r E.9 M S.V.V. .t+9 ]+- 2.<.!./.T F.x m m m+m+k.x.W.    ",
"  w.w.R.w.w.R.R.L f.$.o+/+_ B+G H k j+! T.r 3.M z.V.^ q [.h+-.2.<.0 J.'+'+m.x x X.X.m+k.x.W.    ",
"  R.R.9+R.9+L L p $.y.K 5+h.5+k k j+4 P.P.&+t+z V.V.I }+t+2 |+2.<.l.J.'+/.'.m m X.m+k.x.W.W.w   ",
"  L L L o+L o+o+2+)+p y.5+3 5+j+j+T.T.P.S.1.;+V d.a.1+6+` O.++Y I.|.@.n.o '.x X.m+k.k.x.W.w g+  ",
"  o+o+o+o+o+o+a P H y.y.B+3 5+T.j+P.P.S.S.<+K.V %+(+++[.(.s.t+r+I._+|.'+$+m .+!+m+k.x.x.w w g+  ",
"  B.B.B.y.B.y.4 =.k y.a ).3 ).T.P.P.P.S.z.d.d ^ I b v.;+{+<.h+e+% _.u+F.x m X.q.5.k.x.W.w g+n+  ",
"  y.y.y.k y.H k k j+j+j+).0+&+P.S.S.z.V...V.^ ^ :.q+` O.y+x+t+j.,.m.m.7+H.z+m+E+B x.W.W.w g+n+  ",
"  k k k k k j+a j+j+T.T.^+0+{.S.S.z.z.V.^ ^ I b 9 ` O.<.<.0 h+/ ,.,.x x X.X.{ A+> x.W.w g+n+n+  ",
"  k j+j+j+j+T.T.T.T.T.P.^+q+{.S.z.V.V.^ I 3+b v.` O.y+<.l.F 4+4+} m.7+H.X.X.o.b+}.W.w g+g+; ;   ",
"  T.T.T.T.T.T.T.P.P.S.S.1+#.1+V.V.V.^ ^ I ++9 (.y+<.<.<.l.% /.[.4+n.n.o o b+w+w+b.W.w g+n+n+;   ",
"  T.P.P.P.S.S.P.S.S.S.z.d q+1+V.^ ^ I (+D *.9.|+|+<.l.l.% ,.u+8+T %.$+5 E+E+> n G+w w g+; ;     ",
"    P.S.S.S.S.z.z.z.z.z.a.O.a.I I I ;.2 C+]+2.2.<.l.Y.t.t.U m.x m z+X.5.m+k.G+W.w g+n+n+; Q     ",
"    z.z.z.z.z.z.V.V.^ V.D v.a.I Q.Q.b C+]+2.<.<.0 F _.|.h+~ C.7+X.X.m+k.k.x.: 4.w g+n+n+Q Q     ",
"    V.V.V.V.V.^ V.^ ^ I 2 (.2 Q.Q.]+* s.<.<.0 l.% ,._.m.} '+K.T !+m+m+k.x.W.w w g+g+E Q Q s     ",
"      ^ ^ ^ ^ I I I I 3+++(.++- ]+{+>.y+<.l.l.% % ,.,.x 7+5 n.n.5 k.k.x.x.W.w g+n+; ; ; Q       ",
"      ^ I I I I I I Q.Q.s.>.s.&.U.>.x+l.l.% % 0.,.m.x x x m :+( m+k.k.x.W.w g+g+n+n+; s s       ",
"        Q.Q.Q.F+- F+- - L.>.{+e.Y.0 l.l.% ,.,.T v+T F.u !+X.5.N.k.x.x.W.W.w g+n+; Q Q s         ",
"        F+- - - - 2.2.&.i t.t.Y.l.% % ,.% ,.m.m.u $+( o 8+5 > k.k.x.W.w g+g+n+n+; Q s .         ",
"          2.2.<.2.<.<.a+Y.v+v+|.% % % ,.m.m.x x m z+z+:+A+o b+}.Z.G+w w g+n+; Q Q Q s           ",
"          <.<.<.l.l.F |.v+j._+% % ,.m.m.m.x x m m X.m+m+B Z.w+b+#+}.: n+n+n+; Q Q .             ",
"            l.l.l.l.% p.} U ,.m.m.m.x x x m X.X.m+m+k.k.k.x.: c+#+b.6 n+; ; Q s s .             ",
"              % ,.,.,.,.u+m.m.m.m.x x m m X.X.m+m+m+k.x.W.W.w 7 G+6 7 n+; Q Q s .               ",
"                ,.,.m.m.m.x x m x m m X.X.X.m+m+k.k.x.x.W.W.w ) ) ) ; ; Q s s s                 ",
"                  x '.7+x x x m X.X.X.X.m+m+m+k.x.W.W.W.w g+g+g+; ; ; Q s s .                   ",
"                    7+m m X.m X.X.m+m+m+k.x.x.x.x.W.w w g+) n+n+; Q Q s .                       ",
"                        X.X.m+m+m+k.k.x.x.x.W.W.w w g+g+g+n+; ; Q Q s s                         ",
"                            m+k.k.x.k.x.W.W.w w g+w n+n+n+; Q Q s s                             ",
"                                x.x.W.W.W.w w g+g+n+n+; Q ; Q Q                                 ",
"                                        w g+g+g+n+n+; ;                                         ",
"                                                                                                "};
