/* XPM */
static char * rndcatori_xpm[] = {
"48 48 65 1",
" 	c None",
".	c #1E1E1E",
"+	c #4F7C87",
"@	c #394E59",
"#	c #44646C",
"$	c #ACACAC",
"%	c #7E7E7F",
"&	c #636464",
"*	c #343436",
"=	c #505050",
"-	c #3D3F3F",
";	c #6B8D8B",
">	c #677C7B",
",	c #616F6D",
"'	c #3E5961",
")	c #4B6F74",
"!	c #384164",
"~	c #7A928C",
"{	c #678383",
"]	c #3B3539",
"^	c #3F4F6E",
"/	c #555755",
"(	c #444444",
"_	c #727272",
":	c #556462",
"<	c #6A6A6B",
"[	c #5D8388",
"}	c #494C4E",
"|	c #56736F",
"1	c #5C5B5C",
"2	c #2B292D",
"3	c #657677",
"4	c #949494",
"5	c #626A6F",
"6	c #C6C6C7",
"7	c #BABAB9",
"8	c #7C8C89",
"9	c #97A199",
"0	c #D1D1D1",
"a	c #3F587E",
"b	c #546778",
"c	c #A2A2A2",
"d	c #5B7D7C",
"e	c #8E9A94",
"f	c #8A8B8A",
"g	c #495960",
"h	c #332E35",
"i	c #577383",
"j	c #456A7A",
"k	c #4A526C",
"l	c #727C7B",
"m	c #28222C",
"n	c #748B81",
"o	c #363A44",
"p	c #4C7678",
"q	c #3C3A3F",
"r	c #708483",
"s	c #5A6A64",
"t	c #465E81",
"u	c #3E4640",
"v	c #535E61",
"w	c #2E2E2E",
"x	c #B2B2B4",
"y	c #999A9B",
"z	c #456587",
"                                                ",
"                   <fcy44ff<=                   ",
"                c77x$$$cccy44f%&                ",
"             %76777xx$$cccy44ff%_<              ",
"            7666677xx$$ccyy44fff%%_&            ",
"          c00066777x$$ccccy4ffff%%%_&*          ",
"         7006666777xx$$ccyy44ff%%%___<=         ",
"        0000066777xx$$cccy44ffff%%%_<&1(        ",
"       00006666677xx$$ccyyy4ff%f%_%__<<&=       ",
"      60006066777xx$$ccccy44fff%%%___<&1=*      ",
"     400006666777xx$$ccyy444ff%%%%___<<&&/2     ",
"     00xccc$x777xx$$ccccy44ffff%%__<111/1/(     ",
"    70$cy44$fy$7xx$$$cyyy4fff%%%%<&&1/////=-    ",
"   %06$9444e9e84$$$cccyy444fff%l>>3,1///=1=-    ",
"   x66$yc9ccc999fc$cccy444ff%f%lr{>31==/=1==q   ",
"   66674ccc$cc$9l%yccyy4f4ff%&i{{>>ib===}//(*   ",
"  c7776444y9e4ff%%_ycy444fff&3{rr>>iv}=}(/==(2  ",
"  767774l_%r8nnrr%1<yy44fff&b[;{{l>3b}=(=/=}(w  ",
"  777x7c%_%8l3l3nl:&&yy4ff_kb[;{{>3iv((}/=}}(-  ",
" %x7x7$c<_r~nr3s_,/&q_4f4%}^)[[r{>>ib}((1=}(-h  ",
" f$x$x$c_<3n3l3s_vu1*q4<f<q^ti{{{di)v(((/=}((-. ",
" $$$$$$$<&&3,s%:l:/=*21]&q]!^+;{>>||t-((/=(((]. ",
" y$$$ccc_&&53>~|>l^=*m2mhh]!k+[[dd)bg-(q/(}(--w ",
" cccc$cc41v,3|l|>s^}w22m2]h!!t+dd|b#k(](/}(--*. ",
" 4ccccccc_1/&,3>;3g!hh2hmh*!aidi5/qwhh]}=(((q*2 ",
" yccyycyy4&/v3{;;[tow*h222h!z+[ddb^q((=/((--q*. ",
" f4yy4y44f115>rd||g!o*2m22*!z+[d+)v-q==}((-q**2 ",
" %4y44444_&,__>,_,=o222mh**!z+d||)#@]]=((-qq*2. ",
" =4444fff/1<3:>|:}u-*2hhh]*!a++pp)'u]]=((-qq*w  ",
"  fffffff&=&,s3|jj--oh*]ho*oajpp)#'!]q((-qq*w.  ",
"  %ffffff&111:s,:s}o*hh*]]oo^jpp)#@o*-((-]**w2  ",
"  _%ff%%%%=}/vs'@g/--]hh(]]*!a)j#'@*]]-(qo*w..  ",
"   %%%f%%%1==vs}'/}-*h2=<-q]!@##'@!*qh(-]**w2   ",
"   %%%%%%%<=(=:g}g=uww*<_=qq]!#''@**qq(q**w..   ",
"    %_%_%_%1=/vs:}uu*w/<&&}q]oa'@!w]2--q**w2    ",
"    _______&//}/=-((*}<1111q-w!@@o*]*(]*w2..    ",
"     _______1}}=/-]q(&111/&=(]*oo*]2q-*ww22     ",
"     }__<<<<<1}u--(=<1///==/=}oo**2*-*ww2.      ",
"      }<<&&&&&&/==&11//====}}=}-**w-q*wwm.      ",
"       1&&&&&&&&&&11/===}}(((u(}q]-qwww..       ",
"        =11111//1/=====}}((((-q--q**w22.        ",
"         =111///======(}(((-q-q]***w2..         ",
"          2//======}(}((((--qq***w2w2           ",
"            (===}==(}(((--qq]**ww2m.            ",
"              -}((((((q-qq]****ww.              ",
"                ](((q--q]]**wwm.                ",
"                    mhh*ww2.                    ",
"                                                "};
