/* XPM */
static char * rndcolor_xpm[] = {
"48 48 256 2",
"  	c None",
". 	c #1D1D1C",
"+ 	c #527A6C",
"@ 	c #96AE94",
"# 	c #364A4C",
"$ 	c #8C7A64",
"% 	c #7A4A54",
"& 	c #486264",
"* 	c #969274",
"= 	c #699284",
"- 	c #5A4C40",
"; 	c #626263",
"> 	c #7E625C",
", 	c #707A70",
"' 	c #A77A6C",
") 	c #AA9372",
"! 	c #A26474",
"~ 	c #42564C",
"{ 	c #5E6E68",
"] 	c #508686",
"^ 	c #AAC6AC",
"/ 	c #7A9593",
"( 	c #323234",
"_ 	c #96886A",
": 	c #AA9E79",
"< 	c #6D9E8C",
"[ 	c #B5AA7D",
"} 	c #4D463E",
"| 	c #4A4A4B",
"1 	c #8AA28C",
"2 	c #5D564F",
"3 	c #A68A6C",
"4 	c #657A76",
"5 	c #7C6E5C",
"6 	c #9E727C",
"7 	c #343E3C",
"8 	c #6E6254",
"9 	c #C2B67C",
"0 	c #767060",
"a 	c #9C8670",
"b 	c #6E8684",
"c 	c #BAA27C",
"d 	c #B06E5C",
"e 	c #426E6C",
"f 	c #A1927C",
"g 	c #505652",
"h 	c #749286",
"i 	c #B9AB9C",
"j 	c #6A5A4C",
"k 	c #B57A65",
"l 	c #5B8684",
"m 	c #B1A67C",
"n 	c #4B5252",
"o 	c #877662",
"p 	c #A15D6C",
"q 	c #3E3E3C",
"r 	c #A49A78",
"s 	c #616A6C",
"t 	c #847A67",
"u 	c #5E5E5C",
"v 	c #7C7665",
"w 	c #508284",
"x 	c #7A5A4C",
"y 	c #BEAE7C",
"z 	c #A27A78",
"A 	c #6C9A89",
"B 	c #5E766C",
"C 	c #526261",
"D 	c #AA9A6C",
"E 	c #8E8684",
"F 	c #B69E7C",
"G 	c #62564C",
"H 	c #686E6C",
"I 	c #C4C4C4",
"J 	c #B77660",
"K 	c #A29686",
"L 	c #535E5B",
"M 	c #567A6C",
"N 	c #454D49",
"O 	c #91826D",
"P 	c #696257",
"Q 	c #AA828C",
"R 	c #749E8C",
"S 	c #534C40",
"T 	c #5F8282",
"U 	c #A07668",
"V 	c #9E8E77",
"W 	c #4A5E5E",
"X 	c #548E8C",
"Y 	c #7BA194",
"Z 	c #6E7670",
"` 	c #464644",
" .	c #86826C",
"..	c #895644",
"+.	c #689495",
"@.	c #A97B84",
"#.	c #423A34",
"$.	c #746A5C",
"%.	c #526E64",
"&.	c #B68274",
"*.	c #5D8E8C",
"=.	c #7C7678",
"-.	c #2A2A2B",
";.	c #725244",
">.	c #89636C",
",.	c #485959",
"'.	c #568888",
").	c #BAAC7D",
"!.	c #5A5A5B",
"~.	c #A88E74",
"{.	c #6A7A6E",
"].	c #7A7274",
"^.	c #3A3F3A",
"/.	c #A6937A",
"(.	c #565654",
"_.	c #BA7B67",
":.	c #535252",
"<.	c #7E7E7C",
"[.	c #BFB27F",
"}.	c #B39A79",
"|.	c #445254",
"1.	c #486A6C",
"2.	c #5D5247",
"3.	c #6E8284",
"4.	c #61726A",
"5.	c #3A3A3C",
"6.	c #928E74",
"7.	c #AEA08F",
"8.	c #4E4E4C",
"9.	c #9AB69C",
"0.	c #D0D0D0",
"a.	c #A69E81",
"b.	c #B8B8B8",
"c.	c #7E8A74",
"d.	c #5A3E34",
"e.	c #ACACAC",
"f.	c #AFCFB4",
"g.	c #9A9A9C",
"h.	c #A6A6A4",
"i.	c #865E6C",
"j.	c #B2B2B4",
"k.	c #7E5E54",
"l.	c #9A8264",
"m.	c #467674",
"n.	c #8F8E8D",
"o.	c #AC8890",
"p.	c #6A5E4F",
"q.	c #56767C",
"r.	c #7A6A54",
"s.	c #7A9A8C",
"t.	c #768E8C",
"u.	c #526A64",
"v.	c #A0A0A0",
"w.	c #222224",
"x.	c #80525C",
"y.	c #CACACC",
"z.	c #2E2E2C",
"A.	c #8A6A74",
"B.	c #A2BEA4",
"C.	c #D6D6D4",
"D.	c #BEBEBC",
"E.	c #AA7664",
"F.	c #9E9A9C",
"G.	c #A66A7C",
"H.	c #749A8C",
"I.	c #825A64",
"J.	c #787A64",
"K.	c #949494",
"L.	c #865864",
"M.	c #363634",
"N.	c #A7707E",
"O.	c #B8725C",
"P.	c #4C7068",
"Q.	c #869E8C",
"R.	c #76564C",
"S.	c #707070",
"T.	c #C0AC90",
"U.	c #6A6A6B",
"V.	c #927A5C",
"W.	c #829684",
"X.	c #A28A6C",
"Y.	c #C2A684",
"Z.	c #5A6264",
"`.	c #868684",
" +	c #507E82",
".+	c #6D9F9E",
"++	c #B5A189",
"@+	c #597C7F",
"#+	c #72A0A0",
"$+	c #A27684",
"%+	c #AA8E94",
"&+	c #A97684",
"*+	c #665E54",
"=+	c #6A8284",
"-+	c #598284",
";+	c #6A766C",
">+	c #B5A68F",
",+	c #6B9A9C",
"'+	c #8E8284",
")+	c #AA967F",
"!+	c #968879",
"~+	c #3E4D4A",
"{+	c #824A5C",
"]+	c #AE7A6C",
"^+	c #826E64",
"/+	c #766654",
"(+	c #62898C",
"_+	c #825644",
":+	c #928A8C",
"<+	c #AE7E8C",
"[+	c #5A7068",
"}+	c #B28694",
"|+	c #767274",
"1+	c #C6AA8C",
"2+	c #4E6364",
"3+	c #BEAE9C",
"4+	c #8E666C",
"5+	c #867A7C",
"6+	c #5E6664",
"7+	c #405A5C",
"8+	c #667E7C",
"9+	c #9B8A77",
"0+	c #BCA688",
"a+	c #4E5A58",
"b+	c #424244",
"c+	c #556667",
"d+	c #655A4C",
"e+	c #69726C",
"f+	c #666664",
"g+	c #827661",
"h+	c #767674",
"i+	c #623E44",
"j+	c #826A64",
"k+	c #6A7E7C",
"l+	c #AB9A81",
"m+	c #828284",
"n+	c #7A7A7C",
"o+	c #8D7E6C",
"p+	c #7E4E5C",
"q+	c #AA7E70",
"r+	c #518A8C",
"s+	c #AECAB2",
"t+	c #ACA27C",
"u+	c #B6AE84",
"v+	c #7C7262",
"w+	c #364240",
"x+	c #716657",
"y+	c #708A80",
"z+	c #AE7260",
"A+	c #9F9674",
"B+	c #76968C",
"C+	c #B57E6C",
"D+	c #5A8A8C",
"E+	c #827E6C",
"F+	c #8A8A8C",
"G+	c #B2A274",
"                                                                                                ",
"                                      S.F+v.g.K.K.n.F+S.:.                                      ",
"                                v.b.b.j.e.e.e.h.v.v.K.K.K.n.<.;                                 ",
"                          n+D.I D.D.b.b.j.e.e.v.v.g.v.K.K.n.F+m+h+U.                            ",
"                        I y.y.I D.D.b.b.j.e.e.h.v.g.g.K.n.n.F+`.m+<.h+;                         ",
"                    h.0.0.y.I I I b.b.j.e.e.h.h.v.v.g.K.K.n.`.`.<.<.n+S.; (                     ",
"                  b.0.0.y.y.I D.D.b.b.b.e.e.h.h.v.g.g.K.n.n.`.`.<.<.n+h+S.U.8.                  ",
"                0.C.0.0.y.I I I b.b.j.e.e.e.h.v.v.g.K.K.K.F+F+m+m+n+h+|+S.U.!.`                 ",
"              0.C.C.0.y.y.I I D.D.b.b.j.e.e.v.v.v.g.K.n.n.F+F+m+m+n+n+h+S.U.U.; 8.              ",
"            I C.0.0.y.y.I I D.D.b.b.j.e.e.h.h.v.g.g.K.K.n.`.`.m+<.n+h+|+S.H f+u :.M.            ",
"          K.0.0.0.y.e.v.K.n.n.E '+'+5+=.=.].Z , Z ;+e+H e+{ Z.s s 6+6+Z.S.U.f+; u !.-.          ",
"          0.0.0.y.y.g.%+o.o.<+@.$+6 >.{.s.B+h h h h y+,.-+T T @+@+@+q.W U.U.6+u u :.b+          ",
"        D.0.y.y.y.I K.o.}+Q <+@.6 N.>.{.Y Y Y H.H.H.h ,.X *.*.'.l -+-+2+U.f+f+; u !.:.q         ",
"      m+y.y.y.I I I n.o.Q <+&+N.N.N.i.B Y Y R R H.H.+.,.D+X D+'.-+-+@+W s f+; u u (.8.q         ",
"      j.I y.I I I I F+Q <+@.&+N.! ! L.B R R R < A H.= |.r+r+X r+] l @+W U.f+; u !.!.:.8.5.      ",
"      I I I I D.D.b.m+@.@.N.N.G.! ! x.%.R < < H.A A = # r+] w ] ] w w ,.s ; Z.!.!.:.n ` M.      ",
"    v.I D.D.D.b.D.b.m+$+&+N.G.G.! p p+%.R A < < A A = # m.& &  +] w w 7+6+; ; !.!.:.:.8.` -.    ",
"    D.b.D.b.D.b.b.b.n+6 6 G.! p p p % u.< < A A A A = 7 L J.n e w w  +,.u *+!.!.(.:.8.| b+z.    ",
"    b.b.b.b.b.j.j.j.h+4+4+>.I.x.p+{+i+|.+ + + + m.+ P.7 g+_ ` 7+e e 1.~+6+; u (.(.:.8.| ` q     ",
"  <.b.b.b.j.j.j.j.e.h+^+j+> k.x R.;.d.N B 4.{ { 4.[+| /+3 r.,.2+~ ,.2+N 6+u !.(.:.8.| | q (     ",
"  `.e.j.e.j.e.e.e.e.|+q+&.&.C+J J O..., s+f.f.f.^ W. .D a ; = *.T *..+2+Z.!.!.(.:.8.| ` b+q w.  ",
"  j.e.e.e.e.e.e.e.h.S.q+&.k _._.O.O...{.f.f.f.f.9.J.}.~.r.@++.T T +.,+2+Z.!.(.:.8.8.` ` b+M..   ",
"  g.e.e.h.e.h.h.h.v.U.' C+k J J J O...{.s+f.f.f.c.f F o 4..+D+T +.#+H.C Z.(.g :.8.| ` b+b+q z.  ",
"  h.h.v.h.v.v.v.v.v.U.' C+k k J O.O...;+s+f.f.W.g+Y.3 !.+.,+l l ,+#+.+W u (.:.8.| | ` b+q M..   ",
"  K.v.v.v.v.v.v.v.F.f+z q+k k J O.d ..{.^ B.@ J.F }./+^.D+1.1.-+#+#+.+W u :.n 8.| ` b+q 5.M.-.  ",
"  v.v.v.v.v.v.g.g.g.f+U ]+J E.O.z+O...;+1 ;+f+r c V.P z.w+( N @++..++.W a+:.8.| ` ` b+q 5.( .   ",
"  E g.g.K.g.K.K.K.K.f+U ' E.E.d d d _+L E+_ X.1+) d+n ( ` } 7 q.l ,++.,.g 8.8.| ` b+q q M.( w.  ",
"  <.K.K.K.K.K.K.K.K.; d+j G 2.2.- } #.S V A+c }.l.S 2.x+p.} z.7 ` N N 7 !.8.| ` b+q q M.M.-..   ",
"  :.K.K.K.K.K.n.n.n.f+a.m ).[ ).y y _ x+7.++3+) ) f o d+S q 7 [+b / / a+(.| | b+b+q q 5.( z.    ",
"    n.n.F+F+F+F+F+E 6+: u+).y [.[.[.D 9+l+).++~.c c V.S S 2 n 2+8+/ / a+n ` b+b+q q M.( ( .     ",
"    m+F+F+F+`.`.F+`.; r [ u+).y [.)._ r >+3+0+F ++/.) $ 8 2.` c+8+/ / a+:.` ` b+5.5.M.( ( w.    ",
"    S.`.`.`.`.`.m+m+; A+t+m m [ ).t+O f i 3+>+++l+/.) _ p.5.^.|.4 t.y+a+N ` q q 5.M.M.( . .     ",
"      m+m+m+m+<.<.<.; A+: t+t+G+m A+o+K i 7.++l+)+K a o+5 S S |.4.3.b g | b+^.5.5.M.( ( -.      ",
"      n+<.n+n+<.n+n+; 6.r : : t+: E+V 7.7.7.a.K )+V O o+5 p.:.a+[+8+3.|.` q 5.5.( ( z.. .       ",
"        n+n+n+n+=.h+; 6.A+r r : f v+f a.K /./.K 9+o+o 5 d+:.n 6+4.k+4 N 5.5.5.M.( ( z.-.        ",
"        S.h+|+|+|+S.!.0 v+v 0 0 $.g+6.K 9+a :+l.o v+/+G | b+` |.a+W a+w+5.5.M.M.z.-.. .         ",
"          S.S.S.S.S.f+; u u u !.n v+:+!+!+o+$ j+p.*+2.q M.5.5.5.5.5.M.M.M.M.( ( z.z.w.          ",
"          | H H S.U.U.U.U.U.6+; 2 v O o+o+$ $.*+G S b+q b+b+b+b+b+q q M.M.( ( z.-..             ",
"            | f+U.U.6+P ; P ; !.!.=.E+o v+x+d+| } | | | ` ` ` q q 5.5.M.( z.z.-.-..             ",
"              u ; ; P Z.; u u !.!.v+v+v $.*+:.S | | | ` ` b+q q 5.M.M.M.( z.-.w..               ",
"                8.u u u u u !.!.2 P $.$.P :.8.8.| } ` b+b+q q 5.5.M.( z.z.-.-..                 ",
"                  8.u !.!.(.!.(.g :.:.8.8.| | ` ` ` b+b+q q M.M.M.( z.z.z.w..                   ",
"                    -.(.g :.:.8.n 8.| | | ` ` ` b+b+q 5.5.5.M.( ( ( z.-.-.                      ",
"                        ` :.8.8.| | | | ` ` ` q q q 5.5.M.M.M.( z.-.w..                         ",
"                            b+| | | ` ` b+q b+q 5.5.5.M.( ( z.z.-.w.                            ",
"                                ( b+b+q b+q 5.5.5.5.( M.( -.-..                                 ",
"                                        -.( z.z.-.z.-..                                         ",
"                                                                                                "};
