/* XPM */
static char * rndchan_xpm[] = {
"48 48 256 2",
"  	c None",
". 	c #363636",
"+ 	c #72828E",
"@ 	c #9EAAB2",
"# 	c #3E5666",
"$ 	c #D6D6D6",
"% 	c #5A666E",
"& 	c #B6BABA",
"* 	c #86929A",
"= 	c #BEC2C2",
"- 	c #62727A",
"; 	c #8E9AA2",
"> 	c #565656",
", 	c #2A425A",
"' 	c #EAEAEA",
") 	c #CED2D2",
"! 	c #6E7272",
"~ 	c #2E465A",
"{ 	c #828282",
"] 	c #CACECE",
"^ 	c #3E4E5A",
"/ 	c #E2E2E2",
"( 	c #929EA6",
"_ 	c #AEB6BA",
": 	c #5E666E",
"< 	c #6E7A82",
"[ 	c #7E8A92",
"} 	c #525A5E",
"| 	c #464646",
"1 	c #9E9E9E",
"2 	c #C2C6C6",
"3 	c #727E86",
"4 	c #4A4A4A",
"5 	c #4A5E6E",
"6 	c #A6AEB2",
"7 	c #666666",
"8 	c #9EA6AA",
"9 	c #666E76",
"0 	c #5A5A5A",
"a 	c #42525E",
"b 	c #8E9292",
"c 	c #DADADA",
"d 	c #8A8A8A",
"e 	c #5A5E5E",
"f 	c #767A7A",
"g 	c #46525A",
"h 	c #2E425A",
"i 	c #4E5A66",
"j 	c #C6CACA",
"k 	c #AEAEAE",
"l 	c #EEEEEE",
"m 	c #6A7A86",
"n 	c #969A9E",
"o 	c #B6BEC2",
"p 	c #969696",
"q 	c #4A5662",
"r 	c #9EA2A2",
"s 	c #AEB2B6",
"t 	c #767E82",
"u 	c #7E868A",
"v 	c #868E96",
"w 	c #3E3E3E",
"x 	c #8E969E",
"y 	c #6E767A",
"z 	c #5A6266",
"A 	c #6A6A6A",
"B 	c #82868A",
"C 	c #465A6A",
"D 	c #DADEDE",
"E 	c #E2E6E6",
"F 	c #4A525E",
"G 	c #6A727A",
"H 	c #A2A6AA",
"I 	c #A2AAAE",
"J 	c #4E4E4E",
"K 	c #76828A",
"L 	c #7A7E7E",
"M 	c #F6F6F6",
"N 	c #424242",
"O 	c #96A2AA",
"P 	c #768692",
"Q 	c #626E76",
"R 	c #B2B6B6",
"S 	c #6A6E6E",
"T 	c #626262",
"U 	c #3A3A3A",
"V 	c #4E6272",
"W 	c #BABEBE",
"X 	c #A6AAAE",
"Y 	c #465666",
"Z 	c #525E66",
"` 	c #72767A",
" .	c #324A5E",
"..	c #8E969A",
"+.	c #667682",
"@.	c #8A8E8E",
"#.	c #929292",
"$.	c #BEBEBE",
"%.	c #BABABA",
"&.	c #5A6A76",
"*.	c #6E7E8A",
"=.	c #B6B6B6",
"-.	c #828E96",
";.	c #A2A2A2",
">.	c #C6C6C6",
",.	c #6A727E",
"'.	c #9A9A9A",
").	c #AAB2BA",
"!.	c #3A5266",
"~.	c #9A9EA0",
"{.	c #868686",
"].	c #525252",
"^.	c #8E8E8E",
"/.	c #9AA2A6",
"(.	c #364E62",
"_.	c #525E6A",
":.	c #66727A",
"<.	c #4E5E6A",
"[.	c #5E6E7A",
"}.	c #CECECE",
"|.	c #7A7A7A",
"1.	c #6A7686",
"2.	c #4A5A66",
"3.	c #9AA2AA",
"4.	c #7A8288",
"5.	c #F2F2F2",
"6.	c #A6AEB6",
"7.	c #C6CACE",
"8.	c #A2A6AE",
"9.	c #566672",
"0.	c #8E929A",
"a.	c #8A929A",
"b.	c #727272",
"c.	c #B2B2B2",
"d.	c #7E7E7E",
"e.	c #AAAAAA",
"f.	c #626E7A",
"g.	c #3A4E62",
"h.	c #6A767E",
"i.	c #42566A",
"j.	c #929A9E",
"k.	c #5E6A76",
"l.	c #52626E",
"m.	c #7A868E",
"n.	c #969EA2",
"o.	c #6E7A8A",
"p.	c #929AA2",
"q.	c #9EA2AA",
"r.	c #BEBEC2",
"s.	c #BABABE",
"t.	c #828A92",
"u.	c #FAFAFA",
"v.	c #AAB2B6",
"w.	c #8A96A2",
"x.	c #626A72",
"y.	c #4E5E72",
"z.	c #929296",
"A.	c #B6B6BA",
"B.	c #A2A2A6",
"C.	c #C6C6CA",
"D.	c #9A9A9E",
"E.	c #4A5A6E",
"F.	c #AAAAAE",
"G.	c #465A6E",
"H.	c #7E868E",
"I.	c #62727E",
"J.	c #767E86",
"K.	c #46566A",
"L.	c #425666",
"M.	c #C2C2C2",
"N.	c #D2D2D2",
"O.	c #5E5E5E",
"P.	c #CACACA",
"Q.	c #DEDEDE",
"R.	c #E6E6E6",
"S.	c #A6A6A6",
"T.	c #6E6E6E",
"U.	c #767676",
"V.	c #5A6676",
"W.	c #727E8A",
"X.	c #AAAEAE",
"Y.	c #CACACE",
"Z.	c #76828E",
"`.	c #3E4E5E",
" +	c #7A8692",
".+	c #929696",
"++	c #465262",
"@+	c #5A626E",
"#+	c #B2B6BE",
"$+	c #667282",
"%+	c #CECED2",
"&+	c #9AA2AE",
"*+	c #7A828E",
"=+	c #56667A",
"-+	c #969EA6",
";+	c #C2C2C6",
">+	c #D2D2D6",
",+	c #E6E6EA",
"'+	c #364A62",
")+	c #3E5266",
"!+	c #B6BABE",
"~+	c #BABEC2",
"{+	c #8E96A2",
"]+	c #8E9296",
"^+	c #86929E",
"/+	c #C2C6CA",
"(+	c #828E9A",
"_+	c #7E8692",
":+	c #AAAEB2",
"<+	c #D6D6DA",
"[+	c #E2E2E6",
"}+	c #9E9EA2",
"|+	c #DADADE",
"1+	c #8A8A8E",
"2+	c #AEAEB2",
"3+	c #6A7A8A",
"4+	c #9EA2A6",
"5+	c #8A8E92",
"6+	c #5A6A7A",
"7+	c #6E7E8E",
"8+	c #86868A",
"9+	c #4A5A6A",
"0+	c #566676",
"a+	c #B2B2B6",
"b+	c #7E7E82",
"c+	c #6A7682",
"d+	c #627282",
"e+	c #A6A6AA",
"f+	c #6E6E72",
"g+	c #4A5E72",
"h+	c #66727E",
"i+	c #6E7A86",
"j+	c #929AA6",
"k+	c #969AA2",
"l+	c #B2B6BA",
"m+	c #5E6E7E",
"n+	c #526272",
"o+	c #425262",
"p+	c #4E5A6A",
"q+	c #3A4E66",
"r+	c #828A96",
"s+	c #CACED2",
"t+	c #666E7A",
"u+	c #767A7E",
"v+	c #4E5E6E",
"w+	c #626E7E",
"x+	c #626A76",
"y+	c #767E8A",
"z+	c #92969A",
"A+	c #6E7276",
"B+	c #929EAA",
"C+	c #7E8A96",
"D+	c #6E767E",
"E+	c #5A626A",
"F+	c #A2AAB2",
"G+	c #7A7E82",
"                                                                                                ",
"                                      =.c.k e.S.;.1 '.p #.                                      ",
"                                M.$.%.=.=.c.k e.S.;.1 '.p #.^.{.                                ",
"                          }.P.>.M.M.$.%.=.=.c.k e.S.;.1 '.#.^.d {.{                             ",
"                        }.P.P.>.M.M.M.$.%.=.=.c.k e.S.;.1 '.p ^.{.{.d.|.                        ",
"                    $ N.N.}.P.P.>.>.$.$.%.%.=.=.c.k e.S.;.1 '.#.^.{.{ |.U.T.                    ",
"                  $ $ N.N.}.}.P.>.>.M.M.$.$.%.=.=.c.k e.S.;.1 '.#.^.{.d.|.b.A                   ",
"                c $ N.N.] !+P.P.P.P.>.M.M.$.%.%.=.B.z+X.e.S.;.'.p ^.d {.d.U.T.7                 ",
"              $ $ $ N.N.j Z.a.s P.P.>.>.M.M.M.$.%.m._.i+]+e.S.;.1 p ^.{.{ |.b.A T               ",
"            $ $ $ N.N.}.M.+.m+Z.W P.P.P.>.>.M.M.8 n+5 h+H k e.;.1 z.#.^.{.d.|.T.7 O.            ",
"          $ $ N.$ N.N.%+-.6+-.2 Y.}.P.P.P.>.>.M.v G.$+k c.c.k S..+f.B ^.d { |.b.A T 0           ",
"          N.N.N.N.N.N.N. +n+r+%+}.}.}.}.P.P.P.l+y.K.K r+t.H.H.m.k.Y l.B ^.{.d.U.T.T 0           ",
"        N.}.N.}.N.N.N.Y.Z.d+%.N.}.P.>.}.}.}.C.W.C *+8 3./.n.p W.i.9+% 5+^.d { |.b.A O.>         ",
"      }.P.}.}.}.}.}.}.8 6+m ] N.}.8 =+3.}.}.W 6+Z.2 >.>.r.s.X _.l.]+D.'.p ^.{.|.b.A T >         ",
"      P.P.P.}.}.}.}.}.p.y.k.~.&+p.v+i.V 2 s.w+ +C.}.P.P.>.= x o.z+X.S.b ^.^.d { U.T.T 0 ].      ",
"      >.P.P.P.}.}.}.~++.0+B+8 8 w.G.W.8 %+( !.P ] }.P.>.>.0.x =.a+F.D.n+k.@.d { U.T.7 0 J       ",
"    M.M.>.>.>.P.P.P.s V -+%+N.N.+ *.Y.$ s 5 '+v+c+i+i+$+6+C I.c+h.h+k.L.Y Q d {.|.b.A O.].4     ",
"    $.M.M.>.P.>.P.P.j+m+!+N.N.!+-.Y.c _ 0+V L.o ) ) s+6 g.i.2+%.R 2+0.K.q 1+^.{.d.U.A T > 4     ",
"    $.$.$.M.>.P.>.$.m s 8 /.N.:+s+c |++.k+B+)+C.Q.Q.D l+g.# !+;+$.& j.L.C ]+#.d d.b.A T > 4     ",
"  =.=.%.$.$.M.M.>.C+Z.Y.3+E.m #+$ c Q./+D -+g.7.R./ Q.!+'+G.s.P.M.%.n i.q b #.{.{ U.A O.> J     ",
"  =.=.%.$.$.M.M.& i+%.}.3+i.+ N.c |+Q.[+R.O (.s+' R.[+o '+-+}.P.>.s.k+i.q ]+p d { |.T.T > J |   ",
"  k c.=.=.$.$.M.t.[ 2 P.i+o+*+c |+Q./ R.,+-+h v &+&+3.C+ .+ p.; a.a.3 )+C z.#.d { U.A T > 4 N   ",
"  k k =.=.%.s.I 0.s.P.Y.3+i.Z.c Q.Q./ R.' O , B+).).O (.+.3.K.k.k+p.m.K.3 '.B u+d.|.T.T > 4 N   ",
"  S.k k c.=.%.}+n.2 >.P.m )+ +$ c Q./ ,+l ).@ 5.u.[++.'+; $ V *.j $.c.}+;.1 ^.x+f U.A T > 4 w   ",
"  S.e.e.k c.& & %.$.2 >.m )+m.$ c Q.R.R.' l 5.u.E 7+'+r+Q.<+y.i+>.$.=.k H ~..+x.b.U.A O.].4 w   ",
"  1 ;.e.k c.c.=.%.$.M.>.c+L.Z.$ c Q./ R.' l M E 7+~ ^+[+[+$ V i+>.$.R e.;.'.{ i l.b.7 O.].| w   ",
"  1 ;.S.e.k c.=.%.%.$.;++.i.Z.N.$ c Q.R.' E |+7+)+^+/ E Q.$ V C j.c.F.;.'.z.A+o+++f+7 O.].| w   ",
"  '.1 1 ;.e.e.c.=.%.$.M.1.L.Z.N.N.c Q./ |+^+d++ |+E ' / Q.%+1.)+K.5 5 p+E.C Y `.i T.7 > J N U   ",
"  #.'.1 1 S.S.e.c.=.%.$.$+Y K }.}.$ <+6 j+(+= [+R./ / Q.c N.r._+K J.*.D+,.f.x+% T.A T ].4 w     ",
"    #.'.1 ;.S.e.e.k c.%.c+i.W.P.}.) X O !+Q./ / / Q.; + m 6 M.M.A.c.e.;.'.#.{.|.b.7 O.].| U     ",
"    ^.#.p 1 ;.S.e.k k R +.C W.>.>.] 2 ~+>+<+c c c $ 2 I v+5 f.k c.e.S.'.#.^.{ f T.T 0 J N U     ",
"    d ^.p p '.;.S.e.k k h+K.y+$.>.s.~.v 2 N.N.N.N.}.}.C.3.y.# k.B.S.1 '.^.{.|.b.A O.> 4 w .     ",
"      {.^.#.p '.1 ;.e.e.I.C W.%.a+i+m %.j P.P.P.P.C.>.M.= k+g+L.u ;.p #.{.{ U.T.T > J | U       ",
"      {.{.^.#.p '.1 ;.S.t+Y < e.m +.s r.$.M.M.& A.$.M.%.=.c.]+h+'.'.p d {.|.b.7 O.> 4 w .       ",
"        { {.d ^.p p 1 r f.9+I.,.h+e.=.%.%.$.%.m.f.y+~.D.4+X.S.~.'.#.^.{ |.U.A T > 4 N U         ",
"        |.d.{.d d #.p '.[.K.Y - 4+e.c.c.c.c.c.c.4+4.i+C V.u+G+p #.d { d.U.A T 0 ].| w .         ",
"          U.d.{ {.d ^.u+<.q q B ;.;.S.e.e.e.e.e.X e.;.5+h.i.Y l.% u+|.U.T.7 0 ].4 w .           ",
"          U.U.d.d.{ L l.Y C ,.z.D.1 1 1 ;.;.;.;.1 1 1 '.#.x+p+++`.q S T.7 O.> 4 N .             ",
"            T.U.|.|.d.A+p+Q @.#.#.p p p '.'.'.'.p p #.^.^.{.L Z `.^ g T O.].J N U .             ",
"              A T.U.U.|.b.d.{ {.d d ^.^.^.^.^.^.^.d d 8+{ { |.f+z `.> 0 ].J N U .               ",
"                7 T.b.` U.|.d.d.{ { { {.{.{.{.{.{.{ d.L U.U.f+A 7 e 0 ].4 N U .                 ",
"                  7 7 A T.b.b.U.U.|.|.|.d.d.|.|.U.U.U.b.b.A 7 T O.> J | w U U                   ",
"                    T T T 7 A T.T.b.b.T.b.b.b.b.T.T.A 7 T T 0 > J 4 | w .                       ",
"                        O.O.O.O.T T 7 A 7 A 7 7 7 T O.O.0 > ].4 | N U U                         ",
"                            0 > 0 0 0 0 0 O.0 0 0 > ].].J 4 | N U U                             ",
"                                > J J ].].].].J 4 J 4 | N w w w                                 ",
"                                        4 4 4 | N N N N                                         ",
"                                                                                                "};
