/* XPM */
static char * rnddarwin_xpm[] = {
"48 48 256 2",
"  	c None",
". 	c #555555",
"+ 	c #A4934D",
"@ 	c #9A9282",
"# 	c #C9B565",
"$ 	c #AE6B5B",
"% 	c #846D3C",
"& 	c #B3B2B0",
"* 	c #E1C28C",
"= 	c #D29672",
"- 	c #C2953B",
"; 	c #9A6E3E",
"> 	c #8B8A89",
", 	c #BA9662",
"' 	c #D2D2D2",
") 	c #E0A238",
"! 	c #ABAAA9",
"~ 	c #92823E",
"{ 	c #89532D",
"] 	c #B6766A",
"^ 	c #6A6A69",
"/ 	c #D9BD8D",
"( 	c #C2C2C2",
"_ 	c #B1A386",
": 	c #907C4A",
"< 	c #765E34",
"[ 	c #CC9230",
"} 	c #AA7A3A",
"| 	c #D2BB93",
"1 	c #D5C2A5",
"2 	c #B6A2A2",
"3 	c #B19363",
"4 	c #9D8E7C",
"5 	c #CA9B95",
"6 	c #71613F",
"7 	c #C69E5E",
"8 	c #98823A",
"9 	c #D9CABA",
"0 	c #CEB68A",
"a 	c #B57D5D",
"b 	c #CE9F3E",
"c 	c #D3B47D",
"d 	c #806E50",
"e 	c #A6966E",
"f 	c #EAB456",
"g 	c #92824A",
"h 	c #DADADA",
"i 	c #C27E2A",
"j 	c #7A7262",
"k 	c #AC9547",
"l 	c #969696",
"m 	c #B6822A",
"n 	c #CB9D83",
"o 	c #92824E",
"p 	c #C2AA62",
"q 	c #9F8B71",
"r 	c #C69A2A",
"s 	c #BBBAB9",
"t 	c #8A7A56",
"u 	c #BAA24B",
"v 	c #DDB36E",
"w 	c #6A5E4A",
"x 	c #C6A666",
"y 	c #BE928A",
"z 	c #DA9E39",
"A 	c #AE9C4C",
"B 	c #DBB67A",
"C 	c #EEAE3E",
"D 	c #AC8C68",
"E 	c #887944",
"F 	c #705A36",
"G 	c #A2776A",
"H 	c #D9AD62",
"I 	c #A2A2A1",
"J 	c #A29A8D",
"K 	c #AC8D40",
"L 	c #B19B8F",
"M 	c #CAB28E",
"N 	c #D6BBAC",
"O 	c #B28E6A",
"P 	c #6A624A",
"Q 	c #7A6E5A",
"R 	c #CCA257",
"S 	c #D2C2C2",
"T 	c #8E7A56",
"U 	c #838282",
"V 	c #B2A699",
"W 	c #766B5A",
"X 	c #BF9D52",
"Y 	c #905E38",
"Z 	c #CACACA",
"` 	c #A38E45",
" .	c #BA9D80",
"..	c #98845A",
"+.	c #CAA59B",
"@.	c #D1C9C6",
"#.	c #CB9A47",
"$.	c #D59E3C",
"%.	c #EBA735",
"&.	c #C9AD86",
"*.	c #C0A26A",
"=.	c #635A4B",
"-.	c #6A6252",
";.	c #C5A247",
">.	c #CEB2AE",
",.	c #7A7A79",
"'.	c #9E7246",
").	c #AEA491",
"!.	c #BA862C",
"~.	c #C2B6AC",
"{.	c #B6A66E",
"].	c #E2E2E2",
"^.	c #D1C2B1",
"/.	c #D6D6D6",
"(.	c #D0AE73",
"_.	c #DEA850",
":.	c #AA947A",
"<.	c #B68A76",
"[.	c #BA9444",
"}.	c #5B5A59",
"|.	c #CA9626",
"1.	c #C67A62",
"2.	c #DAAA58",
"3.	c #B69A66",
"4.	c #AA724A",
"5.	c #AE8232",
"6.	c #A1853F",
"7.	c #706658",
"8.	c #E4B260",
"9.	c #C7A776",
"0.	c #A2967A",
"a.	c #A67B43",
"b.	c #737270",
"c.	c #B69A47",
"d.	c #887A6C",
"e.	c #DBC6AA",
"f.	c #D2BBA9",
"g.	c #76664A",
"h.	c #A7A6A5",
"i.	c #BEB2AA",
"j.	c #BA8C34",
"k.	c #B69444",
"l.	c #9B9A99",
"m.	c #BE9C42",
"n.	c #A2664E",
"o.	c #777675",
"p.	c #665E4E",
"q.	c #AE9A7B",
"r.	c #BAAA72",
"s.	c #E6A436",
"t.	c #726D66",
"u.	c #C88B26",
"v.	c #D6BAA0",
"w.	c #9E9E9D",
"x.	c #AEAEAE",
"y.	c #A6968A",
"z.	c #997D3E",
"A.	c #D5A243",
"B.	c #7E766E",
"C.	c #C5887E",
"D.	c #9A7A52",
"E.	c #B9ACA8",
"F.	c #6E6E6E",
"G.	c #DEDEDE",
"H.	c #B6B6B6",
"I.	c #868685",
"J.	c #676665",
"K.	c #5E5649",
"L.	c #907242",
"M.	c #D39939",
"N.	c #D9C29A",
"O.	c #C3BCB9",
"P.	c #CAB6B6",
"Q.	c #8E8E8E",
"R.	c #BD9F8D",
"S.	c #DDBC80",
"T.	c #E8B662",
"U.	c #DCCAB5",
"V.	c #7E7E7D",
"W.	c #C7C6C6",
"X.	c #CECECE",
"Y.	c #7A643C",
"Z.	c #BE8A5E",
"`.	c #9E8A4E",
" +	c #BA7E66",
".+	c #B87C29",
"++	c #C09448",
"@+	c #CEB79C",
"#+	c #A69A50",
"$+	c #AE8456",
"%+	c #CAAEA8",
"&+	c #907B41",
"*+	c #BE6656",
"=+	c #C19D64",
"-+	c #AD8243",
";+	c #B6A68A",
">+	c #B29E72",
",+	c #A18A41",
"'+	c #BEBEBE",
")+	c #DFA340",
"!+	c #CD9838",
"~+	c #E2BE86",
"{+	c #DDC6A5",
"]+	c #C59A45",
"^+	c #E5AE51",
"/+	c #C48C36",
"(+	c #837557",
"_+	c #C69B76",
":+	c #C2ACA0",
"<+	c #B29545",
"[+	c #C09C74",
"}+	c #B68942",
"|+	c #A27E40",
"1+	c #8E8272",
"2+	c #B68246",
"3+	c #E5B86D",
"4+	c #B79E49",
"5+	c #C4A254",
"6+	c #C68E7A",
"7+	c #5F5E5D",
"8+	c #CFA38D",
"9+	c #C2B478",
"0+	c #D39E48",
"a+	c #C89486",
"b+	c #998747",
"c+	c #CC9F49",
"d+	c #BB9472",
"e+	c #636260",
"f+	c #857242",
"g+	c #A2968F",
"h+	c #98784E",
"i+	c #B7835D",
"j+	c #BFA989",
"k+	c #CEBCB0",
"l+	c #B88E3F",
"m+	c #BE8073",
"n+	c #5A5651",
"o+	c #825C2C",
"p+	c #927E72",
"q+	c #AAA29E",
"r+	c #D3A24B",
"s+	c #DAA241",
"t+	c #AA7E46",
"u+	c #E3BD7B",
"v+	c #DFC498",
"w+	c #A68256",
"x+	c #766E66",
"y+	c #C39E45",
"z+	c #CDA564",
"A+	c #C69B50",
"B+	c #929291",
"C+	c #D7C5B3",
"D+	c #8E6646",
"E+	c #D3A556",
"F+	c #D6AE6E",
"G+	c #A99D91",
"                                                                                                ",
"                                      Z ( '+s H.H.& x.x.x.                                      ",
"                              /.X.Z ( ( ( '+'+H.& & x.! h.I w.I                                 ",
"                          h /.' X.X.Z Z W.( '+'+s H.& x.I J l.w.l.l I                           ",
"                        /.' ' ' X.X.W.W.W.( '+'+s H.! y.y.y.g+I w.l B+B+                        ",
"                    ].h h h ' ' X.X.X.Z W.W.( ( '+2 L 2 q.D J I w.l.l Q.> l                     ",
"                  G.G.h /./.' /.X.X.X.X.Z W.( ( i.R.L O 3 3 w.h.I w.l.l > I.I.                  ",
"                G.h h h h h /.' ' ' X.X.Z Z Z '+R.[+, , 3.>+q+h.h.w.l.l B+Q.I.I.                ",
"              ].G.G.h h /.h /././.' ' ' ' Z Z %+=+A+=+u _ G+h.x.! h.w.l.B+Q.I.U U               ",
"            G.h G.h h /.h /././.' ' X.X.X.X.( [+7 *.p r._ ).& x.x.h.I w.l Q.> U V.V.            ",
"          ].G.h G.h h h h h /./.h /./.' ' ' k+E+# # 9+_ ).E.H.H.& x.h.I l.l Q.I.V.,.I.          ",
"        ].h h h /.h h /././././.' /.' ' ' ' ^.p 9+r._ ).& '+s & x.! h.I w.l Q.I.U ,.b.          ",
"        h h h h h h h h h h ' @.S S @./././.@.~.;+;+E.s O.i.V 2 h.x.! h.w.l.l Q.I.V.o.o.        ",
"      h /./.h h h /.h h @.%+5 6+C.m+m+C.+.C+@.O.i.:+j+y m+] $ $ $ G 4 h.I w.l Q.I.V.o.F.        ",
"      ' ' ' ' /./././.f.6+8+>.N C+C+v.8+1.*+ +Z.m+m+6++.+.j+R.R.O  +n.G w.w.l Q.> U ,.b.F.      ",
"    h ' /./././.h /.+.a+N C+C+C+C+C+C+C+C+v.n = 8+v.k+@+M :+9.R. .q.O 4.G l.l.B+> U ,.b.^       ",
"    ' X.X.' X.' ' >.a+N 9 9 9 9 U.U.U.U.e.C+e.e.C+N./ v.M &.9.*.[+3.3 w+D.g+l.B+> I.,.o.^ b.    ",
"    X.X.' ' ' ' S C.N C+9 9 U.C+U.e.{+{+U.U.{+{+N./ | c (.(.9.=+=+, l+w+q l w.l Q.I.V.o.F.^     ",
"  s W.Z Z X.' @.a+5 S C+C+C+9 N.{+{+v+* * * ~+~+~+B v c (.R R =+y+m.k 4 4 l w.l Q.I.V.o.^ J.    ",
"  H.W.W.Z X.X.P.C.@+N S e.1 v+{+v+v+* * * ~+~+u+S.B v H 2.z+R 7 b c.#+4 J I w.l.Q.I.V.o.F.e+    ",
"  H.W.Z Z Z X.5 C.f.1 1 1 / / / ~+~+~+~+~+u+3+3+T.v H 2.2.z+c+#.r X 0.w.! h.w.l B+I.V.o.F.J.F.  ",
"  & ( ( W.W.W.C._+@+| | v./ / ~+/ S.u+3+3+3+3+T.8.^+v 2.2.r+#.[ |.>+G+V ! h.w.l Q.I.V.o.F.e+e+  ",
"  x.'+( W.Z '+m+n @+| | | | c B B B 3+3+3+f T.f T.^+H _.A.M.[ [ |._ ! H.x.h.I l Q.> V.o.^ J.e+  ",
"  ! '+'+( ( ~. +*.M 0 0 c c B B v 8.8.8.f f f f ^+C _.z z M.|.u.- >+x.& ! h.l.l Q.I.,.b.^ 7+7+  ",
"  h.s '+'+( E.1.[+&.M c (.(.F+F+H H 8.^+f C C C %.s.) z M.M.M.u.u.).& H.x.h.w.l Q.I.V.o.^ e+7+  ",
"  h.H.s '+( i. +d+9.9.&.(.(.H 2.2._._.s.) %.%.s.s.s.) z z [ [ u.i _ & & ! h.w.l > U ,.b.^ 7+7+  ",
"  h.& H.s s E.i+d+*.9.z+R c+c+0+$.z s+) ) s.s.s.) ) ) M.z M.[ u..+:.& & h.I l B+> U ,.F.J.7+e+  ",
"  w.& H.H.s & m+Z.7 A+A+A+c+0+0+A.s+) )+s.) s.s.s.) z s+M.!+[ u.i $+h.x.! I l.B+> V.o.F.e+}.J.  ",
"  w.! x.& & H.<.i+d+/+++#.#.c+0+r+A.s+s+) ) ) ) z ) z $.M.!+[ j.m .+q h.I l.B+Q.I.,.b.^ 7+.     ",
"    ! x.& H.x.q.2+Z.++++#.c+c+0+0+z A.s+) s+) z ) z z z M.!+[ /+!..+'.B+I w.B+> U ,.b.^ e+.     ",
"    h.! ! x.E.G+a 2+l+++++A+c+c+r+A.A.A.s+A.)+A.s+A.$.b #.]+- j.!.5.} ; p+B+Q.I.V.o.^ e+}.}.    ",
"    ! I ! x.x.q+D 2+j.++++#.y+c+;.r+A.A.A.s+A.A.$.$.b b ]+- - [.}+5.t+; Y d U U ,.b.^ 7+}.e+    ",
"    s w.I ! ! q+D $+}+l+++++7 c+;.;.r+b b b A.b b ;.#.!+]+- k.l+K 5.|+h+Y { B.V.o.F.J.}..       ",
"      w.w.w.h.h.J $+2+}+l+c.m.X y+y+;.;.;.;.;.;.;.y+y+4+k.<+K k 5.8 z.D.Y { ,.o.F.^ 7+. .       ",
"      x.l.w.w.I l.4 -+$+l+k.c.X X X ;.;.;.y+;.y+y+m.m.m.c.k.K ` 6.8 D.L.o+< x+b.^ e+}..         ",
"        l.l w.w.J 4 w+5.$+K k.c.4+4+u u u u m.m.m.4+c.<+<+k ` ,+6.z.&+f+{ 7.F.F.J.7+. 7+        ",
"          B+l l.l.l q w+-+K + <+A c.4+4+4+4+4+c.c.A <+k ` K ,+8 8 &+L.Y.6 ^ ^ J.7+}..           ",
"          w.Q.B+l @ > p+|+-+K + k k #+A A A k A k ` k ` ` ,+8 8 &+&+% < -.J.^ e+}..             ",
"            B+Q.Q.B+Q.o D.z.6.,++ + k + #+#++ + + ` ` ,+b+b+~ &+E % F w w e+e+}.. }.            ",
"              B+> Q.> I.d.L.z.b+`.+ + + + b+6.b+b+~ ~ b+~ ~ E E Y.F w p.e+e+}.. 7+              ",
"                > I.I.I.d.j % L.E : ~ E : : (+E (+(+f+f+d % Y.F F w =.7+7+}.. }.                ",
"                  > U U V.B.j j f+d (+t j j Q W W W 7.g.6 6 6 P =.n+}.7+}.. 7+                  ",
"                    B+V.V.B.j W t.t.W t.W j j o.j b.t.P p.=.K.K.K.n+}.. .                       ",
"                        V.,.b.t.t.t.W x+b.B.,.,.o.b.t.^ P 7+K.n+n+. . 7+                        ",
"                          l V.b.b.b.b.b.o.o.b.b.b.b.F.^ e+e+}.. n+7+                            ",
"                                ,.b.^ F.^ ^ ^ ^ J.e+e+7+}.}.7+^                                 ",
"                                      I.o.F.^ ^ e+J.J.F.                                        ",
"                                                                                                "};
