/* XPM */
static char * rnddia_xpm[] = {
"48 48 171 2",
"  	c None",
". 	c #121214",
"+ 	c #7A7A7C",
"@ 	c #82B284",
"# 	c #B67E5C",
"$ 	c #92CE94",
"% 	c #A24A14",
"& 	c #AAAEAC",
"* 	c #BE9E84",
"= 	c #464644",
"- 	c #AAC6AC",
"; 	c #969694",
"> 	c #966A4C",
", 	c #D26624",
"' 	c #BACEBC",
") 	c #DE6A1C",
"! 	c #2E2E2C",
"~ 	c #BEAEA4",
"{ 	c #CE9674",
"] 	c #DA7A3C",
"^ 	c #8A8A84",
"/ 	c #626264",
"( 	c #222224",
"_ 	c #A6CEA4",
": 	c #BEBEBC",
"< 	c #A2A2A4",
"[ 	c #B2B6B4",
"} 	c #DE7634",
"| 	c #1A1A1C",
"1 	c #B2A69C",
"2 	c #CA723C",
"3 	c #CAA284",
"4 	c #D28E5C",
"5 	c #CEC2B4",
"6 	c #96C294",
"7 	c #D6D6D4",
"8 	c #E66A1C",
"9 	c #C2B6AC",
"0 	c #A27A64",
"a 	c #C28A64",
"b 	c #BAAEA4",
"c 	c #565654",
"d 	c #9A8A7C",
"e 	c #828284",
"f 	c #A2CAA4",
"g 	c #D66E2C",
"h 	c #3A3A3C",
"i 	c #D6864C",
"j 	c #6E6E6C",
"k 	c #C6C6C4",
"l 	c #AAAAAC",
"m 	c #221A14",
"n 	c #C6A694",
"o 	c #CE7A44",
"p 	c #B2AEA4",
"q 	c #AE9A8C",
"r 	c #CACACC",
"s 	c #CEAE9C",
"t 	c #DA9664",
"u 	c #E67A34",
"v 	c #B2CAB4",
"w 	c #C6BEBC",
"x 	c #B2AAA4",
"y 	c #8E7A6C",
"z 	c #8ABE8C",
"A 	c #4E4E4C",
"B 	c #9E9E9C",
"C 	c #DA661C",
"D 	c #E26E24",
"E 	c #C6AE9C",
"F 	c #DA7E3C",
"G 	c #929294",
"H 	c #A2A6A4",
"I 	c #DAA27C",
"J 	c #A6BEA4",
"K 	c #E66E1C",
"L 	c #221E1C",
"M 	c #1A1614",
"N 	c #9ACE9C",
"O 	c #9A5E34",
"P 	c #C69E84",
"Q 	c #9A9A9C",
"R 	c #E26A14",
"S 	c #363634",
"T 	c #BEB2A4",
"U 	c #8E8E8C",
"V 	c #6A6A6C",
"W 	c #2A2A2C",
"X 	c #AECEAC",
"Y 	c #C2C2C4",
"Z 	c #BABABC",
"` 	c #DA722C",
" .	c #CEA68C",
"..	c #D29264",
"+.	c #CAC6C4",
"@.	c #9EBE9C",
"#.	c #DEDEDC",
"$.	c #CAB6A4",
"%.	c #5E5E5C",
"&.	c #96928C",
"*.	c #9ED29C",
"=.	c #424244",
"-.	c #767674",
";.	c #C68254",
">.	c #B2B2B4",
",.	c #D2D2D4",
"'.	c #D69A74",
").	c #B6AA9C",
"!.	c #92BE94",
"~.	c #261E14",
"{.	c #161614",
"].	c #7E7E7C",
"^.	c #C28254",
"/.	c #96CE94",
"(.	c #9E4E14",
"_.	c #AEAEAC",
":.	c #4A4A4C",
"<.	c #BABEBC",
"[.	c #9A9694",
"}.	c #96725C",
"|.	c #D26A24",
"1.	c #C2CEC4",
"2.	c #323234",
"3.	c #D29674",
"4.	c #DE7A34",
"5.	c #8A8A8C",
"6.	c #666664",
"7.	c #2A2624",
"8.	c #AACEAC",
"9.	c #DE8A54",
"0.	c #CE8E64",
"a.	c #BEBABC",
"b.	c #B6B2B4",
"c.	c #DADADC",
"d.	c #5A5A5C",
"e.	c #727274",
"f.	c #CA7E4C",
"g.	c #525254",
"h.	c #1E1E1C",
"i.	c #868684",
"j.	c #3E3E3C",
"k.	c #CECECC",
"l.	c #B6CEB4",
"m.	c #8EC28C",
"n.	c #8E7E74",
"o.	c #DA6A24",
"p.	c #C6A28C",
"q.	c #DA7634",
"r.	c #A2CEA4",
"s.	c #C6C2BC",
"t.	c #9EC29C",
"u.	c #A6A29C",
"v.	c #E2762C",
"w.	c #DA6E24",
"x.	c #DE7E44",
"y.	c #CEC6BC",
"z.	c #C2BEBC",
"A.	c #B6B6B4",
"B.	c #B6A69C",
"C.	c #EA6A1C",
"D.	c #9E8A7C",
"E.	c #AEAAAC",
"F.	c #A6A6A4",
"G.	c #EA6E1C",
"H.	c #DA9A74",
"I.	c #CAA28C",
"J.	c #B2AEAC",
"K.	c #E26A1C",
"L.	c #BEB2AC",
"M.	c #B6AAA4",
"N.	c #261E1C",
"                                                                                                ",
"                                      e.U < B B ; G U e.c                                       ",
"                                F.Z : A.A.>._.l < < B Q G U i.6.                                ",
"                          ^ Y k Y Y Z Z A.A._._.< F.< Q Q G U i.+ j                             ",
"                        k k Y <.A.A.Z A._._.l l B < B Q ; G U i.e ].-.6.                        ",
"                    : r 1.v - - J >.: : Z A.A._.B l F.< B Q ; G 5.i.e -.V S                     ",
"                  7 ,.Y ' X v f t._.Y Y Y : Z Z < _._.l < B Q ; G ^ e + -.V g.                  ",
"                7 ,.k.Z X 8.N /.!._.k k Y : : Z < A._._.l F.B Q G U ^ e + j %.A                 ",
"              7 7 ,.r [ _ r.N $ z l k k k Y : Z < A.>._.l l F.B ; G U i.].-.V 6.g.              ",
"            c.,.,.r k l t.m.z z @ H r k k k Y Y < Z Z A.>.l F.< B ; U 5.e -.j 6.d.h             ",
"          c.7 ,.k.k Y & & F.< < < A.r r r r k Y < Z Z A.A._.l < B Q G U i.+ j V 6.d.!           ",
"          ,.,.k.k.k Z b.Z < ; Y +.r k.r r r r k B : : Z A.A._.l F.B ; G 5.].e.e.V d.:.          ",
"        ,.,.k.r r Y Z p A.; ^ Y k r k.k.r r r r < Y Y : A.A.>.l F.< Q G 5.].e.e.j / c =.        ",
"      #.k.k.k.r F.B G U ^ + j -.e.e.j V V 6.6./ c %.%.%./ j + B < < B ; U e -.-.j 6.d.:.        ",
"      k.r r r k l < Q G G ].e.U 5.^ i.i.e e ].].V + + + + j g.A %.].; Q G e -.-.j 6.d.c j.      ",
"      k r r r k k Y >._.<.i.-.Y k k r r r k r s d Y Y Z Z _.Q 6.:.:./ U G i.-.].e.V / g.=.      ",
"    r Y k k k Y Y : >.l Z i.e.Y k k k k k Y w 4 # a.: : Z A.>.B + :.=.A j i.-.].e.V %.c :.!     ",
"    Y Y Y : Y Y Z Z l F.A.+ j Z : : Z Z Z Z E q.] 9 A._.l F.F.F.B 6.= j.:./ -.].-.V / c :.2.    ",
"    Z A.Z [ >.>.l l < Q < e./ < < < B Q Q Q o F q.^.; G U 5.i.i.i.].d.j.j.:.6.j V / d.g.:.=.    ",
"  k.Z : : z.Y : Y : _.l : + 6.k r r r k k  .v.H.i q.$.Y Z _.F.< Q Q e.j.h j.c + -.j / d.A j.    ",
"  Y Z Z <.: Y Y : : >.l : + 6.k.,.k.r k w 9.v.y.D.K.'.k : >.F.< Q ; ].:.S h = j + e./ d.A =.7.  ",
"  >.>.Z a.: : : Y z._.& Y -./ k.,.,.k.k s G.I r &.t v.5 k A.-.5.G G U g.S S h c -.j 6.d.A =.(   ",
"  : >.A.Z : : : Y <.E.l Y -.g.; ; G U i.O % y i./ }.% > U i.:.g.6.-.i.g.S S S g.-.j 6.d.A = !   ",
"  l _.[ A.A.: : : : _.F.: e.h j.S ! 7.~.M {.. {.. | h.m ( W ! U c :.e A 2.S h g.-.j / c A j.(   ",
"  Z l _.A.A.Z Z Z Z l < Z j c >.A.[ J.f.w.J.>.A.].A.L., a E.g.A e.e e A 2.2.S g.e.V / c :.j.W   ",
"  < l l _.>.A.A.Z A.F.< A.j c Z : Z n C.{ a.: Y i.z.w 4 |.M.U Q G i.-.j.! 2.h c e.V / g.:.j.(   ",
"  A.F.l l _.[ b.A.A.H B >.j c >.A.>.F 8 { I.I.I.0 P I.4 C ;.l Q G e 6.h ! 2.=.j e.6.%.g.= h 7.  ",
"  _.B < l _.J.>.[ >.B Q >.V c >.J.* ` D D 8 8 G.R K.) |.|.2 q Q 5.e %.2.! S c e.j 6.d.A =.S .   ",
"  : B < < l & _._.>.< Q _.V c & _.x ).).T T ~ M.n.B.).).).u.u.Q U -.= ! ! =.6.e.V / c A j.S     ",
"    ; Q < < F.E._.l Q Q _.V c _._.>.>.A.9 A.A.A.e _.J.b.J.E.< G e %.2.! j.%.6.e.V %.g.= j.7.    ",
"    Q ; Q < < F.l l Q ; l V d._._._.>.[ Z Z A.A.e J._.>.& F.B U %.S 2.=.6.j / V 6.d.g.= h W     ",
"    U 5.U U G U U U i.i.U %.A U U U U U U U G U -.5.U i.i.].e.c 2.2.=.c / %.c d.g.A =.h ! .     ",
"      ^ U G ; ; 5.5.].].5.%.g.5.5.U U 5.U 5.5.5.j e i.e + = 2.h A j e.e.j 6.d.%.c A =.S !       ",
"      G 5.U G U / c g.A :.= j.j.j.S 2.2.! ! ! W 7.! ! j.= %.V e.].].+ -.-.V d.%.g.:.j.2.{.      ",
"        i.^ U U 5.i.].+ i./ g.U G ; ; ; ; G G G j 5.5.5.5.5.5.e ].+ + e.j / c d.A = h !         ",
"        i.e i.5.i.5.e e U / d.Q B B B < < < H < + Q Q ; U 5.i.e ].+ -.e.V %.A A = j.2..         ",
"          + ].e e e + + %.c g.d.5.Q Q Q B Q Q Q -.G G U 5.i.e ].].-.e.j / c :.:.j.S W           ",
"          < -.+ ].].+ -.V + ].6.5.G G ; G G ; G e.U 5.5.i.e ].+ -.e.V / %.g.= =.h 7.            ",
"            U e.-.-.e.e.j V j j 5.U U U G U U U j 5.i.i.e ].+ -.j V 6.d.g.= j.h 2.|             ",
"              + e.e.j j + d.c e i.i.i.5.i.5.5.i.V e e ].+ + -.j V / d.c A =.S ! {.              ",
"                -.j V V e.j j ].].e e e e e e e 6.+ + -.e.j V 6./ d.g.:.=.S ! (                 ",
"                  + / / j j e.e.-.-.+ + + + + -.%.e.e.j V 6.%.d.g.A = =.h 2.2.                  ",
"                    G %.6.6.V V j j e.j j j j j d.6.V / %.%.c g.:.= j.S 2.                      ",
"                        j %.%./ / 6.6.6.6.6.6.6.g.%.d.d.c A :.= =.h 2.g.                        ",
"                            6.c c d.d.d.d.c c c :.g.A :.:.= j.h S A                             ",
"                                + g.:.:.= :.= = =.=.j.j.S 2.=.V                                 ",
"                                        i.V / %.A %./ e                                         ",
"                                                                                                "};
