/* XPM */
static char * rndethereal_xpm[] = {
"48 48 102 2",
"  	c None",
". 	c #161616",
"+ 	c #6A6E6A",
"@ 	c #969A96",
"# 	c #B6BAB6",
"$ 	c #3A3E3A",
"% 	c #DADEDA",
"& 	c #5A5E5A",
"* 	c #868A86",
"= 	c #C2C6C2",
"- 	c #A2A6A2",
"; 	c #4A4E4A",
"> 	c #727672",
", 	c #D2D6D2",
"' 	c #262626",
") 	c #7E827E",
"! 	c #AAAEAA",
"~ 	c #EAEEEA",
"{ 	c #2E2E2E",
"] 	c #CACECA",
"^ 	c #8E928E",
"/ 	c #626662",
"( 	c #4E524E",
"_ 	c #363A36",
": 	c #464646",
"< 	c #BEC2BE",
"[ 	c #7A7E7A",
"} 	c #B2B6B2",
"| 	c #9A9E9A",
"1 	c #E2E6E2",
"2 	c #525652",
"3 	c #363636",
"4 	c #CED2CE",
"5 	c #D6DAD6",
"6 	c #828682",
"7 	c #C6CAC6",
"8 	c #AEAEAE",
"9 	c #BABEBA",
"0 	c #8A8E8A",
"a 	c #929692",
"b 	c #A6AAA6",
"c 	c #767A76",
"d 	c #6E726E",
"e 	c #5E625E",
"f 	c #323232",
"g 	c #9EA29E",
"h 	c #F2F6F2",
"i 	c #565A56",
"j 	c #3E423E",
"k 	c #666A66",
"l 	c #1A1A1A",
"m 	c #464A46",
"n 	c #AEB2AE",
"o 	c #1E1E1E",
"p 	c #D2D2D2",
"q 	c #D6D6D6",
"r 	c #E2E2E2",
"s 	c #CACACA",
"t 	c #CECECE",
"u 	c #E6EAE6",
"v 	c #C2C2C2",
"w 	c #DADADA",
"x 	c #C6C6C6",
"y 	c #B6B6B6",
"z 	c #828282",
"A 	c #AAAAAA",
"B 	c #BEBEBE",
"C 	c #A6A6A6",
"D 	c #2A2A2A",
"E 	c #EEF2EE",
"F 	c #BABABA",
"G 	c #DEE2DE",
"H 	c #B2B2B2",
"I 	c #7E7E7E",
"J 	c #5E5E5E",
"K 	c #222222",
"L 	c #565656",
"M 	c #9E9E9E",
"N 	c #929292",
"O 	c #8A8A8A",
"P 	c #9A9A9A",
"Q 	c #A2A2A2",
"R 	c #626262",
"S 	c #6A6A6A",
"T 	c #767676",
"U 	c #868686",
"V 	c #969696",
"W 	c #DEDEDE",
"X 	c #6E6E6E",
"Y 	c #4E4E4E",
"Z 	c #666666",
"` 	c #5A5A5A",
" .	c #727272",
"..	c #3E3E3E",
"+.	c #525252",
"@.	c #8E8E8E",
"#.	c #7A7A7A",
"$.	c #F6FAF6",
"%.	c #EAEAEA",
"&.	c #3A3A3A",
"*.	c #424242",
"=.	c #4A4A4A",
"                                                                                                ",
"                                      y H 8 A C Q M P V N                                       ",
"                                v B F y H 8 A C Q M P V N @.O U                                 ",
"                          t s x v B F y } H 8 A C Q M P N @.O U z I                             ",
"                        t s s x v v B F y H 8 A C M P P V N @.U z I #.T                         ",
"                    q p t t s x x < B y 8 C M P N N N ^ @.@.O O U I #.T  .X                     ",
"                  q q p 4 s s 7 x 9 A M N @.O O U U z z I z z z z z #.T  .X S                   ",
"                w q p p t t s v A P a 0 O U z z z #.#.#.#.T T T T I I T  .X S Z                 ",
"              q q q q p 4 s y P N O U U z I z z z I I T T  .X  . .z z #. .S S Z R               ",
"            w q q , p p s 8 V @.O U z U N M - C b C M P O I  .X  .U 6 I T X Z R J J             ",
"          q q q p p p t A N @.U I z V # B v < B F # H n A Q V @.0 @.* z #. .S Z J ` `           ",
"          p q , q , ] C @.O z I N y 7 x 7 v v B 9 F } H 8 A Q M V N O z I T X R J ` L           ",
"        p p p p p t H N U I #.V v s t s s 7 x v B B F } n ! b Q P V ^ * I c  .Z J ` L +.        ",
"      p 4 t t t t F N z #.T O < t 4 ] ] ] s 7 7 = < 9 F y H A C Q P N O 6 #. .S R L L +.        ",
"      s t t 4 4 s V z I T @.v p p p 4 t t ] s s x v < 9 H C I S I P V @.U [ T X Z ` +.+.Y       ",
"      s s t s t H z I  .I F p 4 p 4 p , 4 4 t ] ] 7 B C [ L =.=.( O V @.O z c X / ` +.Y =.      ",
"    x s x s s 7 V #. .X C t , p q , p q p , p t t ! I L : j *.*.=.U | N O z #.X S J +.Y =.:     ",
"    x v s s s y z  .X #.s , q , , q 5 q 5 q , < ) Y ..&.&...*.*.R | P a 0 U [ T Z e L =.: :     ",
"    v v x x x P T X S b p p q q 5 5 % w 4 9  .*.{ f f f 3 *.R ^ ! b M V @.U [ T S e L Y : *.    ",
"  B B < v x 9 O  .S X y 4 , 5 5 5 w w n ) =.D ' D D D $ J a } y 8 C Q P ^ U I T X R L =.: *.    ",
"  F F B < v n #.S R z x , , q w % 9 U *.' K o K K D J @ F v B # H b Q P N O I T S R ` =.: *...  ",
"  y F 9 B v -  .R J O s p q q = c *.D o o l o ' ( g ] 4 ] 7 < F } A Q P a * ) T X / L Y *...&.  ",
"  H y F F B | X R J a ] p 5 b =.D K o l . ' i - q W w , t 7 < F H ! Q P N O ) T S R i Y *...&.  ",
"  H H y F F V Z J ` P t , 4 X { K o . o 2 | 5 %.u 1 % 5 4 s = 9 } A - | N O I c X R L =...&.3   ",
"  8 H } y y V / ` L a ] p , d D K o m A % E h ~ u 1 % 5 4 s v 9 } ! Q | ^ O I T + R L Y *.&.3   ",
"  A ! H y F P R i 2 @.s 4 q F + k b q E h h h E u 1 W 5 4 7 = F } A Q P N * I > S J L m ..3 3   ",
"  A A 8 H } P R L Y I x t , q w 5 1 u ~ h h h E %.1 % q p 7 = F } ! Q V @.* #. .S & +.: ..f f   ",
"  C C A 8 H Q S +.Y + F 4 4 5 5 W G 1 %.~ E E ~ u G % , ] x B # 8 C M @ @.z I  .Z ` +.: &.3 f   ",
"  C - C 8 n 8 T +.=.2 ! ] ] , 5 % r 1 u u ~ u 1 1 W 5 p ] = B y 8 - M a O ) T X Z L ; *.3 f     ",
"    M - C A 8 z L Y *.U x t 4 , q % G r 1 1 1 1 W 5 q 4 7 v # } ! - P N * I T S J L =...f {     ",
"    P g C C ! P L Y *.2 } x s 4 p , 5 % % W % % 5 , ] 7 = B } ! C | a @.U #.d k J +.: ..f {     ",
"    P P M - C A X =.: *.) = 7 ] 4 p , q q 5 q , p ] s x 9 # H A g P N * I c S R i Y : 3 { D     ",
"      V P M Q C N Y : *.: ^ B = 7 ] ] 4 4 4 4 4 ] 7 v B # n A C M V O 6 #. .Z J 2 : ..f {       ",
"      N N P M Q Q Z : *.*.L | B = x 7 7 7 s 7 = v < 9 # H 8 b M @ @.O I T X Z ` Y : _ { D       ",
"      | N a P M g O +.*...&.( M 9 B < v = < v < 9 # y n A - g V ^ * z c d Z ` +.=...f D         ",
"        0 @.N V P M #.; j ..&.L M } F # # F # y y H ! b - M V ^ 0 z #. .S e i Y *.3 { '         ",
"          * O N N P V  .*...&.3 =.#.C H H H n n ! A C g | @ N O 6 [  .S R ` Y : ..f D           ",
"          @.U O @.N V N S *.$ &.3 ..L U | b b - - g | P N I S L J  .X / ` +.=...f D             ",
"            z 6 U O @.^ @. .=...3 3 3 &.*.Y ` R S Z & ( *.$ f { f +.R J +.=.*.&.{ '             ",
"              I I z * O 0 N U ` *.3 f f f f f { { { D D { { { { { m J 2 ; : &.{ D               ",
"                [ #.I z z U * 6 d ` *.f f f f { f f { { D { D f &.+.+.=.*.&.f D                 ",
"                  #.T #.[ I z z z ) > J =.&.f f { { f { f &.: Y +.+.=.*.&.f D                   ",
"                    [ X > > T #.#.#.#.[ I T X S J ` R e e R J L Y =.*._ {                       ",
"                        X S X X X  . . .d X X + S k Z J ` L Y =.: ..3 f                         ",
"                            k Z Z Z Z Z S / R R J & ` L ( Y : j &._                             ",
"                                Z e ` ` ` ` ` ` L +.Y =.: *.....                                ",
"                                        J L +.Y =.=.=.=.                                        ",
"                                                                                                "};
