/* XPM */
static char * rndee_xpm[] = {
"48 48 17 1",
" 	c None",
".	c #282726",
"+	c #8B8988",
"@	c #525353",
"#	c #BCB8B8",
"$	c #8B5943",
"%	c #A6A4A4",
"&	c #907164",
"*	c #AF8C7F",
"=	c #707070",
"-	c #66422F",
";	c #D4D2D2",
">	c #3D3D3C",
",	c #6A5A52",
"'	c #A2735D",
")	c #BCA59E",
"!	c #C8C6C7",
"                                                ",
"                   =+%%++++=@                   ",
"                %###%%%%%%+%++=,                ",
"             =#!######%%%%+%++++==              ",
"            #!!!!##%#%%%%%%+%++++==,            ",
"          %;;!!!######%%%%%+%++=++==,.          ",
"         #!;!!!!#!#####%%%%%+%+++=====@         ",
"        ;;;;;!!!!#######%%%%%%+++++===@>        ",
"       !;;!!!!!!!!!######%%%%%+%+++====,@       ",
"      !;;;;!;!!!#!#!######%%%%%%+++====@@.      ",
"     +;;;!;!!!!!!!!!#######%%%%+%+++===,,@.     ",
"     ;;;;!;!;;!!!!!!!!!#####%%%%%++++==,=@>     ",
"    #!!!;!;!!!!;!!!!!!!!#!###%%%%+%+=+==@@@>    ",
"   +!;!!!!!;!;!!!!!!!#!!!#####%%%%+++====@@>    ",
"   %!!!!!!!!!!;!;!!!!##%)%%%%%%%%%%+++===@@@.   ",
"   !!!!!!!!!!!!!##)%***''''''&+&&+++++===,@@.   ",
"  %#!#!!!!!!!!#)))**'&&&$$$$$-$,,,$==+===@@@>.  ",
"  ####!#!!!##))**'*'''''$$$-$$-$-,,$,,====@@>.  ",
"  #########)%*))))))))***$$$$$$$-$-$,,,,=,@@@>  ",
" =###!###)%*)))##!!!#))***''$'$'&$$--,,,==@@>.  ",
" +#%###%%))##!!!;!!)))''$$$$$$''&&&$$$,,,,,@>>. ",
" %%#%#%####!!!!!!##)*'$$$-----$$$&&&&=&===@@@.. ",
" %%%%####!!#!!##))**'$,->>>>----$$&&&+&==,,@>>. ",
" %%%%%%####!!#)*'&$@->.......>---$$&++&===@@@.. ",
" +%%%#%###!##**&,->............>--$&+++===@@>>. ",
" %%%%%#%###!%&,@>>.....>%++$-...>-$&&++===@@>.. ",
" ++%%%%%###)'=@->>>>=@=@;;;!*$-.---&++&===@@>>. ",
" =%+%%%%%##)&@@@@>>+>@+=;;;!)''--$$'+++==,@>>.. ",
" @++%%%%%%%++,$$&=@=@++=;;;#)**'$&&++++==@@>>.  ",
"  ++++%%%#%%'&&$$=++=++*;;!)***'$&'+++===,@>..  ",
"  +++%+%%%%%*+&&&&&&=++!!!#*'$$$$&%+++==,@@>..  ",
"  =+++++%%%%%)*+&&&$&$$$$$$----$++%+++==,@>>..  ",
"   ++++%+%%%%%#)*+'&&,$$-$$$-$'+*%+++==@@@>..   ",
"   =++++++%%%%%%#)))****'''**%%%%%++===@@@>..   ",
"    +=++++%+%%%%##%#####)#)%#%%++++===,@@>..    ",
"    ===+++++%%%%%%#%%%#%##%%%%%%+++===@@>...    ",
"     ==+=+++++%+%%%%%%%%%%%%+++++===,@@>>>.     ",
"     @====++++++%+%%%%%%%%%+%+++====@@@>..      ",
"      @=====+++++++++%++++++++=+==,@@@>>..      ",
"       @=======++++++++++++++====,@@@>...       ",
"        @@=======+=+++++=======@@@@>>>..        ",
"         @@@================,=,,@@>>...         ",
"          .@@@,=,=========,,@@@@>>>>.           ",
"            @@@@@@@@,@,@@@@@@@@>>>..            ",
"              >@@@@@@@@@@@@@>>>>..              ",
"                >>@>@@>@>>>>>...                ",
"                    ..>.>...                    ",
"                                                "};
