/* XPM */
static char * rndeclipse_xpm[] = {
"48 48 256 2",
"  	c None",
". 	c #27262A",
"+ 	c #9EA2A6",
"@ 	c #7F7E81",
"# 	c #666669",
"$ 	c #57565A",
"% 	c #4A4A4D",
"& 	c #CECECE",
"* 	c #424245",
"= 	c #BFBEC0",
"- 	c #97969A",
"; 	c #3F3E40",
"> 	c #7D81B7",
", 	c #333235",
"' 	c #7A7A7A",
") 	c #ADAEB1",
"! 	c #929293",
"~ 	c #5E599E",
"{ 	c #64669F",
"] 	c #5B5195",
"^ 	c #777679",
"/ 	c #8F8E91",
"( 	c #5A566A",
"_ 	c #F1EAF2",
": 	c #3E345E",
"< 	c #322E46",
"[ 	c #686678",
"} 	c #7A7EAE",
"| 	c #4E4B69",
"1 	c #362E36",
"2 	c #63626A",
"3 	c #9497B9",
"4 	c #737278",
"5 	c #3A3A3A",
"6 	c #45425F",
"7 	c #E6DFE7",
"8 	c #9E92B2",
"9 	c #8C8A8F",
"0 	c #322E3F",
"a 	c #BDBAC1",
"b 	c #766A87",
"c 	c #2F2E2D",
"d 	c #323249",
"e 	c #7E86B6",
"f 	c #9EA2C6",
"g 	c #827A9E",
"h 	c #5A5061",
"i 	c #665A78",
"j 	c #CBCACC",
"k 	c #9496AB",
"l 	c #5A568A",
"m 	c #504E54",
"n 	c #847E96",
"o 	c #D8D7D9",
"p 	c #8B7E9F",
"q 	c #7A7696",
"r 	c #5A5A71",
"s 	c #483E5A",
"t 	c #B7B6BB",
"u 	c #626265",
"v 	c #6E6C76",
"w 	c #A1A2B5",
"x 	c #9A9BA6",
"y 	c #4A4A55",
"z 	c #3E3542",
"A 	c #86829E",
"B 	c #747283",
"C 	c #87868B",
"D 	c #A7A6AE",
"E 	c #464353",
"F 	c #95929E",
"G 	c #9292B2",
"H 	c #928E9F",
"I 	c #A59EB8",
"J 	c #575268",
"K 	c #AAAEC6",
"L 	c #78767E",
"M 	c #3E3247",
"N 	c #32323D",
"O 	c #605E63",
"P 	c #413A50",
"Q 	c #7A7A96",
"R 	c #6F6F71",
"S 	c #6C6A89",
"T 	c #5A5C7E",
"U 	c #3F3E46",
"V 	c #66626E",
"W 	c #9687A6",
"X 	c #514F5A",
"Y 	c #2E2E33",
"Z 	c #2E2A31",
"` 	c #807F92",
" .	c #C7C2C9",
"..	c #36323C",
"+.	c #9C96A2",
"@.	c #4E4A62",
"#.	c #7E728E",
"$.	c #392D5E",
"%.	c #36363D",
"&.	c #7A769A",
"*.	c #D4CED5",
"=.	c #4A466E",
"-.	c #8286BA",
";.	c #9C8EAA",
">.	c #5E5A6E",
",.	c #9F92AD",
"'.	c #8987A3",
").	c #2A2A2E",
"!.	c #3A3A41",
"~.	c #666292",
"{.	c #AAAAAA",
"].	c #6E627E",
"^.	c #615E6E",
"/.	c #AAA2C5",
"(.	c #463E4F",
"_.	c #8B8EBF",
":.	c #837A8B",
"<.	c #5A4E6A",
"[.	c #4B425B",
"}.	c #564E5F",
"|.	c #9E9E9E",
"1.	c #827692",
"2.	c #726A7F",
"3.	c #A6A2B0",
"4.	c #9892AA",
"5.	c #423A5C",
"6.	c #5A567E",
"7.	c #969AAE",
"8.	c #8B8199",
"9.	c #7A728A",
"0.	c #5A5664",
"a.	c #6F667D",
"b.	c #4F4A55",
"c.	c #AFA6BA",
"d.	c #B5AEC0",
"e.	c #DFD9E0",
"f.	c #7C7A84",
"g.	c #47464A",
"h.	c #838287",
"i.	c #9C98B9",
"j.	c #423A49",
"k.	c #9086A1",
"l.	c #322E32",
"m.	c #4D465D",
"n.	c #AFA9C0",
"o.	c #7276B5",
"p.	c #666282",
"q.	c #8E8AB2",
"r.	c #6A666F",
"s.	c #8682BF",
"t.	c #5E566F",
"u.	c #BCB6C8",
"v.	c #A09A9E",
"w.	c #8E8EA9",
"x.	c #5E5E96",
"y.	c #A296B1",
"z.	c #3A3649",
"A.	c #797687",
"B.	c #4A4255",
"C.	c #C2C2C6",
"D.	c #B2B2B5",
"E.	c #534A67",
"F.	c #372E3A",
"G.	c #565270",
"H.	c #3A323F",
"I.	c #C8C4D6",
"J.	c #72728D",
"K.	c #AAAAB2",
"L.	c #3D3A4A",
"M.	c #413E4E",
"N.	c #D2D2D2",
"O.	c #767AB2",
"P.	c #B7B2C1",
"Q.	c #A09DB1",
"R.	c #6C6A80",
"S.	c #847E8E",
"T.	c #A3A2A5",
"U.	c #776E86",
"V.	c #767A8E",
"W.	c #44424E",
"X.	c #372A48",
"Y.	c #605A76",
"Z.	c #5E5A5E",
"`.	c #C9C6C9",
" +	c #565260",
".+	c #6C6A6F",
"++	c #363242",
"@+	c #6A6278",
"#+	c #999A9C",
"$+	c #615E76",
"%+	c #A09DA6",
"&+	c #ECE6EC",
"*+	c #838396",
"=+	c #8C8698",
"-+	c #9C9EBE",
";+	c #BAB6C2",
">+	c #686680",
",+	c #888A9A",
"'+	c #4F4A5C",
")+	c #D6D2E2",
"!+	c #B3AEB7",
"~+	c #726E8A",
"{+	c #7E768A",
"]+	c #322E38",
"^+	c #5D5D84",
"/+	c #40364C",
"(+	c #837A97",
"_+	c #ACA2B8",
":+	c #2E2E3A",
"<+	c #4E4666",
"[+	c #675E72",
"}+	c #A7A6A9",
"|+	c #6361A7",
"1+	c #3A2E41",
"2+	c #534A62",
"3+	c #9C96AB",
"4+	c #5E526E",
"5+	c #D6D2D8",
"6+	c #867F92",
"7+	c #C2BECA",
"8+	c #5A5A5C",
"9+	c #6E6E87",
"0+	c #4C4655",
"a+	c #525255",
"b+	c #463E6A",
"c+	c #A9A6B6",
"d+	c #888ABC",
"e+	c #2E2A37",
"f+	c #928AAE",
"g+	c #8F92C0",
"h+	c #46424A",
"i+	c #3E3A44",
"j+	c #807E88",
"k+	c #766E92",
"l+	c #534E6A",
"m+	c #969AC4",
"n+	c #646278",
"o+	c #514E60",
"p+	c #78768F",
"q+	c #595671",
"r+	c #363636",
"s+	c #4A4266",
"t+	c #373247",
"u+	c #605D7C",
"v+	c #726E7B",
"w+	c #AEAAB8",
"x+	c #908AA1",
"y+	c #7D7A8C",
"z+	c #4A4A5E",
"A+	c #8F82A2",
"B+	c #625A6E",
"C+	c #3A3640",
"D+	c #8E8AC2",
"E+	c #5D5A64",
"F+	c #3B2E48",
"G+	c #6769A7",
"                                                                                                ",
"                                      t D.) {.}+T.|.#+- !                                       ",
"                                C.= a D.) {.T.|.#+#+- ! / / 9 C                                 ",
"                          & j `.a t ) {.}+%+|.#+- / / 9 9 C h.h.h.@                             ",
"                        & j C.= t ) {.3.T.#+- F H 9 9 C h.h.@ ' ' ' ^ ^                         ",
"                    o N.j C.a D.) {.3.%++.4.H x+9 C h.j+f.f.f.L ^ 4 4 4 R R                     ",
"                  o N.`.C.a t ) c+w %++.F H x+=+A 6+:.y+A.9.L B 4 v+.+R .+.+.+                  ",
"                o N.j C.a D.w+c+_+v.3+4.H k.8.8.p 1.{+#.#.B U.v+2..+.+r..+# u #                 ",
"              o N.j C.a t d.c+3.I ,.;.f+W k.6+p :.1.#.U.U.U.2.a.a.a.r.V V V O u O               ",
"            o o `.C.= t d.w+c.I y.,.;.W W A+p (+1.U.U.b b a.a.r.].@+[+[+O O O Z.O 8+            ",
"          o & j C.a ;+t P.w+c.I v.8 ,.;.W p 1.9.J.S R.a.a.a.].@+[+[+[+B+^.O O 8+8+$ $           ",
"          N.j C.a ;+P.P.P.u.d.c._+/.y.A+(+p+J.J.R.R.[ [ # ^.^.B+B+B+B+B+t.t.0. + +$ $           ",
"        & j C.a P.P.K u. .*.`.7+d.y.k.Q p+B 9+R.R.[ n+u+n+^.^.r E+0.t.B+t.h 0. + +a+a+a+        ",
"      & j C.= P.D.w+n.P.j & 5+ ./.w.*+p+J.S >+>+n+n+^.T r >.0.r 0.0.0. +h  +}. +}.m m m         ",
"      j C.a t K w+c.c.d. .& *.P.3+'.j+p+J.R.>+n+u+Y.r t.q+( J q+ + + + +}.}.2+}.}.b.b.% %       ",
"      C.= t ) K.c+I _+_+7+ .d.Q.! ` V.9+R.R.n+u+r r ( G.G.J J  +J  +X  +m 2+2+0+0+b.% % %       ",
"    C.= t D.K.3.Q.y.,._+u.c.3+,+*+p+J.9+[ >+n+r q+G.G.l+l+o+| o+o+o+o+b.b.b.b.b.b.0+0+g.g.g.    ",
"    = t K K.3.3.I ,.y.P./.G '.` V.J.R.R.p+*+y+q+l+l+l+| @.<+@.@.@.'+0+'+u [+}.m.B.0+0+g.h+*     ",
"    t D.w+3.v.3+3+;._+K 8 A p+J.9+[ ,+`.5+e.o e.3+G.=.<+=.[.m.m.m. +h.c.|.+./ @ [+g.B.g.* *     ",
"  t D.{.3.Q.3+;.W W n.i.A+9+9+R.[ G o & c+4.Q.*.e.d.s+6 6 m.b+[.'+}+!+v.R .+^ 9 @ B.h+h+U ;     ",
"  D.!+) K.D w Q.-+i.f m+g+_.e e _.5+*._.O.o.o.O.)+7 -.G+G+G+{ { c+a / ^+u+q+q+E+R o+z+y * * g.  ",
"  ) {.+ x k F x+p ,.K W &.9+S >+w 5+,+6.l+| 6 b+x+7 4.5.P b+M. +7+!+@.B.h+h+M.M.E E M.U i+!.*   ",
"  {.}+D w -+-+7.3 m+m+g+_.e e > I.)+g+g+_._._.-./._ 7+|+|+{ |+q. .+.^+T T q+G.G.o+o+m.g.W.; *   ",
"  }+%+#+- ! x+k.8.4.m+n 9+S >+n+5+o e.e.7 &+&+_ _ _ u.: L.: M.j+7+A.6 M.M.M.; i+M.P M.i+C+!.*   ",
"  }+|.%+x 7.k k G 3 g+d+-.> > } *.)+d+D+-.D+s.s.s.s.o.~ x.~ x.w.7+A l 6.G.G.o+z+| 0+E W.!.!.;   ",
"  |.#+F / ,+C g q x+3 g S { ^+T 7+5+~.=.b+: : $.$.$.: $.: : /+9. .=+M.U L.L.L.!.M.L.!.z.%...;   ",
"  #+#+k F F G w.q.q.g+d+> > O.O.c.*.m+G+|+~ ~ ] ] ] ] ] ] l l ~.= !+6.l+| | z+=.E 6 W.U !.%.;   ",
"  - ! 9 C j+A.9.a.{++ 1.>+E+t.l+~+j 5+b : : X.X.X.U.(+X.< F+H.M 4.t y+...., l.U u %.++..N , 5   ",
"  ! / ,+h.j+f.9.a.b k '.].6.0.}.E.:.*.5+P.(+(+,.*.e.:.1+H.F+++H.b.{.{.F [+Z.r.@ 4 t+...., l.    ",
"    / C j+f.9.9.J.U.H G b Y.G.l+@.[.U.d.5+*.o 5+*.F 2+X.X.H.....H.h+:.v.- / h.R X ..N , Y Y     ",
"    C C @ f.f.y+f.b b G 9.i J l+E.m.B.j.[.[+B+}.X.X.1+1+1+1+H...1 , l.c g.g.i+++++0 ]+]+c Z     ",
"    9 h.@ h.f.B 2.@+i 9.w.~.J o+2+[.B.s /+M M F+H.M 1+M F...1 ]+l.l.c l.c ..%.N N ..:+Z ).).    ",
"      h.@ ' 4 R.R.[+i t.p {+t.E.2+m.[.(.j./+/+M 1+H.1+1+F...1 ]+l., c Z c 0 < 0 0 ]+Y Z ).      ",
"      @ ^ 4 v+.+@+n+[+t.Y.*+k+4+'+0+B.B.(./+/+M z M H...F.]+]+l.c Z Z c 0 d 0 0 Y ]+Z ).).      ",
"        ^ 4 v+.+@+^.B+t.Y.R.Q S <.0+B.(.(.j.j.z M H.H.H.1 1 l.l.c c , , 0 ]+e+e+e+Y )..         ",
"        ^ 4 R .+# ^.^.^.@+4+<.2.9+<.[.B.(.j.z j.C+H.H...1 l.l.Z c Y < < e+:+0 ]+Y ).)..         ",
"          R .+# V ^.[+.+E+J <+E.t.a.Y.m.(.(.j.z z H., , , l., , N d 0 0 e+e+e+).. . .           ",
"          R .+# u V # >.J }.2+<+[.E.B+4+2+[.j.j.C+C+C+H., ..0 < 0 0 e+e+e+e+. . )..             ",
"            # # u # E+0. + +b.2+m.'+m.B.s B.s P z.z.%.t+t+t+d 0 < 0 :+0 e+e+e+. . .             ",
"              u u O 8+$  +X X y '+0+B.(.M.P L.L./+t+t+t+d d 0 :+e+:+e+e+).).. . .               ",
"                O 8+$ $ X m '+y y 0+W.(.L.P z.L.z.z.t+++..0 0 :+e+e+).).. . . .                 ",
"                  8+$ a+a+m m y z+g.M.M.M.U L.z.%.++N ..0 :+:+:+:+:+e+).).. .                   ",
"                    $ a+a+% % 0+g.g.* U L.!.!.z.%.%.N N N N ]+).).).. . .                       ",
"                        m m % % g.W.U U U !.C+%.%...N , ]+Y Y Y ).).. .                         ",
"                            % % * * * ; !.!.!.%.%..., , Y Y ).).. ).                            ",
"                                g.* ; ; ; 5 %.r+, , Y c c ).).).                                ",
"                                        5 5 r+r+r+, Y Y                                         ",
"                                                                                                "};
