/* XPM */
static char * rndevol_xpm[] = {
"48 48 256 2",
"  	c None",
". 	c #0A0A0A",
"+ 	c #C2AA4A",
"@ 	c #9E843A",
"# 	c #625A36",
"$ 	c #3C3A35",
"% 	c #DADADA",
"& 	c #BBB185",
"* 	c #8A5E2C",
"= 	c #77522D",
"- 	c #C6BF85",
"; 	c #92825A",
"> 	c #837752",
", 	c #62492E",
"' 	c #B3A161",
") 	c #C4BE9E",
"! 	c #464646",
"~ 	c #605C4A",
"{ 	c #272627",
"] 	c #827142",
"^ 	c #D4CFA5",
"/ 	c #A9975E",
"( 	c #B6A66A",
"_ 	c #7F613B",
": 	c #BCA044",
"< 	c #A87A26",
"[ 	c #3A362A",
"} 	c #5A5642",
"| 	c #928662",
"1 	c #A99A67",
"2 	c #D2CAA2",
"3 	c #B6AE8E",
"4 	c #B2A26E",
"5 	c #EAEAEA",
"6 	c #6F6343",
"7 	c #D5D1AF",
"8 	c #BAB692",
"9 	c #CDBE77",
"0 	c #9A8A64",
"a 	c #503D2A",
"b 	c #5D4625",
"c 	c #323232",
"d 	c #A49870",
"e 	c #AE9242",
"f 	c #4A4E50",
"g 	c #AEA272",
"h 	c #7B7155",
"i 	c #92723A",
"j 	c #BEBEBE",
"k 	c #A79E82",
"l 	c #D5D3B8",
"m 	c #86765A",
"n 	c #735B3B",
"o 	c #CFC7A6",
"p 	c #B6AA71",
"q 	c #4A3B25",
"r 	c #BEB99B",
"s 	c #121212",
"t 	c #928E76",
"u 	c #E6E6E6",
"v 	c #68624E",
"w 	c #A0987C",
"x 	c #414242",
"y 	c #2A2E2D",
"z 	c #CAB868",
"A 	c #7A5A26",
"B 	c #D6CAAA",
"C 	c #9E926E",
"D 	c #9F9E9F",
"E 	c #CECECE",
"F 	c #6E5D41",
"G 	c #947844",
"H 	c #66665A",
"I 	c #746E5A",
"J 	c #B9B5A2",
"K 	c #929292",
"L 	c #D6CE90",
"M 	c #8A6A3A",
"N 	c #8A826A",
"O 	c #827E62",
"P 	c #DEDEDE",
"Q 	c #9E9882",
"R 	c #664E22",
"S 	c #DAD6BE",
"T 	c #A48B48",
"U 	c #161616",
"V 	c #BABABA",
"W 	c #565250",
"X 	c #866832",
"Y 	c #ACA68E",
"Z 	c #878476",
"` 	c #7E5A31",
" .	c #8E764E",
"..	c #D2C686",
"+.	c #565A59",
"@.	c #B6AE92",
"#.	c #756F61",
"$.	c #D6D6C2",
"%.	c #9A968A",
"&.	c #4E4A36",
"*.	c #6D5632",
"=.	c #C5C6C5",
"-.	c #8A6B42",
";.	c #1B1A1B",
">.	c #A6A296",
",.	c #D2D2D2",
"'.	c #423629",
").	c #3E3E3E",
"!.	c #76664E",
"~.	c #AFAD9E",
"{.	c #483D33",
"].	c #82765E",
"^.	c #2A2A2A",
"/.	c #5B4F3F",
"(.	c #A07228",
"_.	c #8E8A7A",
":.	c #666252",
"<.	c #828285",
"[.	c #BEAA6A",
"}.	c #B2B2B2",
"|.	c #968A5E",
"1.	c #6C4A2C",
"2.	c #CFC69B",
"3.	c #4A4A4A",
"4.	c #3A2E22",
"5.	c #6E6E6F",
"6.	c #7F5E29",
"7.	c #A69A86",
"8.	c #797A7B",
"9.	c #1E1E1E",
"0.	c #6A665A",
"a.	c #9A9276",
"b.	c #A27A2A",
"c.	c #968252",
"d.	c #928E7E",
"e.	c #C5B361",
"f.	c #F6F6F6",
"g.	c #5A5A59",
"h.	c #525252",
"i.	c #D6D6C6",
"j.	c #C6B674",
"k.	c #AB8E4E",
"l.	c #AAA69F",
"m.	c #74726A",
"n.	c #826940",
"o.	c #8B622D",
"p.	c #9A9A9B",
"q.	c #CECAB2",
"r.	c #8E8E8F",
"s.	c #625235",
"t.	c #827E72",
"u.	c #A9AAAA",
"v.	c #C8BA82",
"w.	c #76562E",
"x.	c #5A564A",
"y.	c #A6A696",
"z.	c #B89844",
"A.	c #CCC293",
"B.	c #B6B6B6",
"C.	c #C0AC52",
"D.	c #BEC2BF",
"E.	c #714E2E",
"F.	c #D6D6CA",
"G.	c #E2E2E2",
"H.	c #5E5E5E",
"I.	c #9A793D",
"J.	c #3A3226",
"K.	c #936628",
"L.	c #757677",
"M.	c #956A2C",
"N.	c #5E6262",
"O.	c #A4905C",
"P.	c #AEAEAE",
"Q.	c #CACACA",
"R.	c #BEB27E",
"S.	c #969287",
"T.	c #4E4A4E",
"U.	c #464241",
"V.	c #CCBE86",
"W.	c #564732",
"X.	c #B09A52",
"Y.	c #B7A153",
"Z.	c #3E362C",
"`.	c #82868A",
" +	c #D6D6D5",
".+	c #865F2E",
"++	c #C7B97C",
"@+	c #868A89",
"#+	c #BEAF6B",
"$+	c #A18C53",
"%+	c #EFEEEF",
"&+	c #222222",
"*+	c #7B562D",
"=+	c #6A6A6A",
"-+	c #C0AC60",
";+	c #AC944E",
">+	c #565655",
",+	c #322E2D",
"'+	c #322A2A",
")+	c #D2C37A",
"!+	c #766236",
"~+	c #4A4236",
"{+	c #BEA64E",
"]+	c #C1B176",
"^+	c #36322F",
"/+	c #C2C2C2",
"(+	c #5C4830",
"_+	c #959697",
":+	c #967E4A",
"<+	c #8D662D",
"[+	c #CEC28B",
"}+	c #9D7E45",
"|+	c #B9A65E",
"1+	c #BAAF79",
"2+	c #A6A6A5",
"3+	c #8A7E62",
"4+	c #CEC695",
"5+	c #9E6E2A",
"6+	c #544230",
"7+	c #815F33",
"8+	c #9F8444",
"9+	c #363636",
"0+	c #8A8A8B",
"a+	c #A2A2A2",
"b+	c #727273",
"c+	c #947E50",
"d+	c #B09A5E",
"e+	c #4E4E4C",
"f+	c #685C44",
"g+	c #666256",
"h+	c #C4B16B",
"i+	c #72522E",
"j+	c #868686",
"k+	c #3A3634",
"l+	c #835A2C",
"m+	c #9F8451",
"n+	c #656666",
"o+	c #7E7E7F",
"p+	c #56565A",
"q+	c #795B35",
"r+	c #969296",
"s+	c #664E32",
"t+	c #928E92",
"u+	c #3A3A3B",
"v+	c #8E663A",
"w+	c #626262",
"x+	c #D3C893",
"y+	c #D2CA9B",
"z+	c #966E27",
"A+	c #907243",
"B+	c #4F4940",
"C+	c #2E2E2E",
"D+	c #BEBABA",
"E+	c #2E2A27",
"F+	c #CBB872",
"G+	c #BAB6BA",
"                                                                                                ",
"                                      B.}.P.u.2+a+D p._+K                                       ",
"                                /+j B.}.u.a+D p._+K K r.0+0+0+j+                                ",
"                          E Q./+V P.2+p._+K r.0+j+<.o+o+o+o+o+o+o+o+                            ",
"                        E Q.j P.u.D _+S.t+S.S.a.S._.Z L.b+b+m.b+b+L.L.L.                        ",
"                     +,.=.V P.a+p.p.~.3 8 & R.1+p ( g 1 C N =+n+=+0.=+5.b+5.                    ",
"                   +,.=.}.u.a+>.8 4+4+A.A.- j.j.R.#+1+p ' g 1 ; m.w+w+w+n+=+=+                  ",
"                % ,./+B.2+l.J 2 y+2.4+A.V.v.v.j.j.h+-+[.[.' ' 1 O.].g+g.H.H.w+n+                ",
"               + +/+}.2+~.o 7 l 7 y+y+4+2.A.V.v.j.j.#+C.C.Y.Y.d+/ O.; g+g.g.g.H.w+              ",
"             +,./+}.2+J 7 F.F.V 8.Q A.y+x+[+[+9 9 ( 1 h+-++ Y.Y.;+k.$+m+v W >+>+g.H.            ",
"           +,.=.}.l.J ^ i. +,.Z b+w+Z 3 y+x+x+..++I 3.> Y.C.{+Y.X.;+O.$+c+f+h.h.h.>+            ",
"          ,.Q.B.u.u.^ l  + +Y =+a+p.h.I k 7 L L 1 ! +.! } $++ {+: ;+k.T c. .x.3.e+h.>+          ",
"        E E B.l.2+2 $.F. +J b+r.% <.H ) H v 1+- x 3.@+@+h.).!+e : z.e k.8+:+A+3.3.3.e+h.        ",
"      E E j u.a+) 7 $.% q.Z 5.,.% 2+e+H ! f 3.~ 9+).e+`._+5.x ! ] : z.k.T c.G 6 ! ! 3.e+        ",
"      =.=.B.a+~.y+7 l S g N.u.P %  +r.b+r.j 8.9+x 0+f u+n+_+`.f 9+} @ e 8+8+G ] /.x ! 3.3.      ",
"      =.G+l.D r 2 7 l ) N.t+ +% P P G.G.G.G.G.B.3.C+<.8.u+u+8._+L.).$ !+@ 8+I.A+F ! x ! 3.      ",
"    /+D.P.a+Y 4+2 B o Z 5./+ +Q.% P G.G.u u G.u a+{ 5.K ! c y p+`.<.p+9+(+n.G A+n.B+$ x ! !     ",
"    j V 2+%.@.2.2.o 7.H.u.% % V V F.G.u u D.G.u _+c j ! 9.w+K 9+u+b+@+b+u+$ s.i v+/.).).).!     ",
"    G+}.D K A.A.[+3 =+o+% E B.E D.B./+P G.r.r.=.j 9+&+c h.{ h.u.w+{ x L.`.H.u+).*.F k+u+).x     ",
"  B.B.2+p.K - [+[+a.g.@+,. +`.o+V E D.j  +% P.@+P.P._+P.% ! x /+/+^.y c H.o+5.).k+*.u+u+u+).    ",
"  }.}.D K Q v.V.9 R.O h.L.a+h.9+h.p.E Q.G+Q.G.,.0+p. +5 _+&+o+% n+).p.=+y x b+u+{.n {.9+u+u+).  ",
"  P.P.p.0+k j.++9 9 )+g g.u+9+a+e+^.H.P. +D.D.G.%+V Q.B.&+^+{ x ^.K =.D._+! C+9+*.7+~+9+9+u+u+  ",
"  u.u._+@+k R.j.F+v.)+)+|.u+9+j Q.0+{ 9+o+ +,.D.% %+f.e+).V b+;.9.0+/+j V `.c W.o.` ~+c 9+u+u+  ",
"  2+u.K j+Q j.j.z z 9 9 e+=+3.L.G.G.2+).;.e+V u ,.%+p.9.p.u L.^.).{ W u.P.H.C+o._ 7+6+c c 9+u+  ",
"  a+a+r.<.a.1+#+e.z e.6 >+V b+h. +u 5 %+0+{ ;.b+%+Q.^.).% =.;.<.,.p.).^.p+^.*.<+7+*+{.,+c c 9+  ",
"  D D 0+<.t p #+e.C.$+f _+ +V k+D G.u 5 5 V +.s H.x &+U H.u+U./+ +E }.w+&+a o.X l+w.[ c C+c 9+  ",
"  p.D 0+o+Z ( [.h+Y.v w+Q.,. +c o+P u 5 5 %+P D . . +._+,+U p+,.E Q.=.H.C+6.K.7+` i+,+C+c c c   ",
"  %._+@+o+m.4 ( [.h p+P.=.j P.p+3./+G.G.u 5 5 %+ +=+&+c &+u+E+u+_+j @+c , M.o.` = 1.C+C+C+C+c   ",
"  K r+j+8.m.d ' / h.b+r.o+H.9+9+^.u.P G.G.u 5 5 5 G.D x s =+a+h.^.n+! J.z+<+o.A = a ^.^.C+c     ",
"    r.r.o+b+O 1 I h.h.3.p+o+a+p.T.L.% P P G.G.G.G.G.G.}.3.;.,.V `.9.&+w.K.<+` = E.'.^.C+C+C+    ",
"    0+j+o+b+m.|.I h.n+a+D.=.Q.Q.8.C+j+0+<.>++.p+g.! c ^.&+@+Q.=.2+&+b M.o.l+*+E.b ,+^.^.^.C+    ",
"    j+j+8.m.=+3+O.h h.H.K j /+Q.p.>+3.3.^.C+w+w+n+=+b+9.c u.=.B.f 4.* o..+*+= 1.'.^.^.E+C+^.    ",
"      j+<.b+n+=+0 ;+; x.3.b+}.=.D.B.}.}.>+3.=.=.=.E 8.;.&+).p.o+{ i+K.* l+= E., '+^.y ^.C+      ",
"      o+o+L.=+w+#.$+k.e ] ! u+r.}./+=.=._+k+D Q.Q._+c R z+{.&+&+q K.o.l+= E.1.4.{ ^.{ ^.^.      ",
"        8.L.5.g+g.].m+m+T G # u+H._+j /+V C+o+/+B.p+,+b.< (.b Z.w.* A *+= 1.q ^.{ ^.^.^.        ",
"        L.L.5.n+H.H.m m+m+8+}+!+).x 8.V V x n+V <.^.*+< b.5+<+A .+l+*+E.1.a E+{ ^.^.^.{         ",
"          b+5.=+H.g.x.] :+}+}+}+I.s.9+3.@+8.).r.^.W.M.M.M.<+* l+*+= E.E.a '+{ ^.{ { ^.          ",
"          5.5.=+w+g.W W !. .G I.I.I.F ~+^+p+y x J.6.M.<+o.l+l+*+= E.1.a ^.{ ^.^.^.^.            ",
"            =+=+n+H.p+e+e+f+] A+A+i i X s+y y y i+o.o.6.6.A = E.E.1.'.E+^.^.{ { { {             ",
"              n+n+w+g.p+T.T.T.F _ n.v+v+-.7+{.{.7+7+` *+= E.E., a { { { { { ^.^.{               ",
"                N.H.H.p+e+3.! U.T.s.F q+_ 7+q+*+q+*+= = E.b q 4.E+^.^.^.^.{ { ^.                ",
"                  H.g.g.p+e+! ! U.).).! 6+(+(+s+, W.6+'.[ ,+^.^.^.^.^.^.^.^.^.                  ",
"                      >+W W e+! U.x ).u+u+u+9+9+c C+C+C+C+E+y y ^.^.^.^.{                       ",
"                        h.h.e+3.3.U.).).).9+9+^+c c c C+C+C+E+E+^.^.^.{                         ",
"                            e+3.3.! ! ).).u+u+9+9+9+c c c c c C+y ^.                            ",
"                                ! ! x x x ).).u+u+9+9+c c C+^.y                                 ",
"                                        ).u+u+9+9+c c C+                                        ",
"                                                                                                "};
