/* XPM */
static char * flow_xpm[] = {
"48 48 129 2",
"  	c None",
". 	c #1A1A1C",
"+ 	c #868A6C",
"@ 	c #BEBEBC",
"# 	c #92A28C",
"$ 	c #525254",
"% 	c #AEA294",
"& 	c #6E6E6C",
"* 	c #869674",
"= 	c #B2B29C",
"- 	c #968684",
"; 	c #A2A29C",
"> 	c #5E625C",
", 	c #8A7E7C",
"' 	c #AAAA94",
") 	c #7E7A64",
"! 	c #363634",
"~ 	c #DADADC",
"{ 	c #9E968C",
"] 	c #AEAE9C",
"^ 	c #968E7C",
"/ 	c #A2A2A4",
"( 	c #6E665C",
"_ 	c #A6968C",
": 	c #C2BAB4",
"< 	c #8E8E8C",
"[ 	c #7A7264",
"} 	c #BABABC",
"| 	c #AEAAAC",
"1 	c #CECECC",
"2 	c #6A6A64",
"3 	c #9E9E9C",
"4 	c #9E8E88",
"5 	c #2A2A2C",
"6 	c #5A5A5C",
"7 	c #B2B2B4",
"8 	c #464644",
"9 	c #8E8684",
"0 	c #767674",
"a 	c #AAA694",
"b 	c #66625C",
"c 	c #828284",
"d 	c #A29A98",
"e 	c #AAA2A4",
"f 	c #B6AEAC",
"g 	c #C6C6C4",
"h 	c #767274",
"i 	c #A6A69B",
"j 	c #AAAAAC",
"k 	c #7A7A7C",
"l 	c #E6E6E4",
"m 	c #AEAEAC",
"n 	c #BAB6AC",
"o 	c #222224",
"p 	c #9AAA94",
"q 	c #727274",
"r 	c #9E8A7C",
"s 	c #927E74",
"t 	c #3E3E3C",
"u 	c #9A9A9C",
"v 	c #9A8E8C",
"w 	c #A6A6A4",
"x 	c #6E6A5C",
"y 	c #9E9294",
"z 	c #625E5C",
"A 	c #B6B6B4",
"B 	c #969694",
"C 	c #D6D6D4",
"D 	c #323234",
"E 	c #4E4E4C",
"F 	c #EEEEEC",
"G 	c #A69E94",
"H 	c #868684",
"I 	c #82766C",
"J 	c #76625C",
"K 	c #5A5654",
"L 	c #827A7C",
"M 	c #AEA6A4",
"N 	c #7E7674",
"O 	c #C2C2C4",
"P 	c #9A8A7C",
"Q 	c #868284",
"R 	c #3A3A3C",
"S 	c #929294",
"T 	c #D2D2D4",
"U 	c #5E5E5C",
"V 	c #4A4A4C",
"W 	c #8E8A8C",
"X 	c #666664",
"Y 	c #CACACC",
"Z 	c #A6AEA4",
"` 	c #EAEAEC",
" .	c #9EAE9C",
"..	c #424244",
"+.	c #8A8A8C",
"@.	c #1E1E1C",
"#.	c #96A68C",
"$.	c #565654",
"%.	c #DEDEDC",
"&.	c #AA9A8C",
"*.	c #2E2E2C",
"=.	c #7E7E7C",
"-.	c #262624",
";.	c #968274",
">.	c #9A9290",
",.	c #AAA6A4",
"'.	c #9A867C",
").	c #A6A298",
"!.	c #626264",
"~.	c #B2AEA4",
"{.	c #B2AEAC",
"].	c #A2928C",
"^.	c #6A6664",
"/.	c #726E6C",
"(.	c #A6A2A4",
"_.	c #928E8C",
":.	c #B2AAAC",
"<.	c #928684",
"[.	c #7E7A7C",
"}.	c #B2A6A4",
"|.	c #BEBEC4",
"1.	c #B2B2A4",
"2.	c #AAAA9C",
"3.	c #9E9694",
"4.	c #AEAEA4",
"5.	c #6E6664",
"6.	c #BABAC4",
"7.	c #6A6A6C",
"8.	c #9E9EA4",
"                                                                                                ",
"                                      & +.3 u B S < +.& $                                       ",
"                                ; A } A 7 m j w / 3 u B S < c !.                                ",
"                          =.O O O @ } 7 A 7 m m j 8.u B S < +.c 0 7.                            ",
"                        @ g Y O O } } A |.|.6.} } j u S < +.+.H c =.0 !.                        ",
"                    w T 1 Y g O @ @ A 7 A m m w w / B B S < +.c c =.k q X D                     ",
"                  @ 1 T 1 g g O @ } O 1 1 Y Y Y g g O } S +.+.c c =.k q q 7.E                   ",
"                T T T 1 Y Y O @ } @ |.Y Y Y Y g O @ @ } S < H H =.k 0 0 q 2 U V                 ",
"              T C T 1 Y g g O @ } A 7 7 m j w / 3 u B S < +.H c c k 0 q & 7.X !.E               ",
"            g T T 1 1 Y g O O @ } A 7 m j i ; i 2.; S S +.+.H c =.k 0 q q 7.X U $ !             ",
"          u T T T Y Y g g @ } } A A m m j i ).' = i S S < H H =.=.k 0 q & 7.X !.!.6 5           ",
"          1 T 1 Y Y g g O |.@ A A 7 m j w i a :.] B S < +.+.c c =.0 0 & & 7.X !.U $.8           ",
"        @ 1 Y Y g g O @ @ } } A 7 7 m j (.).2.~.= 3 < < H H c =.=.0 0 & & X X U 6 $.$ t         ",
"      c 1 Y Y g g O O |.@ } A 7 m j j w j 7 1.1.n i S +.+.H =.k 0 0 q & 7.7.!.U U 6 $ ..        ",
"      7 g g g O O O @ } } A A 7 m j j } O O @ } O C C T j c c =.0 q q 7.X X !.U 6 $.$ E R       ",
"      g g O O O @ } } } A 7 m m m w A @ } } @ } g C C T m c k 0 0 q & & 7.!.!.U 6 $.$ V R       ",
"    3 O O @ @ @ } } A 7 7 7 m j j / ; ; 3 u B 8.S +.+.H c c =.k 0 q 7.7.X !.U 6 $.$ E V 8 5     ",
"    @ } } } } } } A 7 7 m j j w w w 8.u u B S < < +.H H =.k 0 0 q & & X X !.U 6 $.$ $ V 8 *.    ",
"    } } } A A 7 7 7 7 m m j j / ; ; 3 u B B S < +.+.H c =.=.0 0 q & 7.X !.U 6 6 $.E E V 8 t     ",
"  =.A A 7 7 7 7 m 4.,.,.).).; / 8.3 u B B S < +.+.H c c =.0 0 q & 7.7.!.!.U 6 $.$ $ E 8 ..D     ",
"  +.7 7 1.m m 4.| d 4 % ].r 3 3 u u B B S S S < =.k =.=.k 0 q q & 2 X !.U U $.$.E E V 8 8 t o   ",
"  m j m m m m j j { '.: ].;.3.3 u B B S < +.< c $.q =.k k q q & 7.X X U 7.6 $.$ $ V V 8 t R @.  ",
"  3 j w w w w w w { '.&.'.s >.B B S S < < =.k k E 6 k 0 0 q & 7.X & ) J & b z E E V 8 8 t t *.  ",
"  w w w w w w / / 8.# + * u B B B S < < H H H !.6 q k 0 q & 7.7.X /.^ I x ^.6 $ E 8 8 t t ! @.  ",
"  S / / 8.8./ j 4.m  .# #.Z j m w +.B w w w j m m j j w S & 7.7.X !.X [ ( $.$.V V 8 8 ..R ! 5   ",
"  3 3 3 3 3 w 7 7 @ @ 7 } |.O C } +.j O 1 Y %.F F F l l } 7.2 !.!.U 6 2 X $ E E V ..t t R D .   ",
"  +.u u B u 3 7 m 7 A | A A } O m H w O O @ g Y 1 1 Y Y +.X X H B S +.c c =.0 0 k X t t R ! -.  ",
"  =.B B B B S B B B S S S < < +.+.H H H c c c =.k k 0 q X X !./ 3 B S 3 S 9 =.H +.& t R ! 5 .   ",
"  $ S S S S < < < < < +.+.H H c c c =.=.k 0 q q & & 7.7.X !.U 6 6 K $ $ E V V ....t R ! D *.    ",
"    < < +.< < +.+.+.H H H H c c =.k k 0 0 0 q & & 7.2 X !.!.U 6 6 $.$ E E V ....t R ! ! D @.    ",
"    c +.+.+.+.H H H H c c c =.=.=.k k 0 q q q 7.7.X !.!.U U 6 $.$.$ E V 8 8 ..t t R ! D D -.    ",
"    q H H c c H H H c c =.=.=.k 0 0 q 0 | {.| {.{.{.e q U 6 6 $.$.<.9 , L [.N 5.R ! D D o .     ",
"      c c c c c e e ,.M f f M k q q & q d y v - v >.- ^.6 $.$.$ $.Q c [./.h /.7.R ! D *.5       ",
"      0 =.=.k =.< < _.9 < _.W 0 q q =.< < W < +.+.H c c 0 $.$ /.0 0 q /.& X !.6 6 V *.o .       ",
"        k k H S u u / 8./ w (./ +.& < w } A } A A A 7 7 B E $ H 3 3 u S < +.Q k q U *.5         ",
"        7.0 +.u (.,.w | m m 7 7 S X +.w m m j m | j ,.w S E V c < < H c =.0 q x X $ o .         ",
"          q q H +.+.+.+.+.< < < =.X !.> U U 6 6 $.$.$ E E V V 8 ....t R R ! D *.*.5 -.          ",
"          8 7.& 7.7.7.7.7.X X !.!.U U U U 6 6 $.$.$ E E E V 8 ....t R R ! D D *.5 .             ",
"            E 2 X X X !.!.!.!.!.!.U 6 6 $.$.$ $ $ E E V 8 ....t t t R ! D D *.5 -..             ",
"              U X X !.!.!.U U U 6 6 6 $.$.$ $ E V E 8 8 8 ....t R ! ! D D *.*.-..               ",
"                E U U U U U 6 6 6 $.$.$ $ E E E V V 8 ....t t R R D D *.*.5 5 @.                ",
"                  E U 6 6 $.$.$ $ $ E $ E E V 8 8 ......t R R ! D D D *.5 o .                   ",
"                    5 $.$.$ $.$ E $ V V V V V ..8 ..t t t ! ! ! D *.*.5 -.                      ",
"                        8 $ E E E V V V 8 ......t t R R ! ! ! D *.5 -..                         ",
"                            ..V V V 8 8 8 ....t R R ! ! D D *.*.*.o                             ",
"                                D ....t t t R R R R ! D D *.-..                                 ",
"                                        -.D *.*.5 5 5 @.                                        ",
"                                                                                                "};
