/* XPM */
static char * rndfpm_xpm[] = {
"48 48 256 2",
"  	c None",
". 	c #262626",
"+ 	c #6A6A6A",
"@ 	c #929292",
"# 	c #AAAAAA",
"$ 	c #3E3E3E",
"% 	c #BEBEBE",
"& 	c #6F3F7D",
"* 	c #82127E",
"= 	c #5A5A5A",
"- 	c #767677",
"; 	c #D6D6D6",
"> 	c #661262",
", 	c #603E6A",
"' 	c #8A8A8A",
") 	c #C6C6C6",
"! 	c #525253",
"~ 	c #BE6EC6",
"{ 	c #621262",
"] 	c #6E608A",
"^ 	c #A6A6A6",
"/ 	c #A66BAF",
"( 	c #9E78AA",
"_ 	c #AEB2B0",
": 	c #74207C",
"< 	c #9E9E9E",
"[ 	c #868686",
"} 	c #464647",
"| 	c #561E52",
"1 	c #CECECE",
"2 	c #EAEAEA",
"3 	c #96428A",
"4 	c #5E467A",
"5 	c #6E467D",
"6 	c #4E3356",
"7 	c #828282",
"8 	c #866A8C",
"9 	c #363636",
"0 	c #52466A",
"a 	c #5E5E5F",
"b 	c #722A7A",
"c 	c #5A4062",
"d 	c #E7E6E7",
"e 	c #7E7696",
"f 	c #A25E9A",
"g 	c #796D8A",
"h 	c #663266",
"i 	c #563E6E",
"j 	c #621A6A",
"k 	c #6E4E7A",
"l 	c #464662",
"m 	c #B2B6B6",
"n 	c #A29AA4",
"o 	c #A28EA6",
"p 	c #4E4E4E",
"q 	c #5F5666",
"r 	c #E2E2E1",
"s 	c #9A9A9A",
"t 	c #7E7E7F",
"u 	c #6E6E6E",
"v 	c #666666",
"w 	c #6E4E86",
"x 	c #3E4256",
"y 	c #92428E",
"z 	c #D2D2D2",
"A 	c #2A2A2A",
"B 	c #5A3256",
"C 	c #7C7890",
"D 	c #6E3A7E",
"E 	c #59536F",
"F 	c #5E4E5E",
"G 	c #A2169E",
"H 	c #8646A0",
"I 	c #4A465E",
"J 	c #8E8A9E",
"K 	c #5E4E76",
"L 	c #8A6296",
"M 	c #E6D8E6",
"N 	c #BAACC0",
"O 	c #727183",
"P 	c #DEDEDD",
"Q 	c #CEC0CE",
"R 	c #7C768A",
"S 	c #42465A",
"T 	c #CACACA",
"U 	c #B27ABA",
"V 	c #323232",
"W 	c #665A7E",
"X 	c #6A4082",
"Y 	c #803080",
"Z 	c #562E5C",
"` 	c #948D95",
" .	c #8E2296",
"..	c #C0B8C1",
"+.	c #A2A2A2",
"@.	c #724997",
"#.	c #7A727D",
"$.	c #AEAEAE",
"%.	c #9A93A6",
"&.	c #C2C2C2",
"*.	c #7F5295",
"=.	c #693A69",
"-.	c #BABABA",
";.	c #8E8E8E",
">.	c #969697",
",.	c #423F52",
"'.	c #6F3E95",
").	c #7A7A7A",
"!.	c #727272",
"~.	c #575365",
"{.	c #565657",
"].	c #847E92",
"^.	c #6A667C",
"/.	c #665E68",
"(.	c #B252B2",
"_.	c #9E72AE",
":.	c #C2B2CE",
"<.	c #878693",
"[.	c #7D6592",
"}.	c #6A4C6A",
"|.	c #7A6A76",
"1.	c #524E5E",
"2.	c #D6DAD8",
"3.	c #4E4752",
"4.	c #9484A2",
"5.	c #723A92",
"6.	c #828290",
"7.	c #713679",
"8.	c #4A4A4B",
"9.	c #3A424A",
"0.	c #5A326E",
"a.	c #B69AC6",
"b.	c #5A4A62",
"c.	c #626262",
"d.	c #724E8E",
"e.	c #623E72",
"f.	c #3A3A3A",
"g.	c #5F5263",
"h.	c #5A4666",
"i.	c #5E5676",
"j.	c #725282",
"k.	c #7A3F91",
"l.	c #82769A",
"m.	c #AA9EAE",
"n.	c #726672",
"o.	c #623A6A",
"p.	c #665A6E",
"q.	c #8C8A96",
"r.	c #6A2E72",
"s.	c #827E8C",
"t.	c #822696",
"u.	c #9E929E",
"v.	c #7E3E82",
"w.	c #2E2E2E",
"x.	c #624A7A",
"y.	c #7C3A94",
"z.	c #7E52AA",
"A.	c #B2AAB2",
"B.	c #8A128E",
"C.	c #7E3696",
"D.	c #77327E",
"E.	c #CEC6D0",
"F.	c #715396",
"G.	c #7E4A92",
"H.	c #8A768E",
"I.	c #A6A2AE",
"J.	c #BAB2BE",
"K.	c #68417B",
"L.	c #72488A",
"M.	c #74727E",
"N.	c #564E6A",
"O.	c #726A74",
"P.	c #7A7A86",
"Q.	c #6A367A",
"R.	c #826C90",
"S.	c #424656",
"T.	c #4E4E5A",
"U.	c #6A5277",
"V.	c #A09EAA",
"W.	c #726E7E",
"X.	c #8E8E9A",
"Y.	c #706686",
"Z.	c #53525B",
"`.	c #493F5B",
" +	c #8E76AA",
".+	c #96929E",
"++	c #7753A0",
"@+	c #83828A",
"#+	c #6A6676",
"$+	c #6F2E7B",
"%+	c #4E4E62",
"&+	c #4A4A6A",
"*+	c #6E5A82",
"=+	c #7D1982",
"-+	c #A672B2",
";+	c #66466E",
">+	c #563656",
",+	c #5E4A69",
"'+	c #C6BECA",
")+	c #68406E",
"!+	c #827A82",
"~+	c #AEAAB6",
"{+	c #424242",
"]+	c #965EAE",
"^+	c #825EAA",
"/+	c #6A567A",
"(+	c #7E7E86",
"_+	c #3E3E4A",
":+	c #4F4E56",
"<+	c #665E76",
"[+	c #B6B2BE",
"}+	c #765E88",
"|+	c #EFEDEF",
"1+	c #A67EBA",
"2+	c #72267E",
"3+	c #E2DEE2",
"4+	c #6A526E",
"5+	c #8E7E9E",
"6+	c #6A3E92",
"7+	c #8E8696",
"8+	c #787A82",
"9+	c #5E5A66",
"0+	c #76767E",
"a+	c #694E7C",
"b+	c #4E3662",
"c+	c #94929A",
"d+	c #B2B2B2",
"e+	c #B6B6B6",
"f+	c #968DA1",
"g+	c #A6A2A8",
"h+	c #B2AEB4",
"i+	c #C6C2C7",
"j+	c #9A969C",
"k+	c #DADADA",
"l+	c #5A4676",
"m+	c #48485A",
"n+	c #3A3A42",
"o+	c #665662",
"p+	c #66526A",
"q+	c #514D6D",
"r+	c #75577F",
"s+	c #6A327C",
"t+	c #604E68",
"u+	c #763A7E",
"v+	c #622E78",
"w+	c #40424A",
"x+	c #9E9AA2",
"y+	c #664677",
"z+	c #613F7B",
"A+	c #692E7E",
"B+	c #704A7C",
"C+	c #4A4A62",
"D+	c #7F7A8A",
"E+	c #67626A",
"F+	c #70327E",
"G+	c #76727A",
"                                                                                                ",
"                                      e+d+$.# ^ +.< s >.@                                       ",
"                                &.% -.e+e+d+$.# ^ +.< s >.@ ' [                                 ",
"                          1 T ) &.% % -.e+d+d+$.# ^ +.< >.@ @ ' [ t                             ",
"                        1 T T ) ) % % -.-.e+d+d+$.# ^ +.< >.@ ;.' 7 t -                         ",
"                    ; z 1 1 T T ) ) &.% -.-.-.d+d+$.# ^ +.< s @ ;.[ t ).!.u                     ",
"                  ; ; z 1 T T T ) ) ) &.% -.-.e+d+$.$.# ^ +.s >.@ ' [ t ).!.+                   ",
"                k+; z z z 1 T T T ) &.&.&.&.% -.-.e+d+$.# +.+.s >.@ ' [ ).!.u v                 ",
"              ; ; z z z z 1 T T T T ) ) &.&.% % -.-.d+d+$.# ^ +.s @ ;.[ 7 - !.+ c.              ",
"            ; ; z ; z 1 1 z 1 1 1 T T ) T ) ) % &.-.-.e+d+$.# +.< s @ ;.7 t !.+ c.a             ",
"          ; z z z z z z 1 z 1 1 1 1 1 T ) ) ) &.&.&.% -.e+d+$.^ +.s >.;.[ 7 ).!.v a =           ",
"          z z z 1 z z 1 z 1 1 1 1 1 T T 1 T T T ) &.% % -.e+d+$.^ +.s >.;.7 ).!.+ c.{.          ",
"        1 z 1 z 1 1 z 1 z z 1 z 1 z z 1 z 1 1 1 T T ) &.% -.e+d+# +.< >.;.' t - + v = !         ",
"      1 1 T 1 1 1 1 1 1 1 1 z 1 z z z z 1 z 1 1 1 T T ) &.-.e+d+$.# < s >.' 7 ).!.v a !         ",
"      T T T T 1 1 1 1 1 z 1 z z z z ; ; ; ; ; z z 1 1 T ) &.% -.d+$.^ < >.;.7 !.v 9+{.p p       ",
"      &.) T T T 1 1 1 z 1 z z z z ; ; ; ; ; ; k+; ; z 1 T ) -.~+n f+< < j+;.E+= {.{.! p 8.      ",
"    &.&.&.&.) ) T 1 T 1 z z z ; z ; 2.2.k+k+k+; z z z z o 8 r+r+j.4+#.+.s @+9+{.{.! p p p }     ",
"    % % &.) ) T ) T 1 1 1 z z z ; z E.:.a.1+]+H v.*.o E.r+5 k B+k U.9+s < M.{.Z.Z.! 8.{.p }     ",
"    -.-.% &.&.) ) ) T ) ..A.'+N  +^+z.H k.A+v+$+7.$+7.H.A.j.& x.x.U.N.' < <+%+N.%+T.8.{.p }     ",
"  e+e+-.-.e+[+h+m.j+7+l.[.[.Y.4.F.d.@.'.0.n.` L Y $+D., d+1+& , w a+,+- ` E T.~.1.8.} {.! }     ",
"  d+d+~+^ V.j+X.7+].e g [.}+*+7+f+F.@.5.i d+d M t.: 2+B +.( s+o.K.y+;+/.#.N.Z.E %+C+} {.p } $   ",
"  $._ # n j+f+X.].` n n ].Y.] W.) ++'.6+h.) |+M  .=+: 6 ^ _.v+c B+X 4 K W I a q+C+C+} {.! {+f.  ",
"  # # $.g+>.J <.' m [+J J.n ] i.~+++6+5.,+1 2 ~ B.* j 1.&._.v+b.[.& e.x.K 3.u N.l l {+{.! } f.  ",
"  ^ # $.# ` q.@+' -.J ] s T I.D+h+F.'.5.& U (.G * { Z s P / $+g.o D K.4 l+8.D+q+C+S.} ! p {+f.  ",
"  +.+.^ ^ X.<.6.<.V.e ] >.T z 1 E.++k.y.D.t.=+{ | F +.k+r / A+q $.w z+i `.9+7 &+l S.{+! 8.$ 9   ",
"  < +.^ +.q.<.(+e R W.#+>.) 1 z T *.G.k.Z }.n.7+d+2.2 d P / $+p+_ R.z+i `.!.7 C+l x w+8.8.$ 9   ",
"  s x++.s <.6.(+O O W.E+>.) T 1 '+++k.D b.% d 2 |+2 2 r 2.f r.q $.J K.i 3.W.i.l x x 9.f.{+f.V   ",
"  s s s >.<.].0+7 V.R #+c+&.T 1 ..d.5 Q.p+1 d 2 d d r k+Q y 7.)+R.u., b+~.~.`.,._+$ n+$ $ f.V   ",
"  @ >.s @ 6.(+8+[ $.c+!.< % ) T J.B+X s+;+'+3+r r P k+Q y D.=.o.6 O.p+`.u u :+! {.{.p 8.$ 9     ",
"    ;.@ @ 6.(+0+[ # $.# d+% % &.4.X D 7.Y v.m.2.k+; ; J.=.>+c g.c.[ x+7 ' [ ).!.v a {.8.$ V     ",
"    ' ' ' (+P.0+t +.# d+d+-.-.H./+;+)+=.h Z #.T z z 1 E.$.+.^ ^ ^ ^ < >.;.[ 8+!.v = p {+9 w.    ",
"    ' ' [ t 0+G+G+M.j+# d+d+e+G+g.q p.O.!+@ $.T 1 ) ) &.% -.d+$.^ < s ;.[ ).- + a ! 8.$ V w.    ",
"      7 7 t 8+!.u + [ +.# # h+$.+.# d+-.% &.&.&.) &.% % e+d+$.^ +.>.@ ' 7 - + c.= p } f.A       ",
"      t 8+).8+t 7 ' >.< +.# # $.$.d+e+e+-.% -.-.-.-.e+d+$.# g++.>.@ ' 7 ).u + a ! 8.f.V A       ",
"        ).t 7 [ ;.@ >.s s +.+.# # # $.d+d+e+e+d+d+d+$.$.^ +.s s @ ' 7 ).!.v c.{.8.{+9 w.        ",
"        - - t 7 7 ' ;.@ >.s < < +.^ ^ ^ # # # # ^ ^ ^ +.< s >.;.[ 7 ).!.+ c.{.! } f.V .         ",
"          !.!.).t 7 [ ' ;.;.@ >.s < < < < < +.+.+.< s s >.;.' [ t - !.+ c.= p } $ V A           ",
"          u u !.- ).t 7 [ ' ;.;.@ @ >.>.s s >.>.>.@ @ ;.' ' 7 t - !.v c.= ! 8.$ 9 A             ",
"            + + u !.- ).t 7 [ [ ' ' ;.;.;.;.;.;.;.' ' [ t t ).!.u v a {.p } $ V w..             ",
"              v v + u u - - ).t t 7 7 7 [ [ [ 7 7 7 t ).).!.u + c.a {.p } $ 9 w..               ",
"                a c.v v u u u - - ).).).).).).- - - !.u u v v a = ! p } $ 9 A .                 ",
"                  = a a c.v + + + u u u !.!.!.!.u + + v c.a {.{.p 8.{+f.V A A                   ",
"                    = {.{.= a c.c.v v v v c.c.v c.c.a = {.! p 8.{+f.9 w..                       ",
"                        ! ! ! ! {.{.{.= = = = {.{.! ! p p 8.{+f.9 V A .                         ",
"                            p 8.p p p p ! p p p 8.8.} {+$ f.f.V w.A                             ",
"                                } } {+{+{+{+{+$ {+f.f.9 V w.w.w.                                ",
"                                        $ f.f.9 9 9 V V                                         ",
"                                                                                                "};
