/* XPM */
static char * fugu_xpm[] = {
"48 48 181 2",
"  	c None",
". 	c #1A1A1C",
"+ 	c #7A7A44",
"@ 	c #4A4A34",
"# 	c #626234",
"$ 	c #AAAA9C",
"% 	c #8E9274",
"& 	c #6E6E34",
"* 	c #82865C",
"= 	c #565634",
"- 	c #6E6E54",
"; 	c #767A6C",
"> 	c #626254",
", 	c #9E9E8C",
"' 	c #86867C",
") 	c #5A5E34",
"! 	c #323234",
"~ 	c #72762C",
"{ 	c #C2C2C4",
"] 	c #7E8254",
"^ 	c #666A3C",
"/ 	c #767654",
"( 	c #525234",
"_ 	c #9A9A84",
": 	c #8A8E74",
"< 	c #56564C",
"[ 	c #82826C",
"} 	c #3E3E34",
"| 	c #7A7A5C",
"1 	c #6A6E3C",
"2 	c #6A6A54",
"3 	c #B6B6B4",
"4 	c #A6A694",
"5 	c #626244",
"6 	c #86866C",
"7 	c #6E6E6C",
"8 	c #8E8E7C",
"9 	c #4A4A44",
"0 	c #92928C",
"a 	c #7E7E6C",
"b 	c #5E5E4C",
"c 	c #767644",
"d 	c #464634",
"e 	c #262624",
"f 	c #7A7E4C",
"g 	c #B2B2AC",
"h 	c #5A5A34",
"i 	c #666654",
"j 	c #9E9E9C",
"k 	c #CECECC",
"l 	c #666A4C",
"m 	c #72723C",
"n 	c #727254",
"o 	c #8A8A7C",
"p 	c #5A5E44",
"q 	c #76763C",
"r 	c #76766C",
"s 	c #52524C",
"t 	c #5A5A4C",
"u 	c #666634",
"v 	c #AEAEAC",
"w 	c #969684",
"x 	c #727224",
"y 	c #8A8A64",
"z 	c #7A7A7C",
"A 	c #3A3A34",
"B 	c #76762C",
"C 	c #828264",
"D 	c #9A9A94",
"E 	c #82827C",
"F 	c #42423C",
"G 	c #7E7E5C",
"H 	c #6A6A64",
"I 	c #666644",
"J 	c #8A8A6C",
"K 	c #4E4E44",
"L 	c #222224",
"M 	c #7A7A54",
"N 	c #4E4E2C",
"O 	c #AAAAAC",
"P 	c #929274",
"Q 	c #86865C",
"R 	c #565644",
"S 	c #6E6E64",
"T 	c #7A7A6C",
"U 	c #626264",
"V 	c #A2A294",
"W 	c #5E5E34",
"X 	c #CACACC",
"Y 	c #828254",
"Z 	c #6A6A34",
"` 	c #767664",
" .	c #525244",
"..	c #8E8E6C",
"+.	c #6E6E4C",
"@.	c #BEBEBC",
"#.	c #A6A6A4",
"$.	c #72726C",
"%.	c #8E8E8C",
"&.	c #969694",
"*.	c #7E7E7C",
"=.	c #464644",
"-.	c #2E2E2C",
";.	c #7E7E4C",
">.	c #5A5A44",
",.	c #666664",
"'.	c #A2A29C",
").	c #D6D6D4",
"!.	c #6A6A44",
"~.	c #72724C",
"{.	c #8A8A8C",
"].	c #5A5A5C",
"^.	c #727234",
"/.	c #1E1E1C",
"(.	c #7A7A4C",
"_.	c #62623C",
":.	c #AAAAA4",
"<.	c #8E927C",
"[.	c #56563C",
"}.	c #6E6E5C",
"|.	c #62625C",
"1.	c #9E9E94",
"2.	c #868684",
"3.	c #363634",
"4.	c #727634",
"5.	c #C6C6C4",
"6.	c #76765C",
"7.	c #52523C",
"8.	c #9A9A8C",
"9.	c #BABABC",
"0.	c #2A2A2C",
"a.	c #D2D2D4",
"b.	c #5E5E5C",
"c.	c #727264",
"d.	c #4E4E3C",
"e.	c #6E6E44",
"f.	c #5E5E44",
"g.	c #565654",
"h.	c #828274",
"i.	c #3E3E3C",
"j.	c #7A7A64",
"k.	c #6A6A5C",
"l.	c #A6A69C",
"m.	c #62624C",
"n.	c #868674",
"o.	c #8E8E84",
"p.	c #4A4A4C",
"q.	c #929294",
"r.	c #7E7E74",
"s.	c #76764C",
"t.	c #46463C",
"u.	c #B2B2B4",
"v.	c #5A5A3C",
"w.	c #66665C",
"x.	c #727244",
"y.	c #8A8A84",
"z.	c #767674",
"A.	c #525254",
"B.	c #5A5A54",
"C.	c #66663C",
"D.	c #72722C",
"E.	c #3A3A3C",
"F.	c #767634",
"G.	c #9A9A9C",
"H.	c #828284",
"I.	c #424244",
"J.	c #7E7E64",
"K.	c #6A6A6C",
"L.	c #66664C",
"M.	c #8A8A74",
"N.	c #4E4E4C",
"O.	c #868664",
"P.	c #7A7A74",
"Q.	c #5E5E3C",
"R.	c #82825C",
"S.	c #6A6A3C",
"T.	c #8E8E74",
"U.	c #727274",
"V.	c #7E7E54",
"W.	c #A2A2A4",
"X.	c #6A6A4C",
"                                                                                                ",
"                                      7 {.j G.&.q.%.{.7 s                                       ",
"                                '.3 9.3 u.v O #.W.j G.&.q.%.E U                                 ",
"                          *.{ { { @.9.u.g v O #.W.j G.&.q.%.{.E z.K.                            ",
"                        @.5.X { { 9.9.u.v v O #.W.j G.q.%.{.{.2.H.*.z.U                         ",
"                    #.a.k X 5.{ @.@.3 3 u.O #.W.j j &.&.q.%.{.H.E *.z $.,.!                     ",
"                  @.k a.k 5.5.{ @.9.3 u.v v :.W.j j G.&.q.{.{.H.H.*.z U.$.K.N.                  ",
"                a.a.a.k X X { @.9.9.u.g v O #.W.j G.&.q.%.%.2.2.*.z z.z.U.H b.9                 ",
"              a.).a.k X 5.5.{ @.9.9.u.u.O #.#.W.j G.&.q.%.{.2.H.H.z z.U.7 K.,.U N.              ",
"            5.a.a.k k X 5.{ { @.9.u.u.v O O W.j G.&.&.q.{.{.2.H.*.z z.U.U.K.,.b.A.3.            ",
"          D a.a.a.X X 5.5.@.9.9.9.g v v #.#.W.j j &.q.q.%.2.2.*.*.z z.U.7 K.,.U U B.0.          ",
"          k a.k X X 5.5.{ @.@.3 u.u.v O O #.W.j &.&.q.%.[ G M j.*.z.z.7 7 K.,.U b.g.=.          ",
"        @.k X X 5.5.{ @.@.9.9.3 u.v v #.#.W.j j &.q.n.f M (.a *.*.z.z.7 7 ,.,.b.].g.A.i.        ",
"      H.k X X 5.5.{ { @.@.9.3 3 v O #.#.W.j j &.8 ] G h.f J.H.z z.z.U.7 K.K.U b.b.].s F         ",
"      u.5.5.5.{ { { @.9.9.3 u., y R.] V.] C O.V.(.R.y.(.J.H.H.*.z.U.U.K.,.,.U > m.b A.N.E.      ",
"      5.5.{ { { @.9.9.3 u.u.w Q y P T.J C ] (.+ c + c + r.*.z z.z.U.7 7 K.w.X.!.m.f.t p.A       ",
"    j { { @.@.@.9.4 P ....% Y O.#.W.W.'.G.D q.0 n.C (.+ + (.T z z.U.K.K.k.!.L.b B.t >.N.=.0.    ",
"    @.9.9.9.9.9.l.P :.g :., J ] 8.#.'.G.G.&.&.%.%.y.2.h.| q q ~.U.7 7 +.e.!.> ].g.< p K =.-.    ",
"    9.9.9.3 3 v P $ v v v O #.0 (.j j G.G.q.q.%.{.{.H.H.*.P./ q ~.7 - & 2 b.b.g.g.s >. .=.i.    ",
"  *.3 3 u.u.g 4 _ v :.O.T.#.#.'.+ j G.&.q.q.%.%.{.2.2.*.*.z z.n q x.m 2 |.b.].g.A.N.Q.d.I.!     ",
"  y.g g g v v 1.w O 1.R.O.W.j D c G.D &.q.0 {.{.2.H.H.z z z.z.7 x.m +.U b.].].g.A.N.>.7.=.i.L   ",
"  v O v v v O 1.M.#.#.1.'.'.j O.Q &.q.q.0 {.y.' H.H.*.*.z z.7 7 }.+.,.U b.].g.A.N.N.v.9 i.E./.  ",
"  j O #.#.O O w * M.D j j D O.(.0 &.0 %.y.s.D.x D.T z z.z.U.U.K.K.U |.b.].g.g.A.N.[.v.=.i.i.-.  ",
"  #.#.#.#.W.D 6 M.8 R.V.M (.G 8 q.%.%.{.F.q J.a s.B z.z.U.U.K.K.,.,.U b.].g.A.N.N.Q.[.I.i.3./.  ",
"  q.W.W.W.'.M.6 D G.G.&.0 &.q.q.q.%.{.2.V.E H.*.z B s.U.7 7 K.,.U b.b.].].A.N.p.K v.d.I.E.3.0.  ",
"  j j j j D 6 M.G.G.D &.&.q.q.%.{.{.{.2.H.*.*.*.P.c ~.U.7 K.H ,.U b.].].A.A.N.N.R h F i.E.! .   ",
"  {.G.G.&.o.6 0 &.q.&.q.%.%.%.%.2.2.2.H.H.*.z z z.s.~.7 K.,.U U U L.C.& S.5 p.=.v.v.i.i.A 3.e   ",
"  *.&.&.&.M.[ 0 q.q.%.%.%.{.{.2.2.2.H.*.^.6.; r ` ~ ~.7 K.,.U b.!.& & 5 C.u [.p.[.= i.E.3.0..   ",
"  A.q.q.%.[ n.%.%.%.{.{.{.2.2.2.H.*.*.*.s.^.D.D.^.x.H ,.,.,.U I ^.I g.N.< C.[.I.h 7.E.3.! -.    ",
"    %.%.%.J.n.{.{.{.{.2.2.2.H.H.*.*.*.z z.U.U.$.7 K.K.,.U b.> ^.S.g.A.N.p.W h t.= @ 3.3.! /.    ",
"    H.{.y.a h.y.2.2.2.H.H.H.*.*.z z.z.z.z.$.7 7 H ,.,.U U ].1 & t s A.N.p. .W d.= d 3.! ! e     ",
"    U.2.H.j.a H.H.H.H.*.*.z z z.z z.U.U.7 7 K.,.,.,.U U ].b.& S.A.N.p.=.=.=.) ( ( d ! ! L .     ",
"      H.H.T j.r.*.*.*.z *.z z z.z.z.U.7 7 7 K.,.U U b.b.B.S.& >.N.N.p.=.=.i.= = ( } ! -.0.      ",
"      P.*.*.` n r z z z z.z.U.U.U.7 7 7 ,.,.,.U U b.].].I & 1 f.s p.p.=.I.i.d = N A -.L .       ",
"        z z.P.` n n c.U.U.U.U.7 7 K.K.K.,.U U U b.b.B.5 & _.R Q.u W d.I.i.E.3.A 3.! -.0.        ",
"        7 z.z.U.c.}.n n }.S H K.K.K.,.U U U U ].].b C.& _.R N.K 9 [.h = t.E.3.! ! 0.L .         ",
"          U.U.7 $.7 H - +.e.e.!.!.!.X.X.L.m.I S.S.Z Z Z u u u # W W W = = A 3.-.-.0.e           ",
"          =.7 7 K.K.H H k.w.i i X.I !.S.S.Z S.C._.p <  .N.K 9 @ t.t.} } } 3.-.-.-..             ",
"            N.K.H K.,.U ,.U U b.U b.].B.B.B.A.A.N.N.p.p.9 I.I.I.i.i.E.3.! ! -.0.e .             ",
"              b.U U U U b.|.b.b.].].].g.g.s A.N.N.p.p.9 I.I.I.i.E.3.3.! -.-.0.e .               ",
"                N.b.b.b.].b.].B.g.g.g.A.A.N.N.p.p.=.=.I.I.i.E.E.E.3.! ! -.-.e /.                ",
"                  p.b.].].g.g.A.g.A.A.A.N.N.p.p.=.=.I.I.i.E.E.3.! ! ! -.0.L .                   ",
"                    -.g.g.g.g.A.N.N.p.p.p.p.=.=.I.i.i.i.i.A 3.3.! -.0.0.e                       ",
"                        =.N.N.N.N.p.p.p.=.=.I.I.i.i.i.E.3.! ! ! -.-.0..                         ",
"                            i.p.p.9 =.=.I.I.i.i.i.E.3.3.3.! -.-.0./.                            ",
"                                ! I.I.i.i.i.i.E.3.3.3.! ! ! e .                                 ",
"                                        0.-.! -.-.0.0./.                                        ",
"                                                                                                "};
