/* XPM */
static char * rndfcirc_xpm[] = {
"48 48 256 2",
"  	c None",
". 	c #020202",
"+ 	c #8A969E",
"@ 	c #5E6A72",
"# 	c #2E3234",
"$ 	c #3E4242",
"% 	c #C2C2C2",
"& 	c #4A5259",
"* 	c #767A7A",
"= 	c #AAB6C2",
"- 	c #121212",
"; 	c #1A1A1A",
"> 	c #AAAAAA",
", 	c #566264",
"' 	c #7A8286",
") 	c #1E1E1E",
"! 	c #2A2A2A",
"~ 	c #4A565A",
"{ 	c #829296",
"] 	c #969EA6",
"^ 	c #464E56",
"/ 	c #363636",
"( 	c #565656",
"_ 	c #D2D2D2",
": 	c #868E90",
"< 	c #5A5A5A",
"[ 	c #72767A",
"} 	c #323A3E",
"| 	c #222222",
"1 	c #42464A",
"2 	c #9E9E9E",
"3 	c #C2CACA",
"4 	c #7E8A8E",
"5 	c #B6B6B6",
"6 	c #565A6A",
"7 	c #6E6E6E",
"8 	c #9EA6A6",
"9 	c #B2B2B2",
"0 	c #BEBEBE",
"a 	c #626262",
"b 	c #2A2E2E",
"c 	c #565E61",
"d 	c #9696AA",
"e 	c #060606",
"f 	c #626672",
"g 	c #525262",
"h 	c #262626",
"i 	c #3A3E40",
"j 	c #969696",
"k 	c #4E4E5E",
"l 	c #828282",
"m 	c #464A4D",
"n 	c #0A0A0A",
"o 	c #4E5256",
"p 	c #9EA6B6",
"q 	c #464E5A",
"r 	c #525E5E",
"s 	c #828692",
"t 	c #7E7E7E",
"u 	c #AEAEC6",
"v 	c #A2A2BA",
"w 	c #626666",
"x 	c #565A62",
"y 	c #8A9296",
"z 	c #5A5E5E",
"A 	c #9092A4",
"B 	c #6E6E82",
"C 	c #969A9A",
"D 	c #C6BAC2",
"E 	c #4E565E",
"F 	c #8A8A9C",
"G 	c #82868A",
"H 	c #4E525E",
"I 	c #AEAEAE",
"J 	c #161616",
"K 	c #A2A2A2",
"L 	c #B6BAC6",
"M 	c #6E7274",
"N 	c #8A8E9A",
"O 	c #828A8E",
"P 	c #565666",
"Q 	c #CACACA",
"R 	c #6A727E",
"S 	c #BABABB",
"T 	c #626A6E",
"U 	c #727A82",
"V 	c #5E626F",
"W 	c #C6C6C6",
"X 	c #4E5A61",
"Y 	c #5E5E5E",
"Z 	c #76768A",
"` 	c #9AA6B2",
" .	c #828A96",
"..	c #544E5A",
"+.	c #BCBECC",
"@.	c #8F929E",
"#.	c #0E0E0E",
"$.	c #7E7E8C",
"%.	c #CECECE",
"&.	c #6A6E70",
"*.	c #464A5A",
"=.	c #5E6262",
"-.	c #424652",
";.	c #9A9EB3",
">.	c #8A8E8E",
",.	c #62626B",
"'.	c #3E3E47",
").	c #AAB2C2",
"!.	c #82828E",
"~.	c #989AA6",
"{.	c #8E9295",
"].	c #4A4E4E",
"^.	c #524A52",
"/.	c #565662",
"(.	c #D6D6D6",
"_.	c #62666C",
":.	c #5E5E66",
"<.	c #42464E",
"[.	c #6A6A6C",
"}.	c #868A8C",
"|.	c #72767E",
"1.	c #767E86",
"2.	c #5A5A6E",
"3.	c #B2AEBE",
"4.	c #A2A6B2",
"5.	c #6E6E78",
"6.	c #9A9EA9",
"7.	c #525654",
"8.	c #86868E",
"9.	c #BABEC6",
"0.	c #72727A",
"a.	c #767A82",
"b.	c #A6A6A6",
"c.	c #565A5E",
"d.	c #4F525A",
"e.	c #90969A",
"f.	c #7E868C",
"g.	c #9E9EAA",
"h.	c #4A4E5A",
"i.	c #8F929A",
"j.	c #898A92",
"k.	c #52565E",
"l.	c #919AA5",
"m.	c #3A3A3A",
"n.	c #A6A6B8",
"o.	c #4A4A52",
"p.	c #7E7E83",
"q.	c #5A5A62",
"r.	c #9EA2AE",
"s.	c #5A5A5E",
"t.	c #C2C6D2",
"u.	c #8C8E96",
"v.	c #4A4A4A",
"w.	c #4E4E4E",
"x.	c #4C5A5A",
"y.	c #9A9A9A",
"z.	c #929292",
"A.	c #9AA2AC",
"B.	c #B2B2BA",
"C.	c #5E5E62",
"D.	c #B2B6BA",
"E.	c #82828A",
"F.	c #898A96",
"G.	c #66666C",
"H.	c #9A9AB6",
"I.	c #A4A6AE",
"J.	c #3E424A",
"K.	c #4E5A66",
"L.	c #6A6A72",
"M.	c #525664",
"N.	c #767676",
"O.	c #5E5E6B",
"P.	c #36363A",
"Q.	c #3A3A42",
"R.	c #5A5E63",
"S.	c #323232",
"T.	c #3E3E3E",
"U.	c #525252",
"V.	c #868686",
"W.	c #727272",
"X.	c #8A8A8A",
"Y.	c #4E4E5A",
"Z.	c #666A76",
"`.	c #5E666E",
" +	c #96969E",
".+	c #2A2A32",
"++	c #9296A1",
"@+	c #565264",
"#+	c #8E8E9A",
"$+	c #96A2AA",
"%+	c #9E9EA6",
"&+	c #666672",
"*+	c #7A7A81",
"=+	c #5A5E6C",
"-+	c #525A5F",
";+	c #76767E",
">+	c #5E6267",
",+	c #AABABE",
"'+	c #999AAA",
")+	c #9AA2B6",
"!+	c #4A525E",
"~+	c #7C828E",
"{+	c #B6B6BE",
"]+	c #686E76",
"^+	c #7A7A86",
"/+	c #52525E",
"(+	c #BEC2CA",
"_+	c #727280",
":+	c #CACED6",
"<+	c #525A5A",
"[+	c #4E5663",
"}+	c #929EAE",
"|+	c #424246",
"1+	c #3E3E42",
"2+	c #8A8A8E",
"3+	c #727276",
"4+	c #5E5E72",
"5+	c #424242",
"6+	c #7A7A7A",
"7+	c #464646",
"8+	c #B6B2B6",
"9+	c #2E2E2E",
"0+	c #524E5E",
"a+	c #666666",
"b+	c #8E8E8E",
"c+	c #46464E",
"d+	c #625E62",
"e+	c #969AA2",
"f+	c #4A4E56",
"g+	c #C2CECA",
"h+	c #626266",
"i+	c #4E565A",
"j+	c #6E6E72",
"k+	c #BABAC3",
"l+	c #666A6D",
"m+	c #868692",
"n+	c #7A7E83",
"o+	c #BEBEC6",
"p+	c #525A66",
"q+	c #969EAD",
"r+	c #56626A",
"s+	c #56565A",
"t+	c #96969A",
"u+	c #4E5E66",
"v+	c #3A3A3E",
"w+	c #5A5A66",
"x+	c #4A4A4E",
"y+	c #4E4E52",
"z+	c #323236",
"A+	c #86868A",
"B+	c #666676",
"C+	c #8E8E92",
"D+	c #666A72",
"E+	c #AEB6C0",
"F+	c #7E828A",
"G+	c #A2A6BA",
"                                                                                                ",
"                                      5 9 I > b.K 2 y.j z.                                      ",
"                                % 0 S 5 9 I > b.K K 2 y.z.b+X.V.                                ",
"                          %.Q W 0 0 S 5 9 I > > b.2 y.j j z.b+X.l t                             ",
"                        %.Q W W 0 0 S 5 9 9 > b.b.K 2 y.j z.b+X.V.l t N.                        ",
"                    (._ %.Q W % % S 5 5 5 I I > b.K K 2 y.z.b+2+A+l *+6+W.7                     ",
"                  (.%.Q % 0 S 9 I > b.K 2 y.y.z.z.b+b+t+t+e.z.X.l l p.*+N.7 [.                  ",
"                (.%.W S 5 I K 2 y.z.b+V.l l 6+6+6+F+z.N p.6+[ W.W.M 7 W.3+j+l+a+                ",
"              (.%.W 0 9 > b.2 j z.X.l l 6+N.W.N.F.!.[ [.a+a+h+h+a w w a l+[.l+a+Y               ",
"            (.%.% S 9 I K y.j b+V.t t N.W.7 &.n+&.a+a a a d+a Y Y Y Y Y Y a a+h+a Y             ",
"          (._ W 0 9 > K y.z.X.V.l 6+W.W.N.L.G.a Y < < < c.( < < ( ( < ( < < d+h+=.Y <           ",
"          _ %.0 9 > K y.z.X.l t N.W.3+f.N h+< < ( ( ( U.U.( U.U.U.( U.( ( U.< >+C.C.<           ",
"        %.%.%.5 I K y.z.X.l 6+W.N.A+g.H.L.c.U.U.w.w.w.w.v.w.w.w.w.U.w.w.U.o U.s.z s.< (         ",
"      %.Q Q W I K y.z.X.l t 3+A+I.E+4.O < w.w.v.v.7+7+7+7+7+7+v.7+v.v.v.v.v.w.( q.Y z U.        ",
"      Q W W W b.y.j X.l 6+t > o+k+3.p l+v.7+1 5+5+T.T.T.T.5+T.7+5+7+7+v.v.v.v.7.c s.Y ( w.      ",
"      W % % 0 K z.X.l t b+S %.Q o+k+~.^.5+T.m.m.m.m.m.m.m.m.T.m.T.5+5+5+7+7+7+y+s+s.Y ( w.      ",
"    0 % 0 0 0 2 b+V.l K W _ _ :+9.D.F+5+T.m./ S.S.S.S./ / / m.m.m.T.T.T.5+5+5+].-+c.Y ( w.7+    ",
"    0 0 0 0 S z.V.}.> (+3 t.g+(+S = o m./ S.9+9+! ! 9+! 9+9+S./ / / m.T.T.5+5+^.s+/.Y < U.7+    ",
"    S S S S S z.X.4.E+S k+D k+L k+A m.S.9+! h h h | h h ! ! ! 9+S./ / / m.m.T.^.c.c.Y ( w.5+    ",
"  5 5 5 5 9 9 C 8 p 4.I B.D.k+E+).O./ 9+h h | | ) | | | | h ! 9+S.9+S./ / m.i ].k./.a < w.5+    ",
"  9 9 9 5 9 I  +8.}.A.$+q+v m+F u v.! h | ) ; ; J ; ; ) | | h h 9+9+S./ / / T.0+/+< Y < w.5+T.  ",
"  I I I I I 9 V.N.N ;.}+)+r.k.o.L.Q.! h ) ; J - - - J ; ; | | h ! 9+9+9+S./ 1+r Y.w+C.( w.T.m.  ",
"  > > > I > > p.E.6.}+'+p { m v+P.9+| ) ; - #.#.n #.#.J J ; | | h ! 9+S.9+/ |+k.i+C.Y < v.T.m.  ",
"  b.b.b.> > > l C+}+'+g.> [.T.m.S.! h ; J - n e e n #.- J ; ) | h ! ! ! S.z+E ..0+a+Y ( w.m./   ",
"  K K K b.b.b.}.~.] ~.q+p :.T./ 9+h | ; - - n e . n n - J ; ) | | ! ! ! 9+'.M.& f+w < ( v.m./   ",
"  2 2 2 K K K {.l.++d g.++/+m./ 9+h | ; J #.n . . e #.- J J ; ) h h ! 9+S.x.<+& |+< Y U.v./ /   ",
"  y.y.2 K K 2 N + ++A H.s v.m.S.9+h | ; J #.#.n n n #.- J ; ) ) | h h ! J.@+k.h.m.< < U.v.S.S.  ",
"  j j j y.y. +F.e.++ +$+* 5+m./ 9+! | ) J J - #.#.#.- - ; ; ) | | h ! P.d.d.k.c+S.( ( w.5+/ S.  ",
"  z.z.z.y.y.j }.#+@.A '+Z |+m./ 9+! h | ; J J - - - J J ; ; ) | h h 9+g x ~ /+z+S.( ( w.5+S.    ",
"    C+z.z.j {.}.{ #+A }+t 7+T./ S.9+h | ) ; ; J J J J ; ; ) ) | | b m M.& i+c+9+S.U.w.7+T.9+    ",
"    X.b+b+z.}.s j.F C+l.*+7+T./ S.9+! h | ) ) ) ; ; ; ) ) | | | # & x i+h.!+S.! 9+U.w.7+m.9+    ",
"    V.V.b+C+}.E.4 }.F.A f.].T.m.S.9+! ! h | ) ) ) ) ) ) | | | z+g K.0+& @+i 9+9+9+v.v.T.m.!     ",
"      l V.}.G p.s s 8.F.#+s+T.T./ S.9+! ! h | | | | | | | ! '.g K.x.Y.[+o.! ! 9+9+v.7+m./       ",
"      t l l p.n+' F+!.8.i.a+7+m.m./ 9+9+! ! ! h h | | h } h.=+x H & ~ P P.9+9+! 9+7+5+m.S.      ",
"        t p.t ;+* *+$.F+s ~+:.5+m.m./ 9+9+! ! ! ! ! '.f+x p+X h.& H V Q.! ! ! ! ! T.m.S.        ",
"        6+t *+;+|.a.*+*+$.f.;+O., |+i m.P./ z+'.o.r+6 p+p+H @+Y.k 4+1+b ! ! ! h ! T./ S.        ",
"          N.N.0.[ [ |.;+a.n+~+_.V ,.]+V 4+,.=+=+2.q.-+-+Y.o & g _.m ! ! ! ! ! ! h / S.          ",
"          W.W.&.j+]+0.|._+_+n+^+_.6 C., =.R.r k.-+[+..H *.& c f c+b ! ! ! ! ! h h S.            ",
"            7 h+l+]+l+]+M 5.0._+|.l+P x @+/.H P 0+~ i+f+p+V f $ 9+9+! ! h h h h h 9+            ",
"              a a G.G.G.l+]+&.5.]+]+R w 6 g K.E E g R.V O.x Q.! ! ! ! h ! h h h h               ",
"                z < >+>+h+_._.&+G.&+&+L.]+L.,.T B+&+=+6 1 9+9+! ! ! ! h ! h h |                 ",
"                  Y =.d+R.w+=.>+,.h+,.>+,.O.,.O.C.w+Y < 7.w.x+v.|+T.T.m.S.9+9+                  ",
"                    =.Y Y q.R.c.q.q.R.R.6 s.C.q.d+=.Y < < ( U.w.v.|+T.m./                       ",
"                        < < < < c.c.s+s+< c s.< c.( ( U.w.w.7+7+5+T./ S.                        ",
"                            7.U.U.( ( 7.U.( ( ( U.w.w.v.7+7+5+m./ /                             ",
"                                v.7+|+|+5+T.T.m.m.m./ / S.S.9+9+                                ",
"                                        T.m.m.m./ / S.S.                                        ",
"                                                                                                "};
