/* XPM */
static char * rndgaim_xpm[] = {
"48 48 129 2",
"  	c None",
". 	c #131105",
"+ 	c #625E3E",
"@ 	c #B39D15",
"# 	c #A9962F",
"$ 	c #E4D638",
"% 	c #B2A632",
"& 	c #29292A",
"* 	c #C2B649",
"= 	c #F1E35A",
"- 	c #3A3A3A",
"; 	c #DBCA1A",
"> 	c #AFA969",
", 	c #D9CE63",
"' 	c #837213",
") 	c #E9E19B",
"! 	c #E8D711",
"~ 	c #9B9346",
"{ 	c #565226",
"] 	c #040410",
"^ 	c #7A6B3F",
"/ 	c #232481",
"( 	c #B3AF6A",
"_ 	c #8A864E",
": 	c #D6D6D6",
"< 	c #D0CA6E",
"[ 	c #969368",
"} 	c #141432",
"| 	c #E6E1B3",
"1 	c #2B2F7A",
"2 	c #3E3E3E",
"3 	c #F1DE0B",
"4 	c #B8B17F",
"5 	c #807445",
"6 	c #D2CA7A",
"7 	c #9E9A66",
"8 	c #1E1A42",
"9 	c #CABD36",
"0 	c #444444",
"a 	c #1E1E72",
"b 	c #C2A91D",
"c 	c #DDDBD6",
"d 	c #B4AE90",
"e 	c #BEBA92",
"f 	c #C2C2C2",
"g 	c #747250",
"h 	c #02024E",
"i 	c #ABA97E",
"j 	c #474782",
"k 	c #E7E5CE",
"l 	c #D2CE7E",
"m 	c #8D8D72",
"n 	c #303030",
"o 	c #181A88",
"p 	c #4C4C4C",
"q 	c #020652",
"r 	c #FDE603",
"s 	c #CAB51A",
"t 	c #A29E6E",
"u 	c #D6D296",
"v 	c #F0E033",
"w 	c #676345",
"x 	c #F2CF04",
"y 	c #827E52",
"z 	c #726B4D",
"A 	c #949492",
"B 	c #C7BF4D",
"C 	c #3A3A7E",
"D 	c #A2A2A1",
"E 	c #FAF6CC",
"F 	c #F0EAB8",
"G 	c #2E2E62",
"H 	c #F3E998",
"I 	c #A09C7A",
"J 	c #13168A",
"K 	c #FCEF68",
"L 	c #D7C92E",
"M 	c #D6D2AA",
"N 	c #5D5D7A",
"O 	c #AEAEAE",
"P 	c #F4D905",
"Q 	c #FDEA22",
"R 	c #8A865E",
"S 	c #363636",
"T 	c #6E6C52",
"U 	c #B6B696",
"V 	c #787456",
"W 	c #ECEADA",
"X 	c #050893",
"Y 	c #D8CC50",
"Z 	c #DDC00C",
"` 	c #FEEA26",
" .	c #AAA68A",
"..	c #91832E",
"+.	c #3E3A6A",
"@.	c #646464",
"#.	c #F2DF1F",
"$.	c #4A4E7A",
"%.	c #E6D212",
"&.	c #7C7C7B",
"*.	c #CEC696",
"=.	c #8C8C8A",
"-.	c #9C9C9B",
";.	c #F9F6E6",
">.	c #0E128E",
",.	c #B7B4A0",
"'.	c #545453",
").	c #C8C8C8",
"!.	c #FCF396",
"~.	c #32325E",
"{.	c #A9A8A7",
"].	c #36368A",
"^.	c #5C5C5C",
"/.	c #D0CFCE",
"(.	c #FCEB40",
"_.	c #FBF6B5",
":.	c #E6CA16",
"<.	c #848483",
"[.	c #747474",
"}.	c #E0D12F",
"|.	c #6C6C6C",
"1.	c #E8DF72",
"2.	c #BCBCBC",
"3.	c #F7E103",
"4.	c #B4B4B4",
"5.	c #333275",
"6.	c #DAC11E",
"7.	c #C0B232",
"8.	c #3A3A62",
"                                                                                                ",
"                                      4.4.O {.{.D -.-.A A                                       ",
"                                f 2.2.4.4.4.{.{.{.-.-.A A =.=.<.                                ",
"                          /.).).f 2.2.4.O O {.D D -.-.A A =.=.=.<.&.                            ",
"                        /./.).f f 2.2.4.O {.( * < * ( I A =.=.<.<.&.&.[.                        ",
"                    : /./.).).f 2.2.4.4.U B ; 3 3.3.3 Y I =.<.<.<.<.[.&.[.|.                    ",
"                  : : /./.).).).2.2.2.U }.! r r r r r r }.I =.<.&.<.[.[.[.|.|.                  ",
"                c : /./.).).f 2.2.2.U B 3 r r r r r r r r L A <.<.&.&.[.[.[.@.@.                ",
"              : : : /./.).).).2.2.4.e %.3 r r r r r r r Q 3.* <.<.&.&.[.|.|.|.@.@.              ",
"            : : /./.).).).f 2.f 4.4.* x 3.r r r r r r r r r ; m &.&.[.[.|.|.@.@.^.^.            ",
"          : /.: /./.).).f f 2.2.4.,.9 x P r r r r r r r r Q ! m &.&.[.[.|.|.|.@.^.^.^.          ",
"          /./././.).).f f f 2.2.4.O * x 3.3.r r r r r r r r ! m &.[.[.[.|.|.@.@.^.^.'.          ",
"        /./.).).).).).f 2.2.4.2.4.O 4 x P 3 r r r r r r r r L m &.&.[.[.|.@.@.@.^.^.'.'.        ",
"      /././.).).).).2.2.2.2.2.4.O O d Z x P 3 3.r r r r r 3.7 &.&.[.[.|.|.|.@.^.^.'.'.p         ",
"      ).).).).f f f 2.2.4.4.4.4.O O {.4 :.x P 3.3.r r r 3.L m &.[.[.[.|.@.|.@.^.^.^.'.'.p       ",
"      ).f f f f 2.2.2.2.2.4.O O {.{. . .7.:.x 3 3.3 3.3 ; [ &.[.&.[.|.|.|.@.@.^.^.'.'.p p       ",
"    2.f f 2.2.2.2.2.4.4.4.4.O {.d d d  . .> 6.:.:.; ; 7.[ <.&.<.[.[.|.|.@.@.@.^.'.'.'.p p 0     ",
"    f 2.2.2.2.2.4.4.4.4.O {.{.O 9 3 ! ; B > > t t t [ 7 [ ~ 7 * _ [.|.@.@.^.^.'.^.'.p p 0 0     ",
"    2.2.2.4.2.4.4.4.O O O {.{.{.:.3 r r Q Q v $ , Y < Y }.v 3.Q %.y |.@.@.@.^.'.'.'.p p p 0     ",
"  4.4.4.4.4.4.4.4.O O O {.{.{.i :.3 r r (.!.!.) ) F !.!.H K Q r r * [.@.@.^.^.^.'.p p p 0 2     ",
"  4.4.4.4.O O O {.{.{.{.{.D D {.%.3 3.v !.E = %.L u ;.W 1.v r r r ! _ @.@.^.'.'.'.p p 0 0 0 2   ",
"  O {.O {.O {.{.{.{.{.{.D D -.I x 3 3 1.;._.Q r 3 < k E (.r r r r r L y ^.'.^.'.'.p 0 0 0 2 -   ",
"  O {.O {.{.{.{.{.D D -.-.-.-.> x 3 ! < ;._.Q r r L W E (.r r ! s 3 3.7.@.'.'.'.p p 0 0 2 2 -   ",
"  D {.{.D {.D D D D -.-.-.-.-.9 P 3 3 Y k E (.r 3.1.;._.Q r 3.9 y % 3 ! ~ g '.p p p 0 0 2 - S   ",
"  D D D D D D -.-.-.-.-.-.A A Z P 3.3.! l k _.K = | H (.r r 3 # |.T ~ 7.%.~ '.'.p p 0 2 - - S   ",
"  -.-.-.-.-.-.-.-.-.-.A A A A 6.P 3.r 3.v | ) 1.1.= v r r r %.g @.+ ^.w ~ 5 p p 0 0 2 2 2 S S   ",
"  -.-.-.-.-.-.A A A A A A =.[ 6.P 3.r #.1.E = ! ! r r r r r %.g @.^.^.'.'.p p p 0 0 0 - - n n   ",
"  A A A A A A A A A =.=.=.=.=.6.P 3.r ! *.;.E !._.!.!.K (.r %.g ^.'.^.'.p '.p 0 0 0 - - S S n   ",
"  A A A A =.A =.=.A =.=.=.=.m Z 3.3.r #.< k ;.;.;.;.;.;.E K %.g ^.^.'.'.p p p 0 0 2 - - S n     ",
"    =.=.=.=.=.=.=.<.=.<.<.<.<.:.P 3.r (.H | 1., Y Y l M ;.E }.T '.'.'.p p 0 0 0 2 - - S n n     ",
"    =.=.=.=.=.<.=.<.<.<.<.<.<.Z P 3 #.F E = 3 3 P 3 P < k E }.T '.'.p p p 0 0 2 2 - S S n n     ",
"    <.<.<.<.<.<.<.<.<.<.[.[.&.Z x P Y W E (.Q r r r r $ F _.}.w '.'.p p 0 0 2 2 - S S n n &     ",
"      <.<.<.<.&.&.&.&.[.].o C b P P ; M ;.!.(.` ` Q (.!.F K %.w p p p p 0 0 2 2 - n n n n       ",
"      &.&.&.&.&.&.&.&.$.o >./ @ x P 3 L l | H H H H ) 1.` r %.w p p 0 0 0 2 - S S S n & &       ",
"        &.&.&.&.[.[.|.N N N @.# :.P 3.3.P ! $ }.! ! 3.3.r r ! + p 0 0 0 2 2 - S n n n &         ",
"        [.[.[.[.[.[.j >.J $.N 5 Z P r r r r 3.3 %.! 3.r 3.r ! + 0 0 0 2 - - S S n n & &         ",
"          [.[.[.|.|.j J X X >.p Z x 3 r 3.3.:.# 5 ..6.P P 3.! + 0 0 2 2 - - n n n n &           ",
"          |.|.|.|.|.|./ X X X / b x 3.r 3.s z / o 8 { # ; P %.z 0 2 - - S n n n & &             ",
"            |.|.|.@.@.C X X X J # Z P 3.:.^ o X X h ] . ' Z x % p 2 S S S n n n & &             ",
"              @.@.@.@.N 5.X X X ' Z P x # / X X X X h ] . ..Z b 0 S S S n n & & &               ",
"                @.N ^.^.'.5.>.X '.Z x s '.a J >.X X X h ] . b b 0 S n n n & & &                 ",
"                  ^.^.^.^.'.].a 5.b Z ..p p p 8.G a o >./ 8 ' @ 0 S n n & & &                   ",
"                    '.'.'.'.'.p +.# b + 0 0 0 0 0 2 2 G a / 8 ^ - n n & &                       ",
"                        '.p '.p p ^ ..p p 0 0 0 2 2 - - - ~.n n n n & &                         ",
"                            p p p 0 0 0 0 0 2 2 2 - S S S n n n & &                             ",
"                                0 0 0 2 0 2 2 - - - S n n n n &                                 ",
"                                        - - - S S S S n                                         ",
"                                                                                                "};
