/* XPM */
static char * rndgnatq_xpm[] = {
"48 48 25 1",
" 	c None",
".	c #020204",
"+	c #707070",
"@	c #3C3C3C",
"#	c #A8A8A7",
"$	c #202020",
"%	c #8C8C8C",
"&	c #585858",
"*	c #C4C4C4",
"=	c #161617",
"-	c #828281",
";	c #4E4E4E",
">	c #BABAB9",
",	c #323232",
"'	c #9E9E9F",
")	c #666667",
"!	c #D1D1D0",
"~	c #787878",
"{	c #B0B0B0",
"]	c #29292A",
"^	c #0B0B0C",
"/	c #444444",
"(	c #949494",
"_	c #5E5E5C",
":	c #CACACC",
"                                                ",
"                   -({{##''-_                   ",
"                {>>>{###''(((%%+                ",
"             -***>>{{{##'''((%%--~              ",
"            !:***>>{{{##'''((%%---~)            ",
"          #!!::*>>>>{###''((%%%--~-~~/          ",
"         *!!:***>>{{{##''''(%%%--~~+++&         ",
"        !!!!::**>>>{{###''(((%----~~++)&        ",
"       !!!!:***>>>{{{#''''((%%%--~~~++))&       ",
"      !!!!:::*{>>>{{###''((%%%--~++++)))_;      ",
"     #!!!!*(@-;('>#{##'''(((%%-+_,/]_+_)_&,     ",
"     !!!!*:,..,-+;(###''('(%%&@&&^..@))__&&     ",
"    !!:::*'&..=~#'_''#''((%%)&~+@.../_))_&&/    ",
"   -:::**:)@)...,&+##''('%(%-;/=...;=;)__&;;    ",
"   ******>;{'=..^_'''''((%%%-~,...$);,___&&;/   ",
"   ****>>(+>_=^..%##''(((%%--~;..=.&),_&&&;;;   ",
"  {*>**>>'&-/&-]='''''(((%%%--_.]_,];]_&&&;;/,  ",
"  >>>>>>>{+)''##''''((((%%---~~+++)&,/_&&;;/;/  ",
"  >>>>>{{{{{{###'#'''(%--%----+~+)+))__&&;;;/@  ",
" ~>>{{{{{{{###'''''(%]^^^,+-~~~+++))__&&;;;///  ",
" ({{{{{{######'''(((-,;@..$-~~~+))))__&&&;;//@] ",
" {#{{{{#####''''('(((%%-].$~~++++))__&&;;;//@@, ",
" {#######'''''''((%%%-%~^=+~~++))))_&&&;;;;//@, ",
" ##'#'#'''''''(((((%-%+=^)~~++)+))_&&&;;;///@,, ",
" '#''''''''(((((%%%%--/=]~~+++))_)__&&;;;//@@,] ",
" '''''''''('((%%%%%---+_)~+++))))_&&;;;;//@/@,, ",
" (''('((((((%(%%--%---,.=++++))___&&&;;;//@@@,] ",
" -((((((((%%%%%-%----~)&&++)))_)_&&;;;///@@@,,$ ",
" _((((%%%%%%-%----~~~~+~+++)))_&_&&;;;;///@@,,  ",
"  %%%%%%%%%%-----~-~~+~++)))_)_&&&;;;///@@,,,,  ",
"  %%%%%---,,_+-))~~~~++)+)))__&@;;/,=$/@@@,,,]  ",
"  +------);~,,@^.)~++)+))))__&@.^,=$/$@@@@,,,=  ",
"   ------)@-;^...;+++))))___&;,...^@/=@@,,,,]   ",
"   ~-~--~~,))^..=;))))))___&&;]...^/]]@,@,,]$   ",
"    ~~~~~~/=]...,@@)))___&&&/,]=...$.,@,,,,]    ",
"    +~~+~++,..=_);@_))___&&;/]/;,...,,,,,]]$    ",
"     ++++++$..=,@,_____&&&&;;@]]]...$@,,,]]     ",
"     /+)+))_@&@)_)___&&&&;;;;;/@@$,$,,,]]]      ",
"      &))+)))______&&&;;;;;/////@@@,,,,]]=      ",
"       _)____)_)&&&&&;&;;;/;///@@,,,,,]]$       ",
"        &)__&&&&&&;;&;;;;///@@@@@@,,,]]$        ",
"         ;__&&&&&;&;;;;////@/@@,,,,]]]=         ",
"          ,&&&;;;;;;//;////@@,@,,,,]]           ",
"            /;;;;;;/;///@@@,@,,,,]]$            ",
"              /;/////@@/@@@,,,,]]$              ",
"                ,//@@/@@,,,,,,]$                ",
"                    ],,,,,]$                    ",
"                                                "};
