/* XPM */
static char * rndghost_xpm[] = {
"48 48 17 1",
" 	c None",
".	c #1F1F1E",
"+	c #8B9196",
"@	c #CECFD0",
"#	c #366694",
"$	c #B3B4B4",
"%	c #EBEBEB",
"&	c #6183A7",
"*	c #414140",
"=	c #DEDEDF",
"-	c #9E9E9F",
";	c #616160",
">	c #7D7D7E",
",	c #C2C2C1",
"'	c #323232",
")	c #F8F8F8",
"!	c #4E4E4E",
"                                                ",
"                   >>--++++;!                   ",
"                -$$$$$-$----++>;                ",
"             >,,,,$$$-$-----+-+>>;              ",
"            ,,@,,,$$$$----+--->+>>>;            ",
"          -@@@,,$,$$$$$$$--->+->+>>;;'          ",
"         ,@@@@,,,,,$$$-$$$$->+-;+>>>>;!         ",
"        @@@@@,,,,$--+>>>;>>;+$$>>>>;>;;*        ",
"       @@=@@,@@$++>>>>;>;>+$$$+;>>>>;;;;!       ",
"      ,=@@,@@,+>>>>;;>+$,,,,,-;;;->>>>;;!'      ",
"     +@@@@@@,+>>>>;+$@@@,@,$>!;!;;+>;;;;;;.     ",
"     =@@@,,@->>>>;+,@@@@@@,>!!!!!;;-;>;;;!*     ",
"    $@@,@,@$>>>>;>@@@@@+,@+!!!!!!!!+>;;;;;!*    ",
"   >@@,@,,@->>;>;+==-$,&@@+!!!!!!!!;+;;;;!!*    ",
"   $,@,,,,,+>>;;;+@=--@+@=,;*!*!*!!;>;;;;!!!*   ",
"   ,,,,,,$@+>;>;;>==@$===@=,;****!*>+;;!;;!*'   ",
"  -,,,,$,$,->;;;;;,=====@===,>****!+>;;;!!!!!.  ",
"  ,,,$$,$$$,>;;;!!>@===$&$==@@!***;->;;;;!!!*'  ",
"  $$$$$$$$$$$;;!!!*;-%%=&#@%==;**>->;;!!;!!!**  ",
" >$$$$$$$$-$$$>;!****>%%$+%%=$!*>-;;;;;;!!!**'  ",
" >$$$$$$-$--$$,$;!**'*@%%%%%-!;$+>;;;;!!!!!***. ",
" $$$$-$-$-$-$$->!*''*;=)))@--,,+>;;;!;;!!!!**'. ",
" ---$-----$$+;!!!;>-$=))))%@=+>;;;;;;!!!!!*!**' ",
" -$--$-$--$>;!!!;@==%%%)))=>>;>;>;;;!;;!!****'. ",
" +-------$>;;!!!!>$,==%)))%,---;;;;;!!!!!!**''' ",
" --------->;!;!!****!!;;;>>+-$,,-;;!;!!!*****'. ",
" +----+-+-;;;!!!!**'*''''.'.'''!>+->!!!!***'''. ",
" >-+++-+-$>;;!!!****'''''''''''*''!;+;!*****''. ",
" !+++++++--;;!!!!***''''''''''''*'*'!>!!**'*''  ",
"  ++++>+>++->;!!!****'*'''''''*'''*'**>!**'''.  ",
"  >>+>++>+>+$->>;!!!****'*'*''*'*''*'';;*''''.  ",
"  >>+>>>>+-+-$$$$-$----+-+>>;!**''*''*!>**''..  ",
"   >>>+>++>;;!;+$$,,,,,,,,,$$$-;*''*''!;*'''.   ",
"   >>>>>+;;;;;--$$$+>>+-$$$$$$$-!'*''';;'''..   ",
"    >>>>>;;;!+-$-$-!;--$$$$-$-->*''*'*;;*''.    ",
"    ;>;>>;;!;>-----!!;+-+--++>;*'*''*;;!''..    ",
"     >;>>;;;!;+---->;**!*!****'*'**!;!!*'..     ",
"     *>;>;;!;!;;+++-+>>;;!!!*!!!;;;!*!*''.      ",
"      !;;>;;!!!!!;;>>>>>+>+>>;;;!**!!*'...      ",
"       ;;;;>;;;!!*!**!*!*********!!*'.'..       ",
"        !;;;;;;;;!!!*****'****!;!!*'''..        ",
"         !;;;;;;;;;;;;;;;;!;;!**'''''..         ",
"          .!!!!!!!!!!!******'*'''''..           ",
"            !!;!!!!*******'*''''.'..            ",
"              *!!*!*!*****'''''''.              ",
"                '*****'*''''''..                ",
"                    .''''''.                    ",
"                                                "};
