/* XPM */
static char * rndgmem_xpm[] = {
"48 48 9 1",
" 	c None",
".	c #3A3A3B",
"+	c #989898",
"@	c #686868",
"#	c #C7C7C7",
"$	c #525252",
"%	c #B6B6B6",
"&	c #818181",
"*	c #E2E2E2",
"                                                ",
"                   &+%+++&&@.                   ",
"                %%%%%%%%%%++++&@                ",
"             &######%%%%%%%%+++&@@              ",
"            %%####%#%%%%%%%%+%+++&&@            ",
"          %############%%%%%%%+%++&@@.          ",
"         %##*#######%##%#%%%%%%+%+++&@$         ",
"        #*#*###############%%%%%+%++&&@.        ",
"       ##*###*########%#%#%#%%%%%+%++&&@$       ",
"      #*###+&+&&&&@&@@&@@@@@@@@@@@@@++&&$.      ",
"     +##*##****************#%%%%+%+++&&&@@.     ",
"     ##%%%%#***************#%%%%%%%%+&&&@$.     ",
"    %##%%+#****************#%%%%%%+%&&+&@@@.    ",
"   &###%%+%#***************#%#%%%%%%&+&+@@@.    ",
"   %###%%%%%%%%%%%%#%#%#%%%+%##%%%%%++++&&&@.   ",
"   #######%+++&++++++&+&++++######%#%%%++&&@.   ",
"  +######*%+++++&+&+&+++&+&+++++&+&+%%%+++&@$.  ",
"  %#######%%%%%%%%+++++++++++++++++++%%%+&&&$.  ",
"  %###%%%%+*******%##%#%##%%#%%%%%%%++++&&&&@$  ",
" &%%%#++++&*******%###############%%%+++@@&&$.  ",
" +%#%#+++&+*******#%#######%##%#%#%%%+&+&&&&@$. ",
" %%%%#++++&*******%#%##%#######%##%#&%++&@+&@.. ",
" +%%######%@@@@@@@&################%##%%%++&@@. ",
" +%%%%#######*#*##*#*#*#*##*##*######%%%+++&@.. ",
" +%%%%####%&@@@@@@$@@$@@@@@$@@@@@@@@%#%%+++&@$. ",
" %+%%%%%+%%*+%%#%##%###%#%###%%#%%%%%+&+&++&@.. ",
" ++%%%&+&&&*%#%######%############%##++&&@&&@$. ",
" +++%%++&&+*+%##%#%#######%##%#%#%%%%%+&@&&&@.. ",
" $+%+%&&++&*%%#####%###########%#%#%%+++&@&@@.  ",
"  +%+%%%%%+&+#%%#%##%#%##%#%#%##%%%%#+%++&&@$.  ",
"  &++%+%%#%%#********************####%%++&&@$.  ",
"  &+++%%%%%@@$@$@$@$@$@$@$@$@$$$@@@@+%+++&@$..  ",
"   &++%%%%+#*#+%%%%%%%%%%%%%%%%%%++%+&+&&&@$.   ",
"   &+++&+++#*#%%%%%#%#####%#%%%%%%%++&&&$$@..   ",
"    &++&&&+###+%#%%#%%%%%#%#%%%%%%+%+&&@$$$.    ",
"    &&&&&&+%##+%%%%%#%##%%%%%%%%+%+++@&@$...    ",
"     &&&&&+%+%+%%%%%%%%%%%%%%%%+%++++@@@@..     ",
"     $&&+&+@&@%%%%%%%%%%#%%%%%%%%++++&@@$.      ",
"      @&&&++%+%%%###########%%%%+%++&&@$..      ",
"       @&&&+++++%+%%%%%%%%%%%+++++&&@@$..       ",
"        @@&&+++++%++%%+%+%++++++&&&@@$..        ",
"         @@&&&++++++++++++++++&&&@@$$..         ",
"          .@@@&&&++++++++++&&&&@@@$$.           ",
"            $@@@&@&&&&&&&&&&&&@@$$..            ",
"              $@@@@@&@&@@@@@$@$$..              ",
"                .$$$@$@@@@$$$...                ",
"                    ........                    ",
"                                                "};
