/* XPM */
static char * rndgaleon_xpm[] = {
"48 48 256 2",
"  	c None",
". 	c #2E2E2E",
"+ 	c #9A9A7E",
"@ 	c #5A5E5E",
"# 	c #928A70",
"$ 	c #7A7A6A",
"% 	c #D2C69A",
"& 	c #3E4242",
"* 	c #BAB682",
"= 	c #727666",
"- 	c #66665A",
"; 	c #4A4E4E",
"> 	c #AEAE7A",
", 	c #6A6E6F",
"' 	c #86826E",
") 	c #B6AA7E",
"! 	c #C6C6C6",
"~ 	c #565A5A",
"{ 	c #EAE69E",
"] 	c #A2967A",
"^ 	c #CAC296",
"/ 	c #969A92",
"( 	c #A29E86",
"_ 	c #B6AE8E",
": 	c #323232",
"< 	c #9A8E74",
"[ 	c #B6B6B6",
"} 	c #EAE29E",
"| 	c #4E5252",
"1 	c #BEC2C2",
"2 	c #B6AE92",
"3 	c #363636",
"4 	c #424646",
"5 	c #9A9E9E",
"6 	c #9EA2A2",
"7 	c #8A8E8D",
"8 	c #6E6E62",
"9 	c #DAD69E",
"0 	c #928672",
"a 	c #727A8A",
"b 	c #5E6261",
"c 	c #6E6A69",
"d 	c #B6AA86",
"e 	c #827A76",
"f 	c #BEBA9A",
"g 	c #626A72",
"h 	c #8A8A76",
"i 	c #7E8283",
"j 	c #727262",
"k 	c #3A3E3E",
"l 	c #7E8688",
"m 	c #CACACA",
"n 	c #C2BE9E",
"o 	c #7A7E7E",
"p 	c #E2D296",
"q 	c #AAAEAE",
"r 	c #92927E",
"s 	c #565652",
"t 	c #9E967E",
"u 	c #464A4A",
"v 	c #8E8A7A",
"w 	c #969282",
"x 	c #A6AAAA",
"y 	c #B2A68A",
"z 	c #CECECE",
"A 	c #BABABA",
"B 	c #76766A",
"C 	c #626E7A",
"D 	c #5E6670",
"E 	c #969686",
"F 	c #6E7272",
"G 	c #AEB2B2",
"H 	c #A6A6A6",
"I 	c #6E6E6E",
"J 	c #868682",
"K 	c #565E66",
"L 	c #8A8A7E",
"M 	c #5A626A",
"N 	c #626A78",
"O 	c #767A7A",
"P 	c #CAB68A",
"Q 	c #BEBEBE",
"R 	c #7A766E",
"S 	c #9E9A7E",
"T 	c #8E9292",
"U 	c #626666",
"V 	c #727272",
"W 	c #828686",
"X 	c #8E8A82",
"Y 	c #3A3A3A",
"Z 	c #7A7A76",
"` 	c #B2A686",
" .	c #E2CE8E",
"..	c #6E767E",
"+.	c #E6DA96",
"@.	c #868A8A",
"#.	c #929696",
"$.	c #62666A",
"%.	c #5A5E67",
"&.	c #BEB282",
"*.	c #5A5A56",
"=.	c #8E8E8E",
"-.	c #666A6A",
";.	c #9A9286",
">.	c #5E5E56",
",.	c #828282",
"'.	c #D2D2D2",
").	c #5A5A5A",
"!.	c #5E6266",
"~.	c #525252",
"{.	c #666A72",
"].	c #8E8E92",
"^.	c #A69E7A",
"/.	c #6A665E",
"(.	c #5E5E62",
"_.	c #7A7A7A",
":.	c #828286",
"<.	c #8A8A8E",
"[.	c #7A7E86",
"}.	c #6E6E72",
"|.	c #727276",
"1.	c #5A5A5E",
"2.	c #9A9A9E",
"3.	c #BEAE8E",
"4.	c #868686",
"5.	c #8A8A82",
"6.	c #D2BE92",
"7.	c #8E8686",
"8.	c #4E4E52",
"9.	c #7E7666",
"0.	c #56565A",
"a.	c #827E82",
"b.	c #6A7286",
"c.	c #929292",
"d.	c #76767A",
"e.	c #7A7E82",
"f.	c #86868A",
"g.	c #EEEEA6",
"h.	c #CEBE8E",
"i.	c #525256",
"j.	c #7A7A7E",
"k.	c #727676",
"l.	c #726E6D",
"m.	c #4A4A4E",
"n.	c #6E727B",
"o.	c #666666",
"p.	c #46464A",
"q.	c #B2AE86",
"r.	c #96969A",
"s.	c #929296",
"t.	c #4E4E4A",
"u.	c #9E9E9E",
"v.	c #62625A",
"w.	c #AAAAAA",
"x.	c #86827F",
"y.	c #767676",
"z.	c #827E76",
"A.	c #A2A2A6",
"B.	c #B2B2B2",
"C.	c #767276",
"D.	c #666E7A",
"E.	c #767A86",
"F.	c #72726C",
"G.	c #8A8681",
"H.	c #868676",
"I.	c #A6A27E",
"J.	c #626266",
"K.	c #7A7A6F",
"L.	c #424242",
"M.	c #9A9A9A",
"N.	c #A2A2A2",
"O.	c #3E3E3E",
"P.	c #5A5656",
"Q.	c #4A4A4A",
"R.	c #969696",
"S.	c #6A666A",
"T.	c #928E86",
"U.	c #6A6A6A",
"V.	c #6A6A6E",
"W.	c #7E7A7A",
"X.	c #A2A286",
"Y.	c #96927A",
"Z.	c #A2A6A6",
"`.	c #9E9EA2",
" +	c #8A8A8A",
".+	c #626262",
"++	c #C2C2C2",
"@+	c #7A7678",
"#+	c #AEAEB2",
"$+	c #B2B2B6",
"%+	c #6A727A",
"&+	c #5E5E5E",
"*+	c #B6B6BA",
"=+	c #E2D692",
"-+	c #C8BA8C",
";+	c #D4C294",
">+	c #BABABE",
",+	c #A6A6AA",
"'+	c #8E8A8A",
")+	c #424246",
"!+	c #626671",
"~+	c #76726D",
"{+	c #AAAAAE",
"]+	c #525656",
"^+	c #3E3E42",
"/+	c #827E7C",
"(+	c #BEBEC2",
"_+	c #5E6272",
":+	c #464646",
"<+	c #7E7E7E",
"[+	c #AEAEAE",
"}+	c #767272",
"|+	c #66666A",
"1+	c #625E62",
"2+	c #5E5A5E",
"3+	c #8A8686",
"4+	c #7E7E82",
"5+	c #8A868A",
"6+	c #565656",
"7+	c #EEEA9E",
"8+	c #BAB28E",
"9+	c #EADE96",
"0+	c #C2B28E",
"a+	c #867E7A",
"b+	c #7E7A76",
"c+	c #7E7A6E",
"d+	c #8A8276",
"e+	c #969A9A",
"f+	c #8A8E92",
"g+	c #92867A",
"h+	c #3A3A3E",
"i+	c #E2CE96",
"j+	c #A69E82",
"k+	c #4E4E4E",
"l+	c #666E82",
"m+	c #928E8E",
"n+	c #7E7A66",
"o+	c #5E626E",
"p+	c #666A76",
"q+	c #8A8672",
"r+	c #7E7676",
"s+	c #C2C2C6",
"t+	c #6E7276",
"u+	c #565A5E",
"v+	c #A69E86",
"w+	c #BAAE92",
"x+	c #8E8A76",
"y+	c #96927E",
"z+	c #AA9E7E",
"A+	c #7E7E86",
"B+	c #B6AE8A",
"C+	c #6A6E7E",
"D+	c #AAA282",
"E+	c #A6A286",
"F+	c #9A927A",
"G+	c #E6D696",
"                                                                                                ",
"                                      [ B.[+w.H N.u.M.R.c.                                      ",
"                                ++Q A [ B.[+w.H N.u.M.R.c.=. +4.                                ",
"                          m ! ++Q A [ B.[+w.H A.N.u.M.R.c.=. +4.,.<+                            ",
"                        z m ++Q A [ B.[+{+,+H u.u.M.R.s.c.=. +f.:.<+_.y.                        ",
"                    '.z ! ++(+A [ B.[+H w.H `.u.M.e+R.c.@.<. +4.J ,.<+_.V I                     ",
"                  '.z m ++1 A [ $+#+{+R.H N.`.2.M.r.R.5+_.<+ +4.,.<+_._.y.I U.                  ",
"                '.z m ++(+A *+$+[+q w.=.u.N.u.5 r.R.c.<+<+<+ +:.,.4+o d.|.V I o.                ",
"              '.z ! ! ++A [ B.G w.w.H ].M.u.2.M.r.R.c.k.d.,. +:.,./+<+Z |.}.I |+.+              ",
"            '.z m ! Q A *+[ B.{+{+H A.c.=.5 M.r.R.s.<.}+I  +f.4.,.4+_.d.y.V I U.o.&+            ",
"          '.z ! s+1 [ H {+#+[+w.,+Z.N.r.a.M.R.R.s.c.4+o.|. +f.4.,.,.<+_.V .+o.o.o.&+).          ",
"          m ! ! ++A *+H =.H w.H N.`.u.M.O m+r.s.c.T O |.f.f.4.:.i <+j.k.&+.+(.U.U .+).          ",
"        m ! s+Q >+[ $+N.R. +`.A.N.`.5 M.T  +#.s.m+]. +O  +@.f.4.i i @+&+U >., U.J..+).6+        ",
"      ! ! s+>+A [ [ B.{+].T ,.u.`.5 e+r.s.].5+W :.,.W 4.@.f.4.:.a._.@ U 2+}.}.U.o.b @ 6+        ",
"      ++++Q *+[ B.[+[+w.A.:.4.y.r.r.R. +x.<+W._.@+C.y.l.y.j.4+:.<+).J.).|.V I U.o.1+1.6+~.      ",
"      Q A [ [ B.[+{+,+H N.2._.i R.m+a.e r+b+,.7 _.d.C.V |.I V y.<+(.>.y.y.V }.U.|+.+>.6+8.      ",
"    ++A A [ #+q w.w.Z.A.N.5 M.R.'+7.x./+b+@+R _.y._.d.C.|.l.|.V.l.d.O O d.V }.U.|+!.&+6+~.:+    ",
"    Q [ B.[+[+{+w.Z.N.N.u.2.r.=.G.a+a+b+@+}+l., I F y.O C.k.V I -.V.d.@+C.|.I V.o.1+1.~ 8.:+    ",
"    A G #+q w.,+A.A.`.2.2.M.'+5.4.,.e ~+U.{.{.!+J.(.1.U d.y.k.|.F |+-.k.C.|.I U.o..+P.s ~.:+    ",
"  [ B.{+w.c.s.5 N.`.u.5 M.=.m+'+ +x.l.I G.T...N N D %.1.0.F C.l.I , .+|+|.V V.(.~.Q.m.p.k+L.    ",
"  B.B.w.A.m+c. +,.<+=.r.R.5.m+=.].i n.r h.P w %+!+!+M @ 0.i.F l.I -.o.@ o.8.k+| | ; :+m.k+L.O.  ",
"  [+[+,+H 5 =.,./+V V ].'+x.=.].f.}.i -+G+ .0+5.n.N M %.J.s 0.k.c S.|+1.(.s ; k+~.).).6+8.O.Y   ",
"  w.w.N.`.`.`.r.=.].7 7 '+7.=.].k.[.E =+ .i+w+k./+y.!+_+$..+k+$.}.V.|+(.)..+S.|+~.&+).s k+O.Y   ",
"  H H N.u.u.M.i @.r.s.m+x. +T <.%+7 > { +.% :.e.g+r+%+M u+o.8.i., |+J.(.i..+U.S.m.(.).i.k+O.3   ",
"  N.N.u.M.M.,.J.3+r.s.].J <.f+x.J + > } 9+f a G.H.R V c 1.(.P.m.{.V , &+8.b -.o.k+1.~ i.Q.Y 3   ",
"  u.u.M.r.r.=.V o c.T  +'+'+<.i Y.I.* 7+7+n i h d+K.R l.K !.~ Q.S.V.U.&+~.).o.o.; ).6+~.m.Y 3   ",
"  M.M.R.R.R.s.j.:.].].<.c.c.a.,.H.j+&.} 9 2 w 4.H.$ B l.!.1.6+u o.J.@ 1.; 0.o.J.k+P.i.| Q.3 :   ",
"  R.R.R.c.c.c._.=.=.=.<.<.<.<.x.K.X.q.8+w ^ 6.j+F+' = 8 c &+k+Q.J.J.(.1.m.0.J.o.m.]+s k+:+3 :   ",
"  c.c.T ].=.=._. +7 7 f.<.f+<.f.|.4+y X.-+6.3.( S < 9.8 - 2+t.6+J.(.@ 1.Q.6+b b p.i.8.m.)+:     ",
"    =.=.7 =.=.j.:.<. +@.W <.@.f.d...l R.^ w+2 ) ` ^.x+8 v.]+:+(.(.(.P.i.m.~ 1+1+)+s ~.Q.4 :     ",
"     +<. +@. +i y.f.5+f.i f.f.:.4+}.n...[.J ( ^.t < 0 j >.t.~..+@ @ ~ ; k+@ b 2+L.~.t.:+O..     ",
"    3+4.f.f.f.x.I 4.W f.a.4+:.,.a.j.C+D.l+C g+x+< # 9./.~.k+(.(.2+P.i.:+~.(.&+| u 8.m.L.O..     ",
"      ,.x.:.W :.I 4+,.W :._.4+W.e._.@+, !+F R $ c+B v.P.s &+(.1.u+P.m.m.P.(.1.L.k+; p.L.Y       ",
"      ,.i i 4+a.j.c ,.4+i e.d.e.@+j.j.d.t+|+b b >.*.*.&+(.&+@ 1.u+8.p.~.@ &+s ^+~.:+:+h+h+      ",
"        <+<+<+o 4+|+_.<+<+<+d.|.k.d.y.C.k.l.}.U.S.o.o..+&+2+@ ).| :+8.1.2+1.L.Q.k+:+L.Y         ",
"        _._.j._._.|.o.j.j.j._.|.c }.l.}+l.I c I o U..+&+&+@ 0.8.p.k+~ @ @ k+L.k+p.L.Y Y         ",
"          y.y.d.Z d.o., O _.O d.|.-.|+V.c |+S.c y.o.(.1.1.0.m.:+| P.2+1.i.Y m.Q.L.O.Y           ",
"          k.V k.|.C.y.1+I |.y.d.d.l.U.1+.+o.o.U .+&+2+6+k+Q.t.]+1.@ @ 6+O.Q.m.4 ^+Y             ",
"            l.I F I F I &+S.V V |.F F V..+).0.i.~.| k+k+~.i.).&+(.1.6+O.p.Q.)+L.Y O.            ",
"              I U.I I I V.).(.}.}.}.I I c U.o..+(.&+&+&+(.b (.2+).8.h+p.Q.:+L.Y h+              ",
"                -.o.|+U.V.U.1.]+J.V.V.V.U.-.U.o.o.J.J.b 1+&+@ 6+:+O.Q.Q.:+O.Y k                 ",
"                  o.o.U U o.o..+~.8.&+o.J.J.J.J.b b &+2+1.i.:+h+:+m.Q.)+O.h+O.                  ",
"                    J.v.(.b .+.+.+&+| m.k+i.P.1.P.0.| :+& ^+Q.m.Q.:+L.O.Y                       ",
"                        &+&+2+&+&+1.2+>.).~.k+p.u :+p.k+k+k+Q.:+4 ^+O.^+                        ",
"                            6+~.]+]+i.| | | ~.m.; Q.p.:+L.^+L.Y Y Y                             ",
"                                :+L.L.O.L.O.Y O.Y Y 3 : : . . .                                 ",
"                                        Y O.3 3 3 3 : :                                         ",
"                                                                                                "};
