/* XPM */
static char * rndgdam_xpm[] = {
"48 48 256 2",
"  	c None",
". 	c #323233",
"+ 	c #749B8F",
"@ 	c #505A58",
"# 	c #52726E",
"$ 	c #C1C2C6",
"% 	c #A29A4A",
"& 	c #928B4F",
"* 	c #AEB6AA",
"= 	c #3E4345",
"- 	c #9E9A76",
"; 	c #767254",
"> 	c #A1A288",
", 	c #698B77",
"' 	c #77745E",
") 	c #556E6B",
"! 	c #6F867C",
"~ 	c #9DA39E",
"{ 	c #938E66",
"] 	c #464A4C",
"^ 	c #52635F",
"/ 	c #86825E",
"( 	c #889678",
"_ 	c #7E8C88",
": 	c #B6B29A",
"< 	c #8E9692",
"[ 	c #7D7A61",
"} 	c #99A3AF",
"| 	c #979695",
"1 	c #4E5255",
"2 	c #D1D2D4",
"3 	c #5A6E66",
"4 	c #7F8BA8",
"5 	c #646249",
"6 	c #648678",
"7 	c #82A893",
"8 	c #8A8662",
"9 	c #666452",
"0 	c #9EAEB8",
"a 	c #6A7A82",
"b 	c #393A3B",
"c 	c #736E52",
"d 	c #6A7277",
"e 	c #8C97B9",
"f 	c #989EB5",
"g 	c #76867A",
"h 	c #8A8A8C",
"i 	c #9A9E56",
"j 	c #5E747E",
"k 	c #767A6A",
"l 	c #8D8652",
"m 	c #CCCED0",
"n 	c #5A5A46",
"o 	c #626A62",
"p 	c #565A5C",
"q 	c #656E72",
"r 	c #BAB9AD",
"s 	c #A9AE9B",
"t 	c #4F4D5C",
"u 	c #7FA293",
"v 	c #7A7666",
"w 	c #748283",
"x 	c #8A866E",
"y 	c #A8AAAD",
"z 	c #767A80",
"A 	c #8B8D98",
"B 	c #96969A",
"C 	c #5E828D",
"D 	c #7399AA",
"E 	c #585467",
"F 	c #73919B",
"G 	c #858052",
"H 	c #8EA983",
"I 	c #668272",
"J 	c #707683",
"K 	c #868262",
"L 	c #7F869A",
"M 	c #B8BAC1",
"N 	c #B6B2A2",
"O 	c #A2A692",
"P 	c #828272",
"Q 	c #C5C6CA",
"R 	c #B4AF86",
"S 	c #858AA1",
"T 	c #A69E6C",
"U 	c #746E5A",
"V 	c #524E46",
"W 	c #919292",
"X 	c #5A564A",
"Y 	c #6A6E6E",
"Z 	c #605E70",
"` 	c #B0B2B4",
" .	c #5A7E76",
"..	c #9FA5B7",
"+.	c #6E6A56",
"@.	c #7A7A80",
"#.	c #7AAA9E",
"$.	c #4C4A40",
"%.	c #6E7272",
"&.	c #525251",
"*.	c #9A9EA3",
"=.	c #8B8A75",
"-.	c #5A5A5A",
";.	c #92A296",
">.	c #9298AA",
",.	c #707279",
"'.	c #616262",
").	c #647E72",
"!.	c #4A4A4B",
"~.	c #A5AEB7",
"{.	c #A3AABD",
"].	c #47463B",
"^.	c #6C6A5E",
"/.	c #576A66",
"(.	c #424243",
"_.	c #626665",
":.	c #8D9E78",
"<.	c #ABAA9A",
"[.	c #9AA26A",
"}.	c #767657",
"|.	c #A6A27A",
"1.	c #868276",
"2.	c #A0A2AB",
"3.	c #6E8A7D",
"4.	c #555655",
"5.	c #928C5E",
"6.	c #5A5E5F",
"7.	c #4E4E46",
"8.	c #6F9AA2",
"9.	c #3A3E40",
"0.	c #BCBEBF",
"a.	c #83A18C",
"b.	c #61868F",
"c.	c #464647",
"d.	c #ADB2C1",
"e.	c #7E868A",
"f.	c #AEAA5A",
"g.	c #7AA4AC",
"h.	c #AFAA53",
"i.	c #6C6E77",
"j.	c #686A6A",
"k.	c #59736A",
"l.	c #739289",
"m.	c #8891B2",
"n.	c #A9AEC1",
"o.	c #8A929E",
"p.	c #7A8288",
"q.	c #928E6A",
"r.	c #9A9656",
"s.	c #989D95",
"t.	c #353637",
"u.	c #A6A282",
"v.	c #7EAAAA",
"w.	c #979AA7",
"x.	c #70767A",
"y.	c #92A2B2",
"z.	c #7A7E8A",
"A.	c #A4A6A7",
"B.	c #767678",
"C.	c #80794F",
"D.	c #7A7E82",
"E.	c #99977F",
"F.	c #808284",
"G.	c #AAB6BE",
"H.	c #96926E",
"I.	c #C9CACD",
"J.	c #85909F",
"K.	c #929EAA",
"L.	c #627A6E",
"M.	c #AAA272",
"N.	c #ACAEB1",
"O.	c #827E6E",
"P.	c #53525C",
"Q.	c #666666",
"R.	c #82A2AE",
"S.	c #98925E",
"T.	c #5C6E75",
"U.	c #7AA28E",
"V.	c #676A73",
"W.	c #625E49",
"X.	c #858689",
"Y.	c #B6B6B9",
"Z.	c #7F828B",
"`.	c #858A96",
" +	c #8E8E8F",
".+	c #8CA288",
"++	c #60746A",
"@+	c #A29E92",
"#+	c #B8BAB8",
"$+	c #607C87",
"%+	c #92A2AE",
"&+	c #9E9A9C",
"*+	c #767A79",
"=+	c #BEBECA",
"-+	c #767C88",
";+	c #8F9299",
">+	c #4A4656",
",+	c #758A83",
"'+	c #9A9EAA",
")+	c #7D795A",
"!+	c #596464",
"~+	c #4D4E4F",
"{+	c #9D9967",
"]+	c #717A7A",
"^+	c #5A5E6A",
"/+	c #A6AAB6",
"(+	c #A2AA62",
"_+	c #565B66",
":+	c #A3A6B0",
"<+	c #787682",
"[+	c #B1B6C3",
"}+	c #A4A39E",
"|+	c #9A9888",
"1+	c #6E6E6E",
"2+	c #6B674D",
"3+	c #ADA989",
"4+	c #7B7B79",
"5+	c #707A83",
"6+	c #91969D",
"7+	c #53565B",
"8+	c #ABA86F",
"9+	c #D5D6D6",
"0+	c #3E3E3E",
"a+	c #7E7E81",
"b+	c #5E5E5E",
"c+	c #828DB2",
"d+	c #94927F",
"e+	c #5A5A53",
"f+	c #858B8D",
"g+	c #989A9D",
"h+	c #ACA979",
"i+	c #565E5E",
"j+	c #7A9A8F",
"k+	c #929AB7",
"l+	c #AFAE99",
"m+	c #9E9EA0",
"n+	c #B2B6B7",
"o+	c #505E5D",
"p+	c #738E7F",
"q+	c #717E82",
"r+	c #5C5E51",
"s+	c #96928A",
"t+	c #727271",
"u+	c #C2C2CE",
"v+	c #768684",
"w+	c #ABAEBA",
"x+	c #5A5A6A",
"y+	c #8A8EA2",
"z+	c #586A72",
"A+	c #61666B",
"B+	c #BDBEC6",
"C+	c #9E9C8E",
"D+	c #667A80",
"E+	c #8E929F",
"F+	c #837D5F",
"G+	c #616A70",
"                                                                                                ",
"                                      Y.` N.y A.}+m+g+| W                                       ",
"                                $ 0.Y.` N.y A.2.m+m+g+B W  +h X.                                ",
"                          I.Q $ 0.#+Y.` N.y A.2.m+g+B W  +A f+X.F.a+                            ",
"                        m m Q 0.M #+N N.y y A.2.g+g+6+;+ +h X.X.F.a+@.B.                        ",
"                    9+2 m Q $ B+M Y.d.w+w+:+2.m+'+>.B ;+A h X.F.a+D.@.x.t+1+                    ",
"                  9+2 m m Q =+M Y.[+` /+/+..2.f w.>.E+E+h f+F.F.a+@.<+,.x.%.j.                  ",
"                9+2 m m Q $ 0.Y.` N.n./+:+2.'+g+w.;+E+y+J.X.X.a+@.z z z %.Y Y Q.                ",
"              9+2 m I.I.I.B+Y.` N.y /+:+..'+w.B 6+;+y+y+X.Z.Z.p.@.-+q+]+x.Y j.Q.'.              ",
"            9+2 m m I.I.u+M Y.` w+/+:+..2.*.w.6+;+A o.S `.X.Z.D.w w q+x.d %.j.Q.'.6.            ",
"          9+2 m m I.Q Q B+[+` N.y :+:+..f w.6+;+E+h y+4 L Z.z.g w w q+x.*+Y q _.r+-.4.          ",
"          m m I.Q Q u+u+M d./+y :+2...f f 6+6+E+y+J.S S Z.w ,+,+! w a B.%.Y _.!+-.p p           ",
"        m I.I.Q $ $ $ B+d.d.y :+2.f f f k+E+A A h `.L L L v+,+g ! ! %.x.q '.'.6.!+p p 7+        ",
"      I.I.I.$ $ $ 0.u+[+d./+:+:+2.*.f k+k+E+y+J.`.L 4 4 F l.3.! w v+q+x.'.!+!+!+!+i+&.1         ",
"      Q u+$ $ 0.M 0.B+d.n...2.m+'+w.k+e e o.y+S S L F F F p+3.6 ! X.v+q T.q q !+_+@ P.1 ~+      ",
"      Q $ $ 0.M M M M n.{...'+K.w.6+>.e m.m.c+c+4 4 F D l.3.3.! g f+w D+]+j G+^+_+7+7+1 ~+      ",
"    B+0.r #+#+#+[+M [+{.{...'+w.>.6+>.k+e m.m.c+4 D D D l.p+3.3._ f+w w w x.z+Z x+7+P.1 ~+]     ",
"    0.0.0.0.M 0.0.B+M [+G.d.~.{.{.{.{.0 } y.K.K.g.g.7 a.u U.+ j+< o. +e.D.]+d A+!+i+@ 7+1 ]     ",
"    #+0.#+#+#+#+#+r n+` * ` ~.s <.s s s A.~ K.R.g.7 H .+:.( ( ( s+ +=.1.4+k x.j.'.6.p 7+~+c.    ",
"  n+#+n+n+#+: <.O }+> C+|+h+R E. +=.=.=.=.q.h+v.8+K C.v }.; ; ; 5.l +.}.+.W.n 2+W.&.7.7.7.c.    ",
"  ` n+n+* N *.&+l+3+l+3+3+R R H.E.M.T T 4+'.q.(+F+E v S.5.& ; }.{ C.~+e+; +.~+~+W.n ].(.7.c.c.  ",
"  N.N.N.N.` B g+l+: <.s <.<.h+B.B.h+%+> q.x+[ f.v E l [.:.r.P.4.5.G t e+)+}.V c.9 r+7.= ].c.0+  ",
"  y N.N.y <.| g+l+C+E.d+d+T h+t+B.8+y.~ 5.x+[ f.; t )+; c ^.t P.& C.~+e+v }.&.c.W.e+$.0+$.].0+  ",
"  y A.y y 3+ +s+3+3+u.W <+E.8+i.,.8+K.> 8 E [ h.U t / & l l t t & C.>+n )+; !.c.5 e+$.0+].c.0+  ",
"  }+}+~ A.A.W h C+- - X.<+- 8+i.1+T { { U E l h.U >+l .+a.r.t V & C.>+X v ; $.(.5 e+].b (.(.0+  ",
"  *.~ 2.}+O @+|+s+s+d+d+- u.u.{ H.S.8 8 F+& 8+H % G i U..+{+C.}.5.G 2+c v ; 5 n W.e+V (.].(.b   ",
"  g+*.*.m+}+}+~ g+g+g+g+g+w.K.s.g+s.g+.+u u #.#.a.a.U.a.K.g+H. + +X.P O.x.1+^.'.6.p &.7.].0+b   ",
"  g+g+g+g+g+g+| ;+o.;+o.< o.o.o.J._ J.8.8.8.U.+ 8.+ l.l.< < W =.X.a+*+x.B.Y '.i+p &.7.c.= b t.  ",
"  W W W W s+;+f+X.X.e.Z.e.p.p.p.z.5+J b.b.C , , 6 , 6 p+_ v+e.F.q+x.1+G+Q.A+p 7+1 ~+] (.9.b     ",
"     + + +W h F.X.Z.Z.p.z.z.p.z.5+5+5+C C C , I k.) # V.w ! 4+D.B.i.q Q.A+'.7+1 1 ~+c.= b .     ",
"    h h f+h X.Z.Z.z.z.z.z.-+5+-+J J a $+$+$+6 I ) k. .w 3 q+x.v x.V.G+A+'.!+p ~+= = b b t.t.    ",
"    X.X.X.h Z.a+D.z.z.z -+J <+J J ,.D+$+$+$+).I # k.^ _.^ Y x.%.Y V.'.!+x+p 7+t ] = = b t..     ",
"      1.F.F.D.@.D.@.z J z J ,.J ,.i.$+j j k.L.).) L./.++++o %.Y j.G+Z i+7+7+7+1 ] = 9.b t.      ",
"      F.F.a+@.z B.5+z <+,.J J i.d q j j j j ++L./.) 7+V o+/.j.j._.'.i+7+7+1 ~+] = 9.b . .       ",
"        @.B.B.B.t+,.J x.,.i.d i.i.q j T.j # ++++) @ o+@ o+/._.'.'.-.-.1 ~+] c.c.= b b .         ",
"        *+B.B.x.x.,.,.i.i.d i.q q G+j T.z+z+k.k.) o+@ @ @ /.^ r+p @ 7+1 ~+] = = 9.b . .         ",
"          1+i.1+,.i.i.i.V.V.V.V.V.A+T.z+G+) k.) /./.^ @ @ ^ ^ p 4.4.1 ] c.c.9.b t.. .           ",
"          B.B.B.B.B.@.@.a+@.@.@.a+a+D.a+D.@.4+4+B.o '.1+1+-.e+Q.'.6.4.7+1 !.c.0+b .             ",
"            1+1+t+t+x.t+<+@.@.B.B.<+@.v @.v B.x.t+'.r+_.r+4.&.b+-.-.&.~+!.(.(.b t.t.            ",
"              ^.1+1+1+t+t+1+t+t+t+B.t+t+t+%.1+1+1+j.b+4.-.V 4.&.X &.~+!.(.0+b t..               ",
"                Q.Q.Q.j.^.V.1+1+j.j.1+j.^.j.^.Q.Q.Q.-.b+7+!.~+!.V !.c.c.0+b . .                 ",
"                  '.'.'.Q.Q.Q.Q.Q.Q.Q.Q.Q.Q.Q.'.b+b+4.&.!.~+!.= !.c.(.b b . t.                  ",
"                    '.b+b+b+b+'.'.b+'.Z b+b+b+b+-.4.4.&.(.(.(.= 0+b b t..                       ",
"                        -.-.-.-.-.-.4.e+e+E X &.&.P.V ~+!.!.0+b 0+t.. .                         ",
"                            4.P.4.4.&.&.&.1 &.V ~+~+c.c.(.0+t.b . .                             ",
"                                V !.~+!.~+!.!.c.c.(.(.0+0+b . .                                 ",
"                                        !.c.c.(.(.0+(.0+                                        ",
"                                                                                                "};
