/* XPM */
static char * rndgtcd_xpm[] = {
"48 48 65 1",
" 	c None",
".	c #1D1D1C",
"+	c #797A80",
"@	c #AAAAAE",
"#	c #939496",
"$	c #AB95A7",
"%	c #4C4C4C",
"&	c #A28480",
"*	c #878889",
"=	c #646465",
"-	c #AD9FAB",
";	c #989FAC",
">	c #7C7275",
",	c #887D85",
"'	c #9B93A1",
")	c #94888E",
"!	c #BC9F9A",
"~	c #C4C4C4",
"{	c #707070",
"]	c #BEABAC",
"^	c #585859",
"/	c #9C9A9E",
"(	c #343434",
"_	c #7F7D7D",
":	c #B89390",
"<	c #B98D8E",
"[	c #71696C",
"}	c #B2A6AD",
"|	c #8E8E90",
"1	c #9F8C8D",
"2	c #888E9F",
"3	c #A495A2",
"4	c #B4A0AA",
"5	c #8D8287",
"6	c #404040",
"7	c #2A2A2B",
"8	c #BCBCBC",
"9	c #D1D1D1",
"0	c #B4B4B4",
"a	c #A0A0A2",
"b	c #C9AFA4",
"c	c #88767C",
"d	c #635D5D",
"e	c #AFADAD",
"f	c #BEA6A5",
"g	c #929AA4",
"h	c #7F767B",
"i	c #B89A9A",
"j	c #A6A6A5",
"k	c #464644",
"l	c #9A86A4",
"m	c #9D8CA2",
"n	c #AC9AA5",
"o	c #818286",
"p	c #525254",
"q	c #3A3A3C",
"r	c #2E2E2C",
"s	c #767675",
"t	c #BEB2B0",
"u	c #5E5E5C",
"v	c #7A828C",
"w	c #6A6A6D",
"x	c #9388A0",
"y	c #222224",
"z	c #CACACC",
"                                                ",
"                   {*a/##|*{p                   ",
"                a000ee@jaa/##|_=                ",
"             _8~~8800e@aaa/##||_sw              ",
"            8z~~~8800e@ja//#|*|*__s=            ",
"          j99zz~8800ee@ja//##|*oo_+{=(          ",
"         899z~~~8800e@jaa//##***o_s{{w%         ",
"        9999zz~88ea//|*+s##*{{*o+{{s{w^k        ",
"       9999~00088*o+sssso/ow=_*{==u=w{w=%       ",
"      ~9990a/###0@jjv{aa/*==***{^{{=^==up(      ",
"     #9990a088@#00ee+waa#==*|*o{^s{{^====^7     ",
"     999~ae~~8880e0@s=a/sp*#**o=pss{p==u^^6     ",
"    89zz0/8~88000e@@{ua/ud||5*o=%{{w%===^^p6    ",
"   o9zz~j#88808@|/@j{^/#%=||**ou%{{u%==uu^%6    ",
"   0~~z~a#888#s=usjaw%//pu|**oo=6{{%%==uu^p%q   ",
"   ~~~8~#*88jww=^jjj=k##u6+*o_+u6=^6^=uu^^%%(   ",
"  a~~~88a+e00ee=ujaauq|#*qq^{_+=6u6%==u^^^%%k7  ",
"  888888js|0eeg%+aa/=(|#*s((((ku(q6^=uu^^pp%6r  ",
"  0800000_w*a#^p|oswprppp^pk(((=q(p==uu^pp%%k6  ",
" _000000ejwu^%%=_5)$3cm1lmm1h=^%k%===u^p^%%k6(  ",
" *00eeeeee/w=>1!fb]!$$mll'n-3),h=%%^uu^ppp%k6qy ",
" e@@ee@@j|sc&::!ff]f4imlm$-3l,,hh{=%6^^^%%kk6q. ",
" /@@@jja*{1i::<<:ifbfi$m3-31,,_++ss{p6%p%%kk667 ",
" jjjjja*_-f!!!i:<<<!b]-n--movvvvvv+++u6k%kk66(. ",
" #aaaa|_n4]}ff!&&&!i>pq6q^*;#22****__s^6kk66q(7 ",
" /a/a/o1}@]]]]3>[>[%qws{w%rwean3')5o,[dk6666q(. ",
" *//g/s#]}e]e]i{[fnpqd{{=krdtf4-|[dd=[pk6k6q((y ",
" _g###s#-}444ff,[4]4,pqq6=#>,]}4>dd^d[dkq6qqq7. ",
" %####_5n-444i4:[c3'-@g=2e@g=_4-cd[,55[6q6q((r  ",
"  ||**ow5nnnn-$$5dh3-+==pvga|d_/1d>)5ckqqqq(r.  ",
"  o||**_w53333mml,do@e;v=^u2#*^_1s^chp(66(q((y  ",
"  {o***osu>)1llxxxxwx0@;g2vv##o^s)[dk(qqqq(r..  ",
"   o__o_os=^[5xxx''gwv@;g22222*+^w%(q66q((((y   ",
"   so___++s{up={x'/-a+{22222vv+=%(q666qq((ry.   ",
"    _s++ss>{{w=p%p=,22hw>+{wk6qqkkk66qq((rry    ",
"    wss{s{{{{{www=^p%%6k66kk%%%%k666qq((rr..    ",
"     {{{{{{[ww=w===uuu^^^^ppp%kkk66qq(((rry     ",
"     k{w{{wwww====u=^^^^pppkk%kk66qq(((r7.      ",
"      %===w====uu^^u^^^p%%%%kk666qq((rr7y.      ",
"       u==u=uuuu^u^^^p%p%%kkk666qq(((r7y.       ",
"        puuuu^^^^^pppp%%%kk666qq(((rr77.        ",
"         %^^^^^^ppp%%%%kkkk666q(((rr7y.         ",
"          7^^ppp%p%%%%kkk66qq(q(((777           ",
"            kp%%%%%kk6k6q66q((((777.            ",
"              6%k%kkk666q(qq((rr7.              ",
"                (66666qqqq(((77.                ",
"                    y(rrrry.                    ",
"                                                "};
