/* XPM */
static char * rndgnatspr_xpm[] = {
"48 48 19 1",
" 	c None",
".	c #040406",
"+	c #6F7071",
"@	c #3C3C3D",
"#	c #ACACAC",
"$	c #909090",
"%	c #595A5B",
"&	c #252628",
"*	c #828282",
"=	c #4D4E4F",
"-	c #323233",
";	c #C6C6C7",
">	c #9E9E9F",
",	c #BABAB9",
"'	c #151618",
")	c #656667",
"!	c #D2D2D3",
"~	c #777879",
"{	c #434445",
"                                                ",
"                   *$###>>>~%                   ",
"                #,,,####>>>$$$*+                ",
"             *,;;,,#,#>#>>$>$$$**~              ",
"            !!;;,,,#,###>>>$$$$***~)            ",
"          #!;;;;;,,####>>>>$$$***~~~+{          ",
"         ;!!;;;,;,,,###>>>$$$$$***~~++%         ",
"        !>$;*;,;,,####>#>>>$$$***~+%)=)%        ",
"       !#'.&&~~$#,,####>>$>$$$*+)%{''.&)%       ",
"      ;!#...-;,>%$####>>>>$$$*%%~~+...&)%=      ",
"     #!,+-...=$,,~###>>>>$$$$)~**='...-{%%-     ",
"     !!#@#)...'))>####>>$>$$$$)=@....)=-)%%     ",
"    ;!!+#;>'...{>###>>>>$$$$***)'...-)){%%={    ",
"   $;;;%,;)....{>##>#>>>>$$*$**~.....))%@%%=    ",
"   ;;;,~;#=))..=###>>>>$$$$$**~~'.')-@)%{%==@   ",
"   ;;;,=+%$$,#=>##>#>>$>$$$****~%=+)%=-@{%===   ",
"  #,,;,#>#,###,##>>>>>$$$$$***~~+++)))%%%==={-  ",
"  ,;,,,,,,#,####>#>>$>$$$****~~~~+))))%%=%===@  ",
"  ,,,,,##,####>*++++)+)))))%%%%=)++)%)%%%=={{{  ",
" *#,#,#,######~%$$$$$$****~~+)))@))))%%%===={@  ",
" >###,######>>+>>>$$$$$*****{..%=)))%%%%=={={{& ",
" #########>#>>)$>$>$$$*$***~{..%=)))%%%=={={{@- ",
" #####>#>>>>>>+$$$$$$$****~~%--)=)%)%%%==={{@@- ",
" #>#>>>#>>>>>>)$$$*~*~**~+~~~++)=%)%%=%=={{@@@& ",
" >>>#>>>>>>>$>)$$$+))%+*+%%++)+)=%%%%%==={{{@@& ",
" >>>>>>>>$>$$$)*$$)%~)%%%%+%)+))=)%%%==={{{@@-- ",
" >>$>$>$>$$$$$)***+)+~++%+)))))%{%%%===={{@@@-& ",
" *$>$>$$$$$$$*%***+++~~~)))%)))){%=%==={{@@@--& ",
" )$$$$$$$$$$*$~@%%%=%========{{{-%%==={{{@@@--  ",
"  $$$$$$*$******~~~~~~~+++)))))%%%===={{@@----  ",
"  *$***$*******~*~~++++))))%%%%%===={{{{@@@--&  ",
"  +*$**+=~****~~~~~~+++)))))%%%%%===={@-{----'  ",
"   ****@~=%%+='%~+++)+)))%%)%%==-'@=@--@---&-   ",
"   ~**~%~~--&..-++)+)))))%%%%%=%...-'-@@---&&   ",
"    ~~~@+~=....-)+)))))%%%%%==%=....'@@----&    ",
"    +~+%%+)....=))))))%%%%%%==={&...'@@&-&&&    ",
"     ++)'{&...&{=%)%%%)%%%===={@-....-&&--&     ",
"     {++)&...=)))=%)%%%%===={{={@{&...---&      ",
"      %)%...&)%=@%%%%%======={@-{{@...'&&'      ",
"       %)''@&={)%%%%=%=%==={{@{{@--&'.&&&       ",
"        %%)%%%%%%%=%===={{{{{@@@-------'        ",
"         =%%%%%%======={={{@@@@-@----&'         ",
"          -%====%===={{{{{@@@-@---&&&           ",
"            ======{={{{{@@@@@-----&&            ",
"              {={{={{{@@@@@----&&&              ",
"                -{@{@{@@-@----&&                ",
"                    &----&&&                    ",
"                                                "};
