/* XPM */
static char * rndgedit_xpm[] = {
"48 48 256 2",
"  	c None",
". 	c #161616",
"+ 	c #6A6A6A",
"@ 	c #969696",
"# 	c #C2C2C2",
"$ 	c #925252",
"% 	c #3E3E3E",
"& 	c #A6A6A2",
"* 	c #A26A6A",
"= 	c #5A5A5A",
"- 	c #767672",
"; 	c #8E4E4E",
"> 	c #AEAEAA",
", 	c #D6D6D6",
"' 	c #828282",
") 	c #5A524E",
"! 	c #4E4E4E",
"~ 	c #AA8686",
"{ 	c #BA9696",
"] 	c #BABABA",
"^ 	c #2E2E2E",
"/ 	c #966A6E",
"( 	c #8A5A5A",
"_ 	c #CECECE",
": 	c #868686",
"< 	c #B29696",
"[ 	c #9E9E9E",
"} 	c #464646",
"| 	c #666662",
"1 	c #8A8A8A",
"2 	c #8A4E4E",
"3 	c #9E7A7E",
"4 	c #965A5A",
"5 	c #323232",
"6 	c #BEA6A6",
"7 	c #A67272",
"8 	c #8E6E6E",
"9 	c #C6AEAE",
"0 	c #B6B6B6",
"a 	c #C6C6C6",
"b 	c #929292",
"c 	c #565652",
"d 	c #6E5A5A",
"e 	c #BAA6A6",
"f 	c #DEDEDE",
"g 	c #3A3A36",
"h 	c #5E5E5A",
"i 	c #CABABB",
"j 	c #8E7A7A",
"k 	c #727272",
"l 	c #C2AEB0",
"m 	c #A67E7E",
"n 	c #925E60",
"o 	c #A69696",
"p 	c #7E7E7E",
"q 	c #9E8A8A",
"r 	c #1E1E22",
"s 	c #966666",
"t 	c #A68A8A",
"u 	c #D2C6C6",
"v 	c #BEBEBE",
"w 	c #B2B2B2",
"x 	c #4A4A4A",
"y 	c #525252",
"z 	c #A2A2A2",
"A 	c #9A8282",
"B 	c #CACAC6",
"C 	c #9E8686",
"D 	c #AAAAAA",
"E 	c #928A8A",
"F 	c #9A9A9A",
"G 	c #424242",
"H 	c #363636",
"I 	c #A67A79",
"J 	c #B28A8A",
"K 	c #626262",
"L 	c #8E8E8E",
"M 	c #222222",
"N 	c #867272",
"O 	c #D2D2D2",
"P 	c #6E6662",
"Q 	c #9A5E5E",
"R 	c #BE9A9A",
"S 	c #A26262",
"T 	c #B29E9E",
"U 	c #CEC2C2",
"V 	c #DADADA",
"W 	c #9A4A4A",
"X 	c #AE9E9E",
"Y 	c #7A7A7A",
"Z 	c #965252",
"` 	c #6E6E6E",
" .	c #AE8E8E",
"..	c #C6BABA",
"+.	c #262626",
"@.	c #7E6666",
"#.	c #B2A6A6",
"$.	c #BAAEAE",
"%.	c #665E5A",
"&.	c #BA9EA0",
"*.	c #6E6A66",
"=.	c #9E6666",
"-.	c #B68E90",
";.	c #E2E2E2",
">.	c #AA9294",
",.	c #B6B2B3",
"'.	c #AA7E7E",
").	c #AA7676",
"!.	c #2A2A2A",
"~.	c #5E5A56",
"{.	c #6A6662",
"].	c #564E4A",
"^.	c #9A5656",
"/.	c #A66E6E",
"(.	c #AA7A7A",
"_.	c #A26666",
":.	c #666261",
"<.	c #7E7672",
"[.	c #9A7272",
"}.	c #8A5252",
"|.	c #9E5A5A",
"1.	c #926666",
"2.	c #7A7272",
"3.	c #CAC2C2",
"4.	c #BAB6B6",
"5.	c #C6BEC2",
"6.	c #AAA6A5",
"7.	c #C2BABA",
"8.	c #969293",
"9.	c #AEAAAD",
"0.	c #9E9A9C",
"a.	c #B28282",
"b.	c #CAB6B6",
"c.	c #625E5B",
"d.	c #868281",
"e.	c #CABEBE",
"f.	c #B28686",
"g.	c #C6AAAA",
"h.	c #9A8A8A",
"i.	c #C2C2C6",
"j.	c #B2AEAE",
"k.	c #CAC6CA",
"l.	c #A6A2A2",
"m.	c #BAAAAB",
"n.	c #827E7F",
"o.	c #9E6A6A",
"p.	c #7A7679",
"q.	c #A66666",
"r.	c #6A625D",
"s.	c #AE9292",
"t.	c #BEA2A2",
"u.	c #B69292",
"v.	c #B2B2B6",
"w.	c #524E4C",
"x.	c #A29EA0",
"y.	c #8E8A8A",
"z.	c #967A7A",
"A.	c #767270",
"B.	c #4E4A46",
"C.	c #565250",
"D.	c #BEAAAC",
"E.	c #D2D2D6",
"F.	c #A6A6AA",
"G.	c #AEAEB2",
"H.	c #BEBEC2",
"I.	c #CACACE",
"J.	c #B6B6BA",
"K.	c #A66263",
"L.	c #AE7A7A",
"M.	c #B29A9A",
"N.	c #5A5655",
"O.	c #D6D6DA",
"P.	c #6A666A",
"Q.	c #928E8F",
"R.	c #9E9EA2",
"S.	c #C6C6CA",
"T.	c #56565A",
"U.	c #AE7E7F",
"V.	c #AA6E6E",
"W.	c #AA7272",
"X.	c #925656",
"Y.	c #8E5252",
"Z.	c #8E5E5E",
"`.	c #9A7E7E",
" +	c #927272",
".+	c #C6B2B2",
"++	c #C2B2B2",
"@+	c #AA8E8E",
"#+	c #D2CACA",
"$+	c #B6A2A2",
"%+	c #8A5656",
"&+	c #727276",
"*+	c #A66A6A",
"=+	c #DADADE",
"-+	c #828286",
";+	c #76767A",
">+	c #BABABE",
",+	c #66666A",
"'+	c #929296",
")+	c #A2A2A6",
"!+	c #626266",
"~+	c #DEDEE2",
"{+	c #9A9696",
"]+	c #DAD6D6",
"^+	c #8A8686",
"/+	c #4A4642",
"(+	c #C2BEBE",
"_+	c #3A3636",
":+	c #D6D2D2",
"<+	c #726A66",
"[+	c #C6C2C6",
"}+	c #965656",
"|+	c #9E6E6E",
"1+	c #9E5656",
"2+	c #B69696",
"3+	c #BAB2B2",
"4+	c #AE8686",
"5+	c #625A56",
"6+	c #CEBEBE",
"7+	c #5E5652",
"8+	c #6A6A6E",
"9+	c #4E4E52",
"0+	c #86868A",
"a+	c #8A8A8E",
"b+	c #565656",
"c+	c #7E7E82",
"d+	c #525256",
"e+	c #CACACA",
"f+	c #AAAAAE",
"g+	c #6E6E72",
"h+	c #6A6666",
"i+	c #AAA6AA",
"j+	c #AA9696",
"k+	c #B68A8E",
"l+	c #9E5E5E",
"m+	c #B28E8E",
"n+	c #6E6A6A",
"o+	c #E2E2E6",
"p+	c #6E6666",
"q+	c #BE969A",
"r+	c #8E5A5A",
"s+	c #C2A6AA",
"t+	c #AA8A8A",
"u+	c #D6C6CA",
"v+	c #B69E9E",
"w+	c #9E7E7E",
"x+	c #CAB2B6",
"y+	c #BAB6BA",
"z+	c #96969A",
"A+	c #A6A6A6",
"B+	c #5A5A5E",
"C+	c #767676",
"D+	c #AEAEAE",
"E+	c #666666",
"F+	c #3A3A3A",
"G+	c #5E5E5E",
"                                                                                                ",
"                                      0 w D+D A+z [ F @ b                                       ",
"                                # v ] 0 w D+D A+z [ F @ b L 1 :                                 ",
"                          _ e+a # v ] 0 w D+D A+z [ F @ b L 1 : ' p                             ",
"                        _ e+a # v v ] 0 w D+D A+z [ F @ b L 1 : ' p Y C+                        ",
"                    , O _ _ e+# # ] 0 w D+D A+A+z [ F @ b L 1 : ' p Y C+k `                     ",
"                  , , _ e+a a # v ] 0 0 w D+A+z [ [ F @ b L 1 : ' p Y C+k ` +                   ",
"                V , O _ _ e+a v v ] 0 w D+D A+A+z F @ b L 1 1 : p p Y C+k ` + E+                ",
"              , , O O e+a a # v ] ] w D+D D z z [ F F @ b 1 : : ' p Y C+k + + E+K               ",
"            , , O _ e+e+e+# # ] ] 0 0 0 0 D+D+D D+D D A+z z z [ F @ L 1 C+n+E+K G+G+            ",
"          , O _ e+e+e+a a a a # i.a # # a # v >+v J.0 w D )+z F @ b b 8.Y {.| K G+= =           ",
"          O O _ e+e+e+S.a # v 4.4.,.w 9.6.l.l.l.z z x.[ F {+b Q.y.: d.b k *.h+K G+= b+          ",
"        _ _ _ _ a ] ] 0 D+j.w w 0 4.v a a a B k.a # ] v ] 0 w > D F L b n+p+| K G+= b+y         ",
"      _ _ e+e+e+# $.&.2+u.2+u.-.4+J e._ a e+v B v # 0 ] w 0 D D A+[ @ 1 *.{.:.G+G+b+b+y         ",
"      e+e+a a e+v T (.(.W./.* q.S /.3., , , _ _ _ I.e+a # H.J.D+D A+0.d.*.h+K G+= b+y y !       ",
"      # # # # i.4.s.U.).).7 *+_._.W.b.I.v I.# I.J.L : v.D w : ;+[ '+F d.p+*.G+= = b+y ! x       ",
"    # # # v v v 0  .)./.* _.S l+l+L.#+O., O.O , I.,+k a+C+] + !+D+z [ n.{.{.K G+b+b+! ! x }     ",
"    v v v v 4.] ,.m /.* _.l+|.1+^.a.:+V V V V , , + 1 z @ v G+C+w z F - P :.G+= = y y x } }     ",
"    ] 0 J.] 0 ] j.m /./.L.).7 V._.a.m.a+0+w v.8.Y ! ' p &+g+% G+Y L E *.*.c.= b+b+! ! x } G     ",
"  0 0 0 0 w 0 ] D I 7 t.i t.x+9 ).k+k ' E+a+F = '+} A+K Y 1 9+R.x.F 1 P P K = = y y ! x } G     ",
"  w w w w D+w 0 6.I 2+i U.S R q+1+3 x R.E+b+} d.J.d+v.G+@ : = >+] F d.{.{.G+b+b+y ! x } G G %   ",
"  D+D+D+> > > ,.6.I .+s.|.^.k+6+K.@.9+z '+8+M )+F.8+G.9+f+C+8+0 )+L p.P h+= = y ! x x } G % F+  ",
"  D D D F.F.D ,.j.~ b./.^.|.R U q.d !+o+O.'+. w @ p z+} G.K : F = : ` P + b+b+y ! x } } % % F+  ",
"  A+A+A+A+& D ] #.(.$.'._.U.U g.K.N P.# ' [ r F.k 0+k ! G.b+L : b+8.<+r.:.b+y y ! x } G % F+H   ",
"  z z z z z z w X * 4+9 &.s+q+K.K.b.[ 1 ;+v k Y K p b+K w G+G+= Y b r.:.h y y ! x } G G % F+H   ",
"  [ [ [ [ F z w j+I t.++u.U.4 W q.]+;.f ~+=+, e+# H.J.J.a G.F L 0.d.:.r.y y ! x x } G % F+H H   ",
"  F F F F F 0.D+o m.m.o.=.t.-.Z V.u O.e+, e+E.i.O # _ H.a ] 4.A+x.<.r.*.y ! ! } } G % F+F+5 5   ",
"  z+@ @ @ @ F D >.]  .}+Z (.e.L.L.=+~+o+o+o+;.f O.O _ v i.0 0 & [ *.%.*.y ! x x G G % F+H H 5   ",
"  b b b b b @ D q $.~ }+; l+5.g.u.V f f ~+~+~+f O., O _ S.i.>+A+{+r.%.K y x } } G % % F+5 5     ",
"    L L L L b A+A >.>.4 Z =.e.5.&.]+O.V V =+V , O.E._ S.a v J.z L r.5+C.x x } G % F+H H 5 ^     ",
"    L 1 1 : L l.j o.j+@+t+m.k.6 e O E., , , E.O _ I.e+i.# v D+@ : %.%.w.x } G G % F+H H ^ ^     ",
"    : : : : 1 F  +Z.n [.t < s.|+$+k.# a v H._ e+I.e+a # ] 0 f+@ n.%.~.! } } G % F+F+H ^ ^ !.    ",
"      ' ' ' : {+ +Z.( }.}.Y.; X.m.i.v i.] J.>+w J.f+w R.D+z z L A.5+N.x G G % F+H 5 5 5 ^       ",
"      p p p ' b j 8 1.Z.r+}.2 4 4.[+i.i.a a # v v ] J.w G.)+L b + 7+b+} G % F+F+H H 5 !.!.      ",
"        Y Y p L y.y.Q.E q C `.w+,.v v v v v >+] y+0 w D+> l.: Q.:.~.C.G % % F+H 5 ^ ^ !.        ",
"        ;+C+Y z+[ [ @ L 1 b @ 0.& A+D f+f+D+w w w w D F.z @ : ' = 7+c % % H H H 5 ^ !.+.        ",
"          k - ' : 1 8.[ )+i+A+z R.'+b b L L L L L 8.@ L 1 Y : p.N.N.y F+F+H 5 ^ ^ ^ !.          ",
"          g+` 8++ + k &+C+- Y L F z z z z 0.F @ b 1 p Y Y &+' *.w.].x F+F+H 5 ^ ^ +.            ",
"            + + + E+E+E+!+E+K K K | K + C+' 1 a+1 Q.8.b L 1 ' c.w.B.G H 5 5 ^ !.!.+.            ",
"              E+E+E+| K K G+G+G+h = b+b+b+y b+b+d+G+!+P.k C+Y N./+G _+5 5 ^ ^ !.+.              ",
"                K G+K G+G+G+= T.T.= b+y y ! ! ! x x } } } } } % g g H 5 ^ !.!.!.                ",
"                  G+= = = b+b+b+c y y y ! ! ! x } } } % % F+F+g H 5 ^ ^ !.!.+.                  ",
"                    = b+b+b+c y y ! ! ! x } } } G % G % % g _+5 5 5 ^ !.+.                      ",
"                        y y 9+! x ! x } x } G G % % F+F+H H 5 5 ^ ^ !.!.                        ",
"                            x ! } } x G G G G % % F+g H 5 5 5 ^ !.!.                            ",
"                                } } G G G % F+% g F+5 H 5 5 !.^                                 ",
"                                        % % H H H H 5 5                                         ",
"                                                                                                "};
