/* XPM */
static char * rndgnats_xpm[] = {
"48 48 13 1",
" 	c None",
".	c #070809",
"+	c #737474",
"@	c #404041",
"#	c #ABABAB",
"$	c #5F6060",
"%	c #969696",
"&	c #252627",
"*	c #CACACA",
"=	c #828282",
"-	c #323232",
";	c #4D4E4F",
">	c #BABAB9",
"                                                ",
"                   +%###%%%+$                   ",
"                #>>>#####%%%%=%+                ",
"             =**>>>>####%#%%%%===+              ",
"            ****>>>>####%#%%%=%===++            ",
"          #****>*>#>####%%%%%%====+++@          ",
"         ******>*>>#####%%%%=%===+++++;         ",
"        *******>>>>>##%##%%%%=====++++$$        ",
"       *******>>>>#####%%%%%=%====+++$+$$       ",
"      ********>>>#>###%##%%%%====+++++$$$@      ",
"     #*****#;%$##>#####%%%%=%==++;;-$+$$$$-     ",
"     ******@..@%=$###%#%%%%%=+$+$...@+$$$$;     ",
"    ******#+...%##+##%#%%%=%+++=;...$$$$$;$@    ",
"   %******=;+...;+=#%#%%%%%==$$&...$&$$$$$;;    ",
"   *****>>$>#&...=##%#%%%%=%==;...&+$@$$$;$;@   ",
"   ****>>#=#+&...%#%#%%%%=%==+$..&.$+;$$$;;;;   ",
"  #>>>>>>#+%$+=@&%#%%%%%%=%===$.@+;@$@$;$;;;;-  ",
"  >>*>>>>#=+######%#%%%%=%=====++++$@;$$$;;;@@  ",
"  >>>>>>#>#####%#%#%%%%%=====++++$+$$$$;;;;;@@  ",
" +>#>###########%%%%%%%=%====+++++$+$$;$$;;;@@  ",
" %##>#>#####%#%%#%%%%+;=$==+=+++$$$$$$$;;;;@@@& ",
" ##########%#%#%%%%%=...;$$$++++++$$$;$;;;;@@@& ",
" ########%##%%%%%%%%=-..@=+$$+$$$$$$$;$;;@;@@@- ",
" #####%#%#%%%#%%%=%=@;&...$;+++++$$$;$;;;@;@@-& ",
" %#%%#%%%%#%%%%%%=%=;=$...-++$$$$$$$;;;;;@;@@@& ",
" %%#%%%#%%%%%%%=%==$+=@...&$+++$$$$$$;;;;@@@--& ",
" %%%%#%%%%%%%=%=%==$+$;$@.@+$$$$$$;;;;;@;@@@@-& ",
" =%%%%%%%%=%=%=====+;;++++$+$+$$$;$$;;;;@@@---& ",
" $%%%%=%=%=%===%====+++++$+$$$$$$$;;;;@@@@@---  ",
"  =%==%=%===%=====+=++++++$+$$$$;;;;;@;@@-@---  ",
"  %=%=%===;;++=+$=+++++$$$$$$$$;$;;@-@@@@@---&  ",
"  +=======$+;;;&.++++$++$+$$$;;.&;--;@@@-----.  ",
"   ======+$+$....$+++$$$$$$$$;@....;@-@@@---&   ",
"   +====++;++...&$+$$++$$$$$;$@...&;@------&&   ",
"    ++++=+$&@...@;;+$$$$$$;$;;@&...-&@@----&    ",
"    +++++++;..&$+$$$$$$$$;$;;@;;@...@@----&&    ",
"     +++++$-..&;;@$$$$$;$;;;;;-@@...&----&&     ",
"     @+$+$+$;$;$+$$$$$;$;;;;;@;@@@--@---&&      ",
"      ;+$$+$$+$$$$$$;$;;;;;;;@@@@@-----&&&      ",
"       $$$$$$$$$$;$;$;;;;;@;@@@@@-@---&&&       ",
"        $$$$$$$;$;;;;;;;;;@@@@@-@---&-&&        ",
"         ;$;$;;$;;$;;;;;@;@@@@-@---&-&.         ",
"          -;$;;;;;;;;;@@@@@@@------&&           ",
"            @$;;;;@;@@;@@@@--@---&&&            ",
"              @;;;@@@@@@@-@----&-&              ",
"                -@;@@@@--@----&&                ",
"                    &---&-&&                    ",
"                                                "};
