/* XPM */
static char * rndgnut_xpm[] = {
"48 48 209 2",
"  	c None",
". 	c #7E7E7E",
"+ 	c #989898",
"@ 	c #AEAEAE",
"# 	c #AAAAAA",
"$ 	c #A6A6A6",
"% 	c #A2A2A2",
"& 	c #9E9E9E",
"* 	c #606060",
"= 	c #BDBDBD",
"- 	c #B9B9B9",
"; 	c #B5B5B5",
"> 	c #B1B1B1",
", 	c #ADADAD",
"' 	c #A9A9A9",
") 	c #9A9A9A",
"! 	c #969696",
"~ 	c #929292",
"{ 	c #8E8E8E",
"] 	c #8A8A8A",
"^ 	c #717171",
"/ 	c #868686",
"( 	c #C2C2C2",
"_ 	c #C4C4C4",
": 	c #C1C1C1",
"< 	c #A5A5A5",
"[ 	c #A1A1A1",
"} 	c #828282",
"| 	c #787878",
"1 	c #CACACA",
"2 	c #CBCBCB",
"3 	c #C8C8C8",
"4 	c #C0C0C0",
"5 	c #BCBCBC",
"6 	c #B8B8B8",
"7 	c #B4B4B4",
"8 	c #B0B0B0",
"9 	c #9D9D9D",
"0 	c #999999",
"a 	c #959595",
"b 	c #919191",
"c 	c #8D8D8D",
"d 	c #7A7A7A",
"e 	c #6D6D6D",
"f 	c #A7A7A7",
"g 	c #D0D0D0",
"h 	c #C6C6C6",
"i 	c #BFBFBF",
"j 	c #BBBBBB",
"k 	c #B7B7B7",
"l 	c #B3B3B3",
"m 	c #AFAFAF",
"n 	c #ACACAC",
"o 	c #A8A8A8",
"p 	c #A4A4A4",
"q 	c #A0A0A0",
"r 	c #9C9C9C",
"s 	c #878787",
"t 	c #838383",
"u 	c #808080",
"v 	c #7D7D7D",
"w 	c #797979",
"x 	c #757575",
"y 	c #727272",
"z 	c #484848",
"A 	c #D3D3D3",
"B 	c #C9C9C9",
"C 	c #ABABAB",
"D 	c #8B8B8B",
"E 	c #858585",
"F 	c #767676",
"G 	c #737373",
"H 	c #585858",
"I 	c #D4D4D4",
"J 	c #D1D1D1",
"K 	c #888888",
"L 	c #747474",
"M 	c #707070",
"N 	c #6C6C6C",
"O 	c #686868",
"P 	c #666666",
"Q 	c #626262",
"R 	c #5E5E5E",
"S 	c #5C5C5C",
"T 	c #5B5B5B",
"U 	c #5A5A5A",
"V 	c #656565",
"W 	c #777777",
"X 	c #7C7C7C",
"Y 	c #696969",
"Z 	c #5D5D5D",
"` 	c #7B7B7B",
" .	c #6A6A6A",
"..	c #6B6B6B",
"+.	c #636363",
"@.	c #676767",
"#.	c #646464",
"$.	c #595959",
"%.	c #909090",
"&.	c #6E6E6E",
"*.	c #616161",
"=.	c #7F7F7F",
"-.	c #6F6F6F",
";.	c #5F5F5F",
">.	c #4C4C4C",
",.	c #CECECE",
"'.	c #8F8F8F",
").	c #363636",
"!.	c #C7C7C7",
"~.	c #939393",
"{.	c #949494",
"].	c #9F9F9F",
"^.	c #565656",
"/.	c #848484",
"(.	c #CCCCCC",
"_.	c #D6D6D6",
":.	c #D7D7D7",
"<.	c #D5D5D5",
"[.	c #BABABA",
"}.	c #B6B6B6",
"|.	c #555555",
"1.	c #474747",
"2.	c #8C8C8C",
"3.	c #D9D9D9",
"4.	c #BEBEBE",
"5.	c #B2B2B2",
"6.	c #545454",
"7.	c #505050",
"8.	c #C3C3C3",
"9.	c #DBDBDB",
"0.	c #DDDDDD",
"a.	c #979797",
"b.	c #898989",
"c.	c #575757",
"d.	c #535353",
"e.	c #4F4F4F",
"f.	c #414141",
"g.	c #D8D8D8",
"h.	c #DCDCDC",
"i.	c #DEDEDE",
"j.	c #4E4E4E",
"k.	c #4A4A4A",
"l.	c #9B9B9B",
"m.	c #494949",
"n.	c #333333",
"o.	c #A3A3A3",
"p.	c #4B4B4B",
"q.	c #424242",
"r.	c #CDCDCD",
"s.	c #E0E0E0",
"t.	c #525252",
"u.	c #464646",
"v.	c #E1E1E1",
"w.	c #444444",
"x.	c #E2E2E2",
"y.	c #515151",
"z.	c #434343",
"A.	c #3F3F3F",
"B.	c #282828",
"C.	c #DFDFDF",
"D.	c #E3E3E3",
"E.	c #3D3D3D",
"F.	c #3E3E3E",
"G.	c #404040",
"H.	c #454545",
"I.	c #313131",
"J.	c #2B2B2B",
"K.	c #070707",
"L.	c #0B0B0B",
"M.	c #0E0E0E",
"N.	c #121212",
"O.	c #161616",
"P.	c #1A1A1A",
"Q.	c #1D1D1D",
"R.	c #212121",
"S.	c #242424",
"T.	c #262626",
"U.	c #292929",
"V.	c #2E2E2E",
"W.	c #3A3A3A",
"X.	c #3C3C3C",
"Y.	c #2F2F2F",
"Z.	c #272727",
"`.	c #050505",
" +	c #090909",
".+	c #DADADA",
"++	c #818181",
"@+	c #060606",
"#+	c #0A0A0A",
"$+	c #232323",
"%+	c #4D4D4D",
"&+	c #383838",
"*+	c #2D2D2D",
"=+	c #343434",
"-+	c #181818",
";+	c #323232",
">+	c #373737",
",+	c #353535",
"'+	c #393939",
")+	c #1F1F1F",
"!+	c #CFCFCF",
"~+	c #D2D2D2",
"{+	c #303030",
"]+	c #2A2A2A",
"^+	c #3B3B3B",
"/+	c #1C1C1C",
"(+	c #222222",
"_+	c #2C2C2C",
":+	c #1B1B1B",
"                                                                                                ",
"                                      . + @ # $ % & + . *                                       ",
"                                @ = - ; > , ' $ % & ) ! ~ { ] ^                                 ",
"                          / ( _ : = - ; > , ' < [ & ) ! ~ { ] / } |                             ",
"                        1 2 3 _ 4 5 6 7 8 , ' < [ 9 0 a b c ] / } . d e                         ",
"                    f g 2 h ( i j k l m n o p q r + ! ~ { ] s t u v w x y z                     ",
"                  h A B 6 C < [ 9 0 a b { D s E } u v d | F G F v v w x ^ e H                   ",
"                A I J i q K } v | L M N O P Q * R R S T U U U V W X | L M e Y Z                 ",
"              A I B = n ~ u ` x M N Y  ....... ...N .. .Y V +.@.M L G G M N O #.$.              ",
"            h I g 6 & %.t w G &.Y #.*.Y M y F | X =.. v ` L -.e .. .&.^ -...@.+.;.>.            ",
"          f J ,.3 # K . | ^ N O P V V ^ d =.t / D '.'.c D t X W M ..e -.e Y V *.;.T ).          ",
"          J !.k o ~.=.F M ..Y O G s {.q # , @ m 8 > 8 , C < ].) {.{ } d y Y +.* Z U ^.          ",
"        1 ,.5 & /.v F -.Y #.P O . $ 4 (._.:.:.<.A J ,.2 3 _ 4 [.}.m [ {./.&.+.;.S $.|.1.        ",
"      / 2 1 6 + v F -. .@.P d 2.].[.2 A 3._.,.!.4.}.7 ; ; 6 - 6 }.5.f r { w N * T H 6.7.        ",
"      ( 3 h l ~ W M Y P P O b ; 8.g :.9.0.<._ 6 f + a.9 q C l ; k ; n < ) b.. #.$.c.d.e.f.      ",
"      _ ( i C 2.^  .+.#. .^ % ,.g.h.i.g.A h 8 % %.u =./ ] a.q p @ l m # % ! ] O $.6.7.j.k.      ",
"    @ i > [ b X N V R e K r j _.9.9.g.> %.} v . | G ^ ^ M y y L s r p ' p l.b -.T d.e.>.m.n.    ",
"    = [.q =.F -.@.* U x o.( J i.i.9.A '.6.6.F b c ] s /.u v w N -.K l.o f q a.w * d.j.p.1.q.    ",
"    - }.r ` y  .+.Q *.=.@ r._.s._.: @ ` * P . { D K E } . ` W N Y W t { c /.X O T t.>.k.u.q.    ",
"  . ; 5.+ F &.P * V ..b.- g.h.v.2 < K M w u K 2.b./ t =.X w x ..P ..-.L ^ P R $.|.7.p.z w.f.    ",
"  + > @ {.G ..Q Z @.M '.i 0.s.x.h a x M K 2.t v d | x G ^ -...V * +.Q Q R |.e.t.y.e.k.1.z.A.B.  ",
"  @ , # b M @.;.T ..` a.( 0.C.D.: ~ | F K w 6.E.E.F.A.A.G.f.q.z.u.m.1.u.m.y.t.y.j.p.1.H.f.F.I.  ",
"  # ' $ c N +.S $.&.t 9 8.0.C.x.= '.X ` s  .J.K.L.M.N.O.P.Q.R.S.T.U.J.V.W.7.6.y.j.k.1.z.G.X.Y.  ",
"  $ $ % ] Y *.U c.-./.].8.9.i.x.l t d . / @.Z.`. +M.P.I.G.q.z.w.H.u.u.u.k.d.d.j.k.1.w.f.F.W.V.  ",
"  % % & s @.;.H |.-./ q 8..+0.v.' v ++/.E V U.@+#+M.$+%+@.@.P V #.+.*.;.R Z U y.m.w.q.A.X.&+*+  ",
"  & & r s e +.$.6.&./ ].: g.9.C.< ` t t t @.=+O.-+P.;++./.} u v ` | x y &. .P c.k.w.f.F.W.>+J.  ",
"  + ) 0 b b.w Q d.e /.& i _.3.h., . G W v G S j.%+%+d.++l @ # $ [ r ! %.D /.. @.|.m.G.X.&+,+U.  ",
"  . ! ! a a E O t.N t r = A _.3.; s L M w ` | F G M #.{ _.g 2 _ = k m o q a.'.G S >.A.'+).n.)+  ",
"  * ~ ~ b b } P y.V | ~.6 g A _.7 t  .@.x | x G M &.* d , ' < q r a.9 [ 9 a 2.M U k.E.>+=+I.    ",
"    { { c c =.#.7.* &.] 5.(.!+~+l =.;.R M L y M e ..S P s /.} =.` w 2.0 + b K e H m.W.,+;+Y.    ",
"    ] ] ] b.v Y H ;.@.t n !.2 r.5.t Q $.V Y @.#.Q *.|.H .. .O @.#.+.. ~.{.c /. .|.H.&+n.{+]+    ",
"    ^ / / E u d G P Z W % 4.8.3 [.].] S w.G.F.E.X.^+'+X.f.f.q.f.f.f...] %.K =.P t.z.).I.V./+    ",
"      } } ++++u v ..^.-.) }.= 8.4.5.$ @.I.S.$+(+(+(+(+$+S.S.T.T.Z.U.S t D t ` Q e.f.=+V.J.      ",
"      | . v v X d ^ P &./ r , 5 j ; @ E Q t.q.&+V.T.T.U.*+;+).X.u.j.N } E v x R p.E.I._+R.      ",
"        d w w | F G M &.F E & 7 6 6 }.q { ` ;.>.'+]+U.Y.=+E.H.j.+.-.d ++=.W M $.z ^+Y.]+        ",
"        e x x L L G y e e L '.o m 5.; # [ '.y Z k.W.&+A.w.>.d.S ^ X . . w ^ O t.q.).J.)+        ",
"          y ^ M M -.&...Y @.L b.! < @ # $ ].~ b.u | F W W | | w . =.X | ^ @.Z z &+Y.B.          ",
"          z e e N .. .Y O P P y } 0 f o o f f $ < % q r + {.%.] E =.w y Y R |.G.{+U.            ",
"            H Y O @.P V #.Q * Q Y W t b.c b a + 0 0 a.{.b ] /.v F -.V T 7.w.W.I.]+Q.            ",
"              Z #.+.Q *.* ;.Z S U R +.e W v / D '.%.'.2.K =.| M O *.d.1.E.n._+B.)+              ",
"                $.;.;.R Z S U $.^.d.d.Z #. .y F w d w F G ..V R c.7.w.W.n._+B.)+                ",
"                  >.T U $.H c.|.d.7.e.e.7.7.e.e.%+>.p.z u.w.G.E.W.>+n.Y._+B.:+                  ",
"                    ).^.|.6.d.y.7.e.%+>.k.z 1.H.z.f.A.E.^+&+).=+;+Y.*+]+Z.                      ",
"                        1.7.e.j.>.p.k.z 1.H.z.f.A.F.X.'+>+,+n.I.V._+]+)+                        ",
"                            f.k.m.1.u.w.z.f.G.F.X.W.&+).=+;+{+V.J.R.                            ",
"                                n.q.q.f.A.F.X.W.&+>+,+n.I.Y.]+/+                                ",
"                                        B.I.Y.V.*+J.U.)+                                        ",
"                                                                                                "};
