/* XPM */
static char * rndgnum_xpm[] = {
"48 48 201 2",
"  	c None",
". 	c #1A1A1C",
"+ 	c #7E7E7C",
"@ 	c #B2B2B4",
"# 	c #9A9A9C",
"$ 	c #4E4E4C",
"% 	c #666664",
"& 	c #9A8670",
"* 	c #B29A7C",
"= 	c #8E8E8C",
"- 	c #7E6A54",
"; 	c #8E7E6C",
"> 	c #5A5A5B",
", 	c #CACACA",
"' 	c #363634",
") 	c #AEA694",
"! 	c #727273",
"~ 	c #9A9284",
"{ 	c #B6A692",
"] 	c #A69A8C",
"^ 	c #BEBEBC",
"/ 	c #464234",
"( 	c #A6927C",
"_ 	c #726658",
": 	c #8E867C",
"< 	c #6A5A4C",
"[ 	c #BEA68C",
"} 	c #878684",
"| 	c #5A4E44",
"1 	c #867E74",
"2 	c #867664",
"3 	c #626263",
"4 	c #A6A29E",
"5 	c #D6D6D4",
"6 	c #9A928D",
"7 	c #BEB2A4",
"8 	c #726E64",
"9 	c #8F8684",
"0 	c #2A2A2C",
"a 	c #4E463C",
"b 	c #B2A28C",
"c 	c #969694",
"d 	c #665A4F",
"e 	c #7A7A7C",
"f 	c #B2AEAC",
"g 	c #A69A94",
"h 	c #565654",
"i 	c #9A8E84",
"j 	c #968E88",
"k 	c #423A34",
"l 	c #AEAEAC",
"m 	c #C6C6C4",
"n 	c #BEAE99",
"o 	c #867E7C",
"p 	c #8E7664",
"q 	c #A2968E",
"r 	c #BABABB",
"s 	c #A2A2A3",
"t 	c #564E48",
"u 	c #D2D2D3",
"v 	c #A6A6A4",
"w 	c #7A726E",
"x 	c #5A5652",
"y 	c #6E6E6C",
"z 	c #96826C",
"A 	c #BAA68E",
"B 	c #4A4A4C",
"C 	c #AE967C",
"D 	c #7E7674",
"E 	c #9A9691",
"F 	c #968A84",
"G 	c #AEAAA8",
"H 	c #BAB6B4",
"I 	c #A29A94",
"J 	c #6E6A66",
"K 	c #8E8274",
"L 	c #AE9A7C",
"M 	c #C6C2C3",
"N 	c #A69684",
"O 	c #7A6A57",
"P 	c #7A6E61",
"Q 	c #8E8A87",
"R 	c #3A2E24",
"S 	c #BAA287",
"T 	c #222224",
"U 	c #828283",
"V 	c #B6B6B4",
"W 	c #A68A6C",
"X 	c #929293",
"Y 	c #7E7261",
"Z 	c #5E5E5C",
"` 	c #CECECC",
" .	c #3E3E3C",
"..	c #767674",
"+.	c #424244",
"@.	c #968674",
"#.	c #6E624C",
"$.	c #BEAA91",
"%.	c #DEDEDC",
"&.	c #323234",
"*.	c #665E4C",
"=.	c #86827F",
"-.	c #BEBABC",
";.	c #A68E74",
">.	c #BA9E7C",
",.	c #3E3A34",
"'.	c #A2927C",
").	c #625244",
"!.	c #322E28",
"~.	c #4A3E34",
"{.	c #4A4644",
"].	c #525254",
"^.	c #B29E8C",
"/.	c #B5AA9C",
"(.	c #726A64",
"_.	c #524A40",
":.	c #AEA294",
"<.	c #BAAEA0",
"[.	c #969290",
"}.	c #565250",
"|.	c #AE9E8C",
"1.	c #9E9E9C",
"2.	c #6A6A6A",
"3.	c #9E8A74",
"4.	c #3A3A3C",
"5.	c #AA9E8C",
"6.	c #C2C2C2",
"7.	c #8A8A8A",
"8.	c #8A8274",
"9.	c #DADAD9",
"0.	c #C2B6A4",
"a.	c #A69E97",
"b.	c #463E34",
"c.	c #AAAAAB",
"d.	c #7E7A76",
"e.	c #262624",
"f.	c #464644",
"g.	c #1E1E1C",
"h.	c #6E5E4C",
"i.	c #2E2E2C",
"j.	c #62564C",
"k.	c #86725C",
"l.	c #7E6E5C",
"m.	c #5A524C",
"n.	c #867A6C",
"o.	c #7A7674",
"p.	c #BAAA94",
"q.	c #A29E9C",
"r.	c #968A7C",
"s.	c #A29684",
"t.	c #8E7A64",
"u.	c #726E6C",
"v.	c #B2A294",
"w.	c #9A8E8C",
"x.	c #8E827C",
"y.	c #6E625C",
"z.	c #635E5C",
"A.	c #4E4A4C",
"B.	c #827E7A",
"C.	c #B6B2B1",
"D.	c #9E9A97",
"E.	c #524E49",
"F.	c #9E866C",
"G.	c #928E8B",
"H.	c #5E5A59",
"I.	c #CECAC9",
"J.	c #76726F",
"K.	c #AA9A86",
"L.	c #AA9277",
"M.	c #766654",
"N.	c #928678",
"O.	c #8A7E70",
"P.	c #666260",
"Q.	c #AAA29C",
"R.	c #9E928C",
"S.	c #C2B29C",
"T.	c #766E5C",
"U.	c #B6A28A",
"V.	c #9E8E7C",
"W.	c #463A2C",
"X.	c #CAC6C4",
"Y.	c #C2AE9A",
"Z.	c #D6D2D4",
"`.	c #AAA6A4",
" +	c #5E564F",
".+	c #9E9691",
"++	c #928270",
"@+	c #AA967F",
"#+	c #928A85",
"$+	c #26221C",
"%+	c #726254",
"&+	c #C2AA8C",
"*+	c #8A827D",
"=+	c #B69E84",
"-+	c #AA9E94",
";+	c #827A75",
">+	c #6A6664",
",+	c #927E6C",
"'+	c #9E9284",
")+	c #C2BEBC",
"!+	c #C2A68C",
"                                                                                                ",
"                                      y 7.1.# c X = 7.y ].                                      ",
"                                s V r V @ l c.v s 1.# c X = U 3                                 ",
"                          + 6.6.^ r V l @ l c.v s 1.# c X = 7.U ..2.                            ",
"                        ^ m , 6.V q.D.E 4 s s v s 1.# X = 7.7.} U + ..3                         ",
"                    v u ` , m @ Q D.6 9 E 9 } X # 1.c c X = 7.U U + e ! % &.                    ",
"                  ^ ` u ` m 6.s I 6 } *+I g 6 =.} 7.c c X 7.7.U U + e ! ! 2.$                   ",
"                u u u ` , G 4 j .+I q 9 .+q q R.w.*+=.U = 7.} } + e ....! 2.Z B                 ",
"              u 5 u ` , m 1.Q.a.G.d.Q i .+R.q '+R.6 F o y % + U U e ..! y 2.% 3 $               ",
"            m u u ` ` m v a.-+.+I `.o *+i '+i R.~ '+i D J.=.w y ..e ..! ! 2.% Z ].'             ",
"          # u u u , 6.4 G.6 [.c V 6.r } o : F w.i i *+J.*+6 x.d.J.y y % y 2.% 3 3 > 0           ",
"          ` u ` , , V E a.Q J.a.m 6.m r } z.8 x.F : D 1 R.i w u.*+9 D >+P.3 % 3 Z h f.          ",
"        ^ ` , , m )+s Q.a.=.c # c.6.)+= ;+Y }.d o d.w F N.n.;+D 1 .+.+[.o J > > > h ]. .        ",
"      U ` , , m ^ s 9 #+Q c V V s 4 = Y K.t.P.} > t d.R.;+d.*+w : .+D..+E #+B.P.x E.$ +.        ",
"      @ m m 6.s c D.E B.} H M M r c y r.;.O U c.y B.2.#+F o ;+o R.q I .+E j G.} e P.].B 4.      ",
"      m m 6.6.# l l 9 e # @ 6.6.r Q 3.>.t.(.# e U 4 1.J.o '+R.R.D.D.I I E [.#+9 =.d.J B 4.      ",
"    1.6.6.^ ^ E f , C.U X 7.s -.c i [ ;.M.J.} y X @ ` )+G.o #+N g I I q .+6 G.9 =.D H.f.f.0     ",
"    ^ r r ^ r = f I.M #++ 1.} U O.S C 2 J.d.Z + v , u u , c.B.B.R.I I .+6 [.G.Q 8.>+A.$ f.i.    ",
"    r r V r V = @ 6.c o.Q r G J N !+F.P v e % ! l ` u u ` ` C.Q u.*+E .+.+i #+9 d.$ B B f. .    ",
"  + V V V @ @ = `.D.u.B.`.H = @.[ L.%+Q X 3 = D.6 G ` 5 u ` , ^ 1.u.D G.[.[.G.: >+$ $ f.+.&.    ",
"  7.@ l l @ l } Q B.J.! c # : A >.k.m.J.f.3 + l )+.+D.M ` ` ` X.6.l B.8 *+#+9 o.$ $ B f.f. .T   ",
"  l c.l l c.c.} ..x.o _ P.P |.[ & P z.i.$+!.2.# , , s X V , , , , 6.H D.J.J.o.H.$ B B f. .4.g.  ",
"  1.c.c.c.c.v + ! #+;+O.O.'.&+C O H.f.k ~.R > # 6.5 u l } s m , m m ^ r v U > $ $ B f.f. . .i.  ",
"  v v v v s s c 7.=.x.K.] $.A ;.d x %+M.).b.h X X.9.9.5 H c = V m 6.^ r @ # > $ $ f.f. . .' g.  ",
"  X s s s s 1.1.# 7.s.:./.Y.L L.3.; l.< b.!.' 2.H %.9.9.5 m D.} v r ^ r c.y $ B B f.f.+.4.' 0   ",
"  1.1.1.1.# 1.# c 8.5.b Y.b L.A &+( #.a / a B x ..6.9.9.5 5 m q.=.c l @ } B $ $ B +. . .4.&..   ",
"  7.# # # c # c X #+/.{ S.A =+n >.* t._ O < > U d.Q r 5 u u ` m v U U X h $ B f.f.+. . .4.' e.  ",
"  + c c c c X c =.'+) 7 S.p.Y.p.L [ S t._.,.f.} v G X v , ` m m )+`.e > f.$ B B f.+. .4.' 0 .   ",
"  ].X X X X = = e ] { 7 n n $.U.S S L.2 b.k ,.e v m r = = r 6.6.^ H X $ $ B f.+.+. .4.' &.i.    ",
"    = = = = = 7.D K./.7 p.p.A [ A @+@+;.l.< _.e 1.6.` V } ..c.r r @ 3 +.B B f.+. .4.' ' &.g.    ",
"    U 7.7.} 7.7.= :././.) b { p.=+@+@+,+l.d $ + 1.6.` , V 7.y X l } B f.B f.+. . .4.' &.&.e.    ",
"    ! } } } U + r.Q.:.5.=+^.b @+L.& z O h.x }.2.1.6.m m 6.V G.y e h 4.f.f.+.+. .4.' &.&.T .     ",
"      U U U + B.'.5.5.N K.N ( @.,+2 O  + +P.J.u.} @ ^ ^ r r l U B $ B f.f.+. .4.4.' &.i.0       ",
"      ..+ + + B..+q '.'.'.@.; Y P #.E.{.P.o.9 E *++ 4 V V @ c.U +.B f.+. . .4.4.' &.i.T .       ",
"        e e y ;+~ i V.V.r.2 O _ d _.}.> 8 = I q.I } J.X c.l c h f.B f.+. . .' ' &.&.i.0         ",
"        2.! 8 1 r.r.r.++2 T. +h }.h % % 3 o E I D.E U >+U c 2.f.f.+.+. .4.4.' &.&.0 T .         ",
"          ! y 1 N.N.N.n.P P.}.3 3 3 3 Z Z Z d.j E E G.e Z > f. .f. . . .' ' &.i.i.0 e.          ",
"          B y T.8.; 1 Y #.Z % 3 3 3 Z Z Z > h J.9 #+7.=.o.f.f.+. . . .' ' ' &.i.i..             ",
"            $ 2.2.J >+P.Z Z 3 3 Z Z Z > h h ].].J.o ;+d.> +.+.+. .4.4.' &.&.i.0 e..             ",
"              > % 3 3 3 Z z.Z > > > h h h h ].$ $ J o.J f.+.+. . .4.' ' i.i.i.e..               ",
"                $ 3 Z Z Z Z > > h h ].].$ $ $ A.{.f.> B +. .4.4.' ' &.&.i.0 e.g.                ",
"                  B Z > > h > h h ].].].$ $ B B f.f. . . .4.4.' ' &.i.i.0 T .                   ",
"                    i.h h ].].].].$ B $ B f.f.f.+.+. . . .4.' &.&.&.0 0 e.                      ",
"                        f.].$ $ B $ B f.f.f.+.+. . .4.' ' &.&.&.i.0 0 .                         ",
"                             .B f.B f.f.+.+. . .4.,.4.' ' &.&.i.0 g.                            ",
"                                ' +.+. .+. . .4.4.4.' &.&.i.e..                                 ",
"                                        e.&.&.i.0 0 0 g.                                        ",
"                                                                                                "};
