/* XPM */
static char * rndgnome_xpm[] = {
"48 48 17 1",
" 	c None",
".	c #070707",
"+	c #888482",
"@	c #494847",
"#	c #C1C0BF",
"$	c #A6A4A2",
"%	c #6B6967",
"&	c #989490",
"*	c #2C2B2A",
"=	c #E2E0DD",
"-	c #5A5957",
";	c #D1CFCE",
">	c #393838",
",	c #1B1918",
"'	c #787675",
")	c #B3B1B0",
"!	c #EDEDEA",
"                                                ",
"                   '&)$$$&&'-                   ",
"                $##)))$$$$&$&++%                ",
"             +####))))$$$$&&&&+++'              ",
"            #;####)#))$$&$&&&+&++''%            ",
"          $;;;;###))))$$$&&&&&++++''%@          ",
"         #;;;#####)))$$$$$&&+&+++''''%-         ",
"        ;=;;#;###))))$)&$&&&&+++++''%%%-        ",
"       ;;;;;#####))))=!&%&&&&+++'''''%%%-       ",
"      ;;;;;;;####)));!!+>'&&&++++'''%%%%-@      ",
"     $;;;;####)=;++);=#+**+&++++''''%%%--->     ",
"     ;;;;;;;##);=+@+;;&'*.+&&++++'''%%%%--@     ",
"    ;;;;######$)$'*@$&+%,.%++++''''%%%-%---@    ",
"   +#;#;######$+%*.*%-@,..%&++++'''%%%%----@    ",
"   ##;#####)##$'*..*+@*..*++++''''%'%%-%---@@   ",
"   ########)!=+&%*>'$&%@@'&++++'''%%%%---@-@@   ",
"  )#####)#))=&@-$$&$);==)+++++''''%%%%----@@@*  ",
"  ######)))$$%,,&$$=!==;)$'-++''''%%-%---@-@@>  ",
"  ))))))#))$+@..')=!;;$)+&-.%'''%%%%%-%---@@@@  ",
" '#)#)))))))&-*@+===)&+++->.-''''%%%---@-@@@@@  ",
" &))))))$$#!;++&#!!)+&&&+%..-''%%%%%-%---@@@@>* ",
" )))$)$)$$#=)--&;!;&&&&&+>..%'''%%-%---@-@@@@>* ",
" $$$$)$$$$'%-,,+;=$&+&+%>..>'%%%%%-%---@@@@>@>* ",
" $$$$$$$$$&-,..';#$+%'@,..,%''%%%%----@-@@@@>>* ",
" $$$$$$&$&$&%@-+;;$$+@..,>''%%'%%-%---@@@@>@>>* ",
" $$$&&&$&&&&&+&+);&&+*.*'''+);;#+%--@--@@@@>>>* ",
" &&&$&&&&&&&&&++);)+%..%'%+=!=;#'>%--@@@@>@>>>* ",
" +&&&&&&&&&&++&+))$&%,*'''+))#$&-.@-@-@@@@>>>*, ",
" -&&&&&+&++&++++&#)+%,*'%'%%&$&+*.--@@@@>>>>>*  ",
"  &&+&&+++++++++&$$+'@>%%%%%+#&',.-@@@@>@>>>**  ",
"  +++++&++++++''''&&&+%+&+$)!;&%..%@@@@>@>>>**  ",
"  '+++++++++'+'+'''&+++&$#;!=#&*.*-@@@>>>>>**,  ",
"   +++++'+'+''''''%'&+&&&$)#)&-..-@@@>@>>>*>*   ",
"   '+''+'''''''%'%%-%'&&&&&&&'*.*-@@@>>>>>**,   ",
"    ''''''''''%'%%%@@-'&&+&&+>..-@@>>@>>*>**    ",
"    ''''''''%%'%%%%'@*>@%%%%*..>-@>@>>>>***,    ",
"     ''%%%%%'%%%%%--%-,.,.,...*%>@>>>>*>***     ",
"     @%%'%%%%%-%-%-%--%@*,..,@-@@>>>>>****      ",
"      -%%%%-%%-%-------------@@>@>>>>*>**,      ",
"       -%%%-%-------@-@-@-@@@>@>>>>>****,       ",
"        -----%-------@@@@@@@@>>@>>>****,        ",
"         --------@@@-@@@@@@>@>>>>>****,         ",
"          >--@-@--@@@@@@@>>>>>>**>***           ",
"            @-@@@@@@@@@>@>>>>>*>***,            ",
"              @@@@@@@>>>>>>>>**>*,              ",
"                >>@>@>@>>>>>>**,                ",
"                    *>*>***,                    ",
"                                                "};
