/* XPM */
static char * rndical_xpm[] = {
"48 48 9 1",
" 	c None",
".	c #0C0C0D",
"+	c #797979",
"@	c #474747",
"#	c #B1B1B1",
"$	c #2C2C2C",
"%	c #969696",
"&	c #5F5F5F",
"*	c #C9C9CA",
"                                                ",
"                   +%%#%%%%+&                   ",
"                %#######%%%%%+++                ",
"             +*****###%##%%%%%%+++              ",
"            ****#######%%#%%%+%++++&            ",
"          %*******######%%%%%%+%++++&@          ",
"         ******##*###%#%#%%%%%+%+++++&&         ",
"        *********#####%#%%%%+%+%++++&+&@        ",
"       *******##*#####%#%%%%%%+++++++&+&&       ",
"      **********##%##%#%%%%%++%%+++++&&&&@      ",
"     %*******####&$+##%#%%%&@@+++++&+&&&&&$     ",
"     ***********#@&&#%#%%%%@&$%+++++++&&&&@     ",
"    ******@@@@@@@@&$$$@@@@@.+.$$$$$$$&&&&&@@    ",
"   %******@*#*###@&&&@+%%%%@&$@@@++&$&&&&@&@    ",
"   #******@*#####@@$@&+%%+%@&$@@@+++$$$&&&@@@   ",
"   ****#*#@#*###&@@.@%%%%%+.&.$@&+&+.@$@&@&@@   ",
"  ##*#*#*#@#####&.$.%%%%%++...@+++&+.$$&&&@@@$  ",
"  #*#*###*@###%#%&&+%%%%%%%&@@+++&+&$@$@@&@@@@  ",
"  ####*###@####%#%#%%%%&@@+++++++&+&.$$&&@@@@@  ",
" +#*######@#%#%#%%%%%&$...&%++++&+&&$$$@@&@@@$  ",
" %########@#%#%#%%%%%.....@++++&+&+&$$$&@@@@@@$ ",
" ######%#%@%#%%%%%%%%.....&++++&+&&&.$$@&@@@@$$ ",
" %#%#%##%#@%#%#%%%%%+++$..@++&+&+&&&$$$@@@@@@$$ ",
" %##%#%%#%@%%%%%%%%+%%+$..@++++&&&&&.$$&@@@@@@$ ",
" %%#%#%%%%@%%%%%%+%++%+$..@+&&+&+&&&.$$@@@@$$$$ ",
" #%%%%%#%%@%%%%%%+%%+++$..@&++&&&&&&$$$@@@@@@$$ ",
" %%%#%%%%%@%%+%+%+%++%+$..@+&&&&&&&@.$$@@@$@$$$ ",
" +%%%%%%%%$%%+%+%++++++$..@+&+&&&@&&.$.@@@$@@$. ",
" &%%%%%%+%$%+%++%+%++++$..@&&&&&&&@@$$$@$@@$$@  ",
"  +%+%+%%+.$$@$$++++++&$..@+&&&&&@&@.$.@@$@$$$  ",
"  +%+%+%+%$@+++$+++++++$..@&&&&@&@@@.$$$@$@$$$  ",
"  ++%+%+++@+@++$++++&+&@@$&&&&&&&@&@.$.@@$$$$.  ",
"   ++++%++$++@+$++&+&+&&&&&&&@@@@@@@.$$$$@$$$   ",
"   +++++++$++&@$&+&+&&+&&&&@&&&@&@@@..$$@$$$.   ",
"    ++++++$$$$$.$$$$$$.$$.$.$.$.$.$..$.$$$$$    ",
"    +++++++@$$$$$$$$$$$$$$$$$$$$.$$$$.$$@$$.    ",
"     &+&+&+@$@$@$$$$$$$$$$$$$$.$$..$.$.$$$$     ",
"     @&+&+&&&&&&&&&&&@&@@@@@@@@$@@@$$$$$$$      ",
"      &&&+&&&&&&&&&&&@&&@@@@@@@@$$@$@$$$$.      ",
"       &&&&&&&&&&&@&@&@@&@@@@@$@@@$$$$$$.       ",
"        &&&&&&&@&@&&@@&@@@@@@@$@$$$@$$$$        ",
"         @&&&@&&&@@&@@@@@@@$@$@$@$$$$$.         ",
"          $&@&@@@&@@@@@@@@@$@$@$$$$$$           ",
"            @@@&@@@@@@@@@$@$@$$$$$$.            ",
"              @@@@@@@@$@$@$@$$$$$$              ",
"                $@@@@@$@$@$$$@$.                ",
"                    .$$$$$$$                    ",
"                                                "};
