/* XPM */
static char * rndintel_xpm[] = {
"48 48 17 1",
" 	c None",
".	c #292929",
"+	c #6D7EC0",
"@	c #3452C7",
"#	c #4C66CC",
"$	c #B3B3B4",
"%	c #8F93A1",
"&	c #6C6D70",
"*	c #535455",
"=	c #838489",
"-	c #3D3D3D",
";	c #1F42D2",
">	c #C9C9C9",
",	c #5E74D1",
"'	c #485BA7",
")	c #5570D4",
"!	c #9E9FA1",
"                                                ",
"                   &=!%%%==&*                   ",
"                !$$$$$!!!!!%%==*                ",
"             &$>$>$$$$$$!!%%%%==&&              ",
"            $>>>>$$$$!!!!!!%%=====&*            ",
"          !>>>>>$>$$$$$!!!!%%%===&=&&.          ",
"         $>>>>>>$$$$$!$!!!%%%%====&&&&-         ",
"        >>>>>>>$>>$$$$!!!!!%%%=====&&&*-        ",
"       >>>>>>>>$$$$$!$!!!%%%=%===&&=&&&&-       ",
"      >>>>>>>$>>$$$$$!!!!!%%%======&&&&**.      ",
"     %>>>>>>>>$$$$$!$!!!!%%%====&&&&&&&*&*.     ",
"     >>>>>>>$>$>$$$$$!!!!%%%%=====&&&&&&**-     ",
"    $>>>>>>>$>$$$$!!!!!!%%%=====&=&&&&**&**-    ",
"   %>>>>>>>$>$$$$$$$!!!!%%%%====&=&&&&&&**--    ",
"   $>>>>>$>$$$$$!$!!!!!%%%=%===&=&&&&***&***.   ",
"   >>>>!$$$>$$$$$!$!!=#=%%=====&=&&'&&&*****.   ",
"  %>$>$!!$$$$$$!!!!!!+@+%%=====&&&&''&*&***-*.  ",
"  $>$$$$$$$$$$!$$!!!%+;+=%==&=&==&&@@&******-.  ",
"  $$>$$$$$$!!$!%%!!!%,;#%%====&&&&&*@&****-*--  ",
" =$$$$$+%!$+)%,@#@%%@;;;;#===&=&&&&@'&*****--.  ",
" =$$$$!%%!!+))+,#@#%+@;@,===&=&&&&*@@&****-*--. ",
" $$!$$!%+$!,)+!!+@@%%);#===&=&&&&&&-@&**-**--.. ",
" %$!!$!++!!,)%!!%@@%%,;@====+'&,&&*@@****--*--. ",
" $!$!!!%+!!,#%%%%@@%%);#==+@;;;;'&*-@&****---.. ",
" %!!!!%++!!)#%%%%@@+%);@==;;@+&#;#&@;**-*-----. ",
" !!!!!!++%%)#=%%%@@%=);@+);@&&&&@@&@@**-**---.. ",
" =!!%%%++%%)#==%=@@+%);;#;;;,,,)@;@-@****----.. ",
" =%%!%%=+%%,#=%==#@=++;;;;;;;;;;;@;@@**@*---... ",
" *%%%%%%%=%%=%==%%+==&+)#@;@=&&&&&*&***-*---..  ",
"  %=%===%==========&=&&&&,;;&&*&''**-*------..  ",
"  ===%========&=&&=&&=&&&&@;@,)@;****-*---.-..  ",
"  &============&=&=&&&&&&&&'@;-;'**-------....  ",
"   =======&=&=&=&&&&&&&&*&**&'*'***-*----.-..   ",
"   &===&=&=&=&&&=&&&&*&*&*&******-*----.-....   ",
"    =&=&=&&&&=&&&&&&&&*&*******-*--------...    ",
"    &&=&&&=&&&&&&&*&*&**&******-*-*----.....    ",
"     &&&=&&&&&&&&&*&*&******-*--*----.-....     ",
"     *&&&&&&&*&*&*&**********-*------.-...      ",
"      -&&&*&&&**&**&******-*-------.-.....      ",
"       **&*&**&**&********-*-*-----.-....       ",
"        **&*&**********-*-*------.-.....        ",
"         *****&*******-*--------.-.....         ",
"          .********-*-*--*----.-..-..           ",
"            -****-*-*---------.-....            ",
"              ---*---------..-....              ",
"                ---*-----.--....                ",
"                    .-......                    ",
"                                                "};
