/* XPM */
static char * rndirc_xpm[] = {
"48 48 129 2",
"  	c None",
". 	c #1E1E1D",
"+ 	c #8F7F25",
"@ 	c #4E4E4F",
"# 	c #CAB219",
"$ 	c #974C2A",
"% 	c #B77D1F",
"& 	c #60283E",
"* 	c #636468",
"= 	c #AD935F",
"- 	c #EBC418",
"; 	c #343434",
"> 	c #70513C",
", 	c #7B7C7E",
"' 	c #D2AE2F",
") 	c #806836",
"! 	c #8F8E8A",
"~ 	c #88361C",
"{ 	c #585859",
"] 	c #50382C",
"^ 	c #966624",
"/ 	c #949496",
"( 	c #9FA0A6",
"_ 	c #87898A",
": 	c #6A3B3E",
"< 	c #B49234",
"[ 	c #6F7073",
"} 	c #ABACAE",
"| 	c #B7661F",
"1 	c #E6B919",
"2 	c #772D31",
"3 	c #565B69",
"4 	c #474545",
"5 	c #B7B8BA",
"6 	c #412A31",
"7 	c #6B696A",
"8 	c #82808E",
"9 	c #5D4C30",
"0 	c #404042",
"a 	c #D39321",
"b 	c #C6C6C7",
"c 	c #9798B3",
"d 	c #777575",
"e 	c #A7A6A9",
"f 	c #AC541C",
"g 	c #87899E",
"h 	c #E4BB51",
"i 	c #986C6C",
"j 	c #775C3B",
"k 	c #7D8290",
"l 	c #CAAE7C",
"m 	c #CA7A34",
"n 	c #605D58",
"o 	c #B3B1B4",
"p 	c #9E5838",
"q 	c #3B393B",
"r 	c #564445",
"s 	c #582A42",
"t 	c #5B504E",
"u 	c #656A71",
"v 	c #E6C260",
"w 	c #7A3B4D",
"x 	c #BE7430",
"y 	c #793435",
"z 	c #7C7B9B",
"A 	c #A1A6AD",
"B 	c #AA8C40",
"C 	c #C2A634",
"D 	c #956F31",
"E 	c #D6A027",
"F 	c #B48C30",
"G 	c #2C2C2C",
"H 	c #8E4529",
"I 	c #867230",
"J 	c #D78B1A",
"K 	c #E2B264",
"L 	c #D0D0D0",
"M 	c #A88038",
"N 	c #834455",
"O 	c #834F66",
"P 	c #935A6E",
"Q 	c #C09858",
"R 	c #AC6420",
"S 	c #6A3346",
"T 	c #E4A020",
"U 	c #C68C60",
"V 	c #E6AF1C",
"W 	c #A5721C",
"X 	c #8F8DA1",
"Y 	c #865B31",
"Z 	c #F1CB0A",
"` 	c #786751",
" .	c #483541",
"..	c #7E7258",
"+.	c #634547",
"@.	c #784444",
"#.	c #927E54",
"$.	c #B95D1C",
"%.	c #605D71",
"&.	c #CB7116",
"*.	c #CAAE54",
"=.	c #A14F1F",
"-.	c #6D698D",
";.	c #C8942E",
">.	c #DBBB6F",
",.	c #BFA15C",
"'.	c #D5A151",
").	c #D28A4C",
"!.	c #C46220",
"~.	c #B67A54",
"{.	c #C28A21",
"].	c #89654C",
"^.	c #56343E",
"/.	c #A46D8A",
"(.	c #9A441E",
"_.	c #976749",
":.	c #E7B934",
"<.	c #D6963C",
"[.	c #745A54",
"}.	c #E2AE34",
"|.	c #352831",
"1.	c #6D2C42",
"2.	c #774F64",
"3.	c #4B415C",
"4.	c #787395",
"5.	c #8E7644",
"6.	c #9A999A",
"7.	c #BFBEBD",
"8.	c #CAA664",
"                                                                                                ",
"                                      [ _ ( 6./ / ! _ [ @                                       ",
"                                ( 5 5 o o } } e ( ( 6./ / _ , *                                 ",
"                          , 7.b 7.5 5 5 o } } ( ( ( 6./ / ! _ 8 [ 7                             ",
"                        7.b b b 7.7.5 o o } } e ( ( 6./ / ! _ _ 8 , d *                         ",
"                    e L L L 7.} } ( ( } o } e e ( 6.6./ 8 , , d d , , [ * ;                     ",
"                  7.L L b 7.} / / _ _ / } } e ( ( ( / _ [ [ 7 7 u [ d d [ 7 @                   ",
"                L L L L b } ( o } A 6.k ! ( e ( ( / _ , _ ! ! , [ n [ [ [ u { 4                 ",
"              L L L L b } ( 5 b b 7.} ! d ! e ( / _ [ k ( A e / , * n [ [ [ u * @               ",
"            b L L L L b A A 5 L b 7.} 6.[ _ ( _ [ u n , ! } } 6._ 7 { [ [ 7 7 n @ ;             ",
"          / L L L L b b 6./ o b b 5 6._ u * 7 , ( 6.k d [ _ 6._ , * @ 7 [ 7 * * * { G           ",
"          L L L L b b ( _ ! 6.A o A / , * { [ } 7.5 ( ! , 7 .., d n @ 7 [ * * * { { 0           ",
"        7.L L b b b 7.! _ _ _ ! ! _ , [ d [ _ 5 7.b o / d n { * n { * 7 [ 7 * * { { @ 0         ",
"      _ b b b b b 7.A k ! 6.k [ [ u * n [ 7 , o 5 7.o ! d t r @ t @ n n * * * n n { @ 0         ",
"      o b b b b b 7.k k ( A X [ * * 3 { n { ` / o } e _ ` 9 r r r +.r t { n * n { { @ @ q       ",
"      b b b b 7.7.5 k _ e o e g , [ d [ { n [.` ! ! _ [ [.t > 2.2.O 2.2.r { n * { { @ @ ;       ",
"    ( 7.7.7.7.5 5 o , X } } } e A A ( _ n ` ..t ` ..n t > [.].i /./.P 2. .{ n n { { @ @ 4 G     ",
"    5 7.7.5 7.5 5 } [ X A ( e } 5 5 o _ * 8 B j 9 9 9 9 > [.].i /./.P @. .{ n { { @ @ @ 0 G     ",
"    5 5 5 5 5 5 5 } [ g A ( c ( A } A u ` = l = I ) ) ].]._._.P P P w :  .@ 3 { { @ @ 4 4 0     ",
"  , 5 5 5 o o } } } u g ( ( ( c c A / * 5.,.>.>.8.Q Q Q U U ~.P N O w S  .@ n { @ @ @ @ 0 G     ",
"  _ } } o o o } } A u k c c ( c c c X * #.*.h h h >.K K <.).x $ w N w S  .@ { { { @ 4 4 4 0 .   ",
"  } o } } } } } } ( * g c c c ( c c X n 5.' h }.:.v v K <.m | $ S N w S 6 @ { @ @ @ 4 4 0 ; .   ",
"  6.} e } e e e e 6.* k c c c c c c X n + # 1 1 1 :.h T ).&.| $ w N w S |.@ { @ @ @ 4 4 0 0 G   ",
"  e e e e e ( ( ( 6.3 z ( c ( c c c ! n + # - - - 1 :.T J &.$.(.y N y ^.6 4 @ @ 4 4 4 0 0 ; .   ",
"  / ( ( ( ( ( ( ( 6.3 k c c c c c c g n + # - Z Z - :.V J &.!.(.y N w & 6 @ @ @ @ 4 4 0 q ; G   ",
"  6.( ( ( ( 6.6.6./ 3 u k c X X g c _ n + # - Z Z - - V J &.!.(.y w 1.s q @ @ @ 4 4 0 0 q ; .   ",
"  _ 6.6./ 6.6.6.6.! * @ 4.X g z g g z t + # Z Z Z - V V a &.!.(.2 w & 6 4 @ @ 4 4 0 0 q ; ; G   ",
"  , / / / 6./ ! / X k 3 -.g 8 -.4.g [ 4 I # - - Z Z 1 V J &.=.~ & 1.& 6 4 @ 4 @ 0 0 0 q ; G .   ",
"  @ / / ! ! / ! ! _ _ @ %.8 z -.z k * q ) C 1 1 1 - V V J $.(.2 2 1.& 6 4 @ 4 0 0 0 q q ; G     ",
"    ! ! ! ! _ _ _ _ _ 3 * g z -.z k 3 q 9 B :.}.;.V V T &.f ~ 2 w 1.& 6 4 4 4 0 0 q q ; G .     ",
"    k ! _ _ _ _ ! k k { %.8 z -.z k %.0 ] D C <.% E V J | (.2 2 w 1.s |.0 4 4 0 0 q ; ; G G     ",
"    [ _ _ _ k _ , _ , 3 * 8 4.-.4.z %.4 6 Y '.;.W E E x f (.~ 2 w 1.& |.4 0 0 q q q ; ; . .     ",
"      , k k 8 8 , , , @ %.8 z -.4.z %.3.6 j ,.;.W E a | f $ y y S 1.s |.0 0 0 q ; ; ; ; G       ",
"      , , , , , , , d @ %.4.4.-.4.z %.0 6 j ,.F W ;.;.R p (.y 1.w S  .|.q 0 0 q ; ; G . .       ",
"        , , , d d , d @ { 7 * * 4.4.%.3. .j = < D ;.;.| =.H y S : ^.6 |.q q q ; ; G G G         ",
"        [ [ d d [ [ [ [ @ 4 3.@ -.z %. . .` < F ^ {.{.| =.$ : S @.^.s G ; q ; ; ; G . .         ",
"          [ [ [ [ [ [ [ * 3 @ 4 3 -.%. .6 j B M ^ {.% | =.~ : ^.+.^.|.; 0 ; ; G G G G           ",
"          4 [ [ [ 7 7 * u u 3 @ 0 0 0 ; G ] ) M ^ F % R H H : ] ] 6 q q ; ; ; G G .             ",
"            @ * u * 7 * * * * 3 4 4 4 0 ; G 9 ) j M M ^ Y @.] 6 6 ; ; q ; ; G G . .             ",
"              n * * * * * * 3 3 3 3 3 { 4 q 0 9 9 5.D Y > 9  .G ; ; ; ; ; G G . .               ",
"                @ n n { n n n 3 { { { @ @ @ 4 q 0 9 t r ] ; ; q q ; ; G ; G G .                 ",
"                  @ { 3 { { { { @ @ @ @ @ @ @ 4 0 ; G G G G ; q ; ; G G G . .                   ",
"                    G { { @ { @ { @ @ @ 4 4 4 4 4 0 0 q q q ; ; ; ; G G G                       ",
"                        4 @ @ @ @ @ @ 4 4 4 0 0 0 0 q q q ; ; ; G G . .                         ",
"                            0 4 4 4 4 4 4 0 0 0 q q q ; ; ; G G G .                             ",
"                                ; 0 0 0 0 0 0 q q ; ; ; ; ; . .                                 ",
"                                        G G G G G G G .                                         ",
"                                                                                                "};
