/* XPM */
static char * rndicq_xpm[] = {
"48 48 17 1",
" 	c None",
".	c #2F2C2C",
"+	c #5C995C",
"@	c #5D5E59",
"#	c #4FCE4F",
"$	c #A25E5E",
"%	c #999692",
"&	c #5E755A",
"*	c #B0B2AC",
"=	c #903939",
"-	c #AACAA9",
";	c #E6E96F",
">	c #837E7A",
",	c #56B255",
"'	c #424240",
")	c #79CC78",
"!	c #C9CABD",
"                                                ",
"                   &>%%%%>>&'                   ",
"                %******%*%%%%>>@                ",
"             >!!!!*****%*%%%%%>>&@              ",
"            *!!*!*****%*%*%%%>%>>>>@            ",
"          *!!!!!*!******%%%%%>%>>>>@@.          ",
"         *!!!!!!*!***%%%%%%%%>%>>>&>&@'         ",
"        !!!!!!!*!***%%>>>&>%%>%>>>>&>@@'        ",
"       !!;!!!!*!***%>%-*)+>>%>>>&>&>@&@@'       ",
"      !!!!!!!!!*!**>*--*)+&%>&&@@@@@>@&@'.      ",
"     %!!!!!!******%>*!-),+@@@&&&&&&@@@&@@@.     ",
"     !;!!!!*%%%%**%>*-*))+@>+%++&&&@@&@@@''     ",
"    *!!!!!*%***>>*%&!-)))+&*%+&&&&&&'@&@@@''    ",
"   >!!!!!!*%!**%>>%@*!)))+@*%++&&&&&@@@@@@'.    ",
"   *!!!!!**>!!**%@>@%!))#,@*++&+&&&@'@@@@@@'.   ",
"   !!*!*!!*%%!***>@@>!-)#+@*++&&&&&&@@@@@@@'.   ",
"  %!*!*!***%>%!*%%&'@*-)#,@*%+&&&&&@'@@@@'@''.  ",
"  *!*!**!***%&%***>''&-)#+'-+++&&&@'@@@@@'@''.  ",
"  **!********%@>**%&''%)#,@-++&&&&''@@@'@'@'''  ",
" >*********%%>>@@%*>''@)#+'*++&&@''@@@@@'@'''.  ",
" >********%>@@''@'**'.'.'''!++@'.'&@@@@@'@''''. ",
" *****%*%*%@*%$='''>.>;-+'.&@..'@&@@@@@@'@'''.. ",
" %*%**%*%*>@**%%='..@;;;;;@..'&&@@@@@@'@''''''. ",
" *%*%*%*%*%@@%**%$..*;;;;;-'.@'@'@'@'@'@'@''... ",
" %%%*%%%%%%%>'@$%%@.!;;;;;;&..'.''.'.''@'''''.. ",
" %*%%%*%%%>@@'''....!;;;;;;@@%>>&&&@@'.'''''... ",
" >%%%%%%>@>>+++++&'.*;;;;;*'@!*%>>$&@@'''''''.. ",
" >%%%%%%>>**,#,###,'.%!;!!&..@***%>&@@@.'''.... ",
" '%%%%%>&%*)*,#,,,+....@@'.@'..>**%>>@@'.''...  ",
"  %>%>%>@***,,,,,&...@$...'*%$..@>%%>@@'.''...  ",
"  >>%>%>&%**,,+&.'&''*>$...*%$=...''''...'....  ",
"  &>>>>>@%**+&@'@&''*%$=.''*%$==...''.''''....  ",
"   >>>>>&>%>@'@&&@'%%$$=.'.%%$===..''''......   ",
"   >>>>>&@@@@&&>@'>*$$=.'@.%%$====.''''''....   ",
"    >&>&>&&&>@>@'@*$$$='@@.>%$====..'.'.....    ",
"    &>>@>@>@>@>@'%%$$=.'@@'$>$====..'.'.....    ",
"     @>&>@>@&@&'>%>$$=.@@'''%$====...'.....     ",
"     '@>@&@>@@@'>%$$==''@@''>>====..'.....      ",
"      '@@>@@@&@'>$$$=.@@'''.@$@=.=........      ",
"       @@@@@@@@'>$@='''@'@''.@@=.........       ",
"        '@@@@@@'@@@'''@''''''......'....        ",
"         @@@@@@@'''''@''@'''''.'.......         ",
"          .@@'@'''@'''''''''.'..'....           ",
"            '@'@@'@'@''''''.'.'.....            ",
"              .''''''''''.'.......              ",
"                .'''''.'.'.'....                ",
"                    ........                    ",
"                                                "};
