/* XPM */
static char * rndjnlp_xpm[] = {
"48 48 256 2",
"  	c None",
". 	c #2A2A2A",
"+ 	c #A2A292",
"@ 	c #6E7A7A",
"# 	c #425E5E",
"$ 	c #7E0202",
"% 	c #56563E",
"& 	c #563A3A",
"* 	c #B6B6B6",
"= 	c #364C4C",
"- 	c #522A2A",
"; 	c #96966E",
"> 	c #364646",
", 	c #955E5E",
"' 	c #CACACA",
") 	c #722222",
"! 	c #6A3030",
"~ 	c #623E3E",
"{ 	c #5A6C6C",
"] 	c #323E3E",
"^ 	c #831F71",
"/ 	c #865262",
"( 	c #86824A",
"_ 	c #4D2B2B",
": 	c #7A1A1A",
"< 	c #7A5E52",
"[ 	c #825255",
"} 	c #422A2A",
"| 	c #852A62",
"1 	c #762222",
"2 	c #BABABA",
"3 	c #AEAEAE",
"4 	c #9A829A",
"5 	c #863A82",
"6 	c #323232",
"7 	c #663A3A",
"8 	c #863286",
"9 	c #4E644E",
"0 	c #8A8A7E",
"a 	c #5E7272",
"b 	c #792E2E",
"c 	c #7F0E0E",
"d 	c #BEBEBE",
"e 	c #8C768C",
"f 	c #D6D6D6",
"g 	c #9A9A8A",
"h 	c #753B3B",
"i 	c #868256",
"j 	c #725454",
"k 	c #7D4242",
"l 	c #5E5E5F",
"m 	c #8E7E7E",
"n 	c #86242C",
"o 	c #862E5E",
"p 	c #966272",
"q 	c #C6C6C6",
"r 	c #3E5A5A",
"s 	c #6A8282",
"t 	c #762626",
"u 	c #574444",
"v 	c #525A56",
"w 	c #D2D2D2",
"x 	c #5A2A2A",
"y 	c #3A2C2C",
"z 	c #86865E",
"A 	c #424A4A",
"B 	c #96967C",
"C 	c #4A3B3B",
"D 	c #864A7A",
"E 	c #5E665E",
"F 	c #A6A6A6",
"G 	c #627266",
"H 	c #821C3E",
"I 	c #5E6E62",
"J 	c #362E2E",
"K 	c #3E563E",
"L 	c #837E7E",
"M 	c #5C3636",
"N 	c #929282",
"O 	c #7C2626",
"P 	c #484242",
"Q 	c #7F2E2E",
"R 	c #6E6E76",
"S 	c #7E1212",
"T 	c #828282",
"U 	c #3E3434",
"V 	c #821A1A",
"W 	c #6D2626",
"X 	c #667276",
"Y 	c #7C3B3B",
"Z 	c #8E6A8E",
"` 	c #AC9C9E",
" .	c #2E2E2E",
"..	c #822A52",
"+.	c #8E848E",
"@.	c #3A3A3A",
"#.	c #802223",
"$.	c #6B615E",
"%.	c #864666",
"&.	c #A292A2",
"*.	c #60545A",
"=.	c #363636",
"-.	c #5E2A2A",
";.	c #7A7A6E",
">.	c #A886A8",
",.	c #821636",
"'.	c #C2C2C2",
").	c #7C7C90",
"!.	c #3E3E3E",
"~.	c #6A6A5A",
"{.	c #554A4A",
"].	c #727272",
"^.	c #7E7E7E",
"/.	c #722626",
"(.	c #747484",
"_.	c #862E52",
":.	c #8E8E8E",
"<.	c #86526E",
"[.	c #525252",
"}.	c #CECECE",
"|.	c #813232",
"1.	c #5A5A69",
"2.	c #9A9A9A",
"3.	c #B2B2B2",
"4.	c #868686",
"5.	c #929286",
"6.	c #893D3E",
"7.	c #42465A",
"8.	c #9E9E9E",
"9.	c #7A7662",
"0.	c #4D4E4E",
"a.	c #5A5455",
"b.	c #6E6E6F",
"c.	c #969696",
"d.	c #761E1E",
"e.	c #5A6262",
"f.	c #7A1616",
"g.	c #822626",
"h.	c #663232",
"i.	c #8A8A9E",
"j.	c #7A4A46",
"k.	c #AAAA96",
"l.	c #806070",
"m.	c #7E8484",
"n.	c #432E2E",
"o.	c #56564A",
"p.	c #8A4A7E",
"q.	c #8A5E76",
"r.	c #7F0606",
"s.	c #425242",
"t.	c #783636",
"u.	c #6A2A2A",
"v.	c #821A36",
"w.	c #712E2E",
"x.	c #938E91",
"y.	c #862A6A",
"z.	c #4E3636",
"A.	c #9A769A",
"B.	c #AAAAAB",
"C.	c #323246",
"D.	c #862440",
"E.	c #2F2A2A",
"F.	c #7E1E1E",
"G.	c #9E7A9E",
"H.	c #42423A",
"I.	c #5A5A4E",
"J.	c #642A2A",
"K.	c #666A62",
"L.	c #875383",
"M.	c #723636",
"N.	c #767676",
"O.	c #3A3232",
"P.	c #464647",
"Q.	c #463333",
"R.	c #424242",
"S.	c #A2A296",
"T.	c #8A6186",
"U.	c #42565E",
"V.	c #7E1616",
"W.	c #5E4848",
"X.	c #6C6666",
"Y.	c #822236",
"Z.	c #8A8A82",
"`.	c #322E2F",
" +	c #5E5E6C",
".+	c #666672",
"++	c #864446",
"@+	c #595A59",
"#+	c #4E5A5A",
"$+	c #7C2A2A",
"%+	c #642E2E",
"&+	c #3E3E48",
"*+	c #565656",
"=+	c #546060",
"-+	c #823D3D",
";+	c #9C8A92",
">+	c #4B524F",
",+	c #4B4646",
"'+	c #862682",
")+	c #762A2A",
"!+	c #713232",
"~+	c #855E5F",
"{+	c #863333",
"]+	c #844A4E",
"^+	c #4E4E57",
"/+	c #523232",
"(+	c #8A728A",
"_+	c #722A2A",
":+	c #6C6E84",
"<+	c #800A0A",
"[+	c #727A72",
"}+	c #6A6A6B",
"|+	c #8A8A8B",
"1+	c #793232",
"2+	c #593131",
"3+	c #664242",
"4+	c #82828E",
"5+	c #423A3A",
"6+	c #7A7A7A",
"7+	c #4A4A4A",
"8+	c #822A2C",
"9+	c #8A8286",
"0+	c #626263",
"a+	c #42434A",
"b+	c #663636",
"c+	c #821212",
"d+	c #5A5A61",
"e+	c #7E1A1A",
"f+	c #9A969E",
"g+	c #A2A2A2",
"h+	c #821E1F",
"i+	c #7A2222",
"j+	c #821618",
"k+	c #C2BABE",
"l+	c #363232",
"m+	c #666667",
"n+	c #423E3A",
"o+	c #8A8689",
"p+	c #5E5A5A",
"q+	c #8A428A",
"r+	c #6A5A5A",
"s+	c #862A2A",
"t+	c #7E4E5E",
"u+	c #803636",
"v+	c #8E668E",
"w+	c #939292",
"x+	c #32323E",
"y+	c #862E32",
"z+	c #7A1E1E",
"A+	c #6E2A2A",
"B+	c #DADADA",
"C+	c #56565E",
"D+	c #804646",
"E+	c #554E4E",
"F+	c #9E9EA4",
"G+	c #8A7E8A",
"                                                                                                ",
"                                      * * 3.3 B.F g+8.2.2.                                      ",
"                                '.d d * * 3.3.3 B.F g+8.2.c.w+:.                                ",
"                          }.' q q '.d d * * 3 3 B.B.F 8.8.2.c.w+|+4.                            ",
"                        }.}.' q q '.d d 3.3.B.B.F F g+g+g+8.2.c.w+|+4.^.                        ",
"                    f w w }.}.' q '.2 * 3.3 3 3 3.3 3 B.F g+8.2.w+:.4.T ^.6+                    ",
"                  f f w }.}.}.' '.d * * * 2 * * * B.F g+2.2.2.c.5.:.|+^.^.6+N.                  ",
"                B+f w w w }.' q d 2 2 d 2 d d * B.S.g c.|+:.:.|+4.4.4.T 6+6+N.].                ",
"              f f f w w w }.' d 2 2 d q '.d 3.S.c.B :.:.Z.4.4.T T 4.4.T ^.N.N.].b.              ",
"            f f w w w }.}.' '.d 2 2 d '.* g+g g 5.f+w+o+9+T L L ^.6+6+^.^.6+].].}+}+            ",
"          f w f w w w }.q '.d d 2 '.q * g+g g + w+A.v+q.~+~+~+~+l.9.N.N.6+6+].b.b.}+}+          ",
"          w w }.w w }.' '.d 2 2 q ' d g+2.2.&.4 o+e q.D ]+t+]+j.[ < $.}+].N.b.}+m+m+0+          ",
"        }.w w }.}.w }.'.d d d 2 }.}.* c.c.f+4 G.x.G+q.%.++D+D+k D+j.u *+m+}+}+~.m+0+0+l         ",
"      }.}.' ' }.}.}.' '.d 2 * d ' d k.; x.Z >.k+` , ++6.-+6.-+k h k W.,+[.K.}+m+0+0+m+l         ",
"      ' ' ' ' }.' q '.d 2 2 * 2 ' 3.c.:.Z.4 &.` , 6.u+u+u+Y Y -+Y h h u A 9 { X.e.l l l @+      ",
"      '.q ' ' ' }.q 2 * 3 3.d q '.F x.+.Z ;+;+, u+Q {+{+|.|.|.t.Y Y h 7 H.s.e.m+0+l @+@+@+      ",
"    '.'.'.q q q q '.2 * F B.2 '.3 g 5.o+T.A.p y+y+s+8+8+8+Q Q b 1+t.h 7 C n+v E 0+p+a.a.@+*+    ",
"    d d d '.'.q ' '.2 3.F B.* 3.c.:.o+G+(+D _.g.n #.#.#.O g.$+Q 1+1+1+M.7 5+K 9 l l u E+*+[.    ",
"    2 d d '.'.'.q d 3.g+3 3.3.3 c.|+(+q+5 ..n h+h+h+h+h+#.#.O O b b w.1+b+U !.>+l l u u [.[.    ",
"  * * * 2 2 d '.q d 3 8.8.B.3.3 c.|+v+8 '+D.h+V j+V.j+V e+F.i+O t )+b !+b+U =.7+l @+,+7+0.0.    ",
"  3.3.3.2 2 3.B.3 3 g+2.8.B.3 F+:.e D | ^ H j+c+c S S V.e+e+z+#.t )+_+w.h.O.l+A =+@+H.R.7+[.0.  ",
"  3 3 3.3.3 F+i.c.2.2.c.F 3 F 5.4.L.o D.^ ,.c+c c <+<+c S e+z+1 O t )+_+h.O.=.> # *+!.=.R.0.7+  ",
"  B.B.3 B.F 2.4.w+2.c.c.F B.g+:.4.L.o D.^ ,.c+<+r.r.<+c S V.e+z+1 t _+A+%+J 6 ] # *+R.=.!.0.7+  ",
"  F B.F g+f+|+T :.c.c.w+c.g+g+Z.z <.| #.v.j+c r.$ $ <+c S V.: : 1 t /.A+%+y 6 @.P [.!.=.!.7+R.  ",
"  g+F F+c.i.T ^.^.i.w+5.:.2.g+Z.( t+| #.e+j+c+c <+r.r.<+S f.: z+d././.A+%+J `.Q.& E+@.l+!.7+P.  ",
"  8.8.8.:.4.^.N.(.).:.|+:.2.8.4.i / ..#.h+V.S c <+<+c S S f.: d.) 1 /.W -.`.6 n.& E+@.6 @.7+R.  ",
"  2.2.c.:.T ^.N.:+).:.|+|+c.8.Z.^.t+8+#.h+V j+S S S S S f.: : d.) W A+u.-.y  .6 @.0.@.6 @.R.R.  ",
"  c.c.c.|+4+6+].R 6+|+|+|+c.2.T T [ Q $+#.F.e+f.S S S f.: : d.1 ) ) W u.-.E. .] = 0.=. .=.R.!.  ",
"  w+w+w+|+^.6+].}+N.4.4.4.|+:.T L t+Q $+#.z+F.z+: : : : d.d.d.) /.W W x }  .. ] s.0.=.`.U n+    ",
"    :.:.Z.T 6+].}+@ m.T T T T L ^.j w.$+$+O i+z+z+d.d.: d.d.) ) ) W J._  .E. .&+7+a+6 J @.@.    ",
"    |+|+4.^.N.].}+X s m.T ^.T ^.;.*.& b $+O O i+i+d.1 d.) ) ) W W W W _ .  . .n+P.C. .l+@.@.    ",
"    4.4.4.^.N.b.}+.+:+^.^.^.6+6+^.N.j 1+b $+t t 1 t 1 ) /./.W W W J.J._ E.. n.C R.x+ .=.@.=.    ",
"      T T m.N.b.K.0+.+6+^.^.6+6+[+6+0+M !+b )+)+t /././.W W W J.J.J._ y E.. 5+,+n+ .E.l+=.      ",
"      ^.^.^.N.R }+0+0+b.N.N.[+N.N.N.X.7+M h.w.w._+_+A+W W u.J.W J._ y .  .J n+P @.E.J =.=.      ",
"        6+6+).].}+m+ + +b.I a ].N.N.].X.C 2+!+!+w.w.w.! u.J.%+- - y . . J Q.P @. .. `.6         ",
"        N.N.N.(.}+0+l @+C+*.$.b.].b.].X.3+C /+h.h.%+%+J.%+%+} y E.E. . .6 P P =.E.E.l+ .        ",
"          ].].N.R }+l d+d+a.*.C+~.{ I }+r+P U Q.Q.n.2+2+n.n.J  . .. . 6 !.R.@. .E.`.6           ",
"          b.b.b.].}+m+ +[.[.^+^+I.@+=+{ m+*+P Q.O.=.O.n.`. . . . . .=.!.R.@. ..  . .            ",
"            }+m+}+}+K.0+1.[.[.7+A u E+r l e.a.u 5+=.l+l+6  . . .=.6 !.R.@. .. .  . .            ",
"              m+m+.+X..+0+d+0.0.7+,+P 7.a+U.#+o.% n+=.=.6 6 6 @.R.R.!.@. .. . .  .              ",
"                0+e.l 0+m+0+d+0.7+7+P.!.&+R.R.P.o.0.A 7+P.P.H.R.R.=.6  .. . . .                 ",
"                  p+l p+l 0+l C+>+7+a+R.R.!.!.!.H.P.P H.&+!.@.@.=. .. . . . .                   ",
"                    @+*+*+a.p+p+*+^+^+P.P.!.@.@.@.=.l+=.x+6 6  . .E.. . .                       ",
"                        [.[.>+[.[.*+[.*+7+a+&+!.@.@.@.=.x+6  . . .E.. .                         ",
"                            0.7+7+7+7+0.7+A P.P.P.R.!.!.@.@.=.6  ..                             ",
"                                P.P.R.R.R.H.H.!.!.@.@.=.=. . ..                                 ",
"                                        !.@.@.=.=.=.6 6                                         ",
"                                                                                                "};
