/* XPM */
static char * rndlinpop_xpm[] = {
"48 48 25 1",
" 	c None",
".	c #121025",
"+	c #7E8173",
"@	c #3F4D7E",
"#	c #95BF62",
"$	c #CA4D6F",
"%	c #4269E8",
"&	c #C09131",
"*	c #595756",
"=	c #A00668",
"-	c #9DA49D",
";	c #AFAFAB",
">	c #343435",
",	c #6D6E74",
"'	c #D9CA3B",
")	c #963430",
"!	c #F3F4E8",
"~	c #AB7344",
"{	c #5C1280",
"]	c #D90743",
"^	c #8B8F98",
"/	c #6EE610",
"(	c #C6C8BE",
"_	c #E12E71",
":	c #E7B513",
"                                                ",
"                   ,^----^^,*                   ",
"                ;(;;;;-----^^^+,                ",
"             +((;((;;;;---^-^^^++,              ",
"            (((((;;(;;----^-^^++++,,            ",
"          ;(((((((;;;;---^-^^^^^+++,,>          ",
"         ;(!((((;(;;;;;---^^^^+++++,,,*         ",
"        !(((((;(;(;;;----^-^^^^+++,+,,**        ",
"       (((!(((((;;;;;;---^-^^^++++,+,,,**       ",
"      (!((((((;(;(;;;--^-&^^+^^+,,,,,,,**>      ",
"     -((((((((;~~;;;-----^^^^++,@@@,,,,,**>     ",
"     (((((((;&_]]~#;----^-^^^,..@%%@*,*,**@     ",
"    ((((((&$_]]])+/----^^-^^+>..@%%@@,*,***@    ",
"   ^((((($_]]]]=>,#^----^^^^+..@-#(%%@*****@    ",
"   (((((&_]]]=..{..*^-^^^^^+@%@@^;+-%@@*****>   ",
"   (((((;~*){...>>..*-^-^^,@%%%^%!(%%%@***@*>   ",
"  -(;(;;;/#>...@;^*..>~^^+@%@%%##'(+@@*****@@>  ",
"  ;((;((;#-@...>+>->..>**@%@%^-##^%%@****@**>>  ",
"  ;;;;;;;;;+.@,>*&'&>.>.>%%%#--'%%%@,*,***>*>@  ",
" +;(;(;;;;;-**>,&''&&,>>@%^'%#%%%@@,*******@*>  ",
" ^;;;;;;;;--^*+&:'':((%%%%-(-#%%@@*,****@@>*>>> ",
" ;;;;;;;-;-;-^*~::&&;%@%%#(-#-%@@*,,*******>@>> ",
" -;-;-;-------+>*:&-@%--^#--%;%@,******@>@>*>>> ",
" -;------^-^-^&,@--%%#+(#(#-@%..,,*,*****@*>@>. ",
" -----^--^-^-^^^>^%@%#-#%++%@%>.>*****@*>@>>>>> ",
" ^-^-^--^-^-^^^^@>%%%%'#%%%@^(*..******@*>@*>>. ",
" ^-^-^^^-^^^^^^*@%@%;%(#%%@+!!;..>**@*>*>*>>>>> ",
" +^-^-^^^^^^^,..%%%^##(^%@+!!!(..>**@**>@>*>>>. ",
" *^^^^^^^^^^+...%%%'-%%%@+!!!!(..>**@@>*>>>>>>  ",
"  ^^^^^^^^++,...^%%!-%%@+!!!!!;>.>*>**>*>@>>>>  ",
"  ^^+^++++++@@%%%#-#%%@+!!!!!(;>,~**>*>>>>>>>.  ",
"  ,+^++^++,@%%-@%^(%%@^!!!!!!:::::~>*>*>@>>>>.  ",
"   ++++++++@@%#^%-%%@+!!!!!!(:::::&*>@>>>>>>>   ",
"   ,++++++,+@@%(#^%%@!!!!!!!(&:::':&*>@>>>>>.   ",
"    +,+,,+,,,*@+^%@,:(!!!!!(*&::::::~>>>>>>.    ",
"    ,,+,,+,,,^,@@@,::'(!((+.>&:':::&*>>>>>>.    ",
"     ,,,,,,,,,&*@*:::&>.>...>&:::&,>>>>>>.>     ",
"     *,,,,,,,,*,@~&&~*>>*>*>>~&&*>>>>>>>>.      ",
"      *,,*,**,**************>*>>>*>>>>>.>.      ",
"       *,,*,*,*,*******@*>*>*>*>>>>>>>>>.       ",
"        *************@*>*>*>>>>>>>>>>>..        ",
"         *,*********>**>*>*>*>@>>>>>.>.         ",
"          >****@*@@*@>*>@>>@>>>>>>>>>           ",
"            @***>*>*>*>@>*>>>>>>>>..            ",
"              >*@@>*>@>>>>>>>>>>>.              ",
"                >@>@>@>@>>>>>>>.                ",
"                    >>>>>>>.                    ",
"                                                "};
