/* XPM */
static char * rndloki_xpm[] = {
"48 48 256 2",
"  	c None",
". 	c #1A1612",
"+ 	c #8A8680",
"@ 	c #56524C",
"# 	c #7E766A",
"$ 	c #B2B2B2",
"% 	c #323230",
"& 	c #6E6A65",
"* 	c #A2A2A1",
"= 	c #423E39",
"- 	c #72563E",
"; 	c #9A9A96",
"> 	c #64625E",
", 	c #503E2D",
"' 	c #937961",
") 	c #62523E",
"! 	c #968676",
"~ 	c #836A52",
"{ 	c #857666",
"] 	c #524E46",
"^ 	c #968E85",
"/ 	c #CECECB",
"( 	c #625A4E",
"_ 	c #827E79",
": 	c #463A2F",
"< 	c #2A261E",
"[ 	c #766A5A",
"} 	c #AEAEAE",
"| 	c #726250",
"1 	c #C3C3C0",
"2 	c #4E4A45",
"3 	c #4A4A49",
"4 	c #564E46",
"5 	c #423222",
"6 	c #AA927A",
"7 	c #372E23",
"8 	c #76726A",
"9 	c #5E5A52",
"0 	c #4A463A",
"a 	c #6E5A49",
"b 	c #B4A292",
"c 	c #8A7664",
"d 	c #AF9E8F",
"e 	c #C1BEBA",
"f 	c #96928E",
"g 	c #7E624A",
"h 	c #5D4A38",
"i 	c #2A2A29",
"j 	c #8A7E73",
"k 	c #463E36",
"l 	c #927E6A",
"m 	c #6A5A4C",
"n 	c #5A5246",
"o 	c #908F8C",
"p 	c #6E5640",
"q 	c #4E4239",
"r 	c #3A3A37",
"s 	c #B6B2AE",
"t 	c #A69A8A",
"u 	c #644E3B",
"v 	c #826E5D",
"w 	c #6A6256",
"x 	c #9A9288",
"y 	c #AEAAA4",
"z 	c #7A624E",
"A 	c #46423E",
"B 	c #625243",
"C 	c #5A5650",
"D 	c #90867A",
"E 	c #7A6A5A",
"F 	c #9F8167",
"G 	c #524A3E",
"H 	c #A48A72",
"I 	c #625E57",
"J 	c #3E3630",
"K 	c #8E725A",
"L 	c #6A6660",
"M 	c #9A8E84",
"N 	c #322A1E",
"O 	c #564638",
"P 	c #B6B6B5",
"Q 	c #727270",
"R 	c #8A6E52",
"S 	c #1E1A16",
"T 	c #AAAAAA",
"U 	c #9F9284",
"V 	c #72665E",
"W 	c #363634",
"X 	c #8D8275",
"Y 	c #82766C",
"Z 	c #5A4E3E",
"` 	c #6A5644",
" .	c #7A7670",
"..	c #A29A90",
"+.	c #927E6E",
"@.	c #8A7A6A",
"#.	c #726659",
"$.	c #7A6E60",
"%.	c #BAAEA5",
"&.	c #968A7E",
"*.	c #7C7A75",
"=.	c #62564B",
"-.	c #8E8A85",
";.	c #7E7269",
">.	c #584632",
",.	c #7B5E45",
"'.	c #827262",
").	c #4E4636",
"!.	c #9E928A",
"~.	c #6E6E6D",
"{.	c #A6A29C",
"].	c #6A5E4E",
"^.	c #827A71",
"/.	c #BCB6B0",
"(.	c #2C2016",
"_.	c #524639",
":.	c #755B42",
"<.	c #848281",
"[.	c #A28E7C",
"}.	c #AAA69E",
"|.	c #4A4235",
"1.	c #564A3E",
"2.	c #3E3A33",
"3.	c #2E2E2B",
"4.	c #AEA298",
"5.	c #B6AA9F",
"6.	c #5B4E42",
"7.	c #37322A",
"8.	c #5E5242",
"9.	c #9B9A9A",
"0.	c #978270",
"a.	c #665A4F",
"b.	c #766E65",
"c.	c #9B8A7A",
"d.	c #565653",
"e.	c #6A543D",
"f.	c #4A3E2E",
"g.	c #6E5E4E",
"h.	c #5E564D",
"i.	c #6E6257",
"j.	c #423A31",
"k.	c #4B3A2A",
"l.	c #232221",
"m.	c #B5AEA4",
"n.	c #977E68",
"o.	c #725A48",
"p.	c #86827A",
"q.	c #322E26",
"r.	c #7A6E66",
"s.	c #665E52",
"t.	c #7E6653",
"u.	c #AEA69F",
"v.	c #564231",
"w.	c #8E7E6F",
"x.	c #867A6C",
"y.	c #52463E",
"z.	c #4E463C",
"A.	c #736257",
"B.	c #4A4640",
"C.	c #666664",
"D.	c #79726E",
"E.	c #A29E98",
"F.	c #403E3E",
"G.	c #96867E",
"H.	c #9A9490",
"I.	c #9E968D",
"J.	c #6E665A",
"K.	c #AEAAAA",
"L.	c #2E261E",
"M.	c #9E9E9D",
"N.	c #BEB2A9",
"O.	c #4E4E4D",
"P.	c #A69A90",
"Q.	c #8C827B",
"R.	c #7E6A59",
"S.	c #765E49",
"T.	c #4E4642",
"U.	c #8A8A87",
"V.	c #5A5A58",
"W.	c #665648",
"X.	c #4A423B",
"Y.	c #494646",
"Z.	c #726A64",
"`.	c #867261",
" +	c #5A524B",
".+	c #7E7670",
"++	c #7A6653",
"@+	c #928274",
"#+	c #424241",
"$+	c #8E867F",
"%+	c #3E3A3A",
"&+	c #7B7B7B",
"*+	c #9A765A",
"=+	c #9A8673",
"-+	c #766657",
";+	c #7E6E5D",
">+	c #928A82",
",+	c #8E7A66",
"'+	c #322E2C",
")+	c #8A715D",
"!+	c #3A3631",
"~+	c #524E4B",
"{+	c #969693",
"]+	c #5E5E5C",
"^+	c #766250",
"/+	c #524A43",
"(+	c #866E5A",
"_+	c #B2AAA2",
":+	c #A2968E",
"<+	c #A29686",
"[+	c #5E5652",
"}+	c #CAC6C6",
"|+	c #4A3E35",
"1+	c #BFBAB6",
"2+	c #725E4C",
"3+	c #8E7664",
"4+	c #A69E96",
"5+	c #5E5248",
"6+	c #D6D2D2",
"7+	c #AAA29B",
"8+	c #6A625B",
"9+	c #7A7269",
"0+	c #6A5E54",
"a+	c #867A72",
"b+	c #766A60",
"c+	c #A99585",
"d+	c #777676",
"e+	c #40362A",
"f+	c #36322F",
"g+	c #665243",
"h+	c #726E68",
"i+	c #B2A69E",
"j+	c #262625",
"k+	c #9E8E81",
"l+	c #5E4E3D",
"m+	c #B2AEAB",
"n+	c #504232",
"o+	c #5A4E47",
"p+	c #665E57",
"q+	c #5A4A3E",
"r+	c #A9A6A4",
"s+	c #423A36",
"t+	c #6E665F",
"u+	c #2E2A28",
"v+	c #8E7A6B",
"w+	c #5E5A57",
"x+	c #564A42",
"y+	c #625A52",
"z+	c #80664C",
"A+	c #9E9A94",
"B+	c #66523D",
"C+	c #6E5E56",
"D+	c #868686",
"E+	c #826A5A",
"F+	c #867E76",
"G+	c #525252",
"                                                                                                ",
"                                      {+o o U.D+<.<._ &+&+                                      ",
"                                M.9.{+; 9.E.} } {+M.o U.<.d+Q ~.                                ",
"                          r+* * T } m+K.{.A+f <.>+p.+ >++ f U.d+~.C.                            ",
"                        r+} 1+1+_+r+I.o >+$+-.^ $+F+_ _ *.D. .o _ *.& >                         ",
"                    } $ e 1+* H.A+P.I.!.x ..M ^ Q.*.*.j X j F+b.~.F+ .Q > V.                    ",
"                  } 1 1+T E.{.y 4+I.!.!.U D F+$+$+!.D.;.^.^.*.j + D.D.8 b.L V.                  ",
"                $ }+1+{.4+7+i+d I.:+4+U M !.x ;.h+Z.C.9+;.w.@.>+j F+a+& L ~.C.d.                ",
"              $ }+1 r+N.N.m.7+4+7+i+o D. .8 h+Y & L p.> t+Y Z.;.@+Q.^..+b.L d+]+G+              ",
"            $ / e {.u.i+7+P.r+U U  .r.b.Z.;.r.@.b+8+x.L V.d.^.D a+t+;+;.r.y+p+& > O.            ",
"          $ e / r+u.u.4.u.7+_ &.X  .a+h+$+& p+b+[ i.0+b+O.0+{ t+C > V ;.Y 8+b+C > d.3           ",
"          1+6+u.5./.5.4+u.*.Q..+x.! j + X `.@.y+0+;+0+-+h.V -+p+a.[+9+r.Y b+h+Z.p+L G+          ",
"        P / s }./.i+y 7+_ c+U X 0.c.;+! $.E w 3 (  +3 > n { v+! v+i.C ^.t+b+i.[+[+@ C 3         ",
"      T 1 /.7+%.5.4+_++ D U @+c.j @+b+c.[ i.X./+C *.M p+n m ;+-+c w.0+V 0+0+#.p+[+h.w+~+        ",
"      P e u./.1+_+s $+D t c+[.c+c `.#.w.c @ #+] f w X.o+a.R.v+w.'.w.| s. +0+0+$.0+ +C ~+A       ",
"      e y y %.P.!.$+! d d i+d [.l ;+| | W.= >+G !+q B a ^+++0.3+)+;+A.i.2 ~+s.;.8+a.[+h.Y.      ",
"    * 1+7+i+5.* 4+p.c+t [.=+' =+H '.3+i.r p.E |.i |.| (+,+)+n.v n.{ ++v n 5+i.0+y+h.@ @ 2 A     ",
"    $ K.E.%.i+P.+ x k+c+[.l J.#.;+(+,+z.*.$._.u ).|+B+R F c.| E+3+@+0.'.g.] s.Y.5+2 a. +w+F.    ",
"    e T ..4.I.7+Q.k+@+6 ! 0.$+X g.R.1._.'.B+` g S.f.W.n.F n.m c H c `.;+W.=.i.9 o+ +@ Y.d.%+    ",
"  9.s I.; }.^ ..^.X D 6 @.w [+0 m z.8+y+7 S.z+R 2+e+: e.3+F ` ^+! `.v v A T.= o+4 4 h. +h.#+    ",
"  9.P I.m.4.A+>+I.x.0.w.'.[ 8+x.k A X 7.q.k.B+g :., >.,.H R z+) 2+R.v g.z.z.B.a.9 z.4 T.] = r   ",
"  9.y A+i+:+r+U M r.k+6 c '.;.3+2.k ;.N v.N L.k.- N N B+~ ^+0.c.l z R.z.5+= X.p+k 2 A ] 2 Y.!+  ",
"  M.A+I.u.x E.^.j w.c+k+l `.++++n+=.X.f.S.e+++L.(.7 k.k.:.K ' 2+t.)+2+=.{ m 4 ] X.z.=.B.A #+%+  ",
"  * A+x :+M ..D.w.M M x.n.n.E A f+G e+>.e+(.k.,.*+F g k.h ,.~ R `.E a q+5+4 z.8 2.5+X.k @ A W   ",
"  {+{+A+x x x 8 j w.v+E l 0.W.A _.l+k.k Q e.(.3+6 *+7 7 : p ` h (+' ++1._.q q ( k  +!+X.~+2.W   ",
"  {+E.>+&.:+I.F+Y 0.x.w.[.' )+` z _.& <+H z+- 7 . S W =+7 u n.++z+-+++S.g.-+q q 2.1.z. +V.W f+  ",
"  + {+$+M c.D  .9+0.@.0.=+{ ,+2+I D [ ^+h L.5 , 5 (.x B+n+, h l+z+n.E _.q+a./+[+!+=.h.G z.!+3.  ",
"  <.I.<.$+>+&.Y $.! ,+! @.l ' i.j f.u+l.7 v.v., : 8 c p j.a ) p o.++h _.1.Z k I !+h.k q 2 '+'+  ",
"  &+f p.Q.>+D j b.&.v+,+0.! { 1.0 & S.u+!+u e.h G @+B+7.f.S.++++v ++` G W.Z i.2 k q /+/+d.3.    ",
"    U.$+D w.G..+;.j w.v =+,+t.^+g.n 8.e.k.e+u v.+ :.7 7 , >.2+z+^+^+1.q q y.8+/+y.h.y.B.#+u+    ",
"    _ -.d+p.G.F+Q.> [ #.v c l 0.W.k = ).S.u 7.: Z l.9 j., a z ++`.2+q+n+q  +5+2.1.z.X.C %+3.    ",
"    &+<.Q.9+Q.;.Y #.J.E '.`.c.`.^+++) )._.l+e+2.7.] c ) % h ++E+E+R.g.s+4 & r : s+X.X.2 3.u+    ",
"      d++ h+F+h+8+Z.Y 9 d.{ x.-+`.,+3+R.Z _.|.].q.e+_.e.k n+m 2+l+$.Z 4 W.: % y.X.k 2 = 3.      ",
"      ~.+ .+t+;.L $+x.( =.'.W.E c k+0.^+1.>.).)+e+2.7 j.W.j.B+) B ` q O X.z.X.z.J A 2 '+L.      ",
"        &+8 & ;.;.r.i.i.h.@ ;+| E &.| m E a Z h+: l+1.7.Z B 1._.m g.X.!+j._.1.q k @ % 3.        ",
"        > *.Z.h+8+p+p+J.b.O.n g.'.v ` ,+v ^+a.n G W.l+|.j.8.: |+q+m _._.G 5+=.2.s+'+i j+        ",
"          ~.D+9+t+V #.E a.i.O.-+$.0 m w.c R.` q+) | m -+g+k X.A k 1.6.n+4 w+q f+%+'+l.          ",
"          ]+& 8 L I i.t+w C 0+I 4 A 0 =.{ -+8.B W.^+` l+|.k s._.|+_.o+5+ +/+!+i % u+            ",
"            C C.& I C p+#.w -+/+J.y+2 G =.k X.z.$.;+A.m 6.k I r |.1.z.2.7 f+7.7.i l.            ",
"              @ I Z.w+y+y+0+( h.C i.n a.o+=.].0+A.m ].].Z A @ J |+z.: J s+Y.'+j+S               ",
"                G+@ > [+~+h.( a.a.W.a.].0+o+4 z./+q+=.=.1.G j.f+J !+s+~+#+f+j+l.                ",
"                  O.~+9  +[+=. + +y+a.i.0+=.=.5+B 4 o+_.x+y.2.'+k z.2 !+f+j+l.                  ",
"                    3 3 @ @ I C y+ +=.( /+5+4  +o+6.y.X.!+s+!+X.Y.W q.j+l.                      ",
"                        #+#+4 @ w+3 C o+n x+A /+G /+T.X.2 F.G+!+f+u+l.l.                        ",
"                            F.F.Y.A ~+~+2 @ /+~+@ z.B.B.= J 3.i l.l.                            ",
"                                W r W % W 2.r !+% % % 3.i i l.l.                                ",
"                                        % '+'+3.3.i < i                                         ",
"                                                                                                "};
