/* XPM */
static char * rndlime_xpm[] = {
"48 48 256 2",
"  	c None",
". 	c #323232",
"+ 	c #456E3D",
"@ 	c #369A51",
"# 	c #8C962C",
"$ 	c #9CA09F",
"% 	c #8EB936",
"& 	c #C2C426",
"* 	c #39513E",
"= 	c #909B93",
"- 	c #93B97E",
"; 	c #567E42",
"> 	c #869A32",
", 	c #5DAB62",
"' 	c #5D8054",
") 	c #9ECEAE",
"! 	c #69B67F",
"~ 	c #9EBD33",
"{ 	c #8A9A8E",
"] 	c #406943",
"^ 	c #A1B74F",
"/ 	c #689772",
"( 	c #96AEA0",
"_ 	c #C0CE63",
": 	c #838683",
"< 	c #C5CA28",
"[ 	c #5FAE77",
"} 	c #4E4E4E",
"| 	c #9BA631",
"1 	c #4E7051",
"2 	c #B0C873",
"3 	c #8DA249",
"4 	c #B7CB4A",
"5 	c #355A40",
"6 	c #628652",
"7 	c #B6BAB6",
"8 	c #6E6E6E",
"9 	c #76822E",
"0 	c #656866",
"a 	c #5BA43E",
"b 	c #7C9A6C",
"c 	c #363636",
"d 	c #D9DA35",
"e 	c #9DBBA3",
"f 	c #8AA692",
"g 	c #6D8B5E",
"h 	c #9EC435",
"i 	c #484948",
"j 	c #6AAB3A",
"k 	c #A2D2B2",
"l 	c #BED149",
"m 	c #9EC544",
"n 	c #A4B042",
"o 	c #66B276",
"p 	c #3A3A3A",
"q 	c #6A6E6B",
"r 	c #94BB46",
"s 	c #6F9963",
"t 	c #445F32",
"u 	c #4E6732",
"v 	c #7E7F7E",
"w 	c #BECEC4",
"x 	c #7C9681",
"y 	c #A0BD76",
"z 	c #424643",
"A 	c #A8B92E",
"B 	c #9CAC42",
"C 	c #6B8132",
"D 	c #449E49",
"E 	c #76A680",
"F 	c #AFC244",
"G 	c #657F68",
"H 	c #7FB651",
"I 	c #ABC234",
"J 	c #6EAE4E",
"K 	c #627737",
"L 	c #304436",
"M 	c #4B6739",
"N 	c #78867E",
"O 	c #A4A929",
"P 	c #6EB686",
"Q 	c #7AA272",
"R 	c #48504A",
"S 	c #A5BDAB",
"T 	c #53774D",
"U 	c #C9D0CB",
"V 	c #AFC466",
"W 	c #6AB26E",
"X 	c #90AA59",
"Y 	c #75A27F",
"Z 	c #9CBC93",
"` 	c #3E3E3E",
" .	c #71AD32",
"..	c #8CA470",
"+.	c #6F8E47",
"@.	c #505551",
"#.	c #405C36",
"$.	c #68926F",
"%.	c #8CB187",
"&.	c #D2DA32",
"*.	c #ACB2AE",
"=.	c #D6E0D9",
"-.	c #D0D741",
";.	c #486A3E",
">.	c #82AA6F",
",.	c #A3B95A",
"'.	c #D9DB4D",
").	c #8B9D4A",
"!.	c #9AC47A",
"~.	c #56A765",
"{.	c #7C9755",
"].	c #B8C42F",
"^.	c #B5BA2A",
"/.	c #C7D62F",
"(.	c #34563F",
"_.	c #658B67",
":.	c #7A817B",
"<.	c #5B695E",
"[.	c #5B7060",
"}.	c #86B656",
"|.	c #78904C",
"1.	c #66863A",
"2.	c #85AD8B",
"3.	c #8EB22E",
"4.	c #9AB64A",
"5.	c #4A7242",
"6.	c #B7CE55",
"7.	c #7FA262",
"8.	c #BAC646",
"9.	c #344A39",
"0.	c #9DB054",
"a.	c #B3B93B",
"b.	c #76B636",
"c.	c #7AA676",
"d.	c #6E966A",
"e.	c #3E5B43",
"f.	c #C2D057",
"g.	c #B2BEB6",
"h.	c #94CAA4",
"i.	c #8CB297",
"j.	c #5B785E",
"k.	c #3E6246",
"l.	c #B8D278",
"m.	c #6C8854",
"n.	c #386042",
"o.	c #3C563E",
"p.	c #93B796",
"q.	c #A2C2A0",
"r.	c #8EBF5A",
"s.	c #8CAB6A",
"t.	c #4E6054",
"u.	c #6E8672",
"v.	c #A4BF5D",
"w.	c #86BA5E",
"x.	c #39453D",
"y.	c #AECB31",
"z.	c #A6B02E",
"A.	c #729E6E",
"B.	c #B6C54E",
"C.	c #6F8C76",
"D.	c #7E9E72",
"E.	c #D4D8D5",
"F.	c #798F35",
"G.	c #BACC6F",
"H.	c #798A7D",
"I.	c #898F8C",
"J.	c #C1C435",
"K.	c #839A54",
"L.	c #50A440",
"M.	c #647768",
"N.	c #7AA682",
"O.	c #A7C575",
"P.	c #748078",
"Q.	c #CFD655",
"R.	c #A6B2AA",
"S.	c #769258",
"T.	c #566E33",
"U.	c #CACACA",
"V.	c #8FA459",
"W.	c #46694E",
"X.	c #747875",
"Y.	c #566F57",
"Z.	c #C6CE41",
"`.	c #BFD274",
" +	c #8E9E42",
".+	c #ACC052",
"++	c #9DBC87",
"@+	c #B2CC34",
"#+	c #53753E",
"$+	c #7FA26C",
"%+	c #869E8E",
"&+	c #72B682",
"*+	c #4F6855",
"=+	c #80B64A",
"-+	c #B1C656",
";+	c #90C278",
">+	c #BBC7BF",
",+	c #DEDE46",
"'+	c #8CB27E",
")+	c #AACA66",
"!+	c #9AC05E",
"~+	c #8EAC97",
"{+	c #799E66",
"]+	c #7C9246",
"^+	c #92B05F",
"/+	c #95C031",
"(+	c #A2B867",
"_+	c #ACB848",
":+	c #95A54B",
"<+	c #B6C23D",
"[+	c #819844",
"}+	c #AAC3B0",
"|+	c #979C99",
"1+	c #A0A8A4",
"2+	c #63AC3C",
"3+	c #729A6E",
"4+	c #CED25E",
"5+	c #595E5B",
"6+	c #AFB026",
"7+	c #B8CB62",
"8+	c #B2CE78",
"9+	c #445C4A",
"0+	c #5F8040",
"a+	c #828F31",
"b+	c #85A38F",
"c+	c #81A660",
"d+	c #708A36",
"e+	c #72884A",
"f+	c #81B234",
"g+	c #72926D",
"h+	c #82AE7F",
"i+	c #738E56",
"j+	c #91B26B",
"k+	c #C7D343",
"l+	c #80BA77",
"m+	c #9CB230",
"n+	c #77917F",
"o+	c #6C8171",
"p+	c #5C7A4F",
"q+	c #405647",
"r+	c #9BB5A2",
"s+	c #AACA7E",
"t+	c #98B660",
"u+	c #739E7F",
"v+	c #3E4641",
"w+	c #424E46",
"x+	c #7F9C87",
"y+	c #B2BE39",
"z+	c #8E9D32",
"A+	c #688649",
"B+	c #658159",
"C+	c #48624E",
"D+	c #52AA5A",
"E+	c #A6C280",
"F+	c #71977C",
"G+	c #BAD268",
"                                                                                                ",
"                                      7 *.R.1+1+$ |+|+|+|+                                      ",
"                              E.U >+7 R.( f b+b+%+x+x { = = $ $                                 ",
"                          E.U >+g.r+~+( ~+~+b+b+x+x+x+F+n+n+n+I.I.= $                           ",
"                        E.U.S e r+r+r+( ~+~+f ~+b+%+%+x+x n+C.C.H.H.I.I.                        ",
"                    =.U >+S S e r+p.r+2.b+Y Y F+F+/ F+F+x+x n+n+u.o+o+:.: I.                    ",
"                  E.U }+q.q.S e i.~+i.E Y u+Y u+/ / $.$.F+C._.C.C.H.u.G o+v :                   ",
"                E.w }+}+}+S S p.2.i.~+E E E Y Y Y 3+/ $.F+/ _._.n+_.u.G j.M.X.:.                ",
"              =.w }+q.}+e p.e Z %.h+i.N.c.>.>.>.c+c.A.3+3+/ $.d.g+u.6 u.G j.[.X.v               ",
"            =.w q.}+}+q.Z Z ++Z p.'+'+'+}.j+^+^+^+s.c+c+$+d.b b g+i+u.B+G G j.[.X.X.            ",
"          E.U }+}+}+S q.!.y E+E+E+- '+- t+r ,.,.4.^+^+>.7.{+..V.K.{.S.g G G M.Y.[.8 v           ",
"          E.}+}+}+q.q.++E+2 2 V 2 E+- y v..+-+B.8..+^ ^+>.s.^+:+V.).{.i+A+p+' [.Y.[.8           ",
"        U >+q.}+e ++++E+2 2 _ _ 7+7+y y 7+4 k+k+Z.8..+0.j+0.^ n B :+ +[+e+B+j.[.Y.*+0 8         ",
"      E.>+}+S q.Z Z E+V G._ 4+4+Q.f.G.O.7+Z.-.d -.Z.B.v.(+.+a.y+a.n :+K.]+B+p+T Y.*+*+0         ",
"      U S e S S p.++y V G.4+'.'.'.k+G+2 _ k+d d d k+8.v..+8.J.J.^.6+B  +[+A+p+j.[.*+*+<.0       ",
"    E.>+e e e r+Z ++E+2 _ Q.'.'.'.-.f._ `./.d d d k+7+V F J.< J.J.a.O  +]+m.B+j.1 Y.9+t.0       ",
"    U.S r+r+i.2.i.Z E+V 7+4+'.,+,+-.4 6.`.f./././.k+_ v.I ].< J.J.<+O 3 K.i+' T W.1 t.9+5+0     ",
"    >+r+r+e i.2.h+%.p.E+G.f.k+-./.l y.m 2 G+y.@+y.6.2 r ~ ].J.& <+_+0.V.S.6 T 1 + *+*+9+5+5+    ",
"    g.( r+S r+i.%.%.j+t+2 G.f.k+l @+h % r.l.m /+h l.!+f+% ~ I y+a.n :+{.+._.; j.Y.1 *+9+9+5+    ",
"  7 *.~+r+~+N.>.%.'+- ++y V 7+6.-+h % b.J !.m b.m s+J 2+f+% ~ v.,.0.X {+{.m.' 1 ] k.t.9+q+@.    ",
"  *.r+~+~+N.Y Y N.s.j+v.V 7+G.`.`.)+r.2+L.D+;+D+;+o D a H !+V V .+0.B 3 [+1.; 5.] n.k.9+q+@.`   ",
"  R.1+f ~+Y u+c.>.j+(+.+7+Z.k+k+l G+s+;+D+@ ! D+! @ D l+O.-+-+<+<+y+A | > +.6 5.] n.n.9+* @.p   ",
"  1+f b+~+u+u+N.h+t+!+B.Z.-.d &./.@+m r.l+! ! h.! [ &+w.r ~ I & & & ^.B 3 F.6 5.] n.n.9+* @.p   ",
"  1+b+b+b+u+A.Q >.^+,.<+k+d ,+d /.y./+b.a D+h.=.) D+L.2+% h @+< < & ^.z.z+F.0+T ] n.5 9+* w+c   ",
"  $ %+%+b+F+F+Q c+^+,.B.Z.-.d &./.y./+w.H ! ! k ! P &+b.f+~ y.< & & ^.O > F.0+5.] 5 5 9+* R c   ",
"  $ x+%+b+/ / 3+7.^+^+_+8.Z./.k+l @+8+!.! @ [ o [ @ ~.y )+I I ].& ^.z.| > d+; 5.n.5 (.o.* w+c   ",
"  |+{ x+%+F+/ / A.c+^+^ .+<+7+7+G.8+r.2+D D l+L.l+~.@ a H v.V _+_+n m+> [+1.#++ n.5 (.* 9.i .   ",
"  |+{ x %+F+_./ 3+7.>.^+(+(+.+-+m r f+j a l+w.2+w.- a a j f+4.^ 0.X ).[+d+0+T ] 5 (.o.o.9.w+.   ",
"  |+= n+%+%+x+x+D.D.$+c+j+(+.+y+F ~ % f+J 2 r f+/+O.}.j 3 3.m+m+B X > +.1.; #+1 ] 9+e.* x.i     ",
"    = n+n+x g+g+d.d.{+..(+_+y+J.].<+A 3.!+V h ~ r V _+f+3.m+A A z.B ).]+0+#++ ] e.n.q+9.w+z     ",
"    = n+n+n+$._.$.b ..X n y+8.< < ].~ ^ 2 .+I I I I .+4.m+A A ^.6+O > ]+e+p+;.n.(.* * L i i     ",
"    $ I.u.H._.C.x b K.V.n a.J.J.< J.y+v.v.].< < & <+.+_+m+A ^.6+6+O z+a+C K Y.k.o.(.9.L i @.    ",
"      I.C.u.C.C.C.{.b V.B _+a.J.J.y+_+^ v.y+< < & ^._+0.B 6+^.6+O | # 9 K T.M t 9+* 9.x.z       ",
"      I.N G n+C._.g {.K. +n 6+a.a._+0.0.n ^.& & & y+z.X | | | O | # a+C K u #.o.q+9.L v+}       ",
"      $ : o+o+H.6 u.i+{.).:+:+O B B V.V.0.z.^.^.^.A | 3 [+ +z+# # a+9 K T.u 5 o.* L x.v+        ",
"        I.:.G o+u.B+u.e+]+K.). + +).K.{+3 3 O 6+O | z+{.+.a+a+a+9 9 K T.u t o.* 9.L v+i         ",
"          :.o+M.o+u.B+B+e+e+i+]+{.S.+.S.[+> > z+> > F.+.A+C e+C C K T.u t o.* 9.L x.z           ",
"          I.v M.j.G P.M.' B+B+A+g ' 6 m.1.d+F.+.F.d+1.C p+5.K K T.u u t o.o.9.L x.z             ",
"            v X.[.j.M.o+j.p+p+B+' T ' ' ; ; 0+0+0+p+#+#+T + ;.1 u #.o.o.* 9.L p z }             ",
"              :.q <.Y.[.M.j.Y.j.5.T T 5.5.#+#+#+5.5.+ ] W.t n.t t (.o.* 9.L L v+i               ",
"                P.q Y.<.Y.M.[.*+W.+ 1 k.] ] ] ;.] ] n.n.] e.(.(.#.q+* 9.L L ` i                 ",
"                  X.q [.t.*+*+Y.*+*+1 k.n.n.n.n.5 5 (.(.e.o.(.* w+9.L L ` x.}                   ",
"                    X.8 <.*+t.k.C+C+*+C+k.5 5 5 (.5 (.(.9+* * 9.L L L v+`                       ",
"                        8 0 5+t.9+9+e.9+9+9+e.e.e.o.o.* * 9.L L 9.z z i                         ",
"                            0 5+5+9+q+* * * * * 9.9.9.L L L x.z z i                             ",
"                                0 5+@.R R v+x.L L L L x.x.v+i }                                 ",
"                                        ` ` p p c . . .                                         ",
"                                                                                                "};
