/* XPM */
static char * rndlyx_xpm[] = {
"48 48 256 2",
"  	c None",
". 	c #151514",
"+ 	c #3484A8",
"@ 	c #2E4A2C",
"# 	c #734B36",
"$ 	c #7EBEDC",
"% 	c #8E8A54",
"& 	c #766660",
"* 	c #27662E",
"= 	c #92A2AC",
"- 	c #9C4D24",
"; 	c #529EC4",
"> 	c #4A4A4C",
", 	c #768234",
"' 	c #6E3614",
") 	c #D6BA74",
"! 	c #56724C",
"~ 	c #745C50",
"{ 	c #AE8644",
"] 	c #9E663C",
"^ 	c #CAD6DC",
"/ 	c #585A2C",
"( 	c #3092C3",
"_ 	c #767674",
": 	c #343220",
"< 	c #894C2E",
"[ 	c #DEBA64",
"} 	c #3A7650",
"| 	c #AD9761",
"1 	c #5F4B39",
"2 	c #4E86A4",
"3 	c #567658",
"4 	c #87543A",
"5 	c #1D5E1C",
"6 	c #90989C",
"7 	c #3B6D39",
"8 	c #C5A454",
"9 	c #E4CA88",
"0 	c #9B5B34",
"a 	c #A0461C",
"b 	c #522A14",
"c 	c #90684C",
"d 	c #60828C",
"e 	c #6E5E34",
"f 	c #927A3C",
"g 	c #212327",
"h 	c #855B47",
"i 	c #562E1C",
"j 	c #BC9948",
"k 	c #318EBB",
"l 	c #9B875F",
"m 	c #4E561C",
"n 	c #A0784C",
"o 	c #4794B9",
"p 	c #345A1C",
"q 	c #7A8284",
"r 	c #726E4C",
"s 	c #AB4B1B",
"t 	c #CCCCCB",
"u 	c #AA915E",
"v 	c #507C8C",
"w 	c #7A522C",
"x 	c #704634",
"y 	c #E2E2E0",
"z 	c #944D29",
"A 	c #307256",
"B 	c #544D47",
"C 	c #32421C",
"D 	c #DFC381",
"E 	c #925629",
"F 	c #2A2A2B",
"G 	c #5296BC",
"H 	c #B0B0B0",
"I 	c #666665",
"J 	c #5C5C5C",
"K 	c #847A68",
"L 	c #2E7898",
"M 	c #62532F",
"N 	c #1E5A74",
"O 	c #3E7274",
"P 	c #D5AF5F",
"Q 	c #428AA4",
"R 	c #A48E5C",
"S 	c #9A5634",
"T 	c #7EA6B4",
"U 	c #B6964C",
"V 	c #468AA0",
"W 	c #487146",
"X 	c #EACE84",
"Y 	c #826254",
"Z 	c #AC7E44",
"` 	c #727172",
" .	c #805440",
"..	c #9EC2D4",
"+.	c #A34A20",
"@.	c #BCBCBC",
"#.	c #72625C",
"$.	c #246223",
"%.	c #6A625C",
"&.	c #8A786C",
"*.	c #BE9E51",
"=.	c #A48956",
"-.	c #4E93B1",
";.	c #7692A4",
">.	c #B79142",
",.	c #62766C",
"'.	c #8E4624",
").	c #404A40",
"!.	c #326A2C",
"~.	c #AAA28C",
"{.	c #61A1BF",
"].	c #777E74",
"^.	c #8E4D2C",
"/.	c #AF4612",
"(.	c #6090A8",
"_.	c #675C59",
":.	c #8B5B44",
"<.	c #A67E44",
"[.	c #755444",
"}.	c #7A3E20",
"|.	c #322A24",
"1.	c #6E6E6D",
"2.	c #626264",
"3.	c #1D1D1B",
"4.	c #3E8284",
"5.	c #8C8C8C",
"6.	c #4E4E4C",
"7.	c #BA6A2C",
"8.	c #DED6BC",
"9.	c #524224",
"0.	c #DEAA8C",
"a.	c #BE5E2C",
"b.	c #B6C29C",
"c.	c #6A7E3C",
"d.	c #C4C4C4",
"e.	c #AECED4",
"f.	c #467E8C",
"g.	c #404040",
"h.	c #87350C",
"i.	c #383838",
"j.	c #9E6E3C",
"k.	c #D6C69C",
"l.	c #265624",
"m.	c #603A28",
"n.	c #B6A684",
"o.	c #DDD0AF",
"p.	c #62AACC",
"q.	c #7AB2CC",
"r.	c #EBE3CF",
"s.	c #3C5640",
"t.	c #DEC694",
"u.	c #525254",
"v.	c #96BED0",
"w.	c #7E6844",
"x.	c #9A7A5C",
"y.	c #868E94",
"z.	c #728274",
"A.	c #607E88",
"B.	c #3E7E74",
"C.	c #627A64",
"D.	c #9C9C9C",
"E.	c #3E5A1C",
"F.	c #327E7C",
"G.	c #E2DED4",
"H.	c #D2DEE4",
"I.	c #DEB658",
"J.	c #4292BC",
"K.	c #AAAAAC",
"L.	c #EAEAEC",
"M.	c #7E8A8C",
"N.	c #6A96AC",
"O.	c #6E4E34",
"P.	c #826E44",
"Q.	c #568AA4",
"R.	c #9A6E4C",
"S.	c #AACAD4",
"T.	c #D2D2D3",
"U.	c #526E74",
"V.	c #C2A67C",
"W.	c #807068",
"X.	c #407242",
"Y.	c #8E7E60",
"Z.	c #929294",
"`.	c #464644",
" +	c #B68640",
".+	c #E4BC68",
"++	c #5E463C",
"@+	c #CCC4A4",
"#+	c #5E6224",
"$+	c #306224",
"%+	c #529ABC",
"&+	c #B6B6B4",
"*+	c #9A6234",
"=+	c #7B462C",
"-+	c #EAC66C",
";+	c #AA6E34",
">+	c #22627C",
",+	c #82969C",
"'+	c #A2A2A4",
")+	c #665448",
"!+	c #578297",
"~+	c #325234",
"{+	c #2E7EA4",
"]+	c #DCBE80",
"^+	c #BA9A58",
"/+	c #4186A4",
"(+	c #DADADC",
"_+	c #7B5C50",
":+	c #235A24",
"<+	c #B44C18",
"[+	c #6A6A6C",
"}+	c #B8420C",
"|+	c #565654",
"1+	c #9A6A4C",
"2+	c #848484",
"3+	c #303031",
"4+	c #9A7854",
"5+	c #7E7E7C",
"6+	c #3D8EB5",
"7+	c #687A84",
"8+	c #524644",
"9+	c #262522",
"0+	c #A67840",
"a+	c #7A725C",
"b+	c #B28E54",
"c+	c #6E5C52",
"d+	c #C2663C",
"e+	c #463E34",
"f+	c #866A54",
"g+	c #AA8759",
"h+	c #935436",
"i+	c #B4985F",
"j+	c #478EB1",
"k+	c #A6A6A4",
"l+	c #A6724C",
"m+	c #367668",
"n+	c #2E6A44",
"o+	c #B2C2BC",
"p+	c #D6D6D4",
"q+	c #AA4614",
"r+	c #8E624C",
"s+	c #7C6254",
"t+	c #6A7E84",
"u+	c #9E7E57",
"v+	c #6A828C",
"w+	c #3A86AC",
"x+	c #7E843C",
"y+	c #7A7A7C",
"z+	c #664E3C",
"A+	c #8E5438",
"B+	c #969695",
"C+	c #368EBA",
"D+	c #5A92B4",
"E+	c #625C5A",
"F+	c #F2D288",
"G+	c #66A2BC",
"                                                                                                ",
"                                      ` 5.'+D.D.B+Z.5.` |+                                      ",
"                                k+@.@.&+H H k+k+'+D.D.B+Z.5.2+I                                 ",
"                          2+@.d.@.@.&+&+H H K.k+'+D.D.B+Z.5.5.2+y+1.                            ",
"                        d.t t d.d.@.&+&+H H k+k+'+D.B+B+Z.5.5.2+2+5+_ I                         ",
"                    k+T.t t d.d.@.@.&+H H K.K.'+'+D.D.B+Z.5.2+2+5+5+y+` [+i.                    ",
"                  @.p+T.t t d.d.@.@.&+H H K.K.'+D.D.B+Z.Z.5.2+2+2+5+y+_ 1.[+6.                  ",
"                T.p+t t t d.d.@.@.@.&+H H K.k+'+D.D.D.Z.5.5.5.2+5+y+_ _ ` [+2.>                 ",
"              t p+p+t t t d.d.H k+k+H H K.k+k+'+D.B+B+B+5.5.2+2+5+y+_ _ ` [+[+2.u.              ",
"            d.p+T.t t d.d.@.D.5+[+I 5.K.H K.'+'+D.D.B+5.5.5.2+2+5+y+_ ` 1.[+I J |+i.            ",
"          D.T.T.T.t t d.d.K.1.I 2.J J 2+k+k+'+D.D.B+B+Z.5.2+7+2+5+y+_ ` & ~ ~ _.E+J 3+          ",
"          T.T.t t t d.d.d.5+I J J |+J 5.k+k+D.D.B+B+Z.5.5.v+d 5+y+K ` 1.#.h h _.J |+`.          ",
"        d.t t t d.t d.@.'+I 2.|+u.` B+K.k+k+'+D.B+Z.Z.5.5.q !+7+_ u l l P.h [.J J J u.g.        ",
"      2+t t t d.d.d.d.d.5.J |+u.6.2+K.k+'+D.D.D.B+Z.5.5.2+q !+A.A.| | R c  .c+2.J |+u.`.        ",
"      &+d.d.d.d.d.@.@.@.5.|+u.6.`.5+k+k+'+D.D.B+B+Z.5.5.2+2+,.2 !+Y.| a+#.c+[.J J |+u.6.g.      ",
"      d.d.d.d.d.@.@.@.k+J 6.> `.g.y+k+'+'+D.B+B+5.5.5.2+2+5+y+` ` R l [+I 2.J J |+|+u.> i.      ",
"    '+d.@.@.@.@.@.&+&+'+u.6.`.`.I 5.'+D.D.B+'+t t.@+n.Z.2+5+5+y+` K & 1.I 2.J J |+|+u.6.`.3+    ",
"    @.@.@.@.@.@.&+&+H D.6.`.I 5.'+,+N.(.Q.T G.D [ f+*.@+B+5+_ _ _ 1.1.I 2.2.J J |+u.6.6.g.3+    ",
"    @.@.@.&+&+H &+&+H D.`.I '+'+k+k.8.o+q...9 j o.> |.g+~.5+_ ` ` 1.[+I 2.2.J J u.u.> 6.`.g.    ",
"  y+&+H H H H H H H K.B+[+6 = t 9 .+I.D G.L.D e+I F 3.1 =._ _ ` ` [+[+I 2.J |+u.u.6.6.`.g.i.    ",
"  5.H &+H H H K.K.K.k+k+6 6 t D 8 o.B e .+r.D 9.. . . f | _ _ 1.[+_.E+E+)+O.O.1 B 6.> > g.g.9+  ",
"  H H K.H H H K.K.K.k+'+;.{.o.P M H i.. >.F+F+j . . . =.'+` [+_+[.h+z ^.< < z+u.6.> > `.g.i.g   ",
"  D.K.k+k+k+k+k+'+k+'+6 D+{.o.P 3+: g . >.X r.-+8 >. +V.& z ^.s - - z ^.=+++> B 6.> `.`.g.i.3+  ",
"  k+k+k+k+'+k+'+'+D.D.Z.%+; (+]+M 3.. . >.b.$ G.0.a.<+<+s s +.- +.- z m.3+3+i.> 6.`.`.g.g.i.3.  ",
"  B+'+'+'+D.D.D.D.D.D.y.G {.^ 8.P z+g M I.S.1.d+}+}+/./.q+s s +.- '.m.F 9+3+> 6.> `.g.g.g.i.F   ",
"  D.D.D.D.D.D.D.D.D.B+M.-.-.%+v.8.]+) @+S.(.A+h.h.h././.s q++.+.}.|.F 3+`.6.6.> `.`.g.g.i.i.3.  ",
"  5.D.D.D.D.D.B+B+B+Z.2+j+o 6+o v.G.^ p.( ( k N N g b b ' a a }.9+9+i.u.u.6.> > `.`.g.i.i.3+9+  ",
"  2+B+B+B+B+Z.Z.Z.5.C.W } Q o 6+J.; ; ( k ( ( ( k {+L L :+C : 9+|.B u.u.u.6.> `.g.g.i.i.i.3+.   ",
"  u.Z.Z.5.Z.Z.5.5.,.} 7 } V o j+J.C+6+( ( k k k k k k + 5 5 5 @ u.J |+6.6.6.> `.g.g.g.i.3+3+    ",
"    5.5.5.5.5.].3 W 7 W ,.V j+6+6+6+C+6+k v :.s+/+/++ + s.5 5 :+~+6.6.6.> `.`.g.g.i.i.3+i.g     ",
"    5.5.5.2+z.! X.W W 7 7 B.B./+6+6+w+w+C+A.7.s +.+.h O ~+5 :+:+:+l.).6.> `.`.g.g.i.i.3+3+9+    ",
"    1.2+2+2+].3 r w.w.% C.!.!.A A A A F./+Y.8 #+m m m p :+l.:+l.l.l.).> `.g.g.g.i.i.i.3+9+.     ",
"      2+2+2+W.c 1+Z l+^+Z h v m+n+* $.$.* $+!.5 5 p E.O.B u.u.6.> > `.`.`.g.g.i.i.3+i.3+F       ",
"      _ 5+y+&.u+R.=.i+*.b+*+~ [+f.m+* $.$.$.$.c., E '.z # u.u.6.6.> > `.g.g.i.i.3+3+3+9+.       ",
"        y+y+W.u+=.u | i+i+] S A+I U.U.m $.$+x+j j ;+ +0 x u.u.> > `.g.g.g.i.g.i.i.3+3+9+        ",
"        1._ W.r+4+=.u | | 0+E h+_._.< w / , j *.j Z ;+E ++6.> > > g.g.g.i.i.i.3+3+F 9+.         ",
"          ` [+Y h r+u+u u g+h+h+[.[.z z S >.U { 0 ^.'.=+> > > `.`.g.g.g.i.i.3+3+3+F 9+          ",
"          `.1.[+#.~ h 4+u+n 4 A+[.[.^.^.j.Z 0+E =+# x 8+> > `.g.g.g.i.i.i.3+3+3+F 3.            ",
"            B [+[+[+E+[.4 4 4 < |+[.< < < < '.1 B 6.6.).`.g.`.g.g.g.i.i.3+i.F F F 3.            ",
"              J 2.2.I E+[.[.O.[.J |+z+# x x x > > > `.`.`.`.g.g.i.i.i.3+3+F 3+F .               ",
"                |+J 2.2.J J |+|+|+|+u.u.u.6.6.6.> > `.g.g.g.i.i.i.3+i.3+3+F 9+3.                ",
"                  6.J J J |+J |+|+u.u.u.6.6.> `.`.g.g.g.g.g.i.i.i.3+3+3+F 9+.                   ",
"                    F u.|+u.u.6.6.6.> > > > > `.`.g.g.i.i.i.i.3+3+3+F F 9+                      ",
"                        `.u.6.6.6.> > > `.g.g.g.g.g.g.i.i.i.3+3+3+F F .                         ",
"                            g.> > > `.`.`.g.g.g.i.i.i.i.3+i.3+3+F g                             ",
"                                3+g.g.g.g.g.i.i.i.i.i.3+3+3+F .                                 ",
"                                        F 3+3+3+3+F F g                                         ",
"                                                                                                "};
