/* XPM */
static char * rndmaple_xpm[] = {
"48 48 25 1",
" 	c None",
".	c #252424",
"+	c #828175",
"@	c #A13D3A",
"#	c #B7B441",
"$	c #A75A49",
"%	c #C58235",
"&	c #504F4D",
"*	c #9E9D83",
"=	c #C95B43",
"-	c #6A6862",
";	c #C9C72F",
">	c #A96C4D",
",	c #BB362A",
"'	c #67211E",
")	c #C59A42",
"!	c #713833",
"~	c #393939",
"{	c #CB6E34",
"]	c #A47D5D",
"^	c #DA861F",
"/	c #C34737",
"(	c #B4B4B1",
"_	c #C9C9C9",
":	c #715340",
"                                                ",
"                   -+****++-&                   ",
"                *(((((******+++-                ",
"             +(__(((((((******++--              ",
"            (___(_(((******+*++++++-            ",
"          (______(((((((****+**+++---.          ",
"         (_____(_((((*******+++++++-+-&         ",
"        ______(_(((*(((***+***++++-+--&~        ",
"       ________(_((((******+++*++++-----&       ",
"      _________((((*(**(*****+++++-++--&&~      ",
"     *_______(_(((*((*(##*+++++++-+------&.     ",
"     _______(_(((((***(#(#**+*++++-+---&-&~     ",
"    (_______(_(((*#)*##*###**#++-+-------&&~    ",
"   +_______(_((((*))#*+-+*####+++++-----&-&~    ",
"   (_____((((((((])**&-&-+####++---+--&-&&&&~   ",
"   _____(_(_((((**)>&&++-+#;##*-++-------&&&~   ",
"  *_(((((_((((((*>^*&&-*#;;;;#*-+-----&&&&&&~.  ",
"  (_(__(((((*(*(**%$~~+>%;;;;#*+-------&-&&&&.  ",
"  ((((((((((*]***>^+~~+);;;;;;*-+----&-&&&&&~~  ",
" +(((((((*(*]>]**]^:~~->^;%#;;*---++-&-&&&&&&.  ",
" +(((((((**>>{>]+)^@.~-%^{^#;;#-+*#*--&&&&&~~~. ",
" (((*(*(*]]]{{)=)=^-.~-)^{^;;#;##*#**++&&&&&&~. ",
" **(*(***]{{>===///!..+/{)=^^{#####**+-&&~&~~~. ",
" **(***(*]]{>===^/^:..+)^&'@{)&-*##***+&&&~&~~. ",
" ********>>>=$=={/{!..-^%-.'!-.&##***+-&&~&~~~. ",
" ******+]]>>=$/////'..-/{)~...~+###**++&&&~~~.. ",
" +*****]]>>=$=$///^:..-)^/:...-##)***++-&~&~~~. ",
" +***+*+]>>>$$//,//!..-=^^~...~+*$]**++-&~~~~.. ",
" &+*+**++>$>$=$/$,,'..-%{-.~--.~$]**++-&~~~~~.  ",
"  +*+++*++>$$/$@:!,'..-%>''+%>:!>$]>+-&~&~~~..  ",
"  ++*++++++$$$/@!~''.~:$,,,%{>%$>>>::&~~~~~~..  ",
"  +++*+++++-:$@$,'!.!:,{{/^${{$]$>$-&~&~~~.~..  ",
"   +++++++++:$$@/@@,@,,,,,,,@>>$>:>&&~~~~~~..   ",
"   ++++++-+-:$:$@@@@@@@,,@%,>>$]@-::&&~~~~...   ",
"    -+-++-+---:--&::!!!,@!:!&&~&&&~~~~~~.~..    ",
"    --+--+-+----------'@@!&&&&&&~&~&~~~~~...    ",
"     -+------------&-&!@@!&&&&~&~~~~~~~.~..     ",
"     &-+---------&--&:!!!!&&&&&&~&~~~.~...      ",
"      &--------&-&-&-&!@!!&~&~~~~~~~~~.~..      ",
"       -----&-&-&-&&&&!!!!~&&~&~~~~.~....       ",
"        &&--&-&-&&&&&&&~&~&~~~~~~~~.~...        ",
"         &-&-&&&-&&&&&&&&~&~&~~~~~.~...         ",
"          .&&&&&&&&&&~&~&~~~~~~~.~...           ",
"            &&&&&&&~&&~~~&~~~~~~~...            ",
"              ~&&~&~&~~&~~~~~.....              ",
"                ~~&~~~~~~~~.~~..                ",
"                    .~.~....                    ",
"                                                "};
