/* XPM */
static char * rndmozilla_xpm[] = {
"48 48 256 2",
"  	c None",
". 	c #060604",
"+ 	c #6E6E2A",
"@ 	c #872B2C",
"# 	c #883C3C",
"$ 	c #A6A67C",
"% 	c #3A3A24",
"& 	c #8A8A50",
"* 	c #F90604",
"= 	c #D53E3C",
"- 	c #58582C",
"; 	c #7E0604",
"> 	c #A66E5C",
", 	c #CA1E1C",
"' 	c #B28A7C",
") 	c #C65654",
"! 	c #462A2C",
"~ 	c #9A9A64",
"{ 	c #8A523C",
"] 	c #A92624",
"^ 	c #623E3C",
"/ 	c #C72E2C",
"( 	c #7E5A4C",
"_ 	c #62622F",
": 	c #9A6E6C",
"< 	c #6D2524",
"[ 	c #7E7E3A",
"} 	c #C4C4C4",
"| 	c #DD6640",
"1 	c #DE1E1C",
"2 	c #A43C3C",
"3 	c #9E8A8C",
"4 	c #BE7070",
"5 	c #B6B6A4",
"6 	c #4A4A2C",
"7 	c #C56364",
"8 	c #8C8C8C",
"9 	c #732E2C",
"0 	c #AA3634",
"a 	c #626254",
"b 	c #252524",
"c 	c #6E6E6C",
"d 	c #884644",
"e 	c #D81A1C",
"f 	c #C07E68",
"g 	c #AEAE9C",
"h 	c #9A9A88",
"i 	c #CC4C4C",
"j 	c #873434",
"k 	c #929251",
"l 	c #C92624",
"m 	c #792324",
"n 	c #767642",
"o 	c #963C3C",
"p 	c #5A3E34",
"q 	c #565654",
"r 	c #7A1614",
"s 	c #AE5E44",
"t 	c #6A6A2E",
"u 	c #D66644",
"v 	c #E71414",
"w 	c #664A4C",
"x 	c #DC2624",
"y 	c #BE7A7C",
"z 	c #BAA69C",
"A 	c #44442C",
"B 	c #86665C",
"C 	c #7E7E7C",
"D 	c #BE2E2C",
"E 	c #9A2624",
"F 	c #A6A6A3",
"G 	c #D05654",
"H 	c #B62624",
"I 	c #525230",
"J 	c #2E2E2C",
"K 	c #6E6E48",
"L 	c #D14544",
"M 	c #5E5E3E",
"N 	c #626241",
"O 	c #A2A289",
"P 	c #929268",
"Q 	c #762A5C",
"R 	c #161614",
"S 	c #924274",
"T 	c #5A2A2C",
"U 	c #A2A278",
"V 	c #7C3C3C",
"W 	c #DE2E2C",
"X 	c #868644",
"Y 	c #B03C3C",
"Z 	c #CE6E4C",
"` 	c #D42624",
" .	c #812A2C",
"..	c #8A4244",
"+.	c #D01E1C",
"@.	c #C69A8C",
"#.	c #92523C",
"$.	c #4A4A4C",
"%.	c #929274",
"&.	c #823234",
"*.	c #6A6A4C",
"=.	c #D05254",
"-.	c #761E1C",
";.	c #D36A47",
">.	c #E91A1C",
",.	c #BE3634",
"'.	c #42322C",
").	c #8E3C3C",
"!.	c #4A3E44",
"~.	c #8C8C60",
"{.	c #595940",
"].	c #7F1111",
"^.	c #A28684",
"/.	c #9E9E77",
"(.	c #C63634",
"_.	c #662A2C",
":.	c #D0D0D0",
"<.	c #E5201F",
"[.	c #BEBEBC",
"}.	c #C46A6C",
"|.	c #6E365C",
"1.	c #E01818",
"2.	c #D2866C",
"3.	c #B1B1B1",
"4.	c #9C9C9C",
"5.	c #802524",
"6.	c #E22726",
"7.	c #C02A2C",
"8.	c #363634",
"9.	c #9E8484",
"0.	c #C28A8C",
"a.	c #2E1E2C",
"b.	c #A23634",
"c.	c #F00C0C",
"d.	c #664444",
"e.	c #4E362C",
"f.	c #10100F",
"g.	c #787879",
"h.	c #BA725C",
"i.	c #B67E7C",
"j.	c #964644",
"k.	c #965E4C",
"l.	c #925A5C",
"m.	c #BCA29C",
"n.	c #CE927C",
"o.	c #AA9294",
"p.	c #CA7070",
"q.	c #946664",
"r.	c #EA6A44",
"s.	c #BA9284",
"t.	c #C65E5C",
"u.	c #CACACC",
"v.	c #A24244",
"w.	c #6E3634",
"x.	c #2A2A2C",
"y.	c #984244",
"z.	c #5E5E5C",
"A.	c #868684",
"B.	c #1E1E1C",
"C.	c #D6D6D4",
"D.	c #924E4C",
"E.	c #C67A64",
"F.	c #CE6A6C",
"G.	c #66524C",
"H.	c #CE5E5C",
"I.	c #DA3634",
"J.	c #C48080",
"K.	c #CE6264",
"L.	c #B68674",
"M.	c #512A2C",
"N.	c #949494",
"O.	c #525254",
"P.	c #D22E2C",
"Q.	c #811716",
"R.	c #A12727",
"S.	c #912A2C",
"T.	c #6E3A3C",
"U.	c #B43534",
"V.	c #D34D4C",
"W.	c #C12324",
"X.	c #724244",
"Y.	c #925654",
"Z.	c #A9A991",
"`.	c #3C3C3C",
" +	c #B8B8B8",
".+	c #646464",
"++	c #444444",
"@+	c #C87878",
"#+	c #AF2624",
"$+	c #821E1C",
"%+	c #D23634",
"&+	c #BA7674",
"*+	c #6A6A44",
"=+	c #A2A2A4",
"-+	c #6A6A6C",
";+	c #8E5644",
">+	c #C67274",
",+	c #CE2624",
"'+	c #C23030",
")+	c #9A5644",
"!+	c #FE0204",
"~+	c #DA3B3C",
"{+	c #722324",
"]+	c #AA3C3C",
"^+	c #CA6464",
"/+	c #9E3E3C",
"(+	c #EE1414",
"_+	c #D64444",
":+	c #823E3C",
"<+	c #B63A3C",
"[+	c #727227",
"}+	c #8E8E49",
"|+	c #9E9E6C",
"1+	c #66662A",
"2+	c #82823A",
"3+	c #4E4E37",
"4+	c #B2B29C",
"5+	c #969659",
"6+	c #7A7A40",
"7+	c #5E4244",
"8+	c #AAAAA9",
"9+	c #323234",
"0+	c #4A2A44",
"a+	c #0A0A0C",
"b+	c #AAAA84",
"c+	c #3E3E28",
"d+	c #7F0A0C",
"e+	c #C82224",
"f+	c #CA5A5C",
"g+	c #865644",
"h+	c #CA3234",
"i+	c #DA6A44",
"j+	c #DB2224",
"k+	c #BABAAC",
"l+	c #743234",
"m+	c #666650",
"n+	c #727274",
"o+	c #C2826C",
"p+	c #9E9E84",
"q+	c #C82A2C",
"r+	c #5A5A5C",
"s+	c #791A1C",
"t+	c #644E48",
"u+	c #DC2A2C",
"v+	c #828284",
"w+	c #BC3234",
"x+	c #982A2C",
"y+	c #D05A5C",
"z+	c #727248",
"A+	c #666640",
"B+	c #969668",
"C+	c #1A1A1C",
"D+	c #D62A2C",
"E+	c #D02224",
"F+	c #4E4E4C",
"G+	c #969679",
"                                                                                                ",
"                                      g.N.g 8+F =+4.N.g.r+                                      ",
"                                8+ + + +3.8+F =+=+4.4.N.N.8 8 c                                 ",
"                          A.} } } [. + +3.8+F 4.4.=+4.N.N.8 8 A.v+g.                            ",
"                        } :.} } } [. +3.3.8+h N.h 4.4.N.N.8 8 A.v+C g.-+                        ",
"                    F :.:.u.u.} [. + + +z F 8 8 p+N.4.N.8 8 A.v+C C g.g.c ++                    ",
"                  } C.:.u.} } } [. +3.3.m.$ 3 9.8 %.4.N.8 8 8 A.v+C g.g.c -+q                   ",
"                C.C.:.:.u.u.} [.[. + +3.O 8 9.i.g.G+N.N.N.8 A.v+C g.g.n+n+c .+r+                ",
"              :.:.:.:.u.} } } [.[. +3.3.p+g.&+&+n+G+' N.8 8 A.A.v+g.g.n+n+c .+.+q               ",
"            } C.C.:.u.u.u.} [. + +3.3.@./.g.4 4 -+~.L.N.8 A.A.v+C g.g.n+c -+-+.+z.$.            ",
"          F :.:.:.:.u.} } } [. + + +3.~ g.: 7 7 q.c ~.N.8 8 v+v+C g.g.n+c -+.+.+z.r+9+          ",
"          :.:.:.:.} } } } [. + + +3.3.~ .+7 7 t.t.r+& 8 8 A.v+C C g.n+n+c -+.+z.z.r+q           ",
"        u.:.u.} u.u.} [.[.[. + +3.8+n.~ z.f+f+) ) O.& y 8 A.v+C g.g.n+c -+-+.+z.r+r+q ++        ",
"      A.u.u.u.u.} } } [. + + +3.3.3.B+-+Y.=.) i i r+r+X A.v+C C g.g.n+c -+.+.+.+z.q q F+        ",
"      } } } } } } [.[.[. + +3.3.8+8+k O.D.i i L L d ++X A.v+C C g.n+n+c -+.+.+r+r+q q F+`.      ",
"      } } } } [.[. + + + +3.3.3.8+2.k $.L _+:+:+:+:+`.2+A.v+C g.n+g.c -+-+.+z.z.r+q F+F+$.      ",
"    8+} [.[.[. +[. + + +3.3.8+8+8+k }+q = # O.# j F+8.2+2+C g.g.n+n+c -+.+.+z.r+q q O.F+$.9+    ",
"     + +5 4+g g $ $ /./.~ B+5+5+}+}+++# I.8.9+++&.&.++&.[ [ [ [ 6+n [+z+K *+A+a M {.O.F+$.`.    ",
"    3.8+4.N.8 8 C g.c .+.+r+F+F+++`.`.I.j J J ++ .@  .J J 9+9+9+8.`.`.`.`.++++++++++`.++6 ++    ",
"  C 3.g 4.o.0.J.@+>+F.K.y+=.V._+= ~+&.++++5.`.5.j+x b m  . ./ '+++9+8.% T.o # V ^ `.++F+++`.    ",
"  N.F 8+Z.8 ^.J.>+p.^+y+G V._+= ).9+@ @ 6.<.$+<.Q.<.`.B.m ,+q+/ l+9+9+w.w.o ).^ `.{.I F+!.++b   ",
"  g 3.g m.$ C g.p.^+K.f+V.V._+`.j W u+<.<.>.v Q.Q.1.1.1 j+5.q+q+9 J 9+8.b.o ++`.M {.w ++++`.J   ",
"  F F 8+F p+h C c q.f+) V.L = 8.j u+6.>.>.(+J f.].(+v 1.1.-.m ,+7.9 J ++9+9+8.M {.$.++++`.`.J   ",
"  F F =+F F s.G+B+z.l.=.i _+).$.W 6.<.>.Q.f.a+f.f.].(+v 1.`.m l 7.7.J J 9+++_ g+$.$.++++`.`.x.  ",
"  =+=+=+=+4.4.g.P ~.q F+L = # $.u+<.$+9+9+f.b . b c.v v r C+-.E+W.`.x.J 1+_ ;+F+$.6 ++`.`.`.x.  ",
"  =+4.4.4.4.4.h 4.o+}+r+++= I.++++`.`.9+J d+!+!+!+c.c.].1.s++.e+W.x.x.t t O.F+$.++++++`.`.8.x.  ",
"  4.4.4.4.4.4.N.4.N.o+& & `.j &.x.b 8.r.].J b ; * d+J ].1.1 +.e+b x.+ t q O.F+$.++++`.`.8.9+b   ",
"  C N.N.N.N.N.N.N.8 8 E.X X 8.&.u+m `.9+J ].d+a+a+f.].1.1.e +.b 8.+ t O.F+$.$.++++`.`.`.8.9+B.  ",
"  z.N.N.8 N.8 8 N.8 8 8 S 2+2+++D+j+j+1.v v v c.].f.r 1.e +., b + + q O.F+$.$.++++++`.8.8.9+    ",
"    8 8 8 8 8 8 8 8 A.A.A.2+8.&.D+` 1 1 1.v v v v f.r r e , , b + s F+F+F+$.++++`.`.8.9+9+J     ",
"    8 8 8 8 A.A.A.A.v+v+v+[ 8.h+Z Z ;.;.i+e | | | r 9+s+, , W.8.t t F+$.$.++++`.`.`.8.9+J x.    ",
"    c A.A.v+A.A.v+A.v+C h.[ $.,.Z ;.;.;.u | u e u s+C+s+, W.W.{+b 1+F+$.++++`.`.`.8.8.9+J R     ",
"      C v+C C v+C C C g.[ O.V ,.w+/ q+l E+E++.+.+., B.-.W.W.#+#+b _ $.++++++++`.8.9+9+J J       ",
"      g.C C C g.g.g.g.g.6+`.V ,.w+D q+q+l e+m 8.e+W.B.< -.H #+] x._ #.++++`.`.8.8.9+J J B.      ",
"        g.g.g.g.g.g.g.> 6+`.Y <+U.w+D D 7.x.b b b < b b ] < ] R.8._ M A `.`.`.8.8.9+x.x.        ",
"        c g.g.g.g.n+n+n n O.]+Y Y U.U.9 J `.[+[++ b b b 8.] E E T b - `.`.8.8.9+J x.x.C+        ",
"          n+c c c c c z+++X./+2 0 0 l+J + [++ r++ t b b < R.E E @ b - `.`.9+9+9+J J b           ",
"          ++c c c -+-+c $.j.y.2 2 ++9+K + s q q Q 1+1+x.x.S.S.@ T x.3+6 8.8.9+J J b             ",
"            q -+-+.+B K $.j.y.o `.8.t 1+`.q O.O.O.F+k.M 8.x.T 5.T 9+9+A 9+9+J x.x.C+            ",
"              r+.+.+m+m+w ..7+++$.*+k.|.q q O.F+$.$.++{ - - x.M.M.x.x.A J J x.b C+              ",
"                r+a a $.w d.++M N q q q F+F+F+F+$.$.++++++I I x.x.! x.c+e.x.x.b                 ",
"                  t+M F+O.++M M ( O.O.F+F+F+$.$.++++++++c+% 6 A 9+J b % '.x.R                   ",
"                    A $.O.{.{.F+F+F+F+F+$.$.++++++++c+`.`.`.0+p c+c+b b J                       ",
"                        6 G.O.F+F+$.$.++++++++++`.`.`.`.8.9+8.J x.9+9+B.                        ",
"                            ++$.$.++$.++++++`.++`.`.8.8.8.9+9+J J a.                            ",
"                                9+++++++`.`.`.`.8.8.8.9+9+J x.B.                                ",
"                                        x.9+J J J x.x.B.                                        ",
"                                                                                                "};
