/* XPM */
static char * rndmix_xpm[] = {
"48 48 17 1",
" 	c None",
".	c #1A2151",
"+	c #42B244",
"@	c #EA1818",
"#	c #19581D",
"$	c #91908C",
"%	c #D0CAAD",
"&	c #565654",
"*	c #D3A44B",
"=	c #71726F",
"-	c #A26E59",
";	c #20E123",
">	c #4D3B37",
",	c #E66664",
"'	c #F6F039",
")	c #323750",
"!	c #AFAE9D",
"                                                ",
"                   =$$$$$$$=&                   ",
"                $!!!!!!!$$$$$$=&                ",
"             =!%%%%!!!!!!!$$$$$==&              ",
"            !%%%!!!!!!!$$$!$$$$$$==&            ",
"          !%%%!%!%!!!!!!!$$$$$=$=$==&)          ",
"         !%%%%%%!%!!!!$!$!$$$$$=$=====>         ",
"        %%%%%%%!%!!!!!!$!$$$$$$$=$====&>        ",
"       %%%%%%%!%!!!!!!!$!$$$$=$========&&       ",
"      %%%%%%!%%!%!!!!$!$!$$$$$$$$====&=&&)      ",
"     $%%%%%%%!%!!!!!!!!$$!$$$====$====&&&&)     ",
"     %%%%%%%!%!!!!!!!$!$$$$$$$$========&&&>     ",
"    !%%!=-!%!%!=&$!!$!==$$$$==##+===&&)&&&&)    ",
"   $%%%$.@!%!!$&-%!!$!&&!!$$$=);+====..)&&&>    ",
"   !%%!=>@*!!%$&*'%!$$&*'!$=$&#;;-==&)..&&&>)   ",
"   %!!-.@@,>$!$&*'!!!$&!'!$$==#;;==&=..)=&&&)   ",
"  $%!$>@@@@@,!!>*'!$$$&!'!$$==#;+$==&).)&&&>>.  ",
"  %!%$=,@@,,%%$>*'!!$$&!'!$=$&#;+===&..)&&&&>)  ",
"  !!!!!$@@%%%!$>*'!$$$&!'!$===#;;==&=..)&&)&)>  ",
" =!%!!!&@@*!$&>>**-$$$&!'$$$==#;+==&&..)&&&>>)  ",
" $!!!!!=.@*!$&-****%$$&!'!===&#;;==&)...)))&)>. ",
" !!!!!!&@@*!$$%*%''%!=&!'!=$=&#;+=&.......#>>). ",
" $!!!!$=.@*!$!$-*'!!$=&!'!===&#;;=&))...)&&)>)) ",
" !$!$!$&@@*$!$$>*%!$=&)!'$=$=&#;+=&&&).)&&&)>). ",
" $!$!$!&.@*$$$$>*'$$&&$%'!*$=&#;+=&&&).)&&)>)). ",
" $!$!$$&@@*!$$$>*%!==$%''''!=##;+=&&&..)&)&)>). ",
" $$$$$$&.@,$$$=>*%$$=$=%'!$&###;;##=&...&)>))). ",
" =$!$$$&@@*$$$=>*'$$==#!'$=##+;;;;;=&...&#>)>.. ",
" &$$$$$&.@,$$$=>**$===>*'$&=++;;;++&&...&)))))  ",
"  $$$$->@@$$=$=>*'$===#!'$=&&&#;+=&&)..)>)>)..  ",
"  =$$$$&.@,$=$=>*%$===>*'$&=&&#;;&&&>...&)))).  ",
"  =$=$=>@@$$===>*%$===)!'==&&##;+&>&)...)>.)..  ",
"   =$==&.@,=$==>**$=&=>!'==&&>#;+&)&)..))))..   ",
"   ==$=>@@-===&>*%===&)!'=&&&>#;+&&>)...))>..   ",
"    ===>>@-$===&*%-=&&&!'==&&>#;+>)#)...))..    ",
"    ===&>,$====&$$=&=&&$!=&&&&#=&&>>)..)))..    ",
"     ===-$==&=&==&=&&&&==&&&>&>&))>))))))..     ",
"     >====&==&=&&=&=&&&&&>&>&>#>&)>))))>..      ",
"      >&=&=&=&=&&&&&&&&&&&&)&)>)))>))).)..      ",
"       &&=&=&&&=&&&&&&>&)&>&)&>>>))).)...       ",
"        &&&&&=&&&&&&&&&>&>)&)))))))))...        ",
"         &&&&&&&&&&&>&>&)&)>#>))))).)..         ",
"          )&&&&&&>&>&)&)>#>)>)))).)..           ",
"            >&>&>&)&>#>)>>)))))).)..            ",
"              )&)&)&)>>)>))))).)..              ",
"                ))>)>#>)))>).>..                ",
"                    .))).)..                    ",
"                                                "};
