/* XPM */
static char * rndmtv_xpm[] = {
"48 48 190 2",
"  	c None",
". 	c #B6B6B6",
"+ 	c #B2B2B2",
"@ 	c #AEAEAE",
"# 	c #AAAAAA",
"$ 	c #A6A6A6",
"% 	c #A2A2A2",
"& 	c #9E9E9E",
"* 	c #9B9B9B",
"= 	c #979797",
"- 	c #939393",
"; 	c #C1C1C1",
"> 	c #BEBEBE",
", 	c #BABABA",
"' 	c #9A9A9A",
") 	c #969696",
"! 	c #8F8F8F",
"~ 	c #8B8B8B",
"{ 	c #878787",
"] 	c #CCCCCC",
"^ 	c #C9C9C9",
"/ 	c #C5C5C5",
"( 	c #BDBDBD",
"_ 	c #B9B9B9",
": 	c #B5B5B5",
"< 	c #B1B1B1",
"[ 	c #929292",
"} 	c #8E8E8E",
"| 	c #8A8A8A",
"1 	c #868686",
"2 	c #838383",
"3 	c #7F7F7F",
"4 	c #CFCFCF",
"5 	c #C8C8C8",
"6 	c #C4C4C4",
"7 	c #C0C0C0",
"8 	c #ADADAD",
"9 	c #A9A9A9",
"0 	c #A5A5A5",
"a 	c #A1A1A1",
"b 	c #9D9D9D",
"c 	c #828282",
"d 	c #7E7E7E",
"e 	c #7A7A7A",
"f 	c #777777",
"g 	c #D5D5D5",
"h 	c #D2D2D2",
"i 	c #CECECE",
"j 	c #CBCBCB",
"k 	c #C7C7C7",
"l 	c #C3C3C3",
"m 	c #BFBFBF",
"n 	c #BCBCBC",
"o 	c #B8B8B8",
"p 	c #B4B4B4",
"q 	c #B0B0B0",
"r 	c #ACACAC",
"s 	c #A8A8A8",
"t 	c #999999",
"u 	c #959595",
"v 	c #919191",
"w 	c #8D8D8D",
"x 	c #898989",
"y 	c #767676",
"z 	c #727272",
"A 	c #6F6F6F",
"B 	c #D7D7D7",
"C 	c #D4D4D4",
"D 	c #D0D0D0",
"E 	c #CDCDCD",
"F 	c #C6C6C6",
"G 	c #C2C2C2",
"H 	c #B7B7B7",
"I 	c #B3B3B3",
"J 	c #AFAFAF",
"K 	c #ABABAB",
"L 	c #A4A4A4",
"M 	c #A0A0A0",
"N 	c #9C9C9C",
"O 	c #989898",
"P 	c #949494",
"Q 	c #858585",
"R 	c #818181",
"S 	c #7D7D7D",
"T 	c #797979",
"U 	c #6E6E6E",
"V 	c #6A6A6A",
"W 	c #D8D8D8",
"X 	c #A3A3A3",
"Y 	c #9F9F9F",
"Z 	c #909090",
"` 	c #8C8C8C",
" .	c #888888",
"..	c #848484",
"+.	c #808080",
"@.	c #757575",
"#.	c #717171",
"$.	c #6D6D6D",
"%.	c #696969",
"&.	c #666666",
"*.	c #BBBBBB",
"=.	c #7C7C7C",
"-.	c #787878",
";.	c #747474",
">.	c #707070",
",.	c #6C6C6C",
"'.	c #686868",
").	c #656565",
"!.	c #616161",
"~.	c #CACACA",
"{.	c #7B7B7B",
"].	c #737373",
"^.	c #6B6B6B",
"/.	c #646464",
"(.	c #606060",
"_.	c #5C5C5C",
":.	c #5E5E5E",
"<.	c #5B5B5B",
"[.	c #585858",
"}.	c #595959",
"|.	c #575757",
"1.	c #535353",
"2.	c #505050",
"3.	c #565656",
"4.	c #636363",
"5.	c #525252",
"6.	c #4E4E4E",
"7.	c #5A5A5A",
"8.	c #4B4B4B",
"9.	c #4F4F4F",
"0.	c #555555",
"a.	c #494949",
"b.	c #474747",
"c.	c #5F5F5F",
"d.	c #545454",
"e.	c #515151",
"f.	c #414141",
"g.	c #444444",
"h.	c #4D4D4D",
"i.	c #4C4C4C",
"j.	c #676767",
"k.	c #3F3F3F",
"l.	c #4A4A4A",
"m.	c #404040",
"n.	c #424242",
"o.	c #5D5D5D",
"p.	c #626262",
"q.	c #3D3D3D",
"r.	c #393939",
"s.	c #464646",
"t.	c #A7A7A7",
"u.	c #3E3E3E",
"v.	c #484848",
"w.	c #3C3C3C",
"x.	c #3A3A3A",
"y.	c #434343",
"z.	c #454545",
"A.	c #373737",
"B.	c #252525",
"C.	c #212121",
"D.	c #242424",
"E.	c #1D1D1D",
"F.	c #1F1F1F",
"G.	c #303030",
"H.	c #272727",
"I.	c #282828",
"J.	c #2B2B2B",
"K.	c #3B3B3B",
"L.	c #353535",
"M.	c #151515",
"N.	c #262626",
"O.	c #343434",
"P.	c #222222",
"Q.	c #383838",
"R.	c #1E1E1E",
"S.	c #1A1A1A",
"T.	c #1C1C1C",
"U.	c #363636",
"V.	c #323232",
"W.	c #232323",
"X.	c #2D2D2D",
"Y.	c #1B1B1B",
"Z.	c #313131",
"`.	c #2A2A2A",
" +	c #333333",
".+	c #202020",
"++	c #2E2E2E",
"@+	c #2F2F2F",
"#+	c #2C2C2C",
"$+	c #292929",
"                                                                                                ",
"                                      . + @ # $ % & * = -                                       ",
"                                ; > , . + @ # $ % & ' ) - ! ~ {                                 ",
"                          ] ^ / ; ( _ : < @ # $ % & ' ) [ } | 1 2 3                             ",
"                        4 ] 5 6 7 ( _ : < 8 9 0 a b ' ) [ } | 1 c d e f                         ",
"                    g h i j k l m n o p q r s 0 a b t u v w x 1 c d e y z A                     ",
"                  B C D E ^ F G > , H I J K s L M N O P v w x Q R S T y z U V                   ",
"                W g h i j k 6 7 ( _ : + @ # $ X Y * = P Z `  ...+.S T @.#.$.%.&.                ",
"              W g h 4 ] ^ F G m *.o p q 8 9 0 % & ' ) - ! ~ { 2 +.=.-.;.>.,.'.).!.              ",
"            B g h D E ~.k l 7 ( _ . + J K s L M b t u v } | 1 c 3 {.f ].A ^.'./.(._.            ",
"          g C 4 j ~.~.k 7 *.*.*.H p < 8 9 $ % Y * = P Z `  .+.=.T @.z A ^.%./.!.:.<.[.          ",
"          h D ( L K l ( u  .9 o : + J K s L a b ' ) [ ! ~ -.}.|.1.|.|.2.3.4.5.6.3.7.|.          ",
"        4 i E 5 & v H 9 S x . I J r r 9 X Y N * O v } |  .@.>.:.1.U V 8.:.4.9.0._.}.3.5.        ",
"      ] ] j ^ 6 t ! X t  .2 t ].z >.' ' '.%.!.~  .7.:.1.,.Q z a.^.y $.b.7.6.0.c._.[.d.e.        ",
"      ^ 5 k F ; b Y S Z 1 S J $.=.,.,.#.5.#.9.!.:.5.{ }.c 2 ,.f.U ;.^.g.h.i.!.:.<.|.1.2.i.      ",
"      / 6 l G ( O +  .# R -.@ j.-.j.).^.6.d R +.c.k.5.#...S l.0.;.].V m.n.7.!.o.}.3.5.6.8.      ",
"    ; ; 7 m > 8 ~ K t s ].V b p.)._.@.T n.}.z #.{ q.h.^.R '.r.6.#.#.'.n.7.4.c._.[.d.e.h.a.s.    ",
"    > ( ( n , r a # p t.- ! * o.!...b * S ;.y ! 4.m.&.u.c.^.(.c.A >.V o.).!.:.7.|.1.9.i.v.g.    ",
"    , _ _ o H : p + < J 8 # t 1.(.t & * O u [ ! }.w.^.x.|.{.-.@.#.U V j.4.(._.}.0.e.6.l.b.y.    ",
"  . . : : p I + q J 8 K 9 t.` ;.#.Z * O u [ ! ` Q o.|.<.e T y ].A ,.'.).p.:.7.|.1.2.i.a.z.f.    ",
"  + + < < q J @ 8 K 9 s $ M [ ! ` ~ ) ~ R d {.d 1 @.#.U ,.].>.).p.(./.4.(._.}.0.5.6.8.b.y.m.q.  ",
"  @ @ @ 8 r K # 9 s $ L %  .y.w.A.3.c f.B.C.B._./.D.E.F.G.4.b.H.I.J.0.!.:.7.|.1.2.h.a.z.n.u.K.  ",
"  # # # 9 s s $ 0 L % a Y - d.L.5.d :.4.B.E.0./.5.z.M.N.:.6.e.O.D.K.o.c._.[.0.5.6.8.b.g.m.q.r.  ",
"  $ $ $ 0 0 L X % M Y b * 2 w.5.d :.T n.F.0.T 1.p.F.C.!.<.[.a.P.r.|._.o.7.3.1.2.i.a.z.n.u.K.Q.  ",
"  % % % a a M Y & b * ' O S Q.].c.-.y.R.3.2 R ).S.T.(.;.A b.R.U.3.V.6.<.|.d.e.6.l.b.y.m.w.r.U.  ",
"  & & & b b N * ' t = ) P e O.e.-.z.W.|.R R @.X.F.c.;.U s.Y.O.3.A.C.i.}.0.5.9.8.v.z.f.u.K.A.O.  ",
"  * ' ' ' t O = ) u P [ v f l.f v.N.|.c R d {.y ].].>.z.M.Z.3.m.l.C.l.3.1.2.h.a.s.y.k.w.r.L.V.  ",
"  = ) ) ) u P P - v Z ! w Q -.l.`.}.+.+.d {.T y ;.#.U 6. +c.o.e.Z.P.a.d.e.6.l.b.g.f.q.x.A. +Z.  ",
"  - - [ [ v v Z ! } ` ~ | R h.G.7.3 3 S e -.y ].#.U ^.'.p.4.}.G..+k.1.e.6.8.v.z.n.u.K.Q.L.Z.    ",
"    ! } } w w ` ~ | x { 1 A V.<.).U T T f @.].>.U ^.%.&.4.7.++E.u.g.a.9.i.a.s.y.k.w.r.U.V.@+    ",
"    ~ | | x x  .{ 1 Q ..c ,.V.}.}.4.b.y ;.z A $.^.'.).4.(.V.E.u.n.D.n.i.a.s.y.m.q.x.A. +G.X.    ",
"    { 1 1 1 Q ..2 c R +.3 V  +5.4.G.K.].#.U ,.V j.).4.(.o.G.u.g. +F.m.l.b.g.f.u.K.Q.O.Z.++#+    ",
"      2 c c R +.+.3 S =.{.V d.4.O.Z.(.A $.^.%.j./.p.(.o.<.9.a.w.k..+u.b.g.f.u.K.Q.L.V.@+#+      ",
"      3 d d S S =.{.e T f @.4.Q.U.(.$.,.V '.&.4.!.c._.7.[.0.e.n.B.N.m.z.n.k.w.r.U. +G.X.`.      ",
"        e e T T -.f y @.;.j.q.r.o.^.%.h._./.p.(.:._.}.|.d.5.y.B.N.u.g.n.k.w.r.U. +G.X.`.        ",
"        f y y @.;.].z #.>.c.U.}.e.<.8.$+k.(.c.o.<.}.3.d.e.g.B.N.q.Z.x.k.w.r.A.O.Z.++J.I.        ",
"          z z #.>.A U $.,.o.U.b.|.i.J.K.<.:.|.q.w.5.1.2.y.B.N.q.Z.C.U.w.x.A.O.Z.++J.I.          ",
"          A U $.,.^.^.V '.7.K.0.i.Z.q.7._.0.O.N.k.e.2.y.N.H.q.L. +C.O.r.A.O.Z.++J.$+            ",
"            V %.'.'.j.&.).o.0.h. +u.5.5.d.U.I.k.z.i.n.H.I.w.L.A.G.C.V.A.O.Z.++#+$+H.            ",
"              &.)./.4.p.!.c.h.U.w.2.g.h.Q.I.K.y.q.m.$+N.x.O.A.Z.P.H.O.O.Z.++#+$+H.              ",
"                !.(.c.:.o.1.r.L.O.q.e.u.J.$+J.K.b.J.D.W.$+Q.L.P.C.C.++Z.++J.$+H.                ",
"                  _.<.7.}.0.l.v.b.9.e.b.m.u.u.v.s.r.U.L.A.w.A.++#+J.++++J.$+H.                  ",
"                    [.|.3.d.1.5.e.9.6.i.8.a.b.z.y.f.k.q.K.r.A.O.V.G.X.J.I.                      ",
"                        5.e.2.6.h.i.l.a.b.z.g.n.m.u.w.x.Q.U. +Z.@+X.`.I.                        ",
"                            i.8.a.v.b.z.y.n.m.u.w.K.r.A.L.V.G.++#+`.                            ",
"                                s.g.y.f.m.u.q.K.r.A.L. +Z.@+X.#+                                ",
"                                        q.K.r.Q.U.O.V.Z.                                        ",
"                                                                                                "};
