/* XPM */
static char * rndmame_xpm[] = {
"48 48 129 2",
"  	c None",
". 	c #1E0A3C",
"+ 	c #35698C",
"@ 	c #303B4C",
"# 	c #5098BC",
"$ 	c #34546A",
"% 	c #686868",
"& 	c #252525",
"* 	c #423E44",
"= 	c #387FA9",
"- 	c #2E2E2C",
"; 	c #545454",
"> 	c #989899",
", 	c #334654",
"' 	c #567E94",
") 	c #7197A8",
"! 	c #35607F",
"~ 	c #321060",
"{ 	c #332750",
"] 	c #464645",
"^ 	c #668694",
"/ 	c #526674",
"( 	c #2F253D",
"_ 	c #343460",
": 	c #347396",
"< 	c #2A3A6C",
"[ 	c #1D1D1C",
"} 	c #4E4854",
"| 	c #468BAF",
"1 	c #6FA6C4",
"2 	c #3C3C3D",
"3 	c #425A68",
"4 	c #37313E",
"5 	c #4F8DB1",
"6 	c #4E6274",
"7 	c #3C6094",
"8 	c #464E50",
"9 	c #281844",
"0 	c #426880",
"a 	c #4486B2",
"b 	c #3A4A76",
"c 	c #808080",
"d 	c #69A5C6",
"e 	c #335A74",
"f 	c #3F6077",
"g 	c #6A747A",
"h 	c #B0B0B0",
"i 	c #302A38",
"j 	c #376E8F",
"k 	c #2A2A2C",
"l 	c #424A64",
"m 	c #6299B8",
"n 	c #2A2333",
"o 	c #424244",
"p 	c #344E60",
"q 	c #4A4A4C",
"r 	c #82A8BC",
"s 	c #3A5467",
"t 	c #3E81A9",
"u 	c #313647",
"v 	c #5D8197",
"w 	c #83A1B1",
"x 	c #2E1A74",
"y 	c #3A424A",
"z 	c #747474",
"A 	c #35424F",
"B 	c #698DA1",
"C 	c #A3A3A4",
"D 	c #8C8C8C",
"E 	c #BBBBBC",
"F 	c #70A2C0",
"G 	c #6090A8",
"H 	c #777E84",
"I 	c #407298",
"J 	c #7A92A4",
"K 	c #46365C",
"L 	c #80AFC6",
"M 	c #3A0A84",
"N 	c #606060",
"O 	c #25123F",
"P 	c #36426C",
"Q 	c #626E74",
"R 	c #5A5A5C",
"S 	c #5086A8",
"T 	c #4E92BC",
"U 	c #2C1E47",
"V 	c #4A92BC",
"W 	c #5D869E",
"X 	c #7A7A7C",
"Y 	c #467AA4",
"Z 	c #363E67",
"` 	c #386AA8",
" .	c #322E54",
"..	c #37367C",
"+.	c #6E6E6C",
"@.	c #9E9E9C",
"#.	c #868684",
"$.	c #6E7A7C",
"%.	c #B6B6B4",
"&.	c #629EBC",
"*.	c #AAAAAC",
"=.	c #929294",
"-.	c #367AA4",
";.	c #4E4E4C",
">.	c #363634",
",.	c #6692AC",
"'.	c #231E2A",
").	c #3A5A6C",
"!.	c #4E4264",
"~.	c #3E6A9C",
"{.	c #3D4954",
"].	c #5A98B8",
"^.	c #77A9C1",
"/.	c #260E54",
"(.	c #493D58",
"_.	c #322664",
":.	c #363A84",
"<.	c #3A1A84",
"[.	c #3A6A8C",
"}.	c #363E44",
"|.	c #323234",
"1.	c #4A565C",
"2.	c #568AA4",
"3.	c #565E64",
"4.	c #2E1654",
"5.	c #341070",
"6.	c #3E5A8C",
"7.	c #3C4E5C",
"8.	c #424E5F",
"                                                                                                ",
"                                      % H > =.D D #.#.Q 8                                       ",
"                                =.*.C @.@.> =.=.D #.#.#.#.H $.3.                                ",
"                          g *.h *.C @.> =.D D #.#.#.c c H X X $.g %                             ",
"                        h %.*.*.@.@.> =.D D #.#.H H X z z z z z +.+.Q 3.                        ",
"                    =.%.%.*.*.@.> =.D #.#.c H X z z z z z z +.% Q +.% % / |.                    ",
"                  h E %.*.C @.> =.D #.c H X z z +.+.+.% % % % % % % % % % N 8                   ",
"                E E h *.C @.=.D #.#.c X z +.+.+.% % % % % N % N N N 3.N 3.N 1.8                 ",
"              E E h *.C > =.D #.H X z g +.% % % N N N R N R N R R N R R N 3.R R 8               ",
"            h E h *.C @.=.D #.c X +.+.% % N N 3.R R ; R ; ; ; R ; ; ; R ; ; ; ; 8 }.            ",
"          J E h *.@.> =.#.#.$.z z +.% N N R ; ; ; ; ; ; ; ; ;.; ; ; ; ; ; ; ; ; ; ;.-           ",
"          %.%.*.C @.=.D #.X z +.% N N R ; ; ; ; ;.;.q q q q ;.;.;.;.;.;.; ; ;.;.;.8 {.          ",
"        h %.*.@.> =.#.c H z +.% N R ; ; ;.q ] ] o ] ] ] ] ] ] ] ] ] q q q ;.;.;.;.;.8 2         ",
"      g %.*.C @.=.D #.H z +.% N R ; ; q ] o o * o 2 2 2 2 * 2 o ] ] ] ] q q 8 ;.q q ] y         ",
"      *.*.C @.=.D #.X z +.% R R ;.;.q o o 2 2 >.2 >.2 2 2 2 2 2 * o o o ] o ] q ] q q ] >.      ",
"      *.*.@.=.D #.X z +.% N R ;.;.] o 2 >.2 |.|.- |.|.|.|.>.>.2 2 2 2 o 2 o o o ] ] ] y }.      ",
"    > *.@.> =.#.c X +.% N ; ; q o 2 2 >.|.- - - k k k - - |.|.>.>.2 2 2 * 2 o o o o ] ] y k     ",
"    *.@.@.=.#.#.H z % N R ; ;.] o * >.|.i k ( & ( ( i k k - - |.>.>.>.2 2 2 2 2 2 y 2 2 y |.    ",
"    C @.=.D #.X z +.% R R ;.] o 2 2 |.- k ( ( U n U n ( ( i - |.|.|.>.>.2 2 2 2 2 o o 2 y 2     ",
"  g @.> =.#.c X +.% N R 3.;.] o ] 4 i & U u 9 9 '.U U {  .( k }.- |.|.>.y 7.7.7.8 y ] y >.|.    ",
"  H @.=.D c X z +.% N Q B ] {.v 8.{ { n @ Y 9 O O 4.{ I _ n {.f - - |.2 3 s 7.7.7.7.2 }.2 >.[   ",
"  @.=.=.#.c X z % N Q ^.,.;.v d 8.{ ( Z a S 5.. ~ U ~.Y _ P j f i - >.f ).3 7.{.y 2 >.>.>.>.&   ",
"  =.=.D #.H z +.% g w L ) W 1 d 8.{ }.5 # t M . <.+ -.t 6.I j f ( @ f $ ).1.y >.>.>.2 >.>.>.k   ",
"  =.=.#.c z +.% g w L L 1 1 1 d l P 5 T V a M 5.` -.-.: : + + f u f $ $ $ p >.>.>.>.>.>.>.|.&   ",
"  D D #.c X +.g r L J B ^.1 m d 6 5 # 5 | a 5.` = = 7 j j I ! [.f ! f , y - |.>.>.>.>.>.|.- &   ",
"  =.#.c X z H w r ,.R ^ 1 6 ' &.T ].5 < a a j = = < ..: ! Z + ! e e s s p 7.p u - - >.- |.|.[   ",
"  c #.c z H w r J R ; v 6 2 ' &.].S |. .t | = t :.~ ..+ U Z ! e e $ $ $ , s }.|.|.|.- >.- |.&   ",
"  z #.H X H H g N ; ;.; ] 1.G m W u n _.b b b ..9 9 _.'.[ < , , , , A A A @ - - - |.- - - k [   ",
"  8 c X X X z +.% % 3.N 1.B m S @ ] ;.(.(.!.Z { !.(.K * 2 o |.y ] 2 2 >.2 2 o >.- - |.- - k     ",
"    c X z +.% N N ; ; R B ,.v y 4 |.k n & n '.9 [ 9 '.'.n & & & k - - - - - - - - - - k - &     ",
"    $.z z % % N N ; ;.q q ] 2 >.|.- - & & n & [ & '.'.'.n & & & & k k k k k - - - - k - k &     ",
"    % X +.+.N N R ; ; q o * 2 >.|.|.k k & & '.& [ [ & & & & & & k & k k - - - - k - k k & [     ",
"      X +.+.N N R ; ; 8 q o 2 2 |.|.- k & k & & & & & & & & k & k & k k k k k - - k k k &       ",
"      % +.% % N R ; ;.q ] o o 2 @ >.|.- - k & & & & & & & k & k k - - k k - k k k k k & [       ",
"        Q % N N R ; ; ;.q o 2 2 >.>.|.|.- - - - k k & k & k k k k k k - k k k k k k & &         ",
"        N % % N 3.; ; ;.q ] ] * 2 >.>.|.|.|.- k k k - k - k k k k k - k k k k & k & & [         ",
"          % N R N ; ; ;.;.] o o 2 2 >.|.|.|.|.- - - k k - - k k k k k - k k k k & k [           ",
"          2 N N R ; ; ;.q ] ] 2 o 2 >.>.>.|.|.- - - - - - k - - - k k k k k k & & &             ",
"            ] 3.R ; ;.;.q ] ] o 2 2 2 >.>.|.>.|.- |.- - - - k k - k k - & k & & & [             ",
"              ; R ; ; ;.;.q ] o o o 2 2 >.>.|.|.|.- |.- - k - - k k k k k k & & [               ",
"                8 ; ; ;.q q ] ] 2 o 2 2 >.>.>.>.>.- |.- - - - - - k k k & & & [                 ",
"                  ] ; ;.;.q ] o o 2 2 2 2 >.>.|.|.|.- |.- - k k k k & & & & [                   ",
"                    k ;.q q ] ] o 2 2 2 >.>.>.>.|.|.|.|.- - - k k k k & &                       ",
"                        o q ] o o o 2 2 2 2 >.|.>.|.- - - - k k k & & [                         ",
"                            >.] o y 2 >.>.>.>.|.>.|.|.- k k - k k [                             ",
"                                k 2 2 2 2 >.>.|.|.|.- - - - [ [                                 ",
"                                        & k - k k & & [                                         ",
"                                                                                                "};
