/* XPM */
static char * money_xpm[] = {
"48 48 256 2",
"  	c None",
". 	c #221E19",
"+ 	c #96967A",
"@ 	c #7B7A60",
"# 	c #6E6E4A",
"$ 	c #565A3A",
"% 	c #BEBEBE",
"& 	c #4E4E36",
"* 	c #35362D",
"= 	c #B2AE86",
"- 	c #8E8E6E",
"; 	c #464A40",
"> 	c #A6A27C",
", 	c #464646",
"' 	c #CECECE",
") 	c #BAAE8E",
"! 	c #AAA68E",
"~ 	c #8D8A69",
"{ 	c #2A2A22",
"] 	c #363A32",
"^ 	c #929686",
"/ 	c #7A7A72",
"( 	c #6A6A62",
"_ 	c #B2AE92",
": 	c #626255",
"< 	c #8E8E7D",
"[ 	c #3E3E2E",
"} 	c #717263",
"| 	c #B6B6B6",
"1 	c #2D2E26",
"2 	c #7E7E72",
"3 	c #C6C6C6",
"4 	c #A3A296",
"5 	c #8B8A7E",
"6 	c #8A8666",
"7 	c #96968D",
"8 	c #565642",
"9 	c #8B8672",
"0 	c #AEA67E",
"a 	c #A6A696",
"b 	c #9E9E8C",
"c 	c #8E8E82",
"d 	c #5A5A50",
"e 	c #B2AE96",
"f 	c #2F3229",
"g 	c #76765E",
"h 	c #73726A",
"i 	c #D6D6D6",
"j 	c #7E825E",
"k 	c #626262",
"l 	c #4E4E42",
"m 	c #42422E",
"n 	c #76724E",
"o 	c #AEAEA2",
"p 	c #8E8E86",
"q 	c #9E9A79",
"r 	c #4E4E46",
"s 	c #26261F",
"t 	c #7E7E79",
"u 	c #868676",
"v 	c #C2C2C2",
"w 	c #525246",
"x 	c #5A5A5A",
"y 	c #67665A",
"z 	c #6A6A52",
"A 	c #969696",
"B 	c #BABABA",
"C 	c #726E62",
"D 	c #767A66",
"E 	c #AAAAA2",
"F 	c #B2B2B2",
"G 	c #9F9E92",
"H 	c #949286",
"I 	c #AEAA89",
"J 	c #3A3A36",
"K 	c #82827A",
"L 	c #CACACA",
"M 	c #77766A",
"N 	c #605E56",
"O 	c #9A9275",
"P 	c #55564D",
"Q 	c #414239",
"R 	c #66665E",
"S 	c #9E9A85",
"T 	c #A69E7D",
"U 	c #A9A68A",
"V 	c #7E7E66",
"W 	c #D2D2D2",
"X 	c #3B3E36",
"Y 	c #9A9A92",
"Z 	c #8A8A82",
"` 	c #6A6A56",
" .	c #767264",
"..	c #363632",
"+.	c #8A8A72",
"@.	c #9E9E96",
"#.	c #BAAE88",
"$.	c #77766E",
"%.	c #A3A29A",
"&.	c #B6AA85",
"*.	c #565652",
"=.	c #6E6E56",
"-.	c #2E2E2A",
";.	c #53524A",
">.	c #93928A",
",.	c #A6A69A",
"'.	c #82826D",
").	c #32322E",
"!.	c #86867E",
"~.	c #AEAA92",
"{.	c #42423E",
"].	c #929273",
"^.	c #3E3E3A",
"/.	c #4A4A46",
"(.	c #9D9675",
"_.	c #828281",
":.	c #525252",
"<.	c #827A5E",
"[.	c #827E6B",
"}.	c #A6A283",
"|.	c #262626",
"1.	c #6E6E6A",
"2.	c #737258",
"3.	c #92927D",
"4.	c #928E70",
"5.	c #5E5E52",
"6.	c #A29E7E",
"7.	c #868272",
"8.	c #9E9E9D",
"9.	c #66625C",
"0.	c #595A48",
"a.	c #7A725A",
"b.	c #92928E",
"c.	c #22221D",
"d.	c #7D7A67",
"e.	c #767676",
"f.	c #9A9A8D",
"g.	c #919282",
"h.	c #868682",
"i.	c #8B8A77",
"j.	c #AEAEAA",
"k.	c #A2A2A1",
"l.	c #726E68",
"m.	c #2A2A26",
"n.	c #7B7A76",
"o.	c #868266",
"p.	c #A6A6A2",
"q.	c #727272",
"r.	c #3A3A3A",
"s.	c #363636",
"t.	c #DADADA",
"u.	c #767663",
"v.	c #3E3E3E",
"w.	c #3A3A32",
"x.	c #7E765E",
"y.	c #6E6E5D",
"z.	c #B2AA86",
"A.	c #666652",
"B.	c #928E8B",
"C.	c #A29E9E",
"D.	c #BCB288",
"E.	c #8B8A86",
"F.	c #323232",
"G.	c #938E76",
"H.	c #7A7A6E",
"I.	c #969686",
"J.	c #2E2E2E",
"K.	c #A29A7B",
"L.	c #6A6662",
"M.	c #5E5E5E",
"N.	c #6E6A66",
"O.	c #9C967C",
"P.	c #73725E",
"Q.	c #A6A2A2",
"R.	c #8E8E8E",
"S.	c #A09E84",
"T.	c #9A9A86",
"U.	c #7E7E7E",
"V.	c #7A7E6E",
"W.	c #AEA282",
"X.	c #2A2621",
"Y.	c #26221C",
"Z.	c #4F4E4A",
"`.	c #AAAAA6",
" +	c #AAA283",
".+	c #7E7E6B",
"++	c #7A7663",
"@+	c #86866D",
"#+	c #56523A",
"$+	c #928A66",
"%+	c #868262",
"&+	c #726E4E",
"*+	c #B6B2B2",
"=+	c #5A564E",
"-+	c #969292",
";+	c #AEAAAA",
">+	c #525240",
",+	c #AEA685",
"'+	c #AAA67E",
")+	c #727666",
"!+	c #AAA686",
"~+	c #9E9A7E",
"{+	c #76726E",
"]+	c #6A6A69",
"^+	c #B2AA8A",
"/+	c #9A9A99",
"(+	c #928E82",
"_+	c #5A5E4A",
":+	c #666666",
"<+	c #9A9696",
"[+	c #8E8A70",
"}+	c #868686",
"|+	c #424242",
"1+	c #B6AE89",
"2+	c #7E7E62",
"3+	c #BDB28E",
"4+	c #726E5E",
"5+	c #928E7D",
"6+	c #828272",
"7+	c #2A2A2A",
"8+	c #86826B",
"9+	c #B2AA8E",
"0+	c #AAA27C",
"a+	c #827E7A",
"b+	c #6B6A5D",
"c+	c #625E50",
"d+	c #8A866C",
"e+	c #AAAA92",
"f+	c #827E62",
"g+	c #868279",
"h+	c #969272",
"i+	c #96927E",
"j+	c #929292",
"k+	c #AEAEAE",
"l+	c #7A7A7A",
"m+	c #8A8A8A",
"n+	c #4A4A4A",
"o+	c #4E4E4E",
"p+	c #4A4A42",
"q+	c #5E5A52",
"r+	c #423E3A",
"s+	c #968E6E",
"t+	c #AAA6A6",
"u+	c #7E7A6E",
"v+	c #625E5A",
"w+	c #9E9A9A",
"x+	c #B2AEAE",
"y+	c #6E6E52",
"z+	c #6E6E6E",
"A+	c #AAAAAA",
"B+	c #565656",
"C+	c #666256",
"D+	c #9A968E",
"E+	c #8A8682",
"F+	c #B2A686",
"G+	c #A6A6A6",
"                                                                                                ",
"                                      | F k+A+G+k.8./+A j+                                      ",
"                                v % B | F k+A+G+k.8./+A j+R.m+}+                                ",
"                          ' L 3 v % B | F k+A+G+k.8./+A j+R.m+}+_.U.                            ",
"                        ' L 3 v % % B | F k+A+G+k.8./+A j+R.m+}+_.U.l+e.                        ",
"                    i W ' ' L v v B | F k+A+G+G+k.8./+A j+R.m+}+_.U.l+e.q.z+                    ",
"                  i i ' L 3 3 v % B | | F k+G+k.8.8./+A j+R.m+}+_.U.l+e.q.z+]+                  ",
"                t.i W ' ' L 3 % % B | F k+A+G+G+k.R.} K E.m+m+}+U.U.l+e.q.z+]+:+                ",
"              i i W W L 3 3 v % B B F k+A+A+k.k.^ 2 '.9 '.6+K }+U.l+e.e.z+]+]+:+k               ",
"            i i W ' L L L v v % B | F k+k+G+G+j+9 + }.U +.9 .+} $.l+l+q.q.z+:+k M.M.            ",
"          i W W ' ' L 3 3 % % B | | F A+A+G+7 +.@+S q h+@+].[+@ P.y.y.1.]+]+]+:+M.x x           ",
"          W W ' ' L 3 v v v B B | F k+k+k.< G.O.(.].+.].q K.O.q T.'.y.u.} y.y.y x x B+          ",
"        ' ' L L L L 3 v % % | | F F A+Y '.- 6.^+W.&.9+'+'+[+[+T (.4.} 8+[+u+` ;.x B+B+:.        ",
"      ' ' L L 3 3 v v % B B | F G+>.p./+2 4+T &.3+#.1+F+4.- h++.q - g h+5+.+5./.x B+:.:.        ",
"      L L 3 3 v v % % % | | | p.G+| | k+;+G+{+ .(.F+#.T @+~ %+q T d+@ G.o.A.; ^.B+:.o+o+n+      ",
"      v v 3 v v % % B | | o S i.8.*+k+;+`.Q.k.8.a+A.<.].~ ~ 6.T T q @+[.y p+J , o+o+o+o+n+      ",
"    v v % v % % B B F ,.7 +.< 5+A.l.8.G+,.8.w+A -+p Z 5.l x.0 0 0+T h+u., * J {., n+, n+, ,     ",
"    % % % B B B j.7 I.T.3.S ! 6.! - c+]+b.w+A -+R.m+E+a+t R ;.n > (.g l * X J ] {.|+, , , |+    ",
"    B B B | o >.>.< I.! U _ }.!+6.O 0+d+[ P !.B.E.h.g+n.$.q.l.N.Z.=+l ).J ] s.^.r.v.|+, , |+    ",
"  | | F E 4 /+b a D+.+g.e ~.~.9+T z.&.6 z f+Q P E+a+U.u+e.l.N.]+9.Q f ] -...Q ..s.r.v.v.|+v.    ",
"  F F j.k.@.4 4 4 g.i.3._ 9+^+,+^+1+&.(.# 2+@+y+-., e.{+q.1.R 9.J Y.m.).] ^.F.* F.r.v.v.|+v.v.  ",
"  k+j.;+;+@.^ ^ c i.5 S 9+9+I  +^+,+1+= (.# $ #+& m Y.Z.N.R 9.J Y.s s * w.).F.J.s.s.v.v.v.v.r.  ",
"  A+A+%.A C.4 5 Z g.< S 9+F+9+z.,+(.T &.z.s+n f+(.^+ +=+m.:.J . . Y.|.w.).J.J.F.s.s.v.v.v.v.r.  ",
"  G+G+,.a 7 H f.(+/ V.^ 4 ,+,+I &.z.&.&.1+D.D.3+,+O ~ ~ n ... c.Y.s |.1 J.1 F.F.s.r.r.v.r.r.s.  ",
"  k.k.8.B.<+G u c I.H.@ V..+[+i+> z.1+z.1+D.D.#.s+n @ # >+{ . Y.Y.X.m.7+7+J.F.F.s.r.v.v.r.r.s.  ",
"  8.8./+@.>.E+>.(+h g+5+6+.+V '.o.O 0 1+1+&.&.&.- 2.y+8 c.f . Y.X.{ |.7+7+J.F.s.r.v.r.r.r.s.s.  ",
"  /+/+/+b.>.D+!.g+3.2 l.6+[.u.+.@ @ (.0 0+0  +o.y+` _+1 1 1 c.Y.s 7+|.J.J.F.s.r.r.v.v.r.r.F.F.  ",
"  A A j+b.p Z 5 (+$.H.3.l.} [.} 0.: V f+f+%+6.O.: >+m.f s ] X.X.X.|.7+7+J.F.r.v.v.v.r.r.s.s.F.  ",
"  A A b.R.h.B.K u+c u+R u+'.v+` 8+P.P.g [+<.++@ $ 1 f ).w.m.m.7+7+7+J.F.s.s.r.v.v.v.r.s.F.F.    ",
"    R.R.R.p h.a+K u+/ 7.M 9..+y.Z.y.d. .2.2.g 0...).).* 1 -.7+|.7+J.J.F.s.r.v.v.v.r.r.s.F.J.    ",
"    m+m+m+m+m+_.n.u+/ l..+u+L.A.++y 8 N.++2.: ] ..* X J.F.7+7+7+7+J.J.F.r.r.v.v.r.s.r.s.J.J.    ",
"    }+}+}+_._._.l+e.{+{+l.: ++C d c+y.q+w ..w.....] -...J.7+J.7+J.F.s.r.r.v.v.r.r.r.F.J.J.7+    ",
"      _._._.U.l+e.1.R ]+( h v+L. .c+P C+8 {.J Q ^...s.J.J.7+J.J.J.F.s.r.r.r.v.r.s.s.F.F.J.      ",
"      U.U.U.l+l+q.z+:+M.M.R R b+5.C+` P =+; Q J ..J F.F.J.J.f F.s.s.r.r.v.v.r.r.s.F.F.7+7+      ",
"        l+l+l+/ q.]+:+M.x B+B+5.: v+;.` 5., X X r...F.F.F.J.F.F.s.s.r.r.r.r.s.s.F.J.J.7+        ",
"        e.e.e.q.q.z+:+k M.B+B+Z.:.d 5., P ^.v.r.s.s.F.F.F.F.F.s.r.r.v.r.r.s.s.F.F.J.7+|.        ",
"          q.q.z+z+z+]+k M.x B+:.n+, ;.;.;., ^.s.s.s.s.F.F.s.F.s.r.r.r.r.r.s.s.F.J.J.7+          ",
"          z+z+z+z+]+:+:+k x x :.Z.n+, , r v.] ] s.s.F.s.s.F.s.s.s.r.r.s.s.s.J.J.J.|.            ",
"            ]+:+:+]+:+k k x x B+:.n+, |+|+v.r.r.r.] s.s.s.s.r.r.s.s.s.s.F.F.J.7+7+|.            ",
"              :+:+k :+k M.v+x B+:.Z.n+, |+r+r+r.r.r.s.s.r.r.s.s.s.r.s.F.F.J.7+7+|.              ",
"                k M.k M.M.x x B+B+:.o+, , , |+v.r.v.r.s.s.s.r.r.s.s.F.F.J.J.7+7+                ",
"                  M.x x x B+B+B+:.o+o+n+, |+|+v.r+r.r.r.r.s.s.s.F.F.F.J.7+|.|.                  ",
"                    x B+B+B+:.:.:.o+o+n+n+, , |+v.r.r.s.r.s.F.F.F.J.7+J.7+                      ",
"                        :.o+:.o+o+n+n+n+, , |+|+v.v.v.r.s.s.s.F.J.J.7+|.                        ",
"                            n+n+n+n+, , |+|+v.v.v.r.r.s.s.F.F.J.J.7+                            ",
"                                , |+, |+v.v.v.r.s.s.s.s.J.J.7+7+                                ",
"                                        v.r.r.r.s.F.F.F.                                        ",
"                                                                                                "};
