/* XPM */
static char * rndmath_xpm[] = {
"48 48 17 1",
" 	c None",
".	c #292929",
"+	c #787E8B",
"@	c #565355",
"#	c #B3B3B4",
"$	c #8D97A5",
"%	c #68666D",
"&	c #8C8692",
"*	c #816F7E",
"=	c #9F9CA4",
"-	c #54303E",
";	c #CACACA",
">	c #3C3C3D",
",	c #725861",
"'	c #5D4050",
")	c #717178",
"!	c #3E2C32",
"                                                ",
"                   %&=$$&&&%@                   ",
"                =#####=#===$&&+%                ",
"             );#;#####=#====$&&+)%              ",
"            #;;;;#####=#==$$$&&&++)%            ",
"          =;;;#;#;#####=====&$&&&+)%%.          ",
"         #;;;;;;#####==#=$$=&$&++&)))%@         ",
"        ;;;;;;;#;#####=====&$&&&+++))%@>        ",
"       ;;;;;;;;#;####=#===$$&&&&+++)))%%@       ",
"      ;;;;;;;#;###$=$$$$=$=$$&&&++)))%%@@!      ",
"     $;;;;;;;##$==$==$==$&$&&&++++*))%%%@@.     ",
"     ;;;;;;;##======$=$$$=$$$&&+++)))%%%%@>     ",
"    #;;;;;;===#$=$$$&$&$=$=$&&+++*)))%%@%@@>    ",
"   &;;;;;;=#=====&&&$&&=&$&$#&&+++)%%%%%@@@>    ",
"   #;;;;#==#===$=&$&&*$&&&$$==&+))))%%%@%@@>>   ",
"   ;;;#;#=#====&&&****&+&=&&&$&++))%%%@%@@@@.   ",
"  =#;#;#$#=====&&&*,****&+&&$==&+))%%%%@@@@@>.  ",
"  #;###======&=*)%++)%%),*=&&===+))%%%%@@@@@>.  ",
"  ###;==#=#===*+++$++$$$++++&&&=+)%%%@@%@@>@>>  ",
" +####$=====&&%%++++$$$$$=$$+&+&+%%%%%@@@@>@>.  ",
" &####$======,%%+++$$++$$$$$$$$+%)%%@@@@@@>@>>. ",
" ###==$$==&=$@%%++%)+++$$&$$=$=$$++%%%@@@@@>>.. ",
" $=##&$====&&@@%%@%+&**+&$&+$==&&$$+%%@@@>>@>>. ",
" =#==&=&==&=&>>@@,**%%*&&&*&=$&+=$$&+)%@@>@>>.. ",
" &==#&&&=====%''@',,,%&**&&=&&$&&&&$++)%@>>>>>. ",
" ====&&&=&&$=&@!'''',,,*****&&&*&&&)+&))@@>>>.. ",
" &===&&&&&=$&$&>.--'-',*,,*&&**&&***&)))%@>>>.. ",
" +=$$&&&&$&$=&$$@>!!--''',*,******&,**),)@>>!.. ",
" @&$$&+&&&&&&$+$++)%@----'',,,,***,**,,%%@>>..  ",
"  $&&$*+*&&&+$+++++*+**,'--'',,,*,,*,,,,@@>>..  ",
"  +&&&&*+++&&++++)+&)*&*&*,---,',,,,,,,@@'>>..  ",
"  )&&&&)***+*+++&)*+*&*&*&**,----',@,@'@'>....  ",
"   &+&+&))*+**&)+************,'!!----''''>>..   ",
"   +++++)%%*))*)**)&******,,,@@@'>>!--!>>....   ",
"    ++++*)%,%*%%)*%***%*,*,,@@@@>@>@>>>>!...    ",
"    %*))))%%,,,,*%,%,*,,,',@@>@>@>>>>!>.>...    ",
"     ))))))%%@,@,,,,,,',,@@@@@>@>>>>>>.....     ",
"     >)))%%%%%%@@@''@,,@@@@@>@>>@>>>.>>...      ",
"      '%)%%%%%%,%@%@@@@@@@>@>@>>>>>>......      ",
"       @%%%@%@@@%@@@@@@@@>@@>>>>>>>>.>...       ",
"        @@%@%%@@@@@@@@>@@>>>@>>>>..>....        ",
"         @%@@@@%@@@@@@>@>@>>>>>>>>.....         ",
"          .@@@@@@@@>@>@>>>>>>>>......           ",
"            @@@@@@>@>@>>@>>>>.>.>...            ",
"              >>>@>>>>>>>>>>.>....              ",
"                >>@>@>>>>>>.>...                ",
"                    ........                    ",
"                                                "};
