/* XPM */
static char * rndnotepad_xpm[] = {
"48 48 129 2",
"  	c None",
". 	c #1E1E1E",
"+ 	c #727272",
"@ 	c #B49242",
"# 	c #C8AE68",
"$ 	c #5A5A5A",
"% 	c #D5BF83",
"& 	c #463A26",
"* 	c #E2D6B1",
"= 	c #624E26",
"- 	c #A67A29",
"; 	c #868685",
"> 	c #E3D29B",
", 	c #8E6622",
"' 	c #B29E62",
") 	c #644A1E",
"! 	c #3E3E3E",
"~ 	c #866221",
"{ 	c #9C7428",
"] 	c #636261",
"^ 	c #A69A76",
"/ 	c #EAE6CE",
"( 	c #2E2E2E",
"_ 	c #C2AE86",
": 	c #CEBE92",
"< 	c #424242",
"[ 	c #BEAA6A",
"} 	c #E8DBBA",
"| 	c #D8C896",
"1 	c #767676",
"2 	c #AE924E",
"3 	c #6F5522",
"4 	c #C7B689",
"5 	c #DECEA6",
"6 	c #EEE2BA",
"7 	c #927E4E",
"8 	c #C2B28E",
"9 	c #6E6E6E",
"0 	c #9E7672",
"a 	c #D2C4A2",
"b 	c #6A4E22",
"c 	c #464646",
"d 	c #41351E",
"e 	c #D6CAAA",
"f 	c #A6A6A6",
"g 	c #DBCFAF",
"h 	c #AA9662",
"i 	c #363636",
"j 	c #BABABA",
"k 	c #DED6C2",
"l 	c #7E5A56",
"m 	c #625636",
"n 	c #B2862E",
"o 	c #DEDEDE",
"p 	c #5A3A32",
"q 	c #9E9E9D",
"r 	c #828282",
"s 	c #D6CEB6",
"t 	c #8A8A8A",
"u 	c #7B7A79",
"v 	c #666665",
"w 	c #B2B2B2",
"x 	c #C2C2C2",
"y 	c #929292",
"z 	c #6E5C54",
"A 	c #BAAE96",
"B 	c #5A4A26",
"C 	c #24221E",
"D 	c #4E4E4E",
"E 	c #A68E6A",
"F 	c #4C3A36",
"G 	c #8A7656",
"H 	c #D2D2D2",
"I 	c #BEBEBE",
"J 	c #8A6A2E",
"K 	c #C6C6C6",
"L 	c #8E5A52",
"M 	c #525251",
"N 	c #AE9E7E",
"O 	c #887E68",
"P 	c #E6DABE",
"Q 	c #BEB69A",
"R 	c #E2E2E2",
"S 	c #323232",
"T 	c #624A22",
"U 	c #9A9A99",
"V 	c #68524E",
"W 	c #4A4A4A",
"X 	c #6E4E4A",
"Y 	c #7E7E7E",
"Z 	c #AAAAAA",
"` 	c #7E6E5E",
" .	c #262625",
"..	c #CACACA",
"+.	c #565656",
"@.	c #A2A2A2",
"#.	c #B6AE9A",
"$.	c #A88234",
"%.	c #665C4E",
"&.	c #764642",
"*.	c #8E8E8E",
"=.	c #B6B6B6",
"-.	c #ECDEB2",
";.	c #DADADA",
">.	c #969696",
",.	c #6A6A6A",
"'.	c #CECECE",
").	c #E6E6E6",
"!.	c #C3A962",
"~.	c #2A2A29",
"{.	c #AA863A",
"].	c #5E5E5E",
"^.	c #9A827E",
"/.	c #AEA29E",
"(.	c #67413A",
"_.	c #9C7C3A",
":.	c #8E6C2C",
"<.	c #463632",
"[.	c #3A3A3A",
"}.	c #D6D6D6",
"|.	c #B2A69A",
"1.	c #BEB2A2",
"2.	c #AEAEAE",
"3.	c #8A5E5A",
"4.	c #564E4C",
"5.	c #EAEAEA",
"6.	c #986E26",
"7.	c #AE8E45",
"8.	c #4E463E",
"                                                                                                ",
"                                      =.w 2.Z f @.q U >.y                                       ",
"                                x I j =.w 2.Z f @.q U U y *.t ;                                 ",
"                          '...K x I j =.w 2.Z f @.q U >.y *.t t r Y                             ",
"                        '...K x I I j w w 2.Z f @.q U >.y *.t ; r Y u 1                         ",
"                    }.H '.....x x j =.=.2.2.Z f q q U >.y *.; ; r Y u 1 + 9                     ",
"                  }.}.'.'.K K x I j =.w 2.w Z Z @.U U >.y *.t ; r Y u 1 + 9 ,.                  ",
"                }.}.H H ....K I I j =.w I x @.>.U U >.y *.*.; ; Y u u 1 + 9 ,.v                 ",
"              ;.H H '.'.K K x I j =.w 2.K Z q ; y 2.@.>.t t ; ; r u 1 + 9 9 ,.v ]               ",
"            }.H H '.'.....x x I j w 2.Z j @.@.U w 2.t Y t >.*.; Y u u 1 + ,.v ] ].].            ",
"          }.}.H '.....K x x I j =.w f I =.*.q U =.*.r 1 *.Z t r Y 1 + 9 9 ,.,.v ].$             ",
"          H '.H '...K K x I j =.w f =.'.x q U q f 1 t t w y u v u *.t Y 9 ,.v ] ].$ +.          ",
"        '.'.......K x x I j =.w Z =...'.'.'.'...f 1 + r Z Y r + y U 9 ,.9 v ] ] ].$ +.M         ",
"      '.'.....K K x x x I j w 2.w ......'.'.}.'.=.f @.f U ,.+ Y Z Y 9 ].].] ] ].$ $ +.M         ",
"      K ..K K x x I I j =.=.Z f ..'.'.K '.'.H H ..K x j @.r 1 1 >.+ 1 + ,.] ].].+.+.M M D       ",
"      K x x x x x I j j =.2.Z ..'.........'.H H ;.}.H ..I 2.Z @.*.] ] 9 9 9 $ M +.M M D W       ",
"    x x x x I j j j =.w Z f I K ..'.'.'.H H }.'.}.;.;.;.}.H K j U *.; *.1 1 ] M M M D D W c     ",
"    I I I j j j j w w 2.Z =.K K K K '.H }.;.;.o ;.}.;.}.;.H ..I 2.f Z q Y 9 +.D M M D W c c     ",
"    j =.j =.=.w =.w 2.f =.x x K K K ....H ;.o o R o R ;.;.}.'...I w Z U u +.W D D D D W c <     ",
"  =.=.=.w =.=.w 2.Z f f ..x x K ..'.'.H H H }.o ).).R R o ;.}.H ..K =.y +.c D W D D W W c <     ",
"  w w w 2.2.w 2.Z @.f K I I j x K H H }.}.;.;.H o R ).R R o ;.}.'.x >.] < c D D D W W c < < !   ",
"  2.2.2.2.2.Z f @.@.I j j I I j x x '.}.;.;.;.o ;.o R R R R o ;.H f 9 < c W W D D D W c < ! [.  ",
"  Z Z Z f Z f f @.=.j =.=.I x K K K K ..H ;.o R o R R o o o o o =.u c ! 4.z V 4.W W c c ! ! [.  ",
"  f f f f @.@.U w j =.2.f w I K '.'...'...'.}.;.R R ).5.R ).).'.; c ! l ^.^.3.X W c c < ! [.[.  ",
"  @.@.@.@.q >.=.x j w =.=.2.2.=.K '.'.H H }.H H ;.o R 5.R 5.H U v u q /.0 3.&.(.< < < < ! i i   ",
"  @.q q q U y x '...x j =.j j j j I K H }.}.}.;.;.;.).).5.o #.h 8 Q q u l &.p F ! < ! ! [.[.i   ",
"  U U U U >.t f '.}.;.'...I j x K x x x ..}.}.;.o o R 5.} e a a 4 h 7 ] X p <.i [.! ! [.i i S   ",
"  >.>.>.y y r ; >.2.H o o }.}.x K ....K K K H ;.o ;.k * P g % [ 7 - , 4.F S ( i [.! [.[.i S S   ",
"  y y y *.*.; Y ,.+ u >...;.R ).;.'.'.'.'.'.....g > } -.% [ $.{ 6.3 B d ( i i [.! ! ! [.S S     ",
"    *.*.*.t ; Y 1 ,.] v 9 U j o R 5.o ;.'.'.e > -.-.| # 7.{ 6.~ T & S ( i [.! ! ! [.i i S (     ",
"    *.t t ; ; r u + 9 v $ $ ,.t w }.R R g * -.6 > !.@ n 6., b & S ~.S i ! ! < ! ! [.i i S (     ",
"    ; ; ; ; r r Y u + 9 v $ M c $ 1 #.g / -.> !.@ n - , 3 d  . .( i ! < < < ! ! [.[.i S ( (     ",
"      r r r Y r Y u 1 + 9 v ] ] O 8 g k : !.7.$.- ~ ) d .  .( i ! c c < c < ! [.i i S ( ~.      ",
"      r Y Y Y u u u u 1 + 9 u N % | : !.{.$.- , b d C C  .S [.< c c c c < ! [.[.i S ( ( ~.      ",
"        u u u u u 1 1 + 1 ; |.Q _ ' 2 {.- :.3 d C . C ( i ! c W c c c < ! ! [.i S ( ~.~.        ",
"        1 1 1 + + + + + 1 /.|.U E 7.$.:.= d  .C  .~.i [.< c c c c < < ! ! [.i i S ( ( ~.        ",
"          + + + + 9 9 ] ] u O ` G G m S ~.S S i [.! < c W W W W c < ! [.[.i S ( ( ~.~.          ",
"          + 9 9 ,.,.] M 8.4.%.%.%.8.S i [.! < c c 8.W c c c c < < ! ! [.i i S S ( ~.            ",
"            ,.,.,.,.].+.D c c < [.! ! c W D D D D W W W W c < ! ! [.[.i S S ( ~. . .            ",
"              v ] ] ] $ +.D W W W W D D D 4.D D W W W c < < < ! [.[.i i S ( ~.~.~.              ",
"                ] ].].$ +.+.M M M M M M M D D D W c c c < ! ! [.i i S S ( ( ~. .                ",
"                  ].$ $ $ +.+.M M M 4.D D D W c c c c < ! ! [.[.i S ( ( ~. . .                  ",
"                      +.+.M M M D M D W W W W c < ! ! ! [.[.i i S S ( ( ~.                      ",
"                        M M M D D W W W c c < < < ! [.[.i i S S ( ~.~. .                        ",
"                            D W W W c c < < ! ! ! [.i [.S S ( ( ( ~.                            ",
"                                c c < < ! ! ! [.[.[.i S S ( ( (                                 ",
"                                        ! [.[.i i i S S                                         ",
"                                                                                                "};
