/* XPM */
static char * rndnote_xpm[] = {
"48 48 49 1",
" 	c None",
".	c #1D1D1C",
"+	c #909091",
"@	c #CECCC9",
"#	c #B1B0B0",
"$	c #ECE7DD",
"%	c #585859",
"&	c #C0C0C0",
"*	c #E3DBD3",
"=	c #757475",
"-	c #A0A0A1",
";	c #3C3C3D",
">	c #F8F8F2",
",	c #DDCDC0",
"'	c #C3B4A3",
")	c #F5F0E7",
"!	c #4C4C50",
"~	c #D0C1B1",
"{	c #B5A594",
"]	c #E0D4CB",
"^	c #B9B8B7",
"/	c #686868",
"(	c #ECE1D4",
"_	c #848484",
":	c #F4E9DF",
"<	c #9E8E7C",
"[	c #2C2C2C",
"}	c #A8A8A8",
"|	c #444446",
"1	c #989899",
"2	c #606060",
"3	c #7C7C7C",
"4	c #A19A97",
"5	c #D3D3D4",
"6	c #343434",
"7	c #242424",
"8	c #C7C4C2",
"9	c #C7BAAD",
"0	c #D3C6BA",
"a	c #B7AA9D",
"b	c #525256",
"c	c #6E6E6D",
"d	c #8B8A8C",
"e	c #BCB1A5",
"f	c #E4E2DC",
"g	c #979191",
"h	c #ACA097",
"i	c #FAFEFC",
"j	c #C2C6C4",
"                                                ",
"                   cd-11++dcb                   ",
"                -^^###}}--11++32                ",
"             3&j&^^^##}}--11+d+_=/              ",
"            &j0j&&^^#}}}--11+d___332            ",
"          }5@@j&&^^###}--111++dd33==26          ",
"         ^@5@@j&&^^##}}--111+d___33=c/!         ",
"        555@@j&&^^^#}}}---1+d+d__3===/2|        ",
"       @*5@@jjj&^^###}}-1111ddd_33==c//2!       ",
"      j55@@88j&^&#^#}}---1++dd_3_3===c/2b6      ",
"     15@5@@@&&&^^###}-1++++ddd_333=cc//22%[     ",
"     @55j@j&&&^^}-1++ddd1{-dd___3===c//22%|     ",
"    &@@@jjj&&^}1+++g1ha9~,@1___33==cc//2%%b;    ",
"   _@j@jjj&&#11-}#^8@]]]],@}__333==c//222%!;    ",
"   #@jjj8&&^1+}8@@]]]]],],]&_3333ccc//22%%%!;   ",
"   j&&&&&^^}g-@,00,,]],],,,04333===//22%%%!!6   ",
"  -&&&&^&^^1-8:*'~0,,],,,,0~#====cc//222%%!!|[  ",
"  ^&&^^^^#}+#f*]'90,~~,00'h{^gc==cc//22%%bb!|[  ",
"  ^^^^^#^^}+^89''9,~~{h'9{{'~^=c=c//22%%b!!!|;  ",
" 3^#^#####}+h~'9''90ahh0e{00,0g////222%%bb!||6  ",
" _^####}}#-++9a~a{'{h''{e'9'0,9=////22%%!b!||;7 ",
" ##}##}#}}-+d0{{a{h~~e@e'99@*],4/2/2%%bbb!|||6. ",
" 1}}}}}}-}1+_0,e~{<{e&]]@***(*]03222%%bb!!!||;[ ",
" }}-}}-----d_&]9**~0*((((((((*(*a/%2%%b!!||;;6. ",
" +}-----1-1+3#(,(:$(:::((((($(ff]1b%%%b!!||;;6[ ",
" -1-1--1111+31)$):::::::::$$($(*(9c%%b!!!|||;6. ",
" d1111111ggd_df>)))::))):::$$$$((]-%b!!|||;;667 ",
" 3111+1+++++33@>>>)))):))))))$$$f$8/!b!!|;;6;7. ",
" !+++++++ddd_=e)>)>>)))))):))$$$*#=b|!||||;666  ",
"  +++++ddddd3=-:>>)>>>))))$))$f^=!;|!!!|;;;6[.  ",
"  __d_d_____3=_f>i>>>>>))>))*}3|[;|||!||;6;6[7  ",
"  cd_______333/@>>>>>>>>))5-/66;||!|!!|;6;667.  ",
"   _____33333=c})>>>>>>)@-2;6;;!!!||b!;;666[[   ",
"   333333333==/=$>>i)f#3;6;;||!!|!bb|;;;;[[..   ",
"    3=3=======cc&>fj+c;6;|!b!!!bb!!||;6666[7    ",
"    /======ccccc=_=b;|||!!!bbb!!!|;|;6;66[7.    ",
"     ==c=cccc////2b!|!b!bbbbb!||||;;;66[[[7     ",
"     |/c//c////2222%2%%%bbb!!|!||;;666[[[.      ",
"      !////2/2222%2%%bbbb!!!!||;;;;6666[7.      ",
"       2/2222222%%%b%bb!!!!|||;;;;666[[..       ",
"        b222%2%%%%%bb!b!!|||;|;;666[[[[.        ",
"         !%%%%%%bbbb!!!||||;|;;6666[[..         ",
"          [%bbbbb!!!!|!|||;;;6;66[[[7           ",
"            |bb!!b|!||||;;;;6666[[7.            ",
"              ;!|||||;;|;;6666[[[7              ",
"                6||;||;6;6666[7.                ",
"                    766[[[[.                    ",
"                                                "};
