/* XPM */
static char * rndnaut_xpm[] = {
"48 48 256 2",
"  	c None",
". 	c #262626",
"+ 	c #929292",
"@ 	c #57352F",
"# 	c #794533",
"$ 	c #7A665A",
"% 	c #C7C6C5",
"& 	c #946845",
"* 	c #B3B2B1",
"= 	c #95836D",
"- 	c #664233",
"; 	c #3E3E3E",
"> 	c #BA946A",
", 	c #5A5A5A",
"' 	c #AA6640",
") 	c #9E845E",
"! 	c #827266",
"~ 	c #B6A682",
"{ 	c #6A6A6A",
"] 	c #A37B54",
"^ 	c #3E3A36",
"/ 	c #B09670",
"( 	c #7F533E",
"_ 	c #3A3A3A",
": 	c #474646",
"< 	c #BA9A6E",
"[ 	c #828282",
"} 	c #BB825B",
"| 	c #86543E",
"1 	c #9A6642",
"2 	c #2A2A2A",
"3 	c #AD7653",
"4 	c #AA9E7A",
"5 	c #9E867F",
"6 	c #9A7650",
"7 	c #5A4A42",
"8 	c #BEBEBE",
"9 	c #BDA585",
"0 	c #AA927E",
"a 	c #626262",
"b 	c #AA7667",
"c 	c #363636",
"d 	c #CECECE",
"e 	c #8E5A3E",
"f 	c #4A4A4A",
"g 	c #C6B2A4",
"h 	c #AE8262",
"i 	c #9D6C4A",
"j 	c #BE764A",
"k 	c #A6967E",
"l 	c #9C6140",
"m 	c #704A3C",
"n 	c #937668",
"o 	c #A7A6A6",
"p 	c #8E7E72",
"q 	c #9C7060",
"r 	c #2E2E2E",
"s 	c #887568",
"t 	c #BEA295",
"u 	c #B2967A",
"v 	c #B6A88E",
"w 	c #9A827E",
"x 	c #7E6757",
"y 	c #B2A28A",
"z 	c #947259",
"A 	c #6E3E2E",
"B 	c #6E6E6E",
"C 	c #525252",
"D 	c #BA7949",
"E 	c #A37E5D",
"F 	c #767676",
"G 	c #969696",
"H 	c #C2B29E",
"I 	c #A68E69",
"J 	c #AA7E5B",
"K 	c #B28E6B",
"L 	c #7A7A7A",
"M 	c #868686",
"N 	c #D7D7D7",
"O 	c #6C5A4E",
"P 	c #BA885F",
"Q 	c #9E6A54",
"R 	c #7A6054",
"S 	c #66564D",
"T 	c #BCAA8F",
"U 	c #ABAAAA",
"V 	c #945A43",
"W 	c #968676",
"X 	c #AB7255",
"Y 	c #936659",
"Z 	c #AE8276",
"` 	c #9E8572",
" .	c #AB857A",
"..	c #423A3A",
"+.	c #AC795F",
"@.	c #975636",
"#.	c #BEADA4",
"$.	c #4B423E",
"%.	c #A56A4A",
"&.	c #B7B6B5",
"*.	c #665B54",
"=.	c #9F9E9E",
"-.	c #A29272",
";.	c #CAC1BB",
">.	c #CA9B6F",
",.	c #B19488",
"'.	c #9A765E",
").	c #9A8D82",
"!.	c #5C4E48",
"~.	c #826856",
"{.	c #815A4E",
"].	c #AB7A69",
"^.	c #B69A82",
"/.	c #B06A40",
"(.	c #6C6460",
"_.	c #9E705A",
":.	c #B4875E",
"<.	c #9E7A5A",
"[.	c #764A32",
"}.	c #BA968A",
"|.	c #333232",
"1.	c #926152",
"2.	c #613E33",
"3.	c #8A6054",
"4.	c #5E5E5E",
"5.	c #B67A46",
"6.	c #C6AE9B",
"7.	c #62564E",
"8.	c #424242",
"9.	c #666666",
"0.	c #A19691",
"a.	c #C59369",
"b.	c #A38E86",
"c.	c #955F3E",
"d.	c #AA9692",
"e.	c #A26647",
"f.	c #BA8672",
"g.	c #A28276",
"h.	c #727272",
"i.	c #B6A896",
"j.	c #A37C71",
"k.	c #4E4E4E",
"l.	c #AC8D81",
"m.	c #8A6E58",
"n.	c #BC9E8C",
"o.	c #C0AE98",
"p.	c #926E52",
"q.	c #B27D67",
"r.	c #7E7E7E",
"s.	c #C7BAB1",
"t.	c #9A9A9A",
"u.	c #565656",
"v.	c #A28262",
"w.	c #A7A19A",
"x.	c #864E38",
"y.	c #8A8A8A",
"z.	c #8D553D",
"A.	c #A6725E",
"B.	c #BEB2A6",
"C.	c #A66E42",
"D.	c #7A534B",
"E.	c #B67E5A",
"F.	c #A56E54",
"G.	c #A2A2A2",
"H.	c #704535",
"I.	c #51352F",
"J.	c #8D5F45",
"K.	c #8F6C5E",
"L.	c #8E8E8D",
"M.	c #CA8A56",
"N.	c #AFAEAE",
"O.	c #A57654",
"P.	c #CACACA",
"Q.	c #A88A62",
"R.	c #B3826E",
"S.	c #AC6F4B",
"T.	c #867C78",
"U.	c #5A3A32",
"V.	c #9A6646",
"W.	c #D2D2D2",
"X.	c #9B7B6E",
"Y.	c #B2A6A2",
"Z.	c #C6BFBD",
"`.	c #6E564A",
" +	c #BCA89E",
".+	c #BE7E62",
"++	c #9A724E",
"@+	c #B17E5D",
"#+	c #A2765A",
"$+	c #463E3B",
"%+	c #AE876B",
"&+	c #A6928A",
"*+	c #927268",
"=+	c #AA7266",
"-+	c #BABABA",
";+	c #C1BAB6",
">+	c #9E928A",
",+	c #A69A82",
"'+	c #C2C2C1",
")+	c #BBAA88",
"!+	c #AC7E6A",
"~+	c #C48252",
"{+	c #B47246",
"]+	c #93664F",
"^+	c #7E4E42",
"/+	c #B67256",
"(+	c #AA8A6A",
"_+	c #7D4A35",
":+	c #B09B94",
"<+	c #625A58",
"[+	c #C2A992",
"}+	c #A57258",
"|+	c #B6ABA5",
"1+	c #B37651",
"2+	c #BB8D6A",
"3+	c #896959",
"4+	c #86564E",
"5+	c #B4825F",
"6+	c #BB9C7B",
"7+	c #C07D50",
"8+	c #936147",
"9+	c #B1A29B",
"0+	c #A2623E",
"a+	c #623A32",
"b+	c #AA846F",
"c+	c #AA8261",
"d+	c #966B5E",
"e+	c #C8B6A8",
"f+	c #936A4F",
"g+	c #7F4E39",
"h+	c #865A4E",
"i+	c #A57664",
"j+	c #BE8E62",
"k+	c #776C66",
"l+	c #AA987A",
"m+	c #A69890",
"n+	c #9A8A72",
"o+	c #BA7E5A",
"p+	c #B18975",
"q+	c #CEC6C2",
"r+	c #A46E4C",
"s+	c #B47A52",
"t+	c #A38981",
"u+	c #5E524E",
"v+	c #AEA6A2",
"w+	c #B69E94",
"x+	c #B68A66",
"y+	c #BCA89A",
"z+	c #7E766E",
"A+	c #827A72",
"B+	c #C0B5B0",
"C+	c #9A6654",
"D+	c #8A827E",
"E+	c #A29286",
"F+	c #957B71",
"G+	c #AA7E72",
"                                                                                                ",
"                                      &.* N.U o G.=.t.G +                                       ",
"                                '+8 -+&.* N.U o G.=.t.G + L.y.M                                 ",
"                          d P.% '+8 -+&.* N.U o G.=.t.G + L.y.M [ r.                            ",
"                        d P.% '+8 8 -+&.* N.U o G.=.t.G + L.y.M [ r.L F                         ",
"                    N W.d d P.'+'+-+&.* N.U o o G.=.t.G + L.y.M [ r.L F h.B                     ",
"                  N N d P.% % '+8 -+&.&.N.N.o G.=.=.t.G + L.y.M [ r.L F h.B {                   ",
"                N W.W.d d P.% 8 -+&.&.N.N.|+v+o w.t.G + L.y.y.M r.r.L F h.B { 9.                ",
"              N N W.d P.% '+'+8 s.B.H #.T i.y+Y.y :+w.0.>+y.M M r.L F F B { { 9.a               ",
"            N N W.d d P.% ;.s.e+H H o.o.o.o.)+T v ~ y l+0.E+y.[ r.r.L h.h.B 9.a 4.4.            ",
"          N N d d P.% ;.Z.e+g g 6.o.o.T T )+)+o.)+v ~ u I 0 &+).D+L F h.B { { 9.4., ,           ",
"          W.d d P.q+;.s.g g g [+[+9 9 t 9 9 9 9 )+)+y 0 %+(+l+,+n+T.F B { { 9.a 4., u.          ",
"        d d d P.;.;.g e+6.[+[+t n.6+^.u < 6+6+6+6+9 6+x+c+c+(+,+,+n+T.h.B 9.a a 4., u.C         ",
"      d P.P.% ;.s.g g [+ +t n.}.,.p+p+K l.K > > > < > h +.] c+/ ,+I W A+{ 9.9.4.4.u.u.C         ",
"      P.P.% Z.e+#.#. +t w+,.,.p+p+Z G+b+%+%+:.K P > K +.S.}+] Q.l+Q.v.= z+9.a 4., u.C C k.      ",
"      % '+Z.B+#.#.t t d.,.l. .Z G+].G+!+c+J h :.j+P P s+F.S.X J K Q.<.` p k+a , , u.C k.f       ",
"    '+'+8 ;+#.Y.9+:+d.l.t+ .g.G+j.b b ].!+@+@+h :.:.:.5+3 e.S.}+J ] ] ) n+s a 4.u.u.k.k.f :     ",
"    8 8 8 B+|+9+:+&+b.t+t+g.g.G+b A.b q.@+J J +.+.O.S.3 X e.0+C.}+C.}+] Q.D+k+, , C C f : :     ",
"    -+&.-+&.|+:+&+b.5 g.g.j.j.G+].b b q.q.@+J ] _.]+1.e V V V e.r+C.i ] I = ! <+u.k.k.f : 8.    ",
"  &.&.&.* * |+m+b.5 w w X.j.j.j.!+b =++.q.!+!+].i+q 1.4+^+^+z.e.e.e.%.6 Q.) F+a C C k.f : 8.    ",
"  * * * N.N.N.:+).w w n n i+'.i+b b =+}+].J Z f.f.R.=+c.^+_+V %.%.%.e.O.v.6 z k+C k.f : 8.8.;   ",
"  N.N.N.N.|+U U d.w F+n n q q Q _.Q C+C+Q A.!+h !+q.].A.Q r+=+S.r+' C.O.i 1 p.m.u.f f : 8.; _   ",
"  U U U U U o o :+b.p *+*+*+d+Y Y 1.3.J.Y F.F.=+Q e.Q }+K >.f.S.F.X 3 e.c.1 z ! *.f : : ; ; _   ",
"  o o o o o G.G.G.9+t+n K.d+3.3.3.4+4+1.A.+.3 X {+%.c.z.Q 2+a.X 3 @+C.l c.i 6 p.4.f 8.; ; _ c   ",
"  G.G.G.=.G.G.=.=.=.:+b.n K.R {.D.D.4+Q /+1+5.s+7+{+' @.x.C+< a.E.X ' 0+i 6 ++3+*.: 8.; _ _ c   ",
"  =.=.=.=.=.t.t.t.G G 0.l.n 3+{.D.^+1.X X C.{+7+~+7+j e.z.| :.>.} {+X O.c+] & 3+*.8.; ; _ c |.  ",
"  t.t.t.t.t.t.G G G G G 0.b.w 3+R {.F.X 0+0+/.j 7+X +.o+%.| _.a.} +.5+(+c+i & ~.S 8._ _ c c |.  ",
"  t.G G G G + + G + L.L.y.y.).t+X.z F./.V | @./+.+F.Q } @+}+3 a.j+5+5+J i 1 ]+3+7._ _ c |.r r   ",
"  + + + + + + L.L.L.L.L.y.r.L h.F+j.Q c.# A _+X X +.i+1+} P } 7+} s+3 C.i 6 6 x !.c |.|.|.r     ",
"    + L.L.L.L.L.y.y.M [ F B 9.a B F+Q z.# U.2.F.z.H.( 0+M.a.} 5.{+3 C.%.E v.z ~.: |.|.|.r r     ",
"    y.y.y.y.M y.M M M r.{ 4., u.(.F+r+| 2.@ I.{.f+| e D >.P /.5.@+3 C.O.<.p.f+$ $+r r r 2 2     ",
"    M M M M M [ M [ r.L B 4., u.<+F++._+a+U.I.I.{._.s+:.X 0+@.l C.r+i i i & m.S c r 2 2 2 .     ",
"      [ [ [ [ r.[ r.r.L F 9., u.C s c+( 2.U.I.I.U.m D.( # @.0+@.c.l 8+e J.p.~.8.r r 2 2 .       ",
"      r.r.r.r.r.L r.L L F B { 4.u.(.X.Y H.I.I.I.I.@ @ a+A # c.1 c.c.c.8+f+m.S |.r 2 2 . .       ",
"        L L L L F F F h.F h.B { a 4.s b+{.U.U.I.I.@ @ # # # | c.c.8+1 f+3+S ..2 2 . . .         ",
"        F F F F F h.h.h.B B { { { a k+` '.m 2.U.U.- a+- ( _+g+z.e J.J.]+x $+r 2 . . . .         ",
"          h.h.B h.B B B { B { 9.{ 9.9.k+F+++{.H.2.H.H.# [.| | z.e J.~.`.$.|.2 2 2 . .           ",
"          B B B { { { { { 9.9.9.a a 4., (.F+++J.g+[.g+_+_+g+| J.& ~.S _ r 2 2 . . .             ",
"            { { { { 9.9.9.a a a 4.4.4.u.!.u+R z & c.J.J.e J.J.3+~.!.|.2 2 . . . . .             ",
"              9.9.a 9.a 4.a 4., , , , u.C f f 7.~.m.3+3+3+x O 7 $+|.r r 2 2 2 . .               ",
"                a 4.4.4.4., 4., , u.u.C C k.: 8.8.: $.$.$.$+_ |.r r r r r 2 . .                 ",
"                  4., , u., u.u.C C C C k.f f f : 8.8.; ; ; ^ ^ c |.r r 2 2 .                   ",
"                    , , u.C C C C k.k.f k.f : : 8.8.8._ _ c c |.|.|.2 2 .                       ",
"                        C C C k.k.f f f : : : 8.8.; _ _ _ c |.|.|.r 2 2                         ",
"                            k.f f : : : 8.8.8.; _ _ _ c c |.r r 2 2                             ",
"                                : 8.: ; ; ; _ _ _ _ c |.|.r r 2                                 ",
"                                        _ ; _ _ c |.|.|.                                        ",
"                                                                                                "};
