/* XPM */
static char * rndnapster_xpm[] = {
"48 48 129 2",
"  	c None",
". 	c #050504",
"+ 	c #22797A",
"@ 	c #263A4C",
"# 	c #1FA4A4",
"$ 	c #205654",
"% 	c #607098",
"& 	c #7C8AB3",
"* 	c #3C3C40",
"= 	c #6E80B2",
"- 	c #4A5679",
"; 	c #5C5C5E",
"> 	c #3C4A6B",
", 	c #8C8C8E",
"' 	c #4C638A",
") 	c #94A2CA",
"! 	c #5F70A9",
"~ 	c #202121",
"{ 	c #7D7F82",
"] 	c #3D4C7B",
"^ 	c #1E2E2C",
"/ 	c #224C4C",
"( 	c #46588E",
"_ 	c #BEBFBF",
": 	c #8597C9",
"< 	c #98989A",
"[ 	c #228E8C",
"} 	c #707072",
"| 	c #ABB3C8",
"1 	c #68686B",
"2 	c #2F3031",
"3 	c #758BCC",
"4 	c #3D424D",
"5 	c #8C98C0",
"6 	c #344167",
"7 	c #6781CD",
"8 	c #494C7A",
"9 	c #596EA6",
"0 	c #4F5A8B",
"a 	c #A4A4A6",
"b 	c #34363D",
"c 	c #4C4C4F",
"d 	c #7882AC",
"e 	c #3B466E",
"f 	c #5368A8",
"g 	c #6677A9",
"h 	c #415287",
"i 	c #1FB0AF",
"j 	c #5D688F",
"k 	c #8191C1",
"l 	c #234644",
"m 	c #919EC7",
"n 	c #68789C",
"o 	c #77787B",
"p 	c #6E80C4",
"q 	c #55575B",
"r 	c #475E9C",
"s 	c #367E7C",
"t 	c #323B4D",
"u 	c #424E8E",
"v 	c #6B7AAC",
"w 	c #9EAACB",
"x 	c #444446",
"y 	c #2FA9AA",
"z 	c #68718E",
"A 	c #5B6283",
"B 	c #3C5A58",
"C 	c #141414",
"D 	c #219C9C",
"E 	c #CDCDCC",
"F 	c #166264",
"G 	c #3A6664",
"H 	c #344B86",
"I 	c #1A8384",
"J 	c #1B2827",
"K 	c #A4ACC8",
"L 	c #3E5894",
"M 	c #B4B4B4",
"N 	c #0C0C0C",
"O 	c #2D4F4E",
"P 	c #848485",
"Q 	c #329E9C",
"R 	c #54638E",
"S 	c #36425C",
"T 	c #8592B1",
"U 	c #5A76C4",
"V 	c #253231",
"W 	c #246868",
"X 	c #282828",
"Y 	c #565E6C",
"Z 	c #2AAEAC",
"` 	c #368A8C",
" .	c #7E8694",
"..	c #354673",
"+.	c #46527E",
"@.	c #505258",
"#.	c #7A86B3",
"$.	c #B8BAC2",
"%.	c #C6C6C4",
"&.	c #1C7E7C",
"*.	c #1FAAAC",
"=.	c #318684",
"-.	c #6A6A84",
";.	c #7286BC",
">.	c #616266",
",.	c #9D9EA0",
"'.	c #7A92D4",
").	c #6F7294",
"!.	c #919295",
"~.	c #6A86D0",
"{.	c #515E89",
"].	c #838DAB",
"^.	c #9BA5C5",
"/.	c #ACACAC",
"(.	c #303247",
"_.	c #5771BD",
":.	c #6179C2",
"<.	c #737898",
"[.	c #365294",
"}.	c #566A8C",
"|.	c #163634",
"1.	c #265254",
"2.	c #1A1A1C",
"3.	c #D2D2D4",
"4.	c #248684",
"5.	c #6F86CD",
"6.	c #525A71",
"7.	c #444C62",
"8.	c #939AB7",
"                                                                                                ",
"                                      o < /./.a a ,.< o ;                                       ",
"                                /.$.M M /.a a ,.< < < , , , P }                                 ",
"                          P _ _ $.M /.a a ,.< < !., , , P P P { { o                             ",
"                        E E _ M M /./.,.,.< !.!., P , P P { { o o o o 1                         ",
"                    a E %._ M M /.a ,.< < , !., ,  .{ o o o o o o } } } } x                     ",
"                  %.3.%._ M /.a a < < < 8.8.T T T ].]. .{ o } } } } 1 1 1 1 @.                  ",
"                3.E %.$.M M a a ,.w ^.) m 5 5 T T ].& & #.d <.} 1 1 1 1 1 >.1 ;                 ",
"              3.E %._ M /.a a ^.^.) m 5 5 : k k & & #.#.d d = <.z 1 >.; >.; ; ; q               ",
"            %.E %.$.M /.a a ^.w ) m 5 : ].d <.).z z n v = = v n <.n 1 ; ; ; ; ; ; x             ",
"          a E %._ M a a ^.K ^.) m : T o 1 1 >.>.; ; ; ; ; % n g g n z 1 ; ; q q ; q 2           ",
"          E %.$._ /.a a K ^.) m T d } 1 z 1 -.% 1 j A Y q @.6.j % ! % j ; @.; Y q @.@.          ",
"        %.%._ M $.| ^.^.^.) m k o 1 n = = p p 7 p 7 g U % A @.c A ! % 9 }.Y A A q c c x         ",
"      P %.$.M K | | w w ) m T n ).p ;.5.~.7 7 7 :.:.:.U U _.! {.c {.9 j j j j Y @.c c x         ",
"      _ _ M /.a K w ) ) : : = #.3 3 5.7 7 7 U U _._._.:.U _._._.9 r }.f f R R A q c c x *       ",
"      _ M /.a ^.w w ) m : : k 3 3 5.7 7 f 0 8 7.> 8 8 r f _._._.9 9 f 9 R R {.{.c x x c x       ",
"    /.M /.a ,.< ^.) m : '.'.'.5.~.~.' 7.* * b b 2 b 2 b 4 ] f _.f f f f f R {.{.@.x x x x 2     ",
"    $.M /.a < 5 ) m : #.p 3 ~.~.! c 4 * * 2 2 2 2 X 2 2 X 2 (.u f f f 0 - ' r {.+.x * x * *     ",
"    M a a < 8.) m : : = 1 z :.j 7.* * 2 2 X X X X X ~ X X X X 2 ] r ( b x 0 {.r 6.+.4 * * *     ",
"  { /.a < ,.) m 5 : '.z ; q @.x * * 2 2 X X ~ ~ ~ ~ ~ ~ ~ X X X 2 t (.b 6 0 r ( 6.+.7.* * *     ",
"  !./.a < ,.m m : k '.% q @.c x * b 2 X X ~ 2.2.2.~ 2.~ ~ ~ X X X 2 2 2 * 0 r ( - +.7.4 * b ~   ",
"  a ,.< !.5 8.: k k 3 % @.c x * b 2 X X ~ 2.C C C C C 2.2.~ ~ X X X X (.* ( r ( - +.+.* b * X   ",
"  a ,.< !.8.5 T k 3 3 j @.c x * b 2 X ~ 2.C C N N C N C 2.2.~ ~ X X X 2 b ( ( ( +.+.7.4 b * X   ",
"  a < !., 5 T k & 3 #.}.c x * b 2 X ~ 2.C C N N . . C N C 2.2.~ ~ X X 2 t u ( L - ] 7.4 2 2 X   ",
"  ,.!., , T T k & ;.;.R c x * b 2 X ~ ~ C N N . . . N N C 2.2.~ ~ X X X b ( ( h h h > 4 b 2 X   ",
"  < !., P ].].& ;.;.= R c x * b 2 X ~ 2.2.N . . . . N C N 2.2.~ ~ ~ X X t u ( ( h > e * 2 2 X   ",
"  , , P P  .& & ;.p p R x x * 2 X X ~ 2.C C N . . . N C C C 2.~ ~ X X X (.u L h h > S 2 2 2 ~   ",
"  o , P { o  .#.d = = {.c * * b 2 X ~ ~ C C N N N N N C C 2.2.2.~ ~ X X t u h h ] ] b 2 2 X 2.  ",
"  ; , P o o <.d = = :.{.x x x * b b ^ ^ J ~ C C C N 2.~ J J X X X X X X (.u h u > 6 2 2 2 X     ",
"    P { o } 1 z = v = Y c * G ` =.4.4.4.I &.|.C C J F &.&.&.&.+ + W (.X b u [.] S 2 X X X 2     ",
"    P { o } } >.= n v j x x B y y Z Z i i i &.J C $ *.i *.# # D D + V X t h ] e (.2 2 X X ~     ",
"    1 o o } 1 1 z v g % c x x ` y y y Z i i # / J D *.*.# # D D [ 1.X X 6 [.] e (.X X X X 2.    ",
"      o o } 1 >.j g ! 9 @.4 * 7.s Q y y # i *.F / *.# # # # D &.1.X X X H u H 6 X X 2 X X       ",
"      } } 1 1 >.1 % g ! 6.x x * * O O O O / / @ |.l l / l l l @ X X X @ ] ] e b X X X X 2.      ",
"        } } 1 ; >.j % ! j 7.4 * b b 2 2 X 2 X J X J J J ~ ~ ~ X X X X u H ..6 (.X X X ~         ",
"        1 1 1 >.; >.% % }.R x 4 * b 2 2 t H [.[.[.[.H @ X X X ~ X X 6 H ....t X X ~ ~ 2.        ",
"          1 1 >.; q j j j }.- * * * 2 2 2 t [.r L L 6 X X X X X X @ ..] ..6 X X X X X           ",
"          x >.; ; q q j }.R R - * b * b (.(.(.6 H (.X 2 X X X X 6 ..H 6 6 (.X ~ X ~             ",
"            @.; ; q @.q R j R R 0 4 b b x r u ..H H u H X X (.6 H e e 6 @ X X ~ ~ C             ",
"              q ; @.q @.q {.{.{.{.- 7.* ] u L L L h u ] (.t 6 ..e ..6 (.X X ~ X 2.              ",
"                @.q c c c @.0 {.{.0 0 ( +.e e e ..6 6 e e H ] ..6 6 @ X ~ X ~ ~                 ",
"                  x q @.c c c - - - - +.( +.h 8 u u ] ] ] e 6 6 t (.X X X ~ C                   ",
"                    2 c c x x x 7.7.+.7.+.+.h ] ] > e ..6 6 6 (.X X ~ ~ ~                       ",
"                        * c x x * 4 x 7.7.> > 7.e e ..* 6 b 2 X X ~ X ~                         ",
"                            * x x * * * * b b b (.2 (.2 X X X X X 2.                            ",
"                                X * * b b b b 2 2 2 2 X 2 X X 2.                                ",
"                                        ~ X 2 X X X ~ 2.                                        ",
"                                                                                                "};
