/* XPM */
static char * rndoberon_xpm[] = {
"48 48 256 2",
"  	c None",
". 	c #161614",
"+ 	c #777674",
"@ 	c #A6A6A4",
"# 	c #464644",
"$ 	c #958E84",
"% 	c #5E5E5C",
"& 	c #C2BEB4",
"* 	c #927661",
"= 	c #BEA68C",
"- 	c #AA8E74",
"; 	c #7A6250",
"> 	c #5E463C",
", 	c #302E2C",
"' 	c #82827C",
") 	c #6A6A68",
"! 	c #9A9A9C",
"~ 	c #BEB2A3",
"{ 	c #473A34",
"] 	c #B2B2AC",
"^ 	c #AD9A84",
"/ 	c #CACAC4",
"( 	c #96826C",
"_ 	c #7A6E64",
": 	c #5E524A",
"< 	c #CAB296",
"[ 	c #B69A84",
"} 	c #545254",
"| 	c #867664",
"1 	c #B2A694",
"2 	c #A18E7C",
"3 	c #6E5E51",
"4 	c #CABEAC",
"5 	c #9E826C",
"6 	c #3A3A3C",
"7 	c #6A5244",
"8 	c #54463C",
"9 	c #C2BAAC",
"0 	c #866E5C",
"a 	c #B2A28B",
"b 	c #B2AEA7",
"c 	c #222224",
"d 	c #3A2E2C",
"e 	c #897E74",
"f 	c #72726C",
"g 	c #52423A",
"h 	c #CCC6BA",
"i 	c #8D8A86",
"j 	c #948A80",
"k 	c #605A56",
"l 	c #A0968A",
"m 	c #6F665C",
"n 	c #A4A29F",
"o 	c #989694",
"p 	c #876A54",
"q 	c #746A61",
"r 	c #BEB2AC",
"s 	c #AC9A8C",
"t 	c #87766C",
"u 	c #B3A69C",
"v 	c #696664",
"w 	c #957E6B",
"x 	c #BEAE9B",
"y 	c #A49A8F",
"z 	c #49423B",
"A 	c #534E4C",
"B 	c #2E2624",
"C 	c #807E7C",
"D 	c #948E8C",
"E 	c #7C6A5C",
"F 	c #8C827A",
"G 	c #D2D2D1",
"H 	c #938274",
"I 	c #B8A28A",
"J 	c #765E4C",
"K 	c #695E5A",
"L 	c #C6C6C4",
"M 	c #BABAB4",
"N 	c #7B726D",
"O 	c #665245",
"P 	c #CCBAA2",
"Q 	c #9E8E84",
"R 	c #A08A77",
"S 	c #8E6E5C",
"T 	c #81766C",
"U 	c #AEAEAC",
"V 	c #4E4E4C",
"W 	c #C0BEBC",
"X 	c #C6B29B",
"Y 	c #BAB2AA",
"Z 	c #D2CAC0",
"` 	c #CABEB4",
" .	c #5A463C",
"..	c #3D3633",
"+.	c #AEA69F",
"@.	c #4E4642",
"#.	c #AC9680",
"$.	c #604E41",
"%.	c #363634",
"&.	c #5A5A59",
"*.	c #706256",
"=.	c #6D5A4C",
"-.	c #887260",
";.	c #746E69",
">.	c #A59E98",
",.	c #826654",
"'.	c #362E2C",
").	c #826E5F",
"!.	c #61564D",
"~.	c #424244",
"{.	c #C0BAB5",
"].	c #2A2A2A",
"^.	c #D2C6B9",
"/.	c #B29E8C",
"(.	c #8E7A6C",
"_.	c #BAAA9C",
":.	c #9A7E68",
"<.	c #8D867E",
"[.	c #9A8274",
"}.	c #BFAA97",
"|.	c #7C6657",
"1.	c #4E3E34",
"2.	c #B29A83",
"3.	c #CECECC",
"4.	c #CEB699",
"5.	c #5A524E",
"6.	c #8E7661",
"7.	c #BAA692",
"8.	c #423A34",
"9.	c #1E1E1C",
"0.	c #ACA297",
"a.	c #1E1A1C",
"b.	c #9A8E82",
"c.	c #A68E7A",
"d.	c #D2BEAC",
"e.	c #2A2624",
"f.	c #9A928C",
"g.	c #A69284",
"h.	c #C6BEBC",
"i.	c #D2C2B4",
"j.	c #AAAAAC",
"k.	c #626264",
"l.	c #937A65",
"m.	c #B6B6B4",
"n.	c #B89E86",
"o.	c #544A43",
"p.	c #68625E",
"q.	c #BAAEA0",
"r.	c #9A8A7A",
"s.	c #665A51",
"t.	c #A69684",
"u.	c #C6AE96",
"v.	c #4E4238",
"w.	c #BEA287",
"x.	c #A68A71",
"y.	c #C6B6A1",
"z.	c #BAB6B1",
"A.	c #D2CECC",
"B.	c #AEAAA7",
"C.	c #4E4A49",
"D.	c #1A1A1A",
"E.	c #7A7A79",
"F.	c #4A4A4C",
"G.	c #AC927C",
"H.	c #614A3F",
"I.	c #323232",
"J.	c #868684",
"K.	c #6E6E6C",
"L.	c #9E9E9C",
"M.	c #C2B6A4",
"N.	c #493E36",
"O.	c #9A866C",
"P.	c #7E7264",
"Q.	c #A1866E",
"R.	c #3E3E3C",
"S.	c #6C5649",
"T.	c #262624",
"U.	c #3B322D",
"V.	c #C0B6AD",
"W.	c #AD9E8E",
"X.	c #887A6F",
"Y.	c #B5AA9E",
"Z.	c #2F2A29",
"`.	c #93928F",
" +	c #94867C",
".+	c #A09286",
"++	c #817A72",
"@+	c #C2C2C4",
"#+	c #CBC2B8",
"$+	c #AE9E84",
"%+	c #565654",
"&+	c #8E7E70",
"*+	c #76665B",
"=+	c #826A57",
"-+	c #42362F",
";+	c #B2967C",
">+	c #C6BAB4",
",+	c #B2A294",
"'+	c #766253",
")+	c #66564C",
"!+	c #5A4A3F",
"~+	c #363230",
"{+	c #827264",
"]+	c #9A8678",
"^+	c #B29E84",
"/+	c #5A5654",
"(+	c #8E7A64",
"_+	c #BAAA94",
":+	c #423E3C",
"<+	c #9A9284",
"[+	c #A6927C",
"}+	c #C6C2BD",
"|+	c #5A4E4C",
"1+	c #725A4C",
"2+	c #8E725C",
"3+	c #D2C2AC",
"4+	c #B2B2B4",
"5+	c #CBCACC",
"6+	c #866E64",
"7+	c #CCC6C4",
"8+	c #9E9694",
"9+	c #937E74",
"0+	c #BEAEA4",
"a+	c #464244",
"b+	c #B6A294",
"c+	c #CABAAC",
"d+	c #CAB6A4",
"e+	c #524A4C",
"f+	c #AAA6A3",
"g+	c #4A4645",
"h+	c #625E5A",
"i+	c #C6BEB2",
"j+	c #C2A689",
"k+	c #7E624C",
"l+	c #86827D",
"m+	c #6E6A67",
"n+	c #9E9A96",
"o+	c #C2B2A0",
"p+	c #B6B2AB",
"q+	c #CECAC3",
"r+	c #9A8269",
"s+	c #7E6E63",
"t+	c #625247",
"u+	c #CEB294",
"v+	c #BA9A7C",
"w+	c #8A7662",
"x+	c #B6A693",
"y+	c #725E50",
"z+	c #CEBEA4",
"A+	c #3E3A39",
"B+	c #C6BAAA",
"C+	c #8A6E5A",
"D+	c #B6AEA7",
"E+	c #262224",
"F+	c #767270",
"G+	c #564239",
"                                                                                                ",
"                                      F+i L.L.n+o `.i + /+                                      ",
"                                n M m.p+p+B.f+n >.n+8+o D i l+m+                                ",
"                          C W @+@+{.z.m.4+b @ f+>.L.o D D i J.E.F+)                             ",
"                        @+5+L W W {.z.p+D+Y.+.0.n+y o D i  +<.l+E.E.f k.                        ",
"                    n G 5+L #+}+{.{.Y q.B.+.f+0.>.8+.+b.D i F e ++N F+) k.%.                    ",
"                  @+A.A.q+L }+h.V.{.Y D+Y.u +.0.W.8+l .+r.D <.F ++N ;.m+v k.V                   ",
"                3.A.3.q+L #+h.& V.Y r _.Y.q.u Y.u W.Q Q b.j F T ++N ;.m+v h+%+#                 ",
"              3.G A.q+7+#+7+q+i+V.Y q.0+u 1 x+Y.x+/..+.+]+ +X.t T s+q v p.h+k &.F.              ",
"            }+G A.q+7+Z 7+h h {.~ ~ q.Y.u ,+W.,+W.W.W.s ]+H (.T T s+*+m h+h+&.} V %.            ",
"          ! 3.3.q+#+7+h i+#+i+9 V.o+q._+x+W.W.W.s s W.t.R Q ( 9+{+s+q *.K k /+} } } ].          ",
"          3.A.A.7+h.#+>+>+V.y.y.V.9 o+u 1 ,+/./.$+#.s t.2 Q 9+-.X.E '+K K !.} A V F.R.          ",
"        {.3.3.q+}+>+{.>+` i+>+` #+^.` o+_.x+a s ^ s ,+s ]+H H -.).s+*+K s.!.V C.g+V F.6         ",
"      l+L L h L i+& 4 i+B+#+3+^.Z h #+#+y.x+^ #.2 t.2.^ ]+9+-.-.s+|.|.3 !.5.@.A # # a+A+        ",
"      m.7+}+h.& 9 V.V.M.~ M.B+^.#+#+^.z+x+_+/.^ #.$+a #.w w -.6+{+*+*.y+S.!.e+C.a+~.# ~...      ",
"      W @+@+& V.V.~ x _._.q.~ B+M.B+y.x b+n.I 2.c./.c.Q.w l.6+6.E |.'+y+*.t+A z a+~.R.R.I.      ",
"    L.W W {.{.V.V.0+_._+7._+~ ~ x 7.b+I ^ [+#.[+;+2.g.:.l.:.-.2+6+|.=.=.t+t+o.@.N.:+R.~.R.T.    ",
"    m.{.{.i+9 V.~ q._.x+,+7.x 7.= 7./.[ #.- 2.- I 2.[+[.6.6.* -.6+|.O $.!+!+8 8 a+A+A+6 6 ].    ",
"    4+{.z.V.V.~ q.x _.x+,+x y.x+$+n.^+n.^ c.Q.R G.;+R :.-.:.:.l.|.y+=.)+|+o.8 z a+6 ..%.A+6     ",
"  E.4+p+p+p+Y ~ 0+Y.}.x 7.7.o+x+#./.s 2.;+G.x.c.G.2.w :.l.c.:.6.|.1+S.y+=. .@.z A+..%.%.%.,     ",
"  J.U p+p+p+Y q.x+1 7.~ ~ x _.,+^+n.^+7./.#.;+;+[ 5 l.Q.:.l.l.l.0 '+7 O H.g v.N.:+%.%.%.%.%.c   ",
"  @ B.B.D+D+q.Y.u W.0.x+x ~ y.P x X }.u.I n.w.n.v+I G.x.:.l.* * 6.; S.H.o.8 v.N.A+~+, I.I., 9.  ",
"  o B.+.Y.Y.Y.u 7.x+x+_+x x y.d+o+z+X X u.X u.u.w.j+n.;+Q.* 2+* l.|.1+$.G+g N.-+..~+, I.I.I.].  ",
"  L.n f+j.f+0.,+,+b+,+x o+y.c+W.W.3+B+y.P P P u+u+j+n.v+- l.p p 0 ,.S.O 8 { -+..~+, , , I., 9.  ",
"  `.n 0.n W.>.W.W.W.W.7.0+o+y.#+^.3+y.y.z+P P 4.4.= n.w.Q.S C+C+w+'+H.O G+N.U.-+U., ]., , , T.  ",
"  o L.>.W.n s y s #.t.x+_.q.4 ^.i.d+X y.P P u.< P u+w.- 2+p k+k+k+J 7 $.g 1.-+..~+Z.Z.].].].a.  ",
"  J.! L.y >.y .+Q t.0.7._.x y.o+q.x o+P < < w.n.u.= v+[ ;+l.* ,.,.J 7  .G+g N..., , Z.]., , c   ",
"  + `.8+l y t..+y t.a q.x+W./.^ n.I }.X X x * * 2.I #.n.;+x.Q.2+; J O $.|+1.-+'.B ]., ].].c .   ",
"  } D `.`.l l W.s t.t.}.,+^ #.[+^ ^+= x+}.= Q.:.5 ;+G.G.Q.x.* ; y+S.O H.8 { U.'.e.e.].T.].].    ",
"    i `.$ $ y j Q  +.+b.R R [+^ x+_+^+^+^+2.* x.2.= ;+x.l.* =+1+S.H.g g 1.-+'.Z.Z.Z.T.].].D.    ",
"    C j <.j .+<.H Q [+F r.2 [+[+^+^ #.^ ^ ;+[+u.u.^+G.x.w 0 ; S.$.G+g N.N.U., , ].].T.T.T.c     ",
"    m+C <.F F X.e r..+Q.2 [+t.2 2 2 [+G.2.I u._+a ;+x.:.S C+; S.$. .G+{ { d Z.Z.e.E+T.T.9..     ",
"      E.l+<.e e $ y .+.+[+2 r.w w ( [+R #.#.I ^+t.- (+-.0 ,.1+7 H. .8 1.{ '.~+].T.T.T.T.T.      ",
"      f C F F  +<+t. +r.H  +w (+(+(+- w r+[+[+#.[+w p 0 ; S.7 > !+8 1.-+U.'.B e.c E+E+9..       ",
"        + C l+l+<.$  + +( F H {+).w ( (+l.(+O.2 O.( 0 =+J 7  .G+g N.U.d Z.Z.E+T.c T.c c         ",
"        ) + ++++X.F  +H &+(+w+(+(+(+w+-.6.6.O.R ( -.0 J O $.H.g g -+-+U.'.Z.T.T.T.c 9..         ",
"          ;.N + P._ T X.| t -.-.t | -.).-.).-.( ( ).=+=.)+t+ .g g -+d Z.Z.e.E+c c E+c           ",
"          # f N F+;.T {+X.{+T {+w+).=+s+E =+{+(+(+( -.S.$.8 8 1.{ -+U.d Z.E+c c T..             ",
"            A m+;.;.N _ _ s+s+{+t s+E *+J '+'+-.(+(+*.$.G+g g { -+U.'.Z.E+T.T.c c .             ",
"              k v m+m+q q _ P.P.E |.*+'+3 3 3 *.*.'+y+O  .1.{ -+U.U.~+].T.E+c 9..               ",
"                5.v p.m q m m *+*.3 s.'+*+'+y+=.=.S.)+$.v.N.{ U.U.~+B E+c c c D.                ",
"                  C.h+% K K p.K s.!.!.m *+q 3 !.!.$.8 g N.-+U.U.'., T.c c 9..                   ",
"                    './+k !.k !.!.!.!.s.t+!.t+: |+8 N.8.-+..U.~+~+e.T.T.c                       ",
"                        g+/+} 5.5.!.: A : $.o.8 @.z 8.A+...., Z.T.T.c .                         ",
"                            z V C.o.o.o.C.g+g+N.A+8...~+, Z.].e.c D.                            ",
"                                A+~.z ~.:+:+A+A+..%.I., , ].c .                                 ",
"                                        '.~+, , Z.e.T.9.                                        ",
"                                                                                                "};
