/* XPM */
static char * rndopera_xpm[] = {
"48 48 256 2",
"  	c None",
". 	c #262626",
"+ 	c #AA924E",
"@ 	c #AD2222",
"# 	c #4A4A4A",
"$ 	c #B28272",
"% 	c #5E5E5E",
"& 	c #A62222",
"* 	c #BEBEBE",
"= 	c #B25E52",
"- 	c #9C2727",
"; 	c #807454",
"> 	c #AA4E42",
", 	c #B6A262",
"' 	c #A04E3A",
") 	c #DA2222",
"! 	c #96322A",
"~ 	c #767262",
"{ 	c #8F835D",
"] 	c #323232",
"^ 	c #94503C",
"/ 	c #A16149",
"( 	c #AA4234",
"_ 	c #DE3A3A",
": 	c #B2A276",
"< 	c #BDAD7F",
"[ 	c #9C9276",
"} 	c #CC2121",
"| 	c #3E3E3E",
"1 	c #86583E",
"2 	c #BE966A",
"3 	c #8E6246",
"4 	c #CECECE",
"5 	c #888276",
"6 	c #AA3634",
"7 	c #C04F47",
"8 	c #8B7E5E",
"9 	c #9B947E",
"0 	c #4E4E4E",
"a 	c #B6B6B6",
"b 	c #6A6A6A",
"c 	c #9C8748",
"d 	c #86463A",
"e 	c #B62222",
"f 	c #E13232",
"g 	c #C67646",
"h 	c #C25E3A",
"i 	c #92827E",
"j 	c #82765E",
"k 	c #AB9587",
"l 	c #7E5F4D",
"m 	c #7C7666",
"n 	c #525252",
"o 	c #8E8A76",
"p 	c #CB5146",
"q 	c #CCA688",
"r 	c #A44036",
"s 	c #CA8A52",
"t 	c #B2AA8A",
"u 	c #CACACA",
"v 	c #CA3E36",
"w 	c #BE7256",
"x 	c #A29A82",
"y 	c #9C4436",
"z 	c #AEA27E",
"A 	c #CB3632",
"B 	c #524642",
"C 	c #B62626",
"D 	c #7A6246",
"E 	c #DF2E2E",
"F 	c #C3AF9D",
"G 	c #3A3A3A",
"H 	c #95824C",
"I 	c #424242",
"J 	c #D47658",
"K 	c #CB6E5D",
"L 	c #857E68",
"M 	c #695649",
"N 	c #A28B66",
"O 	c #D2523A",
"P 	c #A63A30",
"Q 	c #C13232",
"R 	c #B2B2B2",
"S 	c #676665",
"T 	c #565656",
"U 	c #C2C2C2",
"V 	c #6E4A3E",
"W 	c #CE6246",
"X 	c #B2A682",
"Y 	c #DA2929",
"Z 	c #999582",
"` 	c #BF2828",
" .	c #9A7652",
"..	c #AA2E2E",
"+.	c #CC2B2B",
"@.	c #9E3E32",
"#.	c #BE9262",
"$.	c #BE765A",
"%.	c #AE423E",
"&.	c #D6D6D6",
"*.	c #BE8C72",
"=.	c #ABA391",
"-.	c #AD9576",
";.	c #92362E",
">.	c #847E6E",
",.	c #DC3E3C",
"'.	c #9A8460",
").	c #A29A86",
"!.	c #2A2A2A",
"~.	c #B67A6E",
"{.	c #DE5647",
"].	c #D27E6E",
"^.	c #AAAAAA",
"/.	c #BA2222",
"(.	c #89754D",
"_.	c #8E8676",
":.	c #948A6B",
"<.	c #E2623A",
"[.	c #A06E52",
"}.	c #A2765E",
"|.	c #766D5E",
"1.	c #C13F38",
"2.	c #363636",
"3.	c #A3A2A1",
"4.	c #923A2E",
"5.	c #B26856",
"6.	c #D27260",
"7.	c #D54C4A",
"8.	c #464646",
"9.	c #DE2020",
"0.	c #686158",
"a.	c #BABABA",
"b.	c #929292",
"c.	c #A48E4C",
"d.	c #B02A2A",
"e.	c #A68E76",
"f.	c #8A8A8A",
"g.	c #C32E2E",
"h.	c #AEAEAE",
"i.	c #D08C6E",
"j.	c #5A5A5A",
"k.	c #624E42",
"l.	c #8A867A",
"m.	c #8B7B4C",
"n.	c #BE9E8C",
"o.	c #2E2E2E",
"p.	c #B03434",
"q.	c #8E8E8E",
"r.	c #9B2F2A",
"s.	c #969695",
"t.	c #CA7E5E",
"u.	c #CEAE56",
"v.	c #726E62",
"w.	c #938A75",
"x.	c #DC4241",
"y.	c #C6C6C6",
"z.	c #A6523A",
"A.	c #626262",
"B.	c #7A7A7A",
"C.	c #A69771",
"D.	c #B82D2C",
"E.	c #8A8268",
"F.	c #A6A6A6",
"G.	c #925A42",
"H.	c #BE2222",
"I.	c #E12828",
"J.	c #96826E",
"K.	c #A22E2A",
"L.	c #9A9A9A",
"M.	c #DA6E5E",
"N.	c #D62626",
"O.	c #D07E4D",
"P.	c #C66646",
"Q.	c #827E72",
"R.	c #A29E8E",
"S.	c #AA9B8A",
"T.	c #B79D51",
"U.	c #E71E1C",
"V.	c #90856A",
"W.	c #9E9266",
"X.	c #876A49",
"Y.	c #AA9252",
"Z.	c #8C4537",
"`.	c #926C4A",
" +	c #D64A36",
".+	c #D62E2E",
"++	c #BE8074",
"@+	c #B43A36",
"#+	c #C62828",
"$+	c #A42626",
"%+	c #CA824E",
"&+	c #D6524B",
"*+	c #847B5E",
"=+	c #D2D2D2",
"-+	c #777675",
";+	c #B73532",
">+	c #524A41",
",+	c #A29A7A",
"'+	c #928E86",
")+	c #B22323",
"!+	c #B0705E",
"~+	c #B84644",
"{+	c #BAAA9A",
"]+	c #737271",
"^+	c #AB8A7A",
"/+	c #AA9E7A",
"(+	c #9A8E6E",
"_+	c #C05E52",
":+	c #968E78",
"<+	c #868685",
"[+	c #92766E",
"}+	c #5E4642",
"|+	c #E62727",
"1+	c #D6665A",
"2+	c #C03736",
"3+	c #CC2626",
"4+	c #B65444",
"5+	c #A29671",
"6+	c #C6826C",
"7+	c #988654",
"8+	c #805A50",
"9+	c #828281",
"0+	c #B49E60",
"a+	c #E72220",
"b+	c #D43232",
"c+	c #B73F3F",
"d+	c #CB564A",
"e+	c #BFA661",
"f+	c #DF4D3B",
"g+	c #AE9A5F",
"h+	c #C3967A",
"i+	c #DA5A52",
"j+	c #AE9E9A",
"k+	c #AE8E8A",
"l+	c #6E6E6D",
"m+	c #9F9E9D",
"n+	c #AF5541",
"o+	c #DF3636",
"p+	c #BE4642",
"q+	c #DC4643",
"r+	c #C52222",
"s+	c #76645A",
"t+	c #CA8E82",
"u+	c #A69666",
"v+	c #D54239",
"w+	c #B22E2E",
"x+	c #D22B2B",
"y+	c #DB4D4A",
"z+	c #DA7E5A",
"A+	c #7E7E7D",
"B+	c #AC2626",
"C+	c #927E4B",
"D+	c #A35741",
"E+	c #827A56",
"F+	c #A52A2A",
"G+	c #D25D53",
"                                                                                                ",
"                                      a R h.^.F.3.m+L.s.b.                                      ",
"                                U * a.a R h.^.F.3.m+L.L.b.q.f.<+                                ",
"                          4 u y.U * a.a R h.^.F.3.m+L.s.b.q.f.f.9+A+                            ",
"                        4 u y.U * * a.R R h.^.F.3.m+L.s.b.q.f.<+9+A+B.-+                        ",
"                    &.=+4 u u U U a.a a h.h.^.F.m+m+L.s.b.q.<+<+9+A+B.-+]+l+                    ",
"                  &.&.4 4 y.y.U * a.a R h.^.F.F.3.L.L.s.b.q.f.<+9+A+B.-+]+l+b                   ",
"                &.&.=+=+u u y.* * a.a R h.^.F.3.m+L.s.b.q.q.<+<+A+B.B.-+]+l+b S                 ",
"              &.=+=+4 4 y.y.U * a.a a h.h.F.j+k h+i.6+6+*.e.i _.9+B.-+]+l+l+b S A.              ",
"            &.&.=+4 4 u u U U * a.a R h.n.6+K p d+K w P._+7 _+!+[+9+B.-+]+b S A.% %             ",
"          &.&.=+4 u u y.U U * a.a a F t+1+7.7.6.^+k S.k ^+w 7 c+4+[.J.]+l+b b S % j.            ",
"          =+4 =+4 u y.y.U * a.a.a F ].i+7.7.J S.L.s.b.q.f.k $.p+c+c+= N l+b S A.% j.T           ",
"        4 4 u u u y.U U * * a.a F ].y+q+q+i+k+L.s.s.b.q.f.<+e.7 1.c+c+z.'.S A.A.% j.T n         ",
"      4 4 u u y.y.U U U * a a R i.y+q+x.,.z+=.L.s.b.q.f.<+<+9+~.2+2+@+@+/ |.S % % j.T n         ",
"      y.u y.y.U U * * a.a.a R q i+q+x.,.x.6+m+L.b.b.q.f.<+9+A+2 2+Q ;+;+%.[.l+% j.T n n 0       ",
"      y.U U U U U * a.a.a R h.M.y+,._ o+y+*.L.s.b.q.q.f.9+9+A+Q.v Q 2+;+6 > s+% j.T n 0 #       ",
"    U U U U * a.a.a.a a R R q y+,.,.o+E f+h+s.b.b.f.f.<+9+9+B.-+p g.g.;+p.@+8+j.j.T n 0 # 8.    ",
"    * * * a.a.a.a.a a R R h.J x.,.o+E E {.{+b.b.q.q.<+<+9+B.B.-+P.` g.D.w+p.D+0.T n 0 # 8.8.    ",
"    a.a a.a a R R R R h.^.{+i+,.o+f |+|+ +R.b.q.f.f.<+9+A+A+B.-+J #+#+g.w+p.( M T n 0 # 8.I     ",
"  a a a R a a R R h.^.^.^.n.i+_ f E |+|+d+b.b.q.f.<+9+A+A+-+-+]+O.3+` C D..... .T 0 0 # 8.I     ",
"  R R R h.h.R h.h.h.^.^.F.t+y+o+f E a+a+d+q.f.f.<+9+9+A+B.-+-+]+O.3+3+` D.d.F+[.n 0 # 8.I I |   ",
"  h.h.h.h.h.^.^.F.F.F.3.3.++q+o+|+|+a+a+7.q.f.<+9+9+A+B.B.-+]+]+%+} ` ` C d.../ 0 # # 8.I | G   ",
"  ^.^.^.F.^.F.F.F.F.3.3.3.++x.f I.|+U.a+G+f.<+<+9+A+A+B.]+]+l+l+s } } ` C d.../ 0 # 8.8.| | G   ",
"  F.F.F.F.3.F.F.m+m+m+< X t.,.b+E a+U.U.<.: <+<+5 A+B.-+]+]+l+b s } r+H.C B+F+z.# # 8.I | G G   ",
"  3.3.3.3.3.X X /+,+,+,+/+++,..+Y a+U.U.h c.c.T.u.g+>.w.l+l+b s+s } r+` C B+F+/ # 8.I I | 2.2.  ",
"  3.m+m+X /+x [ [ W.x s.s.~.v+E Y I.U.U.O -.+ c c c.c.T.{ (+m S O.r+r+/.C B+$+/ 8.8.I | G G 2.  ",
"  L.L.=.Z [ 9 (+[ e.Z b.'+$ v+.+Y N.U.U.7 _.e+T.c H H '.c Y.g+b J r+H.e )+B+- `.8.I | G 2.2.]   ",
"  s.s.).9 9 [ [ :+(+X q.q.-.p b+x+I.) 9. +B.Q.>.e+c.c H H C+C+c g r+H./.B+$+F+}+I I | G 2.] ]   ",
"  s.b.b.:+'+w.w.(+:.W.b.f.5+d+b+x+N.) 9.v l.-+]+*+T.c.H H C+m.(.n+r+e e @ $+@.B I | | G ] ]     ",
"    q.9 w.w.:+:.V.V.:.e.9 <+5.A .+x+N.)  +e.]+l+l+*+0+c.C+C+m.(.( /.e @ $+& ^ >+| | 2.2.] o.    ",
"    q.q.:+_.o :.:.V.:.V.5+9 e.v +.+.+.N. +N ]+l+b b ~ , 7+m.m.(.;+e )+@ $+! V I G G 2.2.] o.    ",
"    <+f.:+o _.l.E.E.{ V.{ u+w.7 Q +.+.N.v }.b b S S 0.S + C+m.X.D.)+@ & & y k.| | G 2.] o.o.    ",
"      9+5 o V.E.E.8 E.8 8 V.g+*.1.g.g.+.A 5.l+S A.A.% % S H m.X.e @ $+- - 1 0 G 2.2.] o.!.      ",
"      A+A+5 w._.5 L 8 8 8 8 8 W.w 2+#+` ` P.j S A.% % j.T A.(.^ @ & & - Z.>+G G 2.] o.o.!.      ",
"        B.B.A+Q.V.L L L E+*+m.8 H n+Q g.D.1.8+A.% % j.T n n ; P $+& - ! D | G 2.] o.!.!.        ",
"        -+-+-+]+-+>.E.*+*+*+j E+j (.D+p.` d.4+0.% T T T T X.z.- - - 4.D | G 2.2.] o.o.!.        ",
"          ]+]+]+l+l+l+L *+8 *+(.j ; j G.;+w+d.> 8+|.j.0.D D+K.- r.d M I 2.2.] o.o.!.!.          ",
"          l+l+l+l+b b b b m v.~ 8 E+; X.3 ^ P ..r ' 4.y P r.! d 1 B G G G 2.] ] o.!.            ",
"            b b b b S S A.S A.0.S 0.A.E.C+m.(.3 G.^ ^ Z.G.3 k.8.8.| G 2.] ] o.!.. .             ",
"              S A.A.A.A.A.% % % j.% j.T T n n n 0 0 # # 8.8.I | | G 2.] ] o.!.!.!.              ",
"                A.A.A.% % % % j.T T T T n 0 0 0 # 8.8.I I | G G 2.2.2.] o.o.!..                 ",
"                  j.j.j.j.T T T T n 0 0 0 0 >+8.8.8.I I | | G 2.2.] o.o.!.. .                   ",
"                      T T T n n n n 0 # # # # 8.I I | | G G G 2.] o.!.o.!.                      ",
"                        n 0 n 0 0 # # # 8.8.I I I | | G G 2.] ] o.o.!..                         ",
"                            0 # # # 8.8.I I | | | G 2.2.2.] o.o.o.!.                            ",
"                                8.I I I I | | G 2.2.2.] o.o.o.!.                                ",
"                                        | G G G 2.2.] ]                                         ",
"                                                                                                "};
