/* XPM */
static char * rndoptit_xpm[] = {
"48 48 201 2",
"  	c None",
". 	c #262626",
"+ 	c #56A068",
"@ 	c #42724A",
"# 	c #D61D1B",
"$ 	c #424243",
"% 	c #9ECCBC",
"& 	c #C02422",
"* 	c #967E7A",
"= 	c #3A6646",
"- 	c #8EA197",
"; 	c #9A4A46",
"> 	c #B62222",
", 	c #677466",
"' 	c #8EB296",
") 	c #629A6C",
"! 	c #474F5F",
"~ 	c #A63A32",
"{ 	c #966E6E",
"] 	c #DA463E",
"^ 	c #EE724A",
"/ 	c #647E6A",
"( 	c #8E563A",
"_ 	c #563642",
": 	c #AEAEAE",
"< 	c #4E6252",
"[ 	c #323232",
"} 	c #B6C2B8",
"| 	c #6D7F71",
"1 	c #3A5642",
"2 	c #B2CABC",
"3 	c #CE362E",
"4 	c #5A628A",
"5 	c #C6765A",
"6 	c #AEB8B0",
"7 	c #626262",
"8 	c #797F7D",
"9 	c #DADCDA",
"0 	c #547C5C",
"a 	c #6B9E72",
"b 	c #606A62",
"c 	c #9E9E9E",
"d 	c #3E3E3E",
"e 	c #8E8E8E",
"f 	c #4A567A",
"g 	c #C6D6CE",
"h 	c #DA2A22",
"i 	c #768A7A",
"j 	c #A0A8A2",
"k 	c #7E8E81",
"l 	c #565656",
"m 	c #929292",
"n 	c #62729E",
"o 	c #5B8263",
"p 	c #769E76",
"q 	c #404963",
"r 	c #526E5A",
"s 	c #4A4A4A",
"t 	c #B6C8BC",
"u 	c #727273",
"v 	c #5E5E5E",
"w 	c #666666",
"x 	c #E60E0A",
"y 	c #9A3226",
"z 	c #3A3A3A",
"A 	c #6E6E6E",
"B 	c #BA9A96",
"C 	c #424E6A",
"D 	c #B2BEB6",
"E 	c #6E7A72",
"F 	c #A7BCAF",
"G 	c #C69E96",
"H 	c #8A92B6",
"I 	c #C6C6C6",
"J 	c #8AB6A6",
"K 	c #BF3B32",
"L 	c #7AA07C",
"M 	c #B26A6A",
"N 	c #CACACA",
"O 	c #7C9280",
"P 	c #4A925E",
"Q 	c #999A9A",
"R 	c #818785",
"S 	c #9AB6A2",
"T 	c #BE8A82",
"U 	c #4E4E4E",
"V 	c #83899F",
"W 	c #5A6266",
"X 	c #505766",
"Y 	c #A64E46",
"Z 	c #6A7288",
"` 	c #464646",
" .	c #B6B6B6",
"..	c #829E86",
"+.	c #525253",
"@.	c #2A2A2A",
"#.	c #5A5A5A",
"$.	c #A6A6A6",
"%.	c #9EAEA2",
"&.	c #434A5A",
"*.	c #6A6A6A",
"=.	c #8AAA8E",
"-.	c #7E7E7E",
";.	c #363636",
">.	c #868686",
",.	c #839A86",
"'.	c #4E8A5A",
").	c #5E677D",
"!.	c #53755B",
"~.	c #A2DECE",
"{.	c #A5B3A7",
"].	c #6E8873",
"^.	c #6E766E",
"/.	c #94AA9A",
"(.	c #686E86",
"_.	c #B2BAB2",
":.	c #AAAAAA",
"<.	c #B2B2B2",
"[.	c #B03230",
"}.	c #8AA18E",
"|.	c #A25E5A",
"1.	c #828282",
"2.	c #A2A2BA",
"3.	c #7B9A7F",
"4.	c #5A6484",
"5.	c #8A8A8B",
"6.	c #2E2E2E",
"7.	c #CAD6CE",
"8.	c #3A465A",
"9.	c #969696",
"0.	c #F80505",
"a.	c #666A82",
"b.	c #A2A2A2",
"c.	c #CA625A",
"d.	c #989F9B",
"e.	c #E54832",
"f.	c #C2CEC6",
"g.	c #E88054",
"h.	c #C2C2C2",
"i.	c #A7AEA8",
"j.	c #727A80",
"k.	c #B6BEB8",
"l.	c #8A8E9E",
"m.	c #466E50",
"n.	c #CE867A",
"o.	c #5A8F63",
"p.	c #5A8661",
"q.	c #5B6A9E",
"r.	c #B84E4C",
"s.	c #565E72",
"t.	c #DE3326",
"u.	c #7A8292",
"v.	c #414652",
"w.	c #7A6E6E",
"x.	c #6E9375",
"y.	c #905C56",
"z.	c #A18987",
"A.	c #F30B0B",
"B.	c #EE5242",
"C.	c #AE5A56",
"D.	c #8A969E",
"E.	c #638468",
"F.	c #505A7A",
"G.	c #888E88",
"H.	c #82A686",
"I.	c #D2D2D2",
"J.	c #828696",
"K.	c #5C7A64",
"L.	c #AAB3AB",
"M.	c #51566C",
"N.	c #BA2C26",
"O.	c #8AA691",
"P.	c #5A8A60",
"Q.	c #6C7492",
"R.	c #40424E",
"S.	c #9ED6C6",
"T.	c #7E8292",
"U.	c #434A56",
"V.	c #D6D6D6",
"W.	c #4E5262",
"X.	c #AA9E92",
"Y.	c #CECECE",
"Z.	c #7A7A7A",
"`.	c #BEBEBE",
" +	c #44664C",
".+	c #EA2A1E",
"++	c #6A7A6E",
"@+	c #6A9A74",
"#+	c #666A7A",
"$+	c #BABABA",
"%+	c #515A70",
"&+	c #5C7260",
"*+	c #84A288",
"=+	c #4D6A55",
"-+	c #565E6E",
";+	c #767676",
">+	c #5C6890",
",+	c #727A8E",
"'+	c #4A5168",
")+	c #74A67C",
"!+	c #575D7E",
"                                                                                                ",
"                                       .<.: :.$.b.c Q 9.m                                       ",
"                                h.`.$+ .<.: :.$.b.c Q 9.m e 5.>.                                ",
"                          Y.N I h.`.$+ .<.: :.$.b.c Q 9.m e 5.>.1.-.                            ",
"                        Y.N I h.`.`.$+ .<.: :.$.b.c Q 9.m e 5.>.1.-.Z.;+                        ",
"                    V.I.Y.Y.N h.h.$+ .<.: :.$.$.b.c Q 9.m e 5.>.1.-.Z.;+u A                     ",
"                  V.V.Y.N I I h.`.$+ . .<.: $.b.c c Q 9.m e 5.>.1.-.Z.;+u A *.                  ",
"                9 V.I.Y.Y.N I `.`.$+ .<.: :.$.$.b.Q 9.m e 5.5.>.-.-.Z.;+u A *.w                 ",
"              V.I.I.I.N I I h.`.$+$+<.: :.:.b.b.c Q 9.9.m 5.>.>.-.Z.;+;+A *.*.w 7               ",
"            V.V.I.Y.N N N h.h.`.$+ .<.: : $.$.c c Q 9.e e 5.>.1.-.-.Z.u u A w 7 v v             ",
"          V.I.I.Y.Y.N I I `.`.$+ . .<.:.:.$.b.c Q 9.9.e 5.5.1.1.Z.Z.;+u A *.*.w v #.#.          ",
"          I.I.Y.Y.N I h.h.h.$+$+ .<.: : :.b.b.c Q 9.m e e >.>.1.-.;+;+A *.*.w 7 v #.l           ",
"        Y.Y.Y.N N N I h.`.`. . .<.<.:.$.$.b.c Q Q m m 5.5.>.1.-.-.;+;+u A w 7 7 v #.l +.        ",
"      Y.Y.N N I I h.h.`.$+$+ .<.<.: :.:.$.c c Q 9.9.e e >.>.-.-.Z.;+u A *.w w v v l l +.        ",
"      N N I I h.h.`.`.`.$+`.I h.{.k.I <.$.c Q 9.m m e 5.>.>.-.Z.;+u u A *.w 7 v #.l +.+.U       ",
"      h.h.h.h.h.`.`.$+h. .%.{.{.%.%.i.%._.$.$.9.m e 5.9.>.1.5.5.-.>.R ;+*.w 7 #.#.l +.U s       ",
"    h.h.h.h.`.`.$+$+k.d.L.%.%.i.{.$.{.F %. .k.:.m e 5.Q Q.H ,+>+Z (.).T.>.8 ;+v l l U U s `     ",
"    `.`.`.$+$+$+$+ .$+L.L.L.{.$.;+u ^.1.L.N L.j L.:.J.J.s.4.4 ).4 ).(.u.T.a.a.A #+*.+.s ` `     ",
"    $+ .$+ . .<.<.<.:.1.6 6 {.L.d.$+:.R d.t %.{.D.$.! q >+4 4 4.M.'+'+s.4.).-+%+X w #.+.` $     ",
"   . . . . .<.<.<.: <.e d.Q k.D t t 7.9 t F % F F k.8.f >+4.4 >+C %+X '+U.! %+M.M.X '+l ` $     ",
"  <.<.: <.<.<.: : :.:.: u *.%._.i.f.9 7.2 S.% ~.o /.d ;.q.q.>+Z V G.;+-.A #.%+M.X W.U.U ` $ d   ",
"  : : : :.:.:.:.: <.$.$.j b.Z.#.v d.j b J X.y.3 y ] G y.z q n H 2.V Q.,+Z !+M.M.W.M.v.v.l d z   ",
"  :.:.:.:.:.: i.i.*+/.6 S ' k.:./.^.7 8 ; # A.0.0.x .+e.5 Y !+4 ,+Q.>+!+!+s.F.%+'+U.v.v.U d z   ",
"  $.$.$.$.b.O - *+..*+H.L a )+)+) =.j j c.x 0.0.& r.K K g.] N._ 8.C &.q ! '+&.v.v.d d U d z ;.  ",
"  b.b.$.d.Q ,.,...L O.H.p p a ) ) P.P.) o.& A.0.B.T B n.e.t.# C.D.W.v.'+&.8.&.&.8.w #.W.d z ;.  ",
"  c c d.8 k ......O.../ K.!.!.o P.P.P.P.+ ( ~ h t.^ g.e.h # > M A R ;+Z.^.v u w W v $ d z ;.;.  ",
"  c Q j k ,.}.}.- ..x.K.i i o !.m.o p.p.o.+ P , r.K [.N.~ [.|.z.v W #.l X w U s ` ` d z z [ [   ",
"  9.m m 8 j...=...3.3.- c Q m d.i 0 P.p.p.P '.x.e z.z.{ w.* A 7 v #.#.+.U U s ` ` d d z ;.;.[   ",
"  9.m m G.R k O ,.3.3.x.x.,.- O.3.p.p.p.P.o.@ = 3.*.w w w 7 7 v #.l l +.U s s $ $ d d z [ [     ",
"    m e 5.8 , ^.].O x.x.].E.E.p.o p.o P.p.0 0 m.k *.*.w 7 v v #.#.l +.U U s ` ` $ d ;.;.[ 6.    ",
"    e 5.5.5.5.5.| b !.K.].E./ o E.p.0 p. +1 = x.>.*.w 7 W v #.l l +.+.s s ` $ d z z ;.;.6.6.    ",
"    >.>.>.>.R 5.8 b E , !.< r =+0  +=+= =+| / R A 7 7 7 v #.#.l +.U s s ` $ $ d d z ;.6.6.@.    ",
"      1.1.1.1.1.5.>.R 1., ^.R | =+++8 | K.1.A ;+w 7 v #.#.l l +.+.U s ` ` d d z ;.[ [ [ 6.      ",
"      -.-.-.Z.8 -.Z.Z.Z.1.Z.Z.Z.8 8 u u -.*.w 7 7 v v #.#.l +.U s s ` ` $ $ d z ;.;.[ @.@.      ",
"        Z.Z.;+Z.;+;+;+^.u u A u A *.*.*.w 7 7 v v #.#.l +.+.U U s s ` $ d z ;.;.[ 6.6.@.        ",
"        ;+;+;+u ;+;+u A u A A *.*.*.w w w 7 v v v #.l +.+.U U s ` $ $ d z z z ;.[ 6.@..         ",
"          u u u A A A A A *.*.*.w w 7 7 v v #.#.l l l +.U s s s ` $ d d z ;.[ 6.6.6.@.          ",
"          u A *.A A A *.w *.w 7 7 7 v v v #.#.l l +.U U s s ` $ $ d d z ;.[ [ 6.6..             ",
"            *.w w w w w 7 7 7 7 v v #.#.#.l +.+.+.U U s s ` $ d d z ;.;.;.[ 6.@.@..             ",
"              w w w 7 7 7 7 v v #.#.#.l l +.+.U U U ` ` $ $ $ d z z ;.;.[ 6.6.@..               ",
"                v 7 v v v v #.#.#.l l +.+.+.U s s s ` ` $ d d z ;.;.[ 6.6.@.@.@.                ",
"                  #.v #.l l l l +.+.+.U U U U s ` ` ` $ d d z z ;.;.[ 6.@.@..                   ",
"                    #.#.l l +.+.+.U U U s ` ` ` $ d d d z z ;.;.[ 6.6.@..                       ",
"                        +.+.+.U U s s s ` ` ` $ d d z z ;.;.[ 6.6.6.@.@.                        ",
"                            U s s s ` ` $ $ d d d d z z ;.[ [ 6.@.@.                            ",
"                                ` $ $ $ $ d d d z ;.[ [ 6.[ 6.@.                                ",
"                                        z z ;.;.;.;.[ [                                         ",
"                                                                                                "};
