/* XPM */
static char * rndpalm_xpm[] = {
"48 48 256 2",
"  	c None",
". 	c #0E0E0E",
"+ 	c #A2AEC2",
"@ 	c #828686",
"# 	c #5E666A",
"$ 	c #2E3E46",
"% 	c #4C5A66",
"& 	c #D2D2D2",
"* 	c #98A6BA",
"= 	c #4A565E",
"- 	c #262A2A",
"; 	c #707E8C",
"> 	c #B6BABA",
", 	c #425262",
"' 	c #8492A2",
") 	c #6A7A8E",
"! 	c #3E4E61",
"~ 	c #2E3A42",
"{ 	c #C6CACC",
"] 	c #627282",
"^ 	c #E6E6E7",
"/ 	c #3E3E3E",
"( 	c #3E464E",
"_ 	c #2A3236",
": 	c #92A2BA",
"< 	c #5A5A56",
"[ 	c #626666",
"} 	c #969A9E",
"| 	c #161612",
"1 	c #DEDEDE",
"2 	c #BEC6CE",
"3 	c #566271",
"4 	c #626A75",
"5 	c #1A1E1E",
"6 	c #2E3235",
"7 	c #868686",
"8 	c #AAB6C6",
"9 	c #BEBEBE",
"0 	c #323A3E",
"a 	c #4E565A",
"b 	c #767E82",
"c 	c #6A727C",
"d 	c #868A8B",
"e 	c #464646",
"f 	c #424E59",
"g 	c #DADADA",
"h 	c #929292",
"i 	c #929EB6",
"j 	c #4A525C",
"k 	c #1E2222",
"l 	c #2E363E",
"m 	c #364657",
"n 	c #A2A6A6",
"o 	c #5A626A",
"p 	c #3E4242",
"q 	c #6A6A6A",
"r 	c #565E64",
"s 	c #424A4E",
"t 	c #A6B2C6",
"u 	c #6E7276",
"v 	c #363A3D",
"w 	c #767A7A",
"x 	c #8E9AB2",
"y 	c #464E5A",
"z 	c #262E36",
"A 	c #666E76",
"B 	c #82868A",
"C 	c #363E45",
"D 	c #9EAAC0",
"E 	c #7E7E7E",
"F 	c #8A96AA",
"G 	c #AEAEAE",
"H 	c #565656",
"I 	c #8A8E8E",
"J 	c #526271",
"K 	c #D6D6D6",
"L 	c #96A2B2",
"M 	c #CACED2",
"N 	c #72767A",
"O 	c #7A828A",
"P 	c #5A627A",
"Q 	c #9E9E9E",
"R 	c #A2AAB2",
"S 	c #B2B2B2",
"T 	c #B6B6B6",
"U 	c #BAC2CA",
"V 	c #F2F2F2",
"W 	c #222628",
"X 	c #7A869A",
"Y 	c #363636",
"Z 	c #5E666E",
"` 	c #929696",
" .	c #5A5E5E",
"..	c #282A38",
"+.	c #525252",
"@.	c #4E5E6E",
"#.	c #5E6E7E",
"$.	c #4A4E5E",
"%.	c #464A4E",
"&.	c #B2BACA",
"*.	c #828A92",
"=.	c #62625E",
"-.	c #A2A2A2",
";.	c #AEB6C6",
">.	c #2A2A2A",
",.	c #2A2E3E",
"'.	c #36424D",
").	c #828E96",
"!.	c #BEC2CE",
"~.	c #5A6678",
"{.	c #E2E2E3",
"].	c #2A364A",
"^.	c #2A2E31",
"/.	c #AAB2C2",
"(.	c #3E4652",
"_.	c #A6AEBE",
":.	c #323232",
"<.	c #324254",
"[.	c #EAEAEB",
"}.	c #263642",
"|.	c #262632",
"1.	c #525A64",
"2.	c #3A3A3A",
"3.	c #7A7A7A",
"4.	c #4A4E4E",
"5.	c #6E6E6E",
"6.	c #969696",
"7.	c #5E5E5E",
"8.	c #4E565E",
"9.	c #A6AAAA",
"0.	c #768296",
"a.	c #C6C6C6",
"b.	c #7E8A9E",
"c.	c #8A8A8A",
"d.	c #828282",
"e.	c #C2C2C2",
"f.	c #4E525A",
"g.	c #B6BAC6",
"h.	c #626E82",
"i.	c #52565E",
"j.	c #B2B6C2",
"k.	c #5E6A76",
"l.	c #CACACA",
"m.	c #666666",
"n.	c #2E2E2E",
"o.	c #565A5E",
"p.	c #3E4A59",
"q.	c #1E1A1A",
"r.	c #26323F",
"s.	c #3A4A5A",
"t.	c #323E49",
"u.	c #26262E",
"v.	c #525E73",
"w.	c #666A72",
"x.	c #828EA3",
"y.	c #4A5A6A",
"z.	c #3A3E44",
"A.	c #969EB2",
"B.	c #767676",
"C.	c #262626",
"D.	c #7E7A7A",
"E.	c #4E5666",
"F.	c #728294",
"G.	c #2A3A4A",
"H.	c #BABEC6",
"I.	c #667282",
"J.	c #5E6266",
"K.	c #66666A",
"L.	c #465666",
"M.	c #323636",
"N.	c #424E62",
"O.	c #32424E",
"P.	c #525A6E",
"Q.	c #9A9EA6",
"R.	c #1E1E1E",
"S.	c #424A5A",
"T.	c #3A4248",
"U.	c #2A323A",
"V.	c #1A1A1A",
"W.	c #828E9D",
"X.	c #3E3E42",
"Y.	c #5A5A5A",
"Z.	c #7E7E82",
"`.	c #323236",
" +	c #3A3A3E",
".+	c #C2C6CE",
"++	c #12120E",
"@+	c #323A43",
"#+	c #929EAE",
"$+	c #32363A",
"%+	c #4A5668",
"&+	c #566276",
"*+	c #2E323A",
"=+	c #92969E",
"-+	c #525256",
";+	c #2A2A2E",
">+	c #222A2E",
",+	c #2E3E4D",
"'+	c #5A5E65",
")+	c #2A3A4E",
"!+	c #D6D2D2",
"~+	c #BABABA",
"{+	c #9A9A9A",
"]+	c #969292",
"^+	c #222222",
"/+	c #A6A6A6",
"(+	c #424242",
"_+	c #6E6A6A",
":+	c #727272",
"<+	c #8E8E8E",
"[+	c #CECECE",
"}+	c #565252",
"|+	c #4A4A4A",
"1+	c #3E3A3A",
"2+	c #4E4E4E",
"3+	c #726E72",
"4+	c #625E5E",
"5+	c #AAAAAA",
"6+	c #8E8A8A",
"7+	c #CECACA",
"8+	c #4E5A6A",
"9+	c #5E5A5A",
"0+	c #8692AA",
"a+	c #2A3242",
"b+	c #3E4A4E",
"c+	c #76828A",
"d+	c #3E4A52",
"e+	c #6A7686",
"f+	c #5E6676",
"g+	c #465260",
"h+	c #525E6D",
"i+	c #262A30",
"j+	c #32363E",
"k+	c #6E7A89",
"l+	c #3A4656",
"m+	c #2A3641",
"n+	c #5A5A5E",
"o+	c #46464A",
"p+	c #5A6272",
"q+	c #6A6A6E",
"r+	c #B2B2B6",
"s+	c #36363A",
"t+	c #626262",
"u+	c #A2A2A6",
"v+	c #96969A",
"w+	c #5A6A7E",
"x+	c #3E4A5E",
"y+	c #76767A",
"z+	c #26262A",
"A+	c #3A424E",
"B+	c #1A1616",
"C+	c #86868A",
"D+	c #2E3A46",
"E+	c #626266",
"F+	c #4E5A6E",
"G+	c #222226",
"                                                                                                ",
"                                      S G 5+/+-.Q {+{+6.h                                       ",
"                                9 ~+T S S G 5+/+-.Q 6.6.h <+c.7                                 ",
"                          a.e.e.e.9 9 9 ~+T T S G -.-.{+6.<+c.7 d.E                             ",
"                        l.l.l.l.l.a.a.e.9 ~+T S S G 5+/+Q 6.<+c.d.E 3.B.                        ",
"                    [+l.[+& [+[+[+a.~+5+-.{+` <+c.c.6.{+-.-.{+<+c.d.3.B.:+5.                    ",
"                  & & K & & [+e.G -.u+Q.=+B w u q+m.m.m.5.B.c.h <+c.E B.:+5.q                   ",
"                & & K K K l.5+-.> H./.L ' 0.c w.t+t+7.7.9+Y.9+m.E <+c.E B.5.q m.                ",
"              & & K K K 9 /+S 7+l.&.D } b.; A # n+Y.H H H i.H H H m.E d.3.5.q m.t+              ",
"            & [+K g K ~+5+a.& M 2 ;.D F b.I.~.o.+.+.+.2+2+2+2+2++.+.H B.d.B.5.m.7.7.            ",
"          [+[+& K & S -.2 2 U H.&.+ i b.; k.r f.|+|+|+|+|+|+|+|+|+2+2++.q 3.5.q 7.7.Y.          ",
"          l.[+K K 9 /+;./././.t D i ' F.#.h+= %.e (+(+(+(+(+(+e e e |+e 2+q+B.q t+Y.H           ",
"        l.a.[+K a./+n x L * * : x x.F.h.J j s / / z./ / / / / / (+(+e (+e 2+_+5.m.Y.H +.        ",
"      l.e.a.[+l.5+} ).W.x.0+x.b.F.) w+@.g+s v +.-.5+w / Y 2.Y / 2./ / (+(+(+2+q m.7.Y.+.        ",
"      e.e.l.& ~+v+B O b k+k+e+] w+J y.f l+v :.|+S g h 2.:.Y :.Y Y 2. +/ / p (++.q 7.H +.2+      ",
"      9 9 a.l.Q d.y+:+A 4 o 3 J y.g+( z.M.6 >.^.7.!+6.Y >.n.:.:.Y Y 2.2./ / / (+4+t+< +.|+      ",
"    9 ~+~+l.~+c.D.Z.d.4+5.5.i.j s T.z.H }+Y C.^+H K h :.1++.:.(++.2.:.|+|+2./ z.2+7.H +.|+e     ",
"    ~+T 9 a.-.E N {+l.9.{ K G f.z.}+G g {.S e R.2+1 ` >.5.[+Q.T e.h B./+Q 5./ 1+/ 7.Y.2+2+e     ",
"    T S ~+9 <+B.5.h & 9 D.G !+B.v 6.1 3.d.{.6.R.2+1 ` - 5.!+~+m.h e.5+7.3.Q H v 2.+.7.2+|+(+    ",
"  S G G ~+~+d.:+q ]+[+/+f.7 K <+/ T 7+2.|+1 T R.|+{.h ^+q K h >.7.e.<+:.H n =.Y 2.e 7.+.|+e     ",
"  G G 5+T S 3.5.K.<+[+-.2+7 K {+(+5+T :.e {.T V.e ^ 6.R.K.K c.C.7.9 <+n.H /+m.:.Y / 7.+.e (+/   ",
"  5+/+5+T /+B.q+t+<+7+-.|+d.K 6.:.+.2+C.=.[.~+| e [.h k q g <+C.Y.e.<+n.}+5+_+Y Y 2.7.+.|+(+2.  ",
"  /+/+/+G Q :+q 7.c.7+-.|+d.K 6.>.C.H S 1 [.~+++(+[.]+5 m.g <+C.7.9 <+^.+.5+m.:.:.Y 7.H e (+2.  ",
"  /+-.-.G 6.5.[ 7.c.l.Q e d.K 6.^.4+K l.d.[.~+. (+[.` q.m.g c.^+< e.I >.H /+m.n.n.Y 7.< |+/ Y   ",
"  Q Q Q /+6._+t+Y.7 a.Q e E K ]+:.5+{.< / ^ T . e [.` 5 m.g <+^+7.9 6+C.+./+K.`.6 :.7.H e / Y   ",
"  {+6.{+Q 6.q =.< @ a.{+(+E [+6.2.T [+Y e ^ T | (+^ h R.m.K c.^+Y.9 c.>.+./+m.6 $+`.7.Y.e 1+Y   ",
"  {+6.6.{+6.q+J.H d.e.{+(+E [+h 2.S 7+Y e ^ S V.e {.h R.m.& c.G+7.9 c.;+-+-.[ n.j+s+7.H e Y :.  ",
"  6.h h h 6.:+4+H E 9 6.e D.M ` 2.G { Y e 1 S q.|+1 <+k m.& c.z+o.> d ..f.Q E+l 0 v m.+./ Y :.  ",
"  h h <+h h B.=.H 3.~+6.e d.l.6+/ G [+/ e g G R.|+g <+^+m.l.C+|.'+T @ z f.{+J.*+0 / 7.2+/ :.    ",
"    c.<+c.<+E 4+H B.S G } T 9 < :.6.K /+S 1 G ^+2+g <+W w.l.d ..'+S d G.% } E+D+j+2+7.e v :.    ",
"    7 7 c.c.c.q H :+G <+6.5+3.Y n.2+Q 5+E Q ]+^+/ G B.z+'+u+N r.% ]+y+'.f.E o.A+@+H H (+:.n.    ",
"    7 @ d.7 c.B.< 5./+7 e e v :.n.>.n.n.C.C.>.R.k >.z z a+U.)+m p.s.! %+g+y f p./ 7.|+/ :.>.    ",
"      E E d.d.E 4+q Q E e / 2.Y :.n.>.C.C.^+^+W W >+r.}.G.)+m ! L.y.F+@.F+E.E. ++.Y.(+Y n.      ",
"      E E 3.D.d.u q 6.E e / 2.Y :.n.n.>.>.C.C.|.^.,.m+D+,+m ! L.y.v.J v.P.P.y X.9++./ :.>.      ",
"        3.w 3.3.E B.7 B.|+(+/ 2.Y :.:.>.>.>.i+z _ m+G.$ <.s.g+F+v.P f+~.~.i.v o.H e :.>.        ",
"        B.:+:+B.B.3.d.:+e (+/ 2.Y :.:.:.n.>.^._ _ ~ @+,+m N.y.v.P P ~.4 4 C |+Y.2+/ n.>.        ",
"          :+3+u :+B.D.3+|+(+/ / 2.Y :.:.:.n.n.*+l D+t.C s.N.%+v.&+~.4 # / 2+7.+./ :.C.          ",
"          5.5._+5.5.:+N H e (+/ 1+Y Y :.n.:.*+$+j+@+t.<.p., F+P.&+f+Z z.(+7.+.e Y >.            ",
"            q m.q q _+:+B.=.|+p / 2.2.Y :.:.$+0 0 @+C '.S.y %+P.3 a z.+.< +.|+2.>.C.            ",
"              m.=.m.m.m.q :+q +.(+/ Y Y Y Y $+$+@+C t.'.d+N.8.j X./ H Y.+.e Y >.C.              ",
"                4+7.4+=.m.m._+:+m.+.(+2.s+Y s+s+$+@+@+t.T.z.z.(+H 9+< 2+e Y >.C.                ",
"                   . .< Y.7.J.t+q :+:+m.Y.2+e (+X./ (+(+2+H 7.4+Y.H |+/ :.>.C.                  ",
"                    < H H H < < 7.7.m.5.5.5.w.m.t+t+t+t+E+4+n+}+|+(+2.n.>.                      ",
"                        +.+.2++.+.H H H H < 7.7.7.Y.Y.H +.4.%.p 2.6 >.>.                        ",
"                            |+|+|+|+|+2+4.|+|+|+|+|+e (+(+2.Y n.>.>.                            ",
"                                e e (+(+/ (+(+/ / 2.s+Y :.n.n.n.                                ",
"                                        / 2.2.2.Y Y :.n.                                        ",
"                                                                                                "};
