/* XPM */
static char * rndpraya_xpm[] = {
"48 48 17 1",
" 	c None",
".	c #121212",
"+	c #78787E",
"@	c #444446",
"#	c #A9A9AB",
"$	c #5E5E61",
"%	c #929295",
"&	c #84868C",
"*	c #525253",
"=	c #696A6D",
"-	c #292929",
";	c #BFBFBF",
">	c #1F1F20",
",	c #9D9DA3",
"'	c #B4B5B7",
")	c #363638",
"!	c #CDCFD4",
"                                                ",
"                   =+%%%&&+=@                   ",
"                %##,,%%%%&&&&++*                ",
"             $#'#,,,%%%&&&&+&+++=$              ",
"            #'###,,%%&&&+&++++++=+=*            ",
"          &'''#,,%%%&&&++++++=======$-          ",
"         ,;'##,,%&&&++++=========$$=$$@         ",
"        ';'##,,%&&&++++======$$$$=$$$$*@        ",
"       #;##,,%%&&+++=====$$$$$$$$$$$$*$*@       ",
"      ,;'##,%%&&+++===$$$$$$*$$**********-      ",
"     =''#,,%&&+++==$$$$*******************      ",
"     ;'##,%%&+++==$$$$****@**@*********@*@)     ",
"    ,'#,,%&&++==$$$****@@*@@@@@@@@@@*@*@**@-    ",
"    '##,%%&++==$$$**@@@@@@@@@@@@@@@@@*@@@@@)    ",
"   %#,,%%&+++=$$**@*@@@))))@))@@@@@@@@@@@@@@-   ",
"   ##,%%&&+==$$***$$==+&&&&+++$$*@@@@@@@@@@@)   ",
"  +#,,%&+++=++&,#,%&&+=++&&%%,,,,,%&=*@@@@@)@   ",
"  ,,,%&&++&&+&#!%*@))-)-----)))))@*=&%&@@))@)-  ",
"  #%%%&+%%==**$,&@)--->>>-->>--)-)))@*+=@)@)))  ",
"  ,%%&&+,=$$*@*'+@)------>-------)--)))*@))@)-  ",
" $,%&&&+%&&&+=$!$$**@@@@@@@@************@@))))  ",
" +%%%%&&==$$*@=!$)->>........>>----)-)**@@@@@). ",
" +%,,&+==$**@@$!=)>>........>.>>----@=*)))@@@)> ",
" +&&&%%%%%%&+++;%*@@)-->>--))@@**$=+&==$$$@@)). ",
" +&&++==$$$***$%==&&+++++++&&&+=*@@)))))-)))-)> ",
" +&&++=$$**@@@)#@@-)@@@@@*@))->>>-----)--)--)-. ",
" $+++===$**@@)),@->...........>>>------)-)----> ",
" *&++==$$**@@))&*)>>.........>>>>>--------))->  ",
"  ++==$$***@@))=@)>..........>>>>-------)-----  ",
"  +++==$$*@@@))=))>>>......>.>>>>>----------->  ",
"  ====$$***@@@)))-->>>..>.>.>>>>->>---------->  ",
"  @+==$$$*@@@)))--->>>>>>>>>>>>->----------->   ",
"   ===$$***@@@)))--->>>>>>>>>>>>->--------->>   ",
"   $=$$$***@@@))))---->>>>>>->->-->-------->.   ",
"    =$$$**@@@@)))-)---->->>->->-->------>-->    ",
"    *=$$***@@@@))))------->->-->--->-->-->>.    ",
"     $$****@@)@))))-)------------>-->-->->>     ",
"      $$****@@@)))))------------------>->>      ",
"      )$**@@@@@@))))))---------->-->-->>>.      ",
"       @****@@@))))-))-)------------>>->.       ",
"        )*@@@@@@@)))))-)-)------>->-->-.        ",
"         )**@@@)))))))-)----------->>>.         ",
"           @@@@@@))))))-)-)----->--->           ",
"            )@@@)))))))-)----->-->>.            ",
"              )@)@)))-))--)---->->              ",
"                -)))))-))----->.                ",
"                    >-->->>>                    ",
"                                                "};
