/* XPM */
static char * rndpeng_xpm[] = {
"48 48 65 1",
" 	c None",
".	c #1D1D1C",
"+	c #A38C40",
"@	c #555453",
"#	c #C4C4C4",
"$	c #807032",
"%	c #BFA939",
"&	c #AE8C3C",
"*	c #90752E",
"=	c #393836",
"-	c #755D2C",
";	c #B49A3B",
">	c #978035",
",	c #554A30",
"'	c #9C9C9B",
")	c #828280",
"!	c #8C8C8C",
"~	c #666666",
"{	c #A8A8A8",
"]	c #AE9436",
"^	c #A3812C",
"/	c #707070",
"(	c #4A4A49",
"_	c #7B6935",
":	c #B79341",
"<	c #685527",
"[	c #A4944A",
"}	c #BF9F39",
"|	c #AD9446",
"1	c #4A402A",
"2	c #CBB847",
"3	c #948356",
"4	c #2E2E2E",
"5	c #E0E0E0",
"6	c #D6D6D6",
"7	c #BABABA",
"8	c #F0F0F0",
"9	c #D3B13F",
"0	c #81755C",
"a	c #9E957F",
"b	c #6B5D29",
"c	c #B09E7C",
"d	c #C6B24C",
"e	c #5C5C5C",
"f	c #866826",
"g	c #404040",
"h	c #949494",
"i	c #B0B0B0",
"j	c #787878",
"k	c #E8E8E8",
"l	c #614E29",
"m	c #88712E",
"n	c #242424",
"o	c #CCCCCC",
"p	c #635B4F",
"q	c #D6BA3C",
"r	c #383126",
"s	c #A2A2A4",
"t	c #9C8A5C",
"u	c #BAAA64",
"v	c #8A7632",
"w	c #77622B",
"x	c #A18639",
"y	c #8A7A5C",
"z	c #927A30",
"                                                ",
"                   /!''hh!)/@                   ",
"                '77ii{is{''hh!)~                ",
"             )7##777i')j/j)!h!))/~              ",
"            7o##777i)~~~~~~~)!!)))j~            ",
"          {o6#o##77h/~~~ee)/e))!)jj/~r          ",
"         76oo##7#7i/~~eeee~e@~)))jj//~(         ",
"        66oooo##77{eee@@@@@(@())))jjj~e(        ",
"       o666o###777se~~e@(/je((~))jj///~~(       ",
"      #6oooo##777i'e{7@(!7i~(g~))j/j/~~e@=      ",
"     h66oo#o###777s~/')(7@)'(ge))j///~~~ee4     ",
"     6ooo#o##777ii{e~~[0'=(i==@)jjj//~~ee@g     ",
"    7oooo##7#777iii(!:22d[a)==()jjj//~~~ee@=    ",
"   )ooo####7777iii{@:9qq2d%x=44)j///~~~ee@(g    ",
"   io####7#77i7i{i{,^9q2%;;m4(4/j///~~~eee@(=   ",
"   ####777777iii{{{(a^;]&:c'4/((jj/~~~eee@((=   ",
"  '7#7#7777iiiii{s'=7c^^&iooe=44~///~~eee@@((n  ",
"  #777777iiii{{{ss@(67i77665innng/~~~e~@@@((g4  ",
"  777777i7iii{{{s/nik6#o5k566(nnn@~~~ee@@@(((g  ",
" )77iiiii{i{{{s'!n~5kkkkk5555).nn4e~eeee@(((g4  ",
" )iiiiiii{{{{ss!=.!5kk5k8k56o7..nn4e~e@@@@((gg. ",
" iiii{{{{{{sss'en4{5k8k88k5o77~4nnnge@e@(((gg=n ",
" '{{{{{{{ss''s'=4~5kk8888kkk5o{n4nnn@@@@((((g=4 ",
" {s{{{ss's's'h)4rokk888888kk56oeg4nnge@@((ggg=. ",
" hss's's'''''h@=~5kk888888k5556h4n4n4@((((gg==4 ",
" '''''''''hhh!=4755kkk888kk5566s.n4nn(@((ggg=4. ",
" !''''hhhhhh!e4g6555k5kkkkk56667..nnn=(((ggg=4n ",
" )hhhhhhhh!!)=g@665556kkk55666o7.n4nn=((gg===4. ",
" (hh!h!!!!!!~4(e6655565555566oo#4nnnn4g(gg==44  ",
"  !!!!!!!!!)~pb/666666566666oo#innn44=(ggg=4r.  ",
"  )!!!!)))))t}%_!o666o6666o6oou[4n.n=(gg=g==4n  ",
"  /))))!))))&}}}l/oo6o666oo##7&]4.n4$$gg==44n.  ",
"   ))))))33x:}}};r(7ooo#ooo##{&^-=1bz$gg==44n   ",
"   j))jj3||:;;}}}$4={#####777'z^*ff*vv,==44n.   ",
"    jjjj3[|;;||];;,n/##77777iaf^^z*zvm_(r44n    ",
"    /jjjy+[[||;;;:>~s777777i{(fz^>zvm$ww,4..    ",
"     ///0tt+[+&]]]]3ii7iii{!=rfzzz*m__wb14n     ",
"     (~/0>3++++++&+*js{{sjennrf*zmm__bb14.      ",
"      (~0vyz3xxx+xxm1444nnnnnrfmv$_wb1r4n.      ",
"       e~~~__$$z>>*-1n4444444r<-w-b,r44..       ",
"        (p~peppbww-l((((((ggg=,lll14444.        ",
"         (ee@e@@,@,((((((g(gg1=r1r444..         ",
"          ne@@@@@((@(((gggg====rr44nn           ",
"            (@(((((((ggggg===rr444n.            ",
"              g(((gg(ggg=g====444n              ",
"                rgggggg====444n.                ",
"                    n44444nn                    ",
"                                                "};
