/* XPM */
static char * rndpine_xpm[] = {
"48 48 256 2",
"  	c None",
". 	c #222224",
"+ 	c #2E8238",
"@ 	c #828284",
"# 	c #26AA34",
"$ 	c #2E5234",
"% 	c #5A825C",
"& 	c #32723C",
"* 	c #2E963C",
"= 	c #626A64",
"- 	c #AEB2B2",
"; 	c #56965C",
"> 	c #46964C",
", 	c #5A7A5C",
"' 	c #3A3A3C",
") 	c #26BE34",
"! 	c #969A9B",
"~ 	c #42864C",
"{ 	c #6E8274",
"] 	c #4E5254",
"^ 	c #3AAE4C",
"/ 	c #C6CACC",
"( 	c #2A2E2C",
"_ 	c #4A764C",
": 	c #42A24C",
"< 	c #6E766C",
"[ 	c #6E6A5C",
"} 	c #868E84",
"| 	c #26B634",
"1 	c #568A5C",
"2 	c #2EA23C",
"3 	c #464644",
"4 	c #468E4C",
"5 	c #4E6254",
"6 	c #66926C",
"7 	c #A2A6A4",
"8 	c #BABEBC",
"9 	c #7A7664",
"0 	c #32923C",
"a 	c #466A4C",
"b 	c #2E5E34",
"c 	c #7A827C",
"d 	c #362E2C",
"e 	c #628A68",
"f 	c #3A8A44",
"g 	c #4A9E54",
"h 	c #26CE3C",
"i 	c #32AA40",
"j 	c #666A67",
"k 	c #2EBE3C",
"l 	c #52A25C",
"m 	c #6E7E74",
"n 	c #929294",
"o 	c #528E5C",
"p 	c #5E5E5C",
"q 	c #2E2624",
"r 	c #2E8A3C",
"s 	c #3E964C",
"t 	c #569A5C",
"u 	c #4E9654",
"v 	c #424240",
"w 	c #6E7271",
"x 	c #36A244",
"y 	c #566E5C",
"z 	c #465E4C",
"A 	c #828A84",
"B 	c #B6BABC",
"C 	c #9EA2A4",
"D 	c #D6D6D4",
"E 	c #56765C",
"F 	c #4AA254",
"G 	c #767674",
"H 	c #2EB63C",
"I 	c #4E4E4C",
"J 	c #AAAEAC",
"K 	c #373634",
"L 	c #66726C",
"M 	c #4F8A54",
"N 	c #728A74",
"O 	c #5A5654",
"P 	c #49AA54",
"Q 	c #8A968C",
"R 	c #669A6C",
"S 	c #C6C6C4",
"T 	c #48724C",
"U 	c #6A8A6C",
"V 	c #666E68",
"W 	c #666664",
"X 	c #76725C",
"Y 	c #2A2A2C",
"Z 	c #36823C",
"` 	c #628264",
" .	c #B6B6B4",
"..	c #5E9264",
"+.	c #66766C",
"@.	c #453E3C",
"#.	c #9E9E9C",
"$.	c #768274",
"%.	c #D2D2D4",
"&.	c #42A64C",
"*.	c #8E8E8C",
"=.	c #5E8A64",
"-.	c #32A23C",
";.	c #4E4644",
">.	c #4A8E54",
",.	c #729274",
"'.	c #AAAAAC",
").	c #7C8A7C",
"!.	c #628E64",
"~.	c #35B244",
"{.	c #36BE44",
"].	c #4E9A57",
"^.	c #2A2624",
"/.	c #2EAE3C",
"(.	c #426A44",
"_.	c #2A9E34",
":.	c #B2B6B4",
"<.	c #22C634",
"[.	c #9A9E9C",
"}.	c #4A824C",
"|.	c #42AE4C",
"1.	c #CECECC",
"2.	c #322E2C",
"3.	c #447E4C",
"4.	c #6E7A6C",
"5.	c #A6AAAB",
"6.	c #C2C2C4",
"7.	c #7D7E7C",
"8.	c #4E6E54",
"9.	c #42563C",
"0.	c #5A665C",
"a.	c #5A725C",
"b.	c #36663C",
"c.	c #3E9E44",
"d.	c #46664C",
"e.	c #527E54",
"f.	c #667E6C",
"g.	c #5A5E5C",
"h.	c #665E5C",
"i.	c #3E9244",
"j.	c #7A7A7C",
"k.	c #3A6E44",
"l.	c #627E64",
"m.	c #365E3C",
"n.	c #5E9A64",
"o.	c #3EA24C",
"p.	c #565654",
"q.	c #668654",
"r.	c #6E6E6C",
"s.	c #767274",
"t.	c #2AAE3A",
"u.	c #4A9A54",
"v.	c #26C234",
"w.	c #26BA34",
"x.	c #568E5C",
"y.	c #4A4A4C",
"z.	c #BEC2C4",
"A.	c #363231",
"B.	c #2EC23C",
"C.	c #4EA654",
"D.	c #4E9254",
"E.	c #626264",
"F.	c #302A2C",
"G.	c #3A9A44",
"H.	c #5A9E64",
"I.	c #527254",
"J.	c #426244",
"K.	c #DADADC",
"L.	c #2EBA3C",
"M.	c #5A5A5C",
"N.	c #6A6264",
"O.	c #262624",
"P.	c #858684",
"Q.	c #58865C",
"R.	c #3E3E3C",
"S.	c #6E8674",
"T.	c #3AB24C",
"U.	c #CACECC",
"V.	c #2DA63C",
"W.	c #44924C",
"X.	c #486E4C",
"Y.	c #326234",
"Z.	c #969694",
"`.	c #6A7A6C",
" +	c #709674",
".+	c #529E5C",
"++	c #368A40",
"@+	c #8A8A8C",
"#+	c #767A78",
"$+	c #368640",
"%+	c #76867C",
"&+	c #8E9290",
"*+	c #4E4A4C",
"=+	c #4A8650",
"-+	c #323234",
";+	c #425A44",
">+	c #3A723C",
",+	c #767E74",
"'+	c #3E3634",
")+	c #2E9A3C",
"!+	c #4A7A4C",
"~+	c #567A5C",
"{+	c #4AA654",
"]+	c #5E9664",
"^+	c #5E8E64",
"/+	c #32A63C",
"(+	c #4A9254",
"_+	c #3EA64C",
":+	c #B2B2B4",
"<+	c #5A9661",
"[+	c #4A9654",
"}+	c #2ABE3C",
"|+	c #9A9A9C",
"1+	c #46A254",
"2+	c #727674",
"3+	c #8A8E8C",
"4+	c #2AB63C",
"5+	c #7E8282",
"6+	c #668A6C",
"7+	c #36AA44",
"8+	c #6A6A6C",
"9+	c #32BE44",
"0+	c #52965C",
"a+	c #46423C",
"b+	c #727274",
"c+	c #868A8B",
"d+	c #32B641",
"e+	c #6A6E6C",
"f+	c #7A7264",
"g+	c #46A650",
"h+	c #668E6C",
"i+	c #529A5C",
"j+	c #2E9E3C",
"k+	c #727A74",
"l+	c #5A8E64",
"m+	c #3A3234",
"n+	c #32C244",
"o+	c #529258",
"p+	c #3E9A4C",
"q+	c #46624C",
"r+	c #262224",
"s+	c #3E3A3C",
"t+	c #728274",
"u+	c #525254",
"v+	c #3EAE4C",
"w+	c #CACACC",
"x+	c #2E2E2C",
"y+	c #4A4644",
"z+	c #6A926C",
"A+	c #A6A6A4",
"B+	c #BEBEBC",
"C+	c #3E8A44",
"D+	c #BABABC",
"E+	c #A2A2A4",
"F+	c #524E4C",
"G+	c #AEAEAC",
"                                                                                                ",
"                                      #.:+D+:+G+G+D+:+#.P.                                      ",
"                                S w+6.D+D+ .:+:+G+'.A+E+#.Z.|+n                                 ",
"                          Z.S w+S 6.6.6.D+D+ .:+G+G+'.A+E+#.|+n n Z.                            ",
"                        D 1.1.w+w+S 6.6.6.B+D+D+ .:+G+A+A+#.#.|+Z.*.P.5+                        ",
"                    :+%.%.%.1.1.w+w+S S 6.B+B+D+ .:+G+G+'.A+E+#.Z.n *.@+} 2+                    ",
"                  %.K.D %.1.1.1.w+w+S S S 6.B+B+D+D+ .:+G+'.E+E+#.Z.n 3+S.7.r.                  ",
"                D D D %.%.%.1.1.1.1.w+S S S 6.B+B+D+ .:+:+'.'.E+#.|+Z.} S.%+5+@                 ",
"              K.K.D D D %.%.1.1.1.1.w+w+S S S 6.6.B+B+ . .'.E+|+Z.n Q  +=.1 l.G b+              ",
"            w+K.D D D D D %.%.1.1.1.1.S 6.B+D+D+ .:+G+G+'.#.Z.Z.*.A N ,...N { ,+j.j.            ",
"          6.D D D D %.1.%.1.1.w+w+w+S B+ .B :+:+- G+A+E+#.|+Z.Z.3+).<+,.o+l+%+,+j.b+W           ",
"          D D D %.%.1.1.w+1.w+/ S 6.B+B+8  . .:+G+'.5.7 E+[.! n P.H.l t u.6 =.t+j.j.j.          ",
"        %.%.%.%.1.%.%.1.w+/ S S z.6.B+D+D+ .:+:+G+'.A+E+#.|+Z.*.7.]+h+..u.o+4 Q.7.G r.W         ",
"      n %.1.1.1.1.1.w+w+w+S S 6.6.B+8 B+ . .:.G+J '.A+C #.|+n @ $..+{+!.u. +o =+$.j.s.b+        ",
"      w+1.1.1.1.w+w+S 6.6.6.6.6.6.B+D+D+B :+:+G+'.5.A+E+#.! c+j.P |..+i+: n.]+e ` m b+8+E.      ",
"      w+1.1.w+w+w+S S z.B+B  . .B 8 D+D+ .:+G+'.'.A+E+C |+@+G m P C.g+0+_+o+z+x.=+k+G b+r.      ",
"    w+S S w+S S / 6.6.B+D+ .- '.'.G+J G+- J J '.'.A+E+[.n j.[ ` ; {+{+l+_+(+>.^+e f.< r.E.M.    ",
"    6.S S w+S S 6.S B+B+D+ .:+G+'.7 E+C |+|+|+C 7 7 #.[.@ e+j x.n+9+1+_+/+W.4 W.f }.< r.r.b+    ",
"    B+6.6.S S S B+6.B+B+8  . .G+'.A+E+|+3+P.P.c+3+&+Z.3+r.W W Q.].g+d+~.7+x G.3.% % E e+W p     ",
"  *.B+6.6.S 6.6.z.B+B+D+D+D+ . .:+'.A+#.*.@ 7.j.G G j.b+8+W e+g g+_+[+> 7+G.~+~ Z E 4.b+W E.    ",
"   .D+D+B+6.6.B+D+8 B+D+D+ . .:+:+'.A+[.@+@ j.j.j.b+e+8+8+8++.u g k k H /.i.i.f T k.= b+8+M.p.  ",
"   . .D+B+6.6.B+B+ . . . . .:+:+- G+J |+@+7.7.j.#+#+b+b+w w 0+h ~.>.~.4+/./+_ Z $+9.a w W W W   ",
"   . . .D+B+6.6.D+ . .:+:+:+- G+- G+'.Z.@ 5+7.7.7.7.#+G G m L.T.1+~.e././.i j+0 X.z d.I.W p u+  ",
"  G+- :+ .D+D+B+B+ .- :+:+- - G+'.'.'.n 5+7.c 7.7.7.j.j.t+]+h F &.: >.c.t.V.j+++$+q+T y 0.E.W   ",
"  '.G+:+:+D+D+B+z. .G+J '.'.J '.5.5.7 *.5+7.5+7.7.,+#+#+S.<+|.v+L.<.w.i t.2 j+0 r b.d.y 0.O u+  ",
"  A+'.G+:+:+D+D+B+:+'.'.'.'.A+5.A+E+|+c+7.7.7.7.j.j.#+G P h B.^ d+) w.| t.2 ++& m.b d.k.q+E.E.  ",
"  :+A+'.G+G+ . .B+B '.5.A+A+E+E+E+C Z.P.@ @ 5+5+7.7.j.#+G e ].o+o M W.2 # _.+ + $ b & a z O p.  ",
"  *.E+'.'.G+:+ .D+B+:+E+E+C E+#.C #.&+P.@ 5+@ 5+7.j.,+#+#+o+o+o L = e.!+q.9.x+-+Y Y O [ p M.E.  ",
"  @+#.E+A+'.G+G+:+ .'.[.#.[.#.|+! Z.@+@ @ 5+@ 5+5+7.j.#+#+< b+e+j W M.3 9 a+O.Y Y Y p.W g.u+    ",
"    |+E+E+A+'.G+:+ .G+E+|+|+! ! ! n P.5+5+5+5+@ 7.7.j.G b+b+w r.j p.@.F.X a+Y Y Y 3 p E.M.p.    ",
"    Z.|+#.E+A+'.G+:+ .A+Z.Z.Z.n Z.3+P.7.7.7.7.7.#+7.#+G b+b+w W y+x+2.O.X R.O.Y 3 W 8+p u+I     ",
"    @ Z.|+#.E+A+'.G+:+|+&+n *.n *.P.7.7.7.7.7.#+j.G G 2+2+r.M.'+q . . r+[ R.Y 3 8+r.W M.p.E.    ",
"      n Z.|+#.#.E+A+G+E+Z.*.@+@+@+@ j.#+#+#+#+#+G 2+b+r.W ;.A.O.r+. O.. O.3 p e+G 8+p p.I       ",
"      P.*.n Z.#.E+E+A+'.! A c+c+P.7.j.j.G G G 2+2+r.e+p.s+Y r+r+. O.O.O.y.G 7.G 8+E.M.u+p       ",
"        @+*.n Z.|+#.E+E+*.@ @ @ 5+#+2+2+2+2+b+w w W I A.r+q O.O.O.. O.*+j.@ j.b+8+E.p.y.        ",
"        7.@+@+*.Z.Z.#.E+|+P.5+7.#+G b+b+b+w w 8+M.' d ^.^.O.O.O.. O.y.#+@ j.b+8+p p.I p         ",
"          @ P.@+*.n n |+#.P.j.j.2+w r.e+r.e+W I K Y 2.F.d ^.O.O.Y y.G @ j.b+8+W M.u+3           ",
"          W @ P.@+@+n n Z.*.7.b+r.r.e+8+j M.v x+2.2.d x+F.Y O.Y y.G @ j.b+[ W M.p.y.            ",
"            r.j.@ @ P.@+*.n 7.r.8+8+8+E.] ' x+2.d 2.m+F+W W E.p G 7.j.b+8+E.p u+y.y.            ",
"              s.9 7.@ P.@+@+#+8+j W g.3 K x+x+A.-+m+@.7.*.@+P.@ 7.j.r.8+W p u+I M.              ",
"                b+G G j.@ @ 7.8+r.s.r.y.K -+-+m+A.y+s.P.P.@ 7.G s.r.8+p M.u+y.y.                ",
"                  W b+G G j.j.G j.@ @ b+E.E.E.N.E.b+7.7.j.G b+r.8+W p M.u+I p.                  ",
"                    8+8+r.b+G G j.7.j.7.7.j.7.j.j.j.j.s.b+r.8+W p M.p.I y+                      ",
"                        E.8+8+r.r.r.b+b+2+G b+s.b+b+8+8+W E.E.M.O u+y.y.                        ",
"                            p E.W 8+8+W 8+8+8+8+W W E.E.p M.p.u+I y.                            ",
"                                M.p p E.p E.p p p p M.p.u+I I ]                                 ",
"                                        u+p.u+F+I I u+F+                                        ",
"                                                                                                "};
