/* XPM */
static char * rndpdf_xpm[] = {
"48 48 17 1",
" 	c None",
".	c #09090B",
"+	c #8E8E8E",
"@	c #CDCDCD",
"#	c #FD1111",
"$	c #FCF9F7",
"%	c #FD4F4F",
"&	c #4C4C4C",
"*	c #FE9292",
"=	c #F0D1B5",
"-	c #363535",
";	c #AFAFAF",
">	c #727272",
",	c #FD6F70",
"'	c #FD3331",
")	c #FBAFA8",
"!	c #4A1A1C",
"                                                ",
"                   >+;;+;++>&                   ",
"                ;;;@;;;;;+;++++>                ",
"             +;@;@;;;;;;+;+;++++>>              ",
"            @@@@;@;;;;+;;++++++++>>>            ",
"          ;@@@@@;@;;;;;;+;;+++>+>+>>>-          ",
"         @@@>++++++++>>+>>>>>>>&>+>>>>&         ",
"        @@@;&@@@=@@@@=@@@$@=@=@&->>>>>>&        ",
"       @@@@;&@$$$$$$$$$$$$$$$$$&>+&>>>>>&       ",
"      @@>&>&.-&--&&-&--&--&--&@&;=>&>>&>&&      ",
"     ;@@--;;+...+;;&..&;;;+...;&;$@+>>>&>&-     ",
"     @@@.&@>>+..;+&>&.&@&>&...;&;$$@+&>&>&&     ",
"    @@@@-&@++>..@&.+>.>@+>....;&&+++>--&>&&&    ",
"   +@@@@.>@>>...;&.+>.>@+>....;;+++++>-&&>&&    ",
"   @;@@;-&;.....@+>+&.&;......@$$$$$$@-&&&&&&   ",
"   @@@;@.->.....++;-..->......;$$$$$$@&&&>&&&   ",
"  ;;;@;@>&&&.-&-&&&&-&-!-&--&&@$$$$$$@-&&&&&&-  ",
"  @;@;;;@;;;&@$$$$$$$=*%=$$$$$$$$$$$$;&&>&&&&-  ",
"  ;;;@;;;;;;-$$$$$$$$*,)%=$$$$$$$$$$$@-&&&&&&-  ",
" +@;;;;;;;;;-$$$$$$$$*%)')$$$$$$$$$$$@-&&&&&-&  ",
" +;;;;;;;;;+&=$$$$$==*%*%$$$@$$$$$$$$@-&&&&&&-- ",
" ;;;;;;;;;;+&$$$$$$$$*'#'$$$$$$$$$$$$@-&&&&&--- ",
" ;;;;;;+;+;+&@$$$==$$=,#'$$$$$=$$$$$$@-&&&&-&-- ",
" ;;+;+;+;+;+&$$$$$$$$$*#'$$$$$=$$$$$$@&-&&&&--- ",
" +;+;+;+;+;+-$$$$$$$$$)##,$$$$$$$$$$$@--&&----- ",
" ;+;+;+;++++-$$$=$$$$$*',',$$$$=$$$$$@&-&-&&--- ",
" ++;++++;+++&$$$=$$$$=%%=,#*$$$=$$$$$@--&&----. ",
" ++++;++++++-$$$$$$$$*'*$=,,******=$$@--&-&---! ",
" &+;++++++++-$$$$$$$=%%$$$)*###'%%*=$@--&-----  ",
"  ++++++++++-$$$@$$$,#%$)*''%%%*)),*$@&--&----  ",
"  +++++++>+>&@$$$$$$,#%*#'%=$$$,%%*$$@--------  ",
"  >++>+>++>+-$$$$$$=,#''%$$$$$$$=$$$$@-&-----.  ",
"   >+>+>>+>+-$$$$==,#,$=$$$$$$==$$$$$@-------   ",
"   >>+>+>>>>-$$$$=%#,$$$$$$$$$$$$$$$$@------.   ",
"    >>>>+>>+-$$=,'##*$$$$$$$=$$$$$$$$@-----.    ",
"    >>>>>>>>-$$%#*%,===$$=$$=$$$$$$$$@------    ",
"     >>>>>>>-=$'*=%)$$$$$=$$$$$$$$$$$@---.-     ",
"     &>>>>>>-$='%%*=$$$$$$$$$$$$$$$$$@----      ",
"      &>>&>>&$$)**=$$$$$$$$$$$$$$$$$$@--..      ",
"       &>>&>.>+>+>++++>++++>++++>+++>>.-!       ",
"        &&>>............................        ",
"         &&&&-&----------------!-.-.-..         ",
"          -&>&&&&&&&&&&-&-----------.           ",
"            &&&&&&&&-&-&-&-------.--            ",
"              &&&&&&&-&----------.              ",
"                --&--&-------.-.                ",
"                    -------.                    ",
"                                                "};
