/* XPM */
static char * rndreal_xpm[] = {
"48 48 256 2",
"  	c None",
". 	c #100A0C",
"+ 	c #737E91",
"@ 	c #3C465A",
"# 	c #5E6269",
"$ 	c #414697",
"% 	c #BABABB",
"& 	c #727274",
"* 	c #999EAF",
"= 	c #2B2A2C",
"- 	c #49566C",
"; 	c #828EA4",
"> 	c #3A3A3D",
", 	c #5A62AF",
"' 	c #525694",
") 	c #4A464D",
"! 	c #7A7EB4",
"~ 	c #6A666C",
"{ 	c #7272A8",
"] 	c #363A7C",
"^ 	c #575657",
"/ 	c #3E46BC",
"( 	c #3A3A64",
"_ 	c #2A2A64",
": 	c #827E84",
"< 	c #928E94",
"[ 	c #4A4A74",
"} 	c #AEAEAD",
"| 	c #1D1A1F",
"1 	c #71728F",
"2 	c #565674",
"3 	c #434679",
"4 	c #4C56C4",
"5 	c #423E49",
"6 	c #666AB4",
"7 	c #5E628C",
"8 	c #333235",
"9 	c #DADADC",
"0 	c #4E4E4D",
"a 	c #4A4E94",
"b 	c #242225",
"c 	c #9EA6B4",
"d 	c #969694",
"e 	c #C9CACC",
"f 	c #5E5E60",
"g 	c #3E4E64",
"h 	c #3D4254",
"i 	c #6A6A9C",
"j 	c #7D8699",
"k 	c #626266",
"l 	c #444ECA",
"m 	c #464646",
"n 	c #767274",
"o 	c #3A3A54",
"p 	c #5C62BE",
"q 	c #868685",
"r 	c #575EBF",
"s 	c #333247",
"t 	c #474A96",
"u 	c #6C72C7",
"v 	c #707A8C",
"w 	c #25223F",
"x 	c #9296CC",
"y 	c #7E7E7C",
"z 	c #525E6C",
"A 	c #595E98",
"B 	c #7E86D4",
"C 	c #524E58",
"D 	c #525684",
"E 	c #8A8ECC",
"F 	c #6E6E6D",
"G 	c #56566C",
"H 	c #616ACA",
"I 	c #9A9A9C",
"J 	c #626278",
"K 	c #434ED5",
"L 	c #84869E",
"M 	c #2E2A44",
"N 	c #B6B6B6",
"O 	c #565E74",
"P 	c #444E6C",
"Q 	c #525EBC",
"R 	c #727AD0",
"S 	c #424AAF",
"T 	c #C1C2C3",
"U 	c #9E9E9C",
"V 	c #4A4A5F",
"W 	c #4C56CE",
"X 	c #424245",
"Y 	c #666A88",
"Z 	c #2A262B",
"` 	c #A6A6A5",
" .	c #43465D",
"..	c #6C7280",
"+.	c #50566A",
"@.	c #8E96AC",
"#.	c #3E3A3E",
"$.	c #8282BC",
"%.	c #323AAC",
"&.	c #4A526C",
"*.	c #B2B2B5",
"=.	c #3A363B",
"-.	c #D2D2D3",
";.	c #7276C4",
">.	c #7C7E96",
",.	c #161214",
"'.	c #424A9D",
").	c #322E33",
"!.	c #8E8E8C",
"~.	c #6466A8",
"{.	c #4A4A4D",
"].	c #404270",
"^.	c #1A1A34",
"/.	c #767690",
"(.	c #626289",
"_.	c #4E4E94",
":.	c #262625",
"<.	c #6266C4",
"[.	c #6E76D1",
"}.	c #535255",
"|.	c #666EC9",
"1.	c #8A8AA0",
"2.	c #A1A2B1",
"3.	c #A9AAB7",
"4.	c #565AB4",
"5.	c #5E5A5C",
"6.	c #36366C",
"7.	c #221E24",
"8.	c #434687",
"9.	c #E6E6E4",
"0.	c #424280",
"a.	c #3E429C",
"b.	c #E2E2E4",
"c.	c #EEEEEC",
"d.	c #7A7A7C",
"e.	c #767ED1",
"f.	c #363694",
"g.	c #CECACC",
"h.	c #444EB4",
"i.	c #787A8F",
"j.	c #5A5A94",
"k.	c #3E3E8C",
"l.	c #868AC4",
"m.	c #C6C6C5",
"n.	c #6A6A84",
"o.	c #3F4AD4",
"p.	c #9292A4",
"q.	c #4B4A8C",
"r.	c #4C4E64",
"s.	c #9596A6",
"t.	c #191627",
"u.	c #8D8EA2",
"v.	c #5052A8",
"w.	c #464AB4",
"x.	c #5D5E89",
"y.	c #BEBEBC",
"z.	c #322E6C",
"A.	c #525AC0",
"B.	c #4A52C8",
"C.	c #3E3A54",
"D.	c #3A3647",
"E.	c #2A2640",
"F.	c #4A52D4",
"G.	c #525ACC",
"H.	c #72727C",
"I.	c #768298",
"J.	c #3E4A61",
"K.	c #5E66B4",
"L.	c #555A9C",
"M.	c #AAB2AC",
"N.	c #5A5A84",
"O.	c #6C6E91",
"P.	c #767676",
"Q.	c #5E66C2",
"R.	c #8A8A8C",
"S.	c #515A6C",
"T.	c #3E3A68",
"U.	c #625E61",
"V.	c #726E74",
"W.	c #525279",
"X.	c #7276B4",
"Y.	c #666EBC",
"Z.	c #7E828C",
"`.	c #595EA7",
" +	c #9A9AA8",
".+	c #7E82D0",
"++	c #3E4294",
"@+	c #120E14",
"#+	c #BABEBC",
"$+	c #2E2E2C",
"%+	c #6A6A6D",
"&+	c #5A5A5C",
"*+	c #424AC4",
"=+	c #2E2E68",
"-+	c #929294",
";+	c #4E4E78",
">+	c #1E1E1C",
",+	c #707690",
"'+	c #363636",
")+	c #A2AABC",
"!+	c #666666",
"~+	c #4652CC",
"{+	c #393E4C",
"]+	c #363644",
"^+	c #969AC4",
"/+	c #828AD1",
"(+	c #585A69",
"_+	c #656678",
":+	c #4652D4",
"<+	c #848AA0",
"[+	c #2F2E3C",
"}+	c #C2C6C4",
"|+	c #A2A2A4",
"1+	c #A9AAAB",
"2+	c #454A61",
"3+	c #6E7684",
"4+	c #7E8298",
"5+	c #1A161C",
"6+	c #656686",
"7+	c #464A8C",
"8+	c #EAEAEC",
"9+	c #7A82D0",
"0+	c #CFCECD",
"a+	c #949AAC",
"b+	c #8E92A4",
"c+	c #8692A4",
"d+	c #828284",
"e+	c #4E5AC4",
"f+	c #DEDEDC",
"g+	c #44526C",
"h+	c #4E5264",
"i+	c #5E5E78",
"j+	c #3A3AA4",
"k+	c #3E3E3D",
"l+	c #3E3E4D",
"m+	c #727680",
"n+	c #464E64",
"o+	c #4E5294",
"p+	c #5D6274",
"q+	c #3E46A4",
"r+	c #383A74",
"s+	c #ADAEBC",
"t+	c #575684",
"u+	c #5A629C",
"v+	c #222234",
"w+	c #5D5E6C",
"x+	c #5A62CC",
"y+	c #565ECC",
"z+	c #6A72D4",
"A+	c #6B6E7C",
"B+	c #626AD4",
"C+	c #434254",
"D+	c #525674",
"E+	c #6266B4",
"F+	c #525264",
"G+	c #7A7A9C",
"                                                                                                ",
"                                      d.-+` |+U I d -+P.&+                                      ",
"                                1+% *.} 1+` |+* I -+-+-+!.R.q F                                 ",
"                          q T #+% M.} 1+|+U d -+-+!.!.q q q j y d...                            ",
"                        }+}+T N } 1+|+U d d -+R.R.q q Z.y y y y d.d.P.%+                        ",
"                    ` -.m.y.*.} 1+U I d -+R.q q d+y d.d.d.P.P.& & & & F A+k+                    ",
"                  }+0+}+y.N } |+U d -+!.q q y d.P.d.& & & F & & F F F %+F %+}.                  ",
"                -.0+m.y.*.1+|+U d !.q d+y d.P.P.& F F F %+%+!+!+!+!+!+!+!+!+!++.                ",
"              -.0+}+% *.1+|+I -+!.q d+y P.& F %+%+!+k k k !+k k k k k k k # # # ^               ",
"            e -.m.y.*.1+|+I -+R.d+y P.& %+%+!+!+U.f f f f 5.f f f f f f f f f 5.z X             ",
"          |+-.e % N } 3.2. +s.u.<+4+>.>.i.1 A+O.A+n.n.Y %+_+_+_+!+!+J !+# f f &+&+&+8           ",
"          0+}+#+% N 3.2. +p.1.L : i./.O.n.Y 6+_+(.J i+i+i+i+i+O i+O w+(+w+# &+^ ^ +.0           ",
"        e e y.N *.s+ +p.u.1.4+G+/.i n.(.x.x.N.t+D W.W.W.W.W.W.D+2 2 2 G }.O (+^ }.^ }.m         ",
"      R.e T N s+s+)+s.^+x l.l.9+e.R z+u |.H Q.Q.p Q.p x+p , p `.`.u+7 A F+O w+^ 0 }.0 {.        ",
"      T T % } ` 3.2.u.x E B .+R [.[.|.|.<.r A.' '.q.q.q.7+o+L.4.`.`.`.A r.z S.}.0 0 0 0 k+      ",
"      }+#+*.1+U 2.* L E /+.+R R [.|.Q.v.3 C.D.s s 8 8 '+D.D.#.5 3 [ ' L.r.S.S.}.{.{.0 {.m       ",
"    ` y.N 1+` I * a+>.l.B e.[.z+p [ C+#.=.8 ).).).).M ).8 8 '+=.> #.k+C+C++.+.0 {.m {.m {.$+    ",
"    #+N } ` I d a+@.d.$.9+R ;.j.{.X #.=.8 = = Z Z b Z = = ).8 '+=.m {.X X S.D+{.m m m m m {+    ",
"    % *.1+|+d !.b+c+H.! e.u N.C 5 #.8 ).= Z 7.7.b 7.b b = = ).8 k+|+|+{.{+- &.) m X m X X X     ",
"  y *.} ` I -+R.b+; O.{ ;.~.C X U.U -+|+y U.U N !.#.b & |+1+d }.}.*.d > #.- - m X k+X X k+k+    ",
"  d M.` U d !.q u.; A+X.;.t+{.X d 9 0+|+|+9.-.1+8+% X I -+-+-.d P.% d.'+=.g+&.C+X k+k+k+X k+:.  ",
"  } 1+` I -+R.d+<+j ~ { ;.t+) X % 9 k :.|+c.#+} % |+I 0+*.m.-.y I N f '+> g+g+X k+k+k+k+k+{+:.  ",
"  ` ` |+d -+q y j j _+i u A ) ^ 0+g.$+>+n c.}+}+e k -.b.U m.g.!+N } k+8 '+P g+X k+k+k+k+k+k+$+  ",
"  ` |+I d R.d+y L I.k i |.<.[ ) !+^ Z 7.| k+F !+).@+=.%+^ }.^ #.&+C 8 8 8 g ;+k+> > > > > > :.  ",
"  * |+I -+R.d+P.I.>.k 6+|.B+p 3 s ).Z >+5+,.@+. . @+,.5+| >+b :.= = ).8 '+J.P l+> > '+> > '+$+  ",
"  U U d !.q y d.>.+ k (.Y.H p y+_.6.E.b | 5+,.@+,.,.5+| | b b Z Z ).[+s s g 2+k+'+> '+> '+'+b   ",
"  -+d -+!.d+d.P.+ v U.N.6 H x+y+G.W w.k._ v+| t.5+5+5+7.7.b b = Z s 0.C.s J.2+o '+> '+'+'+'+:.  ",
"  y d -+q d+d.n >.+ w+x.6 Q.x+y+G.W F.~+K o./ %.f.f.r+7.7.b Z M r+'.'.( 8 J.@ k+'+'+'+'+'+$+5+  ",
"  z -+!.q d+d.& i.v U.i+6 Q.p r G.e+F.:+K K o.o.o.o.q+E.b E.6.$ w.w.'.( 8 J.@ > 8 '+8 '+'+8     ",
"    !.!.q y d.H.m+,+f N.6 K.p r A.W 4 ~+B.K K K K *+_ w z.a.w.h.'.'.'.( 8 @  .'+'+$+'+$+$+=     ",
"    R.R.q y P.& v 3+k &+6 K., p r e+4 B.B.~+l l l a.z.++h.h.S S '.'.8.o 8 h h 8 '+8 8 $+8 :.    ",
"    & q d+d.d.& P.3+f 5.7 7 A j.' o+o+o+t t t $ 8.0.3 8.0.0.8.0.0.].].s 8 h h '+8 $+'+$+$+,.    ",
"      Z.d+d.P.F H...# &+}.0 {.m X l+D.]+8 [+[+[+M M M [+[+M $+[+[+[+8 8 8 {+{+8 $+$+$+$+=       ",
"      P.y d.P.& ....U.5.^ }.{.) X k+k+#.=.=.'+8 8 8 8 $+$+8 8 8 8 8 $+$+'+{+{+'+$+8 $+= >+      ",
"        d.d.n & F A+# 5.^ }.0 {.) X 5 k+> =.8 8 8 ).8 8 ).).).8 8 8 8 [+'+{+{+> '+$+$+:.        ",
"        F & P.F %+%+_+J k w+(+(+G F+h+r.V V V {. . .C+h h h h {+{+{+{+> ]+o '+> $+$+= >+        ",
"          & & F %+!+!+J k w+(+(+G +.h+h+r.r.2+V 2+2+ . . .C+C+h l+{+{+o '+[+$+8 $+= :.          ",
"          m %+F %+!+# f ^ ^ }.0 {.) m X X k+k+> > '+=.'+'+'+8 8 8 8 $+8 8 $+$+= = :.            ",
"            }.%+%+!+f f &+^ }.0 {.) m X X k+k+> > > '+'+'+'+8 '+8 8 8 $+8 $+$+= :.>+            ",
"              f k k k f ^ ^ }.}.0 {.m X X k+k+#.> > > '+'+'+'+8 8 8 $+$+$+$+= :.>+              ",
"                &+f f f ^ ^ }.0 0 {.{.m m k+X k+> > > '+'+'+8 8 8 $+8 $+$+= = >+                ",
"                  0 &+&+&+^ }.}.{.{.m m X X k+k+> > '+'+'+8 '+8 8 $+$+= = :.5+                  ",
"                    8 ^ ^ }.}.}.0 {.m m m X k+k+> k+> '+'+'+8 '+$+8 $+= :.                      ",
"                        m 0 0 0 {.{.{.m X k+X k+k+> > '+'+8 '+$+$+= = >+                        ",
"                            X {.{.m m m m X X > > > > '+'+$+$+$+$+:.                            ",
"                                8 X X k+k+k+> > '+'+'+8 8 $+= >+                                ",
"                                        :.8 8 $+$+= = >+                                        ",
"                                                                                                "};
