/* XPM */
static char * redhat_xpm[] = {
"48 48 256 2",
"  	c None",
". 	c #030303",
"+ 	c #8E8E8E",
"@ 	c #56120E",
"# 	c #5E5E5E",
"$ 	c #721212",
"% 	c #B6605C",
"& 	c #BEBEBE",
"* 	c #8A2622",
"= 	c #2A2A2A",
"- 	c #8E5050",
"; 	c #AB605C",
"> 	c #464646",
", 	c #727272",
"' 	c #AEAEAE",
") 	c #9E1A1A",
"! 	c #9E3E3A",
"~ 	c #5B3131",
"{ 	c #A2A2A2",
"] 	c #976060",
"^ 	c #3A3A3A",
"/ 	c #7A7A7A",
"( 	c #BA726F",
"_ 	c #BA2220",
": 	c #563E3E",
"< 	c #6A2E2A",
"[ 	c #AE2E29",
"} 	c #C18F8D",
"| 	c #101010",
"1 	c #A4504C",
"2 	c #8A5E5A",
"3 	c #B07E7E",
"4 	c #A17371",
"5 	c #725252",
"6 	c #473231",
"7 	c #929292",
"8 	c #361612",
"9 	c #8A8A8A",
"0 	c #8B3532",
"a 	c #AD3E39",
"b 	c #626262",
"c 	c #624848",
"d 	c #1A1A1A",
"e 	c #363636",
"f 	c #C2C2C2",
"g 	c #BC8684",
"h 	c #7A3835",
"i 	c #969696",
"j 	c #AA3A36",
"k 	c #868686",
"l 	c #AD4E49",
"m 	c #AF7471",
"n 	c #525252",
"o 	c #776968",
"p 	c #954745",
"q 	c #967573",
"r 	c #6E6E6E",
"s 	c #B22E29",
"t 	c #C6C6C6",
"u 	c #9C7C7A",
"v 	c #B6B6B6",
"w 	c #BA8E8A",
"x 	c #BA928E",
"y 	c #BA6663",
"z 	c #1F1E1E",
"A 	c #A4312E",
"B 	c #AA4A46",
"C 	c #7D4B49",
"D 	c #B97A77",
"E 	c #5D5050",
"F 	c #323232",
"G 	c #3E3E3E",
"H 	c #828282",
"I 	c #AA5652",
"J 	c #9A9A9A",
"K 	c #6E423E",
"L 	c #825E5A",
"M 	c #BA2A25",
"N 	c #4E4E4E",
"O 	c #AAAAAA",
"P 	c #9A2E2A",
"Q 	c #CECECE",
"R 	c #AA6A66",
"S 	c #B23E3A",
"T 	c #6A2222",
"U 	c #666666",
"V 	c #B23631",
"W 	c #565656",
"X 	c #AA9292",
"Y 	c #8A423E",
"Z 	c #AE3A33",
"` 	c #B24F4B",
" .	c #5A2622",
"..	c #B62E27",
"+.	c #A34A46",
"@.	c #232221",
"#.	c #6C3A38",
"$.	c #9A6E6E",
"%.	c #7A3F3D",
"&.	c #925A5A",
"*.	c #321A16",
"=.	c #4E3A3A",
"-.	c #8C3A36",
";.	c #241410",
">.	c #A68E8E",
",.	c #AE5854",
"'.	c #B24642",
").	c #96504C",
"!.	c #523E3E",
"~.	c #645858",
"{.	c #A03631",
"].	c #2E2E2E",
"^.	c #6E5E5C",
"/.	c #827676",
"(.	c #9A3A36",
"_.	c #B86A66",
":.	c #382523",
"<.	c #8E6262",
"[.	c #9E9E9E",
"}.	c #1A0602",
"|.	c #C1261E",
"1.	c #B8807C",
"2.	c #A69292",
"3.	c #7E7E7E",
"4.	c #A35A59",
"5.	c #943A36",
"6.	c #767676",
"7.	c #B23A34",
"8.	c #4A4A4A",
"9.	c #424242",
"0.	c #A66462",
"a.	c #5A5A5A",
"b.	c #AF6664",
"c.	c #9E4441",
"d.	c #A6A6A6",
"e.	c #7E3A38",
"f.	c #BE2E27",
"g.	c #802A26",
"h.	c #965652",
"i.	c #4A3A3A",
"j.	c #4A1E1E",
"k.	c #B28282",
"l.	c #5A3A3A",
"m.	c #763B38",
"n.	c #B95652",
"o.	c #AA322D",
"p.	c #BE1E1A",
"q.	c #825252",
"r.	c #B2B2B2",
"s.	c #81403C",
"t.	c #B94E48",
"u.	c #6A6A6A",
"v.	c #AE4A42",
"w.	c #30221E",
"x.	c #B9322C",
"y.	c #BE2A23",
"z.	c #943632",
"A.	c #2A1A16",
"B.	c #A63831",
"C.	c #161616",
"D.	c #966A66",
"E.	c #423632",
"F.	c #362A2A",
"G.	c #B2423E",
"H.	c #BE362E",
"I.	c #BABABA",
"J.	c #AD4641",
"K.	c #D3D3D3",
"L.	c #866C68",
"M.	c #633E3D",
"N.	c #BE6D6A",
"O.	c #806666",
"P.	c #9A2222",
"Q.	c #BF817D",
"R.	c #7A7271",
"S.	c #A29696",
"T.	c #8A8280",
"U.	c #CACACA",
"V.	c #BE9694",
"W.	c #B2605E",
"X.	c #6E4E4E",
"Y.	c #6E6262",
"Z.	c #3E3232",
"`.	c #B8524D",
" +	c #AB3630",
".+	c #662222",
"++	c #B93A33",
"@+	c #0A0A0A",
"#+	c #A45652",
"$+	c #733535",
"%+	c #BC5F5B",
"&+	c #A4423D",
"*+	c #B74A43",
"=+	c #523636",
"-+	c #9E3A36",
";+	c #B25A56",
">+	c #906C6A",
",+	c #9A3632",
"'+	c #9A423E",
")+	c #B83E38",
"!+	c #843632",
"~+	c #0E0606",
"{+	c #723D3A",
"]+	c #663A38",
"^+	c #C2221B",
"/+	c #B97672",
"(+	c #932A29",
"_+	c #B7423E",
":+	c #262626",
"<+	c #BA4640",
"[+	c #AA7A76",
"}+	c #C28682",
"|+	c #AF6A69",
"1+	c #9D4F4C",
"2+	c #B2322B",
"3+	c #8C3E3B",
"4+	c #6C3632",
"5+	c #B28A88",
"6+	c #865A58",
"7+	c #665E5E",
"8+	c #3E3636",
"9+	c #463E3E",
"0+	c #B73630",
"a+	c #A53E38",
"b+	c #9C5A58",
"c+	c #96423E",
"d+	c #BA2E28",
"e+	c #A66E6A",
"f+	c #863F3B",
"g+	c #968E8E",
"h+	c #322A2A",
"i+	c #423A3A",
"j+	c #928A8A",
"k+	c #5E5A59",
"l+	c #8E5652",
"m+	c #5E3636",
"n+	c #BC8A87",
"o+	c #766E6E",
"p+	c #C6221A",
"q+	c #B95A54",
"r+	c #AC423C",
"s+	c #AC524F",
"t+	c #6D3E3B",
"u+	c #963E39",
"v+	c #A34642",
"w+	c #BE7A79",
"x+	c #9A4945",
"y+	c #BE7675",
"z+	c #9D5653",
"A+	c #B86E6B",
"B+	c #4E4A4A",
"C+	c #AE322C",
"D+	c #493636",
"E+	c #BE322C",
"F+	c #853A36",
"G+	c #B26E6B",
"                                                                                                ",
"                                      J J J i 7 + 9 9 H 3.                                      ",
"                                d.d.[.J 7 7 + 9 k H H 3.3.3./ 6.                                ",
"                          O ' O { J i 7 + k k H H / / / 6., , , , ,                             ",
"                        r.' d.[.J 7 g+9 k 3./ 6.6., , R.R.R.r r u.u.u.u.                        ",
"                    v v O d.J i X x } g k.3 u u q 4 4 4 4 $.>+o U U U U U b                     ",
"                  I.r.O { J 7 2.} g g 1.1.m m m m m R <.o Y.<.D.O.# # # # b #                   ",
"                I.r.O { i 7 9 n+g 1.1./+/+/+( G+|+0.R R <.a.k+] <.^.a.# a.a.# a.                ",
"              & r.O [.J + k T.}+Q.w+D ( G+|+b.|+b.; 0.0.6+6+] ] ] 2 W W W W a.a.W               ",
"            I.r.O [.J + k 3.u Q.q L._._.y W.y W.W.; ,.4.4.4.4.b+b+&.E n n n n n W n             ",
"          v r.O { i + k 3.6.m y+O.# k+~.W N E - ;+,.I ,.4.#+#+z+z+h.5 8.N N N N n n N           ",
"          v O { i + k 3.6.r /+N.|+k+N E X.C ).I ` ,.` s+l 1 1 1+).h.- 8.> 8.N N 8.N N           ",
"        r.' { J 7 k 3., r U N._.%+% z+n.n.`.t.`.*+l v.l l 1 l 1 1+).).c > > > 8.> 8.8.8.        ",
"      O ' { i + k 3.6.r U Y._.%+%+q+n.`.t.*+v.<+v.*+v.'.v.B +.+.x+1+x+C 9.9.> > > > 8.8.        ",
"      ' d.[.i >.5+k.1.( |+~.6+%+n.`.t.t.*+<+<+_+_+_+G.G.G.J.J.v+v+x+p p G G G 9.9.9.9.> >       ",
"      O [.S.} } Q.Q.y+A+b.N B+c 1 t.*+<+_+_+)+)+++++)+S a a r+r+&+v+p p : G G G 9.9.9.9.9.      ",
"    d.{ J V.} }+Q.y+( N.% N 9.G e D+$+-+++++++++++++++7.7.a a &+&+&+c.p l.^ G ^ G G 9.9.9.G     ",
"    d.J 7 x g Q.w+( N.y % q.9.e F ].:+:+w. .(+..x.x.x.0+++V Z a a+&+'+c+l.e e ^ ^ G ^ G G G     ",
"    { i + 5+g 1.y+A+_.% q+`.x+=+= :+@.z d C.C.;.* d+x.x.V V  +j j a+! '+D+#.K i.^ ^ ^ ^ G G     ",
"  J J 7 9 T.k./+/+A+%+% n.`.t.<+F+:.d C.| | | | ;.y.y.d+x.V V  +B.-+! 5.6 Y f+s.]+i+^ ^ ^ ^     ",
"  J i 9 H / /.( A+_.% %+n.t.<+_+)+0+g.*.| . . . @+_ M M d+x.V Z j B.! 5.-.3+Y s.%.t+=.e e ^ e   ",
"  i + 9 3.6.r o R y % n.`.t.<+_+)+H.f.y.P.@ }.. . @ |.M M ..2+C+ +B.-+5.u+u+f+%.%.%.M.8+^ e e   ",
"  i 9 k / , r b ^.0.W.n.t.*+_+)+++H.f.y.y.|.p.) $ $ _ M M s 2+C+ +B.-+(.u+-.f+%.{+{+t+D+e e e   ",
"  7 9 H / , U b W E z+` ` *+<+)+H.E+f.y.p+p+p.p+p+^+^+|...M s o.B.{.{.5.-.-.-.s.h t+]+D+F e F   ",
"  + k 3.6.r U # W N 8.C ` <+_+)+++E+f.y.|.p+p+p.p+^+|.|.....s C+o.{.{.,+-.-.F+%.h #.]+Z.].F F   ",
"  + H / , r b # W N > G : '+G.)+0+0+f.y.|.p+p.p+^+^+|.M M s C+[ B.{.,+5.5.F+F+h m.#.m+F F ].].  ",
"  9 H / , u.b # W N 6.r.d.B+< a+0+x.x.f.y.|.^+^+|.|._ M M s C+o.A {.,+z.0 F+F+$+$+4+6 ].F F ].  ",
"  H 3.6.r u.b a.n n f U.Q & 9.:.< B.x.d+M y.M |.|.M ....s [ o.A {.{.,+z.-.!+h h #.=+].].].= ].  ",
"  3.3.6.r U b a.W N I.U.Q K.d.].F @. .(+[ d+d+..M M M [ [ [ o.A A z.z.z.0 !+h $+6 = ].= ].=     ",
"    3.6.r U # a.n N + f t U.K.& K.H z d *..+* [ s s s s C+A A {.,+P z.0 F+h ~ h+= = ].].= ].    ",
"    H k H H H 3.U N N ' t t Q Q K.K.3.@.d d C.A.j..+g.P A A A {.z.z.0 $+ .F.= = = = = = = =     ",
"    k i [.{ d.O ' u.> W d.f t U.Q K.K.r z d d d d d d d A.w.w.:.:.:+w.:+= = = = = = = = :+:+    ",
"      7 i J { d.O O , > W & f t t U.U.Q i k+N W U R., # > u.b N G N e :+= :+= = = = = = =       ",
"      + 7 i J [.d.O ' [.{ I.I.& f f t U.t U.U.U.U.t t f & I.v ' d.{ 8.= :+= :+= :+= = = :+      ",
"        9 + i J [.{ d.' ' r.v v I.& & f f f f f f & & I.v r.O d.{ i F = :+= :+= :+:+:+:+        ",
"        k 9 + 7 i J [.{ d.' ' r.v v I.I.& I.I.I.I.3.7 r.9 O d.{ i k = :+= :+= :+= = :+:+        ",
"          3.k + + i J [.[.{ d.d.O ' r.' r.r.r.r.[.9.].e ].J J J + u.= :+= :+= :+:+:+:+          ",
"          H H H 9 9 7 7 J [.{ { d.{ d.O O O O d.O d.7 , k J 7 + 9 N :+= :+:+:+:+@.:+            ",
"            / / H H 9 9 + 7 i J [.[.[.[.{ [.{ [.[.[.J i 7 7 k T.u.= :+= > n 8.9.e F             ",
"              6.6.3.3.k 9 9 + + 7 7 i i i J i i i 7 + + 9 k H 6.e = = F N N > ^ F               ",
"                r , 6./ 3.H k k 9 + + + + + + 9 9 9 k T.3./ 6.> = F n W N 9.^ e                 ",
"                  r r , 6.6./ 3.3.3.H H H k H H 3.3./ 6., , W = ^ W n B+9.^ e                   ",
"                    u.U u.u.r , 6.6.6.6.6./ / 6., , , r u.a.].^ n N > G e                       ",
"                        b b U U u.u.r r r u.u.r u.U b # a.W 8.N 8.9.^ e                         ",
"                            a.a.# # # b b b # # # a.a.W N 8.> G ^ ^                             ",
"                                W n W n W n n n N N 8.> 9.G ^ ^                                 ",
"                                        N 8.8.> > 9.9.9.                                        ",
"                                                                                                "};
