/* XPM */
static char * rndsun_xpm[] = {
"48 48 17 1",
" 	c None",
".	c #1E1E1D",
"+	c #7E7E8B",
"@	c #AEAEAF",
"#	c #9696A4",
"$	c #4D4D4F",
"%	c #676772",
"&	c #8989A6",
"*	c #73738B",
"=	c #7D7DAD",
"-	c #363637",
";	c #C9C9C9",
">	c #A2A2A3",
",	c #5A5A5B",
"'	c #2C2C2C",
")	c #BABAB9",
"!	c #424241",
"                                                ",
"                   %&>###&&%$                   ",
"                >)))@@@>>>#>&&+%                ",
"             *;;)))@@@@>>#>##&&+*%              ",
"            ;;;;;)))@@@>>>###&&++++,            ",
"          >;;;;))))@@@>>>###&#&&++**%-          ",
"         );;;;;;)))@@@@>>>##&#&++++*%%$         ",
"        ;;;;;;;))))@@@>>>####&&&++***%,!        ",
"       ;;;;;;;);)@)@@@>#&##&#&&++++**%%%$       ",
"      ;;;;;;;;))))@@>>+%%*+#&&&+++***%%,$-      ",
"     #;;;;;;;;)))@@@@#*%*%%+&&++++**%*%%,,'     ",
"     ;;;;;;;)))))@@@>#*%==**+&&++***%%%%,,!     ",
"    );;;;;;;)))@@@@+=#*%*=***+++++**%%%,,,$!    ",
"   &;;;;;;))))))@@>=**==%*=***++***%%%%%,,$!    ",
"   );;;;;);))@@@@&&&***=***=***++***%%,,,,$$-   ",
"   ;;;;)))))))@@#**===%===**=*****%%%%%,,,$$-   ",
"  >)));))))@@@@#&=**=&**=====*=*+**%%,%,,,$$!'  ",
"  );)))))@)@@@&%&#=**===*=*===*+*+%%%%,,,$$$!'  ",
"  )))))@)@@@>=**&=&==*=====+++*===*%%,,,$$$$!!  ",
" +)@@@@@@@@@&%*==*+&======+++====**=%,,,,$$!!'  ",
" &@)@@@@@@>+**&&**&#&&=====+*=&=*===%,,$,$$$!!. ",
" @@@@@@@>>=%*&=**&##&&====++&&=*===%,%$,$$!!!-. ",
" #@@@>>@>=**==**=&+*=+&&+++===*=&=*%===,$$$!!!' ",
" >>>>>>>&%*&=*%=+=*===++++=&&==&&**&===*,!!!--. ",
" #>>>>>>&%*%%*==*=====+++++&&&&&=%=&=*&=$$!!--' ",
" #>>>>###**%**==*=+===++***&&&&==&&===&%$!!!--. ",
" &#######&&&=+***====+++&+===**=#&=*=&*$!!!---. ",
" +######&#&&&**==*==++=&&&=*%%*#&=*&#*$!!!!--'. ",
" $###&#&&#&&+%*=*===++=&=&&&**&#==&#*$$!!-!--'  ",
"  &&&#&&&+&&+=**=*++**=&&=&&&*===&#=$!!!-!--'.  ",
"  +&&&&&&&++++*****==**=&&=&#&*%&#=,$$!!!---''  ",
"  *&&+&+&+++++=*=*+=====&&&=&#&==*$$!!!!---'..  ",
"   ++++++++++*+*****=&===&&&=&>&%$$!!!-!---''   ",
"   ++++++++++*****==*=&===&&&=&=,$!!!-!---'..   ",
"    ++++******%*%**==*===*%=#=%$$$!!!----'''    ",
"    %******%*%*%%%%*==*=&=%,==$!!!!!-!--''..    ",
"     ****%*%*%%%%%%,*==%=&*$$$$$!!!!---'-''     ",
"     $%%%*%%%%%%%,,%,*===&=$$$!!!!----'''.      ",
"      $%%%%%%%,%,%,,,,*==&%$!$!!-!----''..      ",
"       ,%%%,%,,,,,,,,$,,%,$!!!!-!---'''..       ",
"        $,%,,%,,,$,$$$$$$!$!!!!----''''.        ",
"         $,,,,,,$,$$$$$$!!!!!-----'''..         ",
"          ',$$$$$$$$$!!!!!!-!---'-'''           ",
"            $,$$$$$$!$!!!!------''..            ",
"              !$$!!!!!!!--!--''''.              ",
"                -!!!!-!----'-''.                ",
"                    ''-''''.                    ",
"                                                "};
