/* XPM */
static char * rndsnes_xpm[] = {
"48 48 256 2",
"  	c None",
". 	c #1A1A1C",
"+ 	c #767674",
"@ 	c #424244",
"# 	c #934644",
"$ 	c #AAAAAC",
"% 	c #5E5E5C",
"& 	c #929294",
"* 	c #822624",
"= 	c #965E5C",
"- 	c #A27674",
"; 	c #BA1A1C",
"> 	c #724244",
", 	c #AE5E5C",
"' 	c #C64244",
") 	c #7E3334",
"! 	c #6C5254",
"~ 	c #7C5E5C",
"{ 	c #868684",
"] 	c #946E6C",
"^ 	c #A48684",
"/ 	c #965454",
"( 	c #9E9E9C",
"_ 	c #B62A2C",
": 	c #805254",
"< 	c #7E6A6C",
"[ 	c #6E2E2C",
"} 	c #927A7C",
"| 	c #525254",
"1 	c #9A3334",
"2 	c #A21E1C",
"3 	c #B67674",
"4 	c #7E4644",
"5 	c #AA4644",
"6 	c #C2C2C4",
"7 	c #A25E5C",
"8 	c #A89294",
"9 	c #A27E7C",
"0 	c #B61E1C",
"a 	c #A66A6C",
"b 	c #6A6A6C",
"c 	c #5A4644",
"d 	c #968684",
"e 	c #AA5254",
"f 	c #AE9E9C",
"g 	c #AE6A6C",
"h 	c #765254",
"i 	c #8E5E5C",
"j 	c #AE8684",
"k 	c #9A2A2C",
"l 	c #2E2E2C",
"m 	c #9C3E3C",
"n 	c #7E7E7C",
"o 	c #B6B6B4",
"p 	c #D22E2C",
"q 	c #8E7E7C",
"r 	c #CC1E1C",
"s 	c #4A4A4C",
"t 	c #964A4C",
"u 	c #A29294",
"v 	c #976664",
"w 	c #B17674",
"x 	c #6A4E4C",
"y 	c #BC5254",
"z 	c #903234",
"A 	c #705A5C",
"B 	c #957274",
"C 	c #8D5254",
"D 	c #8A6A6C",
"E 	c #5A3A3C",
"F 	c #7F4A4C",
"G 	c #887674",
"H 	c #7F6664",
"I 	c #A68E8C",
"J 	c #A6A6A4",
"K 	c #A62224",
"L 	c #B24E4C",
"M 	c #A06664",
"N 	c #727274",
"O 	c #9D8E8C",
"P 	c #DE1E1C",
"Q 	c #B2B2B4",
"R 	c #765E5C",
"S 	c #8A2E2C",
"T 	c #BF5E5C",
"U 	c #725454",
"V 	c #9E5654",
"W 	c #845A5C",
"X 	c #665554",
"Y 	c #CECECC",
"Z 	c #B69A9C",
"` 	c #B27E7C",
" .	c #A37274",
"..	c #756A6C",
"+.	c #B05A5C",
"@.	c #AA3A3C",
"#.	c #262624",
"$.	c #7E7674",
"%.	c #9A9A9C",
"&.	c #9A5E5C",
"*.	c #AA7674",
"=.	c #DA0E0C",
"-.	c #825E5C",
";.	c #8E8E8C",
">.	c #9E6A6C",
",.	c #AA8684",
"'.	c #AA9E9C",
").	c #B63A3C",
"!.	c #793234",
"~.	c #AE9A9C",
"{.	c #9E8684",
"].	c #B0A6A4",
"^.	c #BE7274",
"/.	c #3A3A3C",
"(.	c #9A7E7C",
"_.	c #CA2624",
":.	c #774A4C",
"<.	c #524644",
"[.	c #9F4244",
"}.	c #B6AAAC",
"|.	c #666664",
"1.	c #9A9694",
"2.	c #942224",
"3.	c #C61214",
"4.	c #DE4244",
"5.	c #823A3C",
"6.	c #6C5654",
"7.	c #935A5C",
"8.	c #815654",
"9.	c #DA3C3C",
"0.	c #BA8284",
"a.	c #D25254",
"b.	c #6A3634",
"c.	c #963E3C",
"d.	c #C64E4C",
"e.	c #624A4C",
"f.	c #AE3634",
"g.	c #C23634",
"h.	c #222224",
"i.	c #AE6664",
"j.	c #7E7274",
"k.	c #5A5A5C",
"l.	c #9E2624",
"m.	c #CACACC",
"n.	c #AE7274",
"o.	c #866664",
"p.	c #363634",
"q.	c #BEBEBC",
"r.	c #8A7274",
"s.	c #A62624",
"t.	c #D6D6D4",
"u.	c #AA2E2C",
"v.	c #9E4A4C",
"w.	c #7A5A5C",
"x.	c #9E9A9C",
"y.	c #BE5A5C",
"z.	c #DA2624",
"A.	c #BE6664",
"B.	c #C67674",
"C.	c #928A8C",
"D.	c #9C7674",
"E.	c #762A2C",
"F.	c #874244",
"G.	c #B44244",
"H.	c #B65254",
"I.	c #8A4E4C",
"J.	c #9E7274",
"K.	c #B66264",
"L.	c #A65E5C",
"M.	c #AA8284",
"N.	c #B6A2A4",
"O.	c #B68787",
"P.	c #968284",
"Q.	c #D22224",
"R.	c #AE1E1C",
"S.	c #4A4644",
"T.	c #7A4444",
"U.	c #5A5254",
"V.	c #A23234",
"W.	c #AE9394",
"X.	c #AA6E6C",
"Y.	c #B66A6C",
"Z.	c #524E4C",
"`.	c #724A4C",
" +	c #963634",
".+	c #922A2C",
"++	c #AE3A3C",
"@+	c #7A7A7C",
"#+	c #626264",
"$+	c #956264",
"%+	c #A37A7C",
"&+	c #7E6264",
"*+	c #8A8A8C",
"=+	c #A28A8C",
"-+	c #A2A2A4",
";+	c #9F6264",
">+	c #A48284",
",+	c #B22224",
"'+	c #988A8C",
")+	c #8C6264",
"!+	c #323234",
"~+	c #828284",
"{+	c #BABABC",
"]+	c #CE3234",
"^+	c #CA2224",
"/+	c #AE7A7C",
"(+	c #726264",
"_+	c #A25A5C",
":+	c #D2D2D4",
"<+	c #2A2A2C",
"[+	c #A6A2A4",
"}+	c #9C8284",
"|+	c #C63A3C",
"1+	c #9A7A7C",
"2+	c #1E1E1C",
"3+	c #464644",
"4+	c #AEAEAC",
"5+	c #969694",
"6+	c #C24644",
"7+	c #7A6E6C",
"8+	c #565654",
"9+	c #C6C6C4",
"0+	c #A46E6C",
"a+	c #6E6E6C",
"b+	c #AC5654",
"c+	c #B26E6C",
"d+	c #7A5654",
"e+	c #9C2E2C",
"f+	c #4E4E4C",
"g+	c #9E9694",
"h+	c #866E6C",
"i+	c #563E3C",
"j+	c #7E4E4C",
"k+	c #746E6C",
"l+	c #A73E3C",
"m+	c #9D6E6C",
"n+	c #3E3E3C",
"o+	c #764E4C",
"p+	c #B2AEAC",
"q+	c #962624",
"r+	c #863E3C",
"s+	c #664E4C",
"t+	c #A24E4C",
"u+	c #7A2E2C",
"v+	c #8A4644",
"w+	c #B24644",
"x+	c #A22224",
"y+	c #AEA2A4",
"z+	c #AE8A8C",
"A+	c #B28284",
"B+	c #7E7A7C",
"C+	c #9A6264",
"D+	c #AA7A7C",
"E+	c #826264",
"F+	c #AA8A8C",
"G+	c #9E8A8C",
"                                                                                                ",
"                                      a+*+( %.5+& ;.*+a+|                                       ",
"                                -+o {+o Q 4+$ J -+( %.5+& ;.~+#+                                ",
"                          n 6 6 6 q.{+Q Q 4+$ J -+( %.5+& ;.*+~++ b                             ",
"                        q.9+m.6 6 {+{+Q 4+4+$ J -+( %.& ;.*+*+{ ~+n + #+                        ",
"                    J :+Y m.9+6 q.q.o o Q $ J -+( ( 5+5+& ;.*+~+~+n @+N |.!+                    ",
"                  q.Y :+Y 9+9+6 q.{+o Q 4+4+$ -+( ( %.5+& *+*+~+~+n @+N N b f+                  ",
"                :+:+:+Y m.m.6 q.{+{+Q Q 4+$ J -+( %.5+& ;.;.{ { n @++ + N b % s                 ",
"              :+t.:+Y m.9+9+6 q.{+{+Q Q $ J J -+( %.5+& ;.*+{ ~+~+@++ N a+b |.#+f+              ",
"            9+:+:+Y Y m.9+6 6 q.{+Q Q 4+$ $ -+( %.5+5+& *+*+{ ~+n @++ N N b |.% | p.            ",
"          %.:+:+:+m.m.9+9+q.{+{+{+Q 4+4+J J -+( ( 5+& & ;.{ { n n @++ N a+b |.#+#+k.<+          ",
"          Y :+Y m.m.9+9+6 q.q.o Q Q 4+$ $ J -+( 5+5+& ;.*+*+~+~+n + + a+a+b |.#+% 8+3+          ",
"        q.Y m.m.9+9+6 q.q.{+{+o Q 4+4+J J -+( ( 5+& ;.;.{ { ~+n n + + a+a+|.|.% k.8+| n+        ",
"      ~+Y m.m.9+9+6 6 q.q.{+o o Q 4+$ $ -+( ( 5+5+& & *+*+{ n @++ + N a+b b #+% % k.| @         ",
"      Q 9+9+9+6 6 6 q.{+{+o Q 4+4+$ J -+-+( ( 5+5+;.;.*+{ ~+~+n + N N b |.|.#+% k.8+| f+/.      ",
"      9+9+6 6 6 q.{+{+{+o Q 4+4+$ $ J -+( ( 5+5+& ;.*+{ ~+~+@++ + N a+a+b #+#+% k.8+| s /.      ",
"    ( 6 6 q.q.q.{+{+o Q Q Q 4+4+J -+-+( %.%.5+& & *+*+{ ~+~+n @++ N b b |.#+% k.8+| f+s 3+<+    ",
"    q.{+{+{+o Z p+].'.y+8 j [+>+8 %+D+( %.'+d 1+q q B q r.D D o.7+H 7+b R A #+X X 8+| s 3+l     ",
"    {+{+o o Z M.W.O.w ^ w y ] n.g+A.' x.%.e 7.m+l+D c+m 7+b+o.C+..7.t 6.C t s+w.:.| f+s 3+n+    ",
"  n o Q Q p+W.*.=+M.^.(.g B._+W.B _++.5+C.|+).E+,  +[.X.W B C $.T.t+/ F : &+8.! X | f+3+@ !+    ",
"  *+Q Q 4+].0.].- D+O.b+, 0+d.{.@.6+I 5+C =.a.t 7 3.p B @.j.++< 1 G.&+C F X ~ > 8+f+s 3+3+n+h.  ",
"  4+4+4+4+'.` F+O.` ^ T ^.(.w '+' 9.5+& 2 P 0+g.v+; 4.H L ~ m+k+1 G.A -.F.e.! `.f+| s 3+n+/.2+  ",
"  %.$ J -+8 A+(.W.3 >+j ( v u D.M T & C.V 9.:.T ;+ +i.)+] # h+: F.$+:.4 W T.:.! f+s 3+3+n+n+l   ",
"  J J J u D+,.9 D+>+M x.%.L 1.;+c.}+;.)+T.H.t o.t+e+G  +j.++k+# ) W m # ! r+:.U.Z.f+3+n+n+p.2+  ",
"  & -+( x.8 ( O ,.g+^ %.& /+'+9 0+;.;.B q P.;+G } v B+)+j.C+H < E+(+8.w.% h X Z.Z.s 3+@ /.p.<+  ",
"  ( ( ( %. .a ;+7 / e / 5 r+@.1 m _ x+,+* R.u+; q+x+2.k l.l.k E.* u+!.) !.) b.b.E <.n+n+/.!+.   ",
"  *+%.%.1.J.g v T +.L L [.l+5 ]+r+z._ ^+f.l.z ; r 2.r ; Q.^+l.e+ +u.[ e+u+S !.b.E <.n+n+/.p.#.  ",
"  n 5+5+& d ^ d }+9 9 %+1+D.J. .] 0+>.v ;+C+C+$+&.7.= = 7.7.W W 8.8.U h x s+e.c <.3+n+/.p.<+.   ",
"  | & & & & ;.;.;.;.*+C.{ { { { ~+n n n @+@++ N N a+b b |.#+% % k.8+| | f+s 3+@ @ n+/.p.!+l     ",
"    ;.;.;.C.;.C.*+*+*+{ { { ~+n n n n @++ N N N a+b b |.|.% % k.8+8+| f+s 3+3+@ n+/.p.p.!+2+    ",
"    ~+*+*+{ *+{ { { { { ~+n ~+n B++ + + N a+a+b b |.#+#+#+% k.8+| | Z.f+s 3+@ n+n+/.p.!+!+#.    ",
"    N { { { ~+{ ~+~+n n n n @+@+@++ N N N a+a+b |.|.#+% % k.8+8+| f+f+S.3+@ @ n+/.p.!+!+h..     ",
"      ~+~+~+~+~+n n n B+B+@++ + + + N a+a+b |.|.#+#+% k.k.k.8+| Z.s s 3+3+@ n+/./.p.!+l <+      ",
"      @+n n @+@+@+@++ @+@+N + N N a+a+b b |.|.#+#+% % k.8+| | | f+s s 3+@ n+/./.p.!+l h..       ",
"        @+@+@+@+@++ N N + N N a+a+b b |.|.|.#+#+% k.k.8+8+| f+s s 3+@ n+n+n+p.p.!+!+l <+        ",
"        b + + N N + N N a+a+b b b b |.|.#+% #+k.k.k.8+| | f+s s s @ @ @ /./.p.!+!+<+h..         ",
"          N N N a+N a+a+b b b |.|.|.#+#+#+k.k.k.8+8+8+f+f+f+s 3+3+@ n+n+p.p.!+l l <+#.          ",
"          3+a+b a+b b |.b b |.|.#+#+% % k.k.k.8+| | f+f+s 3+3+@ @ n+/.p.p.p.!+l l .             ",
"            f+|.|.|.|.#+#+#+#+% % % % k.k.8+| | Z.f+s s s 3+@ n+n+/./.p.!+!+l <+#..             ",
"              % |.#+#+#+#+% % % k.k.8+8+8+| | | f+s s 3+@ @ @ n+/./.p.p.l l l #..               ",
"                | #+% % % k.k.k.k.8+8+| | f+f+f+s s 3+@ n+n+n+/.p.p.!+!+l <+#.2+                ",
"                  s % k.k.k.8+8+| | | f+f+f+s 3+3+@ @ @ n+/.p.p.p.!+l l <+h..                   ",
"                    <+8+| 8+| | | f+f+s s 3+3+3+@ @ n+n+n+/.p.p.!+!+<+<+#.                      ",
"                        s f+f+f+s s s s 3+3+3+@ @ n+n+/.p.p.p.l l <+<+.                         ",
"                            @ s s 3+3+3+@ n+n+n+/./.p.p.!+!+!+l <+2+                            ",
"                                !+@ @ n+n+n+n+/./.p.p.!+!+l #..                                 ",
"                                        <+l l l l <+<+2+                                        ",
"                                                                                                "};
