/* XPM */
static char * rndsndtrk_xpm[] = {
"48 48 129 2",
"  	c None",
". 	c #060606",
"+ 	c #969675",
"@ 	c #73725F",
"# 	c #5F5E4E",
"$ 	c #36362A",
"% 	c #C2C296",
"& 	c #56523E",
"* 	c #B7B789",
"= 	c #8E8E72",
"- 	c #1F1E1B",
"; 	c #4A4A3E",
"> 	c #B0B086",
", 	c #86866A",
"' 	c #99998A",
") 	c #3E3E32",
"! 	c #2A2A2A",
"~ 	c #6A6854",
"{ 	c #838269",
"] 	c #A1A18D",
"^ 	c #B6B6B6",
"/ 	c #C2C2C2",
"( 	c #807E65",
"_ 	c #A6A682",
": 	c #91907C",
"< 	c #333229",
"[ 	c #D3D3AD",
"} 	c #B0B091",
"| 	c #8A8974",
"1 	c #424232",
"2 	c #747466",
"3 	c #666665",
"4 	c #AAAA8A",
"5 	c #C9C9A0",
"6 	c #575749",
"7 	c #838272",
"8 	c #7B7A66",
"9 	c #A09F7D",
"0 	c #6A6A5C",
"a 	c #B0B099",
"b 	c #7E7E6A",
"c 	c #B6B6A2",
"d 	c #8E8E8D",
"e 	c #605F52",
"f 	c #131312",
"g 	c #CECEBB",
"h 	c #6A6A6A",
"i 	c #2E2E2D",
"j 	c #89897C",
"k 	c #232220",
"l 	c #D0D0CA",
"m 	c #AAAA8E",
"n 	c #565656",
"o 	c #CBCAB5",
"p 	c #A7A795",
"q 	c #3A3A39",
"r 	c #46463A",
"s 	c #B0B09E",
"t 	c #7E7A6A",
"u 	c #A1A195",
"v 	c #4E4E3E",
"w 	c #5E5E5D",
"x 	c #727271",
"y 	c #BABABA",
"z 	c #CECEAA",
"A 	c #1B1A17",
"B 	c #7E7E72",
"C 	c #A6A6A5",
"D 	c #6E6E62",
"E 	c #5B5A4E",
"F 	c #828276",
"G 	c #BCBCA2",
"H 	c #77766A",
"I 	c #424236",
"J 	c #BEBE93",
"K 	c #868686",
"L 	c #9E9E9E",
"M 	c #646256",
"N 	c #262626",
"O 	c #929286",
"P 	c #969696",
"Q 	c #8A8A89",
"R 	c #98987F",
"S 	c #B6B695",
"T 	c #AEAEAE",
"U 	c #4E4E42",
"V 	c #9A9A99",
"W 	c #525246",
"X 	c #3E3E36",
"Y 	c #C9C9AA",
"Z 	c #47463E",
"` 	c #4E4E46",
" .	c #4A4A49",
"..	c #A2A2A2",
"+.	c #6E6E6C",
"@.	c #706E54",
"#.	c #7A7A5A",
"$.	c #AAAAA9",
"%.	c #5A5A5A",
"&.	c #767675",
"*.	c #929292",
"=.	c #323231",
"-.	c #7E7E7D",
";.	c #363635",
">.	c #43423A",
",.	c #939272",
"'.	c #C2C29A",
").	c #C7C7C7",
"!.	c #A1A086",
"~.	c #464645",
"{.	c #B2B2B0",
"].	c #424241",
"^.	c #525251",
"/.	c #9B9A77",
"(.	c #ABAA81",
"_.	c #626261",
":.	c #77765E",
"<.	c #6F6E5C",
"[.	c #C2C2A4",
"}.	c #4E4E4E",
"|.	c #3E3E3D",
"1.	c #7A7A79",
"2.	c #8A8A6D",
"3.	c #5E5A48",
"4.	c #63624D",
"5.	c #BEBEBE",
"6.	c #BABA91",
"7.	c #828281",
"8.	c #0E0D0C",
"                                                                                                ",
"                                      {.T $.C ..L V P *.*.                                      ",
"                                y ^ T $.C ..L V P *.*.d Q Q K K                                 ",
"                          )./ y ^ T $...L V P *.d d Q K K 7.7.-.-.-.                            ",
"                        ).5.y {.T C ..V P *.d d K K 7.7.-.-.1.1.&.&.&.&.                        ",
"                    l ).5.y T $...L P P d Q Q 7.7.-.-.1.-.-.1.x x x +.+.+.+.                    ",
"                  ).).5.^ T C ..V P d d Q 7.-.-.1.&.&.1.K K &.x +.+.h h h h h                   ",
"                l ).5.^ $.C L P *.d Q 7.-.1.1.x x x &.d !.K x 3 h 3 h 3 3 3 _._.                ",
"              ).).y {.T C L P *.Q 7.-.1.&.x x h h 1.P m P B +.+.x x +._.w _._.w w               ",
"            ).).y {.$...V P d K 7.-.&.x x h h +.F p s u | H H Q R d F +._.w w w %.%.            ",
"          ).).5.^ T ..L *.d K -.&.&.x h +.+.7.' s c m K +.w H L ] V j 1.3 %.%.%.%.n n           ",
"          ).y {.$...V *.d K 7.-.1.&.1.Q V m G G S ] | 0 n n h = ' !.: b D w n n ^.n ^.          ",
"        / y {.$...L P V L L u $.a {.J o o [.[.s 9 B w }.` ` w H K : j B @ w ^.^.^.^.^.^.        ",
"      5.5.^ $...V P L c Y g g g g g o o [.G S : h ^. .~. .M 0 3 H = R 7 @ w }.}.}.}.}. .        ",
"      y {.T C V *.*.C ).l l z Y Y [.[.[.} ] ,.<.W Z ].` 8 m ] @ D F O 7 @ %.^. . . .}. . .      ",
"      ^ T C V P Q d u Y [ g G c G [.J a } S a ] O <.n 0 _ G } b :.7 R j H e }.~. .~.~. .~.      ",
"    {.T C L P d K Q ' G Y G c S [.o [ [ [ [ [ [ Y (.7 7 R } m , <.7 9 = H n ~.].~.~.].~.~.~.    ",
"    {.C L V d Q 7.-.*.m {.G J [.Y [ [ z '.'.5 5 5 J !., ( 4 S + @ H ' + @ ~.].].].].~.].].].    ",
"    $...V *.Q 7.1.x 7.] G Y z z z z z [ [ z 5 z J 6._ { @ { ,.( e <.+ O D ].|.|.].|.].|.|.|.    ",
"  C C L P d K -.&.+.D O c Y Y z Y Y z z 5 5 z z 5 * (.+ :.%.& 6 ~.M | /.0 |.|.|.q |.|.|.|.|.    ",
"  ..L P d K -.&.x 3 _.0 1.= = 7 @ 0 ~ ~ 4.~ @.,.* % 6.> = 4.].;.|.M 2.' @  .q q q q |.|.|.q q   ",
"  ..V *.d K -.&.h 3 w n n }.~.|.q i N k - - k ) :.(.* > 9 { 3.; Z U <.,.H E ].q q q q q q q q   ",
"  L P d K -.&.x h _.%.^. .~.|.=.i N k - f 8.8.f $ :._ * > + { # q q ` @ b # ].;.q ;.;.;.q ;.;.  ",
"  V *.Q 7.-.&.h 3 w n }. .|.q ;.! N - f f f A 8.8.) #.(.* (.+ 0 >.=.;.>.^.~.q ;.;.;.;.;.;.;.;.  ",
"  P d K -.1.x h _.%.^. .~.|.;.=.! N - A f 8.) A . - 6 ,.> > 9 = ~ q i < ;.q ;.=.;.;.;.=.;.=.=.  ",
"  *.Q K -.&.+.3 _.%.^.}.~.|.;.i ! k - f 8.A ~ < 8.A 1 { 6.J 9 + 2.6 q =.=.=.=.=.=.=.;.;.=.=.=.  ",
"  d K 7.1.&.+.3 w %.}. .].|.;.i ! k - A f i + & k k N # /.* _ + ,.@ v ;.i =.=.=.=.=.=.=.=.=.=.  ",
"  Q K -.&.x h _.w n ^. .].q ;.=.! N k A - # (.@.$ - k ) ~ + _ 9 2.{ M |.=.=.=.i =.i i =.=.i i   ",
"  7.7.-.&.x h _.w n }. .~.|.;.i ! N k k 1 (.> 4.! - k ! 1 ( _ (.,.{ @ U =.=.=.i =.=.i i i !     ",
"    7.1.x +.3 _.%.n ^. .].|.q =.i N N < ( 5 (.& ! < ) 1 ; ~ 2.(./., :.3.q =.=.i i i i i i i     ",
"    -.1.x +.3 _.%.n }. .].|.q =.i ! i 3.> % ,.v < ~ 9 /.@.3.@ + 9 = @ e ].i i ! i i i ! ! !     ",
"    &.&.x h 3 w %.^.}. .~.|.q ;.=.i ) ( J * { r $ = 5 6., 3.4.{ + /.b 3.|.=.i i ! ! ! i ! !     ",
"      &.x h 3 w %.n }. .~.].|.;.;.|.& !.% _ { ; ) { * _ ,.4.v ~ 2.+ | e |.i i i i ! ! ! N       ",
"      x +.h _.w %.n }. .~.].q q |.` M (.* + { # r ~ 9 9 = 0 >.>.%.#.<.; ;.i ! ! ! ! ! ! !       ",
"        +.h 3 _.%.n ^. .~.~.|.|.Z  .e 9 _ 9 ,.:.6 ; ( _ /.0 I q q r ].q =.i ! ! ! N N N         ",
"        h 3 _.w %.n }.}.~.].~.~.~.>.E 2.+ + ,.2.@.v W @ 0 ; $ i =.i =.i i ! i ! ! ! N N         ",
"          3 _.w %.n ^.}. .~.~.].|.|.` t = ,.= , ( # I ) q =.=.i =.i i ! i ! ! ! N N k           ",
"          _.w %.n n }.}. .~.~.].|.|.>.3.( = 2.{ t 0 ` q < =.i i ! ! ! ! ! ! N N N N             ",
"            w w %.n ^.}.}. .~.~.|.|.|.Z # t = ,.{ @.& |.=.i i i i i ! ! ! ! N N N k             ",
"              %.n n }.}. . .~.].].|.|.q ~.M ( j 2.b E q i i i ! ! ! ! ! ! ! ! N k               ",
"                n n ^.}. . . .~.].|.|.q q ~.E D H ~ U q i i i i ! i ! N N N N k                 ",
"                  ^.}.}.}. .~.].].|.q q q q q >.~.|.;.=.=.i ! ! ! ! N ! ! k k                   ",
"                     .}.}. .~.].].|.|.q ;.;.;.;.;.;.< =.i i i i ! ! N N N                       ",
"                         .~.~.~.|.|.q q q ;.;.=.=.=.i i i i ! ! ! N N k                         ",
"                            ].].].|.|.q q ;.;.=.=.=.i i i ! ! N ! N                             ",
"                                q |.q q ;.;.;.;.i i i i ! ! ! N                                 ",
"                                        ;.=.=.=.=.i ! !                                         ",
"                                                                                                "};
