/* XPM */
static char * rndsoccer_xpm[] = {
"48 48 33 1",
" 	c None",
".	c #111111",
"+	c #8A888A",
"@	c #505050",
"#	c #C9C8C8",
"$	c #716F71",
"%	c #2D2C2D",
"&	c #A9A8A9",
"*	c #615F60",
"=	c #F4EFEE",
"-	c #1E1E20",
";	c #7F7D7F",
">	c #9D9C9C",
",	c #BCBCBC",
"'	c #DBD9D7",
")	c #414040",
"!	c #6D646A",
"~	c #5D555D",
"{	c #C4AEBB",
"]	c #B09DA9",
"^	c #FCFCFB",
"/	c #9D8D95",
"(	c #E0CFD9",
"_	c #D1BCC7",
":	c #7D727B",
"<	c #ECDCE0",
"[	c #292427",
"}	c #4B454B",
"|	c #343435",
"1	c #B0B0B0",
"2	c #8D7F89",
"3	c #D0D0D0",
"4	c #909090",
"                                                ",
"                   $4&>>>44:~                   ",
"                &,,111&&>>>>44+!                ",
"             +,#,,,111&&&>>444+;;$              ",
"            #3##,,,111&>&>>>44++;;;!            ",
"          &3####,,,11&&&>>>444++;;;$$|          ",
"         ,'33#,#,,111&&&>>>44+++;;;$$$@         ",
"        '333###,,,,11&&>>>444++;;;$;$!*@        ",
"       33333#,#,,1111&&&>>>44+++;;$$$$!*~       ",
"      #'33####,,,,11&&>>>>444++;;;;$$$!*~)      ",
"     >3333##,#,,1111>4;$$;44++;+;$;$$$***~|     ",
"     333####,,,1,1,>!)-.-%|)*4+;;;$$$$***~}     ",
"    #3####,#,,,,#3#_&;@}~***~$44;$$$$*$***@}    ",
"   ;######,,,,,'=<(({;;:*~*!$$!44;$$$****~@}    ",
"   ,3##,#,,,,1#===<({:>:*~~**$$!;+$$$****@@@)   ",
"   #,#,,,,,,1+3^==<_/~,]~~~~**$$@$$$$****~@@)   ",
"  &,,,#,,,1,+$^^^=(2|.)2$~~~~*!$[%@$***@*@@}}|  ",
"  ,,,,,,,11&|:^^^<!-....}~@~~*!@..-@$***~@@@)|  ",
"  ,,,1111,1;~#==#}.......%}~~!![...[***@@@@@))  ",
" ;1111,11&1:'^^=/-.......[@~~**[....@***@@}}))  ",
" 41111111&>1^^^^>%-......)~~~~!~-...|*@@@@@}))[ ",
" 11111&&&&>'^^^^,|......%*@@~**$)...%**@@@}}))[ ",
" >1&&&&&&>#=^^^^3)[.....*!@@~~!!!-..-~@@@@))))% ",
" &&>&&&>>>3^^^^^'@[....|/~@~~~!!:)..-*@@@}}))|- ",
" 4&>>>>&>>3^^^^^_1#/:~):]!~~~~*!:~@~|~@@@))))|% ",
" >>>>>>>>>,^^^^=,=<{/:!!2!~~~~!$:!!*}@@}@)))||- ",
" 4>>>>4>441==^^'<=({2::!!!~~~*!:!!$*}*@})))))|% ",
" ;4>4>4444>>2#3#=<_{/2:!~!~~~!!:!!$@@@}@)))|||. ",
" ~444444444!-}}+=(_]]2::~~~~~!!!!::}@@)))))|||  ",
"  44+44+4++$-%}*<({]]22:~~---[[[!:!@@}@)))|||[  ",
"  +++++++++;).[[{({{]/2:~%.....-!:*~@))))|||%%  ",
"  $++;+;;;;;;-..~__]]/::}......-!$~@}))))|||%.  ",
"   ;+;;+;;;;;*-..!_{]2:!-......-$!@})))||||%%   ",
"   ;;;;;;;;;$;~-.~(_/:![......-~$~@)))))||%%.   ",
"    ;;;$;$$$$$$**__{/::}-...-[!:~})))||||%%%    ",
"    $;$$$;$$$$$$;/]/222:!}||~:$@@)))))|||%%.    ",
"     $$$$$$$$!!*!!$22/2///::$~}}))))|||%%%[     ",
"     @$$$$$$$*$!*****!!!!*~@@}}))))||||%%[      ",
"      @*$*********~~~~@@@@}}}})))||)||%%[.      ",
"       **$*********~@~@@}}@@))))))|%%%%[-       ",
"        @******@@@@@@@@@@})))))|||||%%%-        ",
"         @****@*@~@@@@}})})))|)||||%%[.         ",
"          %@@@@@@@@@}}@)}))))||||%%%[           ",
"            @@@@@@@}@)))))|)||||%%%-            ",
"              )}}))))))))|)|||%%%-              ",
"                |)))))|)||||||%.                ",
"                    %||%|%%-                    ",
"                                                "};
