/* XPM */
static char * rndstar_xpm[] = {
"48 48 33 1",
" 	c None",
".	c #1F1F1E",
"+	c #4B8290",
"@	c #8DB4AE",
"#	c #898689",
"$	c #979D9E",
"%	c #569E9E",
"&	c #515252",
"*	c #6B6A6B",
"=	c #BCBCBB",
"-	c #768183",
";	c #A9A7A9",
">	c #B2909D",
",	c #6E9298",
"'	c #929294",
")	c #90A9A9",
"!	c #356D84",
"~	c #C6CAC9",
"{	c #404040",
"]	c #906274",
"^	c #5A6971",
"/	c #749E9E",
"(	c #947384",
"_	c #D1D2D1",
":	c #4D9193",
"<	c #A7B8B2",
"[	c #D0BDA9",
"}	c #767679",
"|	c #2E2E2F",
"1	c #5D5E5F",
"2	c #BCDAD4",
"3	c #517686",
"4	c #77AAA5",
"                                                ",
"                   *#$$'''#*&                   ",
"                $==<;;;;;$$'''-1                ",
"             }=[=====<;$;$'$'###}*              ",
"            =~~~===;;;;;;$$'''##-}}1            ",
"          ;__~~~=====;;$;$$''###-#}}1|          ",
"         =__~~~===;<;<;;$>$'''##--}}}*&         ",
"        ____~[~=====;;;;$$'''####}}}**1{        ",
"       ____~~~====;;;;;$$$$''###}-}}***1&       ",
"      ~___~~[~~;;<==;;;;$'''#####}}}}**1&|      ",
"     '__~~~~~~<'$)<;;;$$$$'''#---}}****111|     ",
"     _~__~~=~;$;~<)<;;;$>'''####}}}}***11&{     ",
"    =_~~[~~[~=)$>;;4;;$$$'''##--(}}}**1*11&{    ",
"   #~~~~~~===<';;;$%/;$''''###--}}****111&&{    ",
"   <[~[=[====),/;<4/,);$$''###}-}}}***111&&&|   ",
"   ~~~~====~='#,/4)/'/;;<'####-}}}***111&&&&|   ",
"  $========~<,#>'@/=;/)=='##-}#}}}****111&&&{|  ",
"  =======;<=<'>#'$<[=)<~~'###-}}}***1111&&&&{|  ",
"  ====<=<=;=<'>>''4)%%@~~$#-}}#}}***111&&&{&{{  ",
" };=;=;;;;;;<'>>>',:%<@<2['#-#;#****11&1&&&{{|  ",
" #<;;=;=;<;;;<'(>('/~<44<)<'$'$-}*1*111&&&{&{{. ",
" =;=;;;;;;;;;<;>>>#/):%%:-<'$=<)$}}**1&&&&&{{|. ",
" $;;;;;;;;$$;=@<;;>$,%/+}+4@<@/,,::--**&&{{{{{| ",
" ;;;;;;;$$;;;/,-'$)<=<)+!::/<//$#3!+3-^1&{&{{|. ",
" ';$;$$;$$$<@:+}>:/__2,(:4%4<:$=$:+'##}&}&{{{|| ",
" $$$$$$$$''<),3#>:4[=%!+<):4)%$;/,,(](^&*1{{{|. ",
" #$$>'>'$''<)'+}>>;[@+!%2='/:,:,',+-}}&^^&{{||. ",
" #''$$'''''<,,:}>>[=%!!@__;'}(-}(#^!!^^*1{|{{|. ",
" &'''''''##'),+3-;[<%+42~@,>#((((*]&!}-}1{{|||  ",
"  '#'#'###'#),:!+$=@:)2=%+,'>(]((*&1*,3{{{{||.  ",
"  -#####'###$,/:,$<~@~[>,3#}$'(}**^-}1&{{|{||.  ",
"  }#####-#-#,$$,,/;~;=;>>#(^,/'#--'-&{{{|{||..  ",
"   -#--#}-##'}-,$)#/''3((*^!311}'--&{{{{|{|||   ",
"   -}-}}-}''}}}}-*-)-+!!!!3!,}&&&&{{{{{|{||..   ",
"    }#}}}}#-}}}***}/:++!*3',,1&{&{&{{|{|||||    ",
"    *}}}}}}}*******}),,,,,)$*&{&{{{{{{|{||..    ",
"     }**}********111*-+}^**1&&{&{{{|{|||||.     ",
"     {}*********1111*-31&&&&&&{{{{{{|{|||.      ",
"      &****^11111111*#}&&&{&{{{{{|{|||||..      ",
"       1^1111111111&11&&&{&{{{{{{{|{|||..       ",
"        &111111&&&&1&&&{&{&{{{{{|||||||.        ",
"         &1111&1&&&&&&{&{{{{{{|{|{|||..         ",
"          |&&&&&&&&{&{&{{{{{{|{|||||.           ",
"            {&&&{&{&{{{{{{{{|{||||..            ",
"              {&{&{{{{{{{|{||||||.              ",
"                |{{{{{{{|{||{|..                ",
"                    |||||||.                    ",
"                                                "};
