/* XPM */
static char * rndsgi_xpm[] = {
"48 48 17 1",
" 	c None",
".	c #1E1E1D",
"+	c #7E7E7E",
"@	c #504F50",
"#	c #666667",
"$	c #AEAEAE",
"%	c #383638",
"&	c #969697",
"*	c #454244",
"=	c #5B5A5B",
"-	c #C6C6C7",
";	c #2E2C2D",
">	c #727272",
",	c #8B8A8A",
"'	c #BABAB9",
")	c #A2A2A1",
"!	c #D1D1D1",
"                                                ",
"                   >,)&&&,,>@                   ",
"                &$$$$$$)))&&,++#                ",
"             >'--'''$$))))&&&&+>>#              ",
"            '---''$$))$))&,,,,,,++>=            ",
"          )-!---'$))))))&,++,,,+++>##%          ",
"         $!!--'$)))$$)))&+###>+++++>>#@         ",
"        !!!!-$$))$$)&,)),+>#=###+>+>>#=*        ",
"       '!!-'$)$'$$)&,,&),,+>>====#>>>#>#@       ",
"      -!!'$)$''$)&&&,,)&,,+++>#==@@####=@%      ",
"     &!!')&&$$)&&)&&,,)&,+++++>#==@@=###==;     ",
"     !!-)&&,,&,&))&,,+)&,+++,+++#@@#>+>=#@*     ",
"    '---$&,,+>+&)$&&,>&&++++&+>>==+,+>>#==@*    ",
"   +-!--')&,>>>>>,,,+#&&+>>+,,##+,,+>>#===@%    ",
"   $---''$),+>##=#>>>#,&+==###+,),+>#>>==@=@%   ",
"   -''$$'$$),+#==@@@==&,>=*=>&)&+>>>>#==#@@*%   ",
"  &''&,,&)$))&+#=@***@>&>=#,)),+>++#=##@===@*;  ",
"  -''&,+++&))))+>#=*%%%@#,'),+>>,+##>#=#>>@@*;  ",
"  $'$),+>>>+,&)&,##=@%;@&$&,+>>,##+###++>=@@**  ",
" +$'$)),>>#=#>,,&,>==*%*>++>++>#####+,>###=**;  ",
" ,$$$&)&,+#==@=,,++*@#=#>>#=+##>##+,,>>###=**%. ",
" $$$))&&,,+#=@*@##**==>+>@**=#>#>,&,>>###==**%. ",
" &$$)&&&,&,,#@**%%*==#,&+=%;@=>&&,+>>>=@##=**%; ",
" $)))&&,,&,&++=*%***@,++>=@*>&))+++,++@===@**%. ",
" &)))&&,&&,+>++#*%;%=&+#+#*#)$,+>>=>@>@==@**%%; ",
" &))&,&,,+>+,+>>#@%*=+#==%;=,+++>*%@=#@==@**%;. ",
" ,&&&&,,,+,&&>##>+#=#>#@*@@=>+,#@%%*%*@==@%*%%. ",
" +&&&,,,,,,+>>>++&++++>@*#+++&+##@*%;%*==@*%%;. ",
" @&&,,,,++>+,++>#++++#=**#+>++==>==@*%*==@%%%;  ",
"  ,,,,++>+,+++>>@=+++#==@#>++#=>=@=#=**==@%%;.  ",
"  +,,,++++++>+>=@#>++>=>=>>++=%%@@@=@=*@=@%;;;  ",
"  >+,,+++++>+>>>##>+>>=#=>>>>@;;;*@@@@****%%..  ",
"   >+++++>>#>+>##>>>>>##=>>>>#*;;;;*=@*%%%;;;   ",
"   +++++>#=####>>,>+>>=#=>>>>+>@%%;%@=@%%%;..   ",
"    #++>+=@@@@#>>,>>>>===>>>>#=#@%@====%%;;;    ",
"    >>>>>#=@@**=>,#>>>===###>#@=*=>#=@%%%;..    ",
"     #>>>###@**@=##>##==@#>#>#@=#>#=@%%;;;.     ",
"     *>#>##>#@**@@=>#>=@=####@####@=%%;;;.      ",
"      @#####>==**@####=@@=###>>#=@*%%;;;..      ",
"       =##=#=##=@*=##=@@@=#==#=@=%%%%;;..       ",
"        @#=#===>@@=###@@@==#===%%%%;;;;.        ",
"         @=====@@=@===@**@====%%%%;;;..         ",
"          ;@@@@@@@===@*@@@@@=%%%%;;;.           ",
"            @@@@@@@*@**%**%%%%%%;;;.            ",
"              %*@*@****%%%%%%;;;;.              ",
"                ;**%*%*%*%%%%;;.                ",
"                    .;%;;;;.                    ",
"                                                "};
