/* XPM */
static char * netscape_xpm[] = {
"48 48 33 1",
" 	c None",
".	c #1E1E1E",
"+	c #47828C",
"@	c #245259",
"#	c #515455",
"$	c #B0BBBF",
"%	c #1C6A75",
"&	c #576E71",
"*	c #848A8A",
"=	c #325054",
"-	c #6B6E70",
";	c #98A0A1",
">	c #363738",
",	c #38626A",
"'	c #31484D",
")	c #5B6263",
"!	c #1F616B",
"~	c #57797F",
"{	c #D6DADB",
"]	c #396D75",
"^	c #A9B2B3",
"/	c #CACDCD",
"(	c #738689",
"_	c #8F9697",
":	c #292A29",
"<	c #E5E6E7",
"[	c #737A7C",
"}	c #3E7882",
"|	c #434648",
"1	c #A2A5A6",
"2	c #C0C1C1",
"3	c #5B878C",
"4	c #435153",
"                                                ",
"                   -*;;_***-#                   ",
"                ;$^^11;;___***[)                ",
"             [2$2^11;___*****[*[-)              ",
"            222^111___****[[[[[[[[-)            ",
"          1/22^^11__****[[[[[[-[[---)>          ",
"         $/2^^1;__***[[[[[----------))|         ",
"        //2$^1;__**[[[[-----)-)-))))-)#|        ",
"       //2^^1;__*[*[[----)))))))))))))))|       ",
"      2/2$^1__**[[----)))))))#)#)##)#)###>      ",
"     _/2211;_**[[[-&)))#)#################:     ",
"     /2^^1__*[[[--)))),#44#4444###########>     ",
"    222^1;__*[[-&&))44#4,4444444444########>    ",
"   *22^1;_**[[-&),#,4,4=|==='4'4||4||4|4|#|>    ",
"   ^2^11_**[[~[1^^_,44====&_;;_*4'44|444|#4|>   ",
"   2^11;**([[&&&*{{*===='''=[/[===''=|||||||>   ",
"  ;2^1;_*([~-&),,2{{(===='''@$4'''||=|4|4||||:  ",
"  2^1;_**([~&&,),^^{{~'@@@@@'^,='==='=''|||||:  ",
"  ^^1;_*((~~&&,,,^~;<{]''@'@'^=='''''|=|'||||>  ",
" *^1;_*(([~&&),,,^&!^<{!@'@@@^,'@@===='''''|>>  ",
" *11__*((~~&}],,,1}@@$</!@@@@^!@'@'='='=||'||>. ",
" ^1;__(([[~&]),,!^&!!!/<2@@@@^,@@@@'='='''|>|>. ",
" _1__*((~~~&}],,!$}!!@%{<$!@!^!@@@@@@='''''>|>: ",
" 1;;_*((3~&}&]]]%^}!!!!}{<^!!$,!@!@@==='|''|>>. ",
" *___((3[~~}]]]]%^}%%!%!+<<^!$%!!!@@@@='''>'>>: ",
" ;___((33+~~}}}]%^+%%%%%%+{<;$]!!@!!@=@='''>>>. ",
" *_*((((~~}}}]}}}$+}%%%!%](2//}%%!!,@@=@''''>>. ",
" [__*((3~3~+~},='$)..........>::>=@,!!=@='>>>:. ",
" #**(((3(~)4|>>|-/$|:.............:::'=='''>:>  ",
"  _*(([-##|||>>-----#............:.:::::>'>':.  ",
"  (*(--))#||||>>::.:.............:..:::::::>::  ",
"  -[[-)))##|>|>>>::............:..::.:::::::..  ",
"   [[--)###||>>>::::............:.:::.:::::::   ",
"   [[-)))###||>>>>:::.........::.::.:::::::..   ",
"    ---)###|||>>>>::::.:..:::..:.::::::::::.    ",
"    ---))##||||>>>>>::::::.:.::.::.:.::::...    ",
"     -))####||>|>>:>:::::::::.::.:::::.:::.     ",
"     |-))###|||>>>>:>:::::.::::::.::.:::..      ",
"      |))###||||>>>>>:::::::::::::::::.:..      ",
"       #)####|||||>>>>>>:>::::::::::.::..       ",
"        ####||||>|>>>>:>:::::::::::::.:.        ",
"         |####||>|>>>>>:>>:>:::::::::..         ",
"          :#||||||>>>>>>:>:>::::::.:.           ",
"            |#||||>|>>>>:>>::>::::..            ",
"              >|||>>>>>>>:>:>::::.              ",
"                >>||>>>>>:>:::..                ",
"                    .>:::::.                    ",
"                                                "};
