/* XPM */
static char * rndteamctr_xpm[] = {
"48 48 256 2",
"  	c None",
". 	c #020204",
"+ 	c #867644",
"@ 	c #BAAE84",
"# 	c #9E9269",
"$ 	c #3E3E3C",
"% 	c #5E5A4A",
"& 	c #CACAC4",
"* 	c #8E8664",
"= 	c #CABE90",
"- 	c #A2A294",
"; 	c #726A44",
"> 	c #B2AEA0",
", 	c #8A7644",
"' 	c #524E3C",
") 	c #A2926C",
"! 	c #86867C",
"~ 	c #7A6A44",
"{ 	c #B2A274",
"] 	c #6A5E3E",
"^ 	c #222224",
"/ 	c #867E61",
"( 	c #BEBEB4",
"_ 	c #BEB694",
": 	c #6A6A60",
"< 	c #46463C",
"[ 	c #BEB29C",
"} 	c #92866C",
"| 	c #9E9A88",
"1 	c #8E7E44",
"2 	c #666251",
"3 	c #A2A2A4",
"4 	c #5B523C",
"5 	c #323233",
"6 	c #A69A6C",
"7 	c #CAC2AC",
"8 	c #727268",
"9 	c #7A7669",
"0 	c #BAB6A8",
"a 	c #B6AA7C",
"b 	c #706644",
"c 	c #8A7E5F",
"d 	c #969284",
"e 	c #C2AE70",
"f 	c #DADADC",
"g 	c #9A8648",
"h 	c #4E4634",
"i 	c #625A40",
"j 	c #7E7248",
"k 	c #CAB679",
"l 	c #726E60",
"m 	c #928E74",
"n 	c #3A3A30",
"o 	c #A29A82",
"p 	c #AAA280",
"q 	c #B6AEA0",
"r 	c #565654",
"s 	c #8E8E8C",
"t 	c #C6C6C4",
"u 	c #463E34",
"v 	c #D2D2D3",
"w 	c #4E4E4C",
"x 	c #868684",
"y 	c #7E7E7B",
"z 	c #BEBEBC",
"A 	c #847A64",
"B 	c #C6BEA4",
"C 	c #968249",
"D 	c #B2AA8C",
"E 	c #C6B68C",
"F 	c #121214",
"G 	c #9A9278",
"H 	c #464644",
"I 	c #AEAAA0",
"J 	c #767674",
"K 	c #6A6659",
"L 	c #827249",
"M 	c #AAA28C",
"N 	c #B6AE94",
"O 	c #D2CECC",
"P 	c #716A54",
"Q 	c #B2A680",
"R 	c #72623C",
"S 	c #6E6E6C",
"T 	c #C2BAA0",
"U 	c #8E8254",
"V 	c #626263",
"W 	c #5A5654",
"X 	c #9A8E64",
"Y 	c #928E88",
"Z 	c #B6B2A0",
"` 	c #7E765C",
" .	c #424244",
"..	c #5A5A5C",
"+.	c #CECECB",
"@.	c #968654",
"#.	c #565244",
"$.	c #8E8670",
"%.	c #6A6244",
"&.	c #2A2A2C",
"*.	c #C6BEAC",
"=.	c #9A9A9C",
"-.	c #62563C",
";.	c #3A362E",
">.	c #AE9E6C",
",.	c #CAC6BF",
"'.	c #8A8264",
").	c #9A9688",
"!.	c #C2B281",
"~.	c #9A8A64",
"{.	c #625E54",
"].	c #3A3A3C",
"^.	c #A29E84",
"/.	c #868276",
"(.	c #CEBE9C",
"_.	c #9A967C",
":.	c #8A7A4B",
"<.	c #544E44",
"[.	c #A2966C",
"}.	c #BAA66C",
"|.	c #6A6A6C",
"1.	c #928A70",
"2.	c #AAA69C",
"3.	c #5A563C",
"4.	c #AA9E74",
"5.	c #727274",
"6.	c #B6B6B4",
"7.	c #BEAA70",
"8.	c #9A8A54",
"9.	c #0A0A0C",
"0.	c #1A1A1C",
"a.	c #E2E2E4",
"b.	c #AEAEAC",
"c.	c #8E8A8C",
"d.	c #C6C2BC",
"e.	c #7E7A74",
"f.	c #BEB28C",
"g.	c #766A4C",
"h.	c #867A54",
"i.	c #322E2C",
"j.	c #7C6E44",
"k.	c #969693",
"l.	c #CABA84",
"m.	c #828284",
"n.	c #9A8E6F",
"o.	c #C6BA9C",
"p.	c #968A64",
"q.	c #7B7258",
"r.	c #928A64",
"s.	c #B6A66F",
"t.	c #C2C2B4",
"u.	c #4A4A3C",
"v.	c #A6A6A4",
"w.	c #363634",
"x.	c #CEC6B1",
"y.	c #7E7A6C",
"z.	c #C6B274",
"A.	c #504A38",
"B.	c #665E44",
"C.	c #AEA684",
"D.	c #474236",
"E.	c #D6D6D4",
"F.	c #525253",
"G.	c #8A8A8C",
"H.	c #C2C2C4",
"I.	c #CAC2A4",
"J.	c #C8BA8F",
"K.	c #4A4A4B",
"L.	c #7A7A7C",
"M.	c #ACA694",
"N.	c #BAB294",
"O.	c #666663",
"P.	c #827A5A",
"Q.	c #5E5E5C",
"R.	c #9E9E9C",
"S.	c #BABABC",
"T.	c #B2B2B4",
"U.	c #060604",
"V.	c #262624",
"W.	c #DEDEDC",
"X.	c #161614",
"Y.	c #2E2E2C",
"Z.	c #0E0E0C",
"`.	c #1E1E1C",
" +	c #766640",
".+	c #BEB6A0",
"++	c #8E8A74",
"@+	c #C6C2B4",
"#+	c #CEC2A0",
"$+	c #766E54",
"%+	c #CACACC",
"&+	c #847E6C",
"*+	c #8E7E54",
"=+	c #A69A74",
"-+	c #929294",
";+	c #C6B684",
">+	c #726E6C",
",+	c #B2AA94",
"'+	c #AAAAAC",
")+	c #6A6664",
"!+	c #BEBAAC",
"~+	c #B6B2AC",
"{+	c #6A624C",
"]+	c #8A826C",
"^+	c #A29E8C",
"/+	c #8A7A54",
"(+	c #A29674",
"_+	c #928A7C",
":+	c #7A6E54",
"<+	c #BEAE7F",
"[+	c #423E37",
"}+	c #CECABF",
"|+	c #928660",
"1+	c #CEBE94",
"2+	c #A6A290",
"3+	c #766A40",
"4+	c #564E38",
"5+	c #8A8676",
"6+	c #B6A26C",
"7+	c #C2BEB0",
"8+	c #C2B691",
"9+	c #6E6A60",
"0+	c #4A4637",
"a+	c #927E48",
"b+	c #A6A29C",
"c+	c #AA9A68",
"d+	c #767269",
"e+	c #7E7664",
"f+	c #BAAA79",
"g+	c #9E864C",
"h+	c #665A3E",
"i+	c #766E60",
"j+	c #968E78",
"k+	c #3E3A31",
"l+	c #AEA280",
"m+	c #827E74",
"n+	c #CABE9C",
"o+	c #B6AA88",
"p+	c #9E9274",
"q+	c #6E6654",
"r+	c #867244",
"s+	c #BAAE8C",
"t+	c #92824F",
"u+	c #66625C",
"v+	c #BAB29F",
"w+	c #827654",
"x+	c #6E623F",
"y+	c #8E825F",
"z+	c #C6B27C",
"A+	c #A69E81",
"B+	c #9E967A",
"C+	c #8E7A44",
"D+	c #A69668",
"E+	c #968A6C",
"F+	c #5E563F",
"G+	c #9E8A4C",
"                                                                                                ",
"                                      y k.b.'+v.3 R.k.y Q.                                      ",
"                                b.z 6.6.T.b.'+v.3 R.=.k.-+s G.S                                 ",
"                          x H.H.H.S.S.6.T.> I 2.b+b+| | k.Y G.x m.L.                            ",
"                        %+%+%+t.t.7+0 0 Z > > ,+b+2+^+| ).d Y ++m.y L.|.                        ",
"                    '+v +.}+t ,.z !+!+.+v+Z ,+,+M.M ^+o | d d ++5+/.e.J 8 H                     ",
"                  t v +.+.,.d.7 *.*..+.+[ N.N N D Q M A+=+B+d j+++5+/.L.d+S r                   ",
"                v v v +.& & x.@+*.T o.8+_ [ @ o+Q Q l+4.A+(+) G 1.5+&+A J S |.Q.                ",
"              v E.O O }+x.x.7 I.n+o.T 8+f.!.<+s+f+f+Q l+4.A+(+p+n.1.5+&+y.d+S u+r               ",
"            t E.v O }+}+x.7 I.n+B = E ;+E !.!.<+f+Q }.{ { c+=+(+# E+|+'.P.9 l : V w             ",
"          v.v O +.+.}+x.x.#+#+= J.J.E ;+;+z+z+z+e 7.f+6+6+>.c+D+[.n.E+]+A e+i+9+V ..w.          ",
"          v +.+.+.x.x.x.#+I.n+1+= l.l.k z.;+z.e e e 7.7.s.6+>.c+) X ~.|+y+P.` P K Q.r           ",
"        %++.& ,.,.@+t.( T .+v+v+v+q N N Q o } A A c p+o o B+G G j+++5+m+e.J 8 : u+..r H         ",
"      x %+%+z 6.b.b+=.-+x m.L.5.|.u+Q.r Q.S y s G.L.V K. .H H H K.K.K.w w w w <.F.F.F.w         ",
"      H.t H.6.b.v.=.-+G.m.J >+|.V ..S R.H.v z s x s v.T.m.F. . . .H H H H K.K.K.w w w w $       ",
"      t t.S.T.v.R.-+G.m.L.5.|.V Q.m.+.v E.S.w ].].w.w...=.T.Q.$ $ [+ .H H H K.K.H K.K.K.K.      ",
"    b.H.S.T.v.R.k.s G.G.s -+x V =.v E.E.f S 5 5 5 5 i.5 5 Q.'+5.].].$  . . .H H H H H H H 5     ",
"    S.S.6.'+'+b.T.~+S.t %++.G.L.+.E.f f %+$ Y.&.V.&.&.&.Y.Y...v.F.Q.O.w  .$  .H  .H H H H  .    ",
"    S.6.6.S.z H.t t t %+%+6.|.H.v E.f W.3 &.V.V.^ ^ ^ ^ V.&.Y.V R.r '+v.=.5.K. .$  . . . . .    ",
"  y 6.6.S.S.z z H.t t S.3 J R.v E.f f W.|.V.`.0.0.0.0.^ `.V.V.Y.=.|.w.K.V L.m.Q. .$  . .$ $     ",
"  k.T.T.6.6.z z z H.=.|.Q...H.E.E.f f a.$ `.0.X.X.X.X.0.0.^ ^ &.|.=.w.w.w.]. .S w ].$ $ $ $ V.  ",
"  b.b.b.T.6.6.S.z T.S O...5.+.v E.W.W.E.5 X.F Z.Z.Z.F X.0.0.^ V.$ R.w.Y.5 w.w.].$ $ ].$ $ ].5   ",
"  '+'+'+b.T.6.S.S.S.G.O.r y v E.E.W.a.t V.X.F 9.9.U.Z.F X.0.`.^ &.k.H  . .$ ].w.w.].].].].].Y.  ",
"  v.v.R.k.k.=.3 b.S.z 6.k.3 +.v E.f W.t V.F 9.U.. U.9.F X.0.`.^ V.-+K.S s -+m.S V K.$ ].n w.Y.  ",
"  3 3 =.-+G.m.L.L.L.m.G.-+=.v.'+H.t f t K.w.&.9.U.U.9.F X.X.`.^ ^ s K.5 $ Q.x m.L.S ..w $ w.&.  ",
"  R.R.=.-+G.m.L.8 |.V ..F.|.T.'+R.=.3 s V.F Z.9.U.9.Z.Z.F 0.0.^ Y.=.$ &.5 5 ].L.J |.V r K.$ &.  ",
"  k.=.k.s x y J y J V r F.Q.t +.v E.f E.5 X.F Z.Z.Z.F X.X.0.`.^  .=.5 &.Y.5 w y J |.Q.F.H ].V.  ",
"  y k.-+G.m.L.J J '+k.S F.K.b.%+%++.E.f ].0.X.X.F F F X.0.`.`.^ S G.&.5 H J m.L.5.O...w  .w.^   ",
"  Q.-+s G.m.L.5.|.S G.v.b.=.b.t %+%+v E.J &.^ `.`.`.^ V.i.w. .w v.s x -+-+s m.J |.V r K.$ 5     ",
"    s s x m.L.5.|.O.Q.Q.L.-+v.6.H.%+%+v z v.R.k.k.=.v.3 6.S.z S.T.'+3 =.-+x y S V F. .w.Y.Y.    ",
"    G.G.x y L.5.|.O.Q...F.K.H F.m.m.m.x k.R.v.6.H.H.H.z 6.6.b.3 s x L.O.Q.K. .].5 5 Y.Y.Y.&.    ",
"    5.x m.y J 5.|.V Q.r F.w H  .S '+T.'+3 |.5 w.].].w.w.H S O.].Y.Y.Y.Y.&.Y.Y.Y.5 Y.Y.Y.&.`.    ",
"      m.y L.5.S |.V Q.W F.w H  .$ K.3 S.z 6.r &.V.&.w.S v.x 5 &.&.&.Y.Y.Y.Y.Y.Y.Y.Y.Y.Y.&.      ",
"      J y L.J S |.O.Q...F.w K.H $ ].$ O.s b.6.k.-+=.R.m.w Y.&.&.Y.Y.&.Y.Y.Y.Y.Y.Y.Y.&.&.^       ",
"        L.L.J S |.V Q...F.w K.H  .$ ].].5 w.$ H H ].5 &.&.&.Y.&.&.Y.Y.Y.Y.Y.&.Y.&.Y.&.&.        ",
"        S J J L.e./././.++_+j+j+G p+B+p+(+(+(+(+(+# p+# X 1.y+c A q.i+q+2 % #.H [+w.Y.`.        ",
"          5.>+5.5.y.A A c c y+t+@.@.8.8.G+G+G+g g+g C a+a+C+:.L j. +x+h+-.4+h D.;.Y.V.          ",
"          H S S 8 l 9 e+y.h.c c c *+t+t+t+C t+C t+1 1 C+, + j.~  +x+h+-.4+h D.;.i.&.            ",
"            W )+|.: S i+d+q.` w+P.w+h./+/+:.:.+ , + + j j.j.3+ +] i 4 A.A.u n 5 V.0.            ",
"              Q.O.O.K : 9+$+$+$+:+j q.j w+L j L j j.j.3+ +x+] i F+4 A.h [+n i.&.^               ",
"                r Q.Q.2 V 2 q+P P g.g.; g.g.;  +b b x+%.] i -.4 4+A.D.u ;.i.&.`.                ",
"                  w ......{.{.{.2 2 {+%.K {+{+{+%.h+] i F+4 4+A.0+D.k+5 Y.&.0.                  ",
"                    w.r r r r W % ..% % i i % -.F+4 #.4+' A.0+[+k+;.5 &.V.                      ",
"                        H F.F.w w F.#.<.#.#.<.<.' A.h 0+D.[+k+;.5 Y.&.`.                        ",
"                             .K.H H K.K.< < < < < D.$ [+n ;.5 Y.&.^                             ",
"                                w. . .$ [+$ $ ].w.n w.5 5 Y.&.`.                                ",
"                                        &.5 Y.Y.&.&.&.`.                                        ",
"                                                                                                "};
