/* XPM */
static char * rndunkwn_xpm[] = {
"48 48 199 2",
"  	c None",
". 	c #B6B6B6",
"+ 	c #B2B2B2",
"@ 	c #AEAEAE",
"# 	c #AAAAAA",
"$ 	c #A6A6A6",
"% 	c #A2A2A2",
"& 	c #9E9E9E",
"* 	c #9B9B9B",
"= 	c #979797",
"- 	c #939393",
"; 	c #C1C1C1",
"> 	c #BEBEBE",
", 	c #BABABA",
"' 	c #9A9A9A",
") 	c #969696",
"! 	c #8F8F8F",
"~ 	c #8B8B8B",
"{ 	c #878787",
"] 	c #CCCCCC",
"^ 	c #C9C9C9",
"/ 	c #C5C5C5",
"( 	c #BDBDBD",
"_ 	c #B9B9B9",
": 	c #B5B5B5",
"< 	c #B1B1B1",
"[ 	c #929292",
"} 	c #8E8E8E",
"| 	c #8A8A8A",
"1 	c #868686",
"2 	c #838383",
"3 	c #7F7F7F",
"4 	c #CFCFCF",
"5 	c #C8C8C8",
"6 	c #C4C4C4",
"7 	c #C0C0C0",
"8 	c #ADADAD",
"9 	c #A9A9A9",
"0 	c #A5A5A5",
"a 	c #A1A1A1",
"b 	c #9D9D9D",
"c 	c #828282",
"d 	c #7E7E7E",
"e 	c #7A7A7A",
"f 	c #777777",
"g 	c #D5D5D5",
"h 	c #D2D2D2",
"i 	c #CECECE",
"j 	c #CBCBCB",
"k 	c #C7C7C7",
"l 	c #C3C3C3",
"m 	c #BFBFBF",
"n 	c #BCBCBC",
"o 	c #B8B8B8",
"p 	c #B4B4B4",
"q 	c #B0B0B0",
"r 	c #ACACAC",
"s 	c #A8A8A8",
"t 	c #999999",
"u 	c #959595",
"v 	c #919191",
"w 	c #8D8D8D",
"x 	c #898989",
"y 	c #767676",
"z 	c #727272",
"A 	c #6F6F6F",
"B 	c #D7D7D7",
"C 	c #D4D4D4",
"D 	c #D0D0D0",
"E 	c #CDCDCD",
"F 	c #C6C6C6",
"G 	c #C2C2C2",
"H 	c #B7B7B7",
"I 	c #B3B3B3",
"J 	c #AFAFAF",
"K 	c #ABABAB",
"L 	c #A4A4A4",
"M 	c #A0A0A0",
"N 	c #9C9C9C",
"O 	c #989898",
"P 	c #949494",
"Q 	c #858585",
"R 	c #818181",
"S 	c #7D7D7D",
"T 	c #797979",
"U 	c #6E6E6E",
"V 	c #6A6A6A",
"W 	c #D8D8D8",
"X 	c #A3A3A3",
"Y 	c #9F9F9F",
"Z 	c #909090",
"` 	c #8C8C8C",
" .	c #888888",
"..	c #848484",
"+.	c #808080",
"@.	c #757575",
"#.	c #717171",
"$.	c #6D6D6D",
"%.	c #696969",
"&.	c #666666",
"*.	c #BBBBBB",
"=.	c #7C7C7C",
"-.	c #787878",
";.	c #747474",
">.	c #707070",
",.	c #6C6C6C",
"'.	c #686868",
").	c #656565",
"!.	c #616161",
"~.	c #CACACA",
"{.	c #7B7B7B",
"].	c #737373",
"^.	c #6B6B6B",
"/.	c #646464",
"(.	c #606060",
"_.	c #5C5C5C",
":.	c #676767",
"<.	c #636363",
"[.	c #5F5F5F",
"}.	c #5B5B5B",
"|.	c #585858",
"1.	c #515151",
"2.	c #535353",
"3.	c #626262",
"4.	c #5E5E5E",
"5.	c #5A5A5A",
"6.	c #575757",
"7.	c #4F4F4F",
"8.	c #494949",
"9.	c #5D5D5D",
"0.	c #595959",
"a.	c #565656",
"b.	c #525252",
"c.	c #A7A7A7",
"d.	c #444444",
"e.	c #424242",
"f.	c #434343",
"g.	c #4D4D4D",
"h.	c #545454",
"i.	c #3B3B3B",
"j.	c #3C3C3C",
"k.	c #3E3E3E",
"l.	c #505050",
"m.	c #4C4C4C",
"n.	c #353535",
"o.	c #363636",
"p.	c #383838",
"q.	c #474747",
"r.	c #4E4E4E",
"s.	c #4B4B4B",
"t.	c #2F2F2F",
"u.	c #313131",
"v.	c #333333",
"w.	c #373737",
"x.	c #464646",
"y.	c #292929",
"z.	c #2C2C2C",
"A.	c #2E2E2E",
"B.	c #484848",
"C.	c #242424",
"D.	c #272727",
"E.	c #2A2A2A",
"F.	c #555555",
"G.	c #4A4A4A",
"H.	c #1F1F1F",
"I.	c #222222",
"J.	c #252525",
"K.	c #454545",
"L.	c #414141",
"M.	c #171717",
"N.	c #1B1B1B",
"O.	c #1E1E1E",
"P.	c #262626",
"Q.	c #404040",
"R.	c #3D3D3D",
"S.	c #101010",
"T.	c #131313",
"U.	c #1D1D1D",
"V.	c #202020",
"W.	c #070707",
"X.	c #0C0C0C",
"Y.	c #111111",
"Z.	c #393939",
"`.	c #0A0A0A",
" +	c #020202",
".+	c #060606",
"++	c #0D0D0D",
"@+	c #0B0B0B",
"#+	c #151515",
"$+	c #343434",
"%+	c #191919",
"&+	c #3F3F3F",
"*+	c #323232",
"=+	c #1C1C1C",
"-+	c #3A3A3A",
";+	c #303030",
">+	c #2D2D2D",
",+	c #2B2B2B",
"'+	c #282828",
"                                                                                                ",
"                                      . + @ # $ % & * = -                                       ",
"                                ; > , . + @ # $ % & ' ) - ! ~ {                                 ",
"                          ] ^ / ; ( _ : < @ # $ % & ' ) [ } | 1 2 3                             ",
"                        4 ] 5 6 7 ( _ : < 8 9 0 a b ' ) [ } | 1 c d e f                         ",
"                    g h i j k l m n o p q r s 0 a b t u v w x 1 c d e y z A                     ",
"                  B C D E ^ F G > , H I J K s L M N O P v w x Q R S T y z U V                   ",
"                W g h i j k 6 7 ( _ : + @ # $ X Y * = P Z `  ...+.S T @.#.$.%.&.                ",
"              W g h 4 ] ^ F G m *.o p q 8 9 0 % & ' ) - ! ~ { 2 +.=.-.;.>.,.'.).!.              ",
"            B g h D E ~.k l 7 ( _ . + J K s L M b t u v } | 1 c 3 {.f ].A ^.'./.(._.            ",
"          g C h 4 E ~.k 6 ; > *.H p J N  .T $.&./.'.>.=. .x Q R S e y z U ^.:.<.[.}.|.          ",
"          h D i ] ~.k 6 G m n o I O -.V '.A y ;.,.}.1.1.2.%.+.+.=.T @.#.$.V &.3.4.5.6.          ",
"        4 i E j ^ k 6 G m n _ I 1 A ^.{ M % Y * O [ e 7.8.8.1.-.{.f ;.>.,.'.).!.9.0.a.b.        ",
"      ] ] j ^ k F l ; m n _ : { U :.u c.L M b ' ) - ! S d.e.f.g.-.y z A ^.:.<.(._.|.h.1.        ",
"      ^ 5 k F 6 G 7 > n _ . N U :.U s 0 % & * O P v w | |.i.j.k.[.;.#.$.V &.3.4.}.6.2.l.m.      ",
"      / 6 l G 7 m ( *.o . p d :.[./.L % Y N t ) [ ! `  .V n.o.p.q.].A ,.'./.!.9.0.a.b.r.s.      ",
"    ; ; 7 m > ( *._ H : I < $.(.0.b.{ M b ' = - Z w | 1 #.t.u.v.w.#.U V :.<.[._.|.h.1.g.8.x.    ",
"    > ( ( n , _ o . p + q 8 z }.2.s.$.b ' = P v } ~ { ..^.y.z.A.u.>.,.'.).!.4.5.6.2.7.m.B.d.    ",
"    , _ _ o H : p + < J 8 # - 0.g.s.| * O u [ ! `  .Q c a.C.D.E.w.U V :.<.(._.0.F.1.r.G.q.f.    ",
"  . . : : p I + q J 8 K 9 c.0 O Q P * O u [ ! ` x 1 2 d t.H.I.J.B.,.'.).3.4.5.6.2.l.m.8.K.L.    ",
"  + + < < q J @ 8 K 9 s $ L % Y b ' O u [ Z w | { ..R m.M.N.O.P.<.V &.<.(._.0.F.b.r.s.q.f.Q.R.  ",
"  @ @ @ 8 r K # 9 s $ L % M & N ' = u [ Z w | { ..d K.S.T.M.U.r.^.'./.!.4.5.6.2.l.g.8.K.e.k.i.  ",
"  # # # 9 s s $ 0 L % a Y b * t = P [ ! w | { ..$.V.W.X.Y.V.h.,.%.&.3.[._.|.F.b.r.s.q.d.Q.R.Z.  ",
"  $ $ $ 0 0 L X % M Y b * ' O ) - v ! ` | { c g.`. +.+I.G.^.$.V :.<.(.9.5.a.2.l.m.8.K.e.k.i.p.  ",
"  % % % a a M Y & b * ' O ) P [ Z } ` x { 2 Q.++@+o.).].#.U ^.:./.!.4.}.6.h.1.r.G.q.f.Q.j.Z.o.  ",
"  & & & b b N * ' t = ) P - v ! w ~  .1 ..3.#+T.}.f ;.#.U ^.'.).3.[._.0.F.b.7.s.B.K.L.k.i.w.$+  ",
"  * ' ' ' t O = ) u P [ v ! w ` | { Q 2 R Q.%+&+y ;.#.U ^.%.).<.(._.0.a.2.l.g.8.x.f.&+j.Z.n.*+  ",
"  = ) ) ) u P P - v Z ! w ` |  .1 ..c +.d o.=+4.;.#.U ,.%.&.<.(.9.5.6.h.1.r.G.q.d.L.R.-+w.v.u.  ",
"  - - [ [ v v Z ! } ` ~ |  .1 Q 2 R 3 S e p.V.'.#.U ^.%.&.<.(.9.}.|.h.1.r.s.B.K.e.k.i.p.n.u.    ",
"    ! } } w w ` ~ | x { 1 Q 2 R 3 S {.T f K.v.^.U ^.%.&.<.(.4.}.|.F.b.7.m.8.x.f.&+j.Z.o.*+t.    ",
"    ~ | | x x  .{ 1 Q ..c R 3 d =.e -.y ;.z A $.^.'.).<.(.4.}.|.F.b.7.m.8.x.f.Q.R.-+w.v.;+>+    ",
"    { 1 1 1 Q ..2 c R +.3 S =.e -.f @.].#.U ,.V :.).<.(.9.}.|.F.b.l.g.G.q.d.L.k.i.p.$+u.A.z.    ",
"      2 c c R +.+.3 S =.{.e -.f @.].#.A 5.-+$+q.3.3.(.9.}.|.F.b.l.g.G.q.d.L.k.i.p.n.*+t.z.      ",
"      3 d d S S =.{.e T f y ;.].#.>.U /.p.n.*+t.s.[._.5.|.F.b.l.g.G.q.K.e.&+j.Z.o.v.;+>+E.      ",
"        e e T T -.f y @.;.z #.A U ,.V |.-+w.n.*+Q._.0.6.h.b.7.g.G.q.K.e.&+j.Z.o.v.;+>+E.        ",
"        f y y @.;.].z #.>.A $.,.V '.:.[.R.-+w.n.G.0.a.h.1.7.m.G.q.K.e.&+j.Z.w.$+u.A.,+'+        ",
"          z z #.>.A U $.,.^.V '.:.).<.3.h.Q.i.x.a.F.2.1.r.m.8.q.d.e.&+j.-+w.$+u.A.,+'+          ",
"          A U $.,.^.^.V '.:.&./.<.!.(.4._.5.|.a.h.b.l.r.s.8.x.d.L.&+j.Z.w.$+u.A.,+y.            ",
"            V %.'.'.:.&.).<.3.!.[.4._.5.0.6.F.2.1.7.g.G.B.x.f.L.k.j.Z.w.$+u.A.z.y.D.            ",
"              &.)./.<.3.!.(.4.9._.5.0.6.F.2.b.l.r.s.8.q.K.f.Q.k.i.Z.o.$+u.A.z.y.D.              ",
"                !.(.[.4.9._.}.0.|.6.F.2.b.l.r.m.G.B.x.d.e.&+R.i.p.o.v.u.A.,+y.D.                ",
"                  _.}.5.0.|.6.a.h.2.1.l.r.g.s.8.q.K.f.L.k.j.-+p.n.v.;+A.,+y.D.                  ",
"                    |.6.a.h.2.b.1.7.r.m.s.8.q.K.f.L.&+R.i.Z.w.$+*+;+>+,+'+                      ",
"                        b.1.l.r.g.m.G.8.q.K.d.e.Q.k.j.-+p.o.v.u.t.>+E.'+                        ",
"                            m.s.8.B.q.K.f.e.Q.k.j.i.Z.w.n.*+;+A.z.E.                            ",
"                                x.d.f.L.Q.k.R.i.Z.w.n.v.u.t.>+z.                                ",
"                                        R.i.Z.p.o.$+*+u.                                        ",
"                                                                                                "};
