/* XPM */
static char * rndvnc_xpm[] = {
"48 48 256 2",
"  	c None",
". 	c #221E22",
"+ 	c #4F5E75",
"@ 	c #8E825D",
"# 	c #E62226",
"$ 	c #AE9E70",
"% 	c #DC2226",
"& 	c #C5B281",
"* 	c #B22E2A",
"= 	c #D85C52",
"- 	c #2E2A2B",
"; 	c #BDBAB6",
"> 	c #766A53",
", 	c #EEB672",
"' 	c #3E3A32",
") 	c #AE965E",
"! 	c #B5B3A9",
"~ 	c #942626",
"{ 	c #9A8E6C",
"] 	c #A09F9C",
"^ 	c #4B463C",
"/ 	c #C2AA72",
"( 	c #AE6E4A",
"_ 	c #CAB275",
": 	c #AE2A2A",
"< 	c #5E5A46",
"[ 	c #93918B",
"} 	c #A39E93",
"| 	c #817659",
"1 	c #726242",
"2 	c #7A2626",
"3 	c #CABA97",
"4 	c #EE4636",
"5 	c #C8C6BD",
"6 	c #EE885A",
"7 	c #BEBAA9",
"8 	c #6E2A26",
"9 	c #BEAE7C",
"0 	c #625644",
"a 	c #D2BA7A",
"b 	c #84827C",
"c 	c #59564B",
"d 	c #9F8E64",
"e 	c #566483",
"f 	c #BBA265",
"g 	c #917D51",
"h 	c #DEBD78",
"i 	c #D65052",
"j 	c #482626",
"k 	c #EE3632",
"l 	c #DE262A",
"m 	c #D4D2CC",
"n 	c #78766F",
"o 	c #9E9782",
"p 	c #AA9E7C",
"q 	c #565243",
"r 	c #E4C67C",
"s 	c #CEBA82",
"t 	c #622E2A",
"u 	c #EA9E66",
"v 	c #EE724E",
"w 	c #6F6651",
"x 	c #AEA592",
"y 	c #A99668",
"z 	c #94825A",
"A 	c #A9A7A0",
"B 	c #C8BEA5",
"C 	c #BEB28C",
"D 	c #DD383D",
"E 	c #CE8656",
"F 	c #777269",
"G 	c #322622",
"H 	c #B6AA87",
"I 	c #D2BA83",
"J 	c #BBA97F",
"K 	c #6A665F",
"L 	c #877653",
"M 	c #948A72",
"N 	c #EECE7A",
"O 	c #514E43",
"P 	c #464238",
"Q 	c #DA6E5E",
"R 	c #CECABA",
"S 	c #988F77",
"T 	c #726E6A",
"U 	c #EE322E",
"V 	c #272222",
"W 	c #B3A67E",
"X 	c #C82A28",
"Y 	c #4E3232",
"Z 	c #999791",
"` 	c #865246",
" .	c #CDC2A4",
"..	c #D8A27A",
"+.	c #D2BE86",
"@.	c #393633",
"#.	c #8D8367",
"$.	c #C2B28C",
"%.	c #CAB689",
"&.	c #9E8A56",
"*.	c #625A48",
"=.	c #DA484A",
"-.	c #7A7253",
";.	c #A5966E",
">.	c #AEA99F",
",.	c #9E9278",
"'.	c #D4383C",
").	c #C26E4A",
"!.	c #8F897F",
"~.	c #A29E8A",
"{.	c #7A7669",
"].	c #887E65",
"^.	c #66625A",
"/.	c #625E58",
"(.	c #837E72",
"_.	c #C2B69C",
":.	c #B4AB92",
"<.	c #726E64",
"[.	c #CDCAC1",
"}.	c #C9C3AF",
"|.	c #D6BE84",
"1.	c #8E8E86",
"2.	c #534A3F",
"3.	c #EBCA7C",
"4.	c #C1BEB9",
"5.	c #526685",
"6.	c #BDAA74",
"7.	c #D6BA76",
"8.	c #868273",
"9.	c #D6B27A",
"0.	c #B5B2AF",
"a.	c #EE2A2A",
"b.	c #CFC29A",
"c.	c #B0ADA9",
"d.	c #AAA694",
"e.	c #726A4E",
"f.	c #C3AE80",
"g.	c #CBB680",
"h.	c #E6BA76",
"i.	c #9F9170",
"j.	c #7A725E",
"k.	c #39322B",
"l.	c #877A5A",
"m.	c #D1CEC5",
"n.	c #948E81",
"o.	c #928262",
"p.	c #E25A4C",
"q.	c #4E4A3E",
"r.	c #EE6C4C",
"s.	c #DEC284",
"t.	c #463E33",
"u.	c #6C5C44",
"v.	c #5B5242",
"w.	c #E2AE76",
"x.	c #4E607A",
"y.	c #A29268",
"z.	c #BCB5A4",
"A.	c #AA9A73",
"B.	c #B69E62",
"C.	c #D2867A",
"D.	c #CEC2AA",
"E.	c #665E4A",
"F.	c #999382",
"G.	c #413E35",
"H.	c #827E6A",
"I.	c #DAC27E",
"J.	c #C5B68F",
"K.	c #D2B675",
"L.	c #BEB292",
"M.	c #776E5C",
"N.	c #E23E32",
"O.	c #D9C286",
"P.	c #9F9A8E",
"Q.	c #BBA670",
"R.	c #AE9E79",
"S.	c #B5A270",
"T.	c #B4AD9E",
"U.	c #C7C2B7",
"V.	c #A99E87",
"W.	c #2A2626",
"X.	c #89867F",
"Y.	c #E23234",
"Z.	c #CEBA86",
"`.	c #BEAE88",
" +	c #5E5A4D",
".+	c #C3BEB0",
"++	c #BFBAB0",
"@+	c #DEC27A",
"#+	c #826E4A",
"$+	c #564E41",
"%+	c #8A8272",
"&+	c #817A66",
"*+	c #352B28",
"=+	c #7C7A72",
"-+	c #6B665A",
";+	c #8A7E5C",
">+	c #B1A688",
",+	c #BAAE91",
"'+	c #D26666",
")+	c #D6C28F",
"!+	c #4B4236",
"~+	c #EE523E",
"{+	c #6E3636",
"]+	c #EE4236",
"^+	c #E67E56",
"/+	c #5E5646",
"(+	c #CCBA8E",
"_+	c #D62626",
":+	c #AE9A69",
"<+	c #988A64",
"[+	c #AAA28F",
"}+	c #C6AE72",
"|+	c #D7D6D3",
"1+	c #6E6A61",
"2+	c #796E53",
"3+	c #D9BE7A",
"4+	c #54524C",
"5+	c #422622",
"6+	c #EE1E26",
"7+	c #8E7E5B",
"8+	c #CDB677",
"9+	c #726A56",
"0+	c #6A624E",
"a+	c #A6A29C",
"b+	c #D2BE96",
"c+	c #BCB39B",
"d+	c #B2A27A",
"e+	c #AEA286",
"f+	c #CEBE91",
"g+	c #E2C279",
"h+	c #948666",
"i+	c #A39A81",
"j+	c #CEC6B0",
"k+	c #A49775",
"l+	c #DA424A",
"m+	c #CEC6BA",
"n+	c #5D5B54",
"o+	c #D0CECB",
"p+	c #95865E",
"q+	c #B9B6B1",
"r+	c #8E8672",
"s+	c #C4B896",
"t+	c #D2BF8E",
"u+	c #4A5E85",
"v+	c #BAAA87",
"w+	c #A6A294",
"x+	c #CDBE9A",
"y+	c #EA6246",
"z+	c #635E50",
"A+	c #A69265",
"B+	c #C3BAA5",
"C+	c #7F7254",
"D+	c #7F7663",
"E+	c #C5BA9C",
"F+	c #C2C2BE",
"G+	c #B29E6D",
"                                                                                                ",
"                                      q+0.c.>.A a+] ] Z Z                                       ",
"                                F+4.; q+q+0.c.A a+] ] Z Z [ 1.!.                                ",
"                          o+[.5 F+4.; q+0.c.c.>.A a+} P.Z [ 1.!.X.b                             ",
"                        o+[.5 F+F+4.; q+q+! c.>.A a+a+P.P.Z [ !.X.b (.=+                        ",
"                    |+m o+o+[.5 F+4..+7 z.! ! c.:.d.w+} ~.Z [ [ !.X.b =+n F                     ",
"                  |+m o+[.5 5 U.F+B+7 z.c+c+c+:.:.x d.} i+P.Z [ 1.X.b (.=+F T                   ",
"                |+m m o+o+R U.}.B .+B+B+z.c+,+T.:.:.x >+[+V.k+F.n.!.X.(.=+n T 1+                ",
"              |+|+m o+[.R R D.U.B B B+E+z._._.,+,+H >+>+[+V.i+k+F.n.!.8.=+=+T <.K               ",
"            |+|+o+o+m.R m+D.}. .}.B B E+E+_.$.$.,+`.,+>+d+e+V.o k+S M X.8.{.n 1+K ^.            ",
"          |+m m m.m.R R 5 j+}.B B 3 x+3 3 s+J.J.$.`.`.,+H W d+i+i+o M r+%+&+n T 1+^.^.          ",
"          o+m m.m.R R j+j+D.x+x+B x+(+E+(+(+3 %.J.& $.9 v+J d+e+A.k+,.M r+8.=+F 1+^.n+          ",
"        m o+m.R R m+m+j+D.D. .b.x+f+f+f+Z.Z.Z.Z.Z.%.& & `.9 J d+p A.k+S h+].&+F <.K /.n+        ",
"      o+[.[.[.m+m+j+D. .}.b.b.x+b.f+t+t++.t++.I I I I %._ f.v+Q.d+p k+,.M r+H.{.<.K /.c         ",
"      [.5 5 5 m+D.U.D. . .x+b.b+)+b++.)+|.O.)+O.|.|.I Z.g.g.& v+Q.R.A.k+{ h+].D+j.1+^.n+c       ",
"      5 5 U.5 U.}. .}.x+x+b.b+)+b+)+O.)+r s.s.s.s.I.s.3+|.g._ & J W R.;.i.M #.&+j.1+^.n+4+      ",
"    4.F+U..+B U.}.B x+ .x+C.'+= i =.=.p.w.r r h.p.Y.Y.Y.= K.K.g.o.2+y.A.;.<+h+&+D+9+^. +4+4+    ",
"    4.4.4..+.+B E+B B x+b+x+..=.=.D D K.7.3.N 3.3.y+# ^+r h 3+K.f :+G+$ ;.{ h+;+| <.-+/.c q.    ",
"    ; ; 4..+++B E+B 3 3 f+f+)+Q l+'.{+*+V k.z N N r.N.L 0 v.0  +/+ +A.G+A.i.M ;+D+M.0+z+c O     ",
"  q+q+q+z.q+B+_.E+3 3 f+f++.+...'.Y W.V . . V #+3.U 8 . . V W.- k.@.A+W :+y.<+@ &+2+-+*.c q.    ",
"  0.q+q+z.0.z._._.E+3 Z.b+|.O.s.` W.. 5+u.V V . E % V . . V W.- *+@.A+Q.$ A+<+o.&+j.w *.c O q.  ",
"  c.c.! ! c+z._._.J.3 Z.f+O.O.r 2.V V % 6 g . V : ~ . k.}+g+g+7.8+}+}+6.G+;.{ @ l.2+1+/.4+q.^   ",
"  >.>.c.T.! c+c+_.J.J.(+Z.+.I.r P . G 6+]+) . G # j . z N N N 3.@+7.}+/ G+y d o.l.M.w E.4+q.^   ",
"  A >.>.T.:.:.c+L.$.%.%.I |.O.r t.V G 6+6+( . 2 X . . ) N N N N g+7._ Q.S.y <+o.l.2+w *.4+q.P   ",
"  A A A >.:.:.,+L.C J.(+s |.I.r G.V G 6+6+: . X ).V . 1 N N N N r 3+_ / G+y { @ l.M.w z+4+^ P   ",
"  ] a+w+d.x >.:.v+C & J.s I I.r t.. G 6+6+# t # g !+. V #+z g g g L / Q.G+y <+@ | M.0+0 $+^ G.  ",
"  P.] } w+[+>+:.:.,+f.& g.I |.g+t.. G 6+6+6+% ~ g B.V V . V V . W.W.:+/ G+A+<+7+| 2+0+c O ^ P   ",
"  P.P.} } w+[+e+>+v+`.& g.s 3+@+!+V *+a.6+6+6+j L 3.&.G . . . V W.*+:+f :+y.p+].C+w E.c O P G.  ",
"  Z Z P.P.~.w+e+>+H v+f.& 8+a 3+7.h r v 6+6+]+g+3.N N h f f f :+y d Q.S.y d p+l.-.w *.q ^ P     ",
"    [ [ Z o i+p [+d+J ,+f.g.s 3+@+3.N , 6+6+6 a }+/ 6.f./ 6.Q.Q.$ ;.S.G+A+<+7+| > 0+*.$+^ '     ",
"    n.n.[ o P.i+V.e+d+Q.v+}+_ s 7.@+r N ~+a.g+8.u+u+u+u+u+u+u+u++ + <+:+d p+l.C+e.E.v.q.P '     ",
"    1.1.n.n.F.o i+p e+W J 9 & 8+a 7.@+r u r.N !.5.5.5.5.5.e x.+ + + <+A+&.7+l.2+0+*.q q.G.G.    ",
"      !.!.!.n.F.,.k+i+R.d+Q.6.}+g.a 7.3+r r 3.3.3.3.r @+3+7.K./ Q.G+y d p+l.C+e.E.c q.P '       ",
"      b X.!.!.M F.,.i+A.R.e+Q.6.}+}+8+K.a 3+I.3+I.3+3+7.K._ / Q.G+) d p+;+| M.1 *.$+^ G.'       ",
"        (.%+X.r+M S F.k+A.A.d+S.6.6.}+_ 8+_ a K.K.K._ _ }+/ f G+:+y.p+7+| 2+w *.v.2.P '         ",
"        =+(.b 8.X.r+M S ,.k+A.R.G+Q.Q.6./ }+}+}+}+}+}+Q.f B.$ A+d p+@ l.#+w E./+O ^ G.'         ",
"          n =+(.%+#.r+M S { i.;.;.$ G+S.S.f Q.Q.Q.f S.B.$ y A+&.p+7+| -.w u.< $+^ G.@.          ",
"          n {.=+=+H.(.#.r+M { { y.y.y y :+:+:+G+:+:+) y d &.<+o.l.| #+w 0+< v.q.P '             ",
"            T F F D+=+&+].%+h+h+M <+d i.y.y.y.y.d y.{ d <+o.7+l.C+2+w u.*.$+q.P ' '             ",
"              <.T F j.{.&+&+].8.#.#.h+p+h+<+p+p+<+p+o.7+l.l.| C+e.w u.< q q.P ' @.              ",
"                1+1+1+<.M.F C+D+l.&+].].;+7+#.l.l.l.l.l.C+2+e.w 0+E./+O q.t.' '                 ",
"                  K K K 1+1+<.M.M.C+j.| | D+C+| | C+2+> e.w 0+E./+q 2.^ G.' '                   ",
"                    -+^.^.^.-+K 1+9+1+e.9+<.e.e.e.e.w 0+E.*./+q O q.!+G.'                       ",
"                        /.z+z+z+z+E.E.^.0+0+0+E.E.*.*.0 /+v.$+q.^ G.' '                         ",
"                            n+c n+ +/+ +/+/+ +c c q q O q.^ !+G.G.G.                            ",
"                                4+O 4+4+4+4+O $+2.q.^ ^ P P G.!+                                ",
"                                        O 2.q.q.^ ^ ^ ^                                         ",
"                                                                                                "};
