/* XPM */
static char * rndvmware_xpm[] = {
"48 48 256 2",
"  	c None",
". 	c #1D1D1C",
"+ 	c #3D893F",
"@ 	c #42BE2C",
"# 	c #50504F",
"$ 	c #868685",
"% 	c #8EA284",
"& 	c #BE4E8C",
"* 	c #9B1597",
"= 	c #6A6A6D",
"- 	c #A686A4",
"; 	c #7A3684",
"> 	c #819776",
", 	c #ADC199",
"' 	c #6F546A",
") 	c #36A234",
"! 	c #A2B48C",
"~ 	c #C2326C",
"{ 	c #6E6E6C",
"] 	c #606060",
"^ 	c #6F826F",
"/ 	c #969693",
"( 	c #A6A6A6",
"_ 	c #383838",
": 	c #928A94",
"< 	c #BEBEBC",
"[ 	c #804478",
"} 	c #46DE2C",
"| 	c #56A64C",
"1 	c #50509E",
"2 	c #A713A4",
"3 	c #7C7CCC",
"4 	c #5A3A5C",
"5 	c #8989A7",
"6 	c #658664",
"7 	c #6CBE68",
"8 	c #927C80",
"9 	c #9999B3",
"0 	c #847C7F",
"a 	c #8ED559",
"b 	c #33B62E",
"c 	c #96AC88",
"d 	c #984690",
"e 	c #69506A",
"f 	c #7676C9",
"g 	c #45B631",
"h 	c #756066",
"i 	c #B4B4B4",
"j 	c #AD42A4",
"k 	c #AAAAAB",
"l 	c #7E2E6F",
"m 	c #826A74",
"n 	c #D06CA0",
"o 	c #A69A94",
"p 	c #A2389C",
"q 	c #8B9979",
"r 	c #A198A2",
"s 	c #B6CEAC",
"t 	c #C64A84",
"u 	c #7E926C",
"v 	c #5F5F94",
"w 	c #AA1FA4",
"x 	c #76D254",
"y 	c #269A24",
"z 	c #585858",
"A 	c #A0A2BC",
"B 	c #803C7C",
"C 	c #4E3EB4",
"D 	c #64B460",
"E 	c #5A5A94",
"F 	c #A67284",
"G 	c #A8D67C",
"H 	c #727273",
"I 	c #7C7C7C",
"J 	c #929297",
"K 	c #5C445C",
"L 	c #722A68",
"M 	c #64648C",
"N 	c #5AE024",
"O 	c #3CB82C",
"P 	c #A646A4",
"Q 	c #8A666C",
"R 	c #902A78",
"S 	c #8C9E70",
"T 	c #9DA38F",
"U 	c #B987A1",
"V 	c #959E91",
"W 	c #BAA6BC",
"X 	c #8E8EA9",
"Y 	c #549C54",
"Z 	c #828286",
"` 	c #6E666C",
" .	c #BB2294",
"..	c #7E827C",
"+.	c #56BE54",
"@.	c #A3BA99",
"#.	c #666664",
"$.	c #A6A6C4",
"%.	c #444444",
"&.	c #8C4484",
"*.	c #62AE84",
"=.	c #7AC577",
"-.	c #A64274",
";.	c #AEBAAC",
">.	c #8D988A",
",.	c #7C7C91",
"'.	c #2C2C2C",
").	c #8A8A8C",
"!.	c #4A7A4C",
"~.	c #B2CAA4",
"{.	c #AEA6AC",
"].	c #B6C6A4",
"^.	c #36EE0C",
"/.	c #72AE34",
"(.	c #9E9EBE",
"_.	c #91D679",
":.	c #42BA2C",
"<.	c #BE4284",
"[.	c #ADADB8",
"}.	c #D0D0D0",
"|.	c #D64890",
"1.	c #479D47",
"2.	c #8B3B87",
"3.	c #5556C2",
"4.	c #9391B7",
"5.	c #515187",
"6.	c #CE64AC",
"7.	c #AAC0AC",
"8.	c #8E4E8C",
"9.	c #CA82BC",
"0.	c #52CC28",
"a.	c #C696B4",
"b.	c #7ADA3C",
"c.	c #56EE0C",
"d.	c #AC7E94",
"e.	c #46468C",
"f.	c #D65098",
"g.	c #4AAE3C",
"h.	c #6E22AC",
"i.	c #6A366C",
"j.	c #5E815E",
"k.	c #3A8E3C",
"l.	c #84CE80",
"m.	c #C290AC",
"n.	c #62AE5C",
"o.	c #5E5A5C",
"p.	c #242424",
"q.	c #3ECA24",
"r.	c #748C74",
"s.	c #564254",
"t.	c #C8C8C8",
"u.	c #981C94",
"v.	c #AC2680",
"w.	c #A890A8",
"x.	c #A27A8C",
"y.	c #56568C",
"z.	c #8E8E8C",
"A.	c #3E4ABC",
"B.	c #CE3A7C",
"C.	c #3E3E3C",
"D.	c #C2D6A4",
"E.	c #4652BC",
"F.	c #66AA5C",
"G.	c #7AD65C",
"H.	c #634A64",
"I.	c #7C747C",
"J.	c #A28EA4",
"K.	c #968294",
"L.	c #AA9EA8",
"M.	c #5E5EC4",
"N.	c #3A926C",
"O.	c #A6D694",
"P.	c #883474",
"Q.	c #7D6B75",
"R.	c #A08AA0",
"S.	c #369D34",
"T.	c #AE4AA4",
"U.	c #8E4A84",
"V.	c #A0ACA0",
"W.	c #8687C7",
"X.	c #B646AC",
"Y.	c #5F9D5C",
"Z.	c #66BA64",
"`.	c #4A4A4C",
" +	c #82CA7C",
".+	c #323234",
"++	c #3EF20C",
"@+	c #D6D6D4",
"#+	c #56DA2C",
"$+	c #8282CC",
"%+	c #A4449A",
"&+	c #882E6C",
"*+	c #9E2A7C",
"=+	c #9CD680",
"-+	c #A67A94",
";+	c #4EBA4C",
">+	c #6E5A6A",
",+	c #824A79",
"'+	c #9E9E9C",
")+	c #A6B5A7",
"!+	c #A1A2A3",
"~+	c #A61AA4",
"{+	c #61A559",
"]+	c #8E7E8C",
"^+	c #4CB23C",
"/+	c #B62294",
"(+	c #BA4EB4",
"_+	c #A246CC",
":+	c #8C8284",
"<+	c #868695",
"[+	c #D448A8",
"}+	c #643664",
"|+	c #8D6D79",
"1+	c #C2D0B0",
"2+	c #753A74",
"3+	c #524EB4",
"4+	c #82CE54",
"5+	c #6A565C",
"6+	c #9A9A9C",
"7+	c #967E90",
"8+	c #828F81",
"9+	c #C62288",
"0+	c #60BE60",
"a+	c #B9BABB",
"b+	c #B0D694",
"c+	c #96A394",
"d+	c #823377",
"e+	c #72C16E",
"f+	c #B246A4",
"g+	c #767674",
"h+	c #BE8AA4",
"i+	c #92468C",
"j+	c #5A5AC9",
"k+	c #B282A0",
"l+	c #98AC98",
"m+	c #AA96AC",
"n+	c #C8489C",
"o+	c #7A666F",
"p+	c #567A54",
"q+	c #8E8EC4",
"r+	c #4AC224",
"s+	c #86967C",
"t+	c #766E74",
"u+	c #666264",
"v+	c #9A869C",
"w+	c #C2C2C4",
"x+	c #96D65C",
"y+	c #9E4294",
"z+	c #7A606C",
"A+	c #AEAEAC",
"B+	c #863B81",
"C+	c #6AB664",
"D+	c #624664",
"E+	c #3EEC10",
"F+	c #4E9E4C",
"G+	c #B2BEB4",
"                                                                                                ",
"                                      { ).'+6+/ J z.).{ #                                       ",
"                                '+a+a+i i A+k ( !+'+6+/ / ).I u+                                ",
"                          I < t.w+a+a+i A+k k ( !+'+6+/ J z.z...H =                             ",
"                        < t.t.w+w+a+a+i i k k ( '+'+6+J J ).).$ Z I I u+                        ",
"                    ( }.}.}.1+1+~.~.].].@., @.! ! ! c c T % S q > 8+I { u+.+                    ",
"                  < }.}.t.1+_.l. +=.=.e+e+7 7 Z.C+D D D n.{+{+Y.Y.Y.r.g+H = #                   ",
"                }.}.}.}.t.O.l.7.;.;.)+)+! V.V.l+c+c+V >.>.>.8+8+r.Y ^ H { #.o.%.                ",
"              }.@+@+}.}.t.O.e+w+a+a+i [.A+( !+!+'+6+/ J z.z.$ Z s+Y.^ g+H { = u+#               ",
"            t.@+}.}.t.t.t.b+e+< a+i i A+k k ( !+'+6+/ z.).$ $ 0 s+| ^ H { = #.] # _             ",
"          / }.}.}.}.t.t.w+G 7 < i i i a.m.m.h+U U U k+k+d.d.-+x.F |+Q |+m m o+u+] z '.          ",
"          }.}.}.t.t.t.w+< =+0+G+i A+9.(+f+X.j P j j %+%+j y+d y+d &.i+U.,+[ ,+h ] # %.          ",
"        a+}.}.t.t.t.w+w+< =+Z.G+i A+n P - m+w.J.J.R.v+v+K.7+7+8 8 H ` Q.I.z+[ >+] z # C.        ",
"      Z }.t.t.t.t.w+w+< < G +.i A+A+n j {.'+'+6+/ J z.z.).$ ..I > ^+6 H #.Q.[ >+o.z # C.        ",
"      i t.t.t.w+w+w+< a+a+_.+.i i k 6.p {.'+6+/ J J ).$ $ ..I I s+g.6 { = Q.B >+z o.# # _       ",
"      w+w+w+< < < a+a+i i a ;+i k k 6.p L.'+6+/ / z.z.).Z Z I g+>.^+j.= #.Q.[ ' z z # %._       ",
"    '+w+< w+< < w+< w+w+< 7.@.;.a+i W {.[.a+i i i i [.A+/ Z I g+q O j.= #.o+B ' z z # `.%.'.    ",
"    < a+< a+a+< a+$.q+q+W.W.$+$+3 3 f f 3 f 3 f f f f X q+I I g+s+^+6 = u+Q.2.5+z # # `.%.'.    ",
"    a+i a+i i < k (.[.i $.*.N.( $.( _+h.R.9 9 / 4.J 4.9 M.I I g+q g j.#.u+o+2.e z # # `.%.C.    ",
"  0 i i i i i a+(.$.[.k A+x+O V.!+'+f.~+'+J z.).).$ 6+[.j+I H H > O j.#.] Q.d+e # # `.%.%..+    ",
"  ).i A+i A+[.a+(.A k ( V.a b V.6+6+f.2 r z.z.).$ Z / i j+I H H > O j.] ] o+P.e # # # %.%.C.p.  ",
"  A+A+[.k A+k i 9 9 ( ( A x b ( 6+6+[+* r z.).$ Z ..J A+j+I H { s+:.j.] o.o+P.' # `.%.%.C._ .   ",
"  6+k k k k k i (.9 !+!+!+a b !+/ / |.2 r $ $ $ 0 I J A+3.H { = u O j.] z h l e # `.`.%.C.C.'.  ",
"  ( ( ( !+!+!+i 9 9 '+6+'+4+b c+J J |.2 J ).$ ....I J i 3.g+= = u b p+] z z+d+H.`.`.%.%.C._ .   ",
"  J !+!+!+'+'+k 9 4.'+6+6+x @ l+( T [+* o V 6+>.>.J V A+3.$ ..I S O p+z z h &+H.`.%.%.C._ _ '.  ",
"  '+'+'+'+'+6+k 4.4./ / / 4+#+} N N B.2 /.^.++c.E+E+b.A+E.0.0.q.r+y p+z z >+l H.%.%.C.C.C.'..   ",
"  $ 6+6+/ 6+6+k 9 X J J z.c+F+1.1.1.~ 2 !.) ) S.S.S.F+k A.k.k.+ + !.= z # >+l H.%.%.C._ _ .+p.  ",
"  0 / / / / J ( X X z.z.z.).z.).).$ n+u.).0 I I g+H ).k E.{ #.#.] ] z # # >+l D+%.C.C._ _ '..   ",
"  # J J J J z.!+X 5 : ).).$ $ Z Z Z n+u.).g+g+H H { Z ( 3+= ] ] z z # z # 5+l K %.C.C._ .+'.    ",
"    z.z.).z.z.'+5 5 ).$ $ $ Z Z ..0 t w 7+:+0 ]+0 I.:+( 1 t+= #.u+] ] o.# e L K C.C._ .+.+.     ",
"    Z ).).$ ).'+5 Z $ Z Z Z 0 I I I & w 9+ . .9+ . .<.'+C v.v.*+*+*+R &+R l L K _ _ _ .+.+p.    ",
"    H $ $ $ Z / 5 Z Z 0 I I I I I H 8 -.2.B+2.P.B+B+8.'+C ; B ; 2+; i.i.}+}+4 %.C._ .+.+. .     ",
"      Z Z Z Z J <+,.I I I g+g+H g+g+H g+g+H H = = ` g+/ 1 ] z # # # # `.%.%.C._ _ _ .+.+'.      ",
"      g+I I I X <+,.I I g+g+g+g+{ { { = #.#.u+u+] ] { J 1 z # # # %.%.%.%.C._ _ _ .+'.. .       ",
"        I I I $ ,.g+H H g+H { H { { = = #.#.] ] ] o.{ z.1 # # `.# %.%.C.C.C._ _ '..+'.p.        ",
"        = H H <+Z ,.$ $ Z Z $ Z Z Z Z I ..I I I g+g+I ).e.# `.`.%.%.C.%._ _ _ .+.+'.p..         ",
"          H H I Z Z Z Z $ Z $ <+$ ).).<+5 ).Z <+<+Z ,.M e.# %.%.%.%.C.C._ _ .+.+'.'.p.          ",
"          `.{ = = M M M M M M v v E E E E y.E y.5.5.5.5.# %.`.%.%.C._ _ _ .+.+'.'..             ",
"            # = = = #.u+u+] u+] ] ] ] z z z # z # # `.`.`.%.%.C.C.C._ _ .+'.'.'.p..             ",
"              ] u+] u+] ] ] ] o.o.z z z z # # # # `.`.`.%.%.%.C._ _ _ .+'..+'.p..               ",
"                # ] ] ] ] z z z z z # # # # # `.`.%.%.%.C.C.C._ _ .+.+.+'.'.p..                 ",
"                  `.] z z z z z z # # # # `.`.%.%.%.%.C.C._ _ _ _ .+.+'.'.p..                   ",
"                    '.z z z # # # # # `.`.%.`.%.%.%.C.C.C._ _ .+.+'.'.'.p.                      ",
"                        %.# # # # `.`.`.`.%.%.%.C.C.C._ _ _ .+.+'.'.p..                         ",
"                            C.%.`.%.%.%.%.C.C.C._ _ _ _ .+.+.+.+'.p.                            ",
"                                .+%.%.C.%.C.C.C._ _ _ .+.+'.p..                                 ",
"                                        p.'.'..+'.'.p..                                         ",
"                                                                                                "};
