/* XPM */
static char * rndvim_xpm[] = {
"48 48 227 2",
"  	c None",
". 	c #262626",
"+ 	c #229222",
"@ 	c #027202",
"# 	c #227222",
"$ 	c #669266",
"% 	c #026A02",
"& 	c #A6A6A6",
"* 	c #327A32",
"= 	c #363A36",
"- 	c #CACACA",
"; 	c #42864A",
"> 	c #2A5A2A",
", 	c #B2B2B2",
"' 	c #1A521A",
") 	c #727272",
"! 	c #7A7A7A",
"~ 	c #325A36",
"{ 	c #324632",
"] 	c #868E86",
"^ 	c #BEBEBE",
"/ 	c #426A42",
"( 	c #4E564E",
"_ 	c #929292",
": 	c #9A9A9A",
"< 	c #32C232",
"[ 	c #7E7E7E",
"} 	c #424642",
"| 	c #DEDEDE",
"1 	c #3E523E",
"2 	c #127212",
"3 	c #2A2E2A",
"4 	c #4A5A4A",
"5 	c #369236",
"6 	c #828A82",
"7 	c #26365A",
"8 	c #B6B6B6",
"9 	c #46AA46",
"0 	c #32424E",
"a 	c #5A725A",
"b 	c #0E820E",
"c 	c #666666",
"d 	c #D6D6D6",
"e 	c #268626",
"f 	c #C6C6C6",
"g 	c #8EA28E",
"h 	c #223622",
"i 	c #5A5E5A",
"j 	c #A2AEA2",
"k 	c #768676",
"l 	c #6E6E6E",
"m 	c #3A7E3A",
"n 	c #2A3A5A",
"o 	c #429242",
"p 	c #425276",
"q 	c #167216",
"r 	c #027E02",
"s 	c #4A4E4A",
"t 	c #265A26",
"u 	c #3A466E",
"v 	c #568256",
"w 	c #9A9E9A",
"x 	c #BABABA",
"y 	c #D2D2D2",
"z 	c #363656",
"A 	c #3A823A",
"B 	c #1A5E1A",
"C 	c #C2C2C2",
"D 	c #3ABA3A",
"E 	c #1E4A1E",
"F 	c #3EA23E",
"G 	c #3E4A3E",
"H 	c #364256",
"I 	c #265626",
"J 	c #227A22",
"K 	c #2E2E56",
"L 	c #363E36",
"M 	c #425242",
"N 	c #4E5A7E",
"O 	c #2A6A2E",
"P 	c #7E827E",
"Q 	c #8E968E",
"R 	c #A2A2A2",
"S 	c #626262",
"T 	c #AAAAAA",
"U 	c #32364A",
"V 	c #364E36",
"W 	c #323232",
"X 	c #1A821A",
"Y 	c #323632",
"Z 	c #2E8E2E",
"` 	c #127612",
" .	c #767676",
"..	c #667A66",
"+.	c #42B642",
"@.	c #EAEAEA",
"#.	c #266626",
"$.	c #666A66",
"%.	c #3E4252",
"&.	c #167A16",
"*.	c #525262",
"=.	c #529252",
"-.	c #CECECE",
";.	c #4E524E",
">.	c #5A5A5A",
",.	c #424242",
"'.	c #A6AEA6",
").	c #868686",
"!.	c #5AAA5A",
"~.	c #6E726E",
"{.	c #264A26",
"].	c #566272",
"^.	c #0E7E0E",
"/.	c #0A720A",
"(.	c #2A6E2A",
"_.	c #46465A",
":.	c #4E4E62",
"<.	c #328A32",
"[.	c #42424E",
"}.	c #7E7E92",
"|.	c #3A3E5A",
"1.	c #4A4A4A",
"2.	c #629E62",
"3.	c #727286",
"4.	c #6E6E82",
"5.	c #4EBE4E",
"6.	c #2A722A",
"7.	c #AEAEAE",
"8.	c #222A22",
"9.	c #E2E2E2",
"0.	c #3E5A3E",
"a.	c #323266",
"b.	c #168216",
"c.	c #0A7E0A",
"d.	c #3A8A3A",
"e.	c #228222",
"f.	c #266A26",
"g.	c #1A7A1A",
"h.	c #428E42",
"i.	c #4EB24E",
"j.	c #1A761A",
"k.	c #2E6632",
"l.	c #42425A",
"m.	c #626272",
"n.	c #7A7A86",
"o.	c #227622",
"p.	c #8E8E8E",
"q.	c #565656",
"r.	c #8A8A8A",
"s.	c #3E3E3E",
"t.	c #969696",
"u.	c #2A2A2A",
"v.	c #269A26",
"w.	c #027602",
"x.	c #2E9A2E",
"y.	c #4E8A52",
"z.	c #46A646",
"A.	c #5A9A5A",
"B.	c #56B256",
"C.	c #2E4E2E",
"D.	c #0A7A0A",
"E.	c #3E623E",
"F.	c #3A7642",
"G.	c #3A463A",
"H.	c #2A522A",
"I.	c #068206",
"J.	c #2E462E",
"K.	c #1E861E",
"L.	c #127E12",
"M.	c #1E721E",
"N.	c #2E663E",
"O.	c #2A962A",
"P.	c #4EAA4E",
"Q.	c #469E46",
"R.	c #828282",
"S.	c #3A523A",
"T.	c #627E62",
"U.	c #226E22",
"V.	c #2A562A",
"W.	c #1E761E",
"X.	c #0E7A0E",
"Y.	c #52525A",
"Z.	c #324A32",
"`.	c #365236",
" +	c #2A762A",
".+	c #7A7A82",
"++	c #62626A",
"@+	c #0A760A",
"#+	c #E6E6E6",
"$+	c #3A8E3A",
"%+	c #267226",
"&+	c #3A3A3A",
"*+	c #464646",
"=+	c #2E2E2E",
"-+	c #5E5E5E",
";+	c #4E4E4E",
">+	c #9E9E9E",
",+	c #363636",
"'+	c #6A6A6A",
")+	c #525252",
"!+	c #32523E",
"~+	c #2E4A2E",
"{+	c #1E7A1E",
"]+	c #127A12",
"^+	c #067606",
"/+	c #128212",
"(+	c #2A862A",
"_+	c #067E06",
":+	c #267626",
"<+	c #067206",
"[+	c #2E3A5A",
"}+	c #1E821E",
"|+	c #364A36",
"1+	c #5E725E",
"2+	c #36364A",
"3+	c #424252",
"4+	c #2E6E2E",
"5+	c #52BE52",
"6+	c #2E522E",
"7+	c #667E66",
"8+	c #2E562E",
"9+	c #76767A",
"0+	c #3A3A3E",
"a+	c #5E5E62",
"b+	c #26365E",
"c+	c #266A2A",
"d+	c #226E26",
"                                                                                                ",
"                                      8 , 7.T & R >+: t._                                       ",
"                                C ^ x 8 , 7.T & R >+: t._ p.r.).                                ",
"                          -.- f C ^ 8 8 , 7.T & R >+: t.t.p.r.).R.[                             ",
"                        -.- f C ^ ^ 8 8 , 7.T & R >+: t._ p.r.).R.[ !  .                        ",
"                    d y -.-.- C C ^ x , , T T & R >+: _ _ p.r.).R.[ !  .) l                     ",
"                  d d -.- f f C ^ x x , , T & R >+>+: t._ p.r.).R.[ !  .) l '+                  ",
"                d d -.-.-.- f ^ x 8 , , C g $ x & : t._ p.r.).).[ [ !  .) l '+c                 ",
"              | y d d -.-.- - - f f C - g 5+5.2.x R >+& R >+t._ r.r.R.! ) l '+c S               ",
"            d y d - 7.T R >+>+t.t._ p.r.v Q.o +.A.x x [ [ [ [ [ !  . . .l l '+S -+-+            ",
"          d d -.- 8 -.-.- - - f f C f C t./ $+$+D =.[ 8 , 7.T & >+t._ p.R.c ) c -+>.            ",
"          y -.-.C C f C C ^ ^ ^ x x x x R 0.<.(+<.< [ , T & R >+: t.p.).R.l '+S -+>.q.          ",
"        -.-.-.- ^ T x ^ ^ x x x ^ x 8 7.r.`.(+e e e.c R T T R R >+t._ r.[ S l S -+>.q.)+        ",
"      -.- -.- f y T p., ^ ^ x x x x R r.4 {+K.}+e.e f.i p.& & R >+t._ R.l c [ -+-+>.q.)+        ",
"      - f f f C C - x T x ^ ^ x x x >+>.` b.b.b.b.X q P C 7.& R R : ).) l R.c -+>.q.)+;+;+      ",
"      f f C C C ^ ^ C R ^ x x x x x : 1.]+b b b L.` k -., 7.T & >+p.) l r.'+-+>.>.q.)+;+1.      ",
"    C ^ C C ^ ^ x x ^ >+x x x x x ^ >+*+@+I.r I.` ..| x , 7.T T _  .'+: '+c S >.q.q.)+;+1.*+    ",
"    ^ ^ ^ x x x x 8 ^ >+x x x ^ ^ x : *+r r r w.1+#+x 8 8 , 7.: ! c & l c -+-+>.>.)+;+1.*+*+    ",
"    x 8 x 8 8 8 , f R >+x x x x ^ ^ : ,.w.r @ ..@.^ x x 8 , : ! E.: ).c c -+-+q.q.)+;+1.*+,.    ",
"  8 8 8 , 8 , , C j z.: 8 x x x x ^ : ,.w.@ T.9.C ^ ^ x 8 R ! 1 + x.Q R.S -+>.>.)+;+;+1.*+,.    ",
"  , , , , , 7.^ j i.F : x 8 x x x ^ : ,.% T.| f ^ ^ ^ x R ! 1 M.J v.5 ] ! >.q.q.)+;+1.*+*+,.s.  ",
"  7.7.7.T T 8 '.B.9 m t.8 x x ^ ^ ^ >+,.a 9.C ^ ^ C ^ T ! S.q g.W.:+O.A 6 ) >.)+)+1.1.*+,.s.&+  ",
"  T T T T T 7.!.9 h.A t.8 x x x ^ ^ w r.#+f ^ C ^ ^ T [ V 2 ]+g.W.o.:+Z A [ c ;+;+1.*+,.s.s.&+  ",
"  & & & & & ! ].y.h.m t.8 8 8 ^ ^ ^ : 9.C ^ ^ ^ ^ 7.[ Z.2 ]+L.g.J %+6.4+* V ! )+;+1.*+,.s.&+,+  ",
"  R R R R R x n.N ; m t., 8 8 x x ^ x ^ ^ C ^ ^ 7.R.J.^+c.]+g.j.W.# %+O [+:.! ;+1.*+,.,.&+&+,+  ",
"  >+>+>+: >+>+8 3.p F._ 8 8 8 8 x ^ ^ C ^ ^ ^ 7.[ { <+c.^.&.&.j.W.# k.[+*.[ q.1.*+*+,.s.s.,+,+  ",
"  >+: : : : : : 8 4.u _ , , 8 8 8 x x ^ ^ C _ ,.3 <+D.D.^.&.g.W.# c+n :.).q.;+1.*+,.s.&+&+W W   ",
"  t.t.t.t.t._ _ t., m.p.7., , 8 8 x x ^ x x q.R L D.c.L.&.&.j.W.d+b+1.r.q.;+1.*+,.,.s.&+,+,+W   ",
"  _ t._ _ _ _ _ _ _ 7.p.7.7.7., , 8 8 x x Q Y.s.E ^.X.]+` W.M.M.b+_.R R.) q.1.*+,.s.&+&+W W     ",
"    p.p.p.p.p.r.r.r.R p.& T 7.7., , , , p.>.,.,.8.]+,+,.G.H.;+*+U s.*+*+;+ .*+,.s.&+&+,+W =+    ",
"    r.r.r.r.r.).r.).: p.& & T T T 7., _ l h ! ] ' &.;+R _ [ t._ ! 9+[  .q.>.*+,.s.&+,+,+=+=+    ",
"    ).).).R.).).R.R.: r.R & & & T & p.) 8+|+>+l B ' P : l c [ r.) -+S ~.)+>.s.s.&+&+,+=+=+u.    ",
"      R.R.R.R.[ [ [ _ ).: >+R R & p.) ~+M.( : G W.{.t.'+K 3+'+! >.S 1.c *+-+s.&+,+W W W =+      ",
"      R.[ [ ! [ [ ! p.R.: : : >+r.) = #.I ! r.H.U.1.t.[.}.>.[ >.) c >.-+*+1.&+&+,+,+W u.u.      ",
"        ! ! !  .! 9+r.[ _ _ t.).) |.k.:+V _ l t > ) R.a+p.Y.[ *+r.*+S 1.)+,.&+,+W =+=+u.        ",
"         . . . .) ) R. .p._ [ l ) [ a.N.;.r.1 (.~+R.>.).) S '+q.! *+>.,.1.&+,+,+W =+u.u.        ",
"          ) ) ) ) l !  .S '+-+l p.).) U q.-+1.8+*+i )+S ;+)+;+,.q.*+*+s.s.,+W W =+=+.           ",
"          l l l '+'+'+! !  .[ ).c S R.'+z V ~ 0 %. .l ) '+S -+>.>.1.*+s.,+,+W =+u..             ",
"            '+'+'+'+c c c S S S a+a+-+[ ++[+H l.! q.;+1.1.*+,.,.s.&+&+&+W W =+=+u..             ",
"              c c S S S S S -+>.i >.>.q. .a+[. .q.1.1.*+*+,.,.s.s.&+,+W W =+u.u..               ",
"                S S a+-+>.>.-+>.>.q.q.)+)+;+;+;+1.*+*+,.,.s.s.&+&+,+,+W =+u.. u.                ",
"                  >.-+>.>.>.q.q.)+)+)+)+;+;+1.1.*+*+,.,.s.s.&+,+W W =+=+u.u.u.                  ",
"                      q.q.Y.)+)+)+;+;+1.1.1.*+*+,.,.s.s.&+&+&+,+W =+=+u.u.                      ",
"                        )+)+;+;+1.;+1.1.*+*+,.,.,.s.s.&+,+,+W W =+=+u.u.                        ",
"                            ;+;+*+*+*+*+,.,.,.s.&+&+,+&+W W =+=+=+u.                            ",
"                                *+*+,.,.,.s.&+&+&+,+,+W W =+=+=+                                ",
"                                        s.s.&+&+,+,+W W                                         ",
"                                                                                                "};
