/* XPM */
static char * rndwilb_xpm[] = {
"48 48 17 1",
" 	c None",
".	c #100F0D",
"+	c #8D8C8A",
"@	c #51504C",
"#	c #71706B",
"$	c #C8C7C7",
"%	c #ACACAB",
"&	c #625F5A",
"*	c #313030",
"=	c #7F7E7B",
"-	c #EAEAE7",
";	c #9D9C9B",
">	c #41403D",
",	c #D5D5D4",
"'	c #20201E",
")	c #BABAB9",
"!	c #F6F5F5",
"                                                ",
"                   #+%;;;;+=@                   ",
"                %)))%%%;;;;;+++&                ",
"             =)$)$)%)%%%;;;+;+++=#              ",
"            $,$$)))%)%%%;;;;+++====&            ",
"          %,$$$$$))%%%;%;;;;++++===##>          ",
"         $,$,$$)))))%%%;;;;+++=+===###@         ",
"        ,,,$$$$$))%%%%;%;;;;+++===####&@        ",
"       $,,,$$$)$)))%%%%;;;+++++====###&&@       ",
"      $,,$$$$$))))%%%%;;;;;++++===#####&&>      ",
"     ;,,$,$$$)$))%)%%%;;;+;++=+===###&#&&@*     ",
"     ,,,$$$$$))))%%%;%;;;;++++====###&&&&&@     ",
"    $$$$$$$))))%)%%%%;;;+;++++===#=###&&#&@>    ",
"   +$,$$$)$)$)))%%%%;%;;;++++====###&#&##&@@    ",
"   )$$$$$)))))%%%%%;;;;;+;++=+==#=##&&&=#&@@>   ",
"   $$)$)$))))%%%%%;%;;;;++++====######&#&&@@>   ",
"  %)$)))))))%)%;;%;;;;++++++===####&&##&&&@@>*  ",
"  ))))))))%%%%%;++;;;;;;++======###&#&&&&@@@@*  ",
"  )))))%)%)%%%%;+==;+++++++===#######&&@&@@>>>  ",
" =))))%%%%%%%;%;;=#=+;++++====#####&&&&@@@@@>>  ",
" +%%%%)%%%%%%;;%;+=##=++=====#=##&&&&&@@@@>@>>' ",
" %%%%%%%%%;%;;;%%;+==++++==##&&&&&&&@&@@@@>>>>* ",
" %%%%%%;%;;;%;,!!,;+%-!-,+##&&&@@&@@@@&@@@>@>>' ",
" %;%;;;%;++;;,!$;,,)!!--!,=&&&@@@>>@@@@@@>>>>>' ",
" ;;%;%;;&@>@;)-#'&!!!,;&%-;#&@@@>>>>@@@@@>>>*>* ",
" ;;;;;%&;;&*>+,>.&,-!;='&,;&&@>>>>*@@@@>@>>>>*' ",
" +;;;++@%%@**@%%;);,-+'.#$=&&@>>*>>@@@@@>>>>*** ",
" =;+;++*##>>>@#=++=;,,==);#&@@>>>*@@@@>@>>>*>*. ",
" @+;+++'>>>>@&&##===+%))+#&@@@>>*>@@@@>>>>>***  ",
"  +++++>*>>@&#&&#######&&&@>>>>*>@@@@>@>>*>***  ",
"  +++++#>>&&##@&&&###&#&&@>>>>>>@@@>@>>>>*>**'  ",
"  #=+==+#&&#=#>@@&&&&&&@@**&@>*>@@@@>>>>>>***.  ",
"   =+======#&@>>@@@@@>>***&#@>>@@>@>>>>******   ",
"   ======#+#@>*>*****''*>@&&>>@@@@>@>>>>>***.   ",
"    ==#=#=#=#@*'....'*>@&&&@@@@>@>>>>>******    ",
"    ##=########&&@>*>>@&&@@@@@@>@>>>>*>****.    ",
"     ########&#&&&&&&&@&@&@@@@>@>>>>*****''     ",
"     @####&#&#&&#&&&&&@&@@@@@@>>>>>>>****'      ",
"      @&&#&#&&&&&&&@@&@@@@@>>>>>>*******''      ",
"       &&&&&&&&&&&@&@@@@@@@>@>>>>>>****''       ",
"        &&&&&&@@@@@@@@@>>>>>>>>>******''        ",
"         @&&@&&@&@@@@@@@>@>>>>**>****'.         ",
"          *@@@@@@@@@>>>@>>>>>*>*****'           ",
"            @@@@@@>@>@>>>>>*******''            ",
"              >@>@>>>>>>>>*>*****'              ",
"                *>>>>>>*>******.                ",
"                    '******'                    ",
"                                                "};
