/* XPM */
static char * rndxephem_xpm[] = {
"48 48 114 2",
"  	c None",
". 	c #262626",
"+ 	c #9E9E9E",
"@ 	c #727272",
"# 	c #3E3E3E",
"$ 	c #3E667E",
"% 	c #9ADE12",
"& 	c #229A6E",
"* 	c #9ACA36",
"= 	c #9ADA22",
"- 	c #4E4E4E",
"; 	c #961E1E",
"> 	c #268A7E",
", 	c #26B242",
"' 	c #26926A",
") 	c #9AD626",
"! 	c #C6C63A",
"~ 	c #862626",
"{ 	c #92925E",
"] 	c #AEAE4E",
"^ 	c #828282",
"/ 	c #D2D22A",
"( 	c #328E6A",
"_ 	c #F2F20A",
": 	c #9EC64E",
"< 	c #5A5A5A",
"[ 	c #5E2E2E",
"} 	c #9ABE56",
"| 	c #AEAE52",
"1 	c #D2D2D2",
"2 	c #A2BA6E",
"3 	c #2E2E2E",
"4 	c #8A8A62",
"5 	c #5E6262",
"6 	c #6A6A6A",
"7 	c #424242",
"8 	c #767676",
"9 	c #CACACA",
"0 	c #323232",
"a 	c #BEBEBE",
"b 	c #3E4A56",
"c 	c #565656",
"d 	c #929292",
"e 	c #AAAAAA",
"f 	c #7E7E72",
"g 	c #E2E21A",
"h 	c #9A9A6E",
"i 	c #324E9E",
"j 	c #3A3A3A",
"k 	c #B2B2B2",
"l 	c #9AA67E",
"m 	c #BABABA",
"n 	c #562E2E",
"o 	c #C2C236",
"p 	c #563632",
"q 	c #C2C2C2",
"r 	c #525E66",
"s 	c #62665E",
"t 	c #525252",
"u 	c #8A8A8A",
"v 	c #464646",
"w 	c #6E6E6E",
"x 	c #969A92",
"y 	c #7A7A7A",
"z 	c #8E8E82",
"A 	c #86866A",
"B 	c #A2A69E",
"C 	c #969696",
"D 	c #52625E",
"E 	c #363636",
"F 	c #96A282",
"G 	c #AEAEAE",
"H 	c #B6B6B6",
"I 	c #A2A29E",
"J 	c #C6C6C6",
"K 	c #86867A",
"L 	c #526676",
"M 	c #FAFA02",
"N 	c #722E2E",
"O 	c #D6D6D6",
"P 	c #5A6E5E",
"Q 	c #A21E1E",
"R 	c #CECECE",
"S 	c #4E4242",
"T 	c #4A4A4A",
"U 	c #5E5E5E",
"V 	c #CECE36",
"W 	c #922626",
"X 	c #2A2A2A",
"Y 	c #269A5E",
"Z 	c #862E2E",
"` 	c #9A9A5E",
" .	c #7E7E7A",
"..	c #DADADA",
"+.	c #8E8E8E",
"@.	c #868686",
"#.	c #9A9A9A",
"$.	c #5A6266",
"%.	c #9E1E1E",
"&.	c #AA1E1E",
"*.	c #FEFE02",
"=.	c #666662",
"-.	c #52626A",
";.	c #A6A6A6",
">.	c #423E3E",
",.	c #626262",
"'.	c #3E3A3A",
").	c #4E6A7E",
"!.	c #A2A2A2",
"~.	c #7E7E7E",
"{.	c #666666",
"].	c #9ADE16",
"^.	c #F2F20E",
"/.	c #FAFA06",
"                                                                                                ",
"                                      H k G e ;.!.+ #.C d                                       ",
"                                q a m H k G e ;.!.+ #.C d +.u @.                                ",
"                          R 9 J q a m H k G e ;.!.+ #.C d +.u @.^ ~.                            ",
"                        R 9 J q a a m H k G e ;.!.+ #.C d +.u @.^ ~.y 8                         ",
"                    O 1 R R 9 q q m H k G e ;.;.!.+ #.C d +.u @.^ ~.y 8 @ w                     ",
"                  O O R 9 J J q a m H H k G ;.!.+ + #.C C d u @.^ ~.y 8 @ w 6                   ",
"                ..O 1 R R 9 J a a m H k G e ;.;.!.#.C d ;.#.u @.~.~.y 8 ~.w 6 {.                ",
"              O O 1 1 9 J J q a m m k G e e !.!.+ #.C d +.u @.@.~.y 8 u +.w 6 {.,.              ",
"            O O 1 R 9 9 9 a m H k G G e ;.!.!.#.#.C d +.+.@.@.~.~.y @.C @ 6 {.,.U U             ",
"          O 1 1 R q m k k +.^ ~.y @ @ w 6 {.{.,.,.,.,.U ,.U U U U y + @ 6 {.6 {.U < <           ",
"          1 q k G e !.+ #.m a m H k G G e ;.!.+ #.C d +.u @.@.~.#.e 8 U U U U c c < c           ",
"        R q q a m q q q q m H H H G e ;.;.!.+ #.C C d +.u @.d q k ^ 8 @ 6 {.{.U U < c t         ",
"      R J q 9 J J q q a m m H k G G e e !.+ + #.C a ;.u u ^ d 1 !.8 @ w w 6 {.,.< c c t         ",
"      9 J J J q q a a a m H H k G G ;.;.!.+ #.#.C d +.u @.^ ~.~.y @ @ 6 6 {.,.U U c t t -       ",
"      J J q q q q a m H H H G G e ;.u U U < < c c c c t c ~.~.y 8 8 w w {.,.,.U c c t - T       ",
"    q q q a a m m m H k G e ;.~.< c ~.d +.+.u @.@.^ ^ ~.y ,.T T 6 @ w w {.P $.U c c t - T v     ",
"    a m m a m m m H k #.~.{.,.d !.!.+ + #.C C d +.u @.^ ^ ~.y 8 {.T - U L , ( D < t - T v v     ",
"    m m m H H H k d @.~.;.e e ;.!.!.+ + C d d +.+.u @.^ ^ ~.y 8 @ w 6 ,.i ' > $ t t - - v 7     ",
"  H H H k H H !.y C !.e ;.;.B !.+ #.C {.T T v v v v v 7 {.y 8 @ w 6 {.{.L & Y b < - - T v 7     ",
"  k k k G G !.d e e e e ;.2 = : ,.T T @.+.u u @.^ ^ ^ ~.6 7 7 U 6 w {.,.U r r < t t T v 7 7 #   ",
"  G G G G G y e e ;.;.!.B ) = % l #.d d +.+.u @.@.~.~.y y 8 8 6 - U {.5 U < c t c v T v 7 # j   ",
"  e e e ;.C #.;.;.;.!.+ + } = * x C d d +.u z h ! K  .8 8 @ w 6 6 v {.U < c c t - - T v # # j   ",
"  ;.;.;.;.~.+ !.!.!.e + #.=.F C d d +.u u @.V /.*._ { 8 @ w w 6 6 {.- U < c t - - T 7 7 # j E   ",
"  !.!.!.+ y #.+ + !.q #.C t C d z +.+.u @.^ | *.*.g 4 8 @ w 6 {.{.{.7 U < t t - T v 7 7 # j E   ",
"  + + + +  .#.+ #.#.C C C 8 y +.+.+.@.@.@.^ ] / _ ! 4 @ w 6 6 {.,.< U c < +.t T T T # # j E E   ",
"  #.#.#.#.d y C C C C d d u U u u @.^ ^ ^ ~.y f { @ w w w 6 ,.{.,.v U c c 6 - v T v 7 # j 0 0   ",
"  #.C C C C y +.d d +.+.z u y - 8 y 8 ~.~.y y 8 @ @ w w 6 ,.,.U 7 ,.< t t - T T T 7 # j E E 0   ",
"  d d d d d +.y 8 +.z u u u u @.,.t t U c c c c t t - - c v v < < c c t - T T v T 7 j j 0 0     ",
"    d +.+.+.+.u y 6 w u @.@.^ ~.^ ~.y @ {.,.,.,.,.U U U ,.,.U < < c t - t v T 7 7 j j E 0 3     ",
"    u u u u u u u @.~.< 8 ~.~.~.~.y 8 8 8 @ w 6 w {.,.,.U U < c < c c t 7 - T # # j j E 3 3     ",
"    @.@.@.@.@.^ ^ ^ ^ ~.w c t {.{.{.@ @ w w 6 6 {.{.{.,.U U t t t 7 # - T v 7 # j E 0 0 3 X     ",
"      ^ ^ ^ ^ ~.^ ~.~.y y y y w U U U - - - T T T v v v v c T T t - T T 7 # # # j E 0 0 3       ",
"      ~.~.~.~.~.y y y y 8 8 @ @ w w @ 6 {.=.{.,.U U U < c < t - - T v 7 7 7 # E E 0 3 3 X       ",
"        y y y y y 8 8 8 8 @ @ @ w 6 6 {.{.,.,.,.U < < < t t - T T v v 7 # j j E E 0 3 X         ",
"        @ @ 8 8 @ 8 @ @ w w 6 6 6 6 {.{.,.,.U U < < c t t - - T v v 7 7 j j E 0 3 0 3 X         ",
"          @ 6 s ,.w w w w w 6 6 {.{.,.,.U U < < c c t t - T T T S W ~ >.# j # E 3 0 X           ",
"          w w 6 6 ,.< c c {.{.,.,.,.,.U U < < < < t c t t - T v Z Q %.[ E E E 0 3 X             ",
"            6 6 6 {.{.6 {.< t t - - T T T v v 7 v 7 7 7 7 # # j N %.; p E 0 3 3 X .             ",
"              {.s {.{.,.,.U U < < < < < c c t t - T v v 7 v 7 >.E [ n 0 0 3 X X .               ",
"                U U U U U U U < c c t t t c t T T T v v 7 # # # E E 0 3 3 3 . X                 ",
"                  U < < < c c c c c t - - w {.T T v 7 7 # j j E E 0 0 3 3 . X                   ",
"                    c c c t t t - - - T T T v 7 7 7 # j # E E 0 0 3 3 X X                       ",
"                        t t t - - - T T v v v 7 # # j j E E E 0 3 3 X .                         ",
"                            T T T T v v 7 7 7 # j # j E E 0 0 3 X X                             ",
"                                v 7 7 7 7 # # # j E E E 0 3 X 3                                 ",
"                                        # j E j E 0 0 0                                         ",
"                                                                                                "};
