/* XPM */
static char * rndxephem_xpm[] = {
"48 48 53 1",
" 	c None",
".	c #020202",
"+	c #9A9A9A",
"@	c #6E6E6E",
"#	c #3E3E3E",
"$	c #4A4A4A",
"%	c #BEBEBE",
"&	c #8A8A8A",
"*	c #525252",
"=	c #B2B2B2",
"-	c #626262",
";	c #767676",
">	c #222222",
",	c #AAAAAA",
"'	c #D2D2D2",
")	c #7A7A7A",
"!	c #2A2A2A",
"~	c #565656",
"{	c #363636",
"]	c #7E7E7E",
"^	c #8E8E8E",
"/	c #CACACA",
"(	c #9E9E9E",
"_	c #5E5E5E",
":	c #666666",
"<	c #464646",
"[	c #828282",
"}	c #929292",
"|	c #A6A6A6",
"1	c #BABABA",
"2	c #2E2E2E",
"3	c #C2C2C2",
"4	c #0E0E0E",
"5	c #5A5A5A",
"6	c #4E4E4E",
"7	c #6A6A6A",
"8	c #424242",
"9	c #727272",
"0	c #868686",
"a	c #3A3A3A",
"b	c #969696",
"c	c #323232",
"d	c #A2A2A2",
"e	c #AEAEAE",
"f	c #B6B6B6",
"g	c #C6C6C6",
"h	c #161616",
"i	c #D6D6D6",
"j	c #CECECE",
"k	c #1E1E1E",
"l	c #262626",
"m	c #DADADA",
"n	c #1A1A1A",
"                                                ",
"                   f=e,|d(+b}                   ",
"                3%1f=e,|d(+b}^&0                ",
"             j/g3%1f=e,|d(+b}^&0[]              ",
"            j/g3%%1f=e,|d(+b}^&0[]);            ",
"          i'jj/331f=e,||d(+b}^&0[]);9@          ",
"         iij/gg3%1ff=e|d((+b}^&0[]);9@7         ",
"        mi'jj/g%%1f=e,||d+b}00&0]]);9@7:        ",
"       ii''/gg3%11=e,,dd(+b}^&00]);@7@7:-       ",
"      ii'j///%1f=ee,|dd++b}^^00]]);@97:-__      ",
"     i''j31==^[])99@7::----_-____$-@7:7:_55     ",
"     '3=e,d(+1%1f=ee,|d(+b}^&00]97;____~~5~     ",
"    j33%133331fffe,||d(+b}}^&0[*7;;@7::__5~*    ",
"   jg3/gg33%11f=ee,,d((+b]&&&[]8@;9@@7:-5~~*    ",
"   /ggg33%%%1ff=ee||d(++}}^&00[))9977:-__~**6   ",
"   gg3333%1fffee,|&__55~~*~*~)]);9@@:--_~~*6$   ",
"  333%%111f=e,|]5~]}^^&&0[[])-$$@9@@:--_~~*6$<  ",
"  %11%111f=+]:-}dd((+bb^^&0[[]]):66_-{<55*6$<<  ",
"  111fff=}0]|,,|dd((b}}^^&0[]);99@7-{kl*~*66<8  ",
" fff=ffd)bd,||dd(+b:$$$$<<<<7);;@7::-{!#~66$<8  ",
" ===eed},,,,|&c@_$$0^&00[[])78857@:-_-_5**$<88# ",
" eeeee),,||dd{hn^+}}^^&00]]]);9@6_:-_5~*~<$<8#a ",
" ,,,|b+|||dd(;k5}b}}^&&[:]));;@77<:-5~~*66$<##a ",
" ||||](dd((((-^}b}^&&&:>4{);;@@777655~*66$88#a{ ",
" ddd()+((+[++~b}^^^00[)h.#;99@7:-:<55~*6$<88#a{ ",
" ((((]+(++bb};)^^^00[[@*l~;9@77:-555~**$$$##a{{ ",
" ++++})bbb}}}0_&&000[]));99@77-:-$_~~*6<$<8#acc ",
" +bbbb)}}^}}&^)6;);]]));;9@77--_8_~~*6$$$8#a{{c ",
" }}}}}^];&&^&&&0-**_~~~*****~<<5_5*66$$<$8aacc  ",
"  }^^^^&]@900[[][])9:---___5--_5~~***<$88aa{c2  ",
"  &&&00000]~)]]]));;;9@@7::-__555~~*86$##aa{22  ",
"  000000[[[[7~*:::99@@@7::--__*668#6$<8#a{cc2!  ",
"   [[[[[]]]])))@5__66$$$$$<<<~$$*6$<8###a{cc2   ",
"   ]]])]]]));;9;9@97::--___555**6$<<88#{{c22!   ",
"    ));;;;;;;9@@@77:::--_55~**66$<<8#aa{{c2!    ",
"    ;9;;;999@@@@77::--_555~***6$<<88aa{c2c2!    ",
"     97--@@@@777::--___5~~~*6$<<$##8#a#{2c!     ",
"     @@@@-5~~7:----___555***666$a>kc{{{c2!      ",
"      777::7:5**666$<<<8<888####{lla{c22!l      ",
"       :-::--__555~~~***66<<<8####a{c2!!l       ",
"        _______5~5~***6$$$<<88#a{{cc22l!        ",
"         _555~~~~***666$<<8##aaa{c222l!         ",
"          ~~~****666$$<<888#a{{{cc!!!           ",
"            ***6$6$$$<<8##aaa{c222!l            ",
"              $6<<<888###a{{{cc2!!              ",
"                <<888###{a{cc222                ",
"                    #a{a{{cc                    ",
"                                                "};
