/* XPM */
static char * rndxpdf_xpm[] = {
"48 48 256 2",
"  	c None",
". 	c #161616",
"+ 	c #9A9A9A",
"@ 	c #727272",
"# 	c #DE0202",
"$ 	c #5A5A5A",
"% 	c #AA0E0E",
"& 	c #5E2A2A",
"* 	c #4A4A4A",
"= 	c #CACACA",
"- 	c #C67272",
"; 	c #3A3A3A",
"> 	c #AE4E4E",
", 	c #B6B6B6",
"' 	c #868686",
") 	c #9E5A5A",
"! 	c #B23636",
"~ 	c #4E1E1E",
"{ 	c #262626",
"] 	c #5E5656",
"^ 	c #CEA2A2",
"/ 	c #B27676",
"( 	c #8E5E5E",
"_ 	c #323232",
": 	c #923636",
"< 	c #AE1A1A",
"[ 	c #5E5E5E",
"} 	c #AEAEAE",
"| 	c #A67272",
"1 	c #B29292",
"2 	c #5E4242",
"3 	c #E2E2E2",
"4 	c #767676",
"5 	c #6A6A6A",
"6 	c #BAA2A2",
"7 	c #6E2A2A",
"8 	c #E8B6B6",
"9 	c #482626",
"0 	c #B63232",
"a 	c #929292",
"b 	c #424242",
"c 	c #C68A8A",
"d 	c #9E9E9E",
"e 	c #2A2A2A",
"f 	c #7A7A7A",
"g 	c #525252",
"h 	c #C2C2C2",
"i 	c #BE1212",
"j 	c #765A5A",
"k 	c #DADADA",
"l 	c #C66666",
"m 	c #4A1616",
"n 	c #923E3E",
"o 	c #A6A6A6",
"p 	c #8A3E3E",
"q 	c #8E1A1A",
"r 	c #C62222",
"s 	c #861A1A",
"t 	c #AA1212",
"u 	c #625252",
"v 	c #6E5E5E",
"w 	c #968E8E",
"x 	c #C23A3A",
"y 	c #E67E7E",
"z 	c #2E2E2E",
"A 	c #666666",
"B 	c #5A4242",
"C 	c #D2BABA",
"D 	c #828282",
"E 	c #362626",
"F 	c #665656",
"G 	c #967272",
"H 	c #8E8E8E",
"I 	c #2E1E1E",
"J 	c #C67A7A",
"K 	c #363636",
"L 	c #563A3A",
"M 	c #C6B2B2",
"N 	c #D60E0E",
"O 	c #1A1A1A",
"P 	c #623A3A",
"Q 	c #BEBEBE",
"R 	c #422A2A",
"S 	c #A89696",
"T 	c #964242",
"U 	c #D6D6D6",
"V 	c #962626",
"W 	c #C63E3E",
"X 	c #821E1E",
"Y 	c #8A6262",
"Z 	c #CEAAAA",
"` 	c #3E3E3E",
" .	c #6A5A5A",
"..	c #562222",
"+.	c #9A6666",
"@.	c #9A2626",
"#.	c #524646",
"$.	c #C65656",
"%.	c #E2CACA",
"&.	c #CA2E2E",
"*.	c #765252",
"=.	c #EEEEEE",
"-.	c #1E1E1E",
";.	c #A23A3A",
">.	c #C63636",
",.	c #464646",
"'.	c #AE8282",
").	c #7A2222",
"!.	c #626262",
"~.	c #6E6E6E",
"{.	c #4E2626",
"].	c #E2B2B2",
"^.	c #DE9292",
"/.	c #928A8A",
"(.	c #C65252",
"_.	c #4E4E4E",
":.	c #322A2A",
"<.	c #7E7E7E",
"[.	c #B64A4A",
"}.	c #8E2A2A",
"|.	c #D61212",
"1.	c #565656",
"2.	c #CA9A9A",
"3.	c #928282",
"4.	c #AA6A6A",
"5.	c #D0C6C6",
"6.	c #9E2626",
"7.	c #969696",
"8.	c #8A8A8A",
"9.	c #BA4242",
"0.	c #CECECE",
"a.	c #A22E2E",
"b.	c #8A2222",
"c.	c #8A7A7A",
"d.	c #AE2222",
"e.	c #A24242",
"f.	c #CA9292",
"g.	c #BEB2B2",
"h.	c #5E3636",
"i.	c #7E6666",
"j.	c #CEB2B2",
"k.	c #D07E7E",
"l.	c #CA1A1A",
"m.	c #722626",
"n.	c #AA2222",
"o.	c #A2A2A2",
"p.	c #AAAAAA",
"q.	c #563232",
"r.	c #8A6666",
"s.	c #BABABA",
"t.	c #B2B2B2",
"u.	c #C08E8E",
"v.	c #622A2A",
"w.	c #827676",
"x.	c #222222",
"y.	c #A69A9A",
"z.	c #C24646",
"A.	c #5E4E4E",
"B.	c #BE2A2A",
"C.	c #CE1E1E",
"D.	c #C6C6C6",
"E.	c #562A2A",
"F.	c #C27676",
"G.	c #C21616",
"H.	c #261616",
"I.	c #7E5252",
"J.	c #B22626",
"K.	c #7A2A2A",
"L.	c #BE5A5A",
"M.	c #C68282",
"N.	c #DA0606",
"O.	c #7E7272",
"P.	c #463A3A",
"Q.	c #8E8282",
"R.	c #766E6E",
"S.	c #EAEAEA",
"T.	c #9E3A3A",
"U.	c #422626",
"V.	c #DAAAAA",
"W.	c #D8B2B2",
"X.	c #822A2A",
"Y.	c #D6CECE",
"Z.	c #CA2A2A",
"`.	c #9A4A4A",
" +	c #522E2E",
".+	c #C66E6E",
"++	c #A63232",
"@+	c #8A6A6A",
"#+	c #DEBEBE",
"$+	c #A29A9A",
"%+	c #D60A0A",
"&+	c #A08A8A",
"*+	c #D23636",
"=+	c #DEDEDE",
"-+	c #7E7676",
";+	c #827A7A",
">+	c #6A2A2A",
",+	c #8E4A4A",
"'+	c #C27E7E",
")+	c #BA1E1E",
"!+	c #C64A4A",
"~+	c #B41E1E",
"{+	c #862A2A",
"]+	c #E6E6E6",
"^+	c #522A2A",
"/+	c #A22A2A",
"(+	c #965A5A",
"_+	c #CE2222",
":+	c #CA3232",
"<+	c #CE8282",
"[+	c #7E5656",
"}+	c #B22222",
"|+	c #2E2A2A",
"1+	c #AA3E3E",
"2+	c #666262",
"3+	c #C65E5E",
"4+	c #624646",
"5+	c #4A2A2A",
"6+	c #C26A6A",
"7+	c #9E9A9A",
"8+	c #A62626",
"9+	c #BE1A1A",
"0+	c #D2D2D2",
"a+	c #DA0A0A",
"b+	c #2D2222",
"c+	c #9A6A6A",
"d+	c #5E2E2E",
"e+	c #6A6262",
"f+	c #924646",
"g+	c #765656",
"h+	c #CA9696",
"i+	c #762A2A",
"j+	c #C25E5E",
"k+	c #A63636",
"l+	c #866E6E",
"m+	c #662A2A",
"n+	c #5A2A2A",
"o+	c #5E5A5A",
"p+	c #2A2626",
"q+	c #969292",
"r+	c #7A5A5A",
"s+	c #A22626",
"t+	c #7E2A2A",
"u+	c #8A2A2A",
"v+	c #C21A1A",
"w+	c #D2BEBE",
"x+	c #F2F2F2",
"y+	c #BA4646",
"z+	c #BE7A7A",
"A+	c #965E5E",
"B+	c #922A2A",
"C+	c #9E6666",
"D+	c #C64646",
"E+	c #D28282",
"F+	c #825656",
"G+	c #B62222",
"                                                                                                ",
"                                      t.} p.o o.d + 7.a a                                       ",
"                                Q s., } p.o o.d + 7.a H H 8.' D                                 ",
"                          = D.Q s.t.p.o o.+ 7.a H H 8.' D D D <.<.f                             ",
"                        0.D.Q , } p.o d + 7.a H ' ' D D <.f f 4 f 4 4 @                         ",
"                    0+0.h Q , } p.o.+ 7.a 8.' ' D D <.f f f 4 4 @ @ ~.~.~.5                     ",
"                  U 0.D.s.t.} o.d + a H 8.' <.<.4 4 4 @ ~.~.~.5 5 5 5 5 5 A A                   ",
"                U = h s.t.} o.d 7.H 8.' D f f 4 @ ~.~.5 ~.5 A 5 A A A !.!.A !.!.                ",
"              U 0.D.Q t.p.o.+ 7.H 8.D f f @ @ ~.~.5 5 !.A A !.!.!.!.!.!.[ !.[ [ [               ",
"            U = 5.C j.Z 6 7+a 8.' <.f 4 @ ~.A A !.[ [ [ $ $ $ [ $ $ $ $  .r+j  .o+$             ",
"          0+0.5.C j.Z ^ 2.1 /.D <.4 @ 5 A A !.[ [ $ $ $ 1.1.1.1.1.1.1.] F+[+g+] 1.1.            ",
"          0.h s.M Z ^ 2.u.c '.<.@ @ 5 A !.[ $ 1.g g g H H ' _.g g $ f ;+l+[+] g g g g           ",
"        = D.s.t.p.6 h+f.c '+J | R.A !.$ 1.g g g _.* * + Q H * * $ o.w c.a 5 _._._._._._.        ",
"      = D.Q t.} o.7.1 c M.J - .+C+[ $ 1.g _.* ,.b ,.,.!.D.!.,.b H y.(+f+/.5 _._._._._.*         ",
"      D.Q , p.o d a /.'.J - 6+l 3+) g _.* ,.b b ` ` ` a = [ b B S S f+#.] _.,.* * * * * *       ",
"      Q , } o + a 8.D f | 6+l L.$.(.`.#.` ` ` ; K K K t.Q 1.h.c+} Q.B b b b ,.,.,.,.,.,.b       ",
"    Q , t.p.d 7.H ' <.4 ~.C+3+$.(.!+9.T P.K _ _ z _ z , Q *.++4.t.<.; ` ` ` ` b b ,.b ,.b b     ",
"    s.t.p.o.+ a 8.<.4 R.A v ) (.!+W W >.: z z z e { e , Q [.0 4., <.; ; ` ` ` ` b ` b b b b     ",
"    , p.o.+ a 8.D f @ 5 !.$ g `.z.W x :+&.V E { { x.x.k M 9./+G Q !._ K ; ; ` ; ` ` ` ` ` `     ",
"  t.} o d 7.H ' <.4 ~.A A 8.[ #.n x :+Z.Z.r X I O -.~ =+<+d.{.f D.z _ _ K ; ; ` ` ` ` ` ` `     ",
"  } p.o.+ a 8.D 4 ~.A [ d = + t.g.W.z+Z._+C.[./., , &+3 '+~ w , = d 7.* _ K K ; ; ; ; ; ; ; ;   ",
"  p.o.+ 7./.D f 4 ~.~.d = 0+s.4 K ' U .+C.L.= W.% i V.3 <.-.e 8.Q e z z _ _ K K K ; ; ; ; ; K   ",
"  o o.7.a 8.D f ~.A D H s.0.A ` _ z 3 <+l.Q U *+%+N u.=+~.O ` s.p.{ e z z _ _ K K K K K K K K   ",
"  o + a H ' f 4 ~.A A [ , h $ K _ e 3 Q.q 3 ^.|.# N.c =+!.. b s.p.e e e z z _ _ _ K K K K K K   ",
"  d + H ' D 4 @ 5 !.$ g , Q $ ; _ e 3 <.. =.y N.# N.h+=+A . b Q o { e e z z _ _ _ K _ _ K _ _   ",
"  + 7.8.' D f @ 5 !.$ 1., s.1.K z g k @ m =.y %+N.%+8 %.p H.,.D.@ { { e z z z _ _ _ _ _ _ _ _   ",
"  7.a 8.D f 4 ~.A !.1.g h t.g K _ 7.0.( < S.J % N.%+].].G.s * 0.* { e e z z z z z _ _ z z z z   ",
"  a H 8.<.f @ ~.A [ $ g h h 4 [ 8.h C+~+l.6 k , y+c =+C &.9+4.D.5 { { { e e z _ _ z z _ z z z   ",
"  a 8.' <.4 ~.5 !.$ 1.g Q 7.f D 4 Y J.r < d+@ <.<.@+- k.!+9+F./ O.{ e e e z e z z z z z z z     ",
"    8.D <.f @ 5 !.[ 1.<.Q D ` K q.a.B.}+..O O . . H.s v+9+~+}+n.).{ { { e e z e z z z z z e     ",
"    ' D f @ ~.5 !.$ 1.8.} @ b P k+0 /+{.{ x.x.-.-.O O X ~+~+n.n.6.m.:.e e e z z z e z e e e     ",
"    D <.4 4 ~.A !.$ 1.' p.~.2 ;.0 ++ +|+p+x.x.-.-.x.-.I ).n.n.n.@.V m.:.e e e e z z e e e e     ",
"      <.4 @ ~.A !.$ 1.8.o l+T 1+k+h._ z e { { x.x.x.x.x.b+).6.6.V }.{+v.e e e e e e e e {       ",
"      f 4 @ 5 A !.$ 1.a $+( e.p L K _ z z e e e { { { x.{ { m.V }.V {+t+& :.z e e e e e {       ",
"        @ ~.5 A !.$ 1.8.&+`.f+B ; K _ _ z |+e p+e { e { { e p+m.{+X.X.K.7 ^+|+e e e { e         ",
"        @ ~.5 !.[ $ A a q+( 4+` ` ; K _ _ z e z e e e e e { e :.v.t+K.7 7 v.5+e e { { x.        ",
"          ~.5 A !.[ i.w.-+[ * b ` ` ; K K _ z z z e e e e e e e e n+7 7 v.& E.U.e { {           ",
"          5 A 2+[ r+F+*.A.* ,.b b ` ; K K _ _ z z z z z z e e e |+:.E.v.& n+{.9 E p+            ",
"            A e+v r+g+] g * * b b ` ` ; ; K _ _ _ _ z z z z z e e z |+{.{.^+R U.E b+            ",
"              !.[ $ ] g _._.* ,.b b ` ; K K K _ _ z z z z e z z e e e e e { p+x.x.              ",
"                [ $ 1.g _.* * ,.b ` ` ` ; K K _ K _ _ z z e z z e e e p+p+{ { x.                ",
"                  $ 1.g _._.* ,.b b ` ; ` ; K K _ _ _ _ _ z e e e e e e { x.x.                  ",
"                      g _.* * ,.,.b ` ; ; ; K K _ _ z z z z z z e { { { {                       ",
"                        _._.* ,.b b b ` ; K ; K K _ _ _ z z e e e e e {                         ",
"                            * ,.b ` ` ` ` K K K _ _ z _ z z e e { {                             ",
"                                b b ` ` ; ; K _ _ _ _ z z e e {                                 ",
"                                        ; ; K K _ z z e                                         ",
"                                                                                                "};
