/* XPM */
static char * rndxamp_xpm[] = {
"48 48 17 1",
" 	c None",
".	c #1F1F1E",
"+	c #7A7A7A",
"@	c #A7A7A7",
"#	c #4E4E4F",
"$	c #929291",
"%	c #BEBEBF",
"&	c #666667",
"*	c #3A3A39",
"=	c #868687",
"-	c #2F2F2F",
";	c #B2B2B1",
">	c #5A5A59",
",	c #9C9C9C",
"'	c #C7C7C6",
")	c #707070",
"!	c #444444",
"                                                ",
"                   )=,,$$$=)#                   ",
"                ,;;;;@;@,,,$$$+&                ",
"             +%'%%%;;;@@@,,,$$=+)&              ",
"            %'''%%%;;@@@@,$$$$$==++>            ",
"          $%%;;;@;%%%%%;;;;@@=+++))&>*          ",
"         ;%;;@@,,;%''%'%%%%;@=))))))&&>         ",
"        %%;;@@,,,;%;%'''%%;@,=)))&&&&&&>        ",
"       %;%@@@,,$$;;%;%''%%@@,=)&)&&&&&&>>       ",
"      ;%;;@@,,$$$;%;;;%'';@@@=&&&&&&&>>>>!      ",
"     =%;@@@,$$$==@;;;;;%;@@@@=&&&&&>&>>>>#-     ",
"     %;;@@,$$====;%;;;;@;@@@@=&&&&>&>>>>>#*     ",
"    %;;@@,,$$==++@;%;;;;;@@@,=>>>&>>&>>>>>#*    ",
"   =';@@,$$$==+++@;;;;;;@;@@@+&&>>>>>>>####*    ",
"   ;';,,,$===++++@;;;;;;@;@@@=>>>>>>>>>>>###*   ",
"   ''@@,$$$=+++))@;;;;;;;@;@@+>>>>>#>#######*   ",
"  ,%%@$$$==+++)))@;;;;;;;;;;@+>>>>>>>>#>####!.  ",
"  %%%,$$===++)&&&@%;;;;;;@;@;+>#############!-  ",
"  %;%$====$=+))&&,@,,@;;;,,$@+>>&))&&&>##*!!!*  ",
" +;;;=+=$;;@=&&&&@=>>&@;=>>>$=#>$,$$$=)>**!#!-  ",
" =;;;=+)$;;;$&&>>,+##>$%)!##==#>$@$====)***!!*. ",
" ;;;@=))@%;;@)&>&,)###=@>!!#$+#>$,=>>=$+!-!!!*. ",
" ,@@@+)=%%$@;+&>>@)!#!)$##!#$+#>$,=&&$,+*-!!!*- ",
" @@@@+)$%%)$;$>>>,)!>>#&!>##==!>$,,$$@$>*-***-. ",
" $@@@));';=$;@&>>,)!&)*!#)##==!>$,$==+>*--*!**. ",
" ,,,,+=;%;@;@@+>>,)!&=#!>=##$+##$,=##!*---***-. ",
" =,,$+,;@$=$@;$>>,)!&,#*+$!!=+##$,=##!!---***-. ",
" +$$$)=,=)&&+==>>,=)+@=)$,)),+##&)&!!!!!--***-. ",
" #$$$))))&&&&>>>>,@;;;;;;;@@@+##!!#!!!!!*-*---  ",
"  $$$+))&)&&>>>>>$;@@@;@;@;@@+!!##!#!!!*!***-.  ",
"  +==+))&&&&&>>>>$@;@@;@@@@@,+!!!!!!!!!****--.  ",
"  +==+)))&&>>>>>>$@@@@@@@@@,,)#!#!!#*!*!**-*..  ",
"   =++)&&&&&>>>>>$@@@,@@,,@,,)#!!!!!*!****---   ",
"   +=)&)&&&>>>>>>=,,,@,,,,,,$&!!!!!!!*****-..   ",
"    +)&&&&&&>>>#>=,,$,,,$$$$$)#!!!!*!***-*-.    ",
"    ))&&&>>>>>>>>=$$,$$$$$$$=&!!!!*!****--..    ",
"     &&&&&>>>>#>>=$$$$$@,=$==&!!*!*!**-*--.     ",
"     #&&>>&>>>>#>+===$,@@$==+&!!!****-*--.      ",
"      >&&>>>>>>#>+===$@,,$=++>**!****-----      ",
"       >>>>#>##>#+==$,,,,,$++>!!****----.       ",
"        >>>>>####)+=$$$$=$==+#****-*----        ",
"         #>###>##)+========++>***-*----         ",
"          ->>####>&>>>&>>>>##!*-*---.           ",
"            !#####!##!!!******----..            ",
"              !!!#!!!**!***--*--..              ",
"                **!!*!****-*--..                ",
"                    .*----..                    ",
"                                                "};
