/* XPM */
static char * rndxdvi_xpm[] = {
"48 48 25 1",
" 	c None",
".	c #0E0F0F",
"+	c #727A85",
"@	c #A4B0C3",
"#	c #8E97A3",
"$	c #434447",
"%	c #5F6267",
"&	c #CDCDCE",
"*	c #B2C1D7",
"=	c #99A5B7",
"-	c #848A92",
";	c #B0B0B1",
">	c #6B6F75",
",	c #535559",
"'	c #2E2E2F",
")	c #393A3B",
"!	c #1E1F20",
"~	c #D8D9D7",
"{	c #7C7F85",
"]	c #999B9E",
"^	c #C2C2C3",
"/	c #A5A7AB",
"(	c #A9B8CD",
"_	c #B4B8C0",
":	c #494C50",
"                                                ",
"                   +-//]]]-+,                   ",
"                /___;;//]/]]#-->                ",
"             {^^^^_;;;///]]]]--{{>              ",
"            &&^^^_^;;;//]]]#----{{+%            ",
"          ~&&&&^^^__;;;;//]]]]--{{{+>/          ",
"         ~~&&^^^____;;;////]]---{{+>>>{         ",
"        &&&&&^^;;;_/_;/-/]-#]]--{{+{>>%>        ",
"       ~~&&&__;/]#/{(/+-/+{{->{+>{>>>>%%>       ",
"      &&&&&_^_#{{#;-->/>-:%>]>{>>{%>>%>%%,      ",
"     ~~&&&^;^^]-#/*]{>(%->{-/+>>>{>>>>%%%,,     ",
"     ~&&&^^_^*^#-=_*#@_#@]+{;;--#]->>>%%,%,     ",
"    ^&&&^^^*^*_*******_*_(_((@;//=]#-{>%%,,$    ",
"   -&&&^_@=]###----{-{-{-{-{{{{{{]]#-{>%,,,:    ",
"   ^^^^_->>#->'>{++,.%+'!>)>+>!$$#=]--{>%,,,)   ",
"   ^^^^;]{>;*@>#**(>.=*=!'+(((!%,##]#-{>%,::$   ",
"  /^^_/#]#,>-*(>+{+).>#(:!#*=+!))%,>#-{>%,,:$'  ",
"  ^^_;;/#]---(*(++{=++#*@#**#>++')=-##-{%,,:$)  ",
"  _____]#_********************(($!+={:>>:,::$)  ",
" {;___/]-*(((******************())==:#,%,,:$$$  ",
" #;;__-#-_**(**@,,,,:,,:>******($)@=>,%>,,:$$$' ",
" ;;;;_---(((*(**========@******(:#@@]--{>,:$$)! ",
" ///;;{--_*****(+>+>++>+{******(:=@@=]#{>,$$$)' ",
" ///;;{-{(((*(*(-+{+{+-+#*******$=(@=]-->,$$))! ",
" ]/]/;]#{((((******************(:=@@==-->:$$))' ",
" ]]]//#-{(((*(******************$%>>%{>+>:$$))! ",
" ]]]]]{-{(((=:#***@,:%*****@::,($>$%>->,>:)))'' ",
" {]]]]#,+@(($.>*(::=@#>***=%==!%:=%+-++,:$)))'. ",
" ,#-]]->{/@-,!+(+.=***+:*='=*(%{:=%>',,,:$))')  ",
"  ---#{{+@#+#!>*+.=***>.-!%@@@((:#%>${+%$)))''  ",
"  ------+-%==!+(-!{***,.{.%:$$-=:=%>'$)$:))'''  ",
"  >---{{%:+@#!>((+%>>>).+.$@(@,)'#++$+,%$)'''.  ",
"   {{{-{,,%,,!)%@*@-{#>!+.+(((-.!##-'$)$)))''   ",
"   {{{{{+--#-'>=(##((@%>#'%@(@-.!-#{+%,$)'''.   ",
"    {{>++####'>@@,'@@%'#(-)#@=,)'--+>%:)''''    ",
"    >>+>>-+%,)$,=-)::+#@@@-:$:+{:++>%,)''''.    ",
"     >>>>+{{--##===#==@=@===#-#-$+>%:$)''''     ",
"     ]>>>>++{--####=======###--{$%%,$'''''      ",
"      ,>%%%%%%,,,,::::$$$$$$$$)$),:$')''!'      ",
"       %%%%%%%>%>+>>{+%%>:++:,:$$:)''''!)       ",
"        >%%%%%%,,+$%+%$%>),>,:$)$)')'!''        ",
"         %,,,,,,,,,,,:$,:$$::))))''''')         ",
"          %,,,,,:,::::::$$$))))''''!'           ",
"            ::,:::::$$$$)$)))')''''!            ",
"              $:::$$$$$)))))'''''!              ",
"                '$$$$))))))')''!                ",
"                    '''''''!                    ",
"                                                "};
