/* XPM */
static char * rndxmms_xpm[] = {
"48 48 256 2",
"  	c None",
". 	c #221E3A",
"+ 	c #767678",
"@ 	c #4A4A53",
"# 	c #A6A6AB",
"$ 	c #8E8E99",
"% 	c #62626F",
"& 	c #33323C",
"* 	c #82828F",
"= 	c #6E6E79",
"- 	c #3E3E49",
"; 	c #56565F",
"> 	c #9A9AA1",
", 	c #7A76A6",
"' 	c #6A629E",
") 	c #8282AC",
"! 	c #463E74",
"~ 	c #5E5A94",
"{ 	c #BEBEC4",
"] 	c #928EBB",
"^ 	c #524A7F",
"/ 	c #6E6A79",
"( 	c #363256",
"_ 	c #726E9E",
": 	c #B2B2BA",
"< 	c #8E86B0",
"[ 	c #26262C",
"} 	c #7E7E81",
"| 	c #827EA8",
"1 	c #4A4659",
"2 	c #A2A2A9",
"3 	c #6A6A71",
"4 	c #625E64",
"5 	c #AEAEB2",
"6 	c #46464D",
"7 	c #2E2654",
"8 	c #767691",
"9 	c #525258",
"0 	c #626284",
"a 	c #52468A",
"b 	c #9696B9",
"c 	c #8A8A90",
"d 	c #423E60",
"e 	c #5E5E68",
"f 	c #9E9ABB",
"g 	c #6E6A9F",
"h 	c #969699",
"i 	c #767280",
"j 	c #8A8AB1",
"k 	c #3E3A58",
"l 	c #3C3A48",
"m 	c #5A5674",
"n 	c #7A76BC",
"o 	c #766EB4",
"p 	c #2F2E39",
"q 	c #4C4678",
"r 	c #645E8F",
"s 	c #938EC5",
"t 	c #4C4A64",
"u 	c #AAA6C3",
"v 	c #8A82C9",
"w 	c #8682A0",
"x 	c #5E52A4",
"y 	c #8E86C6",
"z 	c #7E7A92",
"A 	c #918EA7",
"B 	c #353248",
"C 	c #827AA9",
"D 	c #6E62A1",
"E 	c #564A94",
"F 	c #7A6EAC",
"G 	c #726E8F",
"H 	c #4C3E90",
"I 	c #857EC0",
"J 	c #6A6289",
"K 	c #464252",
"L 	c #5E5A60",
"M 	c #3D3668",
"N 	c #2A2644",
"O 	c #6A6676",
"P 	c #A29EA9",
"Q 	c #7E7AA8",
"R 	c #8A82B8",
"S 	c #BBBAC3",
"T 	c #7A7A92",
"U 	c #A69EBC",
"V 	c #8A8694",
"W 	c #72727F",
"X 	c #42424E",
"Y 	c #6256A1",
"Z 	c #9A92BC",
"` 	c #554E80",
" .	c #6E6692",
"..	c #7672A1",
"+.	c #8F8AAE",
"@.	c #827E9A",
"#.	c #A6A2C2",
"$.	c #46425F",
"%.	c #A19EB9",
"&.	c #3A3649",
"*.	c #24223C",
"=.	c #7E7A84",
"-.	c #524E5C",
";.	c #AEAAB4",
">.	c #66666E",
",.	c #86868A",
"'.	c #5A5A65",
").	c #9E9EA7",
"!.	c #CACACC",
"~.	c #9592BA",
"{.	c #3E365C",
"].	c #B0AEC1",
"^.	c #413A68",
"/.	c #685EA9",
"(.	c #9A92C4",
"_.	c #524E66",
":.	c #AEAAC0",
"<.	c #9692A8",
"[.	c #7A7A84",
"}.	c #4E4E54",
"|.	c #AAAAB1",
"1.	c #706E84",
"2.	c #423E54",
"3.	c #7D76B4",
"4.	c #6A669E",
"5.	c #8686B0",
"6.	c #3A3657",
"7.	c #BAB6BC",
"8.	c #2E2A34",
"9.	c #332E4E",
"0.	c #C6C6CC",
"a.	c #4E4284",
"b.	c #221A44",
"c.	c #524294",
"d.	c #766E94",
"e.	c #625E82",
"f.	c #545270",
"g.	c #726AB8",
"h.	c #6A6A88",
"i.	c #C6C2C4",
"j.	c #827ABD",
"k.	c #8A869F",
"l.	c #4A4278",
"m.	c #B6B6BC",
"n.	c #666684",
"o.	c #5E5A7A",
"p.	c #6F66A1",
"q.	c #584E98",
"r.	c #4E428E",
"s.	c #6A5E9C",
"t.	c #7A729F",
"u.	c #6A6689",
"v.	c #4B4666",
"w.	c #8E8AA0",
"x.	c #9996A8",
"y.	c #4E4687",
"z.	c #92929A",
"A.	c #363639",
"B.	c #C2C2C9",
"C.	c #2A2A34",
"D.	c #7A72B7",
"E.	c #9692C6",
"F.	c #AAAAC0",
"G.	c #8A86C6",
"H.	c #908AC4",
"I.	c #9292A6",
"J.	c #363647",
"K.	c #2D2A3F",
"L.	c #655AA1",
"M.	c #6F6A91",
"N.	c #CECED4",
"O.	c #241E48",
"P.	c #54469C",
"Q.	c #767291",
"R.	c #7E7ABC",
"S.	c #72728C",
"T.	c #8A86B4",
"U.	c #787684",
"V.	c #4C4A5C",
"W.	c #A8A6B4",
"X.	c #66627C",
"Y.	c #58566C",
"Z.	c #9C9AAC",
"`.	c #6962AC",
" +	c #8682BC",
".+	c #554A8C",
"++	c #766EAC",
"@+	c #B6B2C4",
"#+	c #817E8C",
"$+	c #847EB4",
"%+	c #A5A2B4",
"&+	c #7A769C",
"*+	c #555264",
"=+	c #666294",
"-+	c #9A96C4",
";+	c #453E6C",
">+	c #5C5684",
",+	c #312E44",
"'+	c #665E9C",
")+	c #4E4A74",
"!+	c #7E7A9C",
"~+	c #867ECC",
"{+	c #8F8ABC",
"]+	c #A29EC4",
"^+	c #544E74",
"/+	c #362E5C",
"(+	c #6E66AC",
"_+	c #4E429C",
":+	c #6E6A84",
"<+	c #8E86BC",
"[+	c #6A6A7C",
"}+	c #625E74",
"|+	c #46465C",
"1+	c #9E9AC4",
"2+	c #8A8ABC",
"3+	c #827AB4",
"4+	c #564AA4",
"5+	c #6A6294",
"6+	c #5E5A6C",
"7+	c #7E7AB4",
"8+	c #7A7A9C",
"9+	c #7672AC",
"0+	c #46426C",
"a+	c #66667C",
"b+	c #868694",
"c+	c #4A4284",
"d+	c #7A72AC",
"e+	c #6A6694",
"f+	c #7A767C",
"g+	c #4E4A54",
"h+	c #928E94",
"i+	c #666274",
"j+	c #868292",
"k+	c #726E79",
"l+	c #423E49",
"m+	c #5A5664",
"n+	c #9E9AA4",
"o+	c #7E76A8",
"p+	c #8682B0",
"q+	c #625A90",
"r+	c #968EBC",
"s+	c #564A84",
"t+	c #3A325B",
"u+	c #766EA3",
"v+	c #B6B2BC",
"w+	c #2A2632",
"x+	c #827E84",
"y+	c #867EAA",
"z+	c #A6A2A9",
"A+	c #B2AEB4",
"B+	c #7A7691",
"C+	c #666288",
"D+	c #9A96BB",
"E+	c #8E8A94",
"F+	c #463E64",
"G+	c #726AA1",
"                                                                                                ",
"                                      3 ,.).h z.z.c ,.3 9                                       ",
"                                ).5 m.5 # # 2 > > h z.h+c c } 4                                 ",
"                          + { { S : 5 # 2 > h z.z.$ $ ,.,.* } } W >.                            ",
"                        { { { : : # 2 ).n+h z.$ c ,.,.,.} } [.[.+ + W 4                         ",
"                    2 !.B.{ : 5 # 2 ).x.I.A w.k.j+@.z z z [.f++ + W W 3 4 &                     ",
"                  m.!.B.S : ;.%+%.x.<.A k.k.@.@.@.z B+U.Q.W 1.= = = = 3 3 >.@                   ",
"                N.!.B.S : F.# P x.<.w.k.w z z B+Q.Q.W G :+M.:+:+3 O >.3 >.4 '.6                 ",
"              !.!.{ S 5 F.%.f <.+.w.w @.@.&+Q.d.G M.M.:+u.O C+X.a+a+% >.% % % e }.              ",
"            B.!.B.S : :.%+%.D+~.A T.+.<.Z !+t...G M. . . .u.u.u.1.B+:+% % e L ; }.A.            ",
"          h !.{ S @+].u #.f D+Z D+f f %.f T.t.u+u+_ G+g p. . .M.z z B+1.X.4 '.; ; ; C.          ",
"          !.B.S ].:.u #.f f %.#.#.]+]+-+-+~.3.G+p.D D 5+D 5+5+C @.z B+8 W a+; ; ; }.-           ",
"        m.{ m.: F.u #.u :.u u #.]+f f D+Z ~.<+D D ' /.r s.' &+| @.T B+Q.G :+i+; 9 9 }.l         ",
"      x+B.S : ;.:.].].].u u #.]+1+-+-+(.E.r+] 3./.L.L.L.L.t.| @.Q !+B+Q.S.1./ i+-.}.@ -         ",
"      5 S v+F.;.@+@+:.:.#.]+]+]+1+D+(.~.E.r+{+R /.Y Y Y p.| | | Q !+B+t.i 1.a+Y.}.@ @ @ A.      ",
"      S : |.%+%.u :.:.#.#.]+1+D+-+(.E.r+H.H.H.H.3.Y q.L.I p+y+C C &+&+Q.G :+m v.1 @ @ X A.      ",
"    > m.;.%+Z.x.A ]+u #.]+1+1+(.E.r+s s H.H.<+y v /.x 3.I ) $+| C Q &+..G o.v.|+1 |+6 6 X C.    ",
"    m.5 W.P x.+.k.T.-+]+]+1+(.Z E.s H.H.y y y y y I D.R R $+$+Q Q , &+Q.q+` $.$.$.K 6 X - C.    ",
"    A+|.%+Z.I.k.w y+R r+D+D+-+r+s s H.H.y y v v v v  +I I $+$+3+Q , &+e+` ^ F+F+$.2.K X X -     ",
"  #+|.2 Z.<.w.k.!+Q C Q {+(.r+s s H.y y y G.v v v ~+~+v I I j.Q o+, ' ^ s+q d d d X - X A.p     ",
"  * # ).x.A k.@.B+t.D.F F T.r+H.H.H.y y v y v v v v I v I I $+3+o+G+E y.^ q ^.k k 2.l - - l *.  ",
"  # P x.I.w.w !+t.t.d+++G+p+~.D+<+p+E.s H.v ~+g.I s H.D.$+T.p+R.g q.^ r u.e.k k k k 2.- A.A..   ",
"  h ).z.$ w @.B+Q.u+F G+, b b b ] ~.E.E.s y g.R.r+E.E.2+] {++.$+L.P.o.&+Q.n.M k {.&.&.l &.A.p   ",
"  ).h <.k.j+z t.M.G u+g +.D+~.] -+E.{+E.E.~+/.s E.H.2+E.H.5.T.5.9+~ G &+Q.e.{.6.k k l l A.& .   ",
"  $ z.h+k.@.B+Q.M.p.G+p.A ~.p+g ~.~.(+E.E.~+`.E.E.D.D.s I _ T.R d+r ..T h.)+t+t+( 6.J.J.J.& C.  ",
"  h z.c b+#+B+1. .M.p.4.j b | g ~.{+`.s E.~+/.E.E.D.n s $+p.T.) 4.G T ..q+! ( 6.6.B B J.& p .   ",
"  #+$ b+@.T Q.:+J  .p.p.T.~.| 4.~.] 4.s ~.~+/.E.E.D.9+2+$+4.T.) r ..8+8 o.H /+( t+B B B & p *.  ",
"  T c j+#+U.G M.n.e+p.J ) +.) _ +.2+g s 2+~+(+2+s 9+D.2+$+g ) | r G ..G C+^+( B ( B B & p [ b.  ",
"  _.c * z U.W  .X.J ' ' p.Q  + + +I I  +~+~+~+~+~+R.~+R.R.n 3.9+g _ g  .C+e.F+( B 9.& & & p     ",
"    ,.* =.B+:+:+e.C+G+t.| R $+p+$+I I I R.~+~+j.j.~+j.3.3.3.D.d+u+g  .u.0 e.m d B B ,+p C..     ",
"    [.} U.i :+u.J G | w | p+| $+$+$+j.I j.9+D.R.R.j.j.j.3.d+9+.._ g e+J e.o.m ^+9.,+p p C.[     ",
"    :+=.U.W / / z @.@.| w | | y+| 7+| 7+o P.P.3.3.3.3.D.d+9+u+G+M. .C+0 o.o.f._.B ,+K.C.. b.    ",
"      [.i W h.a+1.@.@.!+C C Q C C Q 7+`.P.H _+q.o n , d+.._ _ G+h.e+r e.o.Y.*+$.,+,+C.C.[       ",
"      W + = / i+X.Q.z !+!+!+Q 8+Q t.D E P._+H H Y u+9+..u+_ g e+J r e.o.f._.k B K.8.C.[ b.      ",
"        i / [+i+}+C+Q.T B+&+&+, ..q+E y.P.r.r.r.H Y G+G+G+M.e+e+C+e.o.m v.k K.K.K.8.w+[         ",
"        >.= O % }+}+u.Q.B+B+B+d.q+` a a r.y.r.c+c+a.q+M.h.e+J e.e.o.^+^.M 6.,+K.C.[ . b.        ",
"          3 O % e }+e.C+G G h.>+.+` ^ ^ a y.a.H c+c+c+q+C+C+r o.^+;+^.6.6.( K.N C.[ *.          ",
"          q >.% 4 6+6+Y.a+C+f.v.q 0+! ! ^.^.^.^.M t+M ^.o.e.m d 6.( 9.B 9.K.8.C.[ b.            ",
"            v.% e Y.Y.*+_.)+v.|+0+d ^.^.M M M t+t+/+/+/+^.d 9.9.K.9.K.K.K.C.N [ *.b.            ",
"              ; L L m+*+-.t t $.$.$.d d k 6.6.M 6.( ( 9.9.9./+K.9.K.K.K.K.w+[ [ b.              ",
"                )+m+*+*+-.t V.v.$.d 2.d k 6.6.( 6.( ( ( 9.9.9.K.9.K.K.C.C.w+*..                 ",
"                  V.; 9 -.g+1 1 K K d k k k 6.6.B 6.( 9.9.,+9.9.K.K.C.w+[ . b.                  ",
"                    7 9 -.}.1 |+K 2.X 2.k l k &.( B B B & ,+p K.p N C.w+[                       ",
"                        K @ @ 6 6 X l+2.l l &.&.J.J.& ,+,+,+K.p w+C.*.b.                        ",
"                            d K K l+- - l l l B B B & p p p C.C.w+*.                            ",
"                                ( - l l &.J.J.A.& & & p p C.*.b.                                ",
"                                        7 9.,+,+K.N N O.                                        ",
"                                                                                                "};
