/* XPM */
static char * rndyahoo_xpm[] = {
"48 48 256 2",
"  	c None",
". 	c #262626",
"+ 	c #828A92",
"@ 	c #CA1E42",
"# 	c #9A2A42",
"$ 	c #6A6A6A",
"% 	c #BEBEBE",
"& 	c #CA6276",
"* 	c #4E4E4E",
"= 	c #92666E",
"- 	c #CE4E66",
"; 	c #AAAAAA",
"> 	c #925A66",
", 	c #CA3854",
"' 	c #D68A96",
") 	c #323232",
"! 	c #767676",
"~ 	c #9EA2A4",
"{ 	c #924656",
"] 	c #CE2646",
"^ 	c #823E4E",
"/ 	c #76525A",
"( 	c #424242",
"_ 	c #5A5A5A",
": 	c #C6929E",
"< 	c #969A9A",
"[ 	c #A62840",
"} 	c #F90636",
"| 	c #B22E4A",
"1 	c #CECECE",
"2 	c #828282",
"3 	c #A66A76",
"4 	c #D3AAB2",
"5 	c #D67A8E",
"6 	c #B6B6B6",
"7 	c #DE1A42",
"8 	c #8E96A2",
"9 	c #3A3A3A",
"0 	c #AA465A",
"a 	c #666666",
"b 	c #AA8E92",
"c 	c #BE2E4A",
"d 	c #B25A6A",
"e 	c #E0163E",
"f 	c #5A4246",
"g 	c #624E52",
"h 	c #D62648",
"i 	c #7E7E7E",
"j 	c #AA2A42",
"k 	c #CACACA",
"l 	c #8E8E8E",
"m 	c #464646",
"n 	c #525252",
"o 	c #EA0E3A",
"p 	c #626262",
"q 	c #A6767E",
"r 	c #B2364E",
"s 	c #727272",
"t 	c #D24A66",
"u 	c #AEAEAE",
"v 	c #926A72",
"w 	c #C6465E",
"x 	c #E6123E",
"y 	c #D66E82",
"z 	c #B66E7E",
"A 	c #AE223E",
"B 	c #AC5C6C",
"C 	c #943A4E",
"D 	c #C2C2C2",
"E 	c #D28E9A",
"F 	c #D6D6D6",
"G 	c #DD3255",
"H 	c #92767E",
"I 	c #BE3A52",
"J 	c #8E767A",
"K 	c #B2223E",
"L 	c #B63651",
"M 	c #CE526C",
"N 	c #969292",
"O 	c #DA163E",
"P 	c #AA5666",
"Q 	c #7A525A",
"R 	c #965460",
"S 	c #9A9A9A",
"T 	c #868686",
"U 	c #86929E",
"V 	c #2A2A2A",
"W 	c #D49EA8",
"X 	c #3E3E3E",
"Y 	c #4A4A4A",
"Z 	c #DE365A",
"` 	c #B27A86",
" .	c #6E5E62",
"..	c #7A7A7A",
"+.	c #565656",
"@.	c #D6BEC2",
"#.	c #B6223E",
"$.	c #A3626F",
"%.	c #363636",
"&.	c #5E5E5E",
"*.	c #BE2A46",
"=.	c #A6A6A6",
"-.	c #CC3252",
";.	c #6E6E6E",
">.	c #BE6676",
",.	c #AB3A4F",
"'.	c #A03A4E",
").	c #726666",
"!.	c #9E9E9E",
"~.	c #8E7E82",
"{.	c #DC3A5A",
"].	c #B2B2B2",
"^.	c #92868A",
"/.	c #D11E42",
"(.	c #DA264A",
"_.	c #BABABA",
":.	c #2E2E2E",
"<.	c #B67E8A",
"[.	c #CA7E8E",
"}.	c #A27C84",
"|.	c #D7526E",
"1.	c #CE9EA6",
"2.	c #7E565E",
"3.	c #5E4E52",
"4.	c #E21A42",
"5.	c #BE3650",
"6.	c #BA2242",
"7.	c #9E9698",
"8.	c #56464A",
"9.	c #F60A39",
"0.	c #9A4656",
"a.	c #C6C6C6",
"b.	c #94626E",
"c.	c #A63E52",
"d.	c #D6B6BA",
"e.	c #E22E52",
"f.	c #EE123E",
"g.	c #D68292",
"h.	c #E62248",
"i.	c #D65A72",
"j.	c #DA1E43",
"k.	c #C26E7E",
"l.	c #C26276",
"m.	c #A65666",
"n.	c #8E9298",
"o.	c #C67C8C",
"p.	c #D2D2D2",
"q.	c #CE5E76",
"r.	c #B23E56",
"s.	c #B8566A",
"t.	c #8C5A64",
"u.	c #DA4262",
"v.	c #D6667E",
"w.	c #C14E65",
"x.	c #8A7E7E",
"y.	c #BAAEAE",
"z.	c #DE284C",
"A.	c #D24E66",
"B.	c #8A8288",
"C.	c #92969A",
"D.	c #6A464E",
"E.	c #C61E42",
"F.	c #AEA4A8",
"G.	c #7E767A",
"H.	c #C42E4B",
"I.	c #F20A3A",
"J.	c #B83A52",
"K.	c #EE0E3A",
"L.	c #8A8A8A",
"M.	c #9A3A4E",
"N.	c #BE2242",
"O.	c #9A7E86",
"P.	c #CE5A72",
"Q.	c #EA1A45",
"R.	c #E7163F",
"S.	c #D6929E",
"T.	c #CA8595",
"U.	c #C57585",
"V.	c #827A7E",
"W.	c #9C626C",
"X.	c #E6264A",
"Y.	c #6C4E54",
"Z.	c #A4485A",
"`.	c #B68A92",
" +	c #A28E92",
".+	c #D42246",
"++	c #969EA3",
"@+	c #AB4257",
"#+	c #9A5C68",
"$+	c #7A7677",
"%+	c #D22C4E",
"&+	c #8A3E4E",
"*+	c #6A6262",
"=+	c #9A9698",
"-+	c #CE96A2",
";+	c #AA6272",
">+	c #BE425A",
",+	c #F20E3C",
"'+	c #D6566F",
")+	c #D65E76",
"!+	c #DADADA",
"~+	c #BA2E4A",
"{+	c #865662",
"]+	c #D94E6A",
"^+	c #767272",
"/+	c #DA4A66",
"(+	c #9A767E",
"_+	c #726E71",
":+	c #EE1641",
"<+	c #E22A4E",
"[+	c #C32242",
"}+	c #C42A49",
"|+	c #D23252",
"1+	c #B1566A",
"2+	c #B23A52",
"3+	c #DD3E5E",
"4+	c #C4324E",
"5+	c #C42646",
"6+	c #CE909C",
"7+	c #C63652",
"8+	c #CA2245",
"9+	c #D67286",
"0+	c #E81E46",
"a+	c #A22A42",
"b+	c #A2A2A2",
"c+	c #FE0236",
"d+	c #928E8E",
"e+	c #565254",
"f+	c #AE7682",
"g+	c #EA123C",
"h+	c #929292",
"i+	c #C6526A",
"j+	c #969696",
"k+	c #8E8A8A",
"l+	c #BE324E",
"m+	c #923E4E",
"n+	c #CC566E",
"o+	c #A23E52",
"p+	c #A2A6A6",
"q+	c #949AA0",
"r+	c #CC2A4A",
"s+	c #D81A40",
"t+	c #D66279",
"u+	c #D2AEB6",
"v+	c #B9324E",
"w+	c #855A62",
"x+	c #AA3E54",
"y+	c #965E6A",
"z+	c #DE1E42",
"A+	c #B45E70",
"B+	c #927A80",
"C+	c #D2A2AE",
"D+	c #BE6A7E",
"E+	c #BA3E56",
"F+	c #9A3E52",
"G+	c #D496A2",
"                                                                                                ",
"                                      6 ].u ; =.b+!.S j+h+                                      ",
"                                D % _.6 ].u ; =.b+!.S j+h+l L.T                                 ",
"                          1 k a.D % _.6 ].u ; =.b+!.S j+h+l L.T 2 i                             ",
"                        1 k a.D % % _.6 ].u ; =.b+!.S j+h+l L.T 2 i ..!                         ",
"                    F p.1 1 k D D _.6 ].u ; =.=.b+!.S j+h+l L.T 2 i ..! s ;.                    ",
"                  F F 1 k a.a.D % _.6 6 ].u =.b+!.!.S j+h+l L.T 2 i ..! s ;.$                   ",
"                !+F p.1 1 k a.% % _.6 ].u ; =.=.b+S j+h+l L.L.T i i ..! s ;.$ a                 ",
"              F F p.p.k a.a.D % _._.].u ; ; b+b+!.S j+j+h+L.T T i ..! ! ;.$ $ a p               ",
"            F F p.1 k k k D D % _.6 ].u u =.=.!.!.S j+l l L.T 2 i i ..s s ;.a p &.&.            ",
"          F p.p.1 1 k a.a.% % _.6 6 ].; ; =.b+!.S j+j+l L.L.2 2 ....! s ;.$ $ a &._ _           ",
"          p.@.u+u+4 C+1.-+-+T.T.T.o.o.U.U.k.D+` S j+h+l l T T 2 i ! ! ;.$ $ a p &._ +.          ",
"        1 k u+C+G+S.' g.5 5 y v.t+i.i.M A.]+t l.j+h+h+L.L.T 2 i i ! ! s ;.a p p &._ +.n         ",
"      1 k k 4 W G+' g.5 9+v.v.)+i.'+M '+M - - l.S j+l l T T i i ..! s ;.$ a a &.&.+.+.n         ",
"      k a.a.D _.].y.: T.y v.t+i.|.]+P.b S =+=+N C.h+l (+$.$.#+y+y+> t.t.w+Q Q Y.Y.g 3.n *       ",
"      a.a.D D _.6 ].u =.T.t+i.|.]+/+u.n+b S S < N l L.d |+, , 7+5.L J.,.,.o+F+F+&+^ D.* Y       ",
"    D % D % % _._._.6 u =.U.|.]+u.u.3+{.l.j+j+C.h+l L.1+%+%+H.-.5.l+L r ,.'.F+m+&+^ g * Y m     ",
"    % % _._._._.6 6 ].].u F.& u.u.3+Z G {.f+N d+l L.T x.B+O.3 E+H.l+v+r ,.0.{ w+*+ ._ Y m m     ",
"    _._._.6 6 6 ].].].u ; ; `.& 3+{.G e.z.G q l l L.2 2 T d+^.1+H.H.~+v+R $+^+s $ a _ Y m (     ",
"  6 6 6 6 6 6 ].].].; ; ; =.=.<.3+G e.X.X.0+w.k+T T T i i b.-.r+] }+r.R i ..;.a _ n * Y m (     ",
"  ].].].u u u u ; u ; ; =.=.b+S z G z.X.h.Q.Q.w.2 2 2 ..= r+.+] ] r.B+i i ;._ n n * Y m ( ( X   ",
"  u u u u u ; ; ; =.=.b+b+!.!.!.=+w.X.0+Q.R.f.f.$.2 i = .+4.j./.I J 2 i ;.&._ +.* Y Y m ( X 9   ",
"  ; ; ; =.; =.=.=.=.b+b+~ !.S S S }.|+Q.:+f.K.9.(.v y+z+R.e .+B ~.T i a _ +.n n * Y m m X X 9   ",
"  =.=.=.=.b+b+~ b+!.!.S S < j+j+h+h+}.<+:+,+9.} } 9.,+f.x z+;+l T 2 a _ _ +.+.n * Y m ( X 9 %.  ",
"  b+b+b+b+b+++!.++!.q+S j+8 j+h+U l l w R.,+9.} c+} I.K.R.;+k+k+! a &._ +.n * * Y m ( ( X 9 %.  ",
"  !.!.!.++S q+q+S C.< C.C.8 l l L.L.+ x., K.I.c+} 9.I.R.A+d+l ..p p &._ +.n n Y Y m ( X 9 %.%.  ",
"  S S S S S j+j+j+N h+h+l n.l l L.T T 2 ~.z+,+} } I.I.w.d+L.! p &._ _ +.n * * m m ( X 9 9 ) )   ",
"  S =+=+=+j+C.N C.n.h+l l L.L.T T 2 2 i V.%+g+K.o I.o s.l i a p &._ +.+.n * Y Y ( ( X 9 %.%.)   ",
"  h+h+h+h+d+n.d+d+l l L.L.T T T T 2 2 i G.] x o g+x o s.2 p &.&.&._ n n * Y m m ( X X 9 ) )     ",
"    l l l l l l l L.T L.T T T i i ....$+^+r+R.e x x e 1+2 p &._ +.n n * * Y m ( X 9 %.%.) :.    ",
"    l L.L.L.T T T T 2 T 2 i 2 i i ....! ^+r+e e O e O 1+i &._ _ +.n * Y Y m ( ( X 9 %.%.:.:.    ",
"    T T T T T T 2 2 2 i i i ....! ! ! ! _+c j.j.s+s+s+P .._ _ n n n * Y m m ( X 9 9 %.:.:.V     ",
"      2 2 2 i 2 2 i i i ....! $+^+_+_+$ t.5+/./././.@ m.G.+.+.n * * Y m ( ( X 9 %.) ) ) :.      ",
"      2 i i i ....i ......! ! > r.J.L 5.*.] 8+8+E.E.E.5+| j j a+# f m m ( X 9 9 %.%.) V V       ",
"        ........! ! ! s ! s s R L v+c *.5+5+5+5+[+[+N.6.6.#.K A [ f m ( X X 9 %.) :.:.V         ",
"        ! ! ! ! ! s s s ;.;.;.w+o+0 0 0 @+@+x+x+x+x+c.c.'.'.'.C C  .* X X %.%.%.) :.V .         ",
"          s s ;.s ;.;.;.;.$ $ $ ;.i i i i i i i ....$+$+! s ;.$ $ a * 9 9 %.) :.:.:.V           ",
"          ;.;.;.$ $ $ $ a a a a a ;.s s ;.;.$ $ $ $ $ a p p &.&._ +.m 9 9 %.) :.:..             ",
"            $ $ $ $ a a a p p p p &._ _ _ _ +.+.* * * Y Y m ( ( X X 9 %.) ) :.V V .             ",
"              a p p p p p p &.&._ _ _ +.+.n n * * Y Y m ( m ( X 9 %.%.) ) :.:.V .               ",
"                p p &.&._ _ _ _ +.+.+.n n * * * Y m m m ( X X X 9 %.%.) :.V V V                 ",
"                  _ &._ _ _ +.+.+.+.n * * * Y Y m m m ( X 9 9 %.%.) :.:.V V .                   ",
"                    +.+.+.+.n n * * * Y Y Y m m ( X X 9 X %.%.) ) ) :.V .                       ",
"                        n * n * * Y Y Y Y m ( ( ( X 9 9 %.%.%.) :.V V V                         ",
"                            Y Y Y Y m ( ( ( ( X X X 9 %.%.) :.:.:.V                             ",
"                                m ( m ( ( X 9 9 9 %.%.%.) :.:.:.                                ",
"                                        X X 9 %.%.) ) )                                         ",
"                                                                                                "};
